<?xml version="1.0" encoding="UTF-8" standalone="no"?>
<svg
   width="16px"
   height="16px"
   viewBox="0 0 16 16"
   version="1.1"
   id="svg25"
   sodipodi:docname="hicolor_apps_symbolic_transmission-symbolic 2.svg"
   inkscape:version="1.2 (dc2aeda, 2022-05-15)"
   inkscape:export-filename="hicolor_apps_symbolic_transmission-symbolic 2.png"
   inkscape:export-xdpi="96"
   inkscape:export-ydpi="96"
   xmlns:inkscape="http://www.inkscape.org/namespaces/inkscape"
   xmlns:sodipodi="http://sodipodi.sourceforge.net/DTD/sodipodi-0.dtd"
   xmlns:xlink="http://www.w3.org/1999/xlink"
   xmlns="http://www.w3.org/2000/svg"
   xmlns:svg="http://www.w3.org/2000/svg">
  <sodipodi:namedview
     id="namedview27"
     pagecolor="#505050"
     bordercolor="#ffffff"
     borderopacity="1"
     inkscape:showpageshadow="0"
     inkscape:pageopacity="0"
     inkscape:pagecheckerboard="1"
     inkscape:deskcolor="#505050"
     showgrid="false"
     inkscape:zoom="14.75"
     inkscape:cx="19.830508"
     inkscape:cy="11.457627"
     inkscape:window-width="1336"
     inkscape:window-height="742"
     inkscape:window-x="0"
     inkscape:window-y="25"
     inkscape:window-maximized="0"
     inkscape:current-layer="svg25" />
  <defs
     id="defs16">
    <filter
       id="alpha"
       filterUnits="objectBoundingBox"
       x="0"
       y="0"
       width="1"
       height="1">
      <feColorMatrix
         type="matrix"
         in="SourceGraphic"
         values="0 0 0 0 1 0 0 0 0 1 0 0 0 0 1 0 0 0 1 0"
         id="feColorMatrix2" />
    </filter>
    <mask
       id="mask0">
      <g
         filter="url(#alpha)"
         id="g7">
        <rect
           x="0"
           y="0"
           width="16"
           height="16"
           style="fill:rgb(0%,0%,0%);fill-opacity:0.15;stroke:none;"
           id="rect5" />
      </g>
    </mask>
    <clipPath
       id="clip1">
      <rect
         x="0"
         y="0"
         width="192"
         height="152"
         id="rect10" />
    </clipPath>
    <g
       id="surface10347"
       clip-path="url(#clip1)">
      <path
         style=" stroke:none;fill-rule:nonzero;fill:rgb(0%,0%,0%);fill-opacity:1;"
         d="M 36.976562 79.621094 L 41.335938 83.976562 L 56.695312 83.976562 L 56.695312 79.621094 Z M 87.160156 79.621094 L 87.160156 83.976562 L 102.382812 83.976562 L 106.746094 79.621094 Z M 87.160156 79.621094 "
         id="path13" />
    </g>
    <filter
       style="color-interpolation-filters:sRGB;"
       inkscape:label="Invert"
       id="filter330"
       x="0.90420523"
       y="0"
       width="0.095794765"
       height="0.20838197">
      <feColorMatrix
         type="hueRotate"
         values="180"
         result="color1"
         id="feColorMatrix326" />
      <feColorMatrix
         values="-1 0 0 0 1 0 -1 0 0 1 0 0 -1 0 1 0.21 0.72 0.07 0.59 0 "
         result="color2"
         id="feColorMatrix328" />
    </filter>
  </defs>
  <g
     id="surface10333"
     style="filter:url(#filter330)"
     transform="matrix(1.0048467,0,0,0.927076,-0.00490353,0.41589523)">
    <use
       xlink:href="#surface10347"
       transform="translate(-168,-16)"
       mask="url(#mask0)"
       id="use18" />
    <path
       style="fill:#231e30;fill-opacity:1;fill-rule:nonzero;stroke:none"
       d="m 2,6.546875 v 7.457031 C 2,14.554688 2.515625,15 3,15 h 10 c 0.511719,0 1,-0.355469 1,-0.996094 V 6.550781 C 12.640625,6.769531 11.308594,6.914062 10,7 v 3 h 2 L 8,14 4,10 H 6 V 7.035156 C 4.636719,6.964844 3.304688,6.808594 2.011719,6.550781 c -0.00391,0 -0.00781,0 -0.011719,0 z m 0,0"
       id="path20" />
    <path
       style="fill:#231e30;fill-opacity:1;fill-rule:nonzero;stroke:none"
       d="m 10,1.054688 v 4.90625 C 11.308594,5.875 12.640625,5.863281 14,5.644531 14.546875,5.558594 15,5.171875 15,4.582031 V 2.367188 C 15,1.777344 14.542969,1.398438 14,1.300781 12.636719,1.050781 11.308594,1.128906 10,1.054688 Z M 6,1.0625 C 4.648438,1.144531 3.320312,1.078125 2.011719,1.300781 c -0.546875,0.09375 -1,0.476563 -1,1.066407 v 2.214843 c 0,0.589844 0.457031,0.957031 1,1.0625 C 3.304688,5.902344 4.636719,5.921875 6,5.996094 Z m 0,0"
       id="path22" />
  </g>
</svg>
