<svg width="16" height="16" version="1.1" xmlns="http://www.w3.org/2000/svg">
 <path d="m7.1111 4v3.5556l0.22222 1.7778h1.3333l0.22222-1.7778v-3.5556zm0 6.2222v1.7778h1.7778v-1.7778z" color="#444444" fill="#ef2929"/>
 <g transform="translate(0 2)" fill="#ffffff" stroke-width="1.5">
  <g transform="matrix(.43738 0 0 .5 -145.4 -266.68)">
   <g transform="matrix(0,-1.0825,-1.0825,0,1464.7,557.15)" fill="#ffffff" stroke-width="1.5">
    <g transform="matrix(.00011827 .032712 -.032712 .00011827 18.269 1034.4)" fill="#ffffff" stroke-width="1.5">
     <path d="m345.44 248.29-194.29 194.28c-12.359 12.365-32.397 12.365-44.75 0-12.354-12.354-12.354-32.391 0-44.744l171.91-171.91-171.91-171.9c-12.354-12.359-12.354-32.394 0-44.748 12.354-12.359 32.391-12.359 44.75 0l194.29 194.28c6.177 6.18 9.262 14.271 9.262 22.366 0 8.099-3.091 16.196-9.267 22.373z" fill="#ffffff" stroke-width="1.5"/>
    </g>
   </g>
  </g>
  <g transform="matrix(-.43738 0 0 -.5 161.4 278.68)">
   <g transform="matrix(0,-1.0825,-1.0825,0,1464.7,557.15)" fill="#ffffff" stroke-width="1.5">
    <g transform="matrix(.00011827 .032712 -.032712 .00011827 18.269 1034.4)" fill="#ffffff" stroke-width="1.5">
     <path d="m345.44 248.29-194.29 194.28c-12.359 12.365-32.397 12.365-44.75 0-12.354-12.354-12.354-32.391 0-44.744l171.91-171.91-171.91-171.9c-12.354-12.359-12.354-32.394 0-44.748 12.354-12.359 32.391-12.359 44.75 0l194.29 194.28c6.177 6.18 9.262 14.271 9.262 22.366 0 8.099-3.091 16.196-9.267 22.373z" fill="#ffffff" stroke-width="1.5"/>
    </g>
   </g>
  </g>
 </g>
</svg>
