<svg height="16" width="16" xmlns="http://www.w3.org/2000/svg"><g fill="#363636" transform="translate(0 2)"><path d="m4.6667 5.3333c-.55228 0-.66667.29848-.66667.66667s.11438.66667.66667.66667c.035246-.0002039.070452-.00167.10547-.00433.025952.0009334.050431.00433.076822.00433h6.3021c.0255 0 .04913-.00346.07422-.00433.03588.00274.07196.0042.10807.00433.55228 0 .66666-.29848.66666-.66667s-.11438-.66667-.66666-.66667c-.03525.000204-.07045.00167-.10547.00433-.02595-.0009433-.05043-.00433-.07682-.00433h-6.3021c-.025504 0-.049125.00346-.074218.00433-.035881-.00275-.071958-.00419-.10807-.00433z"/><g fill="#363636" stroke-width="1.5"><path d="m345.44 248.29-194.29 194.28c-12.359 12.365-32.397 12.365-44.75 0-12.354-12.354-12.354-32.391 0-44.744l171.91-171.91-171.91-171.9c-12.354-12.359-12.354-32.394 0-44.748 12.354-12.359 32.391-12.359 44.75 0l194.29 194.28c6.177 6.18 9.262 14.271 9.262 22.366 0 8.099-3.091 16.196-9.267 22.373z" transform="matrix(-.01548794946 -.00006401364 -.00005599657 .01770537 5.47947956 2.00690375)"/><path d="m345.44 248.29-194.29 194.28c-12.359 12.365-32.397 12.365-44.75 0-12.354-12.354-12.354-32.391 0-44.744l171.91-171.91-171.91-171.9c-12.354-12.359-12.354-32.394 0-44.748 12.354-12.359 32.391-12.359 44.75 0l194.29 194.28c6.177 6.18 9.262 14.271 9.262 22.366 0 8.099-3.091 16.196-9.267 22.373z" transform="matrix(.01548794946 .00006401364 .00005599657 -.01770537 10.52052044 9.99309625)"/></g></g></svg>