<svg height="16" width="16" xmlns="http://www.w3.org/2000/svg"><path d="m7.1111 4v3.5556l.22222 1.7778h1.3333l.22222-1.7778v-3.5556zm0 6.2222v1.7778h1.7778v-1.7778z" fill="#ef2929"/><g fill="#363636" stroke-width="1.5" transform="translate(0 2)"><path d="m345.44 248.29-194.29 194.28c-12.359 12.365-32.397 12.365-44.75 0-12.354-12.354-12.354-32.391 0-44.744l171.91-171.91-171.91-171.9c-12.354-12.359-12.354-32.394 0-44.748 12.354-12.359 32.391-12.359 44.75 0l194.29 194.28c6.177 6.18 9.262 14.271 9.262 22.366 0 8.099-3.091 16.196-9.267 22.373z" transform="matrix(-.01548794946 -.00006401364 -.00005599657 .01770537 5.47947956 2.00690375)"/><path d="m345.44 248.29-194.29 194.28c-12.359 12.365-32.397 12.365-44.75 0-12.354-12.354-12.354-32.391 0-44.744l171.91-171.91-171.91-171.9c-12.354-12.359-12.354-32.394 0-44.748 12.354-12.359 32.391-12.359 44.75 0l194.29 194.28c6.177 6.18 9.262 14.271 9.262 22.366 0 8.099-3.091 16.196-9.267 22.373z" transform="matrix(.01548794946 .00006401364 .00005599657 -.01770537 10.52052044 9.99309625)"/></g></svg>