<svg height="16" viewBox="0 0 16 16" width="16" xmlns="http://www.w3.org/2000/svg"><g fill="#fbf7f8"><path d="m3 1c-1.108 0-2 .892-2 2v10c0 1.108.892 2 2 2h10c1.108 0 2-.892 2-2v-10c0-1.108-.892-2-2-2zm0 3h10c.554 0 1 .446 1 1v8c0 .554-.446 1-1 1h-10c-.554 0-1-.446-1-1v-8c0-.554.446-1 1-1z"/><path d="m3.5 7c-.277 0-.5.223-.5.5v4c0 .277.223.5.5.5h2c.277 0 .5-.223.5-.5v-4c0-.277-.223-.5-.5-.5zm.5 1h1v3h-1z"/><path d="m7.5 7h5c.276142 0 .5.223858.5.5 0 .276142-.223858.5-.5.5h-5c-.276143 0-.5-.223858-.5-.5 0-.276142.223857-.5.5-.5z"/><path d="m7.5 9h5c.276142 0 .5.223858.5.5 0 .276142-.223858.5-.5.5h-5c-.276143 0-.5-.223858-.5-.5 0-.276142.223857-.5.5-.5z"/><path d="m7.5 11h5c.276142 0 .5.223858.5.5 0 .276142-.223858.5-.5.5h-5c-.276143 0-.5-.223858-.5-.5 0-.276142.223857-.5.5-.5z"/></g></svg>