<?xml version="1.0" encoding="UTF-8"?>
<!-- Generated by Pixelmator Pro 3.2.2 -->
<svg width="16" height="16" viewBox="0 0 16 16" xmlns="http://www.w3.org/2000/svg" xmlns:xlink="http://www.w3.org/1999/xlink">
    <g id="document-open-torrent">
        <path id="Background" fill="none" stroke="none" d="M 0 0 L 16 0 L 16 16 L 0 16 L 0 0 Z"/>
        <path id="Group" fill="#fbf7f8" fill-rule="evenodd" stroke="none" d="M 6.19038 2.00026 C 5.96156 2.00641 5.75037 2.10594 5.62349 2.26745 L 2.79181 5.86742 C 2.64672 6.04576 2.6263 6.276529 2.73838 6.47121 C 2.85046 6.66589 3.07765 6.79426 3.33279 6.80707 C 3.58793 6.81988 3.83141 6.71515 3.96983 6.533051 L 5.50458 4.583059 L 5.50458 11.6002 C 5.50097 11.8166 5.6351 12.0178 5.85562 12.1269 C 6.07613 12.236 6.34887 12.236 6.56938 12.1269 C 6.7899 12.0178 6.92403 11.8166 6.92042 11.6002 L 6.92042 2.60026 C 6.92052 2.43789 6.84292 2.28237 6.70535 2.169291 C 6.56778 2.05621 6.382 1.99522 6.19045 2.00026 L 6.19038 2.00026 Z M 10.449 3.79088 C 10.2612 3.79336 10.0823 3.85895 9.95163 3.97323 C 9.82094 4.08751 9.74917 4.241119 9.75211 4.400249 L 9.75211 13.4002 C 9.75226 13.6646 9.9565 13.8977 10.255 13.9743 C 10.5535 14.0509 10.876 13.9529 11.0491 13.7329 L 13.8807 10.133 C 14.0258 9.95469 14.0462 9.72392 13.9342 9.52924 C 13.8221 9.33456 13.5949 9.20619 13.3397 9.19338 C 13.0846 9.18057 12.8411 9.2853 12.7027 9.4674 L 11.168 11.4174 L 11.168 4.400249 C 11.1709 4.23787 11.0962 4.08139 10.9607 3.96656 C 10.8252 3.85172 10.6406 3.78833 10.449 3.79088 L 10.449 3.79088 Z"/>
    </g>
</svg>
