<?xml version="1.0" encoding="UTF-8"?>
<!-- Generated by Pixelmator Pro 3.2.2 -->
<svg width="16" height="16" viewBox="0 0 16 16" xmlns="http://www.w3.org/2000/svg" xmlns:xlink="http://www.w3.org/1999/xlink">
    <path id="Path" fill="#fbf7f8" stroke="none" d="M 4 1 C 2.892 1 2 1.892 2 3 L 2 13 C 2 14.108 2.892 15 4 15 L 8.7617 15 C 8.55479 14.688648 8.387486 14.352727 8.26365 14 L 3.99995 14 C 3.44595 14 2.99995 13.554 2.99995 13 L 2.99995 3 C 2.99995 2.446 3.44595 2 3.99995 2 L 7.99995 2 L 7.99995 6 L 7.99995 7 L 12.99995 7 L 12.99995 8.0312 C 13.341059 8.070271 13.676575 8.148252 13.99995 8.26362 L 13.99995 7.41401 L 13.99995 6.99995 L 13.99995 5.99995 L 8.99995 0.99995 L 7.99995 0.99995 L 3.99995 0.99995 Z M 9 2.4141 L 12.5859 6 L 9 6 L 9 2.4141 Z"/>
    <path id="path1" fill="#fbf7f8" stroke="none" d="M 12.5 9 C 10.567 9 9 10.567 9 12.5 C 9 14.433 10.567 16 12.5 16 C 14.433 16 16 14.433 16 12.5 C 16 10.567 14.433 9 12.5 9 Z M 12 10 L 13 10 L 13 12 L 15 12 L 15 13 L 13 13 L 13 15 L 12 15 L 12 13 L 10 13 L 10 12 L 12 12 Z"/>
</svg>
