<?xml version="1.0" encoding="UTF-8"?>
<!-- Generated by Pixelmator Pro 3.2.2 -->
<svg width="16" height="16" viewBox="0 0 16 16" xmlns="http://www.w3.org/2000/svg" xmlns:xlink="http://www.w3.org/1999/xlink">
    <path id="Path" fill="#fbf7f8" stroke="none" d="M 3 1 C 1.892 1 1 1.892 1 3 L 1 13 C 1 14.108 1.892 15 3 15 L 13 15 C 14.108 15 15 14.108 15 13 L 15 3 C 15 1.892 14.108 1 13 1 Z M 3 4 L 13 4 C 13.554 4 14 4.446 14 5 L 14 13 C 14 13.554 13.554 14 13 14 L 3 14 C 2.446 14 2 13.554 2 13 L 2 5 C 2 4.446 2.446 4 3 4 Z"/>
    <g id="Group">
        <path id="path1" fill="#fbf7f8" stroke="none" d="M 3.5 7 C 3.223 7 3 7.223 3 7.5 L 3 11.5 C 3 11.777 3.223 12 3.5 12 L 5.5 12 C 5.777 12 6 11.777 6 11.5 L 6 7.5 C 6 7.223 5.777 7 5.5 7 Z M 4 8 L 5 8 L 5 11 L 4 11 Z"/>
        <path id="path2" fill="#fbf7f8" stroke="none" d="M 7.5 7 L 12.5 7 C 12.776142 7 13 7.223858 13 7.5 L 13 7.5 C 13 7.776142 12.776142 8 12.5 8 L 7.5 8 C 7.223857 8 7 7.776142 7 7.5 L 7 7.5 C 7 7.223858 7.223857 7 7.5 7 Z"/>
        <path id="path3" fill="#fbf7f8" stroke="none" d="M 7.5 9 L 12.5 9 C 12.776142 9 13 9.223858 13 9.5 L 13 9.5 C 13 9.776142 12.776142 10 12.5 10 L 7.5 10 C 7.223857 10 7 9.776142 7 9.5 L 7 9.5 C 7 9.223858 7.223857 9 7.5 9 Z"/>
        <path id="path4" fill="#fbf7f8" stroke="none" d="M 7.5 11 L 12.5 11 C 12.776142 11 13 11.223858 13 11.5 L 13 11.5 C 13 11.776142 12.776142 12 12.5 12 L 7.5 12 C 7.223857 12 7 11.776142 7 11.5 L 7 11.5 C 7 11.223858 7.223857 11 7.5 11 Z"/>
    </g>
</svg>
