<svg height="16" viewBox="0 0 16 16" width="16" xmlns="http://www.w3.org/2000/svg"><g fill="#fbf7f8"><path d="m4 1c-1.108 0-2 .892-2 2v10c0 1.108.892 2 2 2h4.7617c-.20691-.311352-.374214-.647273-.49805-1h-4.2637c-.554 0-1-.446-1-1v-10c0-.554.446-1 1-1h4v4 1h5v1.0312c.341109.039071.676625.117052 1 .23242v-.84961-.41406-1l-5-5h-1-4zm5 1.4141 3.5859 3.5859h-3.5859z"/><path d="m12.5 9c-1.933 0-3.5 1.567-3.5 3.5s1.567 3.5 3.5 3.5 3.5-1.567 3.5-3.5-1.567-3.5-3.5-3.5zm-.5 1h1v2h2v1h-2v2h-1v-2h-2v-1h2z"/></g></svg>