<?xml version="1.0" encoding="UTF-8"?>
<!-- Generated by Pixelmator Pro 3.2.2 -->
<svg width="16" height="16" viewBox="0 0 16 16" xmlns="http://www.w3.org/2000/svg" xmlns:xlink="http://www.w3.org/1999/xlink">
    <path id="Path" fill="#fbf7f8" stroke="none" d="M 6 0 C 5.446 0 5 0.446 5 1 L 5 2 L 0.5 2 C 0.223 2 0 2.223 0 2.5 C 0 2.777 0.223 3 0.5 3 L 0.99805 3 L 1.54493 14.061 C 1.60613 15.0765 2.45108 16.0005 3.54293 16.0005 L 11.45703 16.0005 C 12.54893 16.0005 13.39383 15.07659 13.45503 14.061 L 14.00191 3 L 14.49996 3 C 14.77696 3 14.99996 2.777 14.99996 2.5 C 14.99996 2.223 14.77696 2 14.49996 2 L 9.99996 2 L 9.99996 1 C 9.99996 0.446 9.55396 0 8.99996 0 L 5.99996 0 Z M 6 1 L 9 1 L 9 2 L 6 2 L 6 1 Z M 2 3 L 13 3 L 12.45703 14 C 12.4237 14.553 12.01103 15 11.45703 15 L 3.54293 15 C 2.98893 15 2.57626 14.553 2.54293 14 L 1.99996 3 Z M 4.5 5 C 4.223 5 4 5.223 4 5.5 L 4 12.5 C 4 12.777 4.223 13 4.5 13 C 4.777 13 5 12.777 5 12.5 L 5 5.5 C 5 5.223 4.777 5 4.5 5 Z M 7.5 5 C 7.223 5 7 5.223 7 5.5 L 7 12.5 C 7 12.777 7.223 13 7.5 13 C 7.777 13 8 12.777 8 12.5 L 8 5.5 C 8 5.223 7.777 5 7.5 5 Z M 10.5 5 C 10.223 5 10 5.223 10 5.5 L 10 12.5 C 10 12.777 10.223 13 10.5 13 C 10.777 13 11 12.777 11 12.5 L 11 5.5 C 11 5.223 10.777 5 10.5 5 Z"/>
</svg>
