<?xml version="1.0" encoding="UTF-8"?>
<!-- Generated by Pixelmator Pro 3.2.2 -->
<svg width="16" height="16" viewBox="0 0 16 16" xmlns="http://www.w3.org/2000/svg" xmlns:xlink="http://www.w3.org/1999/xlink">
    <path id="Path" fill="#fbf7f8" stroke="none" d="M 6.25 2 C 5.993361 1.999935 5.74652 2.098533 5.56055 2.27539 L 0.92965 6.68749 L 0.31051 7.27538 C 0.112061 7.464165 -0.000275 7.72608 -0.000275 7.99998 C -0.000275 8.273881 0.112061 8.535795 0.31051 8.72458 L 0.92965 9.31247 L 5.56055 13.72457 C 5.74652 13.901427 5.993361 14.000025 6.25 13.99996 L 14.125 13.99996 L 15 13.99996 C 15.552262 13.999905 15.999945 13.552222 16 12.99996 L 16 2.99996 C 15.999945 2.447699 15.552262 2.000015 15 1.99996 L 14.125 1.99996 L 6.25 1.99996 Z M 6.25 3 L 14.125 3 L 15 3 L 15 13 L 14.125 13 L 6.25 13 L 1.6191 8.5898 L 0.99996 7.99996 L 1.6191 7.41012 L 6.25 2.99992 Z"/>
    <path id="path1" fill="#fbf7f8" stroke="none" d="M 8.002 5 L 10.0118 7.0098 L 12.0216 5 L 13.01184 5.990231 L 11.00204 8.00003 L 13.01184 10.00983 L 12.0216 11.00006 L 10.0118 8.99026 L 8.002 11.00006 L 7.01177 10.00983 L 9.02157 8.00003 L 7.01177 5.990231 Z"/>
</svg>
