<?xml version="1.0" encoding="UTF-8"?>
<!-- Generated by Pixelmator Pro 3.2.2 -->
<svg width="16" height="16" viewBox="0 0 16 16" xmlns="http://www.w3.org/2000/svg" xmlns:xlink="http://www.w3.org/1999/xlink">
    <path id="Path" fill="#fbf7f8" stroke="none" d="M 4 4 L 4 7 L 7 7 L 7 4 Z M 9 4 L 9 7 L 12 7 L 12 4 Z M 4 9 L 4 12 L 7 12 L 7 9 Z M 9 9 L 9 12 L 12 12 L 12 9 Z"/>
    <path id="path1" fill="#fbf7f8" stroke="none" d="M 3 1 C 1.892 1 1 1.892 1 3 L 1 5 L 2 5 L 2 3 C 2 2.446 2.446 2 3 2 L 5 2 L 5 1 L 3 1 Z M 11 1 L 11 2 L 13 2 C 13.554 2 14 2.446 14 3 L 14 5 L 15 5 L 15 3 C 15 1.892 14.108 1 13 1 L 11 1 Z M 1 11 L 1 13 C 1 14.108 1.892 15 3 15 L 5 15 L 5 14 L 3 14 C 2.446 14 2 13.554 2 13 L 2 11 L 1 11 Z M 14 11 L 14 13 C 14 13.554 13.554 14 13 14 L 11 14 L 11 15 L 13 15 C 14.108 15 15 14.108 15 13 L 15 11 L 14 11 Z"/>
</svg>
