<svg height="16" viewBox="0 0 16 16" width="16" xmlns="http://www.w3.org/2000/svg"><g fill="#fbf7f8"><path d="m6.25 2c-.256639-.000065-.50348.098533-.68945.27539l-4.6309 4.4121-.61914.58789c-.198449.188785-.310785.4507-.310785.7246 0 .273901.112336.535815.310785.7246l.61914.58789 4.6309 4.4121c.18597.176857.432811.275455.68945.27539h7.875.875c.552262-.000055.999945-.447738 1-1v-10c-.000055-.552261-.447738-.999945-1-1h-.875-7.875zm0 1h7.875.875v10h-.875-7.875l-4.6309-4.4102-.61914-.58984.61914-.58984 4.6309-4.4102z"/><path d="m8.002 5 2.0098 2.0098 2.0098-2.0098.99024.990231-2.0098 2.009799 2.0098 2.0098-.99024.99023-2.0098-2.0098-2.0098 2.0098-.99023-.99023 2.0098-2.0098-2.0098-2.009799z"/></g></svg>