<?xml version="1.0" encoding="UTF-8"?>
<!-- Generated by Pixelmator Pro 3.2.2 -->
<svg width="16" height="16" viewBox="0 0 16 16" xmlns="http://www.w3.org/2000/svg" xmlns:xlink="http://www.w3.org/1999/xlink">
    <path id="Path" fill="#fbf7f8" stroke="none" d="M 7 4 L 7 5 L 8 5 L 8 4 Z M 7 6 L 7 13 L 8 13 L 8 6 Z"/>
    <path id="path1" fill="#fbf7f8" stroke="none" d="M 7.5 1 C 3.357864 1 0 4.357864 0 8.5 C -0 12.642136 3.357864 16 7.5 16 C 11.642136 16 15 12.642136 15 8.5 C 15 4.357864 11.642136 1 7.5 1 Z M 7.5 2 C 11.08985 2 14 4.910149 14 8.5 C 14 12.08985 11.08985 15 7.5 15 C 3.910149 15 1 12.08985 1 8.5 C 1 4.910149 3.910149 2 7.5 2 Z"/>
</svg>
