<?xml version="1.0" encoding="UTF-8"?>
<!-- Generated by Pixelmator Pro 3.2.2 -->
<svg width="16" height="16" viewBox="0 0 16 16" xmlns="http://www.w3.org/2000/svg" xmlns:xlink="http://www.w3.org/1999/xlink">
    <path id="Path" fill="#fbf7f8" stroke="none" d="M 8 1 C 7.44242 1 7.17322 1.29854 7.00195 1.49414 C 6.83069 1.68974 6.71887 1.88233 6.60742 2.08984 C 6.38451 2.504869 6.18776 2.98423 5.99804 3.46874 C 5.80832 3.95325 5.62904 4.43973 5.47851 4.81054 C 5.403246 4.995951 5.33476 5.15206 5.28515 5.251949 C 5.28013 5.262063 5.2767 5.262394 5.271478 5.271481 C 5.262388 5.276701 5.262058 5.28013 5.251947 5.285152 C 5.152063 5.334761 4.995947 5.403254 4.810537 5.478513 C 4.439727 5.629044 3.953257 5.808323 3.468737 5.998043 C 2.984217 6.187763 2.504867 6.384513 2.089837 6.607423 C 1.882317 6.718873 1.689727 6.830692 1.494137 7.001953 C 1.298537 7.173213 0.999997 7.442413 0.999997 8.000003 C 0.999997 8.557593 1.298537 8.826783 1.494137 8.998053 C 1.689737 9.169313 1.882327 9.281133 2.089837 9.392583 C 2.504867 9.615493 2.984227 9.812243 3.468737 10.001953 C 3.953257 10.191673 4.439727 10.370953 4.810537 10.521483 C 4.995947 10.596743 5.152057 10.665233 5.251947 10.714843 C 5.262762 10.720243 5.2638 10.722943 5.273431 10.728513 C 5.278361 10.737113 5.280411 10.738513 5.28515 10.748043 C 5.33476 10.847933 5.40325 11.004043 5.47851 11.189453 C 5.62904 11.560263 5.80832 12.046733 5.99804 12.531253 C 6.18776 13.015773 6.38451 13.495133 6.60742 13.910153 C 6.71887 14.117673 6.83069 14.310263 7.00195 14.505853 C 7.17321 14.701493 7.44241 14.999993 8 14.999993 C 8.55759 14.999993 8.82678 14.701453 8.99805 14.505853 C 9.16931 14.310253 9.28113 14.117663 9.39258 13.910153 C 9.61549 13.495123 9.81224 13.015763 10.00195 12.531253 C 10.19167 12.046733 10.37095 11.560263 10.52148 11.189453 C 10.59674 11.004053 10.66523 10.847933 10.71484 10.748043 C 10.72024 10.737223 10.72294 10.736193 10.72851 10.726553 C 10.73711 10.721653 10.73851 10.719553 10.74804 10.714833 C 10.84793 10.665223 11.00404 10.596733 11.18945 10.521473 C 11.5603 10.370903 12.04673 10.191663 12.53125 10.001943 C 13.01577 9.812223 13.49513 9.615473 13.91015 9.392573 C 14.11767 9.281123 14.31026 9.169303 14.50585 8.998043 C 14.70145 8.826783 14.99999 8.557583 14.99999 7.999992 C 14.99999 7.442403 14.70145 7.173213 14.50585 7.001944 C 14.31025 6.830683 14.11766 6.718863 13.91015 6.607412 C 13.49512 6.384502 13.01576 6.187754 12.53125 5.998034 C 12.04674 5.808313 11.56026 5.629033 11.18945 5.478503 C 11.00405 5.403238 10.84793 5.334753 10.74804 5.285143 C 10.73793 5.280123 10.7376 5.276693 10.72851 5.271471 C 10.72331 5.262381 10.71981 5.262051 10.71484 5.25194 C 10.66519 5.152056 10.59674 4.99594 10.52148 4.81053 C 10.37095 4.43973 10.19167 3.95326 10.00195 3.46873 C 9.81223 2.9842 9.61548 2.50486 9.39258 2.08983 C 9.28113 1.88231 9.16931 1.68972 8.99805 1.49413 C 8.82679 1.29853 8.55759 0.99999 8 0.99999 Z M 8 2 C 8.61714 2 9.5687 5.557899 10.0059 5.994101 C 10.44219 6.43124 14 7.3828 14 8 C 14 8.6172 10.4421 9.5687 10.0059 10.0059 C 9.56876 10.44219 8.6172 14 8 14 C 7.3828 14 6.4313 10.4421 5.9941 10.0059 C 5.55781 9.56876 2 8.6172 2 8 C 2 7.3828 5.5579 6.4313 5.9941 5.994101 C 6.43124 5.55781 7.3828 2 8 2 Z"/>
</svg>
