<?xml version="1.0" encoding="UTF-8"?>
<!-- Generated by Pixelmator Pro 3.2.2 -->
<svg width="16" height="16" viewBox="0 0 16 16" xmlns="http://www.w3.org/2000/svg" xmlns:xlink="http://www.w3.org/1999/xlink">
    <g id="magnet-24">
        <path id="Background" fill="none" stroke="none" d="M 0 0 L 16 0 L 16 16 L 0 16 L 0 0 Z"/>
        <path id="g184" fill="#ffffff" fill-rule="evenodd" stroke="none" d="M 2.66667 8 C 2.66667 10.9455 5.05448 13.3333 8 13.3333 C 10.9455 13.3333 13.3333 10.9455 13.3333 8 L 13.3333 5.33333 L 11.3333 5.33333 L 11.3333 8 C 11.3333 9.84095 9.84095 11.3333 8 11.3333 C 6.15905 11.3333 4.66667 9.84095 4.66667 8 L 4.66667 5.33333 L 2.66667 5.33333 L 2.66667 8 Z M 2.66667 4.66667 L 4.66667 4.66667 L 4.66667 2.66667 L 2.66667 2.66667 L 2.66667 4.66667 Z M 11.3333 4.66667 L 13.3333 4.66667 L 13.3333 2.66667 L 11.3333 2.66667 L 11.3333 4.66667 Z"/>
    </g>
</svg>
