<svg height="16" viewBox="0 0 16 16" width="16" xmlns="http://www.w3.org/2000/svg"><path d="m6.488133 1.762712c-.473873 0-.855367.347731-.855367.779667v.779669h-3.84915c-.236937 0-.427684.173866-.427684.389834s.190747.389833.427684.389833h.426015l.467783 8.623907c.052348.791753.775091 1.512166 1.709023 1.512166h6.769459c.933975 0 1.656675-.720343 1.709023-1.512166l.467783-8.623907h.426015c.236937 0 .427684-.173865.427684-.389833s-.190747-.389834-.427684-.389834h-3.84915v-.779669c0-.431936-.381495-.779667-.855368-.779667h-2.5661zm0 .779667h2.566102v.779669h-2.566102zm-3.421467 1.559336h9.409035l-.464438 8.576348c-.02851.431156-.381494.779667-.855367.779667h-6.769459c-.473873 0-.826857-.348511-.855367-.779667l-.464438-8.576348zm2.138417 1.559336c-.236937 0-.427683.173866-.427683.389834v5.457675c0 .215969.190746.389834.427683.389834.236936 0 .427683-.173865.427683-.389834v-5.457675c0-.215968-.190747-.389834-.427683-.389834zm2.5661 0c-.236936 0-.427683.173866-.427683.389834v5.457675c0 .215969.190747.389834.427683.389834.236937 0 .427684-.173865.427684-.389834v-5.457675c0-.215968-.190747-.389834-.427684-.389834zm2.566102 0c-.236937 0-.427684.173866-.427684.389834v5.457675c0 .215969.190747.389834.427684.389834s.427682-.173865.427682-.389834v-5.457675c0-.215968-.190745-.389834-.427682-.389834z" fill="#fbf7f8"/></svg>