<?xml version="1.0" encoding="UTF-8"?>
<!-- Generated by Pixelmator Pro 3.2.2 -->
<svg width="16" height="16" viewBox="0 0 16 16" xmlns="http://www.w3.org/2000/svg" xmlns:xlink="http://www.w3.org/1999/xlink">
    <path id="path5" fill="#fbf7f8" stroke="none" d="M 6.488133 1.762712 C 6.01426 1.762712 5.632766 2.110443 5.632766 2.542379 L 5.632766 3.322048 L 1.783616 3.322048 C 1.546679 3.322048 1.355932 3.495914 1.355932 3.711882 C 1.355932 3.92785 1.546679 4.101715 1.783616 4.101715 L 2.209631 4.101715 L 2.677414 12.725622 C 2.729762 13.517375 3.452505 14.237788 4.386437 14.237788 L 11.155896 14.237788 C 12.089871 14.237788 12.812571 13.517445 12.864919 12.725622 L 13.332702 4.101715 L 13.758717 4.101715 C 13.995654 4.101715 14.186401 3.92785 14.186401 3.711882 C 14.186401 3.495914 13.995654 3.322048 13.758717 3.322048 L 9.909567 3.322048 L 9.909567 2.542379 C 9.909567 2.110443 9.528072 1.762712 9.054199 1.762712 L 6.488099 1.762712 Z M 6.488133 2.542379 L 9.054235 2.542379 L 9.054235 3.322048 L 6.488133 3.322048 Z M 3.066666 4.101715 L 12.475701 4.101715 L 12.011263 12.678063 C 11.982753 13.109219 11.629769 13.45773 11.155896 13.45773 L 4.386437 13.45773 C 3.912564 13.45773 3.55958 13.109219 3.53107 12.678063 L 3.066632 4.101715 Z M 5.205083 5.661051 C 4.968146 5.661051 4.7774 5.834917 4.7774 6.050885 L 4.7774 11.50856 C 4.7774 11.724529 4.968146 11.898394 5.205083 11.898394 C 5.442019 11.898394 5.632766 11.724529 5.632766 11.50856 L 5.632766 6.050885 C 5.632766 5.834917 5.442019 5.661051 5.205083 5.661051 Z M 7.771183 5.661051 C 7.534247 5.661051 7.3435 5.834917 7.3435 6.050885 L 7.3435 11.50856 C 7.3435 11.724529 7.534247 11.898394 7.771183 11.898394 C 8.00812 11.898394 8.198867 11.724529 8.198867 11.50856 L 8.198867 6.050885 C 8.198867 5.834917 8.00812 5.661051 7.771183 5.661051 Z M 10.337285 5.661051 C 10.100348 5.661051 9.909601 5.834917 9.909601 6.050885 L 9.909601 11.50856 C 9.909601 11.724529 10.100348 11.898394 10.337285 11.898394 C 10.574222 11.898394 10.764967 11.724529 10.764967 11.50856 L 10.764967 6.050885 C 10.764967 5.834917 10.574222 5.661051 10.337285 5.661051 Z"/>
</svg>
