<svg height="16" viewBox="0 0 16 16" width="16" xmlns="http://www.w3.org/2000/svg"><path d="m6.127.25977c-.064351-.008882-.13038-.004251-.19727.013672-.26756.071693-.42521.34377-.35352.61133l.13672.50977c-.406046.140104-.798333.317285-1.1719.529299-.013468.006269-.027897.006098-.041016.013673-.01342.007748-.020785.02055-.033203.029297-.370499.216785-.720273.467189-1.0449.74805l-.37109-.37109c-.19587-.195869-.51116-.195869-.70703 0s-.19587.51116 0 .70703l.36914.36914c-.292148.334616-.551782.696279-.77539 1.0801-.220946.385307-.404718.790769-.54883 1.2109l-.50391-.13477c-.26756-.071693-.53964.085954-.61133.35352s.085954.53964.35352.61133l.50586.13672c-.168923.874017-.169586 1.772234-.001953 2.6465l-.50391.13477c-.26756.071693-.42521.34377-.35352.61133.071693.26756.34377.42521.61133.35352l.50977-.13672c.290558.840609.738651 1.618146 1.3203 2.291l-.37109.37109c-.19587.19587-.19587.51116 0 .70703s.51116.19587.70703 0l.36914-.36914c.334615.292148.69628.551782 1.0801.77539.385307.220946.790769.404718 1.2109.54883l-.13477.50391c-.071693.26756.085954.53964.35352.61133.26756.071693.53964-.085954.61133-.35352l.13672-.50586c.874017.168923 1.772234.169586 2.6465.001953l.13477.50391c.071693.26756.34377.42521.61133.35352.26756-.071692.42521-.34377.35352-.61133l-.13672-.50976c.840609-.290558 1.618145-.738651 2.291-1.3203l.37109.37109c.19587.19587.51116.19587.70703 0s.19587-.51116 0-.70703l-.369141-.36914c.292149-.334615.551783-.69628.775391-1.0801.220945-.385307.404718-.790768.54883-1.2109l.50391.13477c.26756.071693.53964-.085954.61133-.35352.071693-.26756-.085954-.53963-.35352-.61133l-.50586-.13672c.082427-.426756.124926-.860262.12695-1.2949.000541-.009581.005859-.017622.005859-.027344 0-.012517-.006917-.022874-.007812-.035156-.001097-.432579-.04229-.864125-.12305-1.2891l.50391-.13477c.26756-.071693.42521-.34377.353519-.61133s-.343769-.42521-.611329-.35352l-.509761.13672c-.290557-.840609-.73865-1.618145-1.320299-2.291l.37109-.37109c.19587-.19587.19587-.51116 0-.70703s-.511161-.19587-.70703 0l-.36914.36914c-.334615-.292148-.69628-.551782-1.0801-.77539-.385307-.220945-.790768-.404718-1.2109-.54883l.13477-.50391c.071693-.26756-.085954-.53964-.35352-.61133-.26756-.071693-.53963.085954-.61133.35352l-.13672.50586c-.874017-.168923-1.772234-.169586-2.6465-.001953l-.13477-.50391c-.05377-.20067-.22101-.34054-.41406-.36719zm1.5898 1.7461c1.148329-.053748 2.287925.223525 3.2832.79883 1.699662.984218 2.810014 2.737988 2.9727 4.6953h-4.0391c-.227729-.881995-1.02268-1.498682-1.9336-1.5-.180266.000597-.359624.025562-.5332.074219l-2.0215-3.5c.712493-.336792 1.484355-.529923 2.2715-.56836zm-3.1367 1.0723 2.0195 3.4961c-.382999.375618-.599045.889351-.59961 1.4258.000051.536165.215378 1.049858.59766 1.4258l-2.0195 3.498c-2.560005-1.779391-3.330692-5.222931-1.7734-7.923799.443212-.76344 1.049424-1.419673 1.7754-1.921901zm3.4199 3.921901c.552285 0 1 .447714 1 .999999s-.447715 1-1 1-1-.447715-1-1 .447715-.999999 1-.999999zm1.9355 1.499999h4.0371c-.071928.880395-.337359 1.734047-.77734 2.5-1.561194 2.698829-4.929296 3.752198-7.75 2.4238l2.0195-3.4961c.1743.048172.354327.072482.53516.072266.911628-.000452 1.707593-.617321 1.9355-1.5z" fill="#fbf7f8"/></svg>