<?xml version="1.0" encoding="UTF-8"?>
<!-- Generated by Pixelmator Pro 3.2.2 -->
<svg width="16" height="16" viewBox="0 0 16 16" xmlns="http://www.w3.org/2000/svg" xmlns:xlink="http://www.w3.org/1999/xlink">
    <path id="Path" fill="#fbf7f8" stroke="none" d="M 6.127 0.25977 C 6.062649 0.250888 5.99662 0.255519 5.92973 0.273442 C 5.66217 0.345135 5.50452 0.617212 5.57621 0.884772 L 5.71293 1.394542 C 5.306884 1.534646 4.914597 1.711827 4.54103 1.923841 C 4.527562 1.93011 4.513133 1.929939 4.500014 1.937514 C 4.486594 1.945262 4.479229 1.958064 4.466811 1.966811 C 4.096312 2.183596 3.746538 2.434 3.421911 2.714861 L 3.050821 2.343771 C 2.854951 2.147902 2.539661 2.147902 2.343791 2.343771 C 2.147921 2.53964 2.147921 2.854931 2.343791 3.050801 L 2.712931 3.419941 C 2.420783 3.754557 2.161149 4.11622 1.937541 4.500041 C 1.716595 4.885348 1.532823 5.29081 1.388711 5.710941 L 0.884801 5.576171 C 0.617241 5.504478 0.345161 5.662125 0.273471 5.929691 C 0.201781 6.197257 0.359425 6.469331 0.626991 6.541021 L 1.132851 6.677741 C 0.963928 7.551758 0.963265 8.449975 1.130898 9.324241 L 0.626988 9.459011 C 0.359428 9.530704 0.201778 9.802781 0.273468 10.070341 C 0.345161 10.337901 0.617238 10.495551 0.884798 10.423861 L 1.394568 10.287141 C 1.685126 11.12775 2.133219 11.905287 2.714868 12.578141 L 2.343778 12.949231 C 2.147908 13.145101 2.147908 13.460391 2.343778 13.656261 C 2.539648 13.852131 2.854938 13.852131 3.050808 13.656261 L 3.419948 13.287121 C 3.754563 13.579269 4.116228 13.838903 4.500048 14.062511 C 4.885355 14.283457 5.290817 14.467229 5.710948 14.611341 L 5.576178 15.115251 C 5.504485 15.382811 5.662132 15.654891 5.929698 15.726581 C 6.197258 15.798274 6.469338 15.640627 6.541028 15.373061 L 6.677748 14.867201 C 7.551765 15.036124 8.449982 15.036787 9.324248 14.869154 L 9.459018 15.373064 C 9.530711 15.640624 9.802788 15.798274 10.070348 15.726584 C 10.337908 15.654892 10.495558 15.382814 10.423868 15.115254 L 10.287148 14.605494 C 11.127757 14.314936 11.905293 13.866843 12.578148 13.285194 L 12.949238 13.656284 C 13.145108 13.852154 13.460398 13.852154 13.656268 13.656284 C 13.852138 13.460414 13.852138 13.145124 13.656268 12.949254 L 13.287127 12.580114 C 13.579276 12.245499 13.83891 11.883834 14.062518 11.500014 C 14.283463 11.114707 14.467236 10.709246 14.611348 10.289114 L 15.115258 10.423884 C 15.382818 10.495577 15.654898 10.33793 15.726588 10.070364 C 15.798281 9.802804 15.640634 9.530734 15.373068 9.459034 L 14.867208 9.322314 C 14.949635 8.895558 14.992134 8.462052 14.994158 8.027414 C 14.994699 8.017833 15.000017 8.009792 15.000017 8.00007 C 15.000017 7.987553 14.9931 7.977196 14.992205 7.964914 C 14.991108 7.532335 14.949915 7.100789 14.869155 6.675814 L 15.373065 6.541044 C 15.640625 6.469351 15.798275 6.197274 15.726584 5.929714 C 15.654893 5.662154 15.382815 5.504504 15.115255 5.576194 L 14.605494 5.712914 C 14.314937 4.872305 13.866844 4.094769 13.285195 3.421914 L 13.656285 3.050824 C 13.852155 2.854954 13.852155 2.539664 13.656285 2.343794 C 13.460415 2.147924 13.145124 2.147924 12.949255 2.343794 L 12.580115 2.712934 C 12.2455 2.420786 11.883835 2.161152 11.500015 1.937544 C 11.114708 1.716599 10.709247 1.532826 10.289115 1.388714 L 10.423885 0.884804 C 10.495578 0.617244 10.337931 0.345164 10.070365 0.273474 C 9.802805 0.201781 9.530735 0.359428 9.459035 0.626994 L 9.322315 1.132854 C 8.448298 0.963931 7.550081 0.963268 6.675815 1.130901 L 6.541045 0.626991 C 6.487275 0.426321 6.320035 0.286451 6.126985 0.259801 Z M 7.7168 2.00587 C 8.865129 1.952122 10.004725 2.229395 11 2.8047 C 12.699662 3.788918 13.810014 5.542688 13.9727 7.5 L 9.9336 7.5 C 9.705871 6.618005 8.91092 6.001318 8 6 C 7.819734 6.000597 7.640376 6.025562 7.4668 6.074219 L 5.4453 2.574219 C 6.157793 2.237427 6.929655 2.044296 7.7168 2.005859 Z M 4.5801 3.07817 L 6.5996 6.57427 C 6.216601 6.949888 6.000555 7.463621 5.99999 8.00007 C 6.000041 8.536235 6.215368 9.049928 6.59765 9.42587 L 4.57815 12.92387 C 2.018145 11.144479 1.247458 7.700939 2.80475 5.000071 C 3.247962 4.236631 3.854174 3.580398 4.58015 3.07817 Z M 8 7.000071 C 8.552285 7.000071 9 7.447785 9 8.00007 C 9 8.552355 8.552285 9.00007 8 9.00007 C 7.447715 9.00007 7 8.552355 7 8.00007 C 7 7.447785 7.447715 7.000071 8 7.000071 Z M 9.9355 8.50007 L 13.9726 8.50007 C 13.900672 9.380465 13.635241 10.234117 13.19526 11.00007 C 11.634066 13.698899 8.265964 14.752268 5.44526 13.42387 L 7.46476 9.92777 C 7.63906 9.975942 7.819087 10.000252 7.99992 10.000036 C 8.911548 9.999584 9.707513 9.382715 9.93542 8.500036 Z"/>
</svg>
