<svg height="16" viewBox="0 0 16 16" width="16" xmlns="http://www.w3.org/2000/svg"><path d="m8 2c-1.245021.001812-2.458645.390882-3.472656 1.113281l.71875.71875c.816635-.541143 1.774249-.830465 2.753906-.832031 2.761424 0 5 2.238577 5 5-.001566.979657-.290888 1.93727-.832031 2.753906l.716797.716797c.72271-1.013236 1.112449-2.226136 1.115234-3.470703.000004-1.591297-.632135-3.117421-1.757354-4.24264s-2.651344-1.75736-4.242646-1.75736zm-4.884766 2.529297c-.72271 1.013235-1.112449 2.226136-1.115234 3.470703-.000004 1.591297.632135 3.117421 1.757354 4.24264s2.651345 1.75736 4.242646 1.75736c1.245022-.001812 2.458645-.390882 3.472656-1.113281l-.71875-.71875c-.816636.541143-1.774249.830465-2.753906.832031-2.761424 0-5-2.238576-5-5 .001566-.979656.290888-1.937271.832031-2.753906zm1.884766 2.470703v2h6v-2z" fill="#fff"/></svg>