<?xml version="1.0" encoding="UTF-8"?>
<!-- Generated by Pixelmator Pro 3.2.2 -->
<svg width="16" height="16" viewBox="0 0 16 16" xmlns="http://www.w3.org/2000/svg" xmlns:xlink="http://www.w3.org/1999/xlink">
    <path id="Path" fill="#ffffff" stroke="none" d="M 8 2 C 6.754979 2.001812 5.541355 2.390882 4.527344 3.113281 L 5.246094 3.832031 C 6.062729 3.290888 7.020343 3.001566 8 3 C 10.761424 3 13 5.238577 13 8 C 12.998434 8.979657 12.709112 9.93727 12.167969 10.753906 L 12.884766 11.470703 C 13.607476 10.457467 13.997215 9.244567 14 8 C 14.000004 6.408703 13.367865 4.882579 12.242646 3.75736 C 11.117427 2.632141 9.591302 2 8 2 Z M 3.115234 4.529297 C 2.392524 5.542532 2.002785 6.755433 2 8 C 1.999996 9.591297 2.632135 11.117421 3.757354 12.24264 C 4.882573 13.367859 6.408699 14 8 14 C 9.245022 13.998188 10.458645 13.609118 11.472656 12.886719 L 10.753906 12.167969 C 9.93727 12.709112 8.979657 12.998434 8 13 C 5.238576 13 3 10.761424 3 8 C 3.001566 7.020344 3.290888 6.062729 3.832031 5.246094 L 3.115234 4.529297 Z M 5 7 L 5 9 L 11 9 L 11 7 L 5 7 Z"/>
</svg>
