<?xml version="1.0" encoding="UTF-8"?>
<!-- Generated by Pixelmator Pro 3.2.2 -->
<svg width="16" height="16" viewBox="0 0 16 16" xmlns="http://www.w3.org/2000/svg" xmlns:xlink="http://www.w3.org/1999/xlink">
    <path id="Path" fill="#fbf7f8" stroke="none" d="M 6 6 L 6 12 L 10 9 Z"/>
    <path id="path1" fill="#fbf7f8" stroke="none" d="M 3 1 C 1.892 1 1 1.892 1 3 L 1 13 C 1 14.108 1.892 15 3 15 L 13 15 C 14.108 15 15 14.108 15 13 L 15 3 C 15 1.892 14.108 1 13 1 Z M 3 4 L 13 4 C 13.554 4 14 4.446 14 5 L 14 13 C 14 13.554 13.554 14 13 14 L 3 14 C 2.446 14 2 13.554 2 13 L 2 5 C 2 4.446 2.446 4 3 4 Z"/>
</svg>
