<svg height="16" viewBox="0 0 16 16" width="16" xmlns="http://www.w3.org/2000/svg"><path d="m8 2c-1.108817 0-2.14007.319333-3.03125.84375l.5625.5625.1875.1875 1.9375 1.9375.71875-.71875-1.625-1.625c.19534-.05109.389863-.097715.59375-.125.052406-.007789.103279-.025184.15625-.03125.168086-.01707.327411-.03125.5-.03125 2.761424 0 5 2.238576 5 5 0 .243024-.02845.485508-.0625.71875-.019955.13625-.031786.273803-.0625.40625-.06695.286581-.166647.547624-.28125.8125-.013272.030675-.017376.063399-.03125.09375-.040961.091658-.108255.163333-.15625.25-.004453.008041.004332.023053 0 .03125l.75.71875c.524417-.891179.84375-1.922432.84375-3.03125 0-3.313709-2.686293-6-6-6zm-5.15625 2.96875c-.524417.89118-.84375 1.922432-.84375 3.03125 0 3.313709 2.686294 6 6 6 1.108817 0 2.140071-.319333 3.03125-.84375l-.5625-.5625-.1875-.1875-1.9375-1.90625-.6875.6875 1.59375 1.625c-.19534.05109-.389862.097716-.59375.125-.052406.007789-.103279.025184-.15625.03125-.168085.01707-.327411.03125-.5.03125s-.331914-.01418-.5-.03125c-.168085-.01707-.337256-.029198-.5-.0625-2.278415-.466231-4-2.490004-4-4.90625 0-.248262.027559-.480186.0625-.71875.019955-.13625.031786-.273804.0625-.40625.06695-.286581.166646-.547625.28125-.8125.012993-.030718.017664-.063349.03125-.09375.040618-.088861.108612-.164736.15625-.25v-.03125z" fill="#fbf7f8"/></svg>