<?xml version="1.0" encoding="UTF-8"?>
<!-- Generated by Pixelmator Pro 3.2.2 -->
<svg width="16" height="16" viewBox="0 0 16 16" xmlns="http://www.w3.org/2000/svg" xmlns:xlink="http://www.w3.org/1999/xlink">
    <path id="Path" fill="#fbf7f8" stroke="none" d="M 8 2 C 6.891183 2 5.85993 2.319333 4.96875 2.84375 L 5.53125 3.40625 L 5.71875 3.59375 L 7.65625 5.53125 L 8.375 4.8125 L 6.75 3.1875 C 6.94534 3.13641 7.139863 3.089785 7.34375 3.0625 C 7.396156 3.054711 7.447029 3.037316 7.5 3.03125 C 7.668086 3.01418 7.827411 3 8 3 C 10.761424 3 13 5.238576 13 8 C 13 8.243024 12.97155 8.485508 12.9375 8.71875 C 12.917545 8.855 12.905714 8.992553 12.875 9.125 C 12.80805 9.411581 12.708353 9.672624 12.59375 9.9375 C 12.580478 9.968175 12.576374 10.000899 12.5625 10.03125 C 12.521539 10.122908 12.454245 10.194583 12.40625 10.28125 C 12.401797 10.289291 12.410582 10.304303 12.40625 10.3125 L 13.15625 11.03125 C 13.680667 10.140071 14 9.108818 14 8 C 14 4.686291 11.313707 2 8 2 Z M 2.84375 4.96875 C 2.319333 5.85993 2 6.891182 2 8 C 2 11.313709 4.686294 14 8 14 C 9.108817 14 10.140071 13.680667 11.03125 13.15625 L 10.46875 12.59375 L 10.28125 12.40625 L 8.34375 10.5 L 7.65625 11.1875 L 9.25 12.8125 C 9.05466 12.86359 8.860138 12.910216 8.65625 12.9375 C 8.603844 12.945289 8.552971 12.962684 8.5 12.96875 C 8.331915 12.98582 8.172589 13 8 13 C 7.827411 13 7.668086 12.98582 7.5 12.96875 C 7.331915 12.95168 7.162744 12.939552 7 12.90625 C 4.721585 12.440019 3 10.416246 3 8 C 3 7.751738 3.027559 7.519814 3.0625 7.28125 C 3.082455 7.145 3.094286 7.007446 3.125 6.875 C 3.19195 6.588419 3.291646 6.327375 3.40625 6.0625 C 3.419243 6.031782 3.423914 5.999151 3.4375 5.96875 C 3.478118 5.879889 3.546112 5.804014 3.59375 5.71875 L 3.59375 5.6875 L 2.84375 4.96875 Z"/>
</svg>
