<svg height="24" viewBox="0 0 23 24" width="23" xmlns="http://www.w3.org/2000/svg"><path d="m2.237334 2.745321h20.033616v19.220179h-20.033616z" fill="none"/><path d="m9.749928 2.745321c-.69367 0-1.252103.535761-1.252103 1.201256v1.201263h-5.634441c-.346832 0-.62605.267884-.62605.600628 0 .332753.279218.600626.62605.600626h.623608l.684746 13.28714c.076629 1.219853 1.134588 2.329827 2.501694 2.329827h9.909259c1.36714 0 2.425007-1.109894 2.501637-2.329827l.684736-13.28714h.623636c.346834 0 .626057-.267873.626057-.600626 0-.332744-.279223-.600628-.626057-.600628h-5.634418v-1.201263c0-.665495-.558441-1.201256-1.252112-1.201256h-3.756301zm0 1.201256h3.756326v1.201263h-3.756326zm-5.008396 2.402517h13.773084l-.679813 13.213864c-.041737.664303-.558442 1.201271-1.252112 1.201271h-9.909259c-.693662 0-1.210366-.536968-1.252095-1.201271l-.679855-13.213864zm3.130246 2.40252c-.346835 0-.626048.267883-.626048.600628v8.408809c0 .332752.279213.600636.626048.600636s.626047-.267884.626047-.600636v-8.408809c0-.332745-.279212-.600628-.626047-.600628zm3.756309 0c-.346835 0-.626056.267883-.626056.600628v8.408809c0 .332752.279221.600636.626056.600636.346834 0 .626056-.267884.626056-.600636v-8.408809c0-.332745-.279222-.600628-.626056-.600628zm3.75625 0c-.346834 0-.626055.267883-.626055.600628v8.408809c0 .332752.279221.600636.626055.600636.346836 0 .626056-.267884.626056-.600636v-8.408809c0-.332745-.27922-.600628-.626056-.600628z" fill="#fbf7f8" fill-rule="evenodd"/></svg>