<?xml version="1.0" encoding="utf-8"?>
<!-- Generator: Adobe Illustrator 24.1.1, SVG Export Plug-In . SVG Version: 6.00 Build 0)  -->
<svg version="1.1" id="Layer_1" xmlns="http://www.w3.org/2000/svg" xmlns:xlink="http://www.w3.org/1999/xlink" x="0px" y="0px"
	 viewBox="0 0 512 512" style="enable-background:new 0 0 512 512;" xml:space="preserve">
<style type="text/css">
	.st0{fill:#F1C40F;}
	.st1{fill:#F39C12;}
	.st2{fill:#BDC3C7;}
	.st3{fill:#E67E22;}
	.st4{fill:#7F8C8D;}
	.st5{fill:#95A5A6;}
</style>
<g id="XMLID_1_">
	<path id="XMLID_3_" class="st0" d="M99.9,177.7c-24.4,0-44.8,19.7-44.8,44.8v22v133.7v22c0,24.4,19.7,44.8,44.8,44.8h44.8h222.6
		h44.8c24.4,0,44.8-19.7,44.8-44.8V244.6v-22c0-24.4-19.7-44.8-44.8-44.8h-44.8H99.9z"/>
	<path id="XMLID_4_" class="st1" d="M99.9,244.6c-24.4,0-44.8,19.7-44.8,44.8v22v133.7v22c0,24.4,19.7,44.8,44.8,44.8h44.8h222.6
		h44.8c24.4,0,44.8-19.7,44.8-44.8V311.4v-22c0-24.4-19.7-44.8-44.8-44.8h-44.8H99.9z"/>
	<path id="XMLID_5_" class="st2" d="M255.6,0C169.9,0,99.9,69.2,99.9,155.7h66.9c0-48.8,40.1-88.9,88.9-88.9s88.9,40.1,88.9,88.9
		h66.9C411.3,69.2,341.3,0,255.6,0z"/>
	<path id="XMLID_10_" class="st3" d="M99.9,288.6v22h311.4v-22H99.9z M99.9,333.5v22h311.4v-22H99.9z M99.9,377.5v22h311.4v-22
		C411.3,377.5,99.9,377.5,99.9,377.5z M99.9,422.3v22h311.4v-22H99.9z"/>
	<path id="XMLID_11_" class="st4" d="M99.9,177.7v22c0,11,14.9,22,33,22c18.1,0,33-11,33-22v-22c0,11-14.9,22-33,22
		S99.9,188.8,99.9,177.7z"/>
	<path id="XMLID_12_" class="st4" d="M344.5,177.7v22c0,11,14.9,22,33,22c18.1,0,33-11,33-22v-22c0,11-14.9,22-33,22
		C359.4,199.8,344.5,188.8,344.5,177.7z"/>
	<path id="XMLID_13_" class="st5" d="M255.6,32.2c-7.9,0-15.7,0.8-22.8,2.4c-5.5,0.8-11,2.4-15.7,3.9c-4.7,1.6-9.4,3.1-14.2,5.5
		c-2.4,0.8-4.7,2.4-7.1,3.1c-3.1,1.6-5.5,3.9-8.7,5.5c-2.4,1.6-5.5,3.1-7.9,4.7c-3.1,2.4-6.3,4.7-8.7,7.9l-1.6,3.1
		c-3.9,3.9-7.1,7.1-10.2,11.8c-3.1,4.7-6.3,8.7-8.7,14.2v0.8c-2.4,5.5-4.7,11-6.3,16.5c-5.5,13.4-21.2,22-38.5,22h-3.1h-0.8l-1.6,22
		v22v22h66.9v-22v-22c0-6.3,0.8-12.6,2.4-18.1c8.7-40.9,44-70.8,86.5-70.8c48.8,0,88.9,40.1,88.9,88.9v22v22h66.9v-22v-22l-1.6-22
		H409h-3.1c-18.1,0-33-9.4-38.5-22c-1.6-5.5-3.9-11.8-6.3-16.5v-0.8c-2.4-4.7-5.5-9.4-8.7-14.2c-3.1-4.7-6.3-7.9-10.2-11.8l-2.4-3.1
		c-3.1-2.4-5.5-5.5-8.7-7.9c-2.4-1.6-5.5-3.1-7.9-4.7s-5.5-3.9-8.7-5.5c-2.4-1.6-4.7-2.4-7.1-3.1c-4.7-2.4-9.4-3.9-14.2-5.5
		c-5.5-1.6-10.2-3.1-15.7-3.9C271.3,33,263.5,32.2,255.6,32.2z"/>
</g>
</svg>
