<?xml version="1.0" encoding="iso-8859-1"?>
<!-- Generator: Adobe Illustrator 18.1.1, SVG Export Plug-In . SVG Version: 6.00 Build 0)  -->
<!DOCTYPE svg PUBLIC "-//W3C//DTD SVG 1.1//EN" "http://www.w3.org/Graphics/SVG/1.1/DTD/svg11.dtd">
<svg version="1.1" xmlns="http://www.w3.org/2000/svg" xmlns:xlink="http://www.w3.org/1999/xlink" x="0px" y="0px"
	 viewBox="0 0 512 512" enable-background="new 0 0 512 512" xml:space="preserve">
<g id="Layer_2">
	<path fill="#B1B4B5" d="M376.749,349.097c-13.531,0-24.5-10.969-24.5-24.5V181.932c0-48.083-39.119-87.203-87.203-87.203
		c-48.083,0-87.203,39.119-87.203,87.203v82.977c0,13.531-10.969,24.5-24.5,24.5s-24.5-10.969-24.5-24.5v-82.977
		c0-75.103,61.1-136.203,136.203-136.203s136.203,61.1,136.203,136.203v142.665C401.249,338.128,390.28,349.097,376.749,349.097z"/>
</g>
<g id="Layer_3">
	<path fill="#FFB636" d="M414.115,497.459H115.977c-27.835,0-50.4-22.565-50.4-50.4V274.691c0-27.835,22.565-50.4,50.4-50.4h298.138
		c27.835,0,50.4,22.565,50.4,50.4v172.367C464.515,474.894,441.95,497.459,414.115,497.459z"/>
</g>
<g id="Layer_4">
	<path fill="#FFD469" d="M109.311,456.841h-2.525c-7.953,0-14.4-6.447-14.4-14.4V279.309c0-7.953,6.447-14.4,14.4-14.4h2.525
		c7.953,0,14.4,6.447,14.4,14.4v163.132C123.711,450.394,117.264,456.841,109.311,456.841z"/>
</g>
</svg>
