<svg xmlns="http://www.w3.org/2000/svg" viewBox="0 0 36 36">
<g transform="scale(-1, 1) translate(-36, -6)">
<path fill="#99C377" d="M9.842 19.922c0 9.842 6.575 9.673 5.158 10.078-7 2-8.803-7.618-9.464-7.618-2.378 0-5.536-.423-5.536-2.46C0 17.883 2.46 15 6.151 15c2.379 0 3.691 2.883 3.691 4.922zM36 28.638c0 1.104-3.518-.741-5 0-2 1-2-.896-2-2s1.343-1 3-1 4 1.895 4 3z"/>
<path fill="#99C377" d="M16.715 33.143c0 2.761-1.279 2.857-2.857 2.857S11 35.903 11 33.143c0-.489.085-1.029.234-1.587.69-2.59 2.754-5.556 4.052-5.556 1.578 0 1.429 4.382 1.429 7.143zm8.571 0c0 2.761 1.278 2.857 2.856 2.857C29.721 36 31 35.903 31 33.143c0-.489-.085-1.029-.234-1.587-.691-2.59-2.754-5.556-4.052-5.556-1.578 0-1.428 4.382-1.428 7.143z"/>
<path fill="#6E923D" d="M32 27c0 4-5.149 4-11.5 4S9 31 9 27c0-6.627 5.149-12 11.5-12S32 20.373 32 27z"/>
<circle fill="#000" cx="5" cy="18" r="1"/>
</g>
</svg>
