<?xml version="1.0" encoding="utf-8"?>
<svg width="24px" height="24px" viewBox="0 0 24 24" version="1.1" xmlns:xlink="http://www.w3.org/1999/xlink" xmlns="http://www.w3.org/2000/svg">
  <defs>
    <path d="M0 0L24 0L24 24L0 24L0 0Z" id="path_1" />
    <clipPath id="mask_1">
      <use xlink:href="#path_1" />
    </clipPath>
  </defs>
  <g id="document-open-torrent">
    <path d="M0 0L24 0L24 24L0 24L0 0Z" id="Background" fill="#FFFFFF" fill-opacity="0" fill-rule="evenodd" stroke="none" />
    <path d="M9.28557 3.00039C8.94234 3.00961 8.62556 3.15892 8.43523 3.40117L4.18771 8.80114C3.97007 9.06864 3.93944 9.41479 4.10757 9.70681C4.27569 9.99883 4.61647 10.1914 4.99918 10.2106C5.38189 10.2298 5.74711 10.0727 5.95475 9.79957L8.25687 6.87459L8.25687 17.4003C8.25146 17.7249 8.45265 18.0268 8.78343 18.1904C9.1142 18.354 9.5233 18.354 9.85407 18.1904C10.1848 18.0268 10.386 17.7249 10.3806 17.4003L10.3806 3.90039C10.3808 3.65684 10.2644 3.42356 10.058 3.25393C9.85168 3.08431 9.57301 2.99283 9.28568 3.00039L9.28557 3.00039ZM15.6735 5.68631C15.3918 5.69004 15.1235 5.78843 14.9274 5.95985C14.7314 6.13127 14.6238 6.36167 14.6282 6.60037L14.6282 20.1003C14.6284 20.4969 14.9347 20.8466 15.3825 20.9614C15.8303 21.0763 16.314 20.9293 16.5736 20.5994L20.8211 15.1995C21.0387 14.932 21.0694 14.5859 20.9012 14.2939C20.7331 14.0018 20.3923 13.8093 20.0096 13.7901C19.6269 13.7708 19.2617 13.9279 19.0541 14.2011L16.7519 17.1261L16.7519 6.60037C16.7564 6.3568 16.6442 6.12209 16.441 5.94984C16.2378 5.77758 15.9608 5.6825 15.6735 5.68631L15.6735 5.68631Z" id="Group" fill="#363636" fill-rule="evenodd" stroke="none" />
  </g>
</svg>