<svg height="24" viewBox="0 0 24 24" width="24" xmlns="http://www.w3.org/2000/svg"><path d="m0 0h24v24h-24z" fill="none"/><path d="m9.28557 3.000389c-.34323.00922-.66001.158531-.85034.400782l-4.24752 5.399969c-.21764.2675-.24827.61365-.08014.90567.16812.29202.5089.48459.89161.50379s.74793-.1379.95557-.41103l2.30212-2.92498v10.525709c-.00541.3246.19578.626501.52656.7901.33077.163601.73987.163601 1.07064 0 .33073-.163599.53193-.4655.52653-.7901v-13.499908c.0002-.243552-.1162-.476832-.3226-.646462-.20632-.169618-.48499-.261099-.77232-.25354zm6.38793 2.685921c-.2817.003731-.55.102119-.7461.27354-.196.171419-.3036.40182-.2992.64052v13.49993c.0002.396601.3065.7463.7543.861099.4478.114901.931499-.032099 1.191101-.361999l4.247499-5.3999c.2176-.2675.248301-.6136.080099-.9056-.168098-.2921-.508899-.4846-.891599-.5038-.3827-.0193-.7479.1378-.9555.411l-2.3022 2.925001v-10.525731c.004499-.24357-.107701-.478281-.3109-.650529-.203199-.172261-.4802-.267342-.7675-.263531z" fill="#fbf7f8" fill-rule="evenodd"/></svg>