<?xml version="1.0" encoding="utf-8"?>
<svg width="23.99975px" height="24.000498px" viewBox="0 0 23.99975 24.000498" version="1.1" xmlns:xlink="http://www.w3.org/1999/xlink" xmlns="http://www.w3.org/2000/svg">
  <defs>
    <path d="M0 0L23.9998 0L23.9998 23.9998L0 23.9998L0 0Z" id="path_1" />
    <clipPath id="mask_1">
      <use xlink:href="#path_1" />
    </clipPath>
  </defs>
  <g id="edit-delete-symbolic">
    <path d="M0 0L23.9998 0L23.9998 23.9998L0 23.9998L0 0Z" id="Background" fill="#FFFFFF" fill-opacity="0" fill-rule="evenodd" stroke="none" />
    <path d="M8.99991 0C8.16891 0 7.49992 0.668993 7.49992 1.49998L7.49992 2.99997L0.749992 2.99997C0.334496 2.99997 0 3.33447 0 3.74996C0 4.16546 0.334496 4.49995 0.749992 4.49995L1.49706 4.49995L2.31737 21.0913C2.40917 22.6145 3.67658 24.0005 5.31434 24.0005L17.1854 24.0005C18.8232 24.0005 20.0905 22.6146 20.1823 21.0913L21.0026 4.49995L21.7497 4.49995C22.1652 4.49995 22.4997 4.16546 22.4997 3.74996C22.4997 3.33447 22.1652 2.99997 21.7497 2.99997L14.9998 2.99997L14.9998 1.49998C14.9998 0.668993 14.3308 0 13.4998 0L8.99984 0L8.99991 0ZM8.99991 1.49998L13.4999 1.49998L13.4999 2.99997L8.99991 2.99997L8.99991 1.49998L8.99991 1.49998ZM2.99997 4.49995L19.4998 4.49995L18.6854 20.9998C18.6354 21.8293 18.0164 22.4998 17.1854 22.4998L5.31434 22.4998C4.48335 22.4998 3.86435 21.8293 3.81436 20.9998L2.99991 4.49995L2.99997 4.49995ZM6.74993 7.49992C6.33443 7.49992 5.99994 7.83442 5.99994 8.24991L5.99994 18.7498C5.99994 19.1653 6.33443 19.4998 6.74993 19.4998C7.16543 19.4998 7.49992 19.1653 7.49992 18.7498L7.49992 8.24991C7.49992 7.83442 7.16543 7.49992 6.74993 7.49992L6.74993 7.49992ZM11.2499 7.49992C10.8344 7.49992 10.4999 7.83442 10.4999 8.24991L10.4999 18.7498C10.4999 19.1653 10.8344 19.4998 11.2499 19.4998C11.6654 19.4998 11.9999 19.1653 11.9999 18.7498L11.9999 8.24991C11.9999 7.83442 11.6654 7.49992 11.2499 7.49992L11.2499 7.49992ZM15.7498 7.49992C15.3343 7.49992 14.9998 7.83442 14.9998 8.24991L14.9998 18.7498C14.9998 19.1653 15.3343 19.4998 15.7498 19.4998C16.1653 19.4998 16.4998 19.1653 16.4998 18.7498L16.4998 8.24991C16.4998 7.83442 16.1653 7.49992 15.7498 7.49992L15.7498 7.49992Z" id="Shape" fill="#363636" fill-rule="evenodd" stroke="none" />
  </g>
</svg>