<?xml version="1.0" encoding="UTF-8" standalone="no"?>
<svg
   width="23.99975px"
   height="24.000498px"
   viewBox="0 0 23.99975 24.000498"
   version="1.1"
   id="svg11"
   sodipodi:docname="list-remove.svg"
   inkscape:version="1.2.2 (b0a8486, 2022-12-01)"
   xmlns:inkscape="http://www.inkscape.org/namespaces/inkscape"
   xmlns:sodipodi="http://sodipodi.sourceforge.net/DTD/sodipodi-0.dtd"
   xmlns:xlink="http://www.w3.org/1999/xlink"
   xmlns="http://www.w3.org/2000/svg"
   xmlns:svg="http://www.w3.org/2000/svg">
  <sodipodi:namedview
     id="namedview13"
     pagecolor="#ffffff"
     bordercolor="#000000"
     borderopacity="0.25"
     inkscape:showpageshadow="2"
     inkscape:pageopacity="0.0"
     inkscape:pagecheckerboard="0"
     inkscape:deskcolor="#d1d1d1"
     showgrid="false"
     inkscape:zoom="9.8331294"
     inkscape:cx="12.407037"
     inkscape:cy="12.559583"
     inkscape:window-width="1302"
     inkscape:window-height="687"
     inkscape:window-x="0"
     inkscape:window-y="25"
     inkscape:window-maximized="0"
     inkscape:current-layer="svg11" />
  <defs
     id="defs6">
    <path
       d="M0 0L23.9998 0L23.9998 23.9998L0 23.9998L0 0Z"
       id="path_1" />
    <clipPath
       id="mask_1">
      <use
         xlink:href="#path_1"
         id="use3" />
    </clipPath>
  </defs>
  <g
     id="edit-delete-symbolic"
     transform="matrix(0.83474096,0,0,0.80084747,2.2373345,2.7458196)">
    <path
       d="M 0,0 H 23.9998 V 23.9998 H 0 Z"
       id="Background"
       fill="#ffffff"
       fill-opacity="0"
       fill-rule="evenodd"
       stroke="none" />
    <path
       d="M 8.99991,0 C 8.16891,0 7.49992,0.668993 7.49992,1.49998 V 2.99997 H 0.749992 C 0.334496,2.99997 0,3.33447 0,3.74996 0,4.16546 0.334496,4.49995 0.749992,4.49995 H 1.49706 L 2.31737,21.0913 c 0.0918,1.5232 1.35921,2.9092 2.99697,2.9092 H 17.1854 c 1.6378,0 2.9051,-1.3859 2.9969,-2.9092 L 21.0026,4.49995 h 0.7471 c 0.4155,0 0.75,-0.33449 0.75,-0.74999 0,-0.41549 -0.3345,-0.74999 -0.75,-0.74999 H 14.9998 V 1.49998 C 14.9998,0.668993 14.3308,0 13.4998,0 H 8.99984 Z m 0,1.49998 H 13.4999 V 2.99997 H 8.99991 Z M 2.99997,4.49995 H 19.4998 L 18.6854,20.9998 c -0.05,0.8295 -0.669,1.5 -1.5,1.5 H 5.31434 c -0.83099,0 -1.44999,-0.6705 -1.49998,-1.5 L 2.99991,4.49995 Z m 3.74996,2.99997 c -0.4155,0 -0.74999,0.3345 -0.74999,0.74999 V 18.7498 c 0,0.4155 0.33449,0.75 0.74999,0.75 0.4155,0 0.74999,-0.3345 0.74999,-0.75 V 8.24991 c 0,-0.41549 -0.33449,-0.74999 -0.74999,-0.74999 z m 4.49997,0 c -0.4155,0 -0.75,0.3345 -0.75,0.74999 V 18.7498 c 0,0.4155 0.3345,0.75 0.75,0.75 0.4155,0 0.75,-0.3345 0.75,-0.75 V 8.24991 c 0,-0.41549 -0.3345,-0.74999 -0.75,-0.74999 z m 4.4999,0 c -0.4155,0 -0.75,0.3345 -0.75,0.74999 V 18.7498 c 0,0.4155 0.3345,0.75 0.75,0.75 0.4155,0 0.75,-0.3345 0.75,-0.75 V 8.24991 c 0,-0.41549 -0.3345,-0.74999 -0.75,-0.74999 z"
       id="Shape"
       fill="#363636"
       fill-rule="evenodd"
       stroke="none" />
  </g>
</svg>
