<svg viewBox="0 0 24 24" xmlns="http://www.w3.org/2000/svg"><path d="m12.5 4c-1.213861 0-2.219022.8559279-2.449219 2h-6.050781v1h6.050781c.230197 1.1440721 1.235358 2 2.449219 2s2.219022-.8559279 2.449219-2h5.050781v-1h-5.050781c-.230197-1.1440721-1.235358-2-2.449219-2zm-6 11c-1.3850001 0-2.5 1.115-2.5 2.5s1.1149999 2.5 2.5 2.5c1.2138604 0 2.2190222-.855928 2.4492188-2h11.0507812v-1h-11.0507812c-.2301965-1.144072-1.2353584-2-2.4492188-2zm0 1c.8310001 0 1.5.669 1.5 1.5s-.6689999 1.5-1.5 1.5-1.5-.669-1.5-1.5.6689999-1.5 1.5-1.5z" fill="#363636"/></svg>