<svg viewBox="0 0 24 24" xmlns="http://www.w3.org/2000/svg"><path d="m12 4c-1.441714 0-2.7892891.3829219-3.9550781 1.0449219l.7382812.7382812c.962907-.4974 2.0542879-.7832031 3.2167969-.7832031 3.87797 0 7 3.122 7 7 0 1.1625-.285829 2.253897-.783203 3.216797l.738281.738281c.662051-1.1658 1.044922-2.513378 1.044922-3.955078 0-4.432-3.568034-8-8-8zm-6.9550781 4.0449219c-.662051 1.1658-1.0449219 2.5133781-1.0449219 3.9550781 0 4.432 3.568034 8 8 8 1.441714 0 2.789289-.382922 3.955078-1.044922l-.738281-.738281c-.962907.4974-2.054287.783203-3.216797.783203-3.87797 0-7-3.122-7-7 0-1.1625.2858281-2.2538969.7832031-3.2167969zm3.4550781 2.9531251v2h7v-2z" fill="#da4453"/></svg>