<svg xmlns="http://www.w3.org/2000/svg" viewBox="0 0 24 24">
  <defs id="defs3051">
    <style type="text/css" id="current-color-scheme">
      .ColorScheme-Text {
        color:#363636;
      }
      </style>
  </defs>
 <path style="fill:currentColor;fill-opacity:1;stroke:none" 
     d="M 12 4 C 10.558286 4 9.2107109 4.3829219 8.0449219 5.0449219 L 8.7832031 5.7832031 L 8.7851562 5.78125 L 11.564453 8.5585938 L 12.271484 7.8515625 L 9.7890625 5.3710938 C 10.484685 5.1384172 11.223912 5 12 5 C 15.87797 5 19 8.122 19 12 C 19 13.1625 18.714172 14.253897 18.216797 15.216797 L 18.955078 15.955078 C 19.617129 14.789278 20 13.4417 20 12 C 20 7.568 16.431966 4 12 4 z M 5.0449219 8.0449219 C 4.3828709 9.2107219 4 10.5583 4 12 C 4 16.432 7.568034 20 12 20 C 13.441714 20 14.789289 19.617078 15.955078 18.955078 L 15.271484 18.271484 L 15.273438 18.269531 L 12.445312 15.441406 L 11.738281 16.148438 L 14.216797 18.626953 C 13.519451 18.860921 12.778264 19 12 19 C 8.12203 19 5 15.878 5 12 C 5 10.8375 5.2858291 9.7461031 5.7832031 8.7832031 L 5.0449219 8.0449219 z "
     class="ColorScheme-Text"
     />
</svg>
