<svg height="22" width="22" xmlns="http://www.w3.org/2000/svg"><g fill="#363636" transform="translate(-.99978 -1.0133)"><path d="m9 11a1 1 0 1 0 0 2 1 1 0 0 0 0-2zm3 0a1 1 0 1 0 0 2 1 1 0 0 0 0-2zm3 0a1 1 0 1 0 0 2 1 1 0 0 0 0-2z"/><path d="m6.002 7a1 1 0 0 0 -.854.475l-2.894 3.86a1 1 0 0 0 -.02 1.308l2.938 3.918a1 1 0 1 0 1.63-1.155l.003-.002-2.551-3.402 2.55-3.402-.003-.002a1 1 0 0 0 -.799-1.598z" opacity=".35"/><path d="m17.998 7a1 1 0 0 0 -.799 1.598l-.004.002 2.551 3.402-2.55 3.402.001.002a1 1 0 1 0 1.63 1.154l2.939-3.917a1 1 0 0 0 -.02-1.307l-2.894-3.861a1 1 0 0 0 -.854-.475z"/></g></svg>