<svg width="22" height="22" xmlns="http://www.w3.org/2000/svg">
 <defs>
  <style id="current-color-scheme" type="text/css">
   .ColorScheme-Text { color:#363636; } .ColorScheme-Highlight { color:#4285f4; }
  </style>
 </defs>
<path d="M7 6c-1.108 0-2 .892-2 2v6c0 1.108.892 2 2 2h1c0 1.108.892 2 2 2h4c1.108 0 2-.892 2-2h1c1.108 0 2-.892 2-2V8c0-1.108-.892-2-2-2zm0 1h10c.554 0 1 .446 1 1v6c0 .554-.446 1-1 1h-2v1c0 .554-.446 1-1 1h-4c-.554 0-1-.446-1-1v-1H7c-.554 0-1-.446-1-1V8c0-.554.446-1 1-1z" class="ColorScheme-Text" fill="currentColor"/>
</svg>
