<svg version="1.1" viewBox="0 0 16 16" xmlns="http://www.w3.org/2000/svg" xmlns:osb="http://www.openswatchbook.org/uri/2009/osb">
 <path d="m12.447 0.089844c-1.9113 0-3.4609 1.5451-3.4609 3.4512 0 0.39546 0.091729 0.77896 0.21484 1.1328l-4.5098 4.5078c-0.35691-0.1241-0.74325-0.2168-1.1426-0.2168-1.9113-1e-7 -3.4609 1.5451-3.4609 3.4512 0 0.3642 0.080697 0.71925 0.18555 1.0488l1.9473-1.9414c0.19367-0.19315 0.45819-0.30859 0.71094-0.30859 0.25276 0 0.51726 0.11544 0.71094 0.30859l0.67969 0.67773c0.38735 0.3863 0.38735 1.0317 0 1.418l-2.0098 2.002c0.38238 0.14512 0.80287 0.24609 1.2363 0.24609 1.3356 0 2.4816-0.76223 3.0586-1.8672h-0.60742c-0.554 0-1-0.446-1-1v-2c0-0.554 0.446-1 1-1h2.0703l2.0527-2.0508c0.002575 2.43e-5 0.005237-3.25e-5 0.007812 0l1.1738-1.1719c0.3569 0.1241 0.74325 0.21484 1.1426 0.21484 1.9113 0 3.4609-1.5451 3.4609-3.4512 0-0.39824-0.090404-0.78276-0.21484-1.1387l-1.8848 1.8789c-0.38735 0.38628-1.0033 0.38628-1.3906 0l-0.71094-0.70898c-0.38734-0.3863-0.38734-1.0004 0-1.3867l1.8848-1.8789c-0.35691-0.12412-0.7452-0.2168-1.1445-0.2168z" color="#000000" fill="#808080" style="text-decoration-line:none;text-indent:0;text-transform:none"/>
 <path d="m6.9943 11c-0.55117 0-0.99482 0.44367-0.99482 0.99481v0.0104c0 0.55114 0.44365 0.99481 0.99482 0.99481h0.0106c0.55117 0 0.99482-0.44367 0.99482-0.99481v-0.0104c0-0.55114-0.44365-0.99481-0.99482-0.99481zm2.9999-1e-5c-0.55117 0-0.99482 0.44367-0.99482 0.99481v0.0104c0 0.55114 0.44365 0.99481 0.99482 0.99481h0.0106c0.55117 0 0.99482-0.44367 0.99482-0.99481v-0.0104c0-0.55114-0.44365-0.99481-0.99482-0.99481zm3 0c-0.55117 0-0.99482 0.44367-0.99482 0.99481v0.0104c0 0.55114 0.44365 0.99481 0.99482 0.99481h0.0106c0.55117 0 0.99482-0.44367 0.99482-0.99481v-0.0104c4e-5 -0.55114-0.44361-0.99481-0.99478-0.99481z" color="#000000" color-rendering="auto" display="block" enable-background="new" fill="#808080" image-rendering="auto" shape-rendering="auto" solid-color="#000000" style="isolation:auto;mix-blend-mode:normal;paint-order:normal"/>
</svg>
