<?xml version="1.0" encoding="UTF-8" standalone="no"?>
<svg width="16" height="16" xmlns="http://www.w3.org/2000/svg">
  <g transform="translate(0,-1036.3622)">
    <path d="m 8,-0.53333333 c -4.7065033,0 -8.53333333,3.82683003 -8.53333333,8.53333333 0,4.706503 3.82683003,8.533333 8.53333333,8.533333 4.706503,0 8.533333,-3.82683 8.533333,-8.533333 0,-4.7065033 -3.82683,-8.53333333 -8.533333,-8.53333333 z m 0.275,1.075 C 12.277111,0.68592604 15.466667,3.9620618 15.466667,8 c 0,4.130035 -3.336632,7.466667 -7.466667,7.466667 -0.1172124,0 -0.2341237,-0.0051 -0.35,-0.01042 C 5.9752011,15.069361 4.7270833,13.569464 4.7270833,11.777083 4.7270833,9.8715919 6.1280741,8.2243731 7.9625,7.9666667 9.7954461,7.7074669 11.2,6.1294248 11.2,4.225 11.2,2.4301722 9.9528456,0.92589685 8.275,0.54166667 Z" transform="matrix(0.9375,0,0,0.9375,0.5,1036.8622)" />
  </g>
</svg>
