<?xml version="1.0" encoding="UTF-8" standalone="no"?>
<!-- Created with Inkscape (http://www.inkscape.org/) -->

<svg
   xmlns:dc="http://purl.org/dc/elements/1.1/"
   xmlns:cc="http://creativecommons.org/ns#"
   xmlns:rdf="http://www.w3.org/1999/02/22-rdf-syntax-ns#"
   xmlns:svg="http://www.w3.org/2000/svg"
   xmlns="http://www.w3.org/2000/svg"
   xmlns:xlink="http://www.w3.org/1999/xlink"
   xmlns:sodipodi="http://sodipodi.sourceforge.net/DTD/sodipodi-0.dtd"
   xmlns:inkscape="http://www.inkscape.org/namespaces/inkscape"
   width="96"
   height="96"
   id="svg2408"
   sodipodi:version="0.32"
   inkscape:version="0.48.1 r9760"
   version="1.0"
   sodipodi:docname="document-open.svg"
   inkscape:output_extension="org.inkscape.output.svg.inkscape"
   style="display:inline">
  <defs
     id="defs2410">
    <linearGradient
       id="linearGradient3637">
      <stop
         style="stop-color:#f0f0f0;stop-opacity:1;"
         offset="0"
         id="stop3639" />
      <stop
         style="stop-color:#dcdcdc;stop-opacity:1;"
         offset="1"
         id="stop3641" />
    </linearGradient>
    <linearGradient
       id="ButtonShadow"
       gradientTransform="scale(1.0058652,0.994169)"
       x1="45.447727"
       y1="92.539597"
       x2="45.447727"
       y2="7.0165396"
       gradientUnits="userSpaceOnUse">
      <stop
         style="stop-color:#000000;stop-opacity:1;"
         offset="0"
         id="stop3750" />
      <stop
         style="stop-color:#000000;stop-opacity:0.58823532;"
         offset="1"
         id="stop3752" />
    </linearGradient>
    <linearGradient
       inkscape:collect="always"
       id="linearGradient3737">
      <stop
         style="stop-color:#ffffff;stop-opacity:1;"
         offset="0"
         id="stop3739" />
      <stop
         style="stop-color:#ffffff;stop-opacity:0;"
         offset="1"
         id="stop3741" />
    </linearGradient>
    <linearGradient
       id="linearGradient3700">
      <stop
         style="stop-color:#2276c5;stop-opacity:1;"
         offset="0"
         id="stop3702" />
      <stop
         style="stop-color:#68baf4;stop-opacity:1;"
         offset="1"
         id="stop3704" />
    </linearGradient>
    <inkscape:perspective
       sodipodi:type="inkscape:persp3d"
       inkscape:vp_x="0 : 526.18109 : 1"
       inkscape:vp_y="0 : 1000 : 0"
       inkscape:vp_z="744.09448 : 526.18109 : 1"
       inkscape:persp3d-origin="372.04724 : 350.78739 : 1"
       id="perspective2416" />
    <linearGradient
       inkscape:collect="always"
       xlink:href="#linearGradient3700"
       id="linearGradient3706"
       x1="48"
       y1="90"
       x2="48"
       y2="5.9877172"
       gradientUnits="userSpaceOnUse" />
    <linearGradient
       inkscape:collect="always"
       xlink:href="#linearGradient3737"
       id="linearGradient3743"
       x1="36.357143"
       y1="6"
       x2="36.357143"
       y2="63.893143"
       gradientUnits="userSpaceOnUse" />
    <filter
       inkscape:collect="always"
       id="filter3174"
       color-interpolation-filters="sRGB">
      <feGaussianBlur
         inkscape:collect="always"
         stdDeviation="1.71"
         id="feGaussianBlur3176" />
    </filter>
    <linearGradient
       inkscape:collect="always"
       xlink:href="#linearGradient3737"
       id="linearGradient3188"
       gradientUnits="userSpaceOnUse"
       x1="36.357143"
       y1="6"
       x2="36.357143"
       y2="63.893143" />
    <linearGradient
       inkscape:collect="always"
       xlink:href="#linearGradient3737"
       id="linearGradient3613"
       x1="48"
       y1="20.220806"
       x2="48"
       y2="138.66119"
       gradientUnits="userSpaceOnUse" />
    <radialGradient
       inkscape:collect="always"
       xlink:href="#linearGradient3737"
       id="radialGradient3619"
       cx="48"
       cy="90.171875"
       fx="48"
       fy="90.171875"
       r="42"
       gradientTransform="matrix(1.1573129,0,0,0.99590774,-7.5510206,0.19713193)"
       gradientUnits="userSpaceOnUse" />
    <clipPath
       clipPathUnits="userSpaceOnUse"
       id="clipPath3613">
      <rect
         ry="6"
         rx="6"
         y="6"
         x="6"
         height="84"
         width="84"
         id="rect3615"
         style="fill:#ffffff;fill-opacity:1;fill-rule:nonzero;stroke:none" />
    </clipPath>
    <linearGradient
       inkscape:collect="always"
       xlink:href="#linearGradient3700"
       id="linearGradient2843"
       gradientUnits="userSpaceOnUse"
       x1="48"
       y1="90"
       x2="48"
       y2="5.9877172"
       gradientTransform="translate(0,100)" />
    <linearGradient
       inkscape:collect="always"
       xlink:href="#linearGradient3700"
       id="linearGradient2848"
       gradientUnits="userSpaceOnUse"
       x1="48"
       y1="90"
       x2="48"
       y2="5.9877172" />
    <clipPath
       clipPathUnits="userSpaceOnUse"
       id="clipPath3625">
      <path
         style="fill:#ffffff;fill-opacity:1;stroke:none"
         d="M 0,0 0,96 96,96 96,0 0,0 z m 12,6 72,0 c 3.324,0 6,2.676 6,6 l 0,72 c 0,3.324 -2.676,6 -6,6 L 12,90 C 8.676,90 6,87.324 6,84 L 6,12 C 6,8.676 8.676,6 12,6 z"
         id="path3627" />
    </clipPath>
    <linearGradient
       inkscape:collect="always"
       xlink:href="#linearGradient3637"
       id="linearGradient3643"
       x1="44.512066"
       y1="6"
       x2="44.512066"
       y2="90.015434"
       gradientUnits="userSpaceOnUse" />
    <clipPath
       clipPathUnits="userSpaceOnUse"
       id="clipPath3649">
      <rect
         style="fill:#ffffff;fill-opacity:1;fill-rule:nonzero;stroke:none"
         id="rect3651"
         width="76"
         height="76"
         x="10"
         y="10"
         rx="4"
         ry="4" />
    </clipPath>
    <filter
       inkscape:collect="always"
       id="filter3657"
       color-interpolation-filters="sRGB">
      <feGaussianBlur
         inkscape:collect="always"
         stdDeviation="1.14"
         id="feGaussianBlur3659" />
    </filter>
    <clipPath
       clipPathUnits="userSpaceOnUse"
       id="clipPath3697">
      <rect
         style="fill:#ff0000;fill-opacity:1;fill-rule:nonzero;stroke:none"
         id="rect3699"
         width="76"
         height="76"
         x="10"
         y="10"
         rx="4"
         ry="4" />
    </clipPath>
    <inkscape:perspective
       id="perspective2927"
       inkscape:persp3d-origin="0.5 : 0.33333333 : 1"
       inkscape:vp_z="1 : 0.5 : 1"
       inkscape:vp_y="0 : 1000 : 0"
       inkscape:vp_x="0 : 0.5 : 1"
       sodipodi:type="inkscape:persp3d" />
    <linearGradient
       inkscape:collect="always"
       xlink:href="#linearGradient3309"
       id="linearGradient3804"
       gradientUnits="userSpaceOnUse"
       gradientTransform="matrix(1.2790652,0,0,1.2790652,17.302433,18.5815)"
       x1="20.758585"
       y1="1"
       x2="20.758585"
       y2="45.017357" />
    <linearGradient
       gradientUnits="userSpaceOnUse"
       id="linearGradient3309"
       y2="122.8994"
       x2="63.9995"
       y1="3.1001"
       x1="63.9995">
      <stop
         offset="0"
         style="stop-color:#f6f6f6;stop-opacity:1"
         id="stop3311" />
      <stop
         offset="1"
         style="stop-color:#d2d2d2;stop-opacity:1"
         id="stop3313" />
    </linearGradient>
    <linearGradient
       inkscape:collect="always"
       xlink:href="#linearGradient3397"
       id="linearGradient3806"
       gradientUnits="userSpaceOnUse"
       gradientTransform="matrix(1.2790652,0,0,1.2790652,17.302433,18.5815)"
       x1="37.201294"
       y1="1"
       x2="37.201294"
       y2="45" />
    <linearGradient
       id="linearGradient3397">
      <stop
         offset="0"
         style="stop-color:#aaa;stop-opacity:1"
         id="stop3399" />
      <stop
         offset="1"
         style="stop-color:#8c8c8c;stop-opacity:1"
         id="stop3401" />
    </linearGradient>
    <linearGradient
       y2="45.017357"
       x2="20.758585"
       y1="1"
       x1="20.758585"
       gradientTransform="matrix(1.2790652,0,0,1.2790652,17.302433,18.5815)"
       gradientUnits="userSpaceOnUse"
       id="linearGradient2940"
       xlink:href="#linearGradient3309"
       inkscape:collect="always" />
    <linearGradient
       inkscape:collect="always"
       xlink:href="#linearGradient4081"
       id="linearGradient3665"
       gradientUnits="userSpaceOnUse"
       gradientTransform="matrix(0.93022994,0,0,-0.93022994,23.674475,61.395341)"
       x1="20.758585"
       y1="1"
       x2="20.758585"
       y2="45.017357" />
    <linearGradient
       inkscape:collect="always"
       xlink:href="#linearGradient4081"
       id="linearGradient3669"
       gradientUnits="userSpaceOnUse"
       gradientTransform="matrix(0.47268421,0.12665535,0.12665535,-0.47268421,44.47921,74.733655)"
       x1="20.758585"
       y1="1"
       x2="20.758585"
       y2="45.017357" />
    <inkscape:perspective
       id="perspective2842"
       inkscape:persp3d-origin="0.5 : 0.33333333 : 1"
       inkscape:vp_z="1 : 0.5 : 1"
       inkscape:vp_y="0 : 1000 : 0"
       inkscape:vp_x="0 : 0.5 : 1"
       sodipodi:type="inkscape:persp3d" />
    <linearGradient
       inkscape:collect="always"
       xlink:href="#linearGradient4081"
       id="linearGradient3180"
       x1="-13"
       y1="17.008953"
       x2="-13"
       y2="-0.70032859"
       gradientUnits="userSpaceOnUse" />
    <linearGradient
       id="linearGradient4081">
      <stop
         style="stop-color:#aaaaaa;stop-opacity:1;"
         offset="0"
         id="stop4083" />
      <stop
         style="stop-color:#f0f0f0;stop-opacity:1;"
         offset="1"
         id="stop4085" />
    </linearGradient>
    <linearGradient
       y2="-0.70032859"
       x2="-13"
       y1="17.008953"
       x1="-13"
       gradientUnits="userSpaceOnUse"
       id="linearGradient2851"
       xlink:href="#linearGradient4081"
       inkscape:collect="always" />
    <linearGradient
       inkscape:collect="always"
       xlink:href="#linearGradient4081"
       id="linearGradient3692"
       gradientUnits="userSpaceOnUse"
       gradientTransform="matrix(0.93022994,0,0,-0.93022994,23.674475,61.395341)"
       x1="20.758585"
       y1="1"
       x2="20.758585"
       y2="45.017357" />
    <linearGradient
       inkscape:collect="always"
       xlink:href="#linearGradient4081"
       id="linearGradient3697"
       gradientUnits="userSpaceOnUse"
       gradientTransform="matrix(0.93022994,0,0,-0.93022994,23.674475,61.395341)"
       x1="20.758585"
       y1="1"
       x2="20.758585"
       y2="45.017357" />
    <linearGradient
       inkscape:collect="always"
       xlink:href="#linearGradient4081"
       id="linearGradient3701"
       gradientUnits="userSpaceOnUse"
       gradientTransform="matrix(0.93022994,0,0,-0.93022994,23.674475,61.395341)"
       x1="20.758585"
       y1="1"
       x2="20.758585"
       y2="45.017357" />
    <linearGradient
       inkscape:collect="always"
       xlink:href="#linearGradient4081"
       id="linearGradient3720"
       gradientUnits="userSpaceOnUse"
       gradientTransform="matrix(0.93022994,0,0,-0.93022994,23.674475,61.395341)"
       x1="20.758585"
       y1="1"
       x2="20.758585"
       y2="45.017357" />
    <linearGradient
       inkscape:collect="always"
       xlink:href="#linearGradient4081"
       id="linearGradient3725"
       gradientUnits="userSpaceOnUse"
       gradientTransform="matrix(0.93022994,0,0,-0.93022994,23.674475,62.395341)"
       x1="20.758585"
       y1="1"
       x2="20.758585"
       y2="45.017357" />
    <linearGradient
       inkscape:collect="always"
       xlink:href="#linearGradient4081"
       id="linearGradient3727"
       gradientUnits="userSpaceOnUse"
       gradientTransform="matrix(0.93022994,0,0,-0.93022994,23.674475,61.395341)"
       x1="20.758585"
       y1="1"
       x2="20.758585"
       y2="45.017357" />
    <inkscape:perspective
       id="perspective3025"
       inkscape:persp3d-origin="0.5 : 0.33333333 : 1"
       inkscape:vp_z="1 : 0.5 : 1"
       inkscape:vp_y="0 : 1000 : 0"
       inkscape:vp_x="0 : 0.5 : 1"
       sodipodi:type="inkscape:persp3d" />
    <linearGradient
       inkscape:collect="always"
       xlink:href="#StandardGradient"
       id="linearGradient3708"
       gradientUnits="userSpaceOnUse"
       gradientTransform="matrix(0,1,-1,0,96,0)"
       x1="29.826593"
       y1="51.954468"
       x2="65.693901"
       y2="51.954468" />
    <linearGradient
       id="StandardGradient"
       x1="11.347495"
       y1="5.999567"
       x2="11.347495"
       y2="16.013096"
       gradientUnits="userSpaceOnUse"
       gradientTransform="translate(-3,-2.9995677)">
      <stop
         id="stop3177"
         offset="0"
         style="stop-color:#000000;stop-opacity:0.86274511;" />
      <stop
         id="stop3179"
         offset="1"
         style="stop-color:#000000;stop-opacity:0.47058824;" />
    </linearGradient>
    <linearGradient
       y2="51.954468"
       x2="65.693901"
       y1="51.954468"
       x1="29.826593"
       gradientTransform="matrix(0,-1,-1,0,96,16)"
       gradientUnits="userSpaceOnUse"
       id="linearGradient3034"
       xlink:href="#linearGradient4081"
       inkscape:collect="always" />
    <linearGradient
       inkscape:collect="always"
       xlink:href="#linearGradient4081"
       id="linearGradient3831"
       gradientUnits="userSpaceOnUse"
       gradientTransform="matrix(0,-1,-1,0,96,97)"
       x1="29.826593"
       y1="51.954468"
       x2="65.693901"
       y2="51.954468" />
    <linearGradient
       inkscape:collect="always"
       xlink:href="#linearGradient4081"
       id="linearGradient3833"
       gradientUnits="userSpaceOnUse"
       gradientTransform="matrix(0,-1,-1,0,96,96)"
       x1="29.826593"
       y1="51.954468"
       x2="65.693901"
       y2="51.954468" />
    <linearGradient
       inkscape:collect="always"
       xlink:href="#linearGradient4081"
       id="linearGradient3682"
       gradientUnits="userSpaceOnUse"
       gradientTransform="matrix(0,-1,-1,0,96,96)"
       x1="29.826593"
       y1="51.954468"
       x2="65.693901"
       y2="51.954468" />
    <linearGradient
       inkscape:collect="always"
       xlink:href="#linearGradient4081"
       id="linearGradient3699"
       gradientUnits="userSpaceOnUse"
       gradientTransform="matrix(0,-1,-1,0,96,96)"
       x1="29.826593"
       y1="51.954468"
       x2="65.693901"
       y2="51.954468" />
    <linearGradient
       inkscape:collect="always"
       xlink:href="#linearGradient4081"
       id="linearGradient3705"
       gradientUnits="userSpaceOnUse"
       gradientTransform="matrix(0,-1,-1,0,36,16)"
       x1="29.826593"
       y1="51.954468"
       x2="65.693901"
       y2="51.954468" />
    <linearGradient
       inkscape:collect="always"
       xlink:href="#linearGradient4081"
       id="linearGradient3712"
       gradientUnits="userSpaceOnUse"
       gradientTransform="matrix(0,-1,-1,0,96,97)"
       x1="29.826593"
       y1="51.954468"
       x2="65.693901"
       y2="51.954468" />
    <linearGradient
       inkscape:collect="always"
       xlink:href="#linearGradient4081"
       id="linearGradient3714"
       gradientUnits="userSpaceOnUse"
       gradientTransform="matrix(0,-1,-1,0,96,96)"
       x1="29.826593"
       y1="51.954468"
       x2="65.693901"
       y2="51.954468" />
    <inkscape:perspective
       id="perspective2941"
       inkscape:persp3d-origin="0.5 : 0.33333333 : 1"
       inkscape:vp_z="1 : 0.5 : 1"
       inkscape:vp_y="0 : 1000 : 0"
       inkscape:vp_x="0 : 0.5 : 1"
       sodipodi:type="inkscape:persp3d" />
    <linearGradient
       inkscape:collect="always"
       xlink:href="#StandardGradient-8"
       id="linearGradient3708-7"
       gradientUnits="userSpaceOnUse"
       gradientTransform="matrix(0,1,-1,0,96,0)"
       x1="29.826593"
       y1="51.954468"
       x2="65.693901"
       y2="51.954468" />
    <linearGradient
       id="StandardGradient-8"
       x1="11.347495"
       y1="5.999567"
       x2="11.347495"
       y2="16.013096"
       gradientUnits="userSpaceOnUse"
       gradientTransform="translate(-3,-2.9995677)">
      <stop
         id="stop3177-6"
         offset="0"
         style="stop-color:#000000;stop-opacity:0.86274511;" />
      <stop
         id="stop3179-8"
         offset="1"
         style="stop-color:#000000;stop-opacity:0.47058824;" />
    </linearGradient>
    <linearGradient
       inkscape:collect="always"
       xlink:href="#StandardGradient-8"
       id="linearGradient2947"
       gradientUnits="userSpaceOnUse"
       gradientTransform="matrix(0,1,-1,0,183,0)"
       x1="29.826593"
       y1="51.954468"
       x2="65.693901"
       y2="51.954468" />
    <linearGradient
       inkscape:collect="always"
       xlink:href="#linearGradient4081"
       id="linearGradient3728"
       x1="56"
       y1="72"
       x2="56"
       y2="24"
       gradientUnits="userSpaceOnUse" />
    <linearGradient
       inkscape:collect="always"
       xlink:href="#linearGradient4081"
       id="linearGradient3710"
       x1="24"
       y1="48"
       x2="72"
       y2="48"
       gradientUnits="userSpaceOnUse"
       gradientTransform="matrix(0,-1,1,0,0,96)" />
    <linearGradient
       inkscape:collect="always"
       xlink:href="#linearGradient4081"
       id="linearGradient3716"
       gradientUnits="userSpaceOnUse"
       gradientTransform="matrix(0,-1,1,0,0,97)"
       x1="24"
       y1="48"
       x2="72"
       y2="48" />
    <linearGradient
       inkscape:collect="always"
       xlink:href="#linearGradient4081"
       id="linearGradient3718"
       gradientUnits="userSpaceOnUse"
       gradientTransform="matrix(0,-1,1,0,0,96)"
       x1="24"
       y1="48"
       x2="72"
       y2="48" />
    <linearGradient
       inkscape:collect="always"
       xlink:href="#linearGradient4081"
       id="linearGradient3723"
       gradientUnits="userSpaceOnUse"
       gradientTransform="matrix(0,-1,1,0,0,96)"
       x1="24"
       y1="48"
       x2="72"
       y2="48" />
    <linearGradient
       inkscape:collect="always"
       xlink:href="#linearGradient4081"
       id="linearGradient3729"
       gradientUnits="userSpaceOnUse"
       gradientTransform="matrix(0,-1,1,0,0,95)"
       x1="24"
       y1="48"
       x2="72"
       y2="48" />
    <linearGradient
       inkscape:collect="always"
       xlink:href="#linearGradient4081"
       id="linearGradient3702"
       x1="27"
       y1="48"
       x2="69"
       y2="48"
       gradientUnits="userSpaceOnUse"
       gradientTransform="matrix(0,-1,1,0,90,96)" />
    <linearGradient
       inkscape:collect="always"
       xlink:href="#linearGradient4081"
       id="linearGradient3709"
       gradientUnits="userSpaceOnUse"
       gradientTransform="matrix(0,-1,1,0,0,97)"
       x1="27"
       y1="48"
       x2="69"
       y2="48" />
    <linearGradient
       inkscape:collect="always"
       xlink:href="#linearGradient4081"
       id="linearGradient3711"
       gradientUnits="userSpaceOnUse"
       gradientTransform="matrix(0,-1,1,0,0,96)"
       x1="27"
       y1="48"
       x2="69"
       y2="48" />
    <linearGradient
       inkscape:collect="always"
       xlink:href="#linearGradient4081"
       id="linearGradient3719"
       gradientUnits="userSpaceOnUse"
       gradientTransform="matrix(0,-1,1,0,0,95)"
       x1="27"
       y1="48"
       x2="69"
       y2="48" />
    <linearGradient
       inkscape:collect="always"
       xlink:href="#linearGradient4081"
       id="linearGradient3721"
       gradientUnits="userSpaceOnUse"
       gradientTransform="matrix(0,-1,1,0,0,96)"
       x1="27"
       y1="48"
       x2="69"
       y2="48" />
    <inkscape:perspective
       id="perspective2867"
       inkscape:persp3d-origin="0.5 : 0.33333333 : 1"
       inkscape:vp_z="1 : 0.5 : 1"
       inkscape:vp_y="0 : 1000 : 0"
       inkscape:vp_x="0 : 0.5 : 1"
       sodipodi:type="inkscape:persp3d" />
    <linearGradient
       inkscape:collect="always"
       xlink:href="#StandardGradient-2"
       id="linearGradient3227"
       gradientUnits="userSpaceOnUse"
       gradientTransform="matrix(0.9219544,0,0,1.0846523,-0.01723507,-0.03125)"
       x1="11.998966"
       y1="2.7658634"
       x2="11.998966"
       y2="15.702114" />
    <linearGradient
       id="StandardGradient-2"
       gradientTransform="scale(0.9219544,1.0846523)"
       x1="11.998966"
       y1="0.92195445"
       x2="11.998966"
       y2="19.387045"
       gradientUnits="userSpaceOnUse">
      <stop
         style="stop-color:#000000;stop-opacity:0.86274511;"
         offset="0"
         id="stop3283" />
      <stop
         style="stop-color:#000000;stop-opacity:0.47058824;"
         offset="1"
         id="stop2651" />
    </linearGradient>
    <linearGradient
       y2="15.702114"
       x2="11.998966"
       y1="2.7658634"
       x1="11.998966"
       gradientTransform="matrix(2.4585451,0,0,2.9114351,18.620707,18.547698)"
       gradientUnits="userSpaceOnUse"
       id="linearGradient2876"
       xlink:href="#StandardGradient-2"
       inkscape:collect="always" />
    <linearGradient
       inkscape:collect="always"
       xlink:href="#StandardGradient-2"
       id="linearGradient3117"
       gradientUnits="userSpaceOnUse"
       gradientTransform="matrix(2.4585451,0,0,2.9114351,18.620707,18.547698)"
       x1="11.998966"
       y1="2.7658634"
       x2="11.998966"
       y2="15.702114" />
    <linearGradient
       inkscape:collect="always"
       xlink:href="#linearGradient4081"
       id="linearGradient3927"
       gradientUnits="userSpaceOnUse"
       x1="48"
       y1="74"
       x2="48"
       y2="23.990002"
       gradientTransform="translate(0,1)" />
    <linearGradient
       inkscape:collect="always"
       xlink:href="#linearGradient4081"
       id="linearGradient3929"
       gradientUnits="userSpaceOnUse"
       x1="48"
       y1="74"
       x2="48"
       y2="23.990002" />
    <linearGradient
       inkscape:collect="always"
       xlink:href="#linearGradient4081"
       id="linearGradient3936"
       gradientUnits="userSpaceOnUse"
       x1="48"
       y1="74"
       x2="48"
       y2="23.990002"
       gradientTransform="translate(0,-1)" />
    <linearGradient
       inkscape:collect="always"
       xlink:href="#linearGradient4081"
       id="linearGradient3938"
       gradientUnits="userSpaceOnUse"
       x1="48"
       y1="74"
       x2="48"
       y2="23.990002" />
    <linearGradient
       y2="90.238609"
       x2="32.251034"
       y1="6.1317081"
       x1="32.251034"
       gradientTransform="matrix(1.0238095,0,0,-1.0119048,-1.1428571,98.071429)"
       gradientUnits="userSpaceOnUse"
       id="linearGradient3016"
       xlink:href="#ButtonShadow-0"
       inkscape:collect="always" />
    <linearGradient
       id="ButtonShadow-0"
       gradientTransform="matrix(1.0058652,0,0,0.994169,100,0)"
       x1="45.447727"
       y1="92.539597"
       x2="45.447727"
       y2="7.0165396"
       gradientUnits="userSpaceOnUse">
      <stop
         style="stop-color:#000000;stop-opacity:1;"
         offset="0"
         id="stop3750-8" />
      <stop
         style="stop-color:#000000;stop-opacity:0.58823532;"
         offset="1"
         id="stop3752-5" />
    </linearGradient>
    <linearGradient
       inkscape:collect="always"
       xlink:href="#ButtonShadow-0"
       id="linearGradient3780"
       gradientUnits="userSpaceOnUse"
       gradientTransform="matrix(1.0238095,0,0,-1.0119048,-1.1428571,98.071429)"
       x1="32.251034"
       y1="6.1317081"
       x2="32.251034"
       y2="90.238609" />
    <linearGradient
       id="linearGradient3184"
       gradientTransform="matrix(1.0058652,0,0,0.994169,100,0)"
       x1="45.447727"
       y1="92.539597"
       x2="45.447727"
       y2="7.0165396"
       gradientUnits="userSpaceOnUse">
      <stop
         style="stop-color:#000000;stop-opacity:1;"
         offset="0"
         id="stop3186" />
      <stop
         style="stop-color:#000000;stop-opacity:0.58823532;"
         offset="1"
         id="stop3188" />
    </linearGradient>
    <linearGradient
       inkscape:collect="always"
       xlink:href="#ButtonShadow-0"
       id="linearGradient3772"
       gradientUnits="userSpaceOnUse"
       gradientTransform="matrix(1.0238095,0,0,-1.0119048,-1.1428571,98.071429)"
       x1="32.251034"
       y1="6.1317081"
       x2="32.251034"
       y2="90.238609" />
    <linearGradient
       id="linearGradient3191"
       gradientTransform="matrix(1.0058652,0,0,0.994169,100,0)"
       x1="45.447727"
       y1="92.539597"
       x2="45.447727"
       y2="7.0165396"
       gradientUnits="userSpaceOnUse">
      <stop
         style="stop-color:#000000;stop-opacity:1;"
         offset="0"
         id="stop3193" />
      <stop
         style="stop-color:#000000;stop-opacity:0.58823532;"
         offset="1"
         id="stop3195" />
    </linearGradient>
    <linearGradient
       inkscape:collect="always"
       xlink:href="#ButtonShadow-0"
       id="linearGradient3725-3"
       gradientUnits="userSpaceOnUse"
       gradientTransform="matrix(1.0238095,0,0,-1.0119048,-1.1428571,98.071429)"
       x1="32.251034"
       y1="6.1317081"
       x2="32.251034"
       y2="90.238609" />
    <linearGradient
       id="linearGradient3198"
       gradientTransform="matrix(1.0058652,0,0,0.994169,100,0)"
       x1="45.447727"
       y1="92.539597"
       x2="45.447727"
       y2="7.0165396"
       gradientUnits="userSpaceOnUse">
      <stop
         style="stop-color:#000000;stop-opacity:1;"
         offset="0"
         id="stop3200" />
      <stop
         style="stop-color:#000000;stop-opacity:0.58823532;"
         offset="1"
         id="stop3202" />
    </linearGradient>
    <linearGradient
       inkscape:collect="always"
       xlink:href="#ButtonShadow-0"
       id="linearGradient3721-4"
       gradientUnits="userSpaceOnUse"
       gradientTransform="matrix(1,0,0,-1,0,97)"
       x1="32.251034"
       y1="6.1317081"
       x2="32.251034"
       y2="90.238609" />
    <linearGradient
       id="linearGradient3205"
       gradientTransform="matrix(1.0058652,0,0,0.994169,100,0)"
       x1="45.447727"
       y1="92.539597"
       x2="45.447727"
       y2="7.0165396"
       gradientUnits="userSpaceOnUse">
      <stop
         style="stop-color:#000000;stop-opacity:1;"
         offset="0"
         id="stop3207" />
      <stop
         style="stop-color:#000000;stop-opacity:0.58823532;"
         offset="1"
         id="stop3209" />
    </linearGradient>
    <linearGradient
       y2="90.238609"
       x2="32.251034"
       y1="6.1317081"
       x1="32.251034"
       gradientTransform="matrix(1.0238095,0,0,-1.0119048,-1.1428571,98.071429)"
       gradientUnits="userSpaceOnUse"
       id="linearGradient3216"
       xlink:href="#ButtonShadow-0"
       inkscape:collect="always" />
    <linearGradient
       inkscape:collect="always"
       xlink:href="#linearGradient3737-5"
       id="linearGradient3188-4"
       gradientUnits="userSpaceOnUse"
       x1="36.357143"
       y1="6"
       x2="36.357143"
       y2="63.893143" />
    <linearGradient
       inkscape:collect="always"
       id="linearGradient3737-5">
      <stop
         style="stop-color:#ffffff;stop-opacity:1;"
         offset="0"
         id="stop3739-8" />
      <stop
         style="stop-color:#ffffff;stop-opacity:0;"
         offset="1"
         id="stop3741-0" />
    </linearGradient>
    <radialGradient
       inkscape:collect="always"
       xlink:href="#linearGradient3737-5"
       id="radialGradient3619-8"
       cx="48"
       cy="90.171875"
       fx="48"
       fy="90.171875"
       r="42"
       gradientTransform="matrix(1.1573129,0,0,0.99590774,-7.551021,0.1971319)"
       gradientUnits="userSpaceOnUse" />
    <linearGradient
       inkscape:collect="always"
       xlink:href="#linearGradient4081"
       id="linearGradient3161"
       gradientUnits="userSpaceOnUse"
       x1="48"
       y1="74"
       x2="48"
       y2="23.990002" />
  </defs>
  <sodipodi:namedview
     id="base"
     pagecolor="#ffffff"
     bordercolor="#666666"
     borderopacity="1.0"
     inkscape:pageopacity="0.0"
     inkscape:pageshadow="2"
     inkscape:zoom="12.49564"
     inkscape:cx="45.855112"
     inkscape:cy="46.42538"
     inkscape:document-units="px"
     inkscape:current-layer="layer3"
     showgrid="true"
     showborder="true"
     inkscape:showpageshadow="false"
     inkscape:window-width="1920"
     inkscape:window-height="1030"
     inkscape:window-x="0"
     inkscape:window-y="25"
     inkscape:window-maximized="1"
     inkscape:snap-global="true">
    <inkscape:grid
       type="xygrid"
       id="grid3732"
       visible="true"
       enabled="true" />
  </sodipodi:namedview>
  <metadata
     id="metadata2413">
    <rdf:RDF>
      <cc:Work
         rdf:about="">
        <dc:format>image/svg+xml</dc:format>
        <dc:type
           rdf:resource="http://purl.org/dc/dcmitype/StillImage" />
        <dc:title />
      </cc:Work>
    </rdf:RDF>
  </metadata>
  <g
     inkscape:groupmode="layer"
     id="layer2"
     inkscape:label="Blur Shadow"
     style="display:none"
     sodipodi:insensitive="true">
    <rect
       style="opacity:0.9;fill:url(#ButtonShadow);fill-opacity:1;fill-rule:nonzero;stroke:none;filter:url(#filter3174)"
       id="rect3745"
       width="86"
       height="85"
       x="5"
       y="7"
       rx="6"
       ry="6"
       clip-path="url(#clipPath3625)" />
  </g>
  <g
     inkscape:groupmode="layer"
     id="layer7"
     inkscape:label="Shadow"
     style="display:inline"
     sodipodi:insensitive="true">
    <path
       style="opacity:0.07999998;fill:url(#linearGradient3216);fill-opacity:1;fill-rule:nonzero;stroke:none;display:inline"
       d="M 12,3.96875 C 6.4889098,3.96875 1.96875,8.4889098 1.96875,14 l 0,71 c 0,5.51109 4.5201597,10.03125 10.03125,10.03125 l 72,0 c 5.51109,0 10.03125,-4.52016 10.03125,-10.03125 l 0,-71 C 94.03125,8.4889097 89.51109,3.96875 84,3.96875 l -72,0 z M 12,6 84,6 c 3.324,0 6,2.676 6,6 l 0,72 c 0,3.324 -2.676,6 -6,6 L 12,90 C 8.676,90 6,87.324 6,84 L 6,12 C 6,8.676 8.676,6 12,6 z"
       id="path3786"
       inkscape:connector-curvature="0" />
    <path
       style="opacity:0.1;fill:url(#linearGradient3780);fill-opacity:1;fill-rule:nonzero;stroke:none;display:inline"
       d="M 12,4.96875 C 7.0283671,4.96875 2.96875,9.0283671 2.96875,14 l 0,71 c 0,4.971633 4.059617,9.03125 9.03125,9.03125 l 72,0 c 4.971633,0 9.03125,-4.059617 9.03125,-9.03125 l 0,-71 C 93.03125,9.028367 88.971633,4.96875 84,4.96875 l -72,0 z M 12,6 84,6 c 3.324,0 6,2.676 6,6 l 0,72 c 0,3.324 -2.676,6 -6,6 L 12,90 C 8.676,90 6,87.324 6,84 L 6,12 C 6,8.676 8.676,6 12,6 z"
       id="path3778"
       inkscape:connector-curvature="0" />
    <path
       style="opacity:0.2;fill:url(#linearGradient3772);fill-opacity:1;fill-rule:nonzero;stroke:none;display:inline"
       d="M 11.1875,6.03125 C 7.159982,6.4419011 4,9.8664375 4,14 l 0,71 c 0,4.409133 3.590867,8 8,8 l 72,0 c 4.409133,0 8,-3.590867 8,-8 L 92,14 C 92,9.8029382 88.741028,6.3539584 84.625,6.03125 87.657886,6.337417 90,8.88375 90,12 l 0,72 c 0,3.324 -2.676,6 -6,6 L 12,90 C 8.676,90 6,87.324 6,84 L 6,12 c 0,-3.11625 2.342114,-5.662583 5.375,-5.96875 -0.06227,0.00488 -0.12563,-0.00631 -0.1875,0 z"
       id="path3770"
       inkscape:connector-curvature="0" />
    <path
       style="opacity:0.3;fill:url(#linearGradient3725-3);fill-opacity:1;fill-rule:nonzero;stroke:none;display:inline"
       d="M 6.4375,9.75 C 5.5380109,10.927446 5,12.397277 5,14 l 0,71 c 0,3.878 3.122,7 7,7 l 72,0 c 3.878,0 7,-3.122 7,-7 L 91,14 C 91,12.397277 90.461989,10.927446 89.5625,9.75 89.841816,10.444095 90,11.203625 90,12 l 0,72 c 0,3.324 -2.676,6 -6,6 L 12,90 C 8.676,90 6,87.324 6,84 L 6,12 C 6,11.203625 6.1581836,10.444095 6.4375,9.75 z"
       id="rect3723"
       inkscape:connector-curvature="0" />
    <path
       style="opacity:0.45;fill:url(#linearGradient3721-4);fill-opacity:1;fill-rule:nonzero;stroke:none;display:inline"
       d="m 6,84 0,1 c 0,3.324 2.676,6 6,6 l 72,0 c 3.324,0 6,-2.676 6,-6 l 0,-1 c 0,3.324 -2.676,6 -6,6 L 12,90 C 8.676,90 6,87.324 6,84 z"
       id="rect3716"
       inkscape:connector-curvature="0" />
  </g>
  <g
     inkscape:label="Button with border"
     inkscape:groupmode="layer"
     id="layer1"
     sodipodi:insensitive="true"
     style="display:none">
    <rect
       style="opacity:0.7;fill:#000000;fill-opacity:1;fill-rule:nonzero;stroke:none"
       id="rect2419"
       width="84"
       height="84"
       x="6"
       y="6"
       rx="6"
       ry="6" />
    <path
       style="opacity:0.07999998;fill:#000000;fill-opacity:1;fill-rule:nonzero;stroke:none"
       d="m 14,10 c -2.216,0 -4,1.784 -4,4 l 0,68 c 0,2.216 1.784,4 4,4 l 68,0 c 2.216,0 4,-1.784 4,-4 l 0,-68 c 0,-2.216 -1.784,-4 -4,-4 l -68,0 z m 0,3.0625 68,0 c 0.578769,0 0.9375,0.358731 0.9375,0.9375 l 0,68 c 0,0.578769 -0.358731,0.9375 -0.9375,0.9375 l -68,0 c -0.578769,0 -0.9375,-0.358731 -0.9375,-0.9375 l 0,-68 c 0,-0.578769 0.358731,-0.9375 0.9375,-0.9375 z"
       id="rect3726"
       inkscape:connector-curvature="0" />
    <path
       style="fill:url(#linearGradient3643);fill-opacity:1;fill-rule:nonzero;stroke:none"
       d="M 12,6 C 8.676,6 6,8.676 6,12 l 0,72 c 0,3.324 2.676,6 6,6 l 72,0 c 3.324,0 6,-2.676 6,-6 L 90,12 C 90,8.676 87.324,6 84,6 L 12,6 z m 2,4 68,0 c 2.216,0 4,1.784 4,4 l 0,68 c 0,2.216 -1.784,4 -4,4 l -68,0 c -2.216,0 -4,-1.784 -4,-4 l 0,-68 c 0,-2.216 1.784,-4 4,-4 z"
       id="rect3629"
       inkscape:connector-curvature="0" />
    <path
       style="fill:url(#linearGradient3188);fill-opacity:1;fill-rule:nonzero;stroke:none"
       d="M 12,6 C 8.676,6 6,8.676 6,12 l 0,2 0,68 0,2 c 0,0.334721 0.04135,0.6507 0.09375,0.96875 0.0487,0.295596 0.09704,0.596915 0.1875,0.875 0.00988,0.03038 0.020892,0.0636 0.03125,0.09375 0.098865,0.287771 0.2348802,0.547452 0.375,0.8125 0.1445918,0.273507 0.3156161,0.535615 0.5,0.78125 0.1843839,0.245635 0.3737765,0.473472 0.59375,0.6875 0.439947,0.428056 0.94291,0.814526 1.5,1.09375 0.278545,0.139612 0.5734731,0.246947 0.875,0.34375 -0.2562018,-0.100222 -0.4867109,-0.236272 -0.71875,-0.375 -0.00741,-0.0044 -0.023866,0.0045 -0.03125,0 -0.031933,-0.0193 -0.062293,-0.04251 -0.09375,-0.0625 -0.120395,-0.0767 -0.2310226,-0.163513 -0.34375,-0.25 -0.1061728,-0.0808 -0.2132809,-0.161112 -0.3125,-0.25 C 8.4783201,88.557317 8.3087904,88.373362 8.15625,88.1875 8.0486711,88.057245 7.9378561,87.922215 7.84375,87.78125 7.818661,87.74287 7.805304,87.69538 7.78125,87.65625 7.716487,87.553218 7.6510225,87.451733 7.59375,87.34375 7.4927417,87.149044 7.3880752,86.928049 7.3125,86.71875 7.30454,86.69694 7.288911,86.6782 7.28125,86.65625 7.2494249,86.5643 7.2454455,86.469419 7.21875,86.375 7.1884177,86.268382 7.1483606,86.171969 7.125,86.0625 7.0521214,85.720988 7,85.364295 7,85 L 7,83 7,15 7,13 C 7,10.218152 9.2181517,8 12,8 l 2,0 68,0 2,0 c 2.781848,0 5,2.218152 5,5 l 0,2 0,68 0,2 c 0,0.364295 -0.05212,0.720988 -0.125,1.0625 -0.04415,0.206893 -0.08838,0.397658 -0.15625,0.59375 -0.0077,0.02195 -0.0233,0.04069 -0.03125,0.0625 -0.06274,0.173739 -0.138383,0.367449 -0.21875,0.53125 -0.04158,0.0828 -0.07904,0.169954 -0.125,0.25 -0.0546,0.09721 -0.126774,0.18835 -0.1875,0.28125 -0.09411,0.140965 -0.204921,0.275995 -0.3125,0.40625 -0.143174,0.17445 -0.303141,0.346998 -0.46875,0.5 -0.01117,0.0102 -0.01998,0.02115 -0.03125,0.03125 -0.138386,0.125556 -0.285091,0.234436 -0.4375,0.34375 -0.102571,0.07315 -0.204318,0.153364 -0.3125,0.21875 -0.0074,0.0045 -0.02384,-0.0044 -0.03125,0 -0.232039,0.138728 -0.462548,0.274778 -0.71875,0.375 0.301527,-0.0968 0.596455,-0.204138 0.875,-0.34375 0.55709,-0.279224 1.060053,-0.665694 1.5,-1.09375 0.219973,-0.214028 0.409366,-0.441865 0.59375,-0.6875 0.184384,-0.245635 0.355408,-0.507743 0.5,-0.78125 0.14012,-0.265048 0.276135,-0.524729 0.375,-0.8125 0.01041,-0.03078 0.02133,-0.06274 0.03125,-0.09375 0.09046,-0.278085 0.1388,-0.579404 0.1875,-0.875 C 89.95865,84.6507 90,84.334721 90,84 l 0,-2 0,-68 0,-2 C 90,8.676 87.324,6 84,6 L 12,6 z"
       id="rect3728"
       inkscape:connector-curvature="0" />
    <path
       id="path3615"
       d="M 12,90 C 8.676,90 6,87.324 6,84 L 6,82 6,14 6,12 c 0,-0.334721 0.04135,-0.6507 0.09375,-0.96875 0.0487,-0.295596 0.09704,-0.596915 0.1875,-0.875 C 6.29113,10.12587 6.302142,10.09265 6.3125,10.0625 6.411365,9.774729 6.5473802,9.515048 6.6875,9.25 6.8320918,8.976493 7.0031161,8.714385 7.1875,8.46875 7.3718839,8.223115 7.5612765,7.995278 7.78125,7.78125 8.221197,7.353194 8.72416,6.966724 9.28125,6.6875 9.559795,6.547888 9.8547231,6.440553 10.15625,6.34375 9.9000482,6.443972 9.6695391,6.580022 9.4375,6.71875 c -0.00741,0.0044 -0.023866,-0.0045 -0.03125,0 -0.031933,0.0193 -0.062293,0.04251 -0.09375,0.0625 -0.120395,0.0767 -0.2310226,0.163513 -0.34375,0.25 -0.1061728,0.0808 -0.2132809,0.161112 -0.3125,0.25 C 8.4783201,7.442683 8.3087904,7.626638 8.15625,7.8125 8.0486711,7.942755 7.9378561,8.077785 7.84375,8.21875 7.818661,8.25713 7.805304,8.30462 7.78125,8.34375 7.716487,8.446782 7.6510225,8.548267 7.59375,8.65625 7.4927417,8.850956 7.3880752,9.071951 7.3125,9.28125 7.30454,9.30306 7.288911,9.3218 7.28125,9.34375 7.2494249,9.4357 7.2454455,9.530581 7.21875,9.625 7.1884177,9.731618 7.1483606,9.828031 7.125,9.9375 7.0521214,10.279012 7,10.635705 7,11 l 0,2 0,68 0,2 c 0,2.781848 2.2181517,5 5,5 l 2,0 68,0 2,0 c 2.781848,0 5,-2.218152 5,-5 l 0,-2 0,-68 0,-2 C 89,10.635705 88.94788,10.279012 88.875,9.9375 88.83085,9.730607 88.78662,9.539842 88.71875,9.34375 88.71105,9.3218 88.69545,9.30306 88.6875,9.28125 88.62476,9.107511 88.549117,8.913801 88.46875,8.75 88.42717,8.6672 88.38971,8.580046 88.34375,8.5 88.28915,8.40279 88.216976,8.31165 88.15625,8.21875 88.06214,8.077785 87.951329,7.942755 87.84375,7.8125 87.700576,7.63805 87.540609,7.465502 87.375,7.3125 87.36383,7.3023 87.35502,7.29135 87.34375,7.28125 87.205364,7.155694 87.058659,7.046814 86.90625,6.9375 86.803679,6.86435 86.701932,6.784136 86.59375,6.71875 c -0.0074,-0.0045 -0.02384,0.0044 -0.03125,0 -0.232039,-0.138728 -0.462548,-0.274778 -0.71875,-0.375 0.301527,0.0968 0.596455,0.204138 0.875,0.34375 0.55709,0.279224 1.060053,0.665694 1.5,1.09375 0.219973,0.214028 0.409366,0.441865 0.59375,0.6875 0.184384,0.245635 0.355408,0.507743 0.5,0.78125 0.14012,0.265048 0.276135,0.524729 0.375,0.8125 0.01041,0.03078 0.02133,0.06274 0.03125,0.09375 0.09046,0.278085 0.1388,0.579404 0.1875,0.875 C 89.95865,11.3493 90,11.665279 90,12 l 0,2 0,68 0,2 c 0,3.324 -2.676,6 -6,6 l -72,0 z"
       style="opacity:0.6;fill:url(#radialGradient3619);fill-opacity:1;fill-rule:nonzero;stroke:none"
       inkscape:connector-curvature="0" />
    <rect
       ry="6"
       rx="6"
       y="106"
       x="6"
       height="84"
       width="84"
       id="rect2841"
       style="fill:url(#linearGradient2843);fill-opacity:1;fill-rule:nonzero;stroke:none" />
    <rect
       ry="4"
       rx="4"
       y="110"
       x="10"
       height="76"
       width="76"
       id="rect3634"
       style="fill:#ff0000;fill-opacity:1;fill-rule:nonzero;stroke:none" />
    <path
       style="font-size:medium;font-style:normal;font-variant:normal;font-weight:normal;font-stretch:normal;text-indent:0;text-align:start;text-decoration:none;line-height:normal;letter-spacing:normal;word-spacing:normal;text-transform:none;direction:ltr;block-progression:tb;writing-mode:lr-tb;text-anchor:start;color:#000000;fill:#000000;fill-opacity:1;stroke:none;stroke-width:2;marker:none;visibility:visible;display:inline;overflow:visible;filter:url(#filter3657);enable-background:accumulate;font-family:Abandoned Bitplane;-inkscape-font-specification:Abandoned Bitplane"
       d="m 14,9 c -2.752703,0 -5,2.247297 -5,5 l 0,68 c 0,2.752703 2.247297,5 5,5 l 68,0 c 2.752703,0 5,-2.247297 5,-5 L 87,14 C 87,11.247297 84.752703,9 82,9 L 14,9 z m 0,2 68,0 c 1.679297,0 3,1.320703 3,3 l 0,68 c 0,1.679297 -1.320703,3 -3,3 l -68,0 c -1.679297,0 -3,-1.320703 -3,-3 l 0,-68 c 0,-1.679297 1.320703,-3 3,-3 z"
       clip-path="url(#clipPath3649)"
       id="rect3647"
       transform="translate(-110,0)"
       inkscape:connector-curvature="0" />
    <path
       style="opacity:0.16000001;fill:#000000;fill-opacity:1;fill-rule:nonzero;stroke:none"
       d="m 14.089286,10 c -2.216,0 -4,1.784 -4,4 l 0,68 c 0,2.216 1.784,4 4,4 l 68,0 c 2.216,0 4,-1.784 4,-4 l 0,-68 c 0,-2.216 -1.784,-4 -4,-4 l -68,0 z m 0,2 68,0 c 1.140301,0 2,0.859699 2,2 l 0,68 c 0,1.140301 -0.859699,2 -2,2 l -68,0 c -1.140301,0 -2,-0.859699 -2,-2 l 0,-68 c 0,-1.140301 0.859699,-2 2,-2 z"
       id="path3709"
       inkscape:connector-curvature="0" />
    <path
       style="opacity:0.36000001;fill:#000000;fill-opacity:1;fill-rule:nonzero;stroke:none"
       d="m 14,10 c -2.216,0 -4,1.784 -4,4 l 0,68 c 0,2.216 1.784,4 4,4 l 68,0 c 2.216,0 4,-1.784 4,-4 l 0,-68 c 0,-2.216 -1.784,-4 -4,-4 l -68,0 z m 0,1 68,0 c 1.673848,0 3,1.326152 3,3 l 0,68 c 0,1.673848 -1.326152,3 -3,3 l -68,0 c -1.673848,0 -3,-1.326152 -3,-3 l 0,-68 c 0,-1.673848 1.326152,-3 3,-3 z"
       id="path3707"
       inkscape:connector-curvature="0" />
  </g>
  <g
     inkscape:groupmode="layer"
     id="layer8"
     inkscape:label="Button"
     style="display:inline">
    <rect
       style="opacity:0.6;fill:#000000;fill-opacity:1;fill-rule:nonzero;stroke:none;display:inline"
       id="rect2419-7"
       width="84"
       height="84"
       x="6"
       y="6"
       rx="6"
       ry="6" />
    <path
       style="opacity:0.01000001;fill:url(#linearGradient3188-4);fill-opacity:1;fill-rule:nonzero;stroke:none;display:inline"
       d="M 12,6 C 8.676,6 6,8.676 6,12 l 0,2 0,68 0,2 c 0,0.334721 0.04135,0.6507 0.09375,0.96875 0.0487,0.295596 0.09704,0.596915 0.1875,0.875 0.00988,0.03038 0.020892,0.0636 0.03125,0.09375 0.098865,0.287771 0.2348802,0.547452 0.375,0.8125 0.1445918,0.273507 0.3156161,0.535615 0.5,0.78125 0.1843839,0.245635 0.3737765,0.473472 0.59375,0.6875 0.439947,0.428056 0.94291,0.814526 1.5,1.09375 0.278545,0.139612 0.5734731,0.246947 0.875,0.34375 -0.2562018,-0.100222 -0.4867109,-0.236272 -0.71875,-0.375 -0.00741,-0.0044 -0.023866,0.0045 -0.03125,0 -0.031933,-0.0193 -0.062293,-0.04251 -0.09375,-0.0625 -0.120395,-0.0767 -0.2310226,-0.163513 -0.34375,-0.25 -0.1061728,-0.0808 -0.2132809,-0.161112 -0.3125,-0.25 C 8.4783201,88.557317 8.3087904,88.373362 8.15625,88.1875 8.0486711,88.057245 7.9378561,87.922215 7.84375,87.78125 7.818661,87.74287 7.805304,87.69538 7.78125,87.65625 7.716487,87.553218 7.6510225,87.451733 7.59375,87.34375 7.4927417,87.149044 7.3880752,86.928049 7.3125,86.71875 7.30454,86.69694 7.288911,86.6782 7.28125,86.65625 7.2494249,86.5643 7.2454455,86.469419 7.21875,86.375 7.1884177,86.268382 7.1483606,86.171969 7.125,86.0625 7.0521214,85.720988 7,85.364295 7,85 L 7,83 7,15 7,13 C 7,10.218152 9.2181517,8 12,8 l 2,0 68,0 2,0 c 2.781848,0 5,2.218152 5,5 l 0,2 0,68 0,2 c 0,0.364295 -0.05212,0.720988 -0.125,1.0625 -0.04415,0.206893 -0.08838,0.397658 -0.15625,0.59375 -0.0077,0.02195 -0.0233,0.04069 -0.03125,0.0625 -0.06274,0.173739 -0.138383,0.367449 -0.21875,0.53125 -0.04158,0.0828 -0.07904,0.169954 -0.125,0.25 -0.0546,0.09721 -0.126774,0.18835 -0.1875,0.28125 -0.09411,0.140965 -0.204921,0.275995 -0.3125,0.40625 -0.143174,0.17445 -0.303141,0.346998 -0.46875,0.5 -0.01117,0.0102 -0.01998,0.02115 -0.03125,0.03125 -0.138386,0.125556 -0.285091,0.234436 -0.4375,0.34375 -0.102571,0.07315 -0.204318,0.153364 -0.3125,0.21875 -0.0074,0.0045 -0.02384,-0.0044 -0.03125,0 -0.232039,0.138728 -0.462548,0.274778 -0.71875,0.375 0.301527,-0.0968 0.596455,-0.204138 0.875,-0.34375 0.55709,-0.279224 1.060053,-0.665694 1.5,-1.09375 0.219973,-0.214028 0.409366,-0.441865 0.59375,-0.6875 0.184384,-0.245635 0.355408,-0.507743 0.5,-0.78125 0.14012,-0.265048 0.276135,-0.524729 0.375,-0.8125 0.01041,-0.03078 0.02133,-0.06274 0.03125,-0.09375 0.09046,-0.278085 0.1388,-0.579404 0.1875,-0.875 C 89.95865,84.6507 90,84.334721 90,84 l 0,-2 0,-68 0,-2 C 90,8.676 87.324,6 84,6 L 12,6 z"
       id="rect3728-0"
       inkscape:connector-curvature="0" />
    <path
       id="path3615-8"
       d="M 12,90 C 8.676,90 6,87.324 6,84 L 6,82 6,14 6,12 c 0,-0.334721 0.04135,-0.6507 0.09375,-0.96875 0.0487,-0.295596 0.09704,-0.596915 0.1875,-0.875 C 6.29113,10.12587 6.302142,10.09265 6.3125,10.0625 6.411365,9.774729 6.5473802,9.515048 6.6875,9.25 6.8320918,8.976493 7.0031161,8.714385 7.1875,8.46875 7.3718839,8.223115 7.5612765,7.995278 7.78125,7.78125 8.221197,7.353194 8.72416,6.966724 9.28125,6.6875 9.559795,6.547888 9.8547231,6.440553 10.15625,6.34375 9.9000482,6.443972 9.6695391,6.580022 9.4375,6.71875 c -0.00741,0.0044 -0.023866,-0.0045 -0.03125,0 -0.031933,0.0193 -0.062293,0.04251 -0.09375,0.0625 -0.120395,0.0767 -0.2310226,0.163513 -0.34375,0.25 -0.1061728,0.0808 -0.2132809,0.161112 -0.3125,0.25 C 8.4783201,7.442683 8.3087904,7.626638 8.15625,7.8125 8.0486711,7.942755 7.9378561,8.077785 7.84375,8.21875 7.818661,8.25713 7.805304,8.30462 7.78125,8.34375 7.716487,8.446782 7.6510225,8.548267 7.59375,8.65625 7.4927417,8.850956 7.3880752,9.071951 7.3125,9.28125 7.30454,9.30306 7.288911,9.3218 7.28125,9.34375 7.2494249,9.4357 7.2454455,9.530581 7.21875,9.625 7.1884177,9.731618 7.1483606,9.828031 7.125,9.9375 7.0521214,10.279012 7,10.635705 7,11 l 0,2 0,68 0,2 c 0,2.781848 2.2181517,5 5,5 l 2,0 68,0 2,0 c 2.781848,0 5,-2.218152 5,-5 l 0,-2 0,-68 0,-2 C 89,10.635705 88.94788,10.279012 88.875,9.9375 88.83085,9.730607 88.78662,9.539842 88.71875,9.34375 88.71105,9.3218 88.69545,9.30306 88.6875,9.28125 88.62476,9.107511 88.549117,8.913801 88.46875,8.75 88.42717,8.6672 88.38971,8.580046 88.34375,8.5 88.28915,8.40279 88.216976,8.31165 88.15625,8.21875 88.06214,8.077785 87.951329,7.942755 87.84375,7.8125 87.700576,7.63805 87.540609,7.465502 87.375,7.3125 87.36383,7.3023 87.35502,7.29135 87.34375,7.28125 87.205364,7.155694 87.058659,7.046814 86.90625,6.9375 86.803679,6.86435 86.701932,6.784136 86.59375,6.71875 c -0.0074,-0.0045 -0.02384,0.0044 -0.03125,0 -0.232039,-0.138728 -0.462548,-0.274778 -0.71875,-0.375 0.301527,0.0968 0.596455,0.204138 0.875,0.34375 0.55709,0.279224 1.060053,0.665694 1.5,1.09375 0.219973,0.214028 0.409366,0.441865 0.59375,0.6875 0.184384,0.245635 0.355408,0.507743 0.5,0.78125 0.14012,0.265048 0.276135,0.524729 0.375,0.8125 0.01041,0.03078 0.02133,0.06274 0.03125,0.09375 0.09046,0.278085 0.1388,0.579404 0.1875,0.875 C 89.95865,11.3493 90,11.665279 90,12 l 0,2 0,68 0,2 c 0,3.324 -2.676,6 -6,6 l -72,0 z"
       style="opacity:0.15;fill:url(#radialGradient3619-8);fill-opacity:1;fill-rule:nonzero;stroke:none;display:inline"
       inkscape:connector-curvature="0" />
  </g>
  <g
     inkscape:groupmode="layer"
     id="layer3"
     inkscape:label="Symbol"
     style="display:inline">
    <path
       sodipodi:type="inkscape:offset"
       inkscape:radius="1.0193825"
       inkscape:original="M 29 24 C 27.896954 24 26.837503 24.430046 26.0625 25.15625 C 25.330845 25.841835 24.916283 26.889606 25.0625 28 L 25 28 L 25 33 A 0.98998956 0.98998956 0 0 0 26 34 L 28 34 C 25.252723 34 23 36.252723 23 39 L 23 63 C 23 65.747277 25.252723 68 28 68 L 36 68 L 36 71 C 36 73.747277 38.252723 76 41 76 L 63 76 C 65.747277 76 68 73.747277 68 71 L 68 68 C 70.747277 68 73 65.747277 73 63 L 73 39 C 73 36.310232 70.897802 34 68 34 L 70 34 A 0.98998956 0.98998956 0 0 0 71 33 C 71 30.252723 68.747277 28 66 28 L 44 28 C 44 25.806723 42.193277 24 40 24 L 29 24 z M 44.5 44 L 59.5 44 C 59.799723 44 60 44.200277 60 44.5 L 60 67.5 C 60 67.799723 59.799723 68 59.5 68 L 44.5 68 C 44.200277 68 44 67.799723 44 67.5 L 44 44.5 C 44 44.200277 44.200277 44 44.5 44 z "
       style="opacity:0.1;color:#000000;fill:#000000;fill-opacity:1;fill-rule:nonzero;stroke:none;stroke-width:1;marker:none;visibility:visible;display:inline;overflow:visible;enable-background:accumulate"
       id="path3960"
       d="m 29,22.96875 c -1.367998,0 -2.65828,0.53165 -3.625,1.4375 -0.815521,0.76417 -1.222243,1.877896 -1.25,3.0625 A 1.0194844,1.0194844 0 0 0 23.96875,28 l 0,5 c 10e-6,-9.74e-4 0.03134,0.18847 0.03125,0.1875 -8.7e-5,-9.7e-4 0.03143,0.188457 0.03125,0.1875 -1.83e-4,-9.57e-4 0.03153,0.219684 0.03125,0.21875 -2.77e-4,-9.34e-4 0.06287,0.188402 0.0625,0.1875 -3.68e-4,-9.02e-4 0.09421,0.157111 0.09375,0.15625 -4.56e-4,-8.61e-4 0.09429,0.188311 0.09375,0.1875 -5.39e-4,-8.11e-4 0.125617,0.157004 0.125,0.15625 -1.455995,1.102497 -2.46875,2.7672 -2.46875,4.71875 l 0,24 c 0,3.304529 2.726721,6.03125 6.03125,6.03125 l 6.96875,0 0,1.96875 c 0,3.304529 2.726721,6.03125 6.03125,6.03125 l 22,0 c 3.304529,0 6.03125,-2.726721 6.03125,-6.03125 l 0,-2.1875 c 2.802812,-0.508578 5,-2.87138 5,-5.8125 l 0,-24 c 0,-1.924027 -0.994261,-3.602668 -2.46875,-4.71875 -6.17e-4,7.54e-4 0.125539,-0.157061 0.125,-0.15625 -5.39e-4,8.11e-4 0.09421,-0.188361 0.09375,-0.1875 -4.56e-4,8.61e-4 0.09412,-0.157152 0.09375,-0.15625 -3.68e-4,9.02e-4 0.06278,-0.188434 0.0625,-0.1875 -2.77e-4,9.34e-4 0.03143,-0.219707 0.03125,-0.21875 -1.83e-4,9.57e-4 0.03134,-0.18847 0.03125,-0.1875 -8.7e-5,9.7e-4 0.03124,-0.188474 0.03125,-0.1875 0,-3.304529 -2.726721,-6.03125 -6.03125,-6.03125 l -21.1875,0 c -0.495748,-2.246873 -2.425927,-4 -4.8125,-4 l -11,0 z m 16.03125,22.0625 13.9375,0 0,21.9375 -13.9375,0 0,-21.9375 z" />
    <path
       sodipodi:type="inkscape:offset"
       inkscape:radius="0.98989058"
       inkscape:original="M 29 25 C 27.338 25 25.674055 26.370275 26 28 L 26 33 L 70 33 C 70 30.784 68.216 29 66 29 L 43 29 L 43 28 C 43 26.338 41.662 25 40 25 L 29 25 z M 28 35 C 25.784 35 24 36.784 24 39 L 24 63 C 24 65.216 25.784 67 28 67 L 37 67 L 37 71 C 37 73.216 38.784 75 41 75 L 63 75 C 65.216 75 67 73.216 67 71 L 67 67 L 68 67 C 70.216 67 72 65.216 72 63 L 72 39 C 72 36.784 70.409112 35 68 35 L 63 35 L 41 35 L 28 35 z M 44.5 43 L 59.5 43 C 60.331 43 61 43.669 61 44.5 L 61 67.5 C 61 68.331 60.331 69 59.5 69 L 44.5 69 C 43.669 69 43 68.331 43 67.5 L 43 44.5 C 43 43.669 43.669 43 44.5 43 z "
       style="opacity:0.15;color:#000000;fill:#000000;fill-opacity:1;fill-rule:nonzero;stroke:none;stroke-width:1;marker:none;visibility:visible;display:inline;overflow:visible;enable-background:accumulate"
       id="path3956"
       d="m 29,24 c -1.103046,0 -2.162497,0.430046 -2.9375,1.15625 -0.731655,0.685585 -1.146217,1.733356 -1,2.84375 L 25,28 l 0,5 a 0.98998956,0.98998956 0 0 0 1,1 l 2,0 c -2.747277,0 -5,2.252723 -5,5 l 0,24 c 0,2.747277 2.252723,5 5,5 l 8,0 0,3 c 0,2.747277 2.252723,5 5,5 l 22,0 c 2.747277,0 5,-2.252723 5,-5 l 0,-3 c 2.747277,0 5,-2.252723 5,-5 l 0,-24 c 0,-2.689768 -2.102198,-5 -5,-5 l 2,0 a 0.98998956,0.98998956 0 0 0 1,-1 c 0,-2.747277 -2.252723,-5 -5,-5 l -22,0 c 0,-2.193277 -1.806723,-4 -4,-4 l -11,0 z m 15.5,20 15,0 c 0.299723,0 0.5,0.200277 0.5,0.5 l 0,23 c 0,0.299723 -0.200277,0.5 -0.5,0.5 l -15,0 C 44.200277,68 44,67.799723 44,67.5 l 0,-23 C 44,44.200277 44.200277,44 44.5,44 z" />
    <path
       id="path3950"
       d="m 29,25 c -1.662,0 -3.325945,1.370275 -3,3 l 0,5 44,0 c 0,-2.216 -1.784,-4 -4,-4 l -23,0 0,-1 c 0,-1.662 -1.338,-3 -3,-3 l -11,0 z m -1,10 c -2.216,0 -4,1.784 -4,4 l 0,24 c 0,2.216 1.784,4 4,4 l 9,0 0,4 c 0,2.216 1.784,4 4,4 l 22,0 c 2.216,0 4,-1.784 4,-4 l 0,-4 1,0 c 2.216,0 4,-1.784 4,-4 l 0,-24 c 0,-2.216 -1.590888,-4 -4,-4 l -5,0 -22,0 -13,0 z m 16.5,8 15,0 c 0.831,0 1.5,0.669 1.5,1.5 l 0,23 c 0,0.831 -0.669,1.5 -1.5,1.5 l -15,0 C 43.669,69 43,68.331 43,67.5 l 0,-23 C 43,43.669 43.669,43 44.5,43 z"
       style="color:#000000;fill:#000000;fill-opacity:1;fill-rule:nonzero;stroke:none;stroke-width:1;marker:none;visibility:visible;display:inline;overflow:visible;enable-background:accumulate;opacity:0.3"
       inkscape:connector-curvature="0" />
    <path
       sodipodi:type="inkscape:offset"
       inkscape:radius="0.82578319"
       inkscape:original="M 48 29.84375 C 37.434124 29.84375 28.84375 38.434124 28.84375 49 C 28.84375 59.565874 37.434123 68.15625 48 68.15625 C 55.503532 68.15625 61.987145 63.829832 65.125 57.53125 A 1.1642597 1.1642597 0 0 0 64.09375 55.84375 L 56.875 55.84375 A 1.1642597 1.1642597 0 0 0 56 56.21875 C 54.018333 58.435677 51.203441 59.84375 48 59.84375 C 42.001733 59.84375 37.15625 54.998267 37.15625 49 C 37.15625 43.001733 42.001733 38.15625 48 38.15625 C 51.203441 38.15625 54.018333 39.564323 56 41.78125 A 1.1642597 1.1642597 0 0 0 56.875 42.15625 L 64.09375 42.15625 A 1.1642597 1.1642597 0 0 0 65.125 40.46875 C 61.987145 34.170168 55.503532 29.84375 48 29.84375 z M 67.8125 39.84375 A 1.1642597 1.1642597 0 0 0 66.8125 41 L 66.8125 43.84375 L 52 43.84375 A 1.1642597 1.1642597 0 0 0 50.84375 45 L 50.84375 53 A 1.1642597 1.1642597 0 0 0 52 54.15625 L 66.8125 54.15625 L 66.8125 57 A 1.1642597 1.1642597 0 0 0 68.6875 57.90625 L 78.6875 49.875 A 1.1642597 1.1642597 0 0 0 78.6875 48.0625 L 68.6875 40.09375 A 1.1642597 1.1642597 0 0 0 67.8125 39.84375 z "
       style="opacity:0.1;fill:#000000;fill-opacity:1;stroke:none;display:inline"
       id="path3727"
       d="m 48,29.03125 c -11.013467,0 -19.96875,8.955283 -19.96875,19.96875 0,11.013465 8.955282,19.96875 19.96875,19.96875 7.820954,0 14.601995,-4.492633 17.875,-11.0625 0.0032,-0.0064 0.02845,-0.118417 0.03125,-0.125 0.0028,-0.0066 0.06012,-0.118253 0.0625,-0.125 0.0024,-0.0067 0.0293,-0.08687 0.03125,-0.09375 0.0019,-0.0069 0.02974,-0.118006 0.03125,-0.125 0.0087,0.03386 0.02944,0.118959 0.03125,0.125 0.0022,0.0075 0.05975,0.117693 0.0625,0.125 0.0027,0.0073 0.028,0.1179 0.03125,0.125 0.0032,0.0071 0.05877,0.118142 0.0625,0.125 0.0037,0.0069 0.08956,0.118416 0.09375,0.125 0.0042,0.0066 0.05786,0.08747 0.0625,0.09375 0.0046,0.0063 0.08869,0.119057 0.09375,0.125 0.0051,0.0059 0.08829,0.08817 0.09375,0.09375 0.0055,0.0056 0.08792,0.08856 0.09375,0.09375 0.0058,0.0052 0.08757,0.08898 0.09375,0.09375 0.0062,0.0048 0.118508,0.05817 0.125,0.0625 0.0065,0.0043 0.118223,0.08987 0.125,0.09375 0.0068,0.0039 0.117972,0.0591 0.125,0.0625 0.007,0.0034 0.117754,0.0596 0.125,0.0625 0.0072,0.0029 0.11757,0.02886 0.125,0.03125 0.0074,0.0024 0.117423,0.02937 0.125,0.03125 0.0076,0.0019 0.117311,0.0299 0.125,0.03125 0.0077,0.0013 0.148486,0.03044 0.15625,0.03125 0.0078,8.13e-4 0.117199,-2.74e-4 0.125,0 0.0078,2.74e-4 0.117198,2.66e-4 0.125,0 0.0078,-2.66e-4 0.148486,8.05e-4 0.15625,0 0.0078,-8.05e-4 0.11731,-0.02991 0.125,-0.03125 0.0077,-0.0013 0.117421,-0.02938 0.125,-0.03125 0.0076,-0.0019 0.148818,-0.02886 0.15625,-0.03125 0.0074,-0.0024 0.117751,-0.02835 0.125,-0.03125 0.0072,-0.0029 0.117968,-0.05911 0.125,-0.0625 0.007,-0.0034 0.11822,-0.05863 0.125,-0.0625 0.0068,-0.0039 0.118503,-0.08942 0.125,-0.09375 0.0065,-0.0043 0.08757,-0.05773 0.09375,-0.0625 a 0.82586577,0.82586577 0 0 0 0.03125,0 l 10,-8.03125 c 0.0049,-0.0039 0.05783,-0.08953 0.0625,-0.09375 0.0047,-0.0042 0.08932,-0.05803 0.09375,-0.0625 0.0044,-0.0045 0.05833,-0.08904 0.0625,-0.09375 0.0042,-0.0047 0.08985,-0.08882 0.09375,-0.09375 0.0039,-0.0049 0.05888,-0.05736 0.0625,-0.0625 0.0036,-0.0051 0.05917,-0.08841 0.0625,-0.09375 0.0033,-0.0053 0.02822,-0.08823 0.03125,-0.09375 0.003,-0.0055 0.05979,-0.119325 0.0625,-0.125 0.0027,-0.0057 0.06011,-0.08793 0.0625,-0.09375 0.0024,-0.0058 0.02918,-0.08781 0.03125,-0.09375 0.0021,-0.0059 0.02952,-0.0877 0.03125,-0.09375 0.0017,-0.006 0.02986,-0.118865 0.03125,-0.125 0.0014,-0.0061 -0.001,-0.08755 0,-0.09375 0.001,-0.0062 0.03055,-0.118748 0.03125,-0.125 7e-4,-0.0063 -3.51e-4,-0.08747 0,-0.09375 3.51e-4,-0.0063 0,-0.118709 0,-0.125 0,-0.0063 3.51e-4,-0.118719 0,-0.125 -3.51e-4,-0.0063 7e-4,-0.0875 0,-0.09375 -7e-4,-0.0063 -0.0302,-0.118797 -0.03125,-0.125 -0.001,-0.0062 0.0014,-0.08761 0,-0.09375 -0.0014,-0.0061 -0.02952,-0.118952 -0.03125,-0.125 -0.0017,-0.006 -0.02918,-0.08781 -0.03125,-0.09375 -0.0021,-0.0059 -0.02886,-0.08793 -0.03125,-0.09375 -0.0024,-0.0058 -0.05979,-0.08808 -0.0625,-0.09375 -0.0027,-0.0057 -0.05947,-0.119485 -0.0625,-0.125 -0.003,-0.0055 -0.02792,-0.08841 -0.03125,-0.09375 -0.0033,-0.0053 -0.05888,-0.08861 -0.0625,-0.09375 -0.0036,-0.0051 -0.0586,-0.05757 -0.0625,-0.0625 -0.0039,-0.0049 -0.08958,-0.08904 -0.09375,-0.09375 -0.0042,-0.0047 -0.05807,-0.08928 -0.0625,-0.09375 -0.0044,-0.0045 -0.08908,-0.05828 -0.09375,-0.0625 -0.0047,-0.0042 -0.0576,-0.0898 -0.0625,-0.09375 a 0.82586577,0.82586577 0 0 0 -0.03125,0 L 69.21875,39.4375 c -0.0013,-0.0011 -0.02163,0.0074 -0.03125,0 -0.02245,-0.01728 -0.0593,-0.02892 -0.0625,-0.03125 -0.0046,-0.0033 -0.08901,-0.0594 -0.09375,-0.0625 -0.0047,-0.0031 -0.05761,-0.05964 -0.0625,-0.0625 -0.0049,-0.0029 -0.08872,-0.05989 -0.09375,-0.0625 -0.005,-0.0026 -0.0886,-0.02889 -0.09375,-0.03125 -0.0052,-0.0024 -0.08849,-0.02916 -0.09375,-0.03125 -0.0053,-0.0021 -0.08839,-0.02942 -0.09375,-0.03125 -0.0054,-0.0018 -0.08831,-0.02969 -0.09375,-0.03125 -0.0054,-0.0016 -0.08823,-0.02997 -0.09375,-0.03125 -0.0055,-0.0013 -0.08818,-0.03025 -0.09375,-0.03125 -0.0056,-0.001 -0.08813,7.21e-4 -0.09375,0 -0.0056,-7.21e-4 -0.0881,-0.03081 -0.09375,-0.03125 -0.0056,-4.39e-4 -0.119339,1.55e-4 -0.125,0 -0.0057,-1.55e-4 -0.08809,-1.29e-4 -0.09375,0 -0.0057,1.29e-4 -0.0881,-4.13e-4 -0.09375,0 -0.0056,4.13e-4 -0.08813,0.03055 -0.09375,0.03125 a 0.82586577,0.82586577 0 0 0 -0.03125,0 c -0.01,0.0014 -0.146418,0.02894 -0.15625,0.03125 -0.0098,0.0023 -0.177914,0.02807 -0.1875,0.03125 -0.0096,0.0032 -0.146987,0.05847 -0.15625,0.0625 -0.0093,0.004 -0.147384,0.08891 -0.15625,0.09375 -0.0089,0.0048 -0.147852,0.08814 -0.15625,0.09375 -0.0084,0.0056 -0.148388,0.08741 -0.15625,0.09375 -0.0079,0.0063 -0.117736,0.117982 -0.125,0.125 -0.0073,0.007 -0.118393,0.11736 -0.125,0.125 -0.0066,0.0076 -0.08785,0.14805 -0.09375,0.15625 -0.0059,0.0082 -0.119859,0.116306 -0.125,0.125 -0.0051,0.0087 -0.05816,0.178381 -0.0625,0.1875 -0.0043,0.0091 -0.05899,0.146779 -0.0625,0.15625 -0.0035,0.0095 -0.05985,0.146503 -0.0625,0.15625 -0.0014,0.005 -0.02182,0.05169 -0.03125,0.09375 -0.0015,-0.007 -0.0293,-0.118115 -0.03125,-0.125 -0.0019,-0.0069 -0.02887,-0.087 -0.03125,-0.09375 -0.0024,-0.0067 -0.0597,-0.118417 -0.0625,-0.125 -0.0028,-0.0066 -0.02803,-0.118608 -0.03125,-0.125 C 62.601995,33.523883 55.820954,29.03125 48,29.03125 z m 0,9.9375 c 2.961459,0 5.536494,1.31823 7.375,3.375 a 0.82586577,0.82586577 0 0 0 0.03125,0 c 0.004,0.0044 0.05825,0.05835 0.0625,0.0625 0.0042,0.0042 0.05804,0.08983 0.0625,0.09375 0.0045,0.0039 0.08909,0.05882 0.09375,0.0625 0.0047,0.0037 0.0889,0.05907 0.09375,0.0625 0.0048,0.0034 0.05748,0.05933 0.0625,0.0625 0.005,0.0032 0.08857,0.02835 0.09375,0.03125 0.0052,0.0029 0.08842,0.05988 0.09375,0.0625 0.0053,0.0026 0.08829,0.02891 0.09375,0.03125 0.0055,0.0023 0.08817,0.06045 0.09375,0.0625 0.0056,0.002 0.119325,0.0295 0.125,0.03125 0.0057,0.0018 0.08799,-0.0015 0.09375,0 0.0058,0.0015 0.08792,0.0301 0.09375,0.03125 0.0058,0.0011 0.08787,0.03041 0.09375,0.03125 0.0059,8.39e-4 0.119084,-5.28e-4 0.125,0 0.0059,5.28e-4 0.08781,-2.16e-4 0.09375,0 0.0059,2.16e-4 0.08781,9.7e-5 0.09375,0 l 7.21875,0 c 0.0072,-5.4e-5 0.117863,5.07e-4 0.125,0 0.0071,-5.07e-4 0.117909,9.59e-4 0.125,0 0.0071,-9.59e-4 0.117984,-0.02984 0.125,-0.03125 0.007,-0.0014 0.118088,-0.0294 0.125,-0.03125 0.0069,-0.0018 0.118219,-0.02897 0.125,-0.03125 0.0068,-0.0023 0.118377,-0.02854 0.125,-0.03125 0.0066,-0.0027 0.118562,-0.05938 0.125,-0.0625 0.0064,-0.0031 0.08752,-0.05898 0.09375,-0.0625 0.0062,-0.0035 0.119008,-0.05859 0.125,-0.0625 0.006,-0.0039 0.08802,-0.05822 0.09375,-0.0625 0.0057,-0.0043 0.0883,-0.08911 0.09375,-0.09375 0.0054,-0.0046 0.08861,-0.05753 0.09375,-0.0625 0.0051,-0.005 0.08893,-0.08846 0.09375,-0.09375 0.0048,-0.0053 0.05803,-0.08817 0.0625,-0.09375 0.0045,-0.0056 0.08964,-0.119143 0.09375,-0.125 0.0041,-0.0059 0.05877,-0.08765 0.0625,-0.09375 0.0037,-0.0061 0.05916,-0.11867 0.0625,-0.125 0.0033,-0.0063 0.05957,-0.08722 0.0625,-0.09375 0.0029,-0.0065 0.02874,-0.118299 0.03125,-0.125 0.0025,-0.0067 0.06042,-0.118154 0.0625,-0.125 l 0,1.46875 -14,0 c -0.0055,3.8e-5 -0.08827,-3.05e-4 -0.09375,0 -0.0055,3.05e-4 -0.08829,-5.71e-4 -0.09375,0 -0.0055,5.71e-4 -0.08832,-8.36e-4 -0.09375,0 -0.0054,8.36e-4 -0.08837,0.03015 -0.09375,0.03125 -0.0054,0.0011 -0.119681,0.02989 -0.125,0.03125 -0.0053,0.0014 -0.05725,-0.0016 -0.0625,0 -0.0052,0.0016 -0.08859,0.02938 -0.09375,0.03125 -0.0052,0.0019 -0.08868,0.06038 -0.09375,0.0625 -0.0051,0.0021 -0.08879,0.02889 -0.09375,0.03125 -0.005,0.0024 -0.08892,0.02865 -0.09375,0.03125 -0.0048,0.0026 -0.08905,0.05967 -0.09375,0.0625 -0.0047,0.0028 -0.05794,0.02819 -0.0625,0.03125 -0.0046,0.0031 -0.08935,0.05922 -0.09375,0.0625 -0.0044,0.0033 -0.05826,0.05901 -0.0625,0.0625 -0.0042,0.0035 -0.08968,0.05881 -0.09375,0.0625 -0.0041,0.0037 -0.05862,0.05862 -0.0625,0.0625 -0.0039,0.0039 -0.05881,0.05843 -0.0625,0.0625 -0.0037,0.0041 -0.05901,0.08951 -0.0625,0.09375 -0.0035,0.0042 -0.05922,0.0581 -0.0625,0.0625 -0.0033,0.0044 -0.05944,0.08919 -0.0625,0.09375 -0.0031,0.0046 -0.02842,0.0578 -0.03125,0.0625 -0.0028,0.0047 -0.0599,0.08892 -0.0625,0.09375 -0.0026,0.0048 -0.02889,0.08879 -0.03125,0.09375 -0.0024,0.005 -0.02913,0.08868 -0.03125,0.09375 -0.0021,0.0051 -0.06063,0.08859 -0.0625,0.09375 -0.0019,0.0052 -0.02963,0.0885 -0.03125,0.09375 -0.0016,0.0052 0.0014,0.05718 0,0.0625 -0.0014,0.0053 -0.03015,0.119621 -0.03125,0.125 -0.0011,0.0054 -0.03041,0.08832 -0.03125,0.09375 -8.36e-4,0.0054 5.71e-4,0.08829 0,0.09375 -5.71e-4,0.0055 3.05e-4,0.08827 0,0.09375 -3.05e-4,0.0055 3.8e-5,0.08826 0,0.09375 l 0,8 c 3.8e-5,0.0055 -3.05e-4,0.08827 0,0.09375 3.05e-4,0.0055 -5.71e-4,0.08829 0,0.09375 5.71e-4,0.0055 -8.36e-4,0.08832 0,0.09375 8.36e-4,0.0054 0.03015,0.08837 0.03125,0.09375 0.0011,0.0054 0.02989,0.119681 0.03125,0.125 0.0014,0.0053 -0.0016,0.05725 0,0.0625 0.0016,0.0052 0.02938,0.08859 0.03125,0.09375 0.0019,0.0052 0.06038,0.08868 0.0625,0.09375 0.0021,0.0051 0.02889,0.08879 0.03125,0.09375 0.0024,0.005 0.02865,0.08892 0.03125,0.09375 0.0026,0.0048 0.05967,0.08905 0.0625,0.09375 0.0028,0.0047 0.02819,0.05794 0.03125,0.0625 0.0031,0.0046 0.05922,0.08935 0.0625,0.09375 0.0033,0.0044 0.05901,0.05826 0.0625,0.0625 0.0035,0.0042 0.05881,0.08968 0.0625,0.09375 0.0037,0.0041 0.05862,0.05862 0.0625,0.0625 0.0039,0.0039 0.05843,0.05881 0.0625,0.0625 0.0041,0.0037 0.08951,0.05901 0.09375,0.0625 0.0042,0.0035 0.0581,0.05922 0.0625,0.0625 0.0044,0.0033 0.08919,0.05944 0.09375,0.0625 0.0046,0.0031 0.0578,0.02842 0.0625,0.03125 0.0047,0.0028 0.08892,0.0599 0.09375,0.0625 0.0048,0.0026 0.08879,0.02889 0.09375,0.03125 0.005,0.0024 0.08868,0.02913 0.09375,0.03125 0.0051,0.0021 0.08859,0.06063 0.09375,0.0625 0.0052,0.0019 0.0885,0.02963 0.09375,0.03125 0.0052,0.0016 0.05718,-0.0014 0.0625,0 0.0053,0.0014 0.119621,0.03015 0.125,0.03125 0.0054,0.0011 0.08832,0.03041 0.09375,0.03125 0.0054,8.36e-4 0.08829,-5.71e-4 0.09375,0 0.0055,5.71e-4 0.08827,-3.05e-4 0.09375,0 0.0055,3.05e-4 0.08826,-3.8e-5 0.09375,0 l 14,0 0,1.46875 c -0.0021,-0.0068 -0.05999,-0.118299 -0.0625,-0.125 -0.0025,-0.0067 -0.02832,-0.118472 -0.03125,-0.125 -0.0029,-0.0065 -0.05916,-0.08742 -0.0625,-0.09375 -0.0033,-0.0063 -0.05877,-0.118895 -0.0625,-0.125 -0.0037,-0.0061 -0.05839,-0.08789 -0.0625,-0.09375 -0.0041,-0.0059 -0.08928,-0.119416 -0.09375,-0.125 -0.0045,-0.0056 -0.05768,-0.08846 -0.0625,-0.09375 -0.0048,-0.0053 -0.08861,-0.08878 -0.09375,-0.09375 -0.0051,-0.005 -0.0883,-0.05786 -0.09375,-0.0625 -0.0054,-0.0046 -0.08802,-0.08947 -0.09375,-0.09375 -0.0057,-0.0043 -0.08776,-0.05859 -0.09375,-0.0625 -0.006,-0.0039 -0.118773,-0.05898 -0.125,-0.0625 -0.0062,-0.0035 -0.08731,-0.05938 -0.09375,-0.0625 -0.0064,-0.0031 -0.118377,-0.05979 -0.125,-0.0625 -0.0066,-0.0027 -0.118219,-0.02897 -0.125,-0.03125 -0.0068,-0.0023 -0.118088,-0.0294 -0.125,-0.03125 -0.0069,-0.0018 -0.117984,-0.02984 -0.125,-0.03125 -0.007,-0.0014 -0.117909,-0.03029 -0.125,-0.03125 -0.0071,-9.59e-4 -0.117863,5.07e-4 -0.125,0 -0.0071,-5.07e-4 -0.117845,5.4e-5 -0.125,0 l -7.21875,0 c -0.0059,-9.7e-5 -0.08781,-2.16e-4 -0.09375,0 -0.0059,2.16e-4 -0.08783,-5.28e-4 -0.09375,0 -0.0059,5.28e-4 -0.11912,-8.39e-4 -0.125,0 -0.0059,8.39e-4 -0.08792,0.0301 -0.09375,0.03125 -0.0058,0.0011 -0.08799,0.0298 -0.09375,0.03125 -0.0058,0.0015 -0.08808,-0.0018 -0.09375,0 -0.0057,0.0018 -0.119425,0.0292 -0.125,0.03125 -0.0056,0.002 -0.08829,0.06016 -0.09375,0.0625 -0.0055,0.0023 -0.08842,0.02863 -0.09375,0.03125 -0.0053,0.0026 -0.08857,0.0596 -0.09375,0.0625 -0.0052,0.0029 -0.08873,0.02808 -0.09375,0.03125 -0.005,0.0032 -0.05765,0.05907 -0.0625,0.0625 -0.0048,0.0034 -0.08909,0.05882 -0.09375,0.0625 -0.0047,0.0037 -0.08929,0.05858 -0.09375,0.0625 -0.0045,0.0039 -0.05825,0.0896 -0.0625,0.09375 -0.0042,0.0042 -0.05847,0.05813 -0.0625,0.0625 a 0.82586577,0.82586577 0 0 0 -0.03125,0 c -1.838506,2.05677 -4.413541,3.375 -7.375,3.375 -5.553548,0 -10.03125,-4.477702 -10.03125,-10.03125 0,-5.553548 4.477702,-10.03125 10.03125,-10.03125 z"
       transform="translate(-60,-80)" />
    <path
       sodipodi:type="inkscape:offset"
       inkscape:radius="1.1641433"
       inkscape:original="M 48 31 C 38.063999 31 30 39.063999 30 49 C 30 58.936 38.063998 67 48 67 C 55.054325 67 61.146027 62.916931 64.09375 57 L 56.875 57 C 54.68707 59.447677 51.543436 61 48 61 C 41.372583 61 36 55.627417 36 49 C 36 42.372583 41.372583 37 48 37 C 51.543436 37 54.68707 38.552323 56.875 41 L 64.09375 41 C 61.146027 35.083069 55.054325 31 48 31 z M 67.96875 41 L 67.96875 45 L 52 45 L 52 53 L 67.96875 53 L 67.96875 57 L 77.96875 48.96875 L 67.96875 41 z "
       style="opacity:0.15;fill:#000000;fill-opacity:1;stroke:none;display:inline"
       id="path3723"
       d="m 48,29.84375 c -10.565876,0 -19.15625,8.590374 -19.15625,19.15625 0,10.565874 8.590373,19.15625 19.15625,19.15625 7.503532,0 13.987145,-4.326418 17.125,-10.625 a 1.1642597,1.1642597 0 0 0 -1.03125,-1.6875 l -7.21875,0 A 1.1642597,1.1642597 0 0 0 56,56.21875 c -1.981667,2.216927 -4.796559,3.625 -8,3.625 -5.998267,0 -10.84375,-4.845483 -10.84375,-10.84375 0,-5.998267 4.845483,-10.84375 10.84375,-10.84375 3.203441,0 6.018333,1.408073 8,3.625 a 1.1642597,1.1642597 0 0 0 0.875,0.375 l 7.21875,0 A 1.1642597,1.1642597 0 0 0 65.125,40.46875 C 61.987145,34.170168 55.503532,29.84375 48,29.84375 z m 19.8125,10 a 1.1642597,1.1642597 0 0 0 -1,1.15625 l 0,2.84375 -14.8125,0 A 1.1642597,1.1642597 0 0 0 50.84375,45 l 0,8 A 1.1642597,1.1642597 0 0 0 52,54.15625 l 14.8125,0 0,2.84375 a 1.1642597,1.1642597 0 0 0 1.875,0.90625 l 10,-8.03125 a 1.1642597,1.1642597 0 0 0 0,-1.8125 l -10,-7.96875 a 1.1642597,1.1642597 0 0 0 -0.875,-0.25 z"
       transform="translate(-60,-80)" />
    <path
       id="path3717"
       d="m -12,-49 c -9.936001,0 -18,8.063999 -18,18 0,9.936 8.063998,18 18,18 7.054325,0 13.146027,-4.083069 16.09375,-10 l -7.21875,0 c -2.18793,2.447677 -5.331564,4 -8.875,4 -6.627417,0 -12,-5.372583 -12,-12 0,-6.627417 5.372583,-12 12,-12 3.543436,0 6.68707,1.552323 8.875,4 l 7.21875,0 C 1.146027,-44.916931 -4.945675,-49 -12,-49 z m 19.96875,10 0,4 L -8,-35 l 0,8 15.96875,0 0,4 10,-8.03125 -10,-7.96875 z"
       style="opacity:0.3;fill:#000000;fill-opacity:1;stroke:none;display:inline" />
    <path
       sodipodi:type="inkscape:offset"
       inkscape:radius="1.1813599"
       inkscape:original="M 48 30.09375 C 37.568559 30.09375 29.09375 38.568559 29.09375 49 C 29.09375 59.43144 37.568558 67.90625 48 67.90625 C 56.216907 67.90625 63.208117 62.646273 65.8125 55.3125 A 0.9157715 0.9157715 0 0 0 64.9375 54.09375 L 60.625 54.09375 A 0.9157715 0.9157715 0 0 0 59.8125 54.59375 C 57.709346 59.008637 53.220828 62.09375 48 62.09375 C 40.762883 62.09375 34.90625 56.237116 34.90625 49 C 34.90625 41.762883 40.762883 35.90625 48 35.90625 C 53.220828 35.90625 57.709346 38.991363 59.8125 43.40625 A 0.9157715 0.9157715 0 0 0 60.625 43.90625 L 64.9375 43.90625 A 0.9157715 0.9157715 0 0 0 65.8125 42.6875 C 63.208117 35.353727 56.216907 30.09375 48 30.09375 z M 66.8125 42.09375 A 0.9157715 0.9157715 0 0 0 66.0625 43 L 66.0625 46.09375 L 55 46.09375 A 0.9157715 0.9157715 0 0 0 54.09375 47 L 54.09375 51 A 0.9157715 0.9157715 0 0 0 55 51.90625 L 66.0625 51.90625 L 66.0625 55 A 0.9157715 0.9157715 0 0 0 67.53125 55.71875 L 75.53125 49.6875 A 0.9157715 0.9157715 0 0 0 75.53125 48.25 L 67.53125 42.28125 A 0.9157715 0.9157715 0 0 0 66.8125 42.09375 z "
       style="opacity:0.1;fill:#000000;fill-opacity:1;stroke:none;display:inline"
       id="path3846"
       d="m 48,28.90625 c -11.071289,0 -20.09375,9.022461 -20.09375,20.09375 0,11.071288 9.02246,20.09375 20.09375,20.09375 8.217356,0 15.175692,-5.032001 18.28125,-12.125 0.01159,0.0043 0.03262,4.48e-4 0.03125,0 -0.0058,-0.0019 0.162169,0.064 0.15625,0.0625 -0.0059,-0.0015 0.131008,0.03234 0.125,0.03125 -0.006,-0.0011 0.162319,6.72e-4 0.15625,0 -0.0061,-6.72e-4 0.162351,0.0315 0.15625,0.03125 -0.0061,-2.52e-4 0.131103,-1.69e-4 0.125,0 -0.0061,1.69e-4 0.162327,-0.03184 0.15625,-0.03125 -0.0061,5.89e-4 0.131022,-0.001 0.125,0 -0.006,0.001 0.162189,-0.03267 0.15625,-0.03125 -0.0059,0.0014 0.130827,-0.03307 0.125,-0.03125 -0.0058,0.0018 0.161937,-0.06472 0.15625,-0.0625 -0.0057,0.0022 0.13052,-0.06511 0.125,-0.0625 -0.0055,0.0026 0.130327,-0.06548 0.125,-0.0625 -0.0053,0.003 0.130109,-0.06584 0.125,-0.0625 -0.0051,0.0033 0.129867,-0.09744 0.125,-0.09375 l 8,-6.03125 c -0.0039,0.0031 0.09749,-0.09706 0.09375,-0.09375 -0.0037,0.0033 0.0973,-0.06602 0.09375,-0.0625 -0.0035,0.0035 0.09709,-0.09746 0.09375,-0.09375 -0.0033,0.0037 0.06563,-0.09764 0.0625,-0.09375 -0.0031,0.0039 0.0654,-0.09781 0.0625,-0.09375 -0.0029,0.0041 0.09642,-0.09797 0.09375,-0.09375 -0.0027,0.0042 0.03368,-0.09811 0.03125,-0.09375 -0.0024,0.0044 0.06468,-0.129494 0.0625,-0.125 -0.0022,0.0045 0.06442,-0.09836 0.0625,-0.09375 -0.0019,0.0046 0.03291,-0.12971 0.03125,-0.125 -0.0017,0.0047 0.03264,-0.09855 0.03125,-0.09375 -0.0014,0.0048 0.03237,-0.129867 0.03125,-0.125 -0.0011,0.0049 0.03209,-0.129922 0.03125,-0.125 -8.41e-4,0.0049 0.03181,-0.09871 0.03125,-0.09375 -5.62e-4,0.005 2.82e-4,-0.129985 0,-0.125 -2.82e-4,0.005 0,-0.129993 0,-0.125 0,0.005 -2.82e-4,-0.129985 0,-0.125 2.82e-4,0.005 -5.62e-4,-0.129962 0,-0.125 5.62e-4,0.005 -0.03209,-0.09867 -0.03125,-0.09375 8.41e-4,0.0049 -0.03237,-0.129867 -0.03125,-0.125 0.0011,0.0049 -0.03264,-0.129796 -0.03125,-0.125 0.0014,0.0048 -0.03291,-0.09846 -0.03125,-0.09375 0.0017,0.0047 -0.03317,-0.129609 -0.03125,-0.125 0.0019,0.0046 -0.06468,-0.09824 -0.0625,-0.09375 0.0022,0.0045 -0.06493,-0.129364 -0.0625,-0.125 0.0024,0.0044 -0.03392,-0.09797 -0.03125,-0.09375 0.0027,0.0042 -0.09665,-0.09781 -0.09375,-0.09375 0.0029,0.0041 -0.06563,-0.09764 -0.0625,-0.09375 0.0031,0.0039 -0.06584,-0.09746 -0.0625,-0.09375 0.0033,0.0037 -0.0973,-0.09727 -0.09375,-0.09375 0.0035,0.0035 -0.09749,-0.06581 -0.09375,-0.0625 0.0037,0.0033 -0.09767,-0.09684 -0.09375,-0.09375 l -7.96875,-5.96875 c 8.34e-4,6.65e-4 -0.02737,0.0027 -0.03125,0 -0.02977,-0.02087 -0.16314,-0.129401 -0.15625,-0.125 0.0078,0.005 -0.195765,-0.09789 -0.1875,-0.09375 0.0083,0.0041 -0.227401,-0.097 -0.21875,-0.09375 0.0087,0.0033 -0.196443,-0.06483 -0.1875,-0.0625 0.0089,0.0023 -0.227887,-0.03264 -0.21875,-0.03125 0.0091,0.0014 -0.227982,-0.03168 -0.21875,-0.03125 0.0092,4.29e-4 -0.227977,5.36e-4 -0.21875,0 0.0092,-5.36e-4 -0.227871,0.03274 -0.21875,0.03125 a 1.181478,1.181478 0 0 0 -0.03125,0 c 0.0076,-0.0014 -0.19494,0.0333 -0.1875,0.03125 0.0074,-0.0021 -0.163483,0.06519 -0.15625,0.0625 C 63.141324,33.945583 56.212053,28.90625 48,28.90625 z m 0,8.1875 c 4.755432,0 8.835615,2.793871 10.75,6.8125 a 1.181478,1.181478 0 0 0 0,0.03125 c -0.0028,-0.0054 0.09687,0.130201 0.09375,0.125 -0.0031,-0.0052 0.06596,0.129976 0.0625,0.125 -0.0035,-0.005 0.09755,0.129727 0.09375,0.125 -0.0038,-0.0047 0.09786,0.09821 0.09375,0.09375 -0.0041,-0.0045 0.09816,0.09791 0.09375,0.09375 -0.0044,-0.0042 0.09843,0.128853 0.09375,0.125 -0.0047,-0.0039 0.129934,0.06602 0.125,0.0625 -0.0049,-0.0035 0.130164,0.09693 0.125,0.09375 -0.0052,-0.0032 0.130369,0.06532 0.125,0.0625 -0.0054,-0.0028 0.130549,0.06494 0.125,0.0625 l -4.78125,0 c 0.0086,-8.9e-5 -0.227278,0.03217 -0.21875,0.03125 0.0085,-9.18e-4 -0.195899,0.03299 -0.1875,0.03125 0.0084,-0.0017 -0.226941,0.03379 -0.21875,0.03125 0.0082,-0.0025 -0.195407,0.06582 -0.1875,0.0625 0.0079,-0.0033 -0.195048,0.09782 -0.1875,0.09375 0.0075,-0.0041 -0.163369,0.129783 -0.15625,0.125 0.0071,-0.0048 -0.162873,0.0992 -0.15625,0.09375 0.0066,-0.0055 -0.162315,0.162315 -0.15625,0.15625 0.0061,-0.0061 -0.1617,0.162873 -0.15625,0.15625 0.0055,-0.0066 -0.09853,0.163369 -0.09375,0.15625 0.0048,-0.0071 -0.129072,0.163798 -0.125,0.15625 0.0041,-0.0075 -0.09707,0.195407 -0.09375,0.1875 0.0033,-0.0079 -0.06504,0.195691 -0.0625,0.1875 0.0025,-0.0082 -0.03299,0.227149 -0.03125,0.21875 0.0017,-0.0084 -0.03217,0.196028 -0.03125,0.1875 9.18e-4,-0.0085 -0.03134,0.227326 -0.03125,0.21875 l 0,4 c -8.9e-5,-0.0086 0.03217,0.227278 0.03125,0.21875 -9.18e-4,-0.0085 0.03299,0.195899 0.03125,0.1875 -0.0017,-0.0084 0.03379,0.226941 0.03125,0.21875 -0.0025,-0.0082 0.06582,0.195407 0.0625,0.1875 -0.0033,-0.0079 0.09782,0.195048 0.09375,0.1875 -0.0041,-0.0075 0.129783,0.163369 0.125,0.15625 -0.0048,-0.0071 0.0992,0.162873 0.09375,0.15625 -0.0055,-0.0066 0.162315,0.162315 0.15625,0.15625 -0.0061,-0.0061 0.162873,0.1617 0.15625,0.15625 -0.0066,-0.0055 0.163369,0.09853 0.15625,0.09375 -0.0071,-0.0048 0.163798,0.129072 0.15625,0.125 -0.0075,-0.0041 0.195407,0.09707 0.1875,0.09375 -0.0079,-0.0033 0.195691,0.06504 0.1875,0.0625 -0.0082,-0.0025 0.227149,0.03299 0.21875,0.03125 -0.0084,-0.0017 0.196028,0.03217 0.1875,0.03125 -0.0085,-9.18e-4 0.227326,0.03134 0.21875,0.03125 l 4.78125,0 c 0.0055,-0.0024 -0.130369,0.06532 -0.125,0.0625 0.0054,-0.0028 -0.130164,0.06568 -0.125,0.0625 0.0052,-0.0032 -0.129934,0.09727 -0.125,0.09375 0.0049,-0.0035 -0.129681,0.06635 -0.125,0.0625 0.0047,-0.0039 -0.09816,0.129164 -0.09375,0.125 0.0044,-0.0042 -0.09786,0.09821 -0.09375,0.09375 0.0041,-0.0045 -0.09755,0.09848 -0.09375,0.09375 0.0038,-0.0047 -0.09721,0.129976 -0.09375,0.125 0.0035,-0.005 -0.06562,0.130201 -0.0625,0.125 0.0031,-0.0052 -0.0965,0.130402 -0.09375,0.125 a 1.181478,1.181478 0 0 0 0,0.03125 C 56.835615,58.112379 52.755432,60.90625 48,60.90625 41.400226,60.90625 36.09375,55.599773 36.09375,49 36.09375,42.400226 41.400226,37.09375 48,37.09375 z"
       transform="translate(0,-80)" />
    <path
       sodipodi:type="inkscape:offset"
       inkscape:radius="0.91567993"
       inkscape:original="M 48 31 C 38.063999 31 30 39.063999 30 49 C 30 58.936 38.063998 67 48 67 C 55.825188 67 62.459213 61.978695 64.9375 55 L 60.625 55 C 58.375288 59.722539 53.57942 63 48 63 C 40.268013 63 34 56.731986 34 49 C 34 41.268013 40.268013 35 48 35 C 53.57942 35 58.375288 38.277461 60.625 43 L 64.9375 43 C 62.459213 36.021305 55.825188 31 48 31 z M 66.96875 43 L 66.96875 47 L 55 47 L 55 51 L 66.96875 51 L 66.96875 55 L 74.96875 48.96875 L 66.96875 43 z "
       style="opacity:0.15;fill:#000000;fill-opacity:1;stroke:none;display:inline"
       id="path3842"
       d="m 48,30.09375 c -10.431441,0 -18.90625,8.474809 -18.90625,18.90625 0,10.43144 8.474808,18.90625 18.90625,18.90625 8.216907,0 15.208117,-5.259977 17.8125,-12.59375 a 0.9157715,0.9157715 0 0 0 -0.875,-1.21875 l -4.3125,0 a 0.9157715,0.9157715 0 0 0 -0.8125,0.5 c -2.103154,4.414887 -6.591672,7.5 -11.8125,7.5 -7.237117,0 -13.09375,-5.856634 -13.09375,-13.09375 0,-7.237117 5.856633,-13.09375 13.09375,-13.09375 5.220828,0 9.709346,3.085113 11.8125,7.5 a 0.9157715,0.9157715 0 0 0 0.8125,0.5 l 4.3125,0 a 0.9157715,0.9157715 0 0 0 0.875,-1.21875 C 63.208117,35.353727 56.216907,30.09375 48,30.09375 z m 18.8125,12 A 0.9157715,0.9157715 0 0 0 66.0625,43 l 0,3.09375 -11.0625,0 A 0.9157715,0.9157715 0 0 0 54.09375,47 l 0,4 A 0.9157715,0.9157715 0 0 0 55,51.90625 l 11.0625,0 0,3.09375 a 0.9157715,0.9157715 0 0 0 1.46875,0.71875 l 8,-6.03125 a 0.9157715,0.9157715 0 0 0 0,-1.4375 l -8,-5.96875 a 0.9157715,0.9157715 0 0 0 -0.71875,-0.1875 z"
       transform="translate(0,-80)" />
    <path
       sodipodi:nodetypes="cssccsssccccccccccc"
       id="path3836"
       d="m 48,-13 c -9.936002,0 -18,-8.064 -18,-18 0,-9.936001 8.063999,-18 18,-18 7.825188,0 14.459213,5.021305 16.9375,12 l -4.3125,0 c -2.249712,-4.722539 -7.04558,-8 -12.625,-8 -7.731987,0 -14,6.268013 -14,14 0,7.731986 6.268013,14 14,14 5.57942,0 10.375288,-3.277461 12.625,-8 l 4.3125,0 C 62.459213,-18.021305 55.825188,-13 48,-13 z m 18.963356,-12 0,-4 L 55,-29 l 0,-4 11.963356,0 0,-4 8.010153,5.968433 L 66.963356,-25 z"
       style="opacity:0.3;fill:#000000;fill-opacity:1;stroke:none;display:inline" />
    <path
       style="fill:url(#linearGradient3034);fill-opacity:1;stroke:none;display:inline"
       d="m 48,-14 c -9.936002,0 -18,-8.064 -18,-18 0,-9.936001 8.063999,-18 18,-18 7.825188,0 14.459213,5.021305 16.9375,12 l -4.3125,0 c -2.249712,-4.722539 -7.04558,-8 -12.625,-8 -7.731987,0 -14,6.268013 -14,14 0,7.731986 6.268013,14 14,14 5.57942,0 10.375288,-3.277461 12.625,-8 l 4.3125,0 C 62.459213,-19.021305 55.825188,-14 48,-14 z m 18.963356,-12 0,-4 L 55,-30 l 0,-4 11.963356,0 0,-4 8.010153,5.968433 L 66.963356,-26 z"
       id="path3771"
       sodipodi:nodetypes="cssccsssccccccccccc" />
    <path
       style="opacity:0.8;fill:#ffffff;fill-opacity:1;stroke:none;display:inline"
       d="m 48,-50 c -9.936001,0 -18,8.063999 -18,18 0,0.168506 0.02664,0.332601 0.03125,0.5 C 30.298378,-41.203326 38.232505,-49 48,-49 c 7.445442,0 13.827353,4.547597 16.5625,11 l 0.375,0 C 62.459213,-44.978695 55.825188,-50 48,-50 z m 18.96875,12 0,1 7.34375,5.46875 0.65625,-0.5 -8,-5.96875 z M 55,-34 l 0,1 11.96875,0 0,-1 L 55,-34 z m -20.96875,2.5 C 34.025365,-31.33321 34,-31.168225 34,-31 c 0,7.731986 6.268013,14 14,14 5.57942,0 10.375288,-3.277461 12.625,-8 l 3.9375,0 c 0.139503,-0.329097 0.254732,-0.661333 0.375,-1 l -4.3125,0 c -2.249712,4.722539 -7.04558,8 -12.625,8 -7.563762,0 -13.704162,-6.000782 -13.96875,-13.5 z"
       id="path3827" />
    <path
       style="fill:url(#linearGradient3705);fill-opacity:1;stroke:none;display:inline"
       d="m -12,-50 c -9.936001,0 -18,8.063999 -18,18 0,9.936 8.063998,18 18,18 7.054325,0 13.146027,-4.083069 16.09375,-10 l -7.21875,0 c -2.18793,2.447677 -5.331564,4 -8.875,4 -6.627417,0 -12,-5.372583 -12,-12 0,-6.627417 5.372583,-12 12,-12 3.543436,0 6.68707,1.552323 8.875,4 l 7.21875,0 C 1.146027,-45.916931 -4.945675,-50 -12,-50 z m 19.96875,10 0,4 L -8,-36 l 0,8 15.96875,0 0,4 10,-8.03125 -10,-7.96875 z"
       id="path3697" />
    <path
       style="fill:#ffffff;fill-opacity:1;stroke:none;display:inline"
       d="m -12,-50 c -9.936001,0 -18,8.063999 -18,18 0,0.168506 0.02664,0.332601 0.03125,0.5 0.267128,-9.703326 8.201255,-17.5 17.96875,-17.5 6.653183,0 12.451821,3.623098 15.5625,9 l 0.53125,0 C 1.146027,-45.916931 -4.945675,-50 -12,-50 z m 19.96875,10 0,1 9.375,7.46875 0.625,-0.5 -10,-7.96875 z M -8,-36 l 0,1 15.96875,0 0,-1 L -8,-36 z m -15.96875,4.5 C -23.97575,-31.33169 -24,-31.170031 -24,-31 c 0,6.627417 5.372583,12 12,12 3.543436,0 6.68707,-1.552323 8.875,-4 l 6.6875,0 c 0.187553,-0.324191 0.363628,-0.663535 0.53125,-1 l -7.21875,0 c -2.18793,2.447677 -5.331564,4 -8.875,4 -6.457386,0 -11.702788,-5.107991 -11.96875,-11.5 z"
       id="path3708" />
    <path
       style="color:#000000;fill:url(#linearGradient3161);fill-opacity:1;fill-rule:nonzero;stroke:none;stroke-width:1;marker:none;visibility:visible;display:inline;overflow:visible;enable-background:accumulate"
       d="M 29 24 C 27.338 24 25.674055 25.370275 26 27 L 26 32 L 70 32 C 70 29.784 68.216 28 66 28 L 43 28 L 43 27 C 43 25.338 41.662 24 40 24 L 29 24 z M 28 34 C 25.784 34 24 35.784 24 38 L 24 62 C 24 64.216 25.784 66 28 66 L 37 66 L 37 70 C 37 72.216 38.784 74 41 74 L 63 74 C 65.216 74 67 72.216 67 70 L 67 66 L 68 66 C 70.216 66 72 64.216 72 62 L 72 38 C 72 35.784 70.409112 34 68 34 L 63 34 L 41 34 L 28 34 z M 44.5 42 L 59.5 42 C 60.331 42 61 42.669 61 43.5 L 61 66.5 C 61 67.331 60.331 68 59.5 68 L 44.5 68 C 43.669 68 43 67.331 43 66.5 L 43 43.5 C 43 42.669 43.669 42 44.5 42 z "
       id="path3153" />
    <path
       style="color:#000000;fill:#ffffff;fill-opacity:1;fill-rule:nonzero;stroke:none;stroke-width:1;marker:none;visibility:visible;display:inline;overflow:visible;enable-background:accumulate;opacity:0.75"
       d="M 29 24 C 27.338 24 25.674055 25.370275 26 27 L 26 27.25 C 26.217131 25.973665 27.603187 25 29 25 L 40 25 C 41.662 25 43 26.338 43 28 L 43 27 C 43 25.338 41.662 24 40 24 L 29 24 z M 43 28 L 43 29 L 66 29 C 67.868974 29 69.400465 30.273103 69.84375 32 L 70 32 C 70 29.784 68.216 28 66 28 L 43 28 z M 28 34 C 25.784 34 24 35.784 24 38 L 24 39 C 24 36.784 25.784 35 28 35 L 41 35 L 63 35 L 68 35 C 70.409112 35 72 36.784 72 39 L 72 38 C 72 35.784 70.409112 34 68 34 L 63 34 L 41 34 L 28 34 z M 43 66.5 L 43 67.5 C 43 68.331 43.669 69 44.5 69 L 59.5 69 C 60.331 69 61 68.331 61 67.5 L 61 66.5 C 61 67.331 60.331 68 59.5 68 L 44.5 68 C 43.669 68 43 67.331 43 66.5 z "
       id="path3164" />
    <path
       style="color:#000000;fill:#000000;fill-opacity:1;fill-rule:nonzero;stroke:none;stroke-width:1;marker:none;visibility:visible;display:inline;overflow:visible;enable-background:accumulate;opacity:0.15"
       d="M 26 26.25 C 25.958777 26.492314 25.947993 26.739963 26 27 L 26 26.25 z M 26 31 L 26 32 L 70 32 C 70 31.652974 69.926058 31.320645 69.84375 31 L 26 31 z M 44.5 41 C 43.669 41 43 41.669 43 42.5 L 43 43.5 C 43 42.669 43.669 42 44.5 42 L 59.5 42 C 60.331 42 61 42.669 61 43.5 L 61 42.5 C 61 41.669 60.331 41 59.5 41 L 44.5 41 z M 24 61 L 24 62 C 24 64.216 25.784 66 28 66 L 37 66 L 37 65 L 28 65 C 25.784 65 24 63.216 24 61 z M 72 61 C 72 63.216 70.216 65 68 65 L 67 65 L 67 66 L 68 66 C 70.216 66 72 64.216 72 62 L 72 61 z M 37 69 L 37 70 C 37 72.216 38.784 74 41 74 L 63 74 C 65.216 74 67 72.216 67 70 L 67 69 C 67 71.216 65.216 73 63 73 L 41 73 C 38.784 73 37 71.216 37 69 z "
       id="path3173" />
  </g>
</svg>
