<?xml version="1.0" encoding="UTF-8" standalone="no"?>
<!DOCTYPE svg PUBLIC "-//W3C//DTD SVG 1.1//EN" "http://www.w3.org/Graphics/SVG/1.1/DTD/svg11.dtd">
<svg width="100%" height="100%" viewBox="0 0 380 490" version="1.1" xmlns="http://www.w3.org/2000/svg" xmlns:xlink="http://www.w3.org/1999/xlink" xml:space="preserve" xmlns:serif="http://www.serif.com/" style="fill-rule:evenodd;clip-rule:evenodd;stroke-linejoin:round;stroke-miterlimit:2;">
    <g transform="matrix(1,0,0,1,-322,-373)">
        <path id="ArrowLines" d="M702,853L702,863L322,863L322,853L702,853ZM702,833L702,843L322,843L322,833L702,833ZM702,813L702,823L322,823L322,813L702,813ZM702,793L702,803L322,803L322,793L702,793ZM702,773L702,783L322,783L322,773L702,773ZM702,753L702,763L322,763L322,753L702,753ZM702,733L702,743L322,743L322,733L702,733ZM702,713L702,723L322,723L322,713L702,713ZM702,693L702,703L322,703L322,693L702,693ZM702,673L702,683L322,683L322,673L702,673ZM702,653L702,663L322,663L322,653L702,653ZM702,633L702,643L322,643L322,633L702,633ZM702,613L702,623L322,623L322,613L702,613ZM702,593L702,603L322,603L322,593L702,593ZM702,573L702,583L322,583L322,573L702,573ZM702,553L702,563L322,563L322,553L702,553ZM702,533L702,543L322,543L322,533L702,533ZM702,513L702,523L322,523L322,513L702,513ZM702,493L702,503L322,503L322,493L702,493ZM702,473L702,483L322,483L322,473L702,473ZM702,453L702,463L322,463L322,453L702,453ZM702,433L702,443L322,443L322,433L702,433ZM702,413L702,423L322,423L322,413L702,413ZM702,393L702,403L322,403L322,393L702,393ZM702,373L702,383L322,383L322,373L702,373Z" style="fill:white;"/>
    </g>
</svg>
