<?xml version="1.0" encoding="UTF-8" standalone="no"?>
<!DOCTYPE svg PUBLIC "-//W3C//DTD SVG 1.1//EN" "http://www.w3.org/Graphics/SVG/1.1/DTD/svg11.dtd">
<svg width="100%" height="100%" viewBox="0 0 256 410" version="1.1" xmlns="http://www.w3.org/2000/svg" xmlns:xlink="http://www.w3.org/1999/xlink" xml:space="preserve" xmlns:serif="http://www.serif.com/" style="fill-rule:evenodd;clip-rule:evenodd;stroke-linejoin:round;stroke-miterlimit:2;">
    <g transform="matrix(1,0,0,1,-384.492254,-102.307438)">
        <g transform="matrix(1.224393,0,0,1.224393,-114.493424,25.518782)">
            <g id="HandleShaftDark" transform="matrix(1,0,0,1,0,-23)">
                <path d="M441,420.324L583,420.324L607.326,324.389C615.789,248.334 617.202,172.677 615.122,97.218C615.053,94.734 613.195,92.666 610.733,92.331C544.899,83.468 479.066,83.55 413.232,92.342C410.786,92.672 408.931,94.715 408.84,97.182C406.007,174.238 407.438,250.261 416.674,324.389L441,420.324Z" style="fill:url(#_Linear1);"/>
            </g>
        </g>
    </g>
    <defs>
        <linearGradient id="_Linear1" x1="0" y1="0" x2="1" y2="0" gradientUnits="userSpaceOnUse" gradientTransform="matrix(0,426.284236,-426.284236,0,511.755139,85.715764)"><stop offset="0" style="stop-color:rgb(94,94,94);stop-opacity:1"/><stop offset="0.2" style="stop-color:rgb(246,246,246);stop-opacity:1"/><stop offset="0.41" style="stop-color:rgb(163,163,163);stop-opacity:1"/><stop offset="0.48" style="stop-color:rgb(135,135,135);stop-opacity:1"/><stop offset="0.57" style="stop-color:rgb(66,66,66);stop-opacity:1"/><stop offset="0.82" style="stop-color:rgb(23,23,23);stop-opacity:1"/><stop offset="0.85" style="stop-color:rgb(14,14,14);stop-opacity:1"/><stop offset="1" style="stop-color:black;stop-opacity:1"/></linearGradient>
    </defs>
</svg>
