<?xml version="1.0" encoding="UTF-8" standalone="no"?>
<!DOCTYPE svg PUBLIC "-//W3C//DTD SVG 1.1//EN" "http://www.w3.org/Graphics/SVG/1.1/DTD/svg11.dtd">
<svg width="100%" height="100%" viewBox="0 0 1024 1024" version="1.1" xmlns="http://www.w3.org/2000/svg" xmlns:xlink="http://www.w3.org/1999/xlink" xml:space="preserve" xmlns:serif="http://www.serif.com/" style="fill-rule:evenodd;clip-rule:evenodd;stroke-linejoin:round;stroke-miterlimit:2;">
    <g id="Transmission-Tahoe1" serif:id="Transmission Tahoe">
        <g id="Plate">
            <path d="M1024,0L1024,1024L0,1024L0,0L1024,0ZM406.555,374.245L406.555,632.244L337.902,632.244C334.433,632.244 331.274,634.246 329.794,637.384C328.313,640.523 328.777,644.233 330.983,646.911C367.597,691.344 476.533,823.542 505.085,858.192C506.787,860.258 509.324,861.454 512,861.454C514.676,861.454 517.213,860.258 518.915,858.192C547.444,823.57 656.228,691.556 692.929,647.018C695.151,644.321 695.618,640.583 694.127,637.422C692.636,634.261 689.454,632.244 685.959,632.244C660.165,632.244 617.445,632.244 617.445,632.244L617.445,374.245L406.555,374.245Z" style="fill:url(#_Linear1);"/>
        </g>
    </g>
    <defs>
        <linearGradient id="_Linear1" x1="0" y1="0" x2="1" y2="0" gradientUnits="userSpaceOnUse" gradientTransform="matrix(5.31497e-14,868.016,-868,5.31507e-14,512,77.9919)"><stop offset="0" style="stop-color:rgb(251,251,251);stop-opacity:1"/><stop offset="1" style="stop-color:rgb(204,206,204);stop-opacity:1"/></linearGradient>
    </defs>
</svg>
