<?xml version="1.0" encoding="UTF-8" standalone="no"?>
<!DOCTYPE svg PUBLIC "-//W3C//DTD SVG 1.1//EN" "http://www.w3.org/Graphics/SVG/1.1/DTD/svg11.dtd">
<svg width="100%" height="100%" viewBox="0 0 1024 1024" version="1.1" xmlns="http://www.w3.org/2000/svg" xmlns:xlink="http://www.w3.org/1999/xlink" xml:space="preserve" xmlns:serif="http://www.serif.com/" style="fill-rule:evenodd;clip-rule:evenodd;stroke-linejoin:round;stroke-miterlimit:2;">
    <path id="StripesOuterEdge" d="M110.496,165.161L0,275.657L0,264.343L264.343,0L275.657,0L165.19,110.466C154.736,117.138 144.612,125.181 134.917,134.876C125.216,144.576 117.17,154.704 110.496,165.161ZM195.179,95.165L290.343,0L301.657,0L212.417,89.24C206.617,90.943 200.866,92.905 195.179,95.165ZM231.871,84.472L316.343,0L327.657,0L245.546,82.11C240.972,82.782 236.411,83.563 231.871,84.472ZM262.223,80.12L342.343,0L353.657,0L274.494,79.163C270.401,79.421 266.31,79.736 262.223,80.12ZM289.908,78.435L368.343,0L379.657,0L301.505,78.152C297.646,78.216 293.779,78.307 289.908,78.435ZM316.334,78.009L394.343,0L405.657,0L327.665,77.992C323.903,77.992 320.124,77.995 316.334,78.009ZM342.351,77.992L420.343,0L431.657,0L353.665,77.992L342.351,77.992ZM368.351,77.992L446.343,0L457.657,0L379.665,77.992L368.351,77.992ZM394.351,77.992L472.343,0L483.657,0L405.665,77.992L394.351,77.992ZM420.351,77.992L498.343,0L509.657,0L431.665,77.992L420.351,77.992ZM446.351,77.992L524.343,0L535.657,0L457.665,77.992L446.351,77.992ZM472.351,77.992L550.343,0L561.657,0L483.665,77.992L472.351,77.992ZM498.351,77.992L576.343,0L587.657,0L509.665,77.992L498.351,77.992ZM524.351,77.992L602.343,0L613.657,0L535.665,77.992L524.351,77.992ZM550.351,77.992L628.343,0L639.657,0L561.665,77.992L550.351,77.992ZM576.351,77.992L654.343,0L665.657,0L587.665,77.992L576.351,77.992ZM602.351,77.992L680.343,0L691.657,0L613.665,77.992L602.351,77.992ZM628.351,77.992L706.343,0L717.657,0L639.665,77.992L628.351,77.992ZM654.351,77.992L732.343,0L743.657,0L665.665,77.992L654.351,77.992ZM680.351,77.992L758.343,0L769.657,0L691.665,77.992L680.351,77.992ZM706.339,78.005L784.343,0L795.657,0L717.576,78.081C713.82,78.038 710.073,78.016 706.339,78.005ZM731.977,78.366L810.343,0L821.657,0L742.869,78.788C739.236,78.611 735.604,78.473 731.977,78.366ZM756.674,79.669L836.343,0L847.657,0L767.014,80.643C763.572,80.268 760.124,79.945 756.674,79.669ZM780.011,82.332L862.343,0L873.657,0L789.676,83.981C786.464,83.371 783.241,82.824 780.011,82.332ZM801.755,86.588L888.343,0L899.657,0L810.693,88.963C807.726,88.106 804.746,87.317 801.755,86.588ZM821.82,92.523L914.343,0L925.657,0L830.028,95.629C827.307,94.526 824.57,93.492 821.82,92.523ZM840.22,100.123L940.343,0L951.657,0L847.723,103.934C845.237,102.596 842.736,101.327 840.22,100.123ZM857.025,109.319L966.343,0L977.657,0L863.864,113.793C861.6,112.235 859.32,110.744 857.025,109.319ZM872.335,120.008L992.343,0L1003.657,0L878.558,125.099C876.5,123.337 874.425,121.641 872.335,120.008ZM886.262,132.081L1018.343,-0L1024,0L1024,5.657L891.919,137.738C891,136.78 890.066,135.826 889.116,134.876C888.169,133.929 887.217,132.997 886.262,132.081ZM898.901,145.443L1024,20.343L1024,31.657L903.99,151.667C902.358,149.576 900.662,147.501 898.901,145.443ZM910.204,160.139L1024,46.343L1024,57.657L914.677,166.98C913.252,164.683 911.762,162.403 910.204,160.139ZM920.06,176.283L1024,72.343L1024,83.657L923.87,183.787C922.667,181.27 921.398,178.769 920.06,176.283ZM928.363,193.98L1024,98.343L1024,109.657L931.468,202.189C930.499,199.439 929.465,196.702 928.363,193.98ZM935.026,213.317L1024,124.343L1024,135.657L937.401,222.256C936.673,219.265 935.883,216.284 935.026,213.317ZM940.008,234.335L1024,150.343L1024,161.657L941.656,244C941.165,240.77 940.617,237.548 940.008,234.335ZM943.346,256.997L1024,176.343L1024,187.657L944.32,267.336C944.044,263.887 943.721,260.439 943.346,256.997ZM945.202,281.141L1024,202.343L1024,213.657L945.625,292.032C945.517,288.405 945.379,284.774 945.202,281.141ZM945.91,306.433L1024,228.343L1024,239.657L945.987,317.67C945.976,313.936 945.953,310.189 945.91,306.433ZM946,332.343L1024,254.343L1024,265.657L946,343.657L946,332.343ZM946,358.343L1024,280.343L1024,291.657L946,369.657L946,358.343ZM946,384.343L1024,306.343L1024,317.657L946,395.657L946,384.343ZM946,410.343L1024,332.343L1024,343.657L946,421.657L946,410.343ZM946,436.343L1024,358.343L1024,369.657L946,447.657L946,436.343ZM946,462.343L1024,384.343L1024,395.657L946,473.657L946,462.343ZM946,488.343L1024,410.343L1024,421.657L946,499.657L946,488.343ZM946,514.343L1024,436.343L1024,447.657L946,525.657L946,514.343ZM946,540.343L1024,462.343L1024,473.657L946,551.657L946,540.343ZM946,566.343L1024,488.343L1024,499.657L946,577.657L946,566.343ZM946,592.343L1024,514.343L1024,525.657L946,603.657L946,592.343ZM946,618.343L1024,540.343L1024,551.657L946,629.657L946,618.343ZM946,644.343L1024,566.343L1024,577.657L946,655.657L946,644.343ZM946,670.343L1024,592.343L1024,603.657L946,681.657L946,670.343ZM946,696.343L1024,618.343L1024,629.657L945.983,707.674C945.997,703.884 946,700.105 946,696.343ZM945.842,722.501L1024,644.343L1024,655.657L945.56,734.097C945.687,730.226 945.778,726.36 945.842,722.501ZM944.835,749.508L1024,670.343L1024,681.657L943.88,761.777C944.264,757.691 944.578,753.6 944.835,749.508ZM941.894,778.449L1024,696.343L1024,707.657L939.537,792.12C940.444,787.582 941.224,783.022 941.894,778.449ZM934.776,811.567L1024,722.343L1024,733.657L928.859,828.798C931.116,823.113 933.075,817.365 934.776,811.567ZM913.588,858.755L1024,748.343L1024,759.657L759.657,1024L748.343,1024L858.758,913.585C869.242,906.903 879.393,898.844 889.113,889.124C898.84,879.398 906.904,869.242 913.588,858.755ZM828.803,928.854L733.657,1024L722.343,1024L811.571,934.772C817.37,933.07 823.118,931.11 828.803,928.854ZM792.122,939.535L707.657,1024L696.343,1024L778.449,941.894C783.023,941.223 787.583,940.442 792.122,939.535ZM761.774,943.883L681.657,1024L670.343,1024L749.504,944.839C753.597,944.581 757.688,944.266 761.774,943.883ZM734.091,945.566L655.657,1024L644.343,1024L722.494,945.849C726.353,945.784 730.22,945.693 734.091,945.566ZM707.666,945.991L629.657,1024L618.343,1024L696.335,946.008C700.097,946.008 703.875,946.005 707.666,945.991ZM681.649,946.008L603.657,1024L592.343,1024L670.335,946.008L681.649,946.008ZM655.649,946.008L577.657,1024L566.343,1024L644.335,946.008L655.649,946.008ZM629.649,946.008L551.657,1024L540.343,1024L618.335,946.008L629.649,946.008ZM603.649,946.008L525.657,1024L514.343,1024L592.335,946.008L603.649,946.008ZM577.649,946.008L499.657,1024L488.343,1024L566.335,946.008L577.649,946.008ZM551.649,946.008L473.657,1024L462.343,1024L540.335,946.008L551.649,946.008ZM525.649,946.008L447.657,1024L436.343,1024L514.335,946.008L525.649,946.008ZM499.649,946.008L421.657,1024L410.343,1024L488.335,946.008L499.649,946.008ZM473.649,946.008L395.657,1024L384.343,1024L462.335,946.008L473.649,946.008ZM447.649,946.008L369.657,1024L358.343,1024L436.335,946.008L447.649,946.008ZM421.649,946.008L343.657,1024L332.343,1024L410.335,946.008L421.649,946.008ZM395.649,946.008L317.657,1024L306.343,1024L384.335,946.008L395.649,946.008ZM369.649,946.008L291.657,1024L280.343,1024L358.335,946.008L369.649,946.008ZM343.649,946.008L265.657,1024L254.343,1024L332.335,946.008L343.649,946.008ZM317.661,945.995L239.657,1024L228.343,1024L306.425,945.919C310.18,945.962 313.927,945.984 317.661,945.995ZM292.023,945.634L213.657,1024L202.343,1024L281.132,945.212C284.764,945.389 288.396,945.527 292.023,945.634ZM267.326,944.331L187.657,1024L176.343,1024L256.987,943.356C260.429,943.732 263.876,944.054 267.326,944.331ZM243.99,941.667L161.657,1024L150.343,1024L234.325,940.018C237.537,940.628 240.76,941.175 243.99,941.667ZM222.246,937.411L135.657,1024L124.343,1024L213.308,935.035C216.275,935.892 219.255,936.682 222.246,937.411ZM202.181,931.476L109.657,1024L98.343,1024L193.973,928.37C196.695,929.473 199.431,930.507 202.181,931.476ZM183.781,923.875L83.657,1024L72.343,1024L176.278,920.065C178.764,921.403 181.265,922.672 183.781,923.875ZM166.977,914.68L57.657,1024L46.343,1024L160.137,910.206C162.401,911.764 164.681,913.255 166.977,914.68ZM151.667,903.99L31.657,1024L20.343,1024L145.443,898.9C147.501,900.662 149.576,902.358 151.667,903.99ZM137.739,891.917L5.657,1024L0,1024L-0,1018.343L132.083,886.26C133.002,887.219 133.936,888.174 134.887,889.124C135.834,890.071 136.784,891.002 137.739,891.917ZM125.101,878.556L0,1003.657L0,992.343L120.011,872.332C121.643,874.423 123.339,876.498 125.101,878.556ZM113.797,863.86L0,977.657L0,966.343L109.324,857.02C110.749,859.316 112.239,861.596 113.797,863.86ZM103.94,847.716L0,951.657L0,940.343L100.131,840.212C101.334,842.729 102.603,845.231 103.94,847.716ZM95.637,830.019L0,925.657L0,914.343L92.533,821.81C93.502,824.561 94.535,827.297 95.637,830.019ZM88.974,810.683L0,899.657L0,888.343L86.6,801.744C87.328,804.735 88.117,807.715 88.974,810.683ZM83.992,789.665L0,873.657L0,862.343L82.344,779.999C82.835,783.229 83.383,786.452 83.992,789.665ZM80.654,767.003L0,847.657L0,836.343L79.68,756.664C79.956,760.113 80.279,763.56 80.654,767.003ZM78.798,742.859L0,821.657L0,810.343L78.375,731.968C78.483,735.595 78.621,739.226 78.798,742.859ZM78.09,717.567L0,795.657L0,784.343L78.013,706.33C78.024,710.064 78.047,713.811 78.09,717.567ZM78,691.657L0,769.657L0,758.343L78,680.343L78,691.657ZM78,665.657L0,743.657L0,732.343L78,654.343L78,665.657ZM78,639.657L0,717.657L0,706.343L78,628.343L78,639.657ZM78,613.657L0,691.657L0,680.343L78,602.343L78,613.657ZM78,587.657L0,665.657L0,654.343L78,576.343L78,587.657ZM78,561.657L0,639.657L0,628.343L78,550.343L78,561.657ZM78,535.657L0,613.657L0,602.343L78,524.343L78,535.657ZM78,509.657L0,587.657L0,576.343L78,498.343L78,509.657ZM78.032,483.625L0,561.657L0,550.343L78.032,472.311L78.032,483.625ZM78.032,457.625L0,535.657L0,524.343L78.032,446.311L78.032,457.625ZM78.032,431.625L0,509.657L0,498.343L78.032,420.311L78.032,431.625ZM78.032,405.625L0,483.657L0,472.343L78.032,394.311L78.032,405.625ZM78.032,379.625L0,457.657L0,446.343L78.032,368.311L78.032,379.625ZM78.032,353.625L0,431.657L0,420.343L78.032,342.311L78.032,353.625ZM78.032,327.624L0,405.657L0,394.343L78.05,316.294C78.035,320.084 78.033,323.862 78.032,327.624ZM78.191,301.466L0,379.657L0,368.343L78.473,289.87C78.346,293.74 78.255,297.607 78.191,301.466ZM79.2,274.457L0,353.657L0,342.343L80.155,262.188C79.772,266.274 79.457,270.365 79.2,274.457ZM82.143,245.513L0,327.657L0,316.343L84.503,231.84C83.595,236.379 82.815,240.939 82.143,245.513ZM89.269,212.388L0,301.657L0,290.343L95.193,195.15C92.934,200.837 90.972,206.588 89.269,212.388ZM785.657,1024L774.343,1024L1024,774.343L1024,785.657L785.657,1024ZM811.657,1024L800.343,1024L1024,800.343L1024,811.657L811.657,1024ZM837.657,1024L826.343,1024L1024,826.343L1024,837.657L837.657,1024ZM863.657,1024L852.343,1024L1024,852.343L1024,863.657L863.657,1024ZM889.657,1024L878.343,1024L1024,878.343L1024,889.657L889.657,1024ZM915.657,1024L904.343,1024L1024,904.343L1024,915.657L915.657,1024ZM941.657,1024L930.343,1024L1024,930.343L1024,941.657L941.657,1024ZM967.657,1024L956.343,1024L1024,956.343L1024,967.657L967.657,1024ZM993.657,1024L982.343,1024L1024,982.343L1024,993.657L993.657,1024ZM1019.657,1024L1008.343,1024L1024,1008.343L1024,1019.657L1019.657,1024ZM238.343,0L249.657,0L0,249.657L0,238.343L238.343,0ZM212.343,0L223.657,0L0,223.657L0,212.343L212.343,0ZM186.343,0L197.657,0L0,197.657L0,186.343L186.343,0ZM160.343,0L171.657,0L0,171.657L0,160.343L160.343,0ZM134.343,0L145.657,0L0,145.657L0,134.343L134.343,0ZM108.343,0L119.657,0L0,119.657L0,108.343L108.343,0ZM82.343,0L93.657,0L0,93.657L0,82.343L82.343,0ZM56.343,0L67.657,0L0,67.657L0,56.343L56.343,0ZM30.343,0L41.657,0L0,41.657L0,30.343L30.343,0ZM4.343,0L15.657,0L0,15.657L0,4.343L4.343,0Z" style="fill:rgb(102,102,102);fill-opacity:0.5;"/>
</svg>
