<?xml version="1.0" encoding="UTF-8" standalone="no"?>
<!-- Created with Inkscape (http://www.inkscape.org/) -->

<svg
   xmlns:dc="http://purl.org/dc/elements/1.1/"
   xmlns:cc="http://creativecommons.org/ns#"
   xmlns:rdf="http://www.w3.org/1999/02/22-rdf-syntax-ns#"
   xmlns:svg="http://www.w3.org/2000/svg"
   xmlns="http://www.w3.org/2000/svg"
   xmlns:xlink="http://www.w3.org/1999/xlink"
   xmlns:sodipodi="http://sodipodi.sourceforge.net/DTD/sodipodi-0.dtd"
   xmlns:inkscape="http://www.inkscape.org/namespaces/inkscape"
   width="22"
   height="22"
   id="svg2"
   sodipodi:version="0.32"
   inkscape:version="0.48.1 r9760"
   version="1.0"
   sodipodi:docname="document-open.svg"
   inkscape:output_extension="org.inkscape.output.svg.inkscape"
   inkscape:export-filename="/home/matt/.icons/Sirocco/scalable/mimetypes/text-plain.png"
   inkscape:export-xdpi="90"
   inkscape:export-ydpi="90"
   sodipodi:modified="true"
   style="display:inline">
  <sodipodi:namedview
     id="base"
     pagecolor="#ffffff"
     bordercolor="#666666"
     borderopacity="1.0"
     inkscape:pageopacity="0.0"
     inkscape:pageshadow="2"
     inkscape:zoom="23.252798"
     inkscape:cx="-0.23123644"
     inkscape:cy="11.348913"
     inkscape:document-units="px"
     inkscape:current-layer="layer1"
     width="128px"
     height="128px"
     inkscape:showpageshadow="false"
     inkscape:window-width="1920"
     inkscape:window-height="1030"
     inkscape:window-x="0"
     inkscape:window-y="25"
     showguides="true"
     inkscape:guide-bbox="true"
     showgrid="true"
     inkscape:window-maximized="1">
    <sodipodi:guide
       id="guide2226"
       position="32.637397,117.99844"
       orientation="horizontal" />
    <sodipodi:guide
       id="guide2230"
       position="110,57.402344"
       orientation="vertical" />
    <sodipodi:guide
       id="guide2232"
       position="33.760911"
       orientation="horizontal" />
    <sodipodi:guide
       id="guide2231"
       position="46.774696"
       orientation="horizontal" />
    <inkscape:grid
       enabled="true"
       visible="true"
       id="grid3231"
       type="xygrid" />
    <sodipodi:guide
       orientation="1,0"
       position="100,67.625"
       id="guide2713" />
  </sodipodi:namedview>
  <defs
     id="defs4">
    <linearGradient
       inkscape:collect="always"
       xlink:href="#StandardGradient"
       id="linearGradient2549"
       gradientUnits="userSpaceOnUse"
       gradientTransform="matrix(0.9247229,0,0,1.0872097,16.939944,2.9976422)"
       x1="11.998966"
       y1="0.92195445"
       x2="11.998966"
       y2="17.478098" />
    <inkscape:perspective
       sodipodi:type="inkscape:persp3d"
       inkscape:vp_x="0 : 11 : 1"
       inkscape:vp_y="0 : 1000 : 0"
       inkscape:vp_z="22 : 11 : 1"
       inkscape:persp3d-origin="11 : 7.3333333 : 1"
       id="perspective19" />
    <linearGradient
       id="StandardGradient"
       gradientTransform="scale(0.9219544,1.0846523)"
       x1="11.998966"
       y1="0.92195445"
       x2="11.998966"
       y2="19.387045"
       gradientUnits="userSpaceOnUse">
      <stop
         style="stop-color:#000000;stop-opacity:0.86274511;"
         offset="0"
         id="stop3283" />
      <stop
         style="stop-color:#000000;stop-opacity:0.47058824;"
         offset="1"
         id="stop2651" />
    </linearGradient>
    <linearGradient
       inkscape:collect="always"
       xlink:href="#StandardGradient"
       id="linearGradient2406"
       gradientUnits="userSpaceOnUse"
       gradientTransform="matrix(0.9219544,0,0,1.0846523,0,-1)"
       x1="11.998966"
       y1="2.7658634"
       x2="11.998966"
       y2="19.387045" />
    <linearGradient
       inkscape:collect="always"
       xlink:href="#StandardGradient"
       id="linearGradient3198"
       gradientUnits="userSpaceOnUse"
       gradientTransform="matrix(0.9219544,0,0,1.0846523,0,-1)"
       x1="11.998966"
       y1="2.7658634"
       x2="11.998966"
       y2="19.387045" />
    <linearGradient
       inkscape:collect="always"
       xlink:href="#StandardGradient"
       id="linearGradient4636"
       gradientUnits="userSpaceOnUse"
       gradientTransform="matrix(0.9219544,0,0,1.0846523,-1.7235065e-2,0.96875)"
       x1="11.998966"
       y1="2.7658634"
       x2="11.998966"
       y2="15.702114" />
    <linearGradient
       inkscape:collect="always"
       xlink:href="#StandardGradient"
       id="linearGradient2397"
       gradientUnits="userSpaceOnUse"
       gradientTransform="matrix(0.9219544,0,0,1.0846523,-1.7235065e-2,0.96875)"
       x1="11.998966"
       y1="2.7658634"
       x2="11.998966"
       y2="15.702114" />
    <linearGradient
       inkscape:collect="always"
       xlink:href="#StandardGradient"
       id="linearGradient2402"
       gradientUnits="userSpaceOnUse"
       gradientTransform="matrix(0.9219544,0,0,1.0846523,-1.7235065e-2,0.96875)"
       x1="11.998966"
       y1="2.7658634"
       x2="11.998966"
       y2="15.702114" />
    <linearGradient
       inkscape:collect="always"
       xlink:href="#StandardGradient"
       id="linearGradient2405"
       gradientUnits="userSpaceOnUse"
       gradientTransform="matrix(0.9219544,0,0,1.0846523,-1.7235065e-2,-3.125e-2)"
       x1="11.998966"
       y1="2.7658634"
       x2="11.998966"
       y2="15.702114" />
    <linearGradient
       inkscape:collect="always"
       xlink:href="#StandardGradient"
       id="linearGradient2415"
       gradientUnits="userSpaceOnUse"
       gradientTransform="matrix(0.9219544,0,0,1.0846523,-1.7235065e-2,-3.125e-2)"
       x1="11.998966"
       y1="2.7658634"
       x2="11.998966"
       y2="15.702114" />
    <linearGradient
       inkscape:collect="always"
       xlink:href="#StandardGradient"
       id="linearGradient2407"
       gradientUnits="userSpaceOnUse"
       gradientTransform="matrix(0.9219544,0,0,1.0846523,-1.7235065e-2,-1.03125)"
       x1="11.998966"
       y1="2.7658634"
       x2="11.998966"
       y2="15.702114" />
    <linearGradient
       inkscape:collect="always"
       xlink:href="#StandardGradient"
       id="linearGradient2542"
       gradientUnits="userSpaceOnUse"
       gradientTransform="matrix(0.9247229,0,0,1.0872097,-2.060056,5.9976422)"
       x1="11.998966"
       y1="0.92195445"
       x2="11.998966"
       y2="17.478098" />
    <linearGradient
       inkscape:collect="always"
       xlink:href="#StandardGradient"
       id="linearGradient2551"
       gradientUnits="userSpaceOnUse"
       gradientTransform="matrix(0.9219544,0,0,1.0846523,-1.7235065e-2,-1.03125)"
       x1="11.998966"
       y1="2.7658634"
       x2="11.998966"
       y2="15.702114" />
    <linearGradient
       inkscape:collect="always"
       xlink:href="#StandardGradient"
       id="linearGradient2554"
       gradientUnits="userSpaceOnUse"
       gradientTransform="matrix(0.9219544,0,0,1.0846523,-1.7235065e-2,-1.03125)"
       x1="11.998966"
       y1="2.7658634"
       x2="11.998966"
       y2="15.702114" />
    <linearGradient
       inkscape:collect="always"
       xlink:href="#StandardGradient"
       id="linearGradient2424"
       gradientUnits="userSpaceOnUse"
       gradientTransform="matrix(0.9219544,0,0,1.0846523,-1.7235065e-2,-3.125e-2)"
       x1="11.998966"
       y1="2.7658634"
       x2="11.998966"
       y2="15.702114" />
    <linearGradient
       inkscape:collect="always"
       xlink:href="#StandardGradient"
       id="linearGradient3208"
       gradientUnits="userSpaceOnUse"
       gradientTransform="matrix(0.9219544,0,0,1.0846523,-1.7235065e-2,-3.125e-2)"
       x1="11.998966"
       y1="2.7658634"
       x2="11.998966"
       y2="15.702114" />
    <linearGradient
       inkscape:collect="always"
       xlink:href="#StandardGradient"
       id="linearGradient3213"
       gradientUnits="userSpaceOnUse"
       gradientTransform="matrix(0.9219544,0,0,1.0846523,-1.7235065e-2,-3.125e-2)"
       x1="11.998966"
       y1="2.7658634"
       x2="11.998966"
       y2="15.702114" />
    <linearGradient
       inkscape:collect="always"
       xlink:href="#StandardGradient"
       id="linearGradient3221"
       gradientUnits="userSpaceOnUse"
       gradientTransform="matrix(0.9219544,0,0,1.0846523,-1.7235065e-2,-3.125e-2)"
       x1="11.998966"
       y1="2.7658634"
       x2="11.998966"
       y2="15.702114" />
    <inkscape:perspective
       id="perspective2850"
       inkscape:persp3d-origin="0.5 : 0.33333333 : 1"
       inkscape:vp_z="1 : 0.5 : 1"
       inkscape:vp_y="0 : 1000 : 0"
       inkscape:vp_x="0 : 0.5 : 1"
       sodipodi:type="inkscape:persp3d" />
    <linearGradient
       inkscape:collect="always"
       xlink:href="#StandardGradient"
       id="linearGradient3644"
       gradientUnits="userSpaceOnUse"
       gradientTransform="matrix(0.9219544,0,0,1.0846523,-30.017235,-0.03125)"
       x1="11.998966"
       y1="2.7658634"
       x2="11.998966"
       y2="15.702114" />
    <clipPath
       clipPathUnits="userSpaceOnUse"
       id="clipPath3651">
      <path
         style="fill:#ff00ff;fill-opacity:1;stroke:none;display:inline"
         d="m -30,0 0,22 22,0 0,-22 -22,0 z m 4,2 3.96875,0 c 0.554,0 1,0.446 1,1 l 0,1 8.5,0 c 0.669688,0 1.243585,0.3963931 1.4375,1 C -11.04026,5.1544781 -11,5.326875 -11,5.5 l 0,0.5 -5,0 -1,0 -4.21875,0 L -27,6 l 0,-1 0,-2 c 0,-0.554 0.446,-1 1,-1 z m -0.5,5 5,0 8,0 2,0 c 0.831,0 1.5,0.669 1.5,1.5 l 0,8 c 0,0.831 -0.669,1.5 -1.5,1.5 l -0.5,0 0,0.25 0,1.25 c 0,0.831 -0.669,1.5 -1.5,1.5 l -8,0 c -0.831,0 -1.5,-0.669 -1.5,-1.5 l 0,-1.5 -3.5,0 c -0.831,0 -1.5,-0.669 -1.5,-1.5 l 0,-8 C -28,7.669 -27.331,7 -26.5,7 z m 6,2 C -20.777,9 -21,9.223 -21,9.5 l 0,9 c 0,0.277 0.223,0.5 0.5,0.5 l 6,0 c 0.277,0 0.5,-0.223 0.5,-0.5 l 0,-9 C -14,9.223 -14.223,9 -14.5,9 l -2.90625,0 -2.09375,0 -1,0 z"
         id="path3653" />
    </clipPath>
    <linearGradient
       inkscape:collect="always"
       xlink:href="#StandardGradient"
       id="linearGradient5006"
       gradientUnits="userSpaceOnUse"
       gradientTransform="matrix(0.9219544,0,0,1.0846523,-0.01723507,-0.03125)"
       x1="11.998966"
       y1="2.7658634"
       x2="11.998966"
       y2="15.702114" />
    <linearGradient
       inkscape:collect="always"
       xlink:href="#StandardGradient"
       id="linearGradient5010"
       gradientUnits="userSpaceOnUse"
       gradientTransform="matrix(0.9219544,0,0,1.0846523,-0.01723507,-0.03125)"
       x1="11.998966"
       y1="2.7658634"
       x2="11.998966"
       y2="15.702114" />
    <linearGradient
       inkscape:collect="always"
       xlink:href="#StandardGradient"
       id="linearGradient3796"
       gradientUnits="userSpaceOnUse"
       gradientTransform="matrix(0.9219544,0,0,1.0846523,-0.01723507,0.96875)"
       x1="11.998966"
       y1="2.7658634"
       x2="11.998966"
       y2="15.702114" />
    <linearGradient
       inkscape:collect="always"
       xlink:href="#StandardGradient"
       id="linearGradient3798"
       gradientUnits="userSpaceOnUse"
       gradientTransform="matrix(0.9219544,0,0,1.0846523,-0.01723507,-0.03125)"
       x1="11.998966"
       y1="2.7658634"
       x2="11.998966"
       y2="15.702114" />
    <linearGradient
       inkscape:collect="always"
       xlink:href="#StandardGradient"
       id="linearGradient3803"
       gradientUnits="userSpaceOnUse"
       gradientTransform="matrix(0.9219544,0,0,1.0846523,-0.01723507,0.96875)"
       x1="11.998966"
       y1="2.7658634"
       x2="11.998966"
       y2="15.702114" />
    <linearGradient
       inkscape:collect="always"
       xlink:href="#StandardGradient"
       id="linearGradient3807"
       gradientUnits="userSpaceOnUse"
       gradientTransform="matrix(0.9219544,0,0,1.0846523,-0.01723507,-0.03125)"
       x1="11.998966"
       y1="2.7658634"
       x2="11.998966"
       y2="15.702114" />
    <linearGradient
       inkscape:collect="always"
       xlink:href="#StandardGradient"
       id="linearGradient3814"
       gradientUnits="userSpaceOnUse"
       gradientTransform="matrix(0.9219544,0,0,1.0846523,-0.01723507,-0.03125)"
       x1="11.998966"
       y1="2.7658634"
       x2="11.998966"
       y2="15.702114" />
    <linearGradient
       inkscape:collect="always"
       xlink:href="#StandardGradient"
       id="linearGradient3818"
       gradientUnits="userSpaceOnUse"
       gradientTransform="matrix(0.9219544,0,0,1.0846523,-0.01723507,-0.03125)"
       x1="11.998966"
       y1="2.7658634"
       x2="11.998966"
       y2="15.702114" />
    <linearGradient
       inkscape:collect="always"
       xlink:href="#StandardGradient"
       id="linearGradient3045"
       gradientUnits="userSpaceOnUse"
       gradientTransform="matrix(0.9219544,0,0,1.0846523,-0.01723507,-0.03125)"
       x1="11.998966"
       y1="2.7658634"
       x2="11.998966"
       y2="15.702114" />
    <linearGradient
       inkscape:collect="always"
       xlink:href="#StandardGradient"
       id="linearGradient3826"
       gradientUnits="userSpaceOnUse"
       gradientTransform="matrix(0.9219544,0,0,1.0846523,-0.01723507,0.96875)"
       x1="11.998966"
       y1="2.7658634"
       x2="11.998966"
       y2="15.702114" />
    <linearGradient
       inkscape:collect="always"
       xlink:href="#StandardGradient"
       id="linearGradient3830"
       gradientUnits="userSpaceOnUse"
       gradientTransform="matrix(0.9219544,0,0,1.0846523,-0.01723507,-0.03125)"
       x1="11.998966"
       y1="2.7658634"
       x2="11.998966"
       y2="15.702114" />
    <linearGradient
       inkscape:collect="always"
       xlink:href="#StandardGradient"
       id="linearGradient3837"
       gradientUnits="userSpaceOnUse"
       gradientTransform="matrix(0.9219544,0,0,1.0846523,-0.01723507,-0.03125)"
       x1="11.998966"
       y1="2.7658634"
       x2="11.998966"
       y2="15.702114" />
    <linearGradient
       inkscape:collect="always"
       xlink:href="#StandardGradient"
       id="linearGradient3841"
       gradientUnits="userSpaceOnUse"
       gradientTransform="matrix(0.9219544,0,0,1.0846523,-0.01723507,-0.03125)"
       x1="11.998966"
       y1="2.7658634"
       x2="11.998966"
       y2="15.702114" />
  </defs>
  <metadata
     id="metadata7">
    <rdf:RDF>
      <cc:Work
         rdf:about="">
        <dc:format>image/svg+xml</dc:format>
        <dc:type
           rdf:resource="http://purl.org/dc/dcmitype/StillImage" />
      </cc:Work>
    </rdf:RDF>
  </metadata>
  <g
     style="display:inline"
     inkscape:label="Calque 1"
     id="layer1"
     inkscape:groupmode="layer">
    <path
       style="fill:#ffffff;fill-opacity:1;stroke:none;display:inline;opacity:0.15"
       d="M 4 0.96875 C 2.8936922 0.96875 1.96875 1.8936923 1.96875 3 L 1.96875 4 A 1.0291786 1.0291786 0 0 0 2.125 4.5625 C 1.4739241 5.0228405 0.96875 5.6526562 0.96875 6.5 L 0.96875 15.5 C 0.96875 16.883308 2.1166922 18.03125 3.5 18.03125 L 5.96875 18.03125 L 5.96875 18.5 C 5.96875 19.883308 7.1166922 21.03125 8.5 21.03125 L 16.5 21.03125 C 17.883308 21.03125 19.03125 19.883308 19.03125 18.5 L 19.03125 17.8125 C 20.131764 17.539616 21.03125 16.67771 21.03125 15.5 L 21.03125 6.5 C 21.03125 5.6422187 20.501127 4.9609132 19.8125 4.5 A 1.0291786 1.0291786 0 0 0 19.875 3.6875 C 19.540369 2.6458798 18.544516 1.96875 17.46875 1.96875 L 10 1.96875 L 9.5625 1.96875 C 9.1985724 1.4067672 8.6766619 0.96875 7.96875 0.96875 L 4 0.96875 z M 4 2 L 7.96875 2 C 8.52275 2 8.9687497 2.446 8.96875 3 L 10 3 L 17.46875 3 C 18.138438 3 18.712335 3.3963931 18.90625 4 L 3 4 L 3 3 C 3 2.446 3.4459999 2 4 2 z M 3.5 5 L 8.5 5 L 16.5 5 L 18.5 5 C 19.367041 5 20 5.669 20 6.5 L 20 15.5 C 20 16.331 19.331 17 18.5 17 L 18 17 L 18 17.25 L 18 18.5 C 18 19.331 17.331 20 16.5 20 L 8.5 20 C 7.669 20 7 19.331 7 18.5 L 7 17 L 3.5 17 C 2.669 17 2 16.331 2 15.5 L 2 6.5 C 2 5.669 2.669 5 3.5 5 z M 9.5 8 C 9.223 8 9 8.223 9 8.5 L 9 17.5 C 9 17.777 9.223 18 9.5 18 L 15.5 18 C 15.777 18 16 17.777 16 17.5 L 16 8.5 C 16 8.223 15.777 8 15.5 8 L 12.59375 8 L 10.5 8 L 9.5 8 z M 10.03125 9.03125 L 10.5 9.03125 L 12.59375 9.03125 L 14.96875 9.03125 L 14.96875 16.96875 L 10.03125 16.96875 L 10.03125 9.03125 z "
       id="path3839" />
    <path
       style="fill:url(#linearGradient3045);fill-opacity:1;stroke:none;display:inline"
       d="M 4,2 C 3.4459999,2 3,2.446 3,3 L 3,4 18.90625,4 C 18.712335,3.3963931 18.138438,3 17.46875,3 L 10,3 8.96875,3 c -3e-7,-0.554 -0.446,-1 -1,-1 L 4,2 z M 3.5,5 C 2.669,5 2,5.669 2,6.5 l 0,9 C 2,16.331 2.669,17 3.5,17 L 7,17 7,18.5 C 7,19.331 7.669,20 8.5,20 l 8,0 c 0.831,0 1.5,-0.669 1.5,-1.5 l 0,-1.25 0,-0.25 0.5,0 c 0.831,0 1.5,-0.669 1.5,-1.5 l 0,-9 C 20,5.669 19.367041,5 18.5,5 l -2,0 -8,0 -5,0 z m 6,3 1,0 2.09375,0 L 15.5,8 C 15.777,8 16,8.223 16,8.5 l 0,9 c 0,0.277 -0.223,0.5 -0.5,0.5 l -6,0 C 9.223,18 9,17.777 9,17.5 l 0,-9 C 9,8.223 9.223,8 9.5,8 z"
       id="path3034"
       inkscape:connector-curvature="0" />
    <path
       style="fill:#000000;fill-opacity:1;stroke:none;display:inline;opacity:0.5"
       d="M 4 2 C 3.4459999 2 3 2.446 3 3 L 3 4 C 3 3.446 3.4459999 3 4 3 L 7.96875 3 C 8.52275 3 8.9687497 3.446 8.96875 4 L 17.46875 4 L 18.90625 4 C 18.712335 3.3963931 18.138438 3 17.46875 3 L 10 3 L 8.96875 3 C 8.9687497 2.446 8.52275 2 7.96875 2 L 4 2 z M 3.5 5 C 2.669 5 2 5.669 2 6.5 L 2 7.5 C 2 6.669 2.669 6 3.5 6 L 8.5 6 L 16.5 6 L 18.5 6 C 19.367041 6 20 6.669 20 7.5 L 20 6.5 C 20 5.669 19.367041 5 18.5 5 L 3.5 5 z M 9 17.5 L 9 18.5 C 9 18.777 9.223 19 9.5 19 L 15.5 19 C 15.777 19 16 18.777 16 18.5 L 16 17.5 C 16 17.777 15.777 18 15.5 18 L 9.5 18 C 9.223 18 9 17.777 9 17.5 z "
       id="path3047" />
    <path
       style="fill:#ffffff;fill-opacity:1;stroke:none;display:inline;opacity:0.3"
       d="M 3 4 L 3 5 L 3.5 5 L 18.5 5 L 18.90625 5 C 18.712335 4.3963931 18.138438 4 17.46875 4 L 8.96875 4 L 3 4 z M 9.5 8 C 9.223 8 9 8.223 9 8.5 L 9 9.5 C 9 9.223 9.223 9 9.5 9 L 10.5 9 L 12.59375 9 L 15.5 9 C 15.777 9 16 9.223 16 9.5 L 16 8.5 C 16 8.223 15.777 8 15.5 8 L 12.59375 8 L 10.5 8 L 9.5 8 z M 2 15.5 L 2 16.5 C 2 17.331 2.669 18 3.5 18 L 7 18 L 7 17 L 3.5 17 C 2.669 17 2 16.331 2 15.5 z M 20 15.5 C 20 16.331 19.331 17 18.5 17 L 18 17 L 18 17.25 L 18 18 L 18.5 18 C 19.331 18 20 17.331 20 16.5 L 20 15.5 z M 7 18.5 L 7 19.5 C 7 20.331 7.669 21 8.5 21 L 16.5 21 C 17.331 21 18 20.331 18 19.5 L 18 18.5 C 18 19.331 17.331 20 16.5 20 L 8.5 20 C 7.669 20 7 19.331 7 18.5 z "
       id="path3824" />
  </g>
</svg>
