<?xml version="1.0" encoding="UTF-8" standalone="no"?>
<!-- Created with Inkscape (http://www.inkscape.org/) -->

<svg
   xmlns:dc="http://purl.org/dc/elements/1.1/"
   xmlns:cc="http://creativecommons.org/ns#"
   xmlns:rdf="http://www.w3.org/1999/02/22-rdf-syntax-ns#"
   xmlns:svg="http://www.w3.org/2000/svg"
   xmlns="http://www.w3.org/2000/svg"
   xmlns:xlink="http://www.w3.org/1999/xlink"
   xmlns:sodipodi="http://sodipodi.sourceforge.net/DTD/sodipodi-0.dtd"
   xmlns:inkscape="http://www.inkscape.org/namespaces/inkscape"
   width="22"
   height="22"
   id="svg2"
   sodipodi:version="0.32"
   inkscape:version="0.48.0 r9654"
   version="1.0"
   sodipodi:docname="go-bottom.svg"
   inkscape:output_extension="org.inkscape.output.svg.inkscape">
  <defs
     id="defs4">
    <inkscape:perspective
       sodipodi:type="inkscape:persp3d"
       inkscape:vp_x="0 : 11 : 1"
       inkscape:vp_y="0 : 1000 : 0"
       inkscape:vp_z="22 : 11 : 1"
       inkscape:persp3d-origin="11 : 7.3333333 : 1"
       id="perspective17" />
    <linearGradient
       id="StandardGradient"
       gradientTransform="matrix(0.930775,0,0,-1.0743735,0,22)"
       x1="10.743735"
       y1="16.766975"
       x2="10.743735"
       y2="3.6860142"
       gradientUnits="userSpaceOnUse">
      <stop
         id="stop3337"
         offset="0"
         style="stop-color:#000000;stop-opacity:0.86274511;" />
      <stop
         id="stop3339"
         offset="1"
         style="stop-color:#000000;stop-opacity:0.47058824;" />
    </linearGradient>
    <inkscape:perspective
       id="perspective2873"
       inkscape:persp3d-origin="0.5 : 0.33333333 : 1"
       inkscape:vp_z="1 : 0.5 : 1"
       inkscape:vp_y="0 : 1000 : 0"
       inkscape:vp_x="0 : 0.5 : 1"
       sodipodi:type="inkscape:persp3d" />
    <linearGradient
       inkscape:collect="always"
       xlink:href="#StandardGradient"
       id="linearGradient2853"
       gradientUnits="userSpaceOnUse"
       gradientTransform="matrix(0.930775,0,0,-1.0743735,-30,22)"
       x1="10.743735"
       y1="16.766975"
       x2="10.743735"
       y2="3.6860142" />
    <clipPath
       clipPathUnits="userSpaceOnUse"
       id="clipPath2860">
      <path
         style="fill:#ff00ff;fill-opacity:1;stroke:none;display:inline"
         d="m -30,0 0,22 22,0 0,-22 -22,0 z m 8,4 6.03125,0 0,5.03125 3.03125,0 L -19,18 -25.0625,9.03125 -22,9.03125 -22,4 z"
         id="path2862" />
    </clipPath>
    <linearGradient
       inkscape:collect="always"
       xlink:href="#StandardGradient"
       id="linearGradient2840"
       gradientUnits="userSpaceOnUse"
       gradientTransform="matrix(0.930775,0,0,-1.0743735,0,21)"
       x1="10.743735"
       y1="16.766975"
       x2="10.743735"
       y2="3.6860142" />
    <linearGradient
       inkscape:collect="always"
       xlink:href="#StandardGradient"
       id="linearGradient3629"
       gradientUnits="userSpaceOnUse"
       gradientTransform="matrix(0.930775,0,0,-1.0743735,0,21)"
       x1="10.743735"
       y1="16.766975"
       x2="10.743735"
       y2="1.86155" />
    <linearGradient
       inkscape:collect="always"
       xlink:href="#StandardGradient"
       id="linearGradient3633"
       gradientUnits="userSpaceOnUse"
       gradientTransform="matrix(0.930775,0,0,-1.0743735,-30,21)"
       x1="10.743735"
       y1="16.766975"
       x2="10.743735"
       y2="1.86155" />
    <clipPath
       clipPathUnits="userSpaceOnUse"
       id="clipPath3640">
      <path
         style="fill:#ff00ff;fill-opacity:1;stroke:none;display:inline"
         d="m -30,0 0,22 22,0 0,-22 -22,0 z m 8,3 6.03125,0 0,5.03125 3.03125,0 L -19,17 l 6,0 0,2 -12,0 0,-2 6,0 -6.0625,-8.96875 3.0625,0 L -22,3 z"
         id="path3642" />
    </clipPath>
    <filter
       inkscape:collect="always"
       id="filter3644">
      <feGaussianBlur
         inkscape:collect="always"
         stdDeviation="0.421875"
         id="feGaussianBlur3646" />
    </filter>
    <linearGradient
       inkscape:collect="always"
       xlink:href="#StandardGradient"
       id="linearGradient6059"
       gradientUnits="userSpaceOnUse"
       gradientTransform="matrix(0.930775,0,0,-1.0743735,0,21)"
       x1="10.743735"
       y1="16.766975"
       x2="10.743735"
       y2="1.86155" />
    <linearGradient
       inkscape:collect="always"
       xlink:href="#StandardGradient"
       id="linearGradient6063"
       gradientUnits="userSpaceOnUse"
       gradientTransform="matrix(0.930775,0,0,-1.0743735,0,21)"
       x1="10.743735"
       y1="16.766975"
       x2="10.743735"
       y2="1.86155" />
  </defs>
  <sodipodi:namedview
     id="base"
     pagecolor="#ffffff"
     bordercolor="#9a9a9a"
     borderopacity="1"
     inkscape:pageopacity="0.0"
     inkscape:pageshadow="2"
     inkscape:zoom="16.540628"
     inkscape:cx="2.6170488"
     inkscape:cy="1.6314947"
     inkscape:document-units="px"
     inkscape:current-layer="layer1"
     showgrid="true"
     inkscape:showpageshadow="false"
     showguides="true"
     inkscape:guide-bbox="true"
     inkscape:window-width="1920"
     inkscape:window-height="1029"
     inkscape:window-x="0"
     inkscape:window-y="25"
     inkscape:window-maximized="1">
    <sodipodi:guide
       orientation="1,0"
       position="0,112"
       id="guide2383" />
    <sodipodi:guide
       orientation="0,1"
       position="26.278146,128"
       id="guide2385" />
    <sodipodi:guide
       orientation="1,0"
       position="128,54.082119"
       id="guide2387" />
    <inkscape:grid
       type="xygrid"
       id="grid3672"
       visible="true"
       enabled="true" />
  </sodipodi:namedview>
  <metadata
     id="metadata7">
    <rdf:RDF>
      <cc:Work
         rdf:about="">
        <dc:format>image/svg+xml</dc:format>
        <dc:type
           rdf:resource="http://purl.org/dc/dcmitype/StillImage" />
      </cc:Work>
    </rdf:RDF>
  </metadata>
  <g
     inkscape:label="Calque 1"
     inkscape:groupmode="layer"
     id="layer1"
     style="display:inline">
    <path
       style="fill:#ffffff;fill-opacity:1;stroke:none;display:inline;opacity:0.15"
       d="M 7.8125 1.96875 A 1.0278751 1.0278751 0 0 0 6.96875 3 L 6.96875 7 L 4.9375 7 A 1.0278751 1.0278751 0 0 0 4.09375 8.59375 L 9.09375 15.96875 L 5 15.96875 A 1.0278751 1.0278751 0 0 0 3.96875 17 L 3.96875 19 A 1.0278751 1.0278751 0 0 0 5 20.03125 L 17 20.03125 A 1.0278751 1.0278751 0 0 0 18.03125 19 L 18.03125 17 A 1.0278751 1.0278751 0 0 0 17 15.96875 L 12.90625 15.96875 L 17.90625 8.59375 A 1.0278751 1.0278751 0 0 0 17.0625 7 L 15.0625 7 L 15.0625 3 A 1.0278751 1.0278751 0 0 0 14.03125 1.96875 L 8 1.96875 A 1.0278751 1.0278751 0 0 0 7.90625 1.96875 A 1.0278751 1.0278751 0 0 0 7.8125 1.96875 z M 8 3 L 14.03125 3 L 14.03125 8.03125 L 17.0625 8.03125 L 11 17 L 17 17 L 17 19 L 5 19 L 5 17 L 11 17 L 4.9375 8.03125 L 8 8.03125 L 8 3 z "
       id="path6061" />
    <path
       style="fill:url(#linearGradient3629);fill-opacity:1;stroke:none;display:inline"
       d="M 8 3 L 8 8.03125 L 4.9375 8.03125 L 11 17 L 17.0625 8.03125 L 14.03125 8.03125 L 14.03125 3 L 8 3 z M 11 17 L 5 17 L 5 19 L 17 19 L 17 17 L 11 17 z "
       id="Symbol" />
    <path
       style="opacity:0.3;fill:#ffffff;fill-opacity:1;stroke:none;display:inline"
       d="M 4.9375 8.03125 L 4.9375 9.03125 L 10.3125 17 L 11 17 L 4.9375 8.03125 z M 11 17 L 11.6875 17 L 17.0625 9.03125 L 17.0625 8.03125 L 11 17 z M 5 19 L 5 20 L 17 20 L 17 19 L 5 19 z "
       id="BevelHighlight" />
    <path
       style="opacity:0.5;fill:#1a1a1a;fill-opacity:1;stroke:none;display:inline"
       d="M 8 3 L 8 4.03125 L 14.03125 4.03125 L 14.03125 3 L 8 3 z M 4.9375 8.03125 L 5.625 9.03125 L 8 9.03125 L 8 8.03125 L 4.9375 8.03125 z M 14.03125 8.03125 L 14.03125 9.03125 L 16.375 9.03125 L 17.0625 8.03125 L 14.03125 8.03125 z M 5 17 L 5 18 L 17 18 L 17 17 L 5 17 z "
       id="BevelShadow" />
  </g>
</svg>
