<?xml version="1.0" encoding="UTF-8" standalone="no"?>
<!-- Created with Inkscape (http://www.inkscape.org/) -->

<svg
   xmlns:dc="http://purl.org/dc/elements/1.1/"
   xmlns:cc="http://creativecommons.org/ns#"
   xmlns:rdf="http://www.w3.org/1999/02/22-rdf-syntax-ns#"
   xmlns:svg="http://www.w3.org/2000/svg"
   xmlns="http://www.w3.org/2000/svg"
   xmlns:xlink="http://www.w3.org/1999/xlink"
   xmlns:sodipodi="http://sodipodi.sourceforge.net/DTD/sodipodi-0.dtd"
   xmlns:inkscape="http://www.inkscape.org/namespaces/inkscape"
   width="22"
   height="22"
   id="svg2"
   sodipodi:version="0.32"
   inkscape:version="0.48.0 r9654"
   version="1.0"
   sodipodi:docname="go-down.svg"
   inkscape:output_extension="org.inkscape.output.svg.inkscape">
  <defs
     id="defs4">
    <inkscape:perspective
       sodipodi:type="inkscape:persp3d"
       inkscape:vp_x="0 : 11 : 1"
       inkscape:vp_y="0 : 1000 : 0"
       inkscape:vp_z="22 : 11 : 1"
       inkscape:persp3d-origin="11 : 7.3333333 : 1"
       id="perspective17" />
    <linearGradient
       id="StandardGradient"
       gradientTransform="matrix(0.930775,0,0,-1.0743735,0,22)"
       x1="10.743735"
       y1="16.766975"
       x2="10.743735"
       y2="3.6860142"
       gradientUnits="userSpaceOnUse">
      <stop
         id="stop3337"
         offset="0"
         style="stop-color:#000000;stop-opacity:0.86274511;" />
      <stop
         id="stop3339"
         offset="1"
         style="stop-color:#000000;stop-opacity:0.47058824;" />
    </linearGradient>
    <inkscape:perspective
       id="perspective2873"
       inkscape:persp3d-origin="0.5 : 0.33333333 : 1"
       inkscape:vp_z="1 : 0.5 : 1"
       inkscape:vp_y="0 : 1000 : 0"
       inkscape:vp_x="0 : 0.5 : 1"
       sodipodi:type="inkscape:persp3d" />
    <linearGradient
       inkscape:collect="always"
       xlink:href="#StandardGradient"
       id="linearGradient2853"
       gradientUnits="userSpaceOnUse"
       gradientTransform="matrix(0.930775,0,0,-1.0743735,-30,22)"
       x1="10.743735"
       y1="16.766975"
       x2="10.743735"
       y2="3.6860142" />
    <clipPath
       clipPathUnits="userSpaceOnUse"
       id="clipPath2860">
      <path
         style="fill:#ff00ff;fill-opacity:1;stroke:none;display:inline"
         d="m -30,0 0,22 22,0 0,-22 -22,0 z m 8,4 6.03125,0 0,5.03125 3.03125,0 L -19,18 -25.0625,9.03125 -22,9.03125 -22,4 z"
         id="path2862" />
    </clipPath>
    <filter
       inkscape:collect="always"
       id="filter3636">
      <feGaussianBlur
         inkscape:collect="always"
         stdDeviation="0.39114832"
         id="feGaussianBlur3638" />
    </filter>
    <linearGradient
       inkscape:collect="always"
       xlink:href="#StandardGradient"
       id="linearGradient5540"
       gradientUnits="userSpaceOnUse"
       gradientTransform="matrix(0.930775,0,0,-1.0743735,0,22)"
       x1="10.743735"
       y1="16.766975"
       x2="10.743735"
       y2="3.6860142" />
    <linearGradient
       inkscape:collect="always"
       xlink:href="#StandardGradient"
       id="linearGradient5544"
       gradientUnits="userSpaceOnUse"
       gradientTransform="matrix(0.930775,0,0,-1.0743735,0,22)"
       x1="10.743735"
       y1="16.766975"
       x2="10.743735"
       y2="3.6860142" />
  </defs>
  <sodipodi:namedview
     id="base"
     pagecolor="#ffffff"
     bordercolor="#9a9a9a"
     borderopacity="1"
     inkscape:pageopacity="0.0"
     inkscape:pageshadow="2"
     inkscape:zoom="11.730942"
     inkscape:cx="-26.891108"
     inkscape:cy="2.37224"
     inkscape:document-units="px"
     inkscape:current-layer="layer1"
     showgrid="true"
     inkscape:showpageshadow="false"
     showguides="true"
     inkscape:guide-bbox="true"
     inkscape:window-width="1920"
     inkscape:window-height="1029"
     inkscape:window-x="0"
     inkscape:window-y="25"
     inkscape:window-maximized="1">
    <sodipodi:guide
       orientation="1,0"
       position="0,112"
       id="guide2383" />
    <sodipodi:guide
       orientation="0,1"
       position="26.278146,128"
       id="guide2385" />
    <sodipodi:guide
       orientation="1,0"
       position="128,54.082119"
       id="guide2387" />
    <inkscape:grid
       type="xygrid"
       id="grid3672"
       visible="true"
       enabled="true" />
  </sodipodi:namedview>
  <metadata
     id="metadata7">
    <rdf:RDF>
      <cc:Work
         rdf:about="">
        <dc:format>image/svg+xml</dc:format>
        <dc:type
           rdf:resource="http://purl.org/dc/dcmitype/StillImage" />
      </cc:Work>
    </rdf:RDF>
  </metadata>
  <g
     inkscape:label="Calque 1"
     inkscape:groupmode="layer"
     id="layer1"
     style="display:inline">
    <path
       style="fill:#ffffff;fill-opacity:1;stroke:none;display:inline;opacity:0.15"
       d="M 7.8125 3 A 0.99786275 0.99786275 0 0 0 7 4 L 7 8.03125 L 4.9375 8.03125 A 0.99786275 0.99786275 0 0 0 4.125 9.59375 L 10.1875 18.5625 A 0.99786275 0.99786275 0 0 0 11.8125 18.5625 L 17.875 9.59375 A 0.99786275 0.99786275 0 0 0 17.0625 8.03125 L 15.03125 8.03125 L 15.03125 4 A 0.99786275 0.99786275 0 0 0 14.03125 3 L 8 3 A 0.99786275 0.99786275 0 0 0 7.90625 3 A 0.99786275 0.99786275 0 0 0 7.8125 3 z M 8 4 L 14.03125 4 L 14.03125 9.03125 L 17.0625 9.03125 L 11 18 L 4.9375 9.03125 L 8 9.03125 L 8 4 z "
       id="path5542" />
    <path
       style="opacity:1;fill:url(#StandardGradient);fill-opacity:1;stroke:none;stroke-width:0.99999970000000005;stroke-linecap:round;stroke-linejoin:miter;stroke-miterlimit:4;stroke-dasharray:none;stroke-opacity:1;display:inline"
       d="M 4.947729,9.0268336 L 10.997604,17.986005 L 17.052271,9.0268336 L 14.026692,9.0268336 L 14.026692,4.0139946 L 7.989208,4.0139946 L 8,9.0268336 L 4.947729,9.0268336 z"
       id="Symbol"
       sodipodi:nodetypes="cccccccc"
       inkscape:label="#path2493" />
    <path
       style="opacity:0.5;fill:#1a1a1a;fill-opacity:1;stroke:none;stroke-width:0.99999970000000005;stroke-linecap:round;stroke-linejoin:miter;stroke-miterlimit:4;stroke-dasharray:none;stroke-opacity:1;display:inline"
       d="M 8 4 L 8 5.03125 L 14.03125 5.03125 L 14.03125 4 L 8 4 z M 4.9375 9.03125 L 5.625 10.03125 L 8 10.03125 L 8 9.03125 L 4.9375 9.03125 z M 14.03125 9.03125 L 14.03125 10.03125 L 16.375 10.03125 L 17.0625 9.03125 L 14.03125 9.03125 z "
       id="BevelShadow"
       inkscape:label="#path2390" />
    <path
       style="opacity:0.3;fill:#ffffff;fill-opacity:1;stroke:none;stroke-width:0.99999970000000005;stroke-linecap:round;stroke-linejoin:miter;stroke-miterlimit:4;stroke-dasharray:none;stroke-opacity:1;display:inline"
       d="M 4.9375 9.03125 L 4.9375 10.03125 L 11 19 L 17.0625 10.03125 L 17.0625 9.03125 L 11 18 L 4.9375 9.03125 z "
       id="BevelHighlight"
       inkscape:label="#path3167" />
  </g>
</svg>
