<?xml version="1.0" encoding="UTF-8" standalone="no"?>
<!-- Created with Inkscape (http://www.inkscape.org/) -->

<svg
   xmlns:dc="http://purl.org/dc/elements/1.1/"
   xmlns:cc="http://creativecommons.org/ns#"
   xmlns:rdf="http://www.w3.org/1999/02/22-rdf-syntax-ns#"
   xmlns:svg="http://www.w3.org/2000/svg"
   xmlns="http://www.w3.org/2000/svg"
   xmlns:xlink="http://www.w3.org/1999/xlink"
   xmlns:sodipodi="http://sodipodi.sourceforge.net/DTD/sodipodi-0.dtd"
   xmlns:inkscape="http://www.inkscape.org/namespaces/inkscape"
   width="22"
   height="22"
   id="svg2"
   sodipodi:version="0.32"
   inkscape:version="0.48.0 r9654"
   version="1.0"
   sodipodi:docname="go-up.svg"
   inkscape:output_extension="org.inkscape.output.svg.inkscape">
  <defs
     id="defs4">
    <inkscape:perspective
       sodipodi:type="inkscape:persp3d"
       inkscape:vp_x="0 : 11 : 1"
       inkscape:vp_y="0 : 1000 : 0"
       inkscape:vp_z="22 : 11 : 1"
       inkscape:persp3d-origin="11 : 7.3333333 : 1"
       id="perspective17" />
    <linearGradient
       id="StandardGradient"
       gradientTransform="scale(0.930775,1.0743735)"
       x1="12.80275"
       y1="3.7361259"
       x2="12.80275"
       y2="16.759111"
       gradientUnits="userSpaceOnUse">
      <stop
         id="stop3337"
         offset="0"
         style="stop-color:#000000;stop-opacity:0.86274511;" />
      <stop
         id="stop3339"
         offset="1"
         style="stop-color:#000000;stop-opacity:0.47058824;" />
    </linearGradient>
    <inkscape:perspective
       id="perspective2850"
       inkscape:persp3d-origin="0.5 : 0.33333333 : 1"
       inkscape:vp_z="1 : 0.5 : 1"
       inkscape:vp_y="0 : 1000 : 0"
       inkscape:vp_x="0 : 0.5 : 1"
       sodipodi:type="inkscape:persp3d" />
    <linearGradient
       inkscape:collect="always"
       xlink:href="#StandardGradient"
       id="linearGradient3626"
       gradientUnits="userSpaceOnUse"
       gradientTransform="matrix(0.930775,0,0,1.0743735,-30,0)"
       x1="12.80275"
       y1="3.7361259"
       x2="12.80275"
       y2="16.759111" />
    <clipPath
       clipPathUnits="userSpaceOnUse"
       id="clipPath3635">
      <path
         style="fill:#ff00ff;fill-opacity:1;stroke:none;display:inline"
         d="m -30,0 0,22 22,0 0,-22 -22,0 z m 11,4 6.0625,8.96875 -3.03125,0 0,5.03125 -6.03125,0 0,-5.03125 -3.0625,0 L -19,4 z"
         id="path3637" />
    </clipPath>
    <filter
       inkscape:collect="always"
       id="filter3639">
      <feGaussianBlur
         inkscape:collect="always"
         stdDeviation="0.39114832"
         id="feGaussianBlur3641" />
    </filter>
    <linearGradient
       inkscape:collect="always"
       xlink:href="#StandardGradient"
       id="linearGradient3966"
       gradientUnits="userSpaceOnUse"
       gradientTransform="scale(0.930775,1.0743735)"
       x1="12.80275"
       y1="3.7361259"
       x2="12.80275"
       y2="16.759111" />
    <linearGradient
       inkscape:collect="always"
       xlink:href="#StandardGradient"
       id="linearGradient3970"
       gradientUnits="userSpaceOnUse"
       gradientTransform="scale(0.930775,1.0743735)"
       x1="12.80275"
       y1="3.7361259"
       x2="12.80275"
       y2="16.759111" />
  </defs>
  <sodipodi:namedview
     id="base"
     pagecolor="#ffffff"
     bordercolor="#9a9a9a"
     borderopacity="1"
     inkscape:pageopacity="0.0"
     inkscape:pageshadow="2"
     inkscape:zoom="11.730942"
     inkscape:cx="-37.097827"
     inkscape:cy="-1.75431"
     inkscape:document-units="px"
     inkscape:current-layer="layer1"
     showgrid="true"
     inkscape:showpageshadow="false"
     showguides="true"
     inkscape:guide-bbox="true"
     inkscape:window-width="1920"
     inkscape:window-height="1029"
     inkscape:window-x="0"
     inkscape:window-y="25"
     inkscape:window-maximized="1">
    <sodipodi:guide
       orientation="1,0"
       position="0,112"
       id="guide2383" />
    <sodipodi:guide
       orientation="0,1"
       position="26.278146,128"
       id="guide2385" />
    <sodipodi:guide
       orientation="1,0"
       position="128,54.082119"
       id="guide2387" />
    <inkscape:grid
       type="xygrid"
       id="grid3672"
       visible="true"
       enabled="true" />
  </sodipodi:namedview>
  <metadata
     id="metadata7">
    <rdf:RDF>
      <cc:Work
         rdf:about="">
        <dc:format>image/svg+xml</dc:format>
        <dc:type
           rdf:resource="http://purl.org/dc/dcmitype/StillImage" />
      </cc:Work>
    </rdf:RDF>
  </metadata>
  <g
     inkscape:label="Calque 1"
     inkscape:groupmode="layer"
     id="layer1"
     style="display:inline">
    <path
       style="fill:#ffffff;fill-opacity:1;stroke:none;display:inline;opacity:0.15"
       d="M 10.875 3.03125 A 0.97203568 0.97203568 0 0 0 10.1875 3.46875 L 4.125 12.4375 A 0.97203568 0.97203568 0 0 0 4.9375 13.9375 L 7.03125 13.9375 L 7.03125 18 A 0.97203568 0.97203568 0 0 0 8 18.96875 L 14.03125 18.96875 A 0.97203568 0.97203568 0 0 0 15 18 L 15 13.9375 L 17.0625 13.9375 A 0.97203568 0.97203568 0 0 0 17.875 12.4375 L 11.8125 3.46875 A 0.97203568 0.97203568 0 0 0 10.875 3.03125 z M 11 4 L 17.0625 12.96875 L 14.03125 12.96875 L 14.03125 18 L 8 18 L 8 12.96875 L 4.9375 12.96875 L 11 4 z "
       id="path3968" />
    <path
       style="opacity:1;fill:url(#StandardGradient);fill-opacity:1;stroke:none;stroke-width:0.99999970000000005;stroke-linecap:round;stroke-linejoin:miter;stroke-miterlimit:4;stroke-dasharray:none;stroke-opacity:1;display:inline"
       d="M 4.947729,12.973166 L 10.997604,4.0139946 L 17.052271,12.973166 L 14.026692,12.973166 L 14.026692,17.986005 L 7.989208,17.986005 L 8,12.973166 L 4.947729,12.973166 z"
       id="Symbol"
       sodipodi:nodetypes="cccccccc"
       inkscape:label="#path2493" />
    <path
       style="opacity:0.5;fill:#000000;fill-opacity:1;stroke:none;stroke-width:0.99999970000000005;stroke-linecap:round;stroke-linejoin:miter;stroke-miterlimit:4;stroke-dasharray:none;stroke-opacity:1;display:inline"
       d="M 11 4 L 4.9375 12.96875 L 5.625 12.96875 L 11 5.03125 L 16.375 12.96875 L 17.0625 12.96875 L 11 4 z "
       id="BevelShadow"
       inkscape:label="#path3173" />
    <path
       style="opacity:0.3;fill:#ffffff;fill-opacity:1;stroke:none;stroke-width:0.99999970000000005;stroke-linecap:round;stroke-linejoin:miter;stroke-miterlimit:4;stroke-dasharray:none;stroke-opacity:1;display:inline"
       d="M 4.9375 12.96875 L 4.9375 14 L 8 14 L 8 12.96875 L 4.9375 12.96875 z M 14.03125 12.96875 L 14.03125 14 L 17.0625 14 L 17.0625 12.96875 L 14.03125 12.96875 z M 8 18 L 8 19 L 14.03125 19 L 14.03125 18 L 8 18 z "
       id="BevelHighlight"
       inkscape:label="#path3180" />
  </g>
</svg>
