<?xml version="1.0" encoding="UTF-8" standalone="no"?>
<!-- Created with Inkscape (http://www.inkscape.org/) -->

<svg
   xmlns:dc="http://purl.org/dc/elements/1.1/"
   xmlns:cc="http://creativecommons.org/ns#"
   xmlns:rdf="http://www.w3.org/1999/02/22-rdf-syntax-ns#"
   xmlns:svg="http://www.w3.org/2000/svg"
   xmlns="http://www.w3.org/2000/svg"
   xmlns:xlink="http://www.w3.org/1999/xlink"
   xmlns:sodipodi="http://sodipodi.sourceforge.net/DTD/sodipodi-0.dtd"
   xmlns:inkscape="http://www.inkscape.org/namespaces/inkscape"
   width="22"
   height="22"
   id="svg2"
   sodipodi:version="0.32"
   inkscape:version="0.48.0 r9654"
   version="1.0"
   sodipodi:docname="media-playback-pause.svg"
   inkscape:output_extension="org.inkscape.output.svg.inkscape">
  <defs
     id="defs4">
    <inkscape:perspective
       sodipodi:type="inkscape:persp3d"
       inkscape:vp_x="0 : 11 : 1"
       inkscape:vp_y="0 : 1000 : 0"
       inkscape:vp_z="22 : 11 : 1"
       inkscape:persp3d-origin="11 : 7.3333333 : 1"
       id="perspective18" />
    <linearGradient
       id="StandardGradient"
       gradientTransform="matrix(1.6041892,0,0,1.8958598,-4.6625321,-10.120214)"
       x1="9.2363071"
       y1="7.4479208"
       x2="9.2363071"
       y2="14.311561"
       gradientUnits="userSpaceOnUse">
      <stop
         style="stop-color:#000000;stop-opacity:0.86274511;"
         offset="0"
         id="stop3389" />
      <stop
         style="stop-color:#000000;stop-opacity:0.47058824;"
         offset="1"
         id="stop3391" />
    </linearGradient>
    <linearGradient
       inkscape:collect="always"
       xlink:href="#StandardGradient"
       id="linearGradient2415"
       gradientUnits="userSpaceOnUse"
       gradientTransform="matrix(1.6041892,0,0,1.8958598,15.337468,-10.120214)"
       x1="9.2363071"
       y1="7.4479208"
       x2="9.2363071"
       y2="14.311561" />
    <inkscape:perspective
       id="perspective2850"
       inkscape:persp3d-origin="0.5 : 0.33333333 : 1"
       inkscape:vp_z="1 : 0.5 : 1"
       inkscape:vp_y="0 : 1000 : 0"
       inkscape:vp_x="0 : 0.5 : 1"
       sodipodi:type="inkscape:persp3d" />
    <linearGradient
       inkscape:collect="always"
       xlink:href="#StandardGradient"
       id="linearGradient3627"
       gradientUnits="userSpaceOnUse"
       gradientTransform="matrix(1.6041892,0,0,1.8958598,-14.662532,-10.120214)"
       x1="9.2363071"
       y1="7.4479208"
       x2="9.2363071"
       y2="14.311561" />
    <clipPath
       clipPathUnits="userSpaceOnUse"
       id="clipPath3634">
      <path
         style="fill:#ff00ff;fill-opacity:1;stroke:none;display:inline"
         d="m -30,0 0,22 22,0 0,-22 -22,0 z m 6,5 4,0 0,12 -4,0 0,-12 z m 6,0 4,0 0,12 -4,0 0,-12 z"
         id="path3636" />
    </clipPath>
    <filter
       inkscape:collect="always"
       id="filter3638">
      <feGaussianBlur
         inkscape:collect="always"
         stdDeviation="0.33"
         id="feGaussianBlur3640" />
    </filter>
    <linearGradient
       inkscape:collect="always"
       xlink:href="#StandardGradient"
       id="linearGradient5020"
       gradientUnits="userSpaceOnUse"
       gradientTransform="matrix(1.6041892,0,0,1.8958598,15.337468,-10.120214)"
       x1="9.2363071"
       y1="7.4479208"
       x2="9.2363071"
       y2="14.311561" />
    <linearGradient
       inkscape:collect="always"
       xlink:href="#StandardGradient"
       id="linearGradient5024"
       gradientUnits="userSpaceOnUse"
       gradientTransform="matrix(1.6041892,0,0,1.8958598,15.337468,-10.120214)"
       x1="9.2363071"
       y1="7.4479208"
       x2="9.2363071"
       y2="14.311561" />
  </defs>
  <sodipodi:namedview
     id="base"
     pagecolor="#ffffff"
     bordercolor="#e7e7e7"
     borderopacity="1"
     inkscape:pageopacity="0.0"
     inkscape:pageshadow="2"
     inkscape:zoom="11.69599"
     inkscape:cx="-40.561406"
     inkscape:cy="15.005179"
     inkscape:document-units="px"
     inkscape:current-layer="layer1"
     showgrid="true"
     inkscape:showpageshadow="false"
     showguides="false"
     inkscape:guide-bbox="true"
     inkscape:window-width="1920"
     inkscape:window-height="1029"
     inkscape:window-x="0"
     inkscape:window-y="25"
     inkscape:window-maximized="1">
    <sodipodi:guide
       orientation="1,0"
       position="0,112"
       id="guide2383" />
    <sodipodi:guide
       orientation="0,1"
       position="78.156291,0"
       id="guide2389" />
    <inkscape:grid
       type="xygrid"
       id="grid3672"
       visible="true"
       enabled="true"
       empspacing="8"
       snapvisiblegridlinesonly="true" />
    <sodipodi:guide
       orientation="1,0"
       position="22.008699,4.1542523"
       id="guide2950" />
    <sodipodi:guide
       orientation="0,1"
       position="11.22532,22.008699"
       id="guide2952" />
  </sodipodi:namedview>
  <metadata
     id="metadata7">
    <rdf:RDF>
      <cc:Work
         rdf:about="">
        <dc:format>image/svg+xml</dc:format>
        <dc:type
           rdf:resource="http://purl.org/dc/dcmitype/StillImage" />
      </cc:Work>
    </rdf:RDF>
  </metadata>
  <g
     inkscape:label="Calque 1"
     inkscape:groupmode="layer"
     id="layer1">
    <path
       style="fill:#ffffff;fill-opacity:1;fill-rule:nonzero;stroke:none;opacity:0.15"
       d="M 5.875 3.84375 A 1.1630337 1.1630337 0 0 0 4.84375 5 L 4.84375 17 A 1.1630337 1.1630337 0 0 0 6 18.15625 L 10 18.15625 A 1.1630337 1.1630337 0 0 0 11 17.59375 A 1.1630337 1.1630337 0 0 0 12 18.15625 L 16 18.15625 A 1.1630337 1.1630337 0 0 0 17.15625 17 L 17.15625 5 A 1.1630337 1.1630337 0 0 0 16 3.84375 L 12 3.84375 A 1.1630337 1.1630337 0 0 0 11 4.40625 A 1.1630337 1.1630337 0 0 0 10 3.84375 L 6 3.84375 A 1.1630337 1.1630337 0 0 0 5.875 3.84375 z M 6 5 L 10 5 L 10 17 L 6 17 L 6 5 z M 12 5 L 16 5 L 16 17 L 12 17 L 12 5 z "
       id="path5022" />
    <path
       style="opacity:1;fill:url(#linearGradient2415);fill-opacity:1;fill-rule:nonzero;stroke:none;stroke-width:1;stroke-linecap:square;stroke-linejoin:round;stroke-miterlimit:4;stroke-dasharray:none;stroke-dashoffset:0;stroke-opacity:1"
       d="M 6,5 L 6,17 L 10,17 L 10,5 L 6,5 z M 12,5 L 12,17 L 16,17 L 16,5 L 12,5 z"
       id="Symbol"
       sodipodi:nodetypes="cccccccccc" />
    <path
       style="opacity:0.5;fill:#000000;fill-opacity:1;fill-rule:nonzero;stroke:none;stroke-width:1;stroke-linecap:square;stroke-linejoin:round;stroke-miterlimit:4;stroke-dasharray:none;stroke-dashoffset:0;stroke-opacity:1"
       d="M 6 5 L 6 6 L 10 6 L 10 5 L 6 5 z M 12 5 L 12 6 L 16 6 L 16 5 L 12 5 z "
       id="BevelShadow"
       inkscape:label="#path2417" />
    <path
       id="BevelHighlight"
       d="M 6,17 L 6,18 L 10,18 L 10,17 L 6,17 z M 12,17 L 12,18 L 16,18 L 16,17 L 12,17 z"
       style="opacity:0.3;fill:#ffffff;fill-opacity:1;fill-rule:nonzero;stroke:none;stroke-width:1;stroke-linecap:square;stroke-linejoin:round;stroke-miterlimit:4;stroke-dasharray:none;stroke-dashoffset:0;stroke-opacity:1"
       inkscape:label="#path3192" />
  </g>
</svg>
