<?xml version="1.0" encoding="UTF-8" standalone="no"?>
<!-- Created with Inkscape (http://www.inkscape.org/) -->

<svg
   xmlns:dc="http://purl.org/dc/elements/1.1/"
   xmlns:cc="http://creativecommons.org/ns#"
   xmlns:rdf="http://www.w3.org/1999/02/22-rdf-syntax-ns#"
   xmlns:svg="http://www.w3.org/2000/svg"
   xmlns="http://www.w3.org/2000/svg"
   xmlns:xlink="http://www.w3.org/1999/xlink"
   xmlns:sodipodi="http://sodipodi.sourceforge.net/DTD/sodipodi-0.dtd"
   xmlns:inkscape="http://www.inkscape.org/namespaces/inkscape"
   inkscape:output_extension="org.inkscape.output.svg.inkscape"
   sodipodi:docname="system-run.svg"
   version="1.0"
   inkscape:version="0.48.0 r9654"
   sodipodi:version="0.32"
   id="svg2"
   height="22"
   width="22">
  <defs
     id="defs4">
    <inkscape:perspective
       sodipodi:type="inkscape:persp3d"
       inkscape:vp_x="0 : 11 : 1"
       inkscape:vp_y="0 : 1000 : 0"
       inkscape:vp_z="22 : 11 : 1"
       inkscape:persp3d-origin="11 : 7.3333333 : 1"
       id="perspective22" />
    <linearGradient
       id="ShadowGradient">
      <stop
         style="stop-color:#000000;stop-opacity:1;"
         offset="0"
         id="stop3393" />
      <stop
         style="stop-color:#000000;stop-opacity:0;"
         offset="1"
         id="stop3395" />
    </linearGradient>
    <linearGradient
       id="StandardGradient">
      <stop
         style="stop-color:#000000;stop-opacity:0.86274511;"
         offset="0"
         id="stop3389" />
      <stop
         style="stop-color:#000000;stop-opacity:0.47058824;"
         offset="1"
         id="stop3391" />
    </linearGradient>
    <linearGradient
       inkscape:collect="always"
       xlink:href="#StandardGradient"
       id="linearGradient3227"
       gradientUnits="userSpaceOnUse"
       gradientTransform="translate(1,-2)"
       x1="9.75"
       y1="5"
       x2="9.75"
       y2="21.001953" />
    <inkscape:perspective
       id="perspective2850"
       inkscape:persp3d-origin="0.5 : 0.33333333 : 1"
       inkscape:vp_z="1 : 0.5 : 1"
       inkscape:vp_y="0 : 1000 : 0"
       inkscape:vp_x="0 : 0.5 : 1"
       sodipodi:type="inkscape:persp3d" />
    <linearGradient
       inkscape:collect="always"
       xlink:href="#StandardGradient"
       id="linearGradient3564"
       gradientUnits="userSpaceOnUse"
       gradientTransform="translate(1,-32)"
       x1="9.75"
       y1="5"
       x2="9.75"
       y2="21.001953" />
    <inkscape:perspective
       id="perspective2896"
       inkscape:persp3d-origin="0.5 : 0.33333333 : 1"
       inkscape:vp_z="1 : 0.5 : 1"
       inkscape:vp_y="0 : 1000 : 0"
       inkscape:vp_x="0 : 0.5 : 1"
       sodipodi:type="inkscape:persp3d" />
    <linearGradient
       inkscape:collect="always"
       xlink:href="#linearGradient4081"
       id="linearGradient3669"
       gradientUnits="userSpaceOnUse"
       gradientTransform="matrix(0.15660811,0.04196301,0.04196302,-0.15660807,9.2762575,19.094875)"
       x1="20.758585"
       y1="1"
       x2="20.758585"
       y2="45.017357" />
    <linearGradient
       id="linearGradient4081">
      <stop
         style="stop-color:#aaaaaa;stop-opacity:1;"
         offset="0"
         id="stop4083" />
      <stop
         style="stop-color:#f0f0f0;stop-opacity:1;"
         offset="1"
         id="stop4085" />
    </linearGradient>
    <linearGradient
       inkscape:collect="always"
       xlink:href="#linearGradient4081"
       id="linearGradient3665"
       gradientUnits="userSpaceOnUse"
       gradientTransform="matrix(0.93022994,0,0,-0.93022994,23.674475,61.395341)"
       x1="20.758585"
       y1="1"
       x2="20.758585"
       y2="45.017357" />
    <linearGradient
       id="linearGradient2905">
      <stop
         style="stop-color:#aaaaaa;stop-opacity:1;"
         offset="0"
         id="stop2907" />
      <stop
         style="stop-color:#f0f0f0;stop-opacity:1;"
         offset="1"
         id="stop2909" />
    </linearGradient>
    <linearGradient
       y2="45.017357"
       x2="20.758585"
       y1="1"
       x1="20.758585"
       gradientTransform="matrix(0.27906888,0,0,-0.27906888,3.302342,14.418579)"
       gradientUnits="userSpaceOnUse"
       id="linearGradient2913"
       xlink:href="#linearGradient4081"
       inkscape:collect="always" />
    <linearGradient
       inkscape:collect="always"
       xlink:href="#StandardGradient"
       id="linearGradient4377"
       gradientUnits="userSpaceOnUse"
       gradientTransform="matrix(0.41860332,0,0,0.41860332,0.9535131,1.3721447)"
       x1="20.758585"
       y1="1"
       x2="20.758585"
       y2="45.017357" />
    <linearGradient
       inkscape:collect="always"
       xlink:href="#StandardGradient"
       id="linearGradient4383"
       gradientUnits="userSpaceOnUse"
       gradientTransform="matrix(0.41860332,0,0,0.41860332,0.9535131,2.3721447)"
       x1="20.758585"
       y1="1"
       x2="20.758585"
       y2="45.017357" />
    <linearGradient
       inkscape:collect="always"
       xlink:href="#StandardGradient"
       id="linearGradient4385"
       gradientUnits="userSpaceOnUse"
       gradientTransform="matrix(0.41860332,0,0,0.41860332,0.9535131,1.3721447)"
       x1="20.758585"
       y1="1"
       x2="20.758585"
       y2="45.017357" />
    <linearGradient
       inkscape:collect="always"
       xlink:href="#StandardGradient"
       id="linearGradient4390"
       gradientUnits="userSpaceOnUse"
       gradientTransform="matrix(0.41860332,0,0,0.41860332,0.9535131,2.3721447)"
       x1="20.758585"
       y1="1"
       x2="20.758585"
       y2="45.017357" />
    <linearGradient
       inkscape:collect="always"
       xlink:href="#StandardGradient"
       id="linearGradient4394"
       gradientUnits="userSpaceOnUse"
       gradientTransform="matrix(0.41860332,0,0,0.41860332,0.9535131,1.3721447)"
       x1="20.758585"
       y1="1"
       x2="20.758585"
       y2="45.017357" />
    <linearGradient
       inkscape:collect="always"
       xlink:href="#StandardGradient"
       id="linearGradient4399"
       gradientUnits="userSpaceOnUse"
       gradientTransform="matrix(0.41860332,0,0,0.41860332,-29.046487,1.3721447)"
       x1="20.758585"
       y1="1"
       x2="20.758585"
       y2="45.017357" />
    <inkscape:perspective
       id="perspective4416"
       inkscape:persp3d-origin="0.5 : 0.33333333 : 1"
       inkscape:vp_z="1 : 0.5 : 1"
       inkscape:vp_y="0 : 1000 : 0"
       inkscape:vp_x="0 : 0.5 : 1"
       sodipodi:type="inkscape:persp3d" />
    <linearGradient
       inkscape:collect="always"
       xlink:href="#StandardGradient-9"
       id="linearGradient4377-4"
       gradientUnits="userSpaceOnUse"
       gradientTransform="matrix(0.41860332,0,0,0.41860332,0.9535131,1.3721447)"
       x1="20.758585"
       y1="1"
       x2="20.758585"
       y2="45.017357" />
    <linearGradient
       id="StandardGradient-9">
      <stop
         style="stop-color:#000000;stop-opacity:0.86274511;"
         offset="0"
         id="stop3389-8" />
      <stop
         style="stop-color:#000000;stop-opacity:0.47058824;"
         offset="1"
         id="stop3391-3" />
    </linearGradient>
    <linearGradient
       y2="45.017357"
       x2="20.758585"
       y1="1"
       x1="20.758585"
       gradientTransform="matrix(0.41860332,0,0,0.41860332,0.9535131,1.3721447)"
       gradientUnits="userSpaceOnUse"
       id="linearGradient4427"
       xlink:href="#StandardGradient-9"
       inkscape:collect="always" />
    <linearGradient
       inkscape:collect="always"
       xlink:href="#StandardGradient-9"
       id="linearGradient4454"
       gradientUnits="userSpaceOnUse"
       gradientTransform="matrix(0.41860332,0,0,0.41860332,-29.046487,1.3721447)"
       x1="20.758585"
       y1="1"
       x2="20.758585"
       y2="45.017357" />
    <clipPath
       clipPathUnits="userSpaceOnUse"
       id="clipPath4461">
      <path
         style="fill:#ff00ff;fill-opacity:1;stroke:none;display:inline"
         d="m -30,0 0,22 22,0 0,-22 -22,0 z m 9.75,2 2.5,0 c 0.354191,0 0.625,0.2960006 0.625,0.65625 l 0,1.28125 c 0.633321,0.1687424 1.258817,0.3967312 1.8125,0.71875 l 0.90625,-0.875 c 0.254734,-0.2547 0.624543,-0.2816994 0.875,-0.03125 L -11.75,5.53125 c 0.250482,0.250452 0.22348,0.6202678 -0.03125,0.875 l -0.875,0.90625 c 0.322016,0.5536838 0.550009,1.1791804 0.71875,1.8125 l 1.28125,0 C -10.296007,9.125 -10,9.3958086 -10,9.75 l 0,2.5 c 0,0.354193 -0.296007,0.625008 -0.65625,0.625 l -1.28125,0 c -0.168741,0.633322 -0.396734,1.258819 -0.71875,1.8125 l 0.875,0.90625 c 0.2547,0.254732 0.2817,0.624547 0.03125,0.875 L -13.53125,18.25 c -0.250452,0.250463 -0.62027,0.223481 -0.875,-0.03125 l -0.90625,-0.875 c -0.553682,0.322017 -1.179179,0.550008 -1.8125,0.71875 l 0,1.28125 C -17.125,19.703997 -17.395806,20 -17.75,20 l -2.5,0 c -0.354195,0 -0.625,-0.296003 -0.625,-0.65625 l 0,-1.28125 c -0.63332,-0.168742 -1.258817,-0.396733 -1.8125,-0.71875 l -0.90625,0.875 c -0.254733,0.25473 -0.624549,0.281702 -0.875,0.03125 L -26.25,16.46875 c -0.250472,-0.250452 -0.223483,-0.620267 0.03125,-0.875 l 0.875,-0.90625 c -0.322016,-0.553681 -0.550005,-1.179178 -0.71875,-1.8125 l -1.28125,0 C -27.703997,12.875 -28,12.604192 -28,12.25 l 0,-2.5 c 0,-0.3541928 0.295998,-0.625 0.65625,-0.625 l 1.28125,0 c 0.168745,-0.633321 0.39673,-1.2588174 0.71875,-1.8125 l -0.875,-0.90625 C -26.473472,6.1515166 -26.50045,5.781702 -26.25,5.53125 L -24.46875,3.75 c 0.125226,-0.1252174 0.272674,-0.18891 0.4375,-0.1875 0.164826,0.0014 0.310131,0.091387 0.4375,0.21875 l 0.90625,0.875 c 0.553683,-0.3220174 1.17918,-0.550009 1.8125,-0.71875 l 0,-1.28125 C -20.875,2.2960032 -20.604195,2 -20.25,2 z M -19,8.28125 c -1.501948,0 -2.71875,1.2168013 -2.71875,2.71875 0,1.501951 1.216802,2.71875 2.71875,2.71875 1.501948,0 2.71875,-1.216799 2.71875,-2.71875 0,-1.5019487 -1.216799,-2.71875 -2.71875,-2.71875 z"
         id="path4463" />
    </clipPath>
    <filter
       inkscape:collect="always"
       id="filter4465">
      <feGaussianBlur
         inkscape:collect="always"
         stdDeviation="0.53999973"
         id="feGaussianBlur4467" />
    </filter>
    <linearGradient
       inkscape:collect="always"
       xlink:href="#StandardGradient-9"
       id="linearGradient3987"
       gradientUnits="userSpaceOnUse"
       gradientTransform="matrix(0.41860332,0,0,0.41860332,0.9535131,1.3721447)"
       x1="20.758585"
       y1="1"
       x2="20.758585"
       y2="45.017357" />
    <linearGradient
       inkscape:collect="always"
       xlink:href="#StandardGradient-9"
       id="linearGradient3991"
       gradientUnits="userSpaceOnUse"
       gradientTransform="matrix(0.41860332,0,0,0.41860332,0.9535131,1.3721447)"
       x1="26.388914"
       y1="8.6665707"
       x2="20.758585"
       y2="45.017357" />
  </defs>
  <sodipodi:namedview
     id="base"
     pagecolor="#ffffff"
     bordercolor="#e7e7e7"
     borderopacity="1"
     inkscape:pageopacity="0.0"
     inkscape:pageshadow="2"
     inkscape:zoom="11.661143"
     inkscape:cx="-11.106858"
     inkscape:cy="24.423657"
     inkscape:document-units="px"
     inkscape:current-layer="layer1"
     showgrid="true"
     inkscape:showpageshadow="false"
     showguides="true"
     inkscape:guide-bbox="true"
     inkscape:window-width="1920"
     inkscape:window-height="1029"
     inkscape:window-x="0"
     inkscape:window-y="25"
     inkscape:window-maximized="1">
    <sodipodi:guide
       orientation="1,0"
       position="0,112"
       id="guide2383" />
    <sodipodi:guide
       orientation="0,1"
       position="78.156291,0"
       id="guide2389" />
    <inkscape:grid
       type="xygrid"
       id="grid3672"
       visible="true"
       enabled="true" />
    <sodipodi:guide
       orientation="1,0"
       position="22.008699,4.1542523"
       id="guide2950" />
    <sodipodi:guide
       orientation="0,1"
       position="11.22532,22.008699"
       id="guide2952" />
  </sodipodi:namedview>
  <metadata
     id="metadata7">
    <rdf:RDF>
      <cc:Work
         rdf:about="">
        <dc:format>image/svg+xml</dc:format>
        <dc:type
           rdf:resource="http://purl.org/dc/dcmitype/StillImage" />
      </cc:Work>
    </rdf:RDF>
  </metadata>
  <g
     inkscape:label="Calque 1"
     inkscape:groupmode="layer"
     id="layer1">
    <path
       style="fill:#ffffff;fill-opacity:1;fill-rule:nonzero;stroke:none;stroke-width:1;marker:none;visibility:visible;display:block;overflow:visible;enable-background:accumulate;opacity:0.15"
       d="M 9.75 0.96875 C 8.8224774 0.96875 8.09375 1.7802933 8.09375 2.65625 L 8.09375 3.25 C 7.9164973 3.3123019 7.7377512 3.3934604 7.5625 3.46875 L 7.125 3.0625 C 7.1198071 3.0573074 7.0990989 3.067739 7.09375 3.0625 C 6.8594102 2.832977 6.4910617 2.5356706 5.96875 2.53125 C 5.5335673 2.5275161 5.099943 2.7438266 4.8125 3.03125 L 3.03125 4.8125 C 2.4040321 5.4397221 2.4998739 6.5071186 3.0625 7.09375 L 3.03125 7.125 L 3.46875 7.5625 C 3.3934606 7.7377516 3.3123013 7.9164979 3.25 8.09375 L 2.65625 8.09375 C 1.7802895 8.09375 0.96875 8.8224774 0.96875 9.75 L 0.96875 12.25 C 0.96875 13.177525 1.7802876 13.90625 2.65625 13.90625 L 3.25 13.90625 C 3.3123018 14.083502 3.3934609 14.262249 3.46875 14.4375 L 3.03125 14.875 L 3.0625 14.90625 C 2.4998528 15.49287 2.4039901 16.56029 3.03125 17.1875 L 4.8125 18.96875 C 5.4397117 19.595966 6.5071128 19.500158 7.09375 18.9375 L 7.125 18.9375 L 7.5625 18.53125 C 7.7377511 18.606539 7.9164975 18.687698 8.09375 18.75 L 8.09375 19.34375 C 8.09375 20.219707 8.8224778 21.03125 9.75 21.03125 L 12.25 21.03125 C 13.177523 21.03125 13.90625 20.219708 13.90625 19.34375 L 13.90625 18.75 C 14.083503 18.687698 14.262249 18.60654 14.4375 18.53125 L 14.875 18.9375 L 14.90625 18.9375 C 15.492879 19.500159 16.560286 19.595991 17.1875 18.96875 L 18.96875 17.1875 C 19.595982 16.56026 19.500085 15.492874 18.9375 14.90625 C 18.930762 14.899225 18.944377 14.881878 18.9375 14.875 L 18.53125 14.4375 C 18.60654 14.262249 18.687698 14.083503 18.75 13.90625 L 19.34375 13.90625 C 20.21974 13.906269 21.03125 13.177531 21.03125 12.25 L 21.03125 9.75 C 21.03125 8.8224678 20.219715 8.09375 19.34375 8.09375 L 18.75 8.09375 C 18.687698 7.9164974 18.606539 7.7377509 18.53125 7.5625 L 18.9375 7.125 L 18.9375 7.09375 C 19.500134 6.5071398 19.59604 5.4397144 18.96875 4.8125 L 17.1875 3.03125 C 16.560265 2.4040339 15.492869 2.4999244 14.90625 3.0625 L 14.875 3.03125 L 14.4375 3.46875 C 14.262249 3.3934605 14.083503 3.3123017 13.90625 3.25 L 13.90625 2.65625 C 13.90625 1.7802868 13.17752 0.96875 12.25 0.96875 L 9.75 0.96875 z M 9.75 2 L 12.25 2 C 12.604191 2 12.875 2.2960006 12.875 2.65625 L 12.875 3.9375 C 13.508321 4.1062424 14.133817 4.3342312 14.6875 4.65625 L 15.59375 3.78125 C 15.848484 3.52655 16.218293 3.4995506 16.46875 3.75 L 18.25 5.53125 C 18.500482 5.781702 18.47348 6.1515178 18.21875 6.40625 L 17.34375 7.3125 C 17.665766 7.8661838 17.893759 8.4916804 18.0625 9.125 L 19.34375 9.125 C 19.703993 9.125 20 9.3958086 20 9.75 L 20 12.25 C 20 12.604193 19.703993 12.875008 19.34375 12.875 L 18.0625 12.875 C 17.893759 13.508322 17.665766 14.133819 17.34375 14.6875 L 18.21875 15.59375 C 18.47345 15.848482 18.50045 16.218297 18.25 16.46875 L 16.46875 18.25 C 16.218298 18.500463 15.84848 18.473481 15.59375 18.21875 L 14.6875 17.34375 C 14.133818 17.665767 13.508321 17.893758 12.875 18.0625 L 12.875 19.34375 C 12.875 19.703997 12.604194 20 12.25 20 L 9.75 20 C 9.395805 20 9.125 19.703997 9.125 19.34375 L 9.125 18.0625 C 8.4916799 17.893758 7.8661828 17.665767 7.3125 17.34375 L 6.40625 18.21875 C 6.1515168 18.47348 5.7817002 18.500452 5.53125 18.25 L 3.75 16.46875 C 3.4995281 16.218298 3.5265172 15.848483 3.78125 15.59375 L 4.65625 14.6875 C 4.3342349 14.133819 4.1062452 13.508322 3.9375 12.875 L 2.65625 12.875 C 2.2960033 12.875 2 12.604192 2 12.25 L 2 9.75 C 2 9.3958072 2.2960025 9.125 2.65625 9.125 L 3.9375 9.125 C 4.1062451 8.491679 4.33423 7.8661826 4.65625 7.3125 L 3.78125 6.40625 C 3.5265324 6.1515166 3.4995497 5.781702 3.75 5.53125 L 5.53125 3.75 C 5.6564755 3.624783 5.8039245 3.5610858 5.96875 3.5625 C 6.1335758 3.563895 6.2788808 3.6538872 6.40625 3.78125 L 7.3125 4.65625 C 7.8661828 4.3342326 8.4916798 4.106241 9.125 3.9375 L 9.125 2.65625 C 9.125 2.2960032 9.395805 2 9.75 2 z M 11 8.28125 C 9.498052 8.28125 8.28125 9.4980513 8.28125 11 C 8.28125 12.501951 9.498052 13.71875 11 13.71875 C 12.501948 13.71875 13.71875 12.501951 13.71875 11 C 13.71875 9.4980513 12.501951 8.28125 11 8.28125 z M 11 9.3125 C 11.946158 9.3125 12.6875 10.053844 12.6875 11 C 12.6875 11.946158 11.946155 12.6875 11 12.6875 C 10.053845 12.6875 9.3125 11.946158 9.3125 11 C 9.3125 10.053845 10.053846 9.3125 11 9.3125 z "
       id="path3989" />
    <path
       d="m 9.757265,2.0000515 c -0.354195,0 -0.640989,0.2938192 -0.640989,0.654066 l 0,1.268892 C 8.4829558,4.0917505 7.8778156,4.3466293 7.3241328,4.6686467 L 6.4215182,3.7660341 C 6.294149,3.6386713 6.1415786,3.5712085 5.9767528,3.5698135 5.8119273,3.5683993 5.6441317,3.6277349 5.5189062,3.7529519 L 3.7529228,5.5189333 c -0.2504503,0.250452 -0.2416516,0.6478816 0.013066,0.902615 L 4.668603,7.3241597 C 4.346583,7.8778423 4.0917042,8.4829843 3.9229591,9.1163053 l -1.2688902,0 C 2.2938214,9.1163053 2,9.4031005 2,9.7572933 L 2,12.24275 c 0,0.354192 0.2938214,0.640988 0.6540681,0.640988 l 1.2688902,0 c 0.1687452,0.633322 0.4236241,1.238463 0.7456392,1.792144 L 3.765983,15.578496 c -0.2547328,0.254733 -0.2635319,0.65216 -0.01306,0.902612 l 1.7659834,1.765984 c 0.2504502,0.250452 0.6478788,0.24165 0.902612,-0.01308 L 7.324133,17.331398 c 0.5536828,0.322017 1.158823,0.576896 1.7921431,0.745638 l 0,1.268891 c 0,0.360247 0.286794,0.654068 0.640989,0.654068 l 2.4854559,0 c 0.354194,0 0.640987,-0.293821 0.640987,-0.654068 l 0,-1.268891 c 0.633321,-0.168742 1.238463,-0.423621 1.792145,-0.745638 l 0.902616,0.902615 c 0.25473,0.254731 0.65216,0.263533 0.902612,0.01307 l 1.765982,-1.765984 c 0.25045,-0.250453 0.24165,-0.647881 -0.01305,-0.902613 L 17.331404,14.67587 c 0.322016,-0.553681 0.576895,-1.158823 0.745636,-1.792145 l 1.268894,0 C 19.706177,12.883733 20,12.596939 20,12.242746 L 20,9.7572881 C 20,9.4030967 19.706177,9.1163013 19.345934,9.1163013 l -1.268894,0 C 17.908299,8.4829817 17.65342,7.8778397 17.331404,7.3241559 l 0.902614,-0.9026126 c 0.25473,-0.2547322 0.263532,-0.6521606 0.01305,-0.9026126 l -1.76598,-1.7659852 c -0.250457,-0.2504494 -0.647882,-0.24165 -0.902616,0.01305 L 14.675855,4.6686107 C 14.122172,4.3465919 13.517031,4.0917133 12.88371,3.9229709 l 0,-1.2688894 c 0,-0.3602494 -0.286793,-0.6540686 -0.640984,-0.6540686 l -2.485457,0 z m 1.242728,6.279048 c 1.501951,0 2.720923,1.2189728 2.720923,2.7209215 0,1.501951 -1.218975,2.720921 -2.720923,2.720921 -1.501948,0 -2.7209217,-1.21897 -2.7209217,-2.720921 0,-1.5019487 1.2189737,-2.7209215 2.7209217,-2.7209215 z"
       id="rect3267"
       style="fill:url(#linearGradient4427);fill-opacity:1;fill-rule:nonzero;stroke:none;stroke-width:1;marker:none;visibility:visible;display:block;overflow:visible;enable-background:accumulate" />
    <path
       style="opacity:0.5;fill:#000000;fill-opacity:1;fill-rule:nonzero;stroke:none;stroke-width:1;marker:none;visibility:visible;display:block;overflow:visible;enable-background:accumulate"
       d="M 9.75,2 C 9.395805,2 9.125,2.2960032 9.125,2.65625 l 0,1 C 9.125,3.2960032 9.395805,3 9.75,3 l 2.5,0 c 0.354191,0 0.625,0.2960006 0.625,0.65625 l 0,-1 C 12.875,2.2960006 12.604191,2 12.25,2 L 9.75,2 z M 5.96875,3.5625 C 5.8039245,3.5610858 5.6564755,3.624783 5.53125,3.75 L 3.75,5.53125 C 3.4995497,5.781702 3.5265324,6.1515166 3.78125,6.40625 L 3.8125,6.46875 5.53125,4.75 C 5.6564755,4.624783 5.8039245,4.5610858 5.96875,4.5625 6.1335758,4.56389 6.2788808,4.653887 6.40625,4.78125 l 0.90625,0.875 C 7.8661828,5.3342326 8.4916798,5.106241 9.125,4.9375 l 0,-1 C 8.4916798,4.106241 7.8661828,4.3342326 7.3125,4.65625 L 6.40625,3.78125 C 6.2788808,3.6538872 6.1335758,3.563895 5.96875,3.5625 z m 10.0625,0 c -0.162505,0.00273 -0.310133,0.0914 -0.4375,0.21875 l -0.90625,0.875 C 14.133817,4.3342312 13.508321,4.1062424 12.875,3.9375 l 0,1 c 0.633321,0.1687424 1.258817,0.3967312 1.8125,0.71875 l 0.90625,-0.875 c 0.254734,-0.2547 0.624543,-0.2816994 0.875,-0.03125 l 1.71875,1.71875 0.03125,-0.0625 C 18.47348,6.1515178 18.500482,5.781702 18.25,5.53125 L 16.46875,3.75 C 16.343522,3.6247753 16.193755,3.5597688 16.03125,3.5625 z M 4.34375,8 C 4.1815247,8.359319 4.040199,8.739558 3.9375,9.125 l -1.28125,0 C 2.2960025,9.125 2,9.3958072 2,9.75 l 0,1 c 0,-0.354192 0.2960025,-0.625 0.65625,-0.625 l 1.28125,0 C 4.1062451,9.4916793 4.33423,8.8661826 4.65625,8.3125 L 4.34375,8 z m 13.3125,0 -0.3125,0.3125 c 0.322016,0.5536838 0.550009,1.1791807 0.71875,1.8125 l 1.28125,0 C 19.703993,10.125 20,10.395809 20,10.75 l 0,-1 C 20,9.3958086 19.703993,9.125 19.34375,9.125 l -1.28125,0 C 17.959803,8.7395589 17.818474,8.3593191 17.65625,8 z m -9.3125,3.5625 C 8.321414,11.702776 8.28125,11.853468 8.28125,12 c 0,1.501951 1.216802,2.71875 2.71875,2.71875 1.501948,0 2.71875,-1.216799 2.71875,-2.71875 0,-0.146532 -0.04016,-0.297224 -0.0625,-0.4375 -0.253854,1.239508 -1.342046,2.15625 -2.65625,2.15625 -1.3142045,0 -2.4023964,-0.916742 -2.65625,-2.15625 z m -4,3.4375 -0.5625,0.59375 C 3.5265172,15.848483 3.4995281,16.218298 3.75,16.46875 l 0.0625,0.0625 0.84375,-0.84375 C 4.5302147,15.470792 4.448077,15.231079 4.34375,15 z m 13.3125,0 c -0.104327,0.231079 -0.186464,0.470792 -0.3125,0.6875 l 0.84375,0.84375 0.0625,-0.0625 c 0.25045,-0.250453 0.22345,-0.620268 -0.03125,-0.875 L 17.65625,15 z"
       id="path4379" />
    <path
       style="opacity:0.3;fill:#ffffff;fill-opacity:1;fill-rule:nonzero;stroke:none;stroke-width:1;marker:none;visibility:visible;display:block;overflow:visible;enable-background:accumulate"
       d="M 3.8125,6.46875 3.75,6.53125 C 3.4995497,6.781702 3.5265324,7.1515166 3.78125,7.40625 L 4.34375,8 C 4.4480777,7.7689208 4.5302128,7.5292089 4.65625,7.3125 L 3.8125,6.46875 z m 14.375,0 -0.84375,0.84375 C 17.469786,7.5292094 17.551923,7.7689207 17.65625,8 l 0.5625,-0.59375 C 18.47348,7.1515178 18.500482,6.781702 18.25,6.53125 L 18.1875,6.46875 z M 11,8.28125 c -1.501948,0 -2.71875,1.216801 -2.71875,2.71875 0,0.146532 0.040164,0.297224 0.0625,0.4375 C 8.5976036,10.197993 9.6857955,9.28125 11,9.28125 c 1.314207,0 2.402397,0.916743 2.65625,2.15625 C 13.67859,11.297224 13.71875,11.146532 13.71875,11 13.71875,9.498051 12.501951,8.28125 11,8.28125 z M 2,12.25 l 0,1 c 0,0.354192 0.2960033,0.625 0.65625,0.625 l 1.28125,0 C 4.0401991,14.260443 4.1815257,14.640682 4.34375,15 l 0.3125,-0.3125 C 4.3342349,14.133819 4.1062452,13.508322 3.9375,12.875 l -1.28125,0 C 2.2960033,12.875 2,12.604192 2,12.25 z m 18,0 c 0,0.354193 -0.296007,0.625008 -0.65625,0.625 l -1.28125,0 c -0.168741,0.633322 -0.396734,1.258819 -0.71875,1.8125 L 17.65625,15 c 0.162224,-0.359319 0.303553,-0.739557 0.40625,-1.125 l 1.28125,0 C 19.703993,13.875008 20,13.604193 20,13.25 l 0,-1 z M 3.8125,16.53125 3.78125,16.59375 C 3.5265172,16.848483 3.4995281,17.218298 3.75,17.46875 L 5.53125,19.25 c 0.2504502,0.250452 0.6202668,0.22348 0.875,-0.03125 l 0.90625,-0.875 c 0.5536828,0.322017 1.1791799,0.550008 1.8125,0.71875 l 0,-1 C 8.4916799,17.893758 7.8661828,17.665767 7.3125,17.34375 l -0.90625,0.875 C 6.1515168,18.47348 5.7817002,18.500452 5.53125,18.25 L 3.8125,16.53125 z m 14.375,0 -1.71875,1.71875 c -0.250452,0.250463 -0.62027,0.223481 -0.875,-0.03125 l -0.90625,-0.875 c -0.553682,0.322017 -1.179179,0.550008 -1.8125,0.71875 l 0,1 c 0.633321,-0.168742 1.258818,-0.396733 1.8125,-0.71875 l 0.90625,0.875 c 0.25473,0.254731 0.624548,0.281713 0.875,0.03125 L 18.25,17.46875 c 0.25045,-0.250453 0.22345,-0.620268 -0.03125,-0.875 l -0.03125,-0.0625 z m -9.0625,2.8125 0,1 C 9.125,20.703997 9.395805,21 9.75,21 l 2.5,0 c 0.354194,0 0.625,-0.296003 0.625,-0.65625 l 0,-1 C 12.875,19.703997 12.604194,20 12.25,20 l -2.5,0 C 9.395805,20 9.125,19.703997 9.125,19.34375 z"
       id="path4388" />
  </g>
</svg>
