<?xml version="1.0" encoding="UTF-8" standalone="no"?>
<!-- Created with Inkscape (http://www.inkscape.org/) -->

<svg
   xmlns:dc="http://purl.org/dc/elements/1.1/"
   xmlns:cc="http://creativecommons.org/ns#"
   xmlns:rdf="http://www.w3.org/1999/02/22-rdf-syntax-ns#"
   xmlns:svg="http://www.w3.org/2000/svg"
   xmlns="http://www.w3.org/2000/svg"
   xmlns:xlink="http://www.w3.org/1999/xlink"
   xmlns:sodipodi="http://sodipodi.sourceforge.net/DTD/sodipodi-0.dtd"
   xmlns:inkscape="http://www.inkscape.org/namespaces/inkscape"
   width="16"
   height="16"
   id="svg2"
   sodipodi:version="0.32"
   inkscape:version="0.48.0 r9654"
   version="1.0"
   sodipodi:docname="dialog-ok.svg"
   inkscape:output_extension="org.inkscape.output.svg.inkscape">
  <defs
     id="defs4">
    <inkscape:perspective
       sodipodi:type="inkscape:persp3d"
       inkscape:vp_x="0 : 8 : 1"
       inkscape:vp_y="0 : 1000 : 0"
       inkscape:vp_z="16 : 8 : 1"
       inkscape:persp3d-origin="8 : 5.3333333 : 1"
       id="perspective18" />
    <linearGradient
       id="StandardGradient"
       gradientTransform="scale(1.1389662,0.8779892)"
       x1="6.4706173"
       y1="7.6491265"
       x2="6.4706173"
       y2="18.248226"
       gradientUnits="userSpaceOnUse">
      <stop
         style="stop-color:#000000;stop-opacity:0.86274511;"
         offset="0"
         id="stop3283" />
      <stop
         style="stop-color:#000000;stop-opacity:0.47058824;"
         offset="1"
         id="stop3285" />
    </linearGradient>
    <inkscape:perspective
       id="perspective3648"
       inkscape:persp3d-origin="0.5 : 0.33333333 : 1"
       inkscape:vp_z="1 : 0.5 : 1"
       inkscape:vp_y="0 : 1000 : 0"
       inkscape:vp_x="0 : 0.5 : 1"
       sodipodi:type="inkscape:persp3d" />
    <linearGradient
       inkscape:collect="always"
       xlink:href="#StandardGradient"
       id="linearGradient3629"
       gradientUnits="userSpaceOnUse"
       gradientTransform="matrix(1.1389662,0,0,0.8779892,-20,0)"
       x1="6.4706173"
       y1="7.6491265"
       x2="6.4706173"
       y2="18.248226" />
    <clipPath
       clipPathUnits="userSpaceOnUse"
       id="clipPath3636">
      <path
         style="fill:#ff00ff;fill-opacity:1;stroke:none;display:inline"
         d="m -19.535739,2.999982 0,16 16.0000003,0 0,-16 -16.0000003,0 z m 12.0625003,3.71875 1.9375,1.9375 -7.3437503,7.3125 -4.65625,-4.625 1.9375,-1.9375 2.71875,2.6875 5.4062503,-5.375 z"
         id="path3638" />
    </clipPath>
    <filter
       inkscape:collect="always"
       id="filter3640">
      <feGaussianBlur
         inkscape:collect="always"
         stdDeviation="0.31916252"
         id="feGaussianBlur3642" />
    </filter>
    <linearGradient
       inkscape:collect="always"
       xlink:href="#StandardGradient"
       id="linearGradient4474"
       gradientUnits="userSpaceOnUse"
       gradientTransform="scale(1.1389662,0.8779892)"
       x1="6.4706173"
       y1="7.6491265"
       x2="6.4706173"
       y2="18.248226" />
    <linearGradient
       inkscape:collect="always"
       xlink:href="#StandardGradient"
       id="linearGradient4478"
       gradientUnits="userSpaceOnUse"
       gradientTransform="matrix(1.1389662,0,0,0.8779892,-0.4642613,-2.999982)"
       x1="6.4706173"
       y1="7.6491265"
       x2="6.4706173"
       y2="18.248226" />
  </defs>
  <sodipodi:namedview
     id="base"
     pagecolor="#ffffff"
     bordercolor="#9a9a9a"
     borderopacity="1"
     inkscape:pageopacity="0.0"
     inkscape:pageshadow="2"
     inkscape:zoom="24.859835"
     inkscape:cx="5.1069182"
     inkscape:cy="6.0094766"
     inkscape:document-units="px"
     inkscape:current-layer="layer3"
     showgrid="true"
     inkscape:showpageshadow="false"
     showguides="true"
     inkscape:guide-bbox="true"
     inkscape:window-width="1920"
     inkscape:window-height="1029"
     inkscape:window-x="0"
     inkscape:window-y="25"
     inkscape:window-maximized="1">
    <sodipodi:guide
       orientation="1,0"
       position="0,112"
       id="guide2383" />
    <sodipodi:guide
       orientation="0,1"
       position="26.278146,128"
       id="guide2385" />
    <sodipodi:guide
       orientation="1,0"
       position="128,54.082119"
       id="guide2387" />
    <sodipodi:guide
       orientation="0,1"
       position="78.156291,0"
       id="guide2389" />
    <inkscape:grid
       type="xygrid"
       id="grid3672"
       visible="true"
       enabled="true" />
  </sodipodi:namedview>
  <metadata
     id="metadata7">
    <rdf:RDF>
      <cc:Work
         rdf:about="">
        <dc:format>image/svg+xml</dc:format>
        <dc:type
           rdf:resource="http://purl.org/dc/dcmitype/StillImage" />
      </cc:Work>
    </rdf:RDF>
  </metadata>
  <g
     inkscape:groupmode="layer"
     id="layer3"
     inkscape:label="Cross"
     style="display:inline"
     transform="translate(-0.4642613,-2.999982)">
    <path
       style="fill:#ffffff;fill-opacity:1;stroke:none;opacity:0.14999999999999999"
       d="M 11.96875 2.6875 A 1.0185309 1.0185309 0 0 0 11.34375 3 L 6.65625 7.65625 L 4.65625 5.6875 A 1.0185309 1.0185309 0 0 0 3.21875 5.6875 L 1.28125 7.625 A 1.0185309 1.0185309 0 0 0 1.28125 9.0625 L 5.9375 13.6875 A 1.0185309 1.0185309 0 0 0 7.375 13.6875 L 14.71875 6.375 A 1.0185309 1.0185309 0 0 0 14.71875 4.9375 L 12.78125 3 A 1.0185309 1.0185309 0 0 0 12.0625 2.6875 A 1.0185309 1.0185309 0 0 0 11.96875 2.6875 z M 12.0625 3.71875 L 14 5.65625 L 6.65625 12.96875 L 2 8.34375 L 3.9375 6.40625 L 6.65625 9.09375 L 12.0625 3.71875 z "
       transform="translate(0.4642613,2.999982)"
       id="path4476" />
    <path
       style="opacity:1;fill:url(#StandardGradient);fill-opacity:1;stroke:none;stroke-width:1.00000024000000010;stroke-linecap:round;stroke-linejoin:miter;stroke-miterlimit:4;stroke-dasharray:none;stroke-opacity:1"
       d="M 12.535632,6.7158506 L 7.1186245,12.104233 L 4.4082528,9.4100469 L 2.4642613,11.3451 L 7.1148866,15.978071 L 7.1186245,15.974353 L 7.1223634,15.978071 L 14.479622,8.6509032 L 12.535632,6.7158506 z"
       id="Symbol"
       sodipodi:nodetypes="ccccccccc"
       inkscape:label="#rect2504" />
    <path
       style="opacity:0.5;fill:#000000;fill-opacity:1;stroke:none;stroke-width:1.00000024000000010;stroke-linecap:round;stroke-linejoin:miter;stroke-miterlimit:4;stroke-dasharray:none;stroke-opacity:1"
       d="M 12.0625 3.71875 L 6.65625 9.09375 L 3.9375 6.40625 L 2 8.34375 L 2.53125 8.84375 L 3.9375 7.4375 L 6.65625 10.125 L 12.0625 4.75 L 13.46875 6.15625 L 14 5.65625 L 12.0625 3.71875 z "
       transform="translate(0.4642613,2.999982)"
       id="BevelShadow"
       inkscape:label="#path3165" />
    <path
       style="opacity:0.3;fill:#ffffff;fill-opacity:1;stroke:none;stroke-width:1.00000024000000010;stroke-linecap:round;stroke-linejoin:miter;stroke-miterlimit:4;stroke-dasharray:none;stroke-opacity:1"
       d="M 14 5.65625 L 6.65625 12.96875 L 2 8.34375 L 2 9.375 L 6.65625 14 L 14 6.6875 L 14 5.65625 z "
       transform="translate(0.4642613,2.999982)"
       id="BevelHighlight"
       inkscape:label="#path3172" />
  </g>
</svg>
