<?xml version="1.0" encoding="UTF-8" standalone="no"?>
<!-- Created with Inkscape (http://www.inkscape.org/) -->

<svg
   xmlns:dc="http://purl.org/dc/elements/1.1/"
   xmlns:cc="http://creativecommons.org/ns#"
   xmlns:rdf="http://www.w3.org/1999/02/22-rdf-syntax-ns#"
   xmlns:svg="http://www.w3.org/2000/svg"
   xmlns="http://www.w3.org/2000/svg"
   xmlns:xlink="http://www.w3.org/1999/xlink"
   xmlns:sodipodi="http://sodipodi.sourceforge.net/DTD/sodipodi-0.dtd"
   xmlns:inkscape="http://www.inkscape.org/namespaces/inkscape"
   width="16"
   height="16"
   id="svg2"
   sodipodi:version="0.32"
   inkscape:version="0.48.0 r9654"
   version="1.0"
   sodipodi:docname="go-top.svg"
   inkscape:output_extension="org.inkscape.output.svg.inkscape">
  <defs
     id="defs4">
    <inkscape:perspective
       sodipodi:type="inkscape:persp3d"
       inkscape:vp_x="0 : 8 : 1"
       inkscape:vp_y="0 : 1000 : 0"
       inkscape:vp_z="16 : 8 : 1"
       inkscape:persp3d-origin="8 : 5.3333333 : 1"
       id="perspective18" />
    <linearGradient
       id="StandardGradient"
       gradientTransform="matrix(0.915489,0,0,-1.0923124,0,16)"
       x1="6.5538745"
       y1="12.745323"
       x2="6.5538745"
       y2="1.8236783"
       gradientUnits="userSpaceOnUse">
      <stop
         id="stop3284"
         offset="0"
         style="stop-color:#000000;stop-opacity:0.86274511;" />
      <stop
         id="stop3286"
         offset="1"
         style="stop-color:#000000;stop-opacity:0.47058824;" />
    </linearGradient>
    <inkscape:perspective
       id="perspective3648"
       inkscape:persp3d-origin="0.5 : 0.33333333 : 1"
       inkscape:vp_z="1 : 0.5 : 1"
       inkscape:vp_y="0 : 1000 : 0"
       inkscape:vp_x="0 : 0.5 : 1"
       sodipodi:type="inkscape:persp3d" />
    <linearGradient
       inkscape:collect="always"
       xlink:href="#StandardGradient"
       id="linearGradient3626"
       gradientUnits="userSpaceOnUse"
       gradientTransform="matrix(0.915489,0,0,-1.0923124,-20,16)"
       x1="6.5538745"
       y1="12.745323"
       x2="6.5538745"
       y2="1.8236783" />
    <clipPath
       clipPathUnits="userSpaceOnUse"
       id="clipPath3633">
      <path
         style="fill:#ff00ff;fill-opacity:1;stroke:none;display:inline"
         d="m -20,0 0,16 16,0 0,-16 -16,0 z m 8,2 5,8.03125 -3,0 0.03125,3.96875 -4.0625,0 0,-3.96875 -2.96875,0 L -12,2 z"
         id="path3635" />
    </clipPath>
    <linearGradient
       inkscape:collect="always"
       xlink:href="#StandardGradient"
       id="linearGradient2841"
       gradientUnits="userSpaceOnUse"
       gradientTransform="matrix(0.915489,0,0,-1.0923124,0,17)"
       x1="6.5538745"
       y1="12.745323"
       x2="6.5538745"
       y2="1.8236783" />
    <linearGradient
       inkscape:collect="always"
       xlink:href="#StandardGradient"
       id="linearGradient2854"
       gradientUnits="userSpaceOnUse"
       gradientTransform="matrix(0.915489,0,0,-1.0923124,0,17)"
       x1="6.5538745"
       y1="12.745323"
       x2="6.5538745"
       y2="1.8236783" />
    <linearGradient
       inkscape:collect="always"
       xlink:href="#StandardGradient"
       id="linearGradient2857"
       gradientUnits="userSpaceOnUse"
       gradientTransform="matrix(0.915489,0,0,-1.0923124,0,17)"
       x1="6.5538745"
       y1="14.647824"
       x2="6.5538745"
       y2="1.8236783" />
    <linearGradient
       inkscape:collect="always"
       xlink:href="#StandardGradient"
       id="linearGradient2861"
       gradientUnits="userSpaceOnUse"
       gradientTransform="matrix(0.915489,0,0,-1.0923124,-20,17)"
       x1="6.5538745"
       y1="14.647824"
       x2="6.5538745"
       y2="1.8236783" />
    <clipPath
       clipPathUnits="userSpaceOnUse"
       id="clipPath2868">
      <path
         style="fill:#ff00ff;fill-opacity:1;stroke:none;display:inline"
         d="m -20,0 0,16 16,0 0,-16 -16,0 z m 3,1 10,0 0,2 -5,0 5,8.03125 -2.96875,0 0,3.96875 -4.0625,0 0,-3.96875 -2.96875,0 L -12,3 l -5,0 0,-2 z"
         id="path2870" />
    </clipPath>
    <filter
       inkscape:collect="always"
       id="filter3644">
      <feGaussianBlur
         inkscape:collect="always"
         stdDeviation="0.36"
         id="feGaussianBlur3646" />
    </filter>
    <linearGradient
       inkscape:collect="always"
       xlink:href="#StandardGradient"
       id="linearGradient3182"
       gradientUnits="userSpaceOnUse"
       gradientTransform="matrix(0.915489,0,0,-1.0923124,0,17)"
       x1="6.5538745"
       y1="14.647824"
       x2="6.5538745"
       y2="1.8236783" />
    <linearGradient
       inkscape:collect="always"
       xlink:href="#StandardGradient"
       id="linearGradient3186"
       gradientUnits="userSpaceOnUse"
       gradientTransform="matrix(0.915489,0,0,-1.0923124,0,17)"
       x1="6.5538745"
       y1="14.647824"
       x2="6.5538745"
       y2="1.8236783" />
  </defs>
  <sodipodi:namedview
     id="base"
     pagecolor="#ffffff"
     bordercolor="#9a9a9a"
     borderopacity="1"
     inkscape:pageopacity="0.0"
     inkscape:pageshadow="2"
     inkscape:zoom="24.785766"
     inkscape:cx="1.4974476"
     inkscape:cy="6.9763585"
     inkscape:document-units="px"
     inkscape:current-layer="layer4"
     showgrid="true"
     inkscape:showpageshadow="false"
     showguides="true"
     inkscape:guide-bbox="true"
     inkscape:window-width="1920"
     inkscape:window-height="1029"
     inkscape:window-x="0"
     inkscape:window-y="25"
     inkscape:window-maximized="1">
    <sodipodi:guide
       orientation="1,0"
       position="0,112"
       id="guide2383" />
    <sodipodi:guide
       orientation="0,1"
       position="26.278146,128"
       id="guide2385" />
    <sodipodi:guide
       orientation="1,0"
       position="128,54.082119"
       id="guide2387" />
    <sodipodi:guide
       orientation="0,1"
       position="78.156291,0"
       id="guide2389" />
    <inkscape:grid
       type="xygrid"
       id="grid3672"
       visible="true"
       enabled="true" />
  </sodipodi:namedview>
  <metadata
     id="metadata7">
    <rdf:RDF>
      <cc:Work
         rdf:about="">
        <dc:format>image/svg+xml</dc:format>
        <dc:type
           rdf:resource="http://purl.org/dc/dcmitype/StillImage" />
      </cc:Work>
    </rdf:RDF>
  </metadata>
  <g
     inkscape:groupmode="layer"
     id="layer4"
     inkscape:label="Arrow"
     style="display:inline">
    <path
       style="fill:#ffffff;fill-opacity:1;stroke:none;display:inline;opacity:0.15"
       d="M 2.8125 -0.03125 A 1.0310926 1.0310926 0 0 0 1.96875 1 L 1.96875 3 A 1.0310926 1.0310926 0 0 0 3 4.03125 L 6.15625 4.03125 L 2.125 10.5 A 1.0310926 1.0310926 0 0 0 3 12.0625 L 4.9375 12.0625 L 4.9375 15 A 1.0310926 1.0310926 0 0 0 5.96875 16.03125 L 10.03125 16.03125 A 1.0310926 1.0310926 0 0 0 11.0625 15 L 11.0625 12.0625 L 13 12.0625 A 1.0310926 1.0310926 0 0 0 13.875 10.5 L 9.84375 4.03125 L 13 4.03125 A 1.0310926 1.0310926 0 0 0 14.03125 3 L 14.03125 1 A 1.0310926 1.0310926 0 0 0 13 -0.03125 L 3 -0.03125 A 1.0310926 1.0310926 0 0 0 2.90625 -0.03125 A 1.0310926 1.0310926 0 0 0 2.8125 -0.03125 z M 3 1 L 13 1 L 13 3 L 8 3 L 13 11.03125 L 10.03125 11.03125 L 10.03125 15 L 5.96875 15 L 5.96875 11.03125 L 3 11.03125 L 8 3 L 3 3 L 3 1 z "
       id="path3184" />
    <path
       style="fill:url(#linearGradient2857);fill-opacity:1;stroke:none;display:inline"
       d="M 3 1 L 3 3 L 8 3 L 13 3 L 13 1 L 3 1 z M 8 3 L 3 11.03125 L 5.96875 11.03125 L 5.96875 15 L 10.03125 15 L 10.03125 11.03125 L 13 11.03125 L 8 3 z "
       id="Symbol" />
    <path
       style="opacity:0.5;fill:#000000;fill-opacity:1;stroke:none;display:inline"
       d="M 3 1 L 3 2 L 13 2 L 13 1 L 3 1 z M 8 3 L 3 11.03125 L 3.625 11.03125 L 8 4.03125 L 12.375 11.03125 L 13 11.03125 L 8 3 z "
       id="BevelShadow" />
    <path
       style="opacity:0.3;fill:#ffffff;fill-opacity:1;stroke:none;display:inline"
       d="M 3 3 L 3 4 L 7.375 4 L 8 3 L 3 3 z M 8 3 L 8.625 4 L 13 4 L 13 3 L 8 3 z M 3 11.03125 L 3 12.03125 L 5.96875 12.03125 L 5.96875 11.03125 L 3 11.03125 z M 10.03125 11.03125 L 10.03125 12.03125 L 13 12.03125 L 13 11.03125 L 10.03125 11.03125 z M 5.96875 15 L 5.96875 16 L 10.03125 16 L 10.03125 15 L 5.96875 15 z "
       id="BevelHighlight" />
  </g>
</svg>
