<?xml version="1.0" encoding="UTF-8" standalone="no"?>
<!-- Created with Inkscape (http://www.inkscape.org/) -->

<svg
   xmlns:dc="http://purl.org/dc/elements/1.1/"
   xmlns:cc="http://creativecommons.org/ns#"
   xmlns:rdf="http://www.w3.org/1999/02/22-rdf-syntax-ns#"
   xmlns:svg="http://www.w3.org/2000/svg"
   xmlns="http://www.w3.org/2000/svg"
   xmlns:xlink="http://www.w3.org/1999/xlink"
   xmlns:sodipodi="http://sodipodi.sourceforge.net/DTD/sodipodi-0.dtd"
   xmlns:inkscape="http://www.inkscape.org/namespaces/inkscape"
   width="16"
   height="16"
   id="svg2"
   sodipodi:version="0.32"
   inkscape:version="0.48.0 r9654"
   version="1.0"
   sodipodi:docname="go-up.svg"
   inkscape:output_extension="org.inkscape.output.svg.inkscape">
  <defs
     id="defs4">
    <inkscape:perspective
       sodipodi:type="inkscape:persp3d"
       inkscape:vp_x="0 : 8 : 1"
       inkscape:vp_y="0 : 1000 : 0"
       inkscape:vp_z="16 : 8 : 1"
       inkscape:persp3d-origin="8 : 5.3333333 : 1"
       id="perspective18" />
    <linearGradient
       id="StandardGradient"
       gradientTransform="matrix(0.915489,0,0,-1.0923124,0,16)"
       x1="6.5538745"
       y1="12.745323"
       x2="6.5538745"
       y2="1.8236783"
       gradientUnits="userSpaceOnUse">
      <stop
         id="stop3284"
         offset="0"
         style="stop-color:#000000;stop-opacity:0.86274511;" />
      <stop
         id="stop3286"
         offset="1"
         style="stop-color:#000000;stop-opacity:0.47058824;" />
    </linearGradient>
    <inkscape:perspective
       id="perspective3648"
       inkscape:persp3d-origin="0.5 : 0.33333333 : 1"
       inkscape:vp_z="1 : 0.5 : 1"
       inkscape:vp_y="0 : 1000 : 0"
       inkscape:vp_x="0 : 0.5 : 1"
       sodipodi:type="inkscape:persp3d" />
    <linearGradient
       inkscape:collect="always"
       xlink:href="#StandardGradient"
       id="linearGradient3626"
       gradientUnits="userSpaceOnUse"
       gradientTransform="matrix(0.915489,0,0,-1.0923124,-20,16)"
       x1="6.5538745"
       y1="12.745323"
       x2="6.5538745"
       y2="1.8236783" />
    <clipPath
       clipPathUnits="userSpaceOnUse"
       id="clipPath3633">
      <path
         style="fill:#ff00ff;fill-opacity:1;stroke:none;display:inline"
         d="m -20,0 0,16 16,0 0,-16 -16,0 z m 8,2 5,8.03125 -3,0 0.03125,3.96875 -4.0625,0 0,-3.96875 -2.96875,0 L -12,2 z"
         id="path3635" />
    </clipPath>
    <filter
       inkscape:collect="always"
       id="filter3637">
      <feGaussianBlur
         inkscape:collect="always"
         stdDeviation="0.33"
         id="feGaussianBlur3639" />
    </filter>
    <linearGradient
       inkscape:collect="always"
       xlink:href="#StandardGradient"
       id="linearGradient4435"
       gradientUnits="userSpaceOnUse"
       gradientTransform="matrix(0.915489,0,0,-1.0923124,0,16)"
       x1="6.5538745"
       y1="12.745323"
       x2="6.5538745"
       y2="1.8236783" />
    <linearGradient
       inkscape:collect="always"
       xlink:href="#StandardGradient"
       id="linearGradient4439"
       gradientUnits="userSpaceOnUse"
       gradientTransform="matrix(0.915489,0,0,-1.0923124,0,16)"
       x1="6.5538745"
       y1="12.745323"
       x2="6.5538745"
       y2="1.8236783" />
  </defs>
  <sodipodi:namedview
     id="base"
     pagecolor="#ffffff"
     bordercolor="#9a9a9a"
     borderopacity="1"
     inkscape:pageopacity="0.0"
     inkscape:pageshadow="2"
     inkscape:zoom="24.785766"
     inkscape:cx="0.078962372"
     inkscape:cy="6.9763585"
     inkscape:document-units="px"
     inkscape:current-layer="layer4"
     showgrid="true"
     inkscape:showpageshadow="false"
     showguides="true"
     inkscape:guide-bbox="true"
     inkscape:window-width="1920"
     inkscape:window-height="1029"
     inkscape:window-x="0"
     inkscape:window-y="25"
     inkscape:window-maximized="1">
    <sodipodi:guide
       orientation="1,0"
       position="0,112"
       id="guide2383" />
    <sodipodi:guide
       orientation="0,1"
       position="26.278146,128"
       id="guide2385" />
    <sodipodi:guide
       orientation="1,0"
       position="128,54.082119"
       id="guide2387" />
    <sodipodi:guide
       orientation="0,1"
       position="78.156291,0"
       id="guide2389" />
    <inkscape:grid
       type="xygrid"
       id="grid3672"
       visible="true"
       enabled="true" />
  </sodipodi:namedview>
  <metadata
     id="metadata7">
    <rdf:RDF>
      <cc:Work
         rdf:about="">
        <dc:format>image/svg+xml</dc:format>
        <dc:type
           rdf:resource="http://purl.org/dc/dcmitype/StillImage" />
      </cc:Work>
    </rdf:RDF>
  </metadata>
  <g
     inkscape:groupmode="layer"
     id="layer4"
     inkscape:label="Arrow"
     style="display:inline">
    <path
       style="fill:#ffffff;fill-opacity:1;stroke:none;display:inline;opacity:0.15"
       d="M 7.9375 1 A 0.97593076 0.97593076 0 0 0 7.8125 1.03125 A 0.97593076 0.97593076 0 0 0 7.15625 1.46875 L 2.15625 9.5 A 0.97593076 0.97593076 0 0 0 3 11 L 5 11 L 5 14 A 0.97593076 0.97593076 0 0 0 5.96875 14.96875 L 10.03125 14.96875 A 0.97593076 0.97593076 0 0 0 11 14 L 11 11 L 13 11 A 0.97593076 0.97593076 0 0 0 13.84375 9.5 L 8.84375 1.46875 A 0.97593076 0.97593076 0 0 0 7.9375 1 z M 8 2 L 13 10.03125 L 10 10.03125 L 10.03125 14 L 5.96875 14 L 5.96875 10.03125 L 3 10.03125 L 8 2 z "
       id="path4437" />
    <path
       style="opacity:1;fill:url(#StandardGradient);fill-opacity:1;stroke:none;stroke-width:0.99999976000000002;stroke-linecap:round;stroke-linejoin:miter;stroke-miterlimit:4;stroke-dasharray:none;stroke-opacity:1;display:inline"
       d="M 13.015625,10.028195 L 8.0129199,2.015625 L 2.984375,10.028195 L 5.979194,10.028195 L 5.979194,13.984375 L 10.02316,13.984375 L 10.015625,10.028195 L 13.015625,10.028195 z"
       id="Symbol"
       sodipodi:nodetypes="cccccccc"
       inkscape:label="#path2493" />
    <path
       style="opacity:0.5;fill:#000000;fill-opacity:1;stroke:none;stroke-width:0.99999976000000002;stroke-linecap:round;stroke-linejoin:miter;stroke-miterlimit:4;stroke-dasharray:none;stroke-opacity:1;display:inline"
       d="M 8 2 L 3 10.03125 L 3.625 10.03125 L 8 3.03125 L 12.375 10.03125 L 13 10.03125 L 8 2 z "
       id="BevelShadow"
       inkscape:label="#path2391" />
    <path
       style="opacity:0.3;fill:#ffffff;fill-opacity:1;stroke:none;stroke-width:0.99999976000000002;stroke-linecap:round;stroke-linejoin:miter;stroke-miterlimit:4;stroke-dasharray:none;stroke-opacity:1;display:inline"
       d="M 3 10.03125 L 3 11.03125 L 5.96875 11.03125 L 5.96875 10.03125 L 3 10.03125 z M 10 10.03125 L 10 11.03125 L 13 11.03125 L 13 10.03125 L 10 10.03125 z M 5.96875 14 L 5.96875 15 L 10.03125 15 L 10.03125 14 L 5.96875 14 z "
       id="BevelHighlight"
       inkscape:label="#path3168" />
  </g>
</svg>
