<?xml version="1.0" encoding="UTF-8" standalone="no"?>
<!-- Created with Inkscape (http://www.inkscape.org/) -->

<svg
   xmlns:dc="http://purl.org/dc/elements/1.1/"
   xmlns:cc="http://creativecommons.org/ns#"
   xmlns:rdf="http://www.w3.org/1999/02/22-rdf-syntax-ns#"
   xmlns:svg="http://www.w3.org/2000/svg"
   xmlns="http://www.w3.org/2000/svg"
   xmlns:xlink="http://www.w3.org/1999/xlink"
   xmlns:sodipodi="http://sodipodi.sourceforge.net/DTD/sodipodi-0.dtd"
   xmlns:inkscape="http://www.inkscape.org/namespaces/inkscape"
   width="16"
   height="16"
   id="svg2"
   sodipodi:version="0.32"
   inkscape:version="0.48.0 r9654"
   version="1.0"
   sodipodi:docname="help-contents.svg"
   inkscape:output_extension="org.inkscape.output.svg.inkscape"
   style="display:inline">
  <defs
     id="defs4">
    <inkscape:perspective
       sodipodi:type="inkscape:persp3d"
       inkscape:vp_x="0 : 8 : 1"
       inkscape:vp_y="0 : 1000 : 0"
       inkscape:vp_z="16 : 8 : 1"
       inkscape:persp3d-origin="8 : 5.3333333 : 1"
       id="perspective26" />
    <linearGradient
       id="ButtonColor"
       x1="10.31979"
       y1="21"
       x2="10.31979"
       y2="0.99929649"
       gradientUnits="userSpaceOnUse">
      <stop
         style="stop-color:#29669f;stop-opacity:1;"
         offset="0"
         id="stop3189" />
      <stop
         style="stop-color:#88b6e0;stop-opacity:1;"
         offset="1"
         id="stop3191" />
    </linearGradient>
    <linearGradient
       inkscape:collect="always"
       xlink:href="#ButtonColor"
       id="linearGradient3173"
       gradientUnits="userSpaceOnUse"
       gradientTransform="translate(-16,-1)"
       x1="1"
       y1="9"
       x2="15"
       y2="9" />
    <linearGradient
       inkscape:collect="always"
       xlink:href="#ButtonColor"
       id="linearGradient3177"
       gradientUnits="userSpaceOnUse"
       gradientTransform="translate(-16,-1)"
       x1="1"
       y1="9"
       x2="15"
       y2="9" />
    <linearGradient
       inkscape:collect="always"
       xlink:href="#ButtonColor"
       id="linearGradient3179"
       gradientUnits="userSpaceOnUse"
       gradientTransform="matrix(0,-1,1,0,-1,16)"
       x1="1"
       y1="9"
       x2="15"
       y2="9" />
    <inkscape:perspective
       id="perspective3764"
       inkscape:persp3d-origin="0.5 : 0.33333333 : 1"
       inkscape:vp_z="1 : 0.5 : 1"
       inkscape:vp_y="0 : 1000 : 0"
       inkscape:vp_x="0 : 0.5 : 1"
       sodipodi:type="inkscape:persp3d" />
    <linearGradient
       inkscape:collect="always"
       xlink:href="#linearGradient3614"
       id="linearGradient3181"
       x1="-3.0607977"
       y1="27.258198"
       x2="-3.0607977"
       y2="7.2536583"
       gradientUnits="userSpaceOnUse"
       gradientTransform="translate(11.119372,-6.2581977)" />
    <linearGradient
       id="linearGradient3614">
      <stop
         id="stop3616"
         offset="0"
         style="stop-color:#064096;stop-opacity:1;" />
      <stop
         id="stop3618"
         offset="1"
         style="stop-color:#4484e5;stop-opacity:1" />
    </linearGradient>
    <linearGradient
       y2="7.2536583"
       x2="-3.0607977"
       y1="27.258198"
       x1="-3.0607977"
       gradientTransform="translate(-13.880628,-8.2581977)"
       gradientUnits="userSpaceOnUse"
       id="linearGradient3773"
       xlink:href="#linearGradient3614"
       inkscape:collect="always" />
    <inkscape:perspective
       id="perspective3783"
       inkscape:persp3d-origin="0.5 : 0.33333333 : 1"
       inkscape:vp_z="1 : 0.5 : 1"
       inkscape:vp_y="0 : 1000 : 0"
       inkscape:vp_x="0 : 0.5 : 1"
       sodipodi:type="inkscape:persp3d" />
    <linearGradient
       gradientTransform="matrix(0.24242424,0,0,0.24242462,-0.636364,1.878782)"
       y2="47.024918"
       x2="106.50636"
       y1="47.277454"
       x1="15"
       gradientUnits="userSpaceOnUse"
       id="linearGradient3856"
       xlink:href="#linearGradient3771"
       inkscape:collect="always" />
    <linearGradient
       inkscape:collect="always"
       id="linearGradient3771">
      <stop
         style="stop-color:#154a99;stop-opacity:1;"
         offset="0"
         id="stop3773" />
      <stop
         style="stop-color:#154a99;stop-opacity:0;"
         offset="1"
         id="stop3775" />
    </linearGradient>
    <linearGradient
       y2="47.024918"
       x2="106.50636"
       y1="47.277454"
       x1="15"
       gradientTransform="matrix(0.15151515,0,0,0.15151539,0.7272725,0.3607798)"
       gradientUnits="userSpaceOnUse"
       id="linearGradient3792"
       xlink:href="#linearGradient3771"
       inkscape:collect="always" />
    <inkscape:perspective
       id="perspective3802"
       inkscape:persp3d-origin="0.5 : 0.33333333 : 1"
       inkscape:vp_z="1 : 0.5 : 1"
       inkscape:vp_y="0 : 1000 : 0"
       inkscape:vp_x="0 : 0.5 : 1"
       sodipodi:type="inkscape:persp3d" />
    <linearGradient
       inkscape:collect="always"
       xlink:href="#linearGradient3697"
       id="linearGradient3703"
       x1="46.125015"
       y1="63.048103"
       x2="46.125015"
       y2="24.840103"
       gradientUnits="userSpaceOnUse" />
    <linearGradient
       id="linearGradient3697">
      <stop
         style="stop-color:#dcdcdc;stop-opacity:1;"
         offset="0"
         id="stop3699" />
      <stop
         style="stop-color:#f0f0f0;stop-opacity:1;"
         offset="1"
         id="stop3701" />
    </linearGradient>
    <linearGradient
       y2="24.840103"
       x2="46.125015"
       y1="63.048103"
       x1="46.125015"
       gradientUnits="userSpaceOnUse"
       id="linearGradient3883"
       xlink:href="#linearGradient3697"
       inkscape:collect="always" />
    <linearGradient
       id="linearGradient3811">
      <stop
         style="stop-color:#dcdcdc;stop-opacity:1;"
         offset="0"
         id="stop3813" />
      <stop
         style="stop-color:#f0f0f0;stop-opacity:1;"
         offset="1"
         id="stop3815" />
    </linearGradient>
    <linearGradient
       y2="24.840103"
       x2="46.125015"
       y1="63.048103"
       x1="46.125015"
       gradientUnits="userSpaceOnUse"
       id="linearGradient3819"
       xlink:href="#linearGradient3697"
       inkscape:collect="always" />
    <linearGradient
       inkscape:collect="always"
       xlink:href="#linearGradient3697"
       id="linearGradient3686"
       gradientUnits="userSpaceOnUse"
       x1="46.125015"
       y1="63.048103"
       x2="46.125015"
       y2="24.840103"
       gradientTransform="matrix(0.15685603,0,0,0.15703518,0.8592734,0.04817939)" />
    <inkscape:perspective
       id="perspective3829"
       inkscape:persp3d-origin="0.5 : 0.33333333 : 1"
       inkscape:vp_z="1 : 0.5 : 1"
       inkscape:vp_y="0 : 1000 : 0"
       inkscape:vp_x="0 : 0.5 : 1"
       sodipodi:type="inkscape:persp3d" />
    <linearGradient
       inkscape:collect="always"
       xlink:href="#linearGradient3697-6"
       id="linearGradient3703-1"
       x1="46.125015"
       y1="63.048103"
       x2="46.125015"
       y2="24.840103"
       gradientUnits="userSpaceOnUse" />
    <linearGradient
       id="linearGradient3697-6">
      <stop
         style="stop-color:#dcdcdc;stop-opacity:1;"
         offset="0"
         id="stop3699-4" />
      <stop
         style="stop-color:#f0f0f0;stop-opacity:1;"
         offset="1"
         id="stop3701-1" />
    </linearGradient>
    <linearGradient
       y2="24.840103"
       x2="46.125015"
       y1="63.048103"
       x1="46.125015"
       gradientUnits="userSpaceOnUse"
       id="linearGradient3883-4"
       xlink:href="#linearGradient3697-6"
       inkscape:collect="always" />
    <linearGradient
       id="linearGradient3838">
      <stop
         style="stop-color:#dcdcdc;stop-opacity:1;"
         offset="0"
         id="stop3840" />
      <stop
         style="stop-color:#f0f0f0;stop-opacity:1;"
         offset="1"
         id="stop3842" />
    </linearGradient>
    <linearGradient
       y2="24.840103"
       x2="46.125015"
       y1="63.048103"
       x1="46.125015"
       gradientUnits="userSpaceOnUse"
       id="linearGradient3846"
       xlink:href="#linearGradient3697-6"
       inkscape:collect="always" />
    <inkscape:perspective
       id="perspective3721"
       inkscape:persp3d-origin="0.5 : 0.33333333 : 1"
       inkscape:vp_z="1 : 0.5 : 1"
       inkscape:vp_y="0 : 1000 : 0"
       inkscape:vp_x="0 : 0.5 : 1"
       sodipodi:type="inkscape:persp3d" />
    <linearGradient
       inkscape:collect="always"
       xlink:href="#linearGradient3697-0"
       id="linearGradient3700"
       gradientUnits="userSpaceOnUse"
       gradientTransform="matrix(0.21364779,-0.01655517,0.0183611,0.19263422,-8.3413374,0.49210078)"
       x1="71.671646"
       y1="62.025059"
       x2="71.671646"
       y2="26.413651" />
    <linearGradient
       id="linearGradient3697-0">
      <stop
         style="stop-color:#dcdcdc;stop-opacity:1;"
         offset="0"
         id="stop3699-5" />
      <stop
         style="stop-color:#f0f0f0;stop-opacity:1;"
         offset="1"
         id="stop3701-6" />
    </linearGradient>
    <linearGradient
       inkscape:collect="always"
       xlink:href="#linearGradient3614-7"
       id="linearGradient3181-8"
       x1="-3.0607977"
       y1="27.258198"
       x2="-3.0607977"
       y2="7.2536583"
       gradientUnits="userSpaceOnUse"
       gradientTransform="translate(11.119372,-6.2581977)" />
    <linearGradient
       id="linearGradient3614-7">
      <stop
         id="stop3616-6"
         offset="0"
         style="stop-color:#418f0d;stop-opacity:1;" />
      <stop
         id="stop3618-7"
         offset="1"
         style="stop-color:#8bdb14;stop-opacity:1;" />
    </linearGradient>
    <linearGradient
       y2="7.2536583"
       x2="-3.0607977"
       y1="27.258198"
       x1="-3.0607977"
       gradientTransform="translate(-15.914197,-7.9719786)"
       gradientUnits="userSpaceOnUse"
       id="linearGradient3735"
       xlink:href="#linearGradient3614-7"
       inkscape:collect="always" />
    <inkscape:perspective
       id="perspective2928"
       inkscape:persp3d-origin="0.5 : 0.33333333 : 1"
       inkscape:vp_z="1 : 0.5 : 1"
       inkscape:vp_y="0 : 1000 : 0"
       inkscape:vp_x="0 : 0.5 : 1"
       sodipodi:type="inkscape:persp3d" />
    <linearGradient
       id="StandardGradient"
       x1="7.1984468"
       y1="3"
       x2="7.1984468"
       y2="13.008396"
       gradientUnits="userSpaceOnUse">
      <stop
         style="stop-color:#000000;stop-opacity:0.86274511;"
         offset="0"
         id="stop3283" />
      <stop
         style="stop-color:#000000;stop-opacity:0.47058824;"
         offset="1"
         id="stop3285" />
    </linearGradient>
    <linearGradient
       y2="13.008396"
       x2="7.1984468"
       y1="3"
       x1="7.1984468"
       gradientUnits="userSpaceOnUse"
       id="linearGradient2938"
       xlink:href="#StandardGradient"
       inkscape:collect="always"
       gradientTransform="translate(-20,0)" />
    <linearGradient
       inkscape:collect="always"
       xlink:href="#StandardGradient"
       id="linearGradient3744"
       x1="6.5053"
       y1="3.008558"
       x2="6.5053"
       y2="14.972736"
       gradientUnits="userSpaceOnUse" />
    <inkscape:perspective
       id="perspective2957"
       inkscape:persp3d-origin="0.5 : 0.33333333 : 1"
       inkscape:vp_z="1 : 0.5 : 1"
       inkscape:vp_y="0 : 1000 : 0"
       inkscape:vp_x="0 : 0.5 : 1"
       sodipodi:type="inkscape:persp3d" />
    <linearGradient
       inkscape:collect="always"
       xlink:href="#linearGradient3697-6-2"
       id="linearGradient3703-1-7"
       x1="46.125015"
       y1="63.048103"
       x2="46.125015"
       y2="24.840103"
       gradientUnits="userSpaceOnUse" />
    <linearGradient
       id="linearGradient3697-6-2">
      <stop
         style="stop-color:#dcdcdc;stop-opacity:1;"
         offset="0"
         id="stop3699-4-2" />
      <stop
         style="stop-color:#f0f0f0;stop-opacity:1;"
         offset="1"
         id="stop3701-1-6" />
    </linearGradient>
    <linearGradient
       y2="24.840103"
       x2="46.125015"
       y1="63.048103"
       x1="46.125015"
       gradientUnits="userSpaceOnUse"
       id="linearGradient3846-1"
       xlink:href="#linearGradient3697-6-2"
       inkscape:collect="always" />
    <linearGradient
       id="linearGradient2966">
      <stop
         style="stop-color:#dcdcdc;stop-opacity:1;"
         offset="0"
         id="stop2968" />
      <stop
         style="stop-color:#f0f0f0;stop-opacity:1;"
         offset="1"
         id="stop2970" />
    </linearGradient>
    <linearGradient
       y2="24.840103"
       x2="46.125015"
       y1="63.048103"
       x1="46.125015"
       gradientUnits="userSpaceOnUse"
       id="linearGradient2974"
       xlink:href="#linearGradient3697-6-2"
       inkscape:collect="always" />
    <linearGradient
       inkscape:collect="always"
       xlink:href="#linearGradient3697-6-2"
       id="linearGradient2888"
       gradientUnits="userSpaceOnUse"
       x1="46.125015"
       y1="63.048103"
       x2="46.125015"
       y2="24.840103"
       gradientTransform="matrix(0.18299871,0,0,0.18320771,-0.35051574,0.24768743)" />
    <linearGradient
       inkscape:collect="always"
       xlink:href="#linearGradient3697-6-2"
       id="linearGradient2894"
       gradientUnits="userSpaceOnUse"
       gradientTransform="matrix(0.19894674,0,0,0.19917396,-0.99081358,-0.60184635)"
       x1="46.125015"
       y1="63.048103"
       x2="46.125015"
       y2="24.840103" />
    <linearGradient
       inkscape:collect="always"
       xlink:href="#linearGradient3697-6-2"
       id="linearGradient2896"
       gradientUnits="userSpaceOnUse"
       gradientTransform="matrix(0.18299871,0,0,0.19966459,-0.35051574,-0.94191898)"
       x1="46.125015"
       y1="63.048103"
       x2="46.125015"
       y2="24.840103" />
    <linearGradient
       inkscape:collect="always"
       xlink:href="#StandardGradient"
       id="linearGradient3683"
       x1="6.8092694"
       y1="1.9880053"
       x2="6.8092694"
       y2="14.889104"
       gradientUnits="userSpaceOnUse" />
    <linearGradient
       inkscape:collect="always"
       xlink:href="#StandardGradient"
       id="linearGradient3687"
       gradientUnits="userSpaceOnUse"
       x1="6.8092694"
       y1="1.9880053"
       x2="6.8092694"
       y2="14.889104" />
    <linearGradient
       inkscape:collect="always"
       xlink:href="#StandardGradient"
       id="linearGradient3693"
       gradientUnits="userSpaceOnUse"
       x1="6.8092694"
       y1="1.9880053"
       x2="6.8092694"
       y2="14.889104"
       gradientTransform="translate(0,1)" />
    <linearGradient
       inkscape:collect="always"
       xlink:href="#StandardGradient"
       id="linearGradient3695"
       gradientUnits="userSpaceOnUse"
       x1="6.8092694"
       y1="1.9880053"
       x2="6.8092694"
       y2="14.889104" />
    <inkscape:perspective
       id="perspective3648"
       inkscape:persp3d-origin="0.5 : 0.33333333 : 1"
       inkscape:vp_z="1 : 0.5 : 1"
       inkscape:vp_y="0 : 1000 : 0"
       inkscape:vp_x="0 : 0.5 : 1"
       sodipodi:type="inkscape:persp3d" />
    <linearGradient
       inkscape:collect="always"
       xlink:href="#StandardGradient"
       id="linearGradient3698"
       gradientUnits="userSpaceOnUse"
       x1="6.8092694"
       y1="1.9880053"
       x2="6.8092694"
       y2="14.889104"
       gradientTransform="translate(-20,0)" />
    <clipPath
       clipPathUnits="userSpaceOnUse"
       id="clipPath3705">
      <path
         style="fill:#ff00ff;fill-opacity:1;stroke:none;display:inline"
         d="m -20,0 0,16 16,0 0,-16 -16,0 z m 8,2 c 0.700325,-3.35e-5 1.413277,0.083695 2.09375,0.25 2.118761,0.5044175 4.165188,1.9677239 4.75,4.15625 0.50202,1.7916361 -0.330273,3.71509 -1.75,4.84375 -1.707258,1.389681 -4.018392,1.976893 -6.1875,1.65625 -1.004704,1.114984 -2.371897,2.02644 -3.90625,2.125 0.803753,-0.715615 1.525709,-1.781949 1.25,-2.90625 -0.944166,-0.473886 -1.800185,-1.15954 -2.40625,-2.03125 C -19.207392,8.658391 -19.284657,6.6213181 -18.3125,5.125 -16.985388,3.0168548 -14.418502,1.99304 -12,2 z"
         id="path3707" />
    </clipPath>
    <filter
       inkscape:collect="always"
       id="filter3709">
      <feGaussianBlur
         inkscape:collect="always"
         stdDeviation="0.40546239"
         id="feGaussianBlur3711" />
    </filter>
    <linearGradient
       inkscape:collect="always"
       xlink:href="#StandardGradient"
       id="linearGradient3183"
       gradientUnits="userSpaceOnUse"
       x1="6.8092694"
       y1="1.9880053"
       x2="6.8092694"
       y2="14.889104" />
    <linearGradient
       inkscape:collect="always"
       xlink:href="#StandardGradient"
       id="linearGradient3187"
       gradientUnits="userSpaceOnUse"
       x1="6.8092694"
       y1="1.9880053"
       x2="6.8092694"
       y2="14.889104" />
  </defs>
  <sodipodi:namedview
     id="base"
     pagecolor="#ffffff"
     bordercolor="#e7e7e7"
     borderopacity="1"
     inkscape:pageopacity="0.0"
     inkscape:pageshadow="2"
     inkscape:zoom="23.335256"
     inkscape:cx="-1.8674487"
     inkscape:cy="5.9283732"
     inkscape:document-units="px"
     inkscape:current-layer="layer1"
     showgrid="true"
     inkscape:showpageshadow="false"
     showguides="false"
     inkscape:guide-bbox="true"
     inkscape:window-width="1920"
     inkscape:window-height="1029"
     inkscape:window-x="0"
     inkscape:window-y="25"
     inkscape:window-maximized="1"
     inkscape:snap-global="false">
    <sodipodi:guide
       orientation="1,0"
       position="0,112"
       id="guide2383" />
    <sodipodi:guide
       orientation="0,1"
       position="26.278146,128"
       id="guide2385" />
    <sodipodi:guide
       orientation="1,0"
       position="128,54.082119"
       id="guide2387" />
    <sodipodi:guide
       orientation="0,1"
       position="78.156291,0"
       id="guide2389" />
    <sodipodi:guide
       orientation="0,1"
       position="60.863576,64.084768"
       id="guide2391" />
    <inkscape:grid
       type="xygrid"
       id="grid3672"
       visible="true"
       enabled="true" />
  </sodipodi:namedview>
  <metadata
     id="metadata7">
    <rdf:RDF>
      <cc:Work
         rdf:about="">
        <dc:format>image/svg+xml</dc:format>
        <dc:type
           rdf:resource="http://purl.org/dc/dcmitype/StillImage" />
      </cc:Work>
    </rdf:RDF>
  </metadata>
  <g
     inkscape:label="Button"
     inkscape:groupmode="layer"
     id="layer1">
    <path
       style="fill:#ffffff;fill-opacity:1;stroke:none;opacity:0.15"
       d="M 8 1 C 5.3010668 0.99223174 2.3996932 2.1221014 0.84375 4.59375 L 0.875 4.59375 C -0.32748677 6.4445863 -0.22092844 8.8824835 1.0625 10.65625 C 1.066485 10.661935 1.0584986 10.68183 1.0625 10.6875 C 1.6309659 11.493042 2.4401321 12.030796 3.25 12.53125 C 3.3000425 13.10092 2.9496115 13.741826 2.34375 14.28125 A 0.98666288 0.98666288 0 0 0 3.0625 16.03125 C 4.7865131 15.920507 6.1851697 14.952842 7.28125 13.84375 C 9.5516709 14.043182 11.890394 13.452762 13.6875 12 L 13.71875 12 C 15.399133 10.652661 16.389012 8.3787532 15.78125 6.15625 C 15.778692 6.1466757 15.783852 6.1345483 15.78125 6.125 C 15.067081 3.5045698 12.701512 1.8500068 10.3125 1.28125 C 9.5518311 1.0953449 8.7789903 0.99996274 8 1 z M 8 2 C 8.7003252 1.9999665 9.413277 2.0836945 10.09375 2.25 C 12.212511 2.7544175 14.258938 4.2177239 14.84375 6.40625 C 15.34577 8.1978861 14.513477 10.12134 13.09375 11.25 C 11.386492 12.639681 9.0753583 13.226893 6.90625 12.90625 C 5.9015462 14.021234 4.5343525 14.93269 3 15.03125 C 3.8037526 14.315635 4.5257087 13.249301 4.25 12.125 C 3.305834 11.651114 2.4498154 10.96546 1.84375 10.09375 C 0.79260768 8.658391 0.71534341 6.6213181 1.6875 5.125 C 3.0146119 3.0168548 5.5814984 1.9930389 8 2 z "
       id="path3185" />
    <path
       style="fill:url(#linearGradient3687);fill-opacity:1;stroke:none"
       d="M 8,2 C 5.5814984,1.9930389 3.0173879,3.0073774 1.690276,5.1155226 0.71811941,6.6118407 0.79139748,8.667262 1.8425398,10.102621 2.4486052,10.974331 3.305834,11.651114 4.25,12.125 4.5257087,13.249301 3.8037526,14.315635 3,15.03125 c 1.5343525,-0.09856 2.9015462,-1.010016 3.90625,-2.125 2.1691083,0.320643 4.494269,-0.265426 6.201527,-1.655107 1.419727,-1.12866 2.252028,-3.0679487 1.750008,-4.8595848 C 14.272973,4.2030321 12.200347,2.7516866 10.081586,2.2472691 9.401113,2.0809636 8.7003252,1.9999665 8,2 z"
       id="path2898" />
    <path
       style="font-size:48px;font-style:normal;font-variant:normal;font-weight:normal;font-stretch:normal;text-align:start;line-height:125%;writing-mode:tb-rl;text-anchor:start;fill:url(#linearGradient2896);fill-opacity:1;stroke:none;font-family:American Participants;-inkscape-font-specification:American Participants"
       d="M 10.229191,6.0112215 C 10.229187,6.4904211 10.0945,6.9025284 9.8251301,7.2475447 9.7431428,7.3625551 9.4971927,7.5957633 9.0872793,7.9471693 8.8179023,8.1835752 8.6832154,8.4040047 8.6832181,8.6084584 l 0,0.3354366 -1.6250285,0 0,-0.5462823 C 7.0581885,8.0334275 7.1870194,7.6947967 7.4446829,7.3817192 7.450537,7.3689447 7.6877033,7.1325418 8.1561819,6.6725106 8.4138415,6.4233338 8.5426724,6.1933206 8.5426751,5.9824698 8.5426724,5.8419111 8.4928969,5.7269044 8.3933482,5.6374493 8.2937945,5.541616 8.1766753,5.4936964 8.0419907,5.4936909 7.8663099,5.4936964 7.734551,5.5639784 7.6467134,5.7045366 7.5588724,5.8451057 7.5178807,6.0144214 7.5237383,6.2124833 l -1.5723249,0 0,-0.1533422 c 0,-0.632532 0.2137421,-1.1372834 0.6412275,-1.5142563 C 6.984989,4.193482 7.476889,4.0177774 8.0683425,4.0177702 c 0.5855931,7.2e-6 1.083349,0.1693226 1.4932694,0.5079466 0.4450491,0.3705838 0.6675751,0.8657515 0.6675791,1.4855047"
       id="path2892" />
    <path
       style="font-size:48px;font-style:normal;font-variant:normal;font-weight:normal;font-stretch:normal;text-align:start;line-height:125%;writing-mode:tb-rl;text-anchor:start;fill:url(#linearGradient2894);fill-opacity:1;stroke:none;font-family:American Participants;-inkscape-font-specification:American Participants"
       d="m 8.9447886,10.980538 c -3.2e-6,0.286812 -0.092314,0.519446 -0.2769339,0.697906 -0.1782591,0.184832 -0.4106284,0.27725 -0.6971094,0.27725 -0.2864854,0 -0.5220379,-0.09242 -0.7066588,-0.27725 -0.1782577,-0.17846 -0.2673857,-0.411094 -0.2673845,-0.697906 -1.2e-6,-0.286809 0.089127,-0.522631 0.2673845,-0.707466 0.1846209,-0.184832 0.4201734,-0.2772483 0.7066588,-0.2772497 0.286481,1.4e-6 0.5188503,0.092419 0.6971094,0.2772497 0.1846196,0.184835 0.2769307,0.420657 0.2769339,0.707466"
       id="path3695-9" />
    <path
       style="fill:#000000;fill-opacity:1;stroke:none;opacity:0.5"
       d="M 8 2 C 5.5814984 1.9930389 3.0146119 3.0168548 1.6875 5.125 C 1.1377946 5.9710922 0.92465159 6.9783149 1.03125 7.96875 C 1.1053435 7.3125655 1.3229413 6.6861193 1.6875 6.125 C 3.0146119 4.0168548 5.5814984 2.9930389 8 3 C 8.7003252 2.9999665 9.413277 3.0836945 10.09375 3.25 C 12.212511 3.7544175 14.258938 5.2177239 14.84375 7.40625 C 14.894518 7.5874321 14.944501 7.754289 14.96875 7.9375 C 15.025844 7.4236426 14.987244 6.9183593 14.84375 6.40625 C 14.258938 4.2177239 12.212511 2.7544175 10.09375 2.25 C 9.413277 2.0836945 8.7003252 1.9999665 8 2 z M 4.25 13.125 C 4.0764649 13.860504 3.5570954 14.535244 3 15.03125 C 3.3187408 15.010776 3.6349375 14.960172 3.9375 14.875 C 4.2403932 14.338187 4.4024808 13.746795 4.25 13.125 z "
       id="path3689" />
    <path
       style="fill:#ffffff;fill-opacity:1;stroke:none;opacity:0.3"
       d="M 14.96875 7.9375 C 14.826099 9.2213945 14.107672 10.443949 13.09375 11.25 C 11.386492 12.639681 9.0753583 13.226893 6.90625 12.90625 C 6.1102597 13.789611 5.0914107 14.550173 3.9375 14.875 C 3.6927158 15.308828 3.3592369 15.711406 3 16.03125 C 4.5343525 15.93269 5.9015462 15.021234 6.90625 13.90625 C 9.0753583 14.226893 11.386492 13.639681 13.09375 12.25 C 14.369905 11.235478 15.184289 9.5659883 14.96875 7.9375 z M 1.03125 7.96875 C 0.90776082 9.0623908 1.1867861 10.196651 1.84375 11.09375 C 2.4498154 11.96546 3.305834 12.651114 4.25 13.125 C 4.3268337 12.799351 4.33461 12.470028 4.25 12.125 C 3.305834 11.651114 2.4498154 10.96546 1.84375 10.09375 C 1.3869755 9.4700139 1.1131714 8.729904 1.03125 7.96875 z "
       id="path3761" />
  </g>
</svg>
