<?xml version="1.0" encoding="UTF-8" standalone="no"?>
<!-- Created with Inkscape (http://www.inkscape.org/) -->

<svg
   xmlns:dc="http://purl.org/dc/elements/1.1/"
   xmlns:cc="http://creativecommons.org/ns#"
   xmlns:rdf="http://www.w3.org/1999/02/22-rdf-syntax-ns#"
   xmlns:svg="http://www.w3.org/2000/svg"
   xmlns="http://www.w3.org/2000/svg"
   xmlns:xlink="http://www.w3.org/1999/xlink"
   xmlns:sodipodi="http://sodipodi.sourceforge.net/DTD/sodipodi-0.dtd"
   xmlns:inkscape="http://www.inkscape.org/namespaces/inkscape"
   width="16"
   height="16"
   id="svg2"
   sodipodi:version="0.32"
   inkscape:version="0.48.0 r9654"
   version="1.0"
   sodipodi:docname="list-remove.svg"
   inkscape:output_extension="org.inkscape.output.svg.inkscape">
  <defs
     id="defs4">
    <inkscape:perspective
       sodipodi:type="inkscape:persp3d"
       inkscape:vp_x="0 : 8 : 1"
       inkscape:vp_y="0 : 1000 : 0"
       inkscape:vp_z="16 : 8 : 1"
       inkscape:persp3d-origin="8 : 5.3333333 : 1"
       id="perspective18" />
    <linearGradient
       id="SpecificGradient"
       x1="12.437501"
       y1="5.9995675"
       x2="12.437501"
       y2="15.999567"
       gradientUnits="userSpaceOnUse">
      <stop
         style="stop-color:#ad0707;stop-opacity:1;"
         offset="0"
         id="stop3292" />
      <stop
         style="stop-color:#f75535;stop-opacity:1;"
         offset="1"
         id="stop3294" />
    </linearGradient>
    <inkscape:perspective
       id="perspective3648"
       inkscape:persp3d-origin="0.5 : 0.33333333 : 1"
       inkscape:vp_z="1 : 0.5 : 1"
       inkscape:vp_y="0 : 1000 : 0"
       inkscape:vp_x="0 : 0.5 : 1"
       sodipodi:type="inkscape:persp3d" />
    <linearGradient
       inkscape:collect="always"
       xlink:href="#SpecificGradient"
       id="linearGradient3634"
       gradientUnits="userSpaceOnUse"
       x1="12.437501"
       y1="5.9995675"
       x2="12.437501"
       y2="15.999567"
       gradientTransform="translate(-20,0)" />
    <clipPath
       clipPathUnits="userSpaceOnUse"
       id="clipPath3645">
      <path
         style="fill:#ff00ff;fill-opacity:1;stroke:none;display:inline"
         d="m -17,2.9995677 0,16.0000003 16,0 0,-16.0000003 -16,0 z m 5.3125,3 2.6875,2.6875 2.6875,-2.6875 2.3125,2.3125 -2.6875,2.6875003 2.6875,2.6875 -2.3125,2.3125 -2.6875,-2.6875 -2.6875,2.6875 -2.3125,-2.3125 2.6875,-2.6875 L -14,8.3120677 l 2.3125,-2.3125 z"
         id="path3647" />
    </clipPath>
    <linearGradient
       inkscape:collect="always"
       xlink:href="#SpecificGradient"
       id="linearGradient3782"
       gradientUnits="userSpaceOnUse"
       x1="12.437501"
       y1="5.9995675"
       x2="12.437501"
       y2="15.999567" />
    <linearGradient
       inkscape:collect="always"
       xlink:href="#SpecificGradient"
       id="linearGradient3786"
       gradientUnits="userSpaceOnUse"
       x1="12.437501"
       y1="5.9995675"
       x2="12.437501"
       y2="15.999567"
       gradientTransform="translate(-3,-2.9995677)" />
  </defs>
  <sodipodi:namedview
     id="base"
     pagecolor="#ffffff"
     bordercolor="#9a9a9a"
     borderopacity="1"
     inkscape:pageopacity="0.0"
     inkscape:pageshadow="2"
     inkscape:zoom="16.540628"
     inkscape:cx="-6.4521264"
     inkscape:cy="7.3607994"
     inkscape:document-units="px"
     inkscape:current-layer="layer3"
     showgrid="true"
     inkscape:showpageshadow="false"
     showguides="true"
     inkscape:guide-bbox="true"
     inkscape:window-width="1920"
     inkscape:window-height="1029"
     inkscape:window-x="0"
     inkscape:window-y="25"
     inkscape:window-maximized="1">
    <sodipodi:guide
       orientation="1,0"
       position="0,112"
       id="guide2383" />
    <sodipodi:guide
       orientation="0,1"
       position="26.278146,128"
       id="guide2385" />
    <sodipodi:guide
       orientation="1,0"
       position="128,54.082119"
       id="guide2387" />
    <sodipodi:guide
       orientation="0,1"
       position="78.156291,0"
       id="guide2389" />
    <inkscape:grid
       type="xygrid"
       id="grid3672"
       visible="true"
       enabled="true" />
  </sodipodi:namedview>
  <metadata
     id="metadata7">
    <rdf:RDF>
      <cc:Work
         rdf:about="">
        <dc:format>image/svg+xml</dc:format>
        <dc:type
           rdf:resource="http://purl.org/dc/dcmitype/StillImage" />
      </cc:Work>
    </rdf:RDF>
  </metadata>
  <g
     inkscape:groupmode="layer"
     id="layer3"
     inkscape:label="Cross"
     style="display:inline"
     transform="translate(-3,-2.9995677)">
    <path
       style="fill:#ffffff;fill-opacity:1;stroke:none;opacity:0.15"
       d="M 5.1875 1.96875 A 1.034964 1.034964 0 0 0 4.59375 2.28125 L 2.28125 4.59375 A 1.034964 1.034964 0 0 0 2.28125 6.03125 L 4.25 8 L 2.28125 9.96875 A 1.034964 1.034964 0 0 0 2.28125 11.40625 L 4.59375 13.71875 A 1.034964 1.034964 0 0 0 6.03125 13.71875 L 8 11.75 L 9.96875 13.71875 A 1.034964 1.034964 0 0 0 11.40625 13.71875 L 13.71875 11.40625 A 1.034964 1.034964 0 0 0 13.71875 9.96875 L 11.75 8 L 13.71875 6.03125 A 1.034964 1.034964 0 0 0 13.71875 4.59375 L 11.40625 2.28125 A 1.034964 1.034964 0 0 0 9.96875 2.28125 L 8 4.25 L 6.03125 2.28125 A 1.034964 1.034964 0 0 0 5.1875 1.96875 z M 5.3125 3 L 8 5.6875 L 10.6875 3 L 13 5.3125 L 10.3125 8 L 13 10.6875 L 10.6875 13 L 8 10.3125 L 5.3125 13 L 3 10.6875 L 5.6875 8 L 3 5.3125 L 5.3125 3 z "
       transform="translate(3,2.9995677)"
       id="path3784" />
    <path
       style="fill:url(#SpecificGradient);fill-opacity:1;stroke:none;stroke-width:1.00000024000000010;stroke-linecap:round;stroke-linejoin:miter;stroke-miterlimit:4;stroke-dasharray:none;stroke-opacity:1"
       d="M 13.692307,5.9995672 L 10.999999,8.6918747 L 8.3076924,5.9995672 L 6,8.3072593 L 8.6923077,10.999566 L 6,13.691874 L 8.3076924,15.999568 L 10.999999,13.307259 L 13.692307,15.999568 L 16,13.691874 L 13.307692,10.999566 L 16,8.3072593 L 13.692307,5.9995672 z"
       id="Symbol"
       inkscape:label="#rect2498" />
    <path
       style="fill:#500000;fill-opacity:1;stroke:none;stroke-width:1.00000024000000010;stroke-linecap:round;stroke-linejoin:miter;stroke-miterlimit:4;stroke-dasharray:none;stroke-opacity:1;opacity:0.5"
       d="M 5.3125 3 L 3 5.3125 L 3.5 5.8125 L 5.3125 4 L 8 6.6875 L 10.6875 4 L 12.5 5.8125 L 13 5.3125 L 10.6875 3 L 8 5.6875 L 5.3125 3 z M 5.6875 8 L 5.1875 8.5 L 5.15625 8.53125 L 3 10.6875 L 3.5 11.1875 L 5.6875 9 L 5.6875 8 z M 10.3125 8 L 10.3125 9 L 12.5 11.1875 L 13 10.6875 L 10.90625 8.59375 L 10.8125 8.5 L 10.3125 8 z "
       transform="translate(3,2.9995677)"
       id="BevelShadow"
       inkscape:label="#path3169" />
    <path
       style="fill:#ffffff;fill-opacity:1;stroke:none;stroke-width:1.00000024000000010;stroke-linecap:round;stroke-linejoin:miter;stroke-miterlimit:4;stroke-dasharray:none;stroke-opacity:1;opacity:0.3"
       d="M 3 5.3125 L 3 6.3125 L 5.1875 8.5 L 5.6875 8 L 3 5.3125 z M 13 5.3125 L 10.3125 8 L 10.8125 8.5 L 13 6.3125 L 13 5.3125 z M 8 10.3125 L 5.3125 13 L 3 10.6875 L 3 11.6875 L 5.3125 14 L 8 11.3125 L 10.6875 14 L 13 11.6875 L 13 10.6875 L 10.6875 13 L 8 10.3125 z "
       transform="translate(3,2.9995677)"
       id="BevelHighlight"
       inkscape:label="#path3182" />
  </g>
</svg>
