<?xml version="1.0" encoding="UTF-8" standalone="no"?>
<!-- Created with Inkscape (http://www.inkscape.org/) -->

<svg
   xmlns:dc="http://purl.org/dc/elements/1.1/"
   xmlns:cc="http://creativecommons.org/ns#"
   xmlns:rdf="http://www.w3.org/1999/02/22-rdf-syntax-ns#"
   xmlns:svg="http://www.w3.org/2000/svg"
   xmlns="http://www.w3.org/2000/svg"
   xmlns:xlink="http://www.w3.org/1999/xlink"
   xmlns:sodipodi="http://sodipodi.sourceforge.net/DTD/sodipodi-0.dtd"
   xmlns:inkscape="http://www.inkscape.org/namespaces/inkscape"
   width="22"
   height="22"
   id="svg2"
   sodipodi:version="0.32"
   inkscape:version="0.48.0 r9654"
   version="1.0"
   sodipodi:docname="applications-system.svg"
   inkscape:output_extension="org.inkscape.output.svg.inkscape"
   style="display:inline">
  <sodipodi:namedview
     id="base"
     pagecolor="#ffffff"
     bordercolor="#e7e7e7"
     borderopacity="1"
     inkscape:pageopacity="0.0"
     inkscape:pageshadow="2"
     inkscape:zoom="17.365065"
     inkscape:cx="-6.9990256"
     inkscape:cy="7.6941654"
     inkscape:document-units="px"
     inkscape:current-layer="layer1"
     showgrid="true"
     inkscape:showpageshadow="false"
     showguides="true"
     inkscape:guide-bbox="true"
     inkscape:window-width="1920"
     inkscape:window-height="1026"
     inkscape:window-x="0"
     inkscape:window-y="25"
     inkscape:window-maximized="1">
    <sodipodi:guide
       id="guide2383"
       position="0,112"
       orientation="1,0" />
    <sodipodi:guide
       id="guide2385"
       position="26.278146,128"
       orientation="0,1" />
    <sodipodi:guide
       id="guide2387"
       position="128,54.082119"
       orientation="1,0" />
    <sodipodi:guide
       id="guide2389"
       position="78.156291,0"
       orientation="0,1" />
    <sodipodi:guide
       id="guide2391"
       position="60.863576,64.084768"
       orientation="0,1" />
    <inkscape:grid
       id="grid3672"
       type="xygrid"
       visible="true"
       enabled="true" />
  </sodipodi:namedview>
  <defs
     id="defs4">
    <linearGradient
       inkscape:collect="always"
       id="linearGradient3327">
      <stop
         style="stop-color:#000000;stop-opacity:1;"
         offset="0"
         id="stop3330" />
      <stop
         style="stop-color:#000000;stop-opacity:0;"
         offset="1"
         id="stop3333" />
    </linearGradient>
    <linearGradient
       inkscape:collect="always"
       xlink:href="#linearGradient3327"
       id="linearGradient3335"
       x1="11.375"
       y1="22"
       x2="11.375"
       y2="-9.817296"
       gradientUnits="userSpaceOnUse" />
    <inkscape:perspective
       sodipodi:type="inkscape:persp3d"
       inkscape:vp_x="0 : 11 : 1"
       inkscape:vp_y="0 : 1000 : 0"
       inkscape:vp_z="22 : 11 : 1"
       inkscape:persp3d-origin="11 : 7.3333333 : 1"
       id="perspective83" />
    <linearGradient
       id="linearGradient3215">
      <stop
         id="stop3217"
         offset="0"
         style="stop-color:#000000;stop-opacity:0.70588237;" />
      <stop
         id="stop3219"
         offset="1"
         style="stop-color:#000000;stop-opacity:0.15686275;" />
    </linearGradient>
    <linearGradient
       gradientUnits="userSpaceOnUse"
       y2="-6.0004225"
       x2="11"
       y1="20.302608"
       x1="11"
       id="linearGradient3221"
       xlink:href="#linearGradient3215"
       inkscape:collect="always"
       gradientTransform="translate(-1.262207e-6,-8.3496094e-7)" />
    <linearGradient
       y2="5.9489675"
       x2="47.667068"
       y1="121.97153"
       x1="47.667068"
       gradientTransform="matrix(0.1678362,0,0,0.1678362,0.2447357,0.2447362)"
       gradientUnits="userSpaceOnUse"
       id="linearGradient2442"
       xlink:href="#linearGradient3187"
       inkscape:collect="always" />
    <linearGradient
       id="linearGradient7450">
      <stop
         style="stop-color:#e3e3e3;stop-opacity:1;"
         offset="0"
         id="stop7452" />
      <stop
         style="stop-color:#939393;stop-opacity:1;"
         offset="1"
         id="stop7454" />
    </linearGradient>
    <linearGradient
       id="linearGradient3234">
      <stop
         id="stop3236"
         offset="0"
         style="stop-color:#232323;stop-opacity:1;" />
      <stop
         id="stop3238"
         offset="1"
         style="stop-color:#4b4b4b;stop-opacity:1;" />
    </linearGradient>
    <linearGradient
       id="linearGradient3298">
      <stop
         id="stop3300"
         offset="0"
         style="stop-color:#f9f9f9;stop-opacity:1;" />
      <stop
         id="stop3302"
         offset="1"
         style="stop-color:#3c3c3c;stop-opacity:1;" />
    </linearGradient>
    <linearGradient
       id="linearGradient3187">
      <stop
         id="stop3189"
         offset="0"
         style="stop-color:#656565;stop-opacity:1;" />
      <stop
         id="stop3191"
         offset="1"
         style="stop-color:#dcdcdc;stop-opacity:1;" />
    </linearGradient>
    <linearGradient
       gradientUnits="userSpaceOnUse"
       y2="5.9781809"
       x2="69"
       y1="122"
       x1="69"
       id="linearGradient5194"
       xlink:href="#linearGradient3187"
       inkscape:collect="always"
       gradientTransform="translate(36.042403,-55.830388)" />
    <linearGradient
       gradientUnits="userSpaceOnUse"
       y2="8.550745"
       x2="60.777386"
       y1="115.27915"
       x1="60.777386"
       id="linearGradient3240"
       xlink:href="#linearGradient3234"
       inkscape:collect="always"
       gradientTransform="matrix(0.1715152,0,0,0.1709396,6.0606e-2,-6.8188e-2)" />
    <linearGradient
       gradientUnits="userSpaceOnUse"
       y2="11.983011"
       x2="54.402828"
       y1="116"
       x1="54.402828"
       id="linearGradient3258"
       xlink:href="#linearGradient3298"
       inkscape:collect="always"
       gradientTransform="translate(36.042403,-55.830388)" />
    <linearGradient
       inkscape:collect="always"
       xlink:href="#linearGradient7450"
       id="linearGradient7758"
       x1="39.291836"
       y1="18.784508"
       x2="77.519737"
       y2="37.810905"
       gradientUnits="userSpaceOnUse" />
    <radialGradient
       inkscape:collect="always"
       xlink:href="#linearGradient7450"
       id="radialGradient7825"
       cx="48.969208"
       cy="1.4732536"
       fx="48.969208"
       fy="1.4732536"
       r="83.476051"
       gradientTransform="matrix(0.9999932,3.6856197e-3,-2.0988189e-3,0.5694577,3.4246871e-3,0.4534116)"
       gradientUnits="userSpaceOnUse" />
    <radialGradient
       inkscape:collect="always"
       xlink:href="#linearGradient7450"
       id="radialGradient3278"
       gradientUnits="userSpaceOnUse"
       gradientTransform="matrix(0.9099711,-0.9099711,0.5792493,0.5792493,12.19684,21.204712)"
       cx="56.055019"
       cy="55.978848"
       fx="56.055019"
       fy="55.978848"
       r="52.251602" />
    <radialGradient
       inkscape:collect="always"
       xlink:href="#linearGradient7450"
       id="radialGradient3284"
       gradientUnits="userSpaceOnUse"
       gradientTransform="matrix(0.9999932,3.6856197e-3,-2.0988189e-3,0.5694577,3.4246871e-3,0.4534116)"
       cx="48.969208"
       cy="1.4732536"
       fx="48.969208"
       fy="1.4732536"
       r="83.476051" />
    <linearGradient
       inkscape:collect="always"
       xlink:href="#linearGradient7450"
       id="linearGradient3286"
       gradientUnits="userSpaceOnUse"
       x1="39.291836"
       y1="18.784508"
       x2="77.519737"
       y2="37.810905" />
    <radialGradient
       inkscape:collect="always"
       xlink:href="#linearGradient7450"
       id="radialGradient3301"
       gradientUnits="userSpaceOnUse"
       gradientTransform="matrix(0.9999932,3.6856197e-3,-2.0988189e-3,0.5694577,3.4246871e-3,0.4534116)"
       cx="48.969208"
       cy="1.4732536"
       fx="48.969208"
       fy="1.4732536"
       r="83.476051" />
    <radialGradient
       inkscape:collect="always"
       xlink:href="#linearGradient7450"
       id="radialGradient3303"
       gradientUnits="userSpaceOnUse"
       gradientTransform="matrix(0.9999932,3.6856197e-3,-2.0988189e-3,0.5694577,3.4246871e-3,0.4534116)"
       cx="48.969208"
       cy="1.4732536"
       fx="48.969208"
       fy="1.4732536"
       r="83.476051" />
    <linearGradient
       inkscape:collect="always"
       xlink:href="#linearGradient7450"
       id="linearGradient3305"
       gradientUnits="userSpaceOnUse"
       x1="39.291836"
       y1="18.784508"
       x2="77.519737"
       y2="37.810905" />
    <linearGradient
       inkscape:collect="always"
       xlink:href="#linearGradient3298"
       id="linearGradient3307"
       gradientUnits="userSpaceOnUse"
       x1="80.875443"
       y1="82.61515"
       x2="82.573708"
       y2="84.937546" />
    <linearGradient
       inkscape:collect="always"
       xlink:href="#linearGradient3187"
       id="linearGradient3890"
       gradientUnits="userSpaceOnUse"
       gradientTransform="matrix(0.1678362,0,0,0.1678362,0.2447357,0.2447362)"
       x1="47.667068"
       y1="121.97153"
       x2="47.667068"
       y2="5.9489675" />
    <radialGradient
       inkscape:collect="always"
       xlink:href="#linearGradient7450"
       id="radialGradient3909"
       gradientUnits="userSpaceOnUse"
       gradientTransform="matrix(0.9099711,-0.9099711,0.5792493,0.5792493,12.19684,21.204712)"
       cx="56.055019"
       cy="55.978848"
       fx="56.055019"
       fy="55.978848"
       r="52.251602" />
    <linearGradient
       inkscape:collect="always"
       xlink:href="#linearGradient3298"
       id="linearGradient3911"
       gradientUnits="userSpaceOnUse"
       x1="80.875443"
       y1="82.61515"
       x2="82.573708"
       y2="84.937546" />
    <radialGradient
       inkscape:collect="always"
       xlink:href="#linearGradient7450"
       id="radialGradient3913"
       gradientUnits="userSpaceOnUse"
       gradientTransform="matrix(0.9999932,3.6856197e-3,-2.0988189e-3,0.5694577,3.4246871e-3,0.4534116)"
       cx="48.969208"
       cy="1.4732536"
       fx="48.969208"
       fy="1.4732536"
       r="83.476051" />
    <radialGradient
       inkscape:collect="always"
       xlink:href="#linearGradient7450"
       id="radialGradient3915"
       gradientUnits="userSpaceOnUse"
       gradientTransform="matrix(0.9999932,3.6856197e-3,-2.0988189e-3,0.5694577,3.4246871e-3,0.4534116)"
       cx="48.969208"
       cy="1.4732536"
       fx="48.969208"
       fy="1.4732536"
       r="83.476051" />
    <linearGradient
       inkscape:collect="always"
       xlink:href="#linearGradient7450"
       id="linearGradient3917"
       gradientUnits="userSpaceOnUse"
       x1="39.291836"
       y1="18.784508"
       x2="77.519737"
       y2="37.810905" />
    <radialGradient
       inkscape:collect="always"
       xlink:href="#linearGradient7450"
       id="radialGradient3948"
       gradientUnits="userSpaceOnUse"
       gradientTransform="matrix(0.9099711,-0.9099711,0.5792493,0.5792493,12.19684,21.204712)"
       cx="56.055019"
       cy="55.978848"
       fx="56.055019"
       fy="55.978848"
       r="52.251602" />
    <linearGradient
       inkscape:collect="always"
       xlink:href="#linearGradient3298"
       id="linearGradient3950"
       gradientUnits="userSpaceOnUse"
       x1="80.875443"
       y1="82.61515"
       x2="82.573708"
       y2="84.937546" />
    <radialGradient
       inkscape:collect="always"
       xlink:href="#linearGradient7450"
       id="radialGradient3952"
       gradientUnits="userSpaceOnUse"
       gradientTransform="matrix(0.9999932,3.6856197e-3,-2.0988189e-3,0.5694577,3.4246871e-3,0.4534116)"
       cx="48.969208"
       cy="1.4732536"
       fx="48.969208"
       fy="1.4732536"
       r="83.476051" />
    <radialGradient
       inkscape:collect="always"
       xlink:href="#linearGradient7450"
       id="radialGradient3954"
       gradientUnits="userSpaceOnUse"
       gradientTransform="matrix(0.9999932,3.6856197e-3,-2.0988189e-3,0.5694577,3.4246871e-3,0.4534116)"
       cx="48.969208"
       cy="1.4732536"
       fx="48.969208"
       fy="1.4732536"
       r="83.476051" />
    <linearGradient
       inkscape:collect="always"
       xlink:href="#linearGradient7450"
       id="linearGradient3956"
       gradientUnits="userSpaceOnUse"
       x1="39.291836"
       y1="18.784508"
       x2="77.519737"
       y2="37.810905" />
    <radialGradient
       inkscape:collect="always"
       xlink:href="#linearGradient7450"
       id="radialGradient3962"
       gradientUnits="userSpaceOnUse"
       gradientTransform="matrix(0.1410345,-0.1410345,8.9776633e-2,8.9776633e-2,-2.5218778,12.907749)"
       cx="56.055019"
       cy="55.978848"
       fx="56.055019"
       fy="55.978848"
       r="52.251602" />
    <radialGradient
       inkscape:collect="always"
       xlink:href="#linearGradient7450"
       id="radialGradient3964"
       gradientUnits="userSpaceOnUse"
       gradientTransform="matrix(0.9999932,3.6856197e-3,-2.0988189e-3,0.5694577,3.4246871e-3,0.4534116)"
       cx="48.969208"
       cy="1.4732536"
       fx="48.969208"
       fy="1.4732536"
       r="83.476051" />
    <radialGradient
       inkscape:collect="always"
       xlink:href="#linearGradient7450"
       id="radialGradient3966"
       gradientUnits="userSpaceOnUse"
       gradientTransform="matrix(0.9999932,3.6856197e-3,-2.0988189e-3,0.5694577,3.4246871e-3,0.4534116)"
       cx="48.969208"
       cy="1.4732536"
       fx="48.969208"
       fy="1.4732536"
       r="83.476051" />
    <linearGradient
       inkscape:collect="always"
       xlink:href="#linearGradient7450"
       id="linearGradient3968"
       gradientUnits="userSpaceOnUse"
       x1="39.291836"
       y1="18.784508"
       x2="77.519737"
       y2="37.810905" />
    <radialGradient
       inkscape:collect="always"
       xlink:href="#linearGradient7450"
       id="radialGradient3978"
       gradientUnits="userSpaceOnUse"
       gradientTransform="matrix(0.109593,0.109593,-6.240898e-2,6.2409017e-2,2.3331426,-1.1617165)"
       cx="48.969208"
       cy="1.4732536"
       fx="48.969208"
       fy="1.4732536"
       r="83.476051" />
    <filter
       inkscape:collect="always"
       id="filter3984">
      <feGaussianBlur
         inkscape:collect="always"
         stdDeviation="0.36"
         id="feGaussianBlur3986" />
    </filter>
    <filter
       inkscape:collect="always"
       id="filter4007">
      <feGaussianBlur
         inkscape:collect="always"
         stdDeviation="0.63441145"
         id="feGaussianBlur4009" />
    </filter>
    <linearGradient
       inkscape:collect="always"
       xlink:href="#linearGradient3187"
       id="linearGradient3235"
       x1="5.9187279"
       y1="25.127209"
       x2="5.9187279"
       y2="5.1117616"
       gradientUnits="userSpaceOnUse"
       gradientTransform="translate(3.9593642,-4.1272096)" />
    <linearGradient
       y2="16"
       x2="10"
       y1="1"
       x1="10"
       gradientUnits="userSpaceOnUse"
       id="linearGradient3084"
       xlink:href="#linearGradient3823"
       inkscape:collect="always" />
    <linearGradient
       id="linearGradient3823">
      <stop
         id="stop3825"
         offset="0"
         style="stop-color:#ffffff;stop-opacity:1;" />
      <stop
         id="stop3829"
         offset="1"
         style="stop-color:#ffffff;stop-opacity:0;" />
    </linearGradient>
    <linearGradient
       inkscape:collect="always"
       xlink:href="#linearGradient3831"
       id="linearGradient3845"
       x1="11"
       y1="19.5"
       x2="21"
       y2="19.5"
       gradientUnits="userSpaceOnUse"
       spreadMethod="reflect" />
    <linearGradient
       id="linearGradient3831">
      <stop
         style="stop-color:#ffffff;stop-opacity:1;"
         offset="0"
         id="stop3833" />
      <stop
         id="stop3821"
         offset="0.75"
         style="stop-color:#ffffff;stop-opacity:0.49803922;" />
      <stop
         style="stop-color:#ffffff;stop-opacity:0;"
         offset="1"
         id="stop3835" />
    </linearGradient>
    <linearGradient
       y2="16"
       x2="10"
       y1="1"
       x1="10"
       gradientUnits="userSpaceOnUse"
       id="linearGradient3852"
       xlink:href="#linearGradient3823"
       inkscape:collect="always" />
  </defs>
  <metadata
     id="metadata7">
    <rdf:RDF>
      <cc:Work
         rdf:about="">
        <dc:format>image/svg+xml</dc:format>
        <dc:type
           rdf:resource="http://purl.org/dc/dcmitype/StillImage" />
      </cc:Work>
    </rdf:RDF>
  </metadata>
  <g
     inkscape:groupmode="layer"
     id="layer2"
     inkscape:label="Shadow"
     sodipodi:insensitive="true">
    <g
       style="display:inline"
       id="g3337">
      <rect
         ry="2.5"
         rx="2.5"
         y="0.5"
         x="0.5"
         height="21.5"
         width="21"
         id="rect3371"
         style="opacity:0.3;fill:url(#linearGradient3335);fill-opacity:1;stroke:none;display:inline" />
      <rect
         style="opacity:0.5;fill:#000000;fill-opacity:1;stroke:none;display:inline"
         id="rect2553"
         width="20"
         height="20"
         x="1"
         y="2"
         rx="2.3809524"
         ry="2.3255813" />
    </g>
  </g>
  <g
     inkscape:label="Background"
     id="layer3"
     inkscape:groupmode="layer"
     sodipodi:insensitive="true">
    <rect
       ry="1.8803357"
       rx="1.8866667"
       y="2"
       x="2"
       height="18"
       width="18"
       id="rect3232"
       style="opacity:1;fill:url(#linearGradient3240);fill-opacity:1;fill-rule:evenodd;stroke:none;stroke-width:4;stroke-linecap:butt;stroke-linejoin:round;stroke-miterlimit:4;stroke-dasharray:none;stroke-dashoffset:0;stroke-opacity:1" />
  </g>
  <g
     inkscape:groupmode="layer"
     id="layer5"
     inkscape:label="Gears 2"
     sodipodi:insensitive="true">
    <path
       d="M 14.40625,6.9375 L 14.15625,7.5625 L 14.0625,8.03125 L 14.09375,8.1875 L 13.40625,8.28125 L 13.375,8.125 L 13.1875,7.6875 L 12.75,7.15625 L 12.34375,7.28125 L 12.25,7.9375 L 12.28125,8.40625 L 12.34375,8.5625 L 11.71875,8.84375 L 11.65625,8.6875 L 11.34375,8.3125 L 10.8125,7.90625 L 10.4375,8.125 L 10.5,8.8125 L 10.6875,9.21875 L 10.78125,9.375 L 10.21875,9.78125 L 10.125,9.65625 L 9.75,9.40625 L 9.125,9.125 L 8.8125,9.4375 L 9.0625,10.09375 L 9.3125,10.4375 L 9.46875,10.5625 L 9.03125,11.09375 L 8.90625,11 L 8.46875,10.84375 L 7.78125,10.75 L 7.5625,11.15625 L 7.96875,11.6875 L 8.34375,11.96875 L 8.5,12.0625 L 8.21875,12.6875 L 8.0625,12.625 L 7.625,12.59375 L 6.9375,12.6875 L 6.8125,13.09375 L 7.375,13.53125 L 7.78125,13.71875 L 7.9375,13.75 L 7.875,14.40625 L 7.6875,14.40625 L 7.25,14.46875 L 6.59375,14.75 L 6.59375,15.1875 L 7.25,15.4375 L 7.6875,15.53125 L 7.875,15.5 L 7.9375,16.1875 L 7.78125,16.21875 L 7.375,16.40625 L 6.8125,16.8125 L 6.9375,17.25 L 7.625,17.34375 L 8.0625,17.3125 L 8.21875,17.25 L 8.5,17.875 L 8.34375,17.9375 L 7.96875,18.25 L 7.5625,18.78125 L 7.78125,19.15625 L 8.46875,19.0625 L 8.90625,18.90625 L 9.03125,18.8125 L 9.46875,19.375 L 9.3125,19.46875 L 9.0625,19.84375 L 8.8125,20.46875 L 8.84375,20.5 L 9.78125,20.5 L 10.125,20.25 L 10.21875,20.125 L 10.6875,20.5 L 13.28125,20.5 C 11.767892,20.131049 10.490722,19.151074 9.71875,17.84375 L 12.15625,16.75 C 12.676152,17.472147 13.493949,17.945508 14.4375,18 L 14.78125,20.5 L 15.96875,20.5 L 15.59375,17.84375 C 16.443955,17.555404 17.143334,16.894921 17.46875,16.0625 L 20,16.53125 L 20,15.34375 L 17.65625,14.9375 C 17.644927,13.987292 17.192932,13.143943 16.5,12.59375 L 17.75,10.1875 C 18.77534,10.859335 19.57619,11.861134 20,13.03125 L 20,10.8125 L 19.78125,10.5625 L 19.9375,10.4375 L 20,10.34375 L 20,9.1875 L 19.5,9.40625 L 19.125,9.65625 L 19.03125,9.78125 L 18.46875,9.375 L 18.59375,9.21875 L 18.75,8.8125 L 18.84375,8.125 L 18.4375,7.90625 L 17.90625,8.3125 L 17.625,8.6875 L 17.53125,8.84375 L 16.90625,8.5625 L 16.96875,8.40625 L 17,7.9375 L 16.90625,7.28125 L 16.5,7.15625 L 16.0625,7.6875 L 15.875,8.125 L 15.84375,8.28125 L 15.1875,8.1875 L 15.1875,8.03125 L 15.125,7.5625 L 14.84375,6.9375 L 14.40625,6.9375 z M 15.96875,20.5 L 18.125,20.5 C 18.315732,20.5 18.482963,20.45824 18.65625,20.40625 L 19.03125,20.125 L 19.09375,20.21875 C 19.404477,20.026846 19.657201,19.739178 19.8125,19.40625 L 19.78125,19.375 L 19.875,19.25 C 19.947245,19.050159 20,18.850259 20,18.625 L 20,16.8125 C 19.372318,18.641621 17.869709,20.042391 15.96875,20.5 z M 14.625,9.25 C 15.362234,9.2500002 16.071819,9.4014383 16.71875,9.65625 L 15.46875,12.03125 C 15.197295,11.951731 14.922058,11.90625 14.625,11.90625 C 14.035983,11.90625 13.497221,12.084751 13.03125,12.375 L 11.1875,10.40625 C 12.143766,9.684176 13.335388,9.25 14.625,9.25 z M 10.34375,11.1875 L 12.15625,13.15625 C 11.789137,13.658846 11.59375,14.299144 11.59375,14.96875 C 11.59375,15.215947 11.600511,15.457356 11.65625,15.6875 L 9.21875,16.8125 C 9.0217639,16.234884 8.90625,15.612615 8.90625,14.96875 C 8.9062502,13.527636 9.4611046,12.191857 10.34375,11.1875 z M 8.9375,2.5 C 8.8687334,3.8232835 8.3498644,5.1426913 7.34375,6.15625 C 5.8974483,7.6132526 3.8563223,8.0692349 2,7.59375 L 2,9.75 L 2.03125,9.6875 L 2.0625,9.5 L 2.8125,9.59375 L 2.8125,9.78125 L 2.875,10.28125 L 3.1875,10.96875 L 3.65625,10.96875 L 3.9375,10.28125 L 4.03125,9.78125 L 4,9.59375 L 4.75,9.5 L 4.78125,9.6875 L 5,10.125 L 5.4375,10.71875 L 5.90625,10.59375 L 6,9.84375 L 5.96875,9.34375 L 5.90625,9.1875 L 6.59375,8.875 L 6.65625,9.0625 L 6.96875,9.4375 L 7.5625,9.875 L 8,9.65625 L 7.90625,8.90625 L 7.71875,8.4375 L 7.59375,8.28125 L 8.1875,7.84375 L 8.3125,7.96875 L 8.71875,8.25 L 9.40625,8.53125 L 9.75,8.1875 L 9.46875,7.53125 L 9.1875,7.09375 L 9.03125,7 L 9.5,6.40625 L 9.65625,6.5 L 10.125,6.6875 L 10.84375,6.78125 L 11.09375,6.34375 L 10.625,5.75 L 10.25,5.4375 L 10.09375,5.375 L 10.375,4.6875 L 10.53125,4.71875 L 11.03125,4.78125 L 11.78125,4.6875 L 11.90625,4.21875 L 11.3125,3.75 L 10.84375,3.5625 L 10.65625,3.53125 L 10.75,2.78125 L 10.9375,2.78125 L 11.4375,2.71875 L 11.96875,2.5 L 8.9375,2.5 z"
       style="opacity:0.8;fill:#000000;fill-opacity:1;stroke:none;stroke-width:1;stroke-miterlimit:4;stroke-dasharray:none;stroke-opacity:1;filter:url(#filter3984)"
       id="path3982" />
    <path
       id="path6159"
       style="fill:url(#radialGradient3962);fill-opacity:1;stroke:none;stroke-width:1;stroke-miterlimit:4;stroke-dasharray:none;stroke-opacity:1"
       d="M 14.40625,6.4375 L 14.15625,7.0625 L 14.0625,7.53125 L 14.09375,7.6875 L 13.40625,7.78125 L 13.375,7.625 L 13.1875,7.1875 L 12.75,6.65625 L 12.34375,6.78125 L 12.25,7.4375 L 12.28125,7.90625 L 12.34375,8.0625 L 11.71875,8.34375 L 11.65625,8.1875 L 11.34375,7.8125 L 10.8125,7.40625 L 10.4375,7.625 L 10.5,8.3125 L 10.6875,8.71875 L 10.78125,8.875 L 10.21875,9.28125 L 10.125,9.15625 L 9.75,8.90625 L 9.125,8.625 L 8.8125,8.9375 L 9.0625,9.59375 L 9.3125,9.9375 L 9.46875,10.0625 L 9.03125,10.59375 L 8.90625,10.5 L 8.46875,10.34375 L 7.78125,10.25 L 7.5625,10.65625 L 7.96875,11.1875 L 8.34375,11.46875 L 8.5,11.5625 L 8.21875,12.1875 L 8.0625,12.125 L 7.625,12.09375 L 6.9375,12.1875 L 6.8125,12.59375 L 7.375,13.03125 L 7.78125,13.21875 L 7.9375,13.25 L 7.875,13.90625 L 7.6875,13.90625 L 7.25,13.96875 L 6.59375,14.25 L 6.59375,14.6875 L 7.25,14.9375 L 7.6875,15.03125 L 7.875,15 L 7.9375,15.6875 L 7.78125,15.71875 L 7.375,15.90625 L 6.8125,16.3125 L 6.9375,16.75 L 7.625,16.84375 L 8.0625,16.8125 L 8.21875,16.75 L 8.5,17.375 L 8.34375,17.4375 L 7.96875,17.75 L 7.5625,18.28125 L 7.78125,18.65625 L 8.46875,18.5625 L 8.90625,18.40625 L 9.03125,18.3125 L 9.46875,18.875 L 9.3125,18.96875 L 9.0625,19.34375 L 8.8125,19.96875 L 8.84375,20 L 9.78125,20 L 10.125,19.75 L 10.21875,19.625 L 10.6875,20 L 13.28125,20 C 11.767892,19.631049 10.490722,18.651074 9.71875,17.34375 L 12.15625,16.25 C 12.676152,16.972147 13.493949,17.445508 14.4375,17.5 L 14.78125,20 L 15.96875,20 L 15.59375,17.34375 C 16.443955,17.055404 17.143334,16.394921 17.46875,15.5625 L 20,16.03125 L 20,14.84375 L 17.65625,14.4375 C 17.644927,13.487292 17.192932,12.643943 16.5,12.09375 L 17.75,9.6875 C 18.77534,10.359335 19.57619,11.361134 20,12.53125 L 20,10.3125 L 19.78125,10.0625 L 19.9375,9.9375 L 20,9.84375 L 20,8.6875 L 19.5,8.90625 L 19.125,9.15625 L 19.03125,9.28125 L 18.46875,8.875 L 18.59375,8.71875 L 18.75,8.3125 L 18.84375,7.625 L 18.4375,7.40625 L 17.90625,7.8125 L 17.625,8.1875 L 17.53125,8.34375 L 16.90625,8.0625 L 16.96875,7.90625 L 17,7.4375 L 16.90625,6.78125 L 16.5,6.65625 L 16.0625,7.1875 L 15.875,7.625 L 15.84375,7.78125 L 15.1875,7.6875 L 15.1875,7.53125 L 15.125,7.0625 L 14.84375,6.4375 L 14.40625,6.4375 z M 15.96875,20 L 18.125,20 C 18.315732,20 18.482963,19.95824 18.65625,19.90625 L 19.03125,19.625 L 19.09375,19.71875 C 19.404477,19.526846 19.657201,19.239178 19.8125,18.90625 L 19.78125,18.875 L 19.875,18.75 C 19.947245,18.550159 20,18.350259 20,18.125 L 20,16.3125 C 19.372318,18.141621 17.869709,19.542391 15.96875,20 z M 14.625,8.75 C 15.362234,8.7500002 16.071819,8.9014383 16.71875,9.15625 L 15.46875,11.53125 C 15.197295,11.451731 14.922058,11.40625 14.625,11.40625 C 14.035983,11.40625 13.497221,11.584751 13.03125,11.875 L 11.1875,9.90625 C 12.143766,9.1841761 13.335388,8.75 14.625,8.75 z M 10.34375,10.6875 L 12.15625,12.65625 C 11.789137,13.158846 11.59375,13.799144 11.59375,14.46875 C 11.59375,14.715947 11.600511,14.957356 11.65625,15.1875 L 9.21875,16.3125 C 9.0217639,15.734884 8.90625,15.112615 8.90625,14.46875 C 8.9062502,13.027636 9.4611046,11.691857 10.34375,10.6875 z M 8.9375,2 C 8.8687334,3.3232835 8.3498644,4.6426913 7.34375,5.65625 C 5.8974483,7.1132526 3.8563223,7.5692349 2,7.09375 L 2,9.25 L 2.03125,9.1875 L 2.0625,9 L 2.8125,9.09375 L 2.8125,9.28125 L 2.875,9.78125 L 3.1875,10.46875 L 3.65625,10.46875 L 3.9375,9.78125 L 4.03125,9.28125 L 4,9.09375 L 4.75,9 L 4.78125,9.1875 L 5,9.625 L 5.4375,10.21875 L 5.90625,10.09375 L 6,9.34375 L 5.96875,8.84375 L 5.90625,8.6875 L 6.59375,8.375 L 6.65625,8.5625 L 6.96875,8.9375 L 7.5625,9.375 L 8,9.15625 L 7.90625,8.40625 L 7.71875,7.9375 L 7.59375,7.78125 L 8.1875,7.34375 L 8.3125,7.46875 L 8.71875,7.75 L 9.40625,8.03125 L 9.75,7.6875 L 9.46875,7.03125 L 9.1875,6.59375 L 9.03125,6.5 L 9.5,5.90625 L 9.65625,6 L 10.125,6.1875 L 10.84375,6.28125 L 11.09375,5.84375 L 10.625,5.25 L 10.25,4.9375 L 10.09375,4.875 L 10.375,4.1875 L 10.53125,4.21875 L 11.03125,4.28125 L 11.78125,4.1875 L 11.90625,3.71875 L 11.3125,3.25 L 10.84375,3.0625 L 10.65625,3.03125 L 10.75,2.28125 L 10.9375,2.28125 L 11.4375,2.21875 L 11.96875,2 L 8.9375,2 z" />
    <path
       sodipodi:type="arc"
       style="fill:#b8b8b8;fill-opacity:1;fill-rule:nonzero;stroke:url(#linearGradient3950);stroke-width:0.79941308;stroke-linecap:butt;stroke-linejoin:round;stroke-miterlimit:4;stroke-dasharray:none;stroke-dashoffset:0;stroke-opacity:1"
       id="path7458"
       sodipodi:cx="81.802116"
       sodipodi:cy="84.007065"
       sodipodi:rx="1.2367492"
       sodipodi:ry="1.2367492"
       d="M 83.038866,84.007065 A 1.2367492,1.2367492 0 1 1 80.565367,84.007065 A 1.2367492,1.2367492 0 1 1 83.038866,84.007065 z"
       transform="matrix(1.2509178,0,0,1.2509178,-87.701332,-90.622236)" />
    <rect
       style="opacity:0.4;fill:none;fill-opacity:1;fill-rule:evenodd;stroke:#000000;stroke-width:1.99999988;stroke-linecap:butt;stroke-linejoin:round;stroke-miterlimit:4;stroke-dasharray:none;stroke-dashoffset:0;stroke-opacity:1;display:inline;filter:url(#filter4007)"
       id="rect3988"
       width="16.126041"
       height="16.126041"
       x="2.9369788"
       y="2.9369788"
       rx="1.690248"
       ry="1.6845762" />
  </g>
  <g
     id="layer1"
     inkscape:groupmode="layer"
     inkscape:label="Button"
     style="display:inline">
    <path
       style="fill:url(#linearGradient3235);fill-opacity:1;fill-rule:evenodd;stroke:none"
       d="M 3,1 C 1.892,1 1,1.892 1,3 l 0,16 c 0,1.108 0.892,2 2,2 l 16,0 c 1.108,0 2,-0.892 2,-2 L 21,3 C 21,1.892 20.108,1 19,1 L 3,1 z m 1.5,2 13,0 C 18.331,3 19,3.669 19,4.5 l 0,13 c 0,0.831 -0.669,1.5 -1.5,1.5 l -13,0 C 3.669,19 3,18.331 3,17.5 L 3,4.5 C 3,3.669 3.669,3 4.5,3 z"
       id="rect3226"
       inkscape:connector-curvature="0" />
    <path
       id="rect5186"
       d="m 51.042403,-49.830388 c -4.986,0 -9,4.014 -9,9 l 0,98 c 0,4.986 4.014,9 9,9 l 97.999997,0 c 4.986,0 9,-4.014 9,-9 l 0,-98 c 0,-4.986 -4.014,-9 -9,-9 l -97.999997,0 z m 6,8 85.999997,0 c 3.878,0 7,3.122 7,7 l 0,86 c 0,3.878 -3.122,7 -7,7 l -85.999997,0 c -3.878,0 -7,-3.122 -7,-7 l 0,-86 c 0,-3.878 3.122,-7 7,-7 z"
       style="fill:url(#linearGradient5194);fill-opacity:1;stroke:none"
       inkscape:connector-curvature="0" />
    <path
       id="rect5247"
       d="m 51.042403,-47.830388 c -3.878,0 -7,3.122 -7,7 l 0,2 c 0,-3.878 3.122,-7 7,-7 l 97.999997,0 c 3.878,0 7,3.122 7,7 l 0,-2 c 0,-3.878 -3.122,-7 -7,-7 l -97.999997,0 z"
       style="fill:#efefef;fill-opacity:1;stroke:none"
       inkscape:connector-curvature="0" />
    <rect
       ry="8"
       rx="8"
       y="-42.830387"
       x="49.042404"
       height="102"
       width="102"
       id="rect3242"
       style="opacity:0.34749032;fill:none;stroke:url(#linearGradient3258);stroke-width:2;stroke-linecap:butt;stroke-linejoin:round;stroke-miterlimit:4;stroke-opacity:1;stroke-dasharray:none;stroke-dashoffset:0" />
    <path
       style="fill:#9d9d9d;fill-opacity:1;fill-rule:evenodd;stroke:none"
       d="M 4.5,20 C 3.669,20 3,19.331 3,18.5 l 0,-1 C 3,18.331 3.669,19 4.5,19 l 13,0 c 0.831,0 1.5,-0.669 1.5,-1.5 l 0,1 c 0,0.831 -0.669,1.5 -1.5,1.5 l -13,0 z"
       id="rect3237"
       inkscape:connector-curvature="0" />
    <path
       id="path3246"
       d="M 4.5,2 C 3.669,2 3,2.669 3,3.5 l 0,1 C 3,3.669 3.669,3 4.5,3 l 13,0 C 18.331,3 19,3.669 19,4.5 l 0,-1 C 19,2.669 18.331,2 17.5,2 l -13,0 z"
       style="fill:#8e8e8e;fill-opacity:1;fill-rule:evenodd;stroke:none"
       inkscape:connector-curvature="0" />
    <path
       style="opacity:0.5;fill:url(#linearGradient3852);fill-opacity:1;fill-rule:evenodd;stroke:none;display:inline"
       d="M 3,1 C 1.892,1 1,1.892 1,3 l 0,16 c 0,1.108 0.892,2 2,2 l 16,0 c 1.108,0 2,-0.892 2,-2 L 21,3 C 21,1.892 20.108,1 19,1 L 3,1 z m 0,1.03125 16,0 c 0.5497,0 0.96875,0.4190495 0.96875,0.96875 l 0,16 c 0,0.5497 -0.41905,0.96875 -0.96875,0.96875 l -16,0 C 2.4502995,19.96875 2.03125,19.5497 2.03125,19 l 0,-16 C 2.03125,2.4502995 2.4502995,2.03125 3,2.03125 z"
       id="rect3050"
       inkscape:connector-curvature="0" />
    <path
       id="path3235"
       d="M 3,21 C 1.892,21 1,20.108 1,19 l 0,-1 c 0,1.108 0.892,2 2,2 l 16,0 c 1.108,0 2,-0.892 2,-2 l 0,1 c 0,1.108 -0.892,2 -2,2 L 3,21 z"
       style="opacity:0.3;fill:url(#linearGradient3845);fill-opacity:1;fill-rule:evenodd;stroke:none;display:inline"
       inkscape:connector-curvature="0" />
  </g>
</svg>
