<?xml version="1.0" encoding="UTF-8" standalone="no"?>
<!-- Created with Inkscape (http://www.inkscape.org/) -->

<svg
   xmlns:dc="http://purl.org/dc/elements/1.1/"
   xmlns:cc="http://creativecommons.org/ns#"
   xmlns:rdf="http://www.w3.org/1999/02/22-rdf-syntax-ns#"
   xmlns:svg="http://www.w3.org/2000/svg"
   xmlns="http://www.w3.org/2000/svg"
   xmlns:xlink="http://www.w3.org/1999/xlink"
   xmlns:sodipodi="http://sodipodi.sourceforge.net/DTD/sodipodi-0.dtd"
   xmlns:inkscape="http://www.inkscape.org/namespaces/inkscape"
   width="22"
   height="22"
   id="svg2"
   sodipodi:version="0.32"
   inkscape:version="0.48.0 r9654"
   version="1.0"
   sodipodi:docname="edit-clear.svg"
   inkscape:output_extension="org.inkscape.output.svg.inkscape">
  <defs
     id="defs4">
    <inkscape:perspective
       sodipodi:type="inkscape:persp3d"
       inkscape:vp_x="0 : 8 : 1"
       inkscape:vp_y="0 : 1000 : 0"
       inkscape:vp_z="16 : 8 : 1"
       inkscape:persp3d-origin="8 : 5.3333333 : 1"
       id="perspective18" />
    <linearGradient
       id="StandardGradient"
       x1="11.347495"
       y1="5.999567"
       x2="11.347495"
       y2="16.013096"
       gradientUnits="userSpaceOnUse"
       gradientTransform="translate(-3,-2.9995677)">
      <stop
         id="stop3177"
         offset="0"
         style="stop-color:#000000;stop-opacity:0.86274511;" />
      <stop
         id="stop3179"
         offset="1"
         style="stop-color:#000000;stop-opacity:0.47058824;" />
    </linearGradient>
    <linearGradient
       inkscape:collect="always"
       xlink:href="#StandardGradient"
       id="linearGradient2406"
       gradientUnits="userSpaceOnUse"
       gradientTransform="matrix(1.2,0,0,1.1848047,1.4,-0.1087479)"
       x1="11.347495"
       y1="5.9994788"
       x2="11.347495"
       y2="16.972231" />
    <inkscape:perspective
       id="perspective2850"
       inkscape:persp3d-origin="0.5 : 0.33333333 : 1"
       inkscape:vp_z="1 : 0.5 : 1"
       inkscape:vp_y="0 : 1000 : 0"
       inkscape:vp_x="0 : 0.5 : 1"
       sodipodi:type="inkscape:persp3d" />
    <linearGradient
       inkscape:collect="always"
       xlink:href="#StandardGradient"
       id="linearGradient3627"
       gradientUnits="userSpaceOnUse"
       gradientTransform="matrix(1.2,0,0,1.1848047,-28.6,-0.1087479)"
       x1="11.347495"
       y1="5.9994788"
       x2="11.347495"
       y2="16.972231" />
    <clipPath
       clipPathUnits="userSpaceOnUse"
       id="clipPath3634">
      <path
         style="fill:#ff00ff;fill-opacity:1;stroke:none;display:inline"
         d="m -27,2.9995677 0,22.0000003 22,0 0,-22.0000003 -22,0 z m 9.1875,4 10.8125,0 0,13.0000003 -10.8125,0 -7.1875,-6.46875 7.1875,-6.5312503 z m 1.84375,2.375 -1.6875,1.6562503 2.53125,2.5 -2.53125,2.46875 1.6875,1.65625 2.53125,-2.46875 2.5,2.46875 1.6875,-1.65625 -2.5,-2.46875 2.5,-2.5 -1.6875,-1.6562503 -2.5,2.4687503 -2.53125,-2.4687503 z"
         id="path3636" />
    </clipPath>
    <filter
       inkscape:collect="always"
       id="filter3638">
      <feGaussianBlur
         inkscape:collect="always"
         stdDeviation="0.465"
         id="feGaussianBlur3640" />
    </filter>
    <linearGradient
       inkscape:collect="always"
       xlink:href="#StandardGradient"
       id="linearGradient4978"
       gradientUnits="userSpaceOnUse"
       gradientTransform="matrix(1.2,0,0,1.1848047,1.4,-0.1087479)"
       x1="11.347495"
       y1="5.9994788"
       x2="11.347495"
       y2="16.972231" />
    <linearGradient
       inkscape:collect="always"
       xlink:href="#StandardGradient"
       id="linearGradient4982"
       gradientUnits="userSpaceOnUse"
       gradientTransform="matrix(1.2,0,0,1.1848047,-1.6,-3.1083156)"
       x1="11.347495"
       y1="5.9994788"
       x2="11.347495"
       y2="16.972231" />
  </defs>
  <sodipodi:namedview
     id="base"
     pagecolor="#ffffff"
     bordercolor="#9a9a9a"
     borderopacity="1"
     inkscape:pageopacity="0.0"
     inkscape:pageshadow="2"
     inkscape:zoom="16.442211"
     inkscape:cx="5.1697387"
     inkscape:cy="3.9953105"
     inkscape:document-units="px"
     inkscape:current-layer="layer3"
     showgrid="true"
     inkscape:showpageshadow="false"
     showguides="true"
     inkscape:guide-bbox="true"
     inkscape:window-width="1920"
     inkscape:window-height="1029"
     inkscape:window-x="0"
     inkscape:window-y="25"
     inkscape:window-maximized="1">
    <sodipodi:guide
       orientation="1,0"
       position="0,112"
       id="guide2383" />
    <sodipodi:guide
       orientation="0,1"
       position="26.278146,128"
       id="guide2385" />
    <sodipodi:guide
       orientation="1,0"
       position="128,54.082119"
       id="guide2387" />
    <sodipodi:guide
       orientation="0,1"
       position="78.156291,0"
       id="guide2389" />
    <inkscape:grid
       type="xygrid"
       id="grid3672"
       visible="true"
       enabled="true" />
  </sodipodi:namedview>
  <metadata
     id="metadata7">
    <rdf:RDF>
      <cc:Work
         rdf:about="">
        <dc:format>image/svg+xml</dc:format>
        <dc:type
           rdf:resource="http://purl.org/dc/dcmitype/StillImage" />
      </cc:Work>
    </rdf:RDF>
  </metadata>
  <g
     inkscape:groupmode="layer"
     id="layer3"
     inkscape:label="Cross"
     style="display:inline"
     transform="translate(-3,-2.9995677)">
    <path
       style="fill:#ffffff;fill-opacity:1;stroke:none;opacity:0.15"
       d="M 9 3 A 1.0031541 1.0031541 0 0 0 8.5 3.25 L 1.3125 9.78125 A 1.0031541 1.0031541 0 0 0 1.34375 11.28125 L 8.53125 17.75 A 1.0031541 1.0031541 0 0 0 9.1875 18 L 20 18 A 1.0031541 1.0031541 0 0 0 21 17 L 21 4 A 1.0031541 1.0031541 0 0 0 20 3 L 9.1875 3 A 1.0031541 1.0031541 0 0 0 9.09375 3 A 1.0031541 1.0031541 0 0 0 9 3 z M 9.1875 4 L 20 4 L 20 17 L 9.1875 17 L 2 10.53125 L 9.1875 4 z M 11.03125 6.375 L 9.34375 8.03125 L 11.875 10.53125 L 9.34375 13 L 11.03125 14.65625 L 13.5625 12.1875 L 16.0625 14.65625 L 17.75 13 L 15.25 10.53125 L 17.75 8.03125 L 16.0625 6.375 L 13.5625 8.84375 L 11.03125 6.375 z M 11.03125 7.78125 L 12.875 9.5625 A 1.0031541 1.0031541 0 0 0 14.28125 9.5625 L 16.09375 7.78125 L 16.3125 8.03125 L 14.53125 9.8125 A 1.0031541 1.0031541 0 0 0 14.53125 11.25 L 16.3125 13 L 16.09375 13.25 L 14.28125 11.46875 A 1.0031541 1.0031541 0 0 0 12.875 11.46875 L 11.03125 13.25 L 10.78125 13 L 12.5625 11.25 A 1.0031541 1.0031541 0 0 0 12.59375 9.8125 L 10.78125 8.03125 L 11.03125 7.78125 z "
       transform="translate(3,2.9995677)"
       id="path4980" />
    <path
       style="opacity:1;fill:url(#linearGradient2406);fill-opacity:1;stroke:none;stroke-width:1.00000024;stroke-linecap:round;stroke-linejoin:miter;stroke-miterlimit:4;stroke-dasharray:none;stroke-opacity:1"
       d="M 12.2,6.999568 L 5,13.515994 L 12.2,19.999568 L 23,19.999568 L 23,6.999568 L 12.2,6.999568 z M 14.04375,9.3720651 L 16.55625,11.85275 L 19.06875,9.3720651 L 20.75625,11.038197 L 18.24375,13.518882 L 20.75625,15.999568 L 19.06875,17.665699 L 16.55625,15.185014 L 14.04375,17.665699 L 12.35625,15.999568 L 14.86875,13.518882 L 12.35625,11.038197 L 14.04375,9.3720651 z"
       id="Symbol"
       sodipodi:nodetypes="ccccccccccccccccccc" />
    <path
       style="opacity:0.5;fill:#000000;fill-opacity:1;stroke:none;stroke-width:1.00000024;stroke-linecap:round;stroke-linejoin:miter;stroke-miterlimit:4;stroke-dasharray:none;stroke-opacity:1"
       d="M 9.1875,4 L 2,10.53125 L 2.5625,11.03125 L 9.1875,5 L 20,5 L 20,4 L 9.1875,4 z M 9.84375,8.53125 L 9.34375,9.03125 L 11.375,11.03125 L 11.875,10.53125 L 9.84375,8.53125 z M 17.25,8.53125 L 15.25,10.53125 L 15.75,11.03125 L 17.75,9.03125 L 17.25,8.53125 z M 13.5625,12.1875 L 11.03125,14.65625 L 9.84375,13.5 L 9.34375,14 L 11.03125,15.65625 L 13.5625,13.1875 L 16.0625,15.65625 L 17.75,14 L 17.25,13.5 L 16.0625,14.65625 L 13.5625,12.1875 z"
       transform="translate(3,2.9995677)"
       id="BevelShadow"
       sodipodi:nodetypes="cccccccccccccccccccccccccccc" />
    <path
       style="opacity:0.3;fill:#ffffff;fill-opacity:1;stroke:none;stroke-width:1.00000024000000010;stroke-linecap:round;stroke-linejoin:miter;stroke-miterlimit:4;stroke-dasharray:none;stroke-opacity:1"
       d="M 11.03125,6.375 L 9.34375,8.03125 L 9.84375,8.53125 L 11.03125,7.375 L 13.5625,9.84375 L 16.0625,7.375 L 17.25,8.53125 L 17.75,8.03125 L 16.0625,6.375 L 13.5625,8.84375 L 11.03125,6.375 z M 2,10.53125 L 2,11.53125 L 9.1875,18 L 20,18 L 20,17 L 9.1875,17 L 2,10.53125 z M 11.875,10.53125 L 9.34375,13 L 9.84375,13.5 L 11.875,11.53125 L 11.875,10.53125 z M 15.25,10.53125 L 15.25,11.53125 L 17.25,13.5 L 17.75,13 L 15.25,10.53125 z"
       transform="translate(3,2.9995677)"
       id="BevelHighlight"
       sodipodi:nodetypes="cccccccccccccccccccccccccccc" />
  </g>
</svg>
