<?xml version="1.0" encoding="UTF-8" standalone="no"?>
<!-- Created with Inkscape (http://www.inkscape.org/) -->

<svg
   xmlns:dc="http://purl.org/dc/elements/1.1/"
   xmlns:cc="http://creativecommons.org/ns#"
   xmlns:rdf="http://www.w3.org/1999/02/22-rdf-syntax-ns#"
   xmlns:svg="http://www.w3.org/2000/svg"
   xmlns="http://www.w3.org/2000/svg"
   xmlns:xlink="http://www.w3.org/1999/xlink"
   xmlns:sodipodi="http://sodipodi.sourceforge.net/DTD/sodipodi-0.dtd"
   xmlns:inkscape="http://www.inkscape.org/namespaces/inkscape"
   width="22"
   height="22"
   id="svg2"
   sodipodi:version="0.32"
   inkscape:version="0.48.0 r9654"
   version="1.0"
   sodipodi:docname="go-top.svg"
   inkscape:output_extension="org.inkscape.output.svg.inkscape">
  <defs
     id="defs4">
    <inkscape:perspective
       sodipodi:type="inkscape:persp3d"
       inkscape:vp_x="0 : 11 : 1"
       inkscape:vp_y="0 : 1000 : 0"
       inkscape:vp_z="22 : 11 : 1"
       inkscape:persp3d-origin="11 : 7.3333333 : 1"
       id="perspective17" />
    <linearGradient
       id="StandardGradient"
       gradientTransform="scale(0.930775,1.0743735)"
       x1="12.80275"
       y1="3.7361259"
       x2="12.80275"
       y2="16.759111"
       gradientUnits="userSpaceOnUse">
      <stop
         id="stop3337"
         offset="0"
         style="stop-color:#000000;stop-opacity:0.86274511;" />
      <stop
         id="stop3339"
         offset="1"
         style="stop-color:#000000;stop-opacity:0.47058824;" />
    </linearGradient>
    <inkscape:perspective
       id="perspective2850"
       inkscape:persp3d-origin="0.5 : 0.33333333 : 1"
       inkscape:vp_z="1 : 0.5 : 1"
       inkscape:vp_y="0 : 1000 : 0"
       inkscape:vp_x="0 : 0.5 : 1"
       sodipodi:type="inkscape:persp3d" />
    <linearGradient
       inkscape:collect="always"
       xlink:href="#StandardGradient"
       id="linearGradient3626"
       gradientUnits="userSpaceOnUse"
       gradientTransform="matrix(0.930775,0,0,1.0743735,-30,0)"
       x1="12.80275"
       y1="3.7361259"
       x2="12.80275"
       y2="16.759111" />
    <clipPath
       clipPathUnits="userSpaceOnUse"
       id="clipPath3635">
      <path
         style="fill:#ff00ff;fill-opacity:1;stroke:none;display:inline"
         d="m -30,0 0,22 22,0 0,-22 -22,0 z m 11,4 6.0625,8.96875 -3.03125,0 0,5.03125 -6.03125,0 0,-5.03125 -3.0625,0 L -19,4 z"
         id="path3637" />
    </clipPath>
    <linearGradient
       inkscape:collect="always"
       xlink:href="#StandardGradient"
       id="linearGradient2854"
       gradientUnits="userSpaceOnUse"
       gradientTransform="scale(0.930775,1.0743735)"
       x1="12.80275"
       y1="3.7361259"
       x2="12.80275"
       y2="16.759111" />
    <linearGradient
       inkscape:collect="always"
       xlink:href="#StandardGradient"
       id="linearGradient2857"
       gradientUnits="userSpaceOnUse"
       gradientTransform="matrix(0.930775,0,0,1.0743735,0,1)"
       x1="12.80275"
       y1="1.8613472"
       x2="12.80275"
       y2="16.759111" />
    <linearGradient
       inkscape:collect="always"
       xlink:href="#StandardGradient"
       id="linearGradient2861"
       gradientUnits="userSpaceOnUse"
       gradientTransform="matrix(0.930775,0,0,1.0743735,-30,1)"
       x1="12.80275"
       y1="1.8613472"
       x2="12.80275"
       y2="16.759111" />
    <clipPath
       clipPathUnits="userSpaceOnUse"
       id="clipPath2868">
      <path
         style="fill:#ff00ff;fill-opacity:1;stroke:none;display:inline"
         d="m -30,0 0,22 22,0 0,-22 -22,0 z m 5,3 12,0 0,2 -6,0 6.0625,8.96875 -3.03125,0 0,5.03125 -6.03125,0 0,-5.03125 -3.0625,0 L -19,5 l -6,0 0,-2 z"
         id="path2870" />
    </clipPath>
    <filter
       inkscape:collect="always"
       id="filter3644">
      <feGaussianBlur
         inkscape:collect="always"
         stdDeviation="0.421875"
         id="feGaussianBlur3646" />
    </filter>
    <linearGradient
       inkscape:collect="always"
       xlink:href="#StandardGradient"
       id="linearGradient4993"
       gradientUnits="userSpaceOnUse"
       gradientTransform="matrix(0.930775,0,0,1.0743735,0,1)"
       x1="12.80275"
       y1="1.8613472"
       x2="12.80275"
       y2="16.759111" />
    <linearGradient
       inkscape:collect="always"
       xlink:href="#StandardGradient"
       id="linearGradient4997"
       gradientUnits="userSpaceOnUse"
       gradientTransform="matrix(0.930775,0,0,1.0743735,0,1)"
       x1="12.80275"
       y1="1.8613472"
       x2="12.80275"
       y2="16.759111" />
  </defs>
  <sodipodi:namedview
     id="base"
     pagecolor="#ffffff"
     bordercolor="#9a9a9a"
     borderopacity="1"
     inkscape:pageopacity="0.0"
     inkscape:pageshadow="2"
     inkscape:zoom="23.322286"
     inkscape:cx="7.6088901"
     inkscape:cy="7.5203131"
     inkscape:document-units="px"
     inkscape:current-layer="layer1"
     showgrid="true"
     inkscape:showpageshadow="false"
     showguides="true"
     inkscape:guide-bbox="true"
     inkscape:window-width="1920"
     inkscape:window-height="1029"
     inkscape:window-x="0"
     inkscape:window-y="25"
     inkscape:window-maximized="1">
    <sodipodi:guide
       orientation="1,0"
       position="0,112"
       id="guide2383" />
    <sodipodi:guide
       orientation="0,1"
       position="26.278146,128"
       id="guide2385" />
    <sodipodi:guide
       orientation="1,0"
       position="128,54.082119"
       id="guide2387" />
    <inkscape:grid
       type="xygrid"
       id="grid3672"
       visible="true"
       enabled="true" />
  </sodipodi:namedview>
  <metadata
     id="metadata7">
    <rdf:RDF>
      <cc:Work
         rdf:about="">
        <dc:format>image/svg+xml</dc:format>
        <dc:type
           rdf:resource="http://purl.org/dc/dcmitype/StillImage" />
      </cc:Work>
    </rdf:RDF>
  </metadata>
  <g
     inkscape:label="Calque 1"
     inkscape:groupmode="layer"
     id="layer1"
     style="display:inline">
    <path
       style="fill:#ffffff;fill-opacity:1;stroke:none;display:inline;opacity:0.15"
       d="M 4.8125 2.03125 A 0.95886466 0.95886466 0 0 0 4.03125 3 L 4.03125 5 A 0.95886466 0.95886466 0 0 0 5 5.96875 L 9.21875 5.96875 L 4.15625 13.4375 A 0.95886466 0.95886466 0 0 0 4.9375 14.9375 L 7.03125 14.9375 L 7.03125 19 A 0.95886466 0.95886466 0 0 0 8 19.96875 L 14.03125 19.96875 A 0.95886466 0.95886466 0 0 0 15 19 L 15 14.9375 L 17.0625 14.9375 A 0.95886466 0.95886466 0 0 0 17.84375 13.4375 L 12.78125 5.96875 L 17 5.96875 A 0.95886466 0.95886466 0 0 0 17.96875 5 L 17.96875 3 A 0.95886466 0.95886466 0 0 0 17 2.03125 L 5 2.03125 A 0.95886466 0.95886466 0 0 0 4.90625 2.03125 A 0.95886466 0.95886466 0 0 0 4.8125 2.03125 z M 5 3 L 17 3 L 17 5 L 11 5 L 17.0625 13.96875 L 14.03125 13.96875 L 14.03125 19 L 8 19 L 8 13.96875 L 4.9375 13.96875 L 11 5 L 5 5 L 5 3 z "
       id="path4995" />
    <path
       style="fill:url(#linearGradient2857);fill-opacity:1;stroke:none;display:inline"
       d="m 5,3 0,2 6,0 6,0 0,-2 -12,0 z m 6,2 -6.0625,8.96875 3.0625,0 L 8,19 l 6.03125,0 0,-5.03125 3.03125,0 L 11,5 z"
       id="Symbol" />
    <path
       style="opacity:0.5;fill:#000000;fill-opacity:1;stroke:none;display:inline"
       d="M 5,3 5,4 17,4 17,3 5,3 z m 6,2 -6.0625,8.96875 0.6875,0 5.375,-7.9375 5.375,7.9375 0.6875,0 L 11,5 z"
       id="BevelShadow" />
    <path
       style="opacity:0.3;fill:#ffffff;fill-opacity:1;stroke:none;display:inline"
       d="M 5,5 5,6 10.3125,6 11,5 5,5 z M 11,5 11.6875,6 17,6 17,5 11,5 z M 4.9375,13.96875 4.9375,15 8,15 l 0,-1.03125 -3.0625,0 z m 9.09375,0 0,1.03125 3.03125,0 0,-1.03125 -3.03125,0 z M 8,19 l 0,1 6.03125,0 0,-1 L 8,19 z"
       id="BevelHighlight" />
  </g>
</svg>
