<?xml version="1.0" encoding="UTF-8" standalone="no"?>
<!-- Created with Inkscape (http://www.inkscape.org/) -->

<svg
   xmlns:dc="http://purl.org/dc/elements/1.1/"
   xmlns:cc="http://creativecommons.org/ns#"
   xmlns:rdf="http://www.w3.org/1999/02/22-rdf-syntax-ns#"
   xmlns:svg="http://www.w3.org/2000/svg"
   xmlns="http://www.w3.org/2000/svg"
   xmlns:xlink="http://www.w3.org/1999/xlink"
   xmlns:sodipodi="http://sodipodi.sourceforge.net/DTD/sodipodi-0.dtd"
   xmlns:inkscape="http://www.inkscape.org/namespaces/inkscape"
   width="22"
   height="22"
   id="svg2"
   sodipodi:version="0.32"
   inkscape:version="0.48.0 r9654"
   version="1.0"
   sodipodi:docname="view-refresh.svg"
   inkscape:output_extension="org.inkscape.output.svg.inkscape">
  <defs
     id="defs4">
    <inkscape:perspective
       sodipodi:type="inkscape:persp3d"
       inkscape:vp_x="0 : 11 : 1"
       inkscape:vp_y="0 : 1000 : 0"
       inkscape:vp_z="22 : 11 : 1"
       inkscape:persp3d-origin="11 : 7.3333333 : 1"
       id="perspective16" />
    <linearGradient
       id="StandardGradient"
       gradientTransform="scale(1.0744355,0.9307213)"
       x1="10.458337"
       y1="4.3967042"
       x2="10.458337"
       y2="19.290417"
       gradientUnits="userSpaceOnUse">
      <stop
         style="stop-color:#000000;stop-opacity:0.86274511;"
         offset="0"
         id="stop3280" />
      <stop
         style="stop-color:#000000;stop-opacity:0.47058824;"
         offset="1"
         id="stop3282" />
    </linearGradient>
    <inkscape:perspective
       id="perspective3682"
       inkscape:persp3d-origin="0.5 : 0.33333333 : 1"
       inkscape:vp_z="1 : 0.5 : 1"
       inkscape:vp_y="0 : 1000 : 0"
       inkscape:vp_x="0 : 0.5 : 1"
       sodipodi:type="inkscape:persp3d" />
    <linearGradient
       inkscape:collect="always"
       xlink:href="#StandardGradient"
       id="linearGradient3625"
       gradientUnits="userSpaceOnUse"
       gradientTransform="matrix(1.0744355,0,0,0.9307213,-30,0)"
       x1="10.458337"
       y1="4.3967042"
       x2="10.458337"
       y2="19.290417" />
    <clipPath
       clipPathUnits="userSpaceOnUse"
       id="clipPath3632">
      <path
         style="fill:#ff00ff;fill-opacity:1;stroke:none;display:inline"
         d="m -30,0 0,22 22,0 0,-22 -22,0 z m 12.0625,4.09375 c 3.825325,0 6.937501,3.1121747 6.9375,6.9375 0,3.825324 -3.112175,6.90625 -6.9375,6.90625 l 0,-2.3125 c 2.550216,0 4.625,-2.043535 4.625,-4.59375 0,-2.5502171 -2.074784,-4.6249992 -4.625,-4.625 -2.40756,0 -4.380685,1.83623 -4.59375,4.1875 l 2.46875,0 -3.46875,5.1875 -3.46875,-5.1875 2.15625,0 c 0.223548,-3.6240776 3.226202,-6.5000008 6.90625,-6.5 z"
         id="path3634" />
    </clipPath>
    <filter
       inkscape:collect="always"
       id="filter3636">
      <feGaussianBlur
         inkscape:collect="always"
         stdDeviation="0.44789809"
         id="feGaussianBlur3638" />
    </filter>
    <linearGradient
       inkscape:collect="always"
       xlink:href="#StandardGradient"
       id="linearGradient3261"
       gradientUnits="userSpaceOnUse"
       gradientTransform="scale(1.0744355,0.9307213)"
       x1="10.458337"
       y1="4.3967042"
       x2="10.458337"
       y2="19.290417" />
    <linearGradient
       inkscape:collect="always"
       xlink:href="#StandardGradient"
       id="linearGradient3265"
       gradientUnits="userSpaceOnUse"
       gradientTransform="scale(1.0744355,0.9307213)"
       x1="10.458337"
       y1="4.3967042"
       x2="10.458337"
       y2="19.290417" />
  </defs>
  <sodipodi:namedview
     id="base"
     pagecolor="#ffffff"
     bordercolor="#9a9a9a"
     borderopacity="1"
     inkscape:pageopacity="0.0"
     inkscape:pageshadow="2"
     inkscape:zoom="12.588354"
     inkscape:cx="-25.712115"
     inkscape:cy="-2.5536453"
     inkscape:document-units="px"
     inkscape:current-layer="layer1"
     showgrid="true"
     inkscape:showpageshadow="false"
     showguides="true"
     inkscape:guide-bbox="true"
     inkscape:window-width="1920"
     inkscape:window-height="1029"
     inkscape:window-x="0"
     inkscape:window-y="25"
     inkscape:window-maximized="1">
    <sodipodi:guide
       orientation="0,1"
       position="26.278146,128"
       id="guide2385" />
    <sodipodi:guide
       orientation="1,0"
       position="128,54.082119"
       id="guide2387" />
    <inkscape:grid
       type="xygrid"
       id="grid3672"
       visible="true"
       enabled="true" />
  </sodipodi:namedview>
  <metadata
     id="metadata7">
    <rdf:RDF>
      <cc:Work
         rdf:about="">
        <dc:format>image/svg+xml</dc:format>
        <dc:type
           rdf:resource="http://purl.org/dc/dcmitype/StillImage" />
      </cc:Work>
    </rdf:RDF>
  </metadata>
  <g
     inkscape:groupmode="layer"
     id="layer1"
     inkscape:label="Calque 1"
     style="display:inline">
    <path
       style="fill:#ffffff;fill-opacity:1;stroke:none;opacity:0.15"
       d="M 12.0625 2.96875 C 8.1733792 2.9687492 5.0615407 5.7931511 4.3125 9.46875 L 3 9.46875 A 1.1372573 1.1372573 0 0 0 2.0625 11.21875 L 5.53125 16.40625 A 1.1372573 1.1372573 0 0 0 7.40625 16.40625 L 10.875 11.21875 A 1.1372573 1.1372573 0 0 0 9.9375 9.46875 L 9.21875 9.46875 C 9.8058241 8.3945988 10.736737 7.53125 12.0625 7.53125 C 13.995951 7.5312506 15.5625 9.097798 15.5625 11.03125 C 15.5625 12.964699 14.00524 14.5 12.0625 14.5 A 1.1372573 1.1372573 0 0 0 10.9375 15.625 L 10.9375 17.9375 A 1.1372573 1.1372573 0 0 0 12.0625 19.0625 C 16.498397 19.0625 20.125 15.473339 20.125 11.03125 C 20.125001 6.5891594 16.50459 2.96875 12.0625 2.96875 z M 12.0625 4.09375 C 15.887825 4.09375 19.000001 7.2059247 19 11.03125 C 19 14.856574 15.887825 17.9375 12.0625 17.9375 L 12.0625 15.625 C 14.612716 15.625 16.6875 13.581465 16.6875 11.03125 C 16.6875 8.4810329 14.612716 6.4062508 12.0625 6.40625 C 9.6549404 6.40625 7.6818146 8.24248 7.46875 10.59375 L 9.9375 10.59375 L 6.46875 15.78125 L 3 10.59375 L 5.15625 10.59375 C 5.3797983 6.9696724 8.3824524 4.0937492 12.0625 4.09375 z "
       id="path3263" />
    <path
       style="opacity:1;fill:url(#StandardGradient);fill-opacity:1;stroke:none;stroke-width:0.99999994;stroke-linecap:round;stroke-linejoin:miter;stroke-miterlimit:4;stroke-dasharray:none;stroke-opacity:1"
       d="M 3,10.588922 L 6.4649682,15.779029 L 9.9299363,10.588922 L 7.4840764,10.588922 C 7.697141,8.237652 9.6625044,6.4105775 12.070064,6.4105775 C 14.62028,6.4105783 16.681529,8.4718259 16.681529,11.022043 C 16.681529,13.572258 14.62028,15.633508 12.070064,15.633508 L 12.070064,17.951979 C 15.895389,17.951979 19,14.847367 19,11.022043 C 19.000001,7.1967177 15.895389,4.0921062 12.070064,4.0921062 C 8.3900164,4.0921054 5.3891534,6.9648444 5.1656051,10.588922 L 3,10.588922 z"
       id="Symbol"
       sodipodi:nodetypes="ccccssccsscc"
       inkscape:label="#path3281" />
    <path
       style="opacity:0.5;fill:#000000;fill-opacity:1;stroke:none;stroke-width:0.99999994000000003;stroke-linecap:round;stroke-linejoin:miter;stroke-miterlimit:4;stroke-dasharray:none;stroke-opacity:1"
       d="M 12.0625,4.09375 C 8.3824528,4.0937491 5.3797983,6.9696724 5.15625,10.59375 L 3,10.59375 L 3.6875,11.625 L 5.15625,11.625 C 5.3797983,8.0009224 8.3824528,5.1249992 12.0625,5.125 C 15.648742,5.125 18.613659,7.8819466 18.96875,11.375 C 18.974766,11.256699 19,11.151038 19,11.03125 C 19.000001,7.2059245 15.887825,4.09375 12.0625,4.09375 z M 7.71875,10.59375 C 7.6067128,10.927665 7.5017207,11.261153 7.46875,11.625 L 9.25,11.625 L 9.9375,10.59375 L 7.71875,10.59375 z M 16.625,11.53125 C 16.366749,13.835288 14.436451,15.625 12.0625,15.625 L 12.0625,16.6875 C 14.612716,16.6875 16.687501,14.612715 16.6875,12.0625 C 16.6875,11.881544 16.645195,11.70672 16.625,11.53125 z"
       id="BevelShadow"
       inkscape:label="#path3168" />
    <path
       style="opacity:0.3;fill:#ffffff;fill-opacity:1;stroke:none;stroke-width:0.99999994000000003;stroke-linecap:round;stroke-linejoin:miter;stroke-miterlimit:4;stroke-dasharray:none;stroke-opacity:1"
       d="M 12.0625,6.40625 C 9.6549404,6.40625 7.6818145,8.2424805 7.46875,10.59375 L 7.71875,10.59375 C 8.3307246,8.7698269 10.027498,7.46875 12.0625,7.46875 C 14.43176,7.4687506 16.360591,9.2338113 16.625,11.53125 C 16.644175,11.360176 16.6875,11.207515 16.6875,11.03125 C 16.6875,8.4810329 14.612716,6.406251 12.0625,6.40625 z M 16.625,11.53125 C 16.592719,11.819255 16.519634,12.105559 16.4375,12.375 C 16.523202,12.099968 16.591977,11.825869 16.625,11.53125 z M 16.4375,12.375 C 16.355366,12.644441 16.252187,12.910355 16.125,13.15625 C 16.255681,12.909125 16.352957,12.646312 16.4375,12.375 z M 16.125,13.15625 C 15.997813,13.402145 15.854943,13.626382 15.6875,13.84375 C 15.856949,13.627928 15.995738,13.40069 16.125,13.15625 z M 15.6875,13.84375 C 15.520057,14.061118 15.3279,14.253642 15.125,14.4375 C 15.329464,14.255375 15.518226,14.059349 15.6875,13.84375 z M 15.125,14.4375 C 14.9221,14.621358 14.702309,14.792133 14.46875,14.9375 C 14.704528,14.793355 14.91973,14.620344 15.125,14.4375 z M 14.46875,14.9375 C 14.235191,15.082867 14.009419,15.210607 13.75,15.3125 C 14.003935,15.21347 14.239103,15.077896 14.46875,14.9375 z M 5.375,9.28125 C 5.2643143,9.7067241 5.1841935,10.14074 5.15625,10.59375 C 5.1841935,10.14074 5.2643633,9.706637 5.375,9.28125 z M 3,10.59375 L 3,11.625 L 6.46875,16.8125 L 9.9375,11.625 L 9.9375,10.59375 L 6.46875,15.78125 L 3,10.59375 z M 19,11.03125 C 19,14.856574 15.887825,17.9375 12.0625,17.9375 L 12.0625,19 C 15.887825,19 19,15.887824 19,12.0625 C 19,11.690637 19,11.374009 19,11.03125 z"
       id="BevelHighlight"
       inkscape:label="#path3173" />
  </g>
</svg>
