/* XPM */
static char * exec_xpm[] = {
"24 24 210 2",
"  	c None",
". 	c #000000",
"+ 	c #0A0A0A",
"@ 	c #1C1C1C",
"# 	c #090B0F",
"$ 	c #283143",
"% 	c #4E545F",
"& 	c #898989",
"* 	c #B2B2B2",
"= 	c #AFAFAF",
"- 	c #797979",
"; 	c #0B0C0F",
"> 	c #373F4F",
", 	c #5D6C8A",
"' 	c #758BB9",
") 	c #7B97D1",
"! 	c #6381BD",
"~ 	c #4F699E",
"{ 	c #646A75",
"] 	c #5E5E5E",
"^ 	c #5B5B5B",
"/ 	c #6F6F6F",
"( 	c #494B4D",
"_ 	c #090909",
": 	c #2F2F2F",
"< 	c #5E687C",
"[ 	c #8FA4CF",
"} 	c #AAC5FA",
"| 	c #97B2E9",
"1 	c #728CC2",
"2 	c #4E6698",
"3 	c #364E7F",
"4 	c #294274",
"5 	c #28447B",
"6 	c #213865",
"7 	c #818181",
"8 	c #9F9F9F",
"9 	c #9A9A9A",
"0 	c #9C9C9C",
"a 	c #262626",
"b 	c #919191",
"c 	c #BEBEBE",
"d 	c #B4B4B4",
"e 	c #8C8E91",
"f 	c #6C7FA6",
"g 	c #49608F",
"h 	c #2F4779",
"i 	c #29447B",
"j 	c #2E4C8A",
"k 	c #315192",
"l 	c #335393",
"m 	c #365596",
"n 	c #2A4272",
"o 	c #8A8A8A",
"p 	c #333333",
"q 	c #676767",
"r 	c #AAAAAA",
"s 	c #C4C4C4",
"t 	c #EFEFEF",
"u 	c #767676",
"v 	c #626262",
"w 	c #7E7E7E",
"x 	c #182849",
"y 	c #325293",
"z 	c #345495",
"A 	c #375797",
"B 	c #3B5B9A",
"C 	c #405F9E",
"D 	c #4564A3",
"E 	c #4C6BA9",
"F 	c #3E5483",
"G 	c #939393",
"H 	c #666666",
"I 	c #A1A1A1",
"J 	c #A3A3A3",
"K 	c #CDCDCD",
"L 	c #858585",
"M 	c #B0B0B0",
"N 	c #BABABA",
"O 	c #BFBFBF",
"P 	c #1F2F4E",
"Q 	c #4261A1",
"R 	c #4867A6",
"S 	c #4F6EAC",
"T 	c #5775B2",
"U 	c #607DBA",
"V 	c #6987C2",
"W 	c #7491CB",
"X 	c #556890",
"Y 	c #595959",
"Z 	c #616161",
"` 	c #6C6C6C",
" .	c #7C7C7C",
"..	c #B9B9B9",
"+.	c #6E6E6E",
"@.	c #454545",
"#.	c #959595",
"$.	c #2E3D5C",
"%.	c #6482BE",
"&.	c #6E8BC6",
"*.	c #7996D0",
"=.	c #718ABC",
"-.	c #546589",
";.	c #444F64",
">.	c #62656C",
",.	c #8F8F8F",
"'.	c #CFCFCF",
").	c #FFFFFF",
"!.	c #E5E5E5",
"~.	c #A2A2A2",
"{.	c #606060",
"].	c #AEAEAE",
"^.	c #888888",
"/.	c #EAEAEA",
"(.	c #323D52",
"_.	c #58698C",
":.	c #465166",
"<.	c #62666D",
"[.	c #FEFEFE",
"}.	c #4B4B4B",
"|.	c #848484",
"1.	c #646464",
"2.	c #6D6D6D",
"3.	c #FDFDFD",
"4.	c #FCFCFC",
"5.	c #FBFBFB",
"6.	c #FAFAFA",
"7.	c #E0E0E0",
"8.	c #323232",
"9.	c #C8C8C8",
"0.	c #757575",
"a.	c #CECECE",
"b.	c #DDDDDD",
"c.	c #F9F9F9",
"d.	c #F8F8F8",
"e.	c #F7F7F7",
"f.	c #F6F6F6",
"g.	c #F5F5F5",
"h.	c #F4F4F4",
"i.	c #DBDBDB",
"j.	c #313131",
"k.	c #C6C6C6",
"l.	c #C7C7C7",
"m.	c #D9D9D9",
"n.	c #0F0F0F",
"o.	c #2E2E2E",
"p.	c #F3F3F3",
"q.	c #F2F2F2",
"r.	c #F1F1F1",
"s.	c #F0F0F0",
"t.	c #EEEEEE",
"u.	c #EDEDED",
"v.	c #D5D5D5",
"w.	c #303030",
"x.	c #C1C1C1",
"y.	c #C3C3C3",
"z.	c #DFDFDF",
"A.	c #ECECEC",
"B.	c #EBEBEB",
"C.	c #E9E9E9",
"D.	c #E8E8E8",
"E.	c #E7E7E7",
"F.	c #E6E6E6",
"G.	c #B8B8B8",
"H.	c #BCBCBC",
"I.	c #DCDCDC",
"J.	c #0E0E0E",
"K.	c #565656",
"L.	c #BDBDBD",
"M.	c #2B2B2B",
"N.	c #555555",
"O.	c #E4E4E4",
"P.	c #E3E3E3",
"Q.	c #E2E2E2",
"R.	c #E1E1E1",
"S.	c #969696",
"T.	c #2C2C2C",
"U.	c #B1B1B1",
"V.	c #B7B7B7",
"W.	c #9B9B9B",
"X.	c #C5C5C5",
"Y.	c #999999",
"Z.	c #D1D1D1",
"`.	c #DEDEDE",
" +	c #DADADA",
".+	c #A5A5A5",
"++	c #181818",
"@+	c #2A2A2A",
"#+	c #A9A9A9",
"$+	c #D8D8D8",
"%+	c #D7D7D7",
"&+	c #D6D6D6",
"*+	c #CACACA",
"=+	c #B5B5B5",
"-+	c #878787",
";+	c #525252",
">+	c #272727",
",+	c #080808",
"'+	c #838383",
")+	c #ABABAB",
"!+	c #D4D4D4",
"~+	c #D3D3D3",
"{+	c #D2D2D2",
"]+	c #505050",
"^+	c #1D1D1D",
"/+	c #8C8C8C",
"(+	c #7D7D7D",
"_+	c #4A4A4A",
":+	c #353535",
"<+	c #1E1E1E",
"                                                ",
"                                                ",
"                                . + @ .         ",
"                        . # $ % & * = - +       ",
"              . . ; > , ' ) ! ~ { ] ^ / ( .     ",
"        . _ : < [ } | 1 2 3 4 5 6 7 8 9 0 .     ",
"      a b c d e f g h i j k l m n o p q r .     ",
"    . s t u v w x y z A B C D E F G H I J .     ",
"    @ K L M N O P Q R S T U V W X Y Z `  ..     ",
"    a ..v +.@.#.$.%.&.*.=.-.;.>.,.'.).).!..     ",
"    a ~.{.].^./.(._.:.<.,.'.).).).).).[.!..     ",
"    : ~.}.|.1.2.,.'.[.[.[.[.3.3.4.5.5.6.7..     ",
"    8.9.0.a.b.4.4.5.6.6.c.d.e.e.f.g.h.h.i..     ",
"    j.k.l.m.n.o.9 g.h.p.q.q.r.s.t t t.u.v..     ",
"    w.O x.r.y.. Y t.z.x.A.B./.C.D.D.E.F.a..     ",
"    o.G.H.I.J.K.L.M.. N.!.O.P.Q.Q.R.7.z.S..     ",
"    T.U.V.P.W.Q.X.Y.Z.z.`.b.I.i. + +a..+++      ",
"    @+#+U.I.I.i. +m.$+%+%+&+*+=+-+;+>+,+        ",
"    . '+)+v.!+!+~+{+x.U.L ]+>+,+.               ",
"      ^+/+a.c #+(+_+a ,+.                       ",
"        n.:+<+. .                               ",
"                                                ",
"                                                ",
"                                                "};
