/* XPM */
static char * fileopen_xpm[] = {
"24 24 187 2",
"  	c None",
". 	c #000000",
"+ 	c #1E1A12",
"@ 	c #5C5038",
"# 	c #9B865F",
"$ 	c #AB956A",
"% 	c #100E0A",
"& 	c #4C422F",
"* 	c #897655",
"= 	c #79684B",
"- 	c #8C8069",
"; 	c #DABD86",
"> 	c #FADA9B",
", 	c #FCDB9D",
"' 	c #FDDC9E",
") 	c #FCDB9E",
"! 	c #9C8761",
"~ 	c #1E1A13",
"{ 	c #C5AA7A",
"] 	c #F2D096",
"^ 	c #F1CE94",
"/ 	c #EFCC93",
"( 	c #EECB92",
"_ 	c #1D1912",
": 	c #FEEDCE",
"< 	c #FBDA9D",
"[ 	c #F9D89B",
"} 	c #F7D69A",
"| 	c #F5D498",
"1 	c #F4D297",
"2 	c #ECC991",
"3 	c #EBC890",
"4 	c #E9C68F",
"5 	c #E8C58E",
"6 	c #544732",
"7 	c #1F1F1E",
"8 	c #5F5F5B",
"9 	c #0F0F0F",
"0 	c #FDF4E5",
"a 	c #E0BE84",
"b 	c #D6B578",
"c 	c #CCAD6D",
"d 	c #B69654",
"e 	c #83775C",
"f 	c #8F8E8A",
"g 	c #CDC8BB",
"h 	c #F9EBD0",
"i 	c #F3DBB1",
"j 	c #3C352A",
"k 	c #CCC6BA",
"l 	c #EDCB92",
"m 	c #C0A15E",
"n 	c #BD9F63",
"o 	c #D2BE95",
"p 	c #DCD0B6",
"q 	c #FBF0D8",
"r 	c #F7E3BF",
"s 	c #F1D3A0",
"t 	c #EDCA92",
"u 	c #EAC78F",
"v 	c #CBAC7C",
"w 	c #BFBFBD",
"x 	c #C3A461",
"y 	c #BC9D5D",
"z 	c #CBB483",
"A 	c #D8C7A5",
"B 	c #EFE3CB",
"C 	c #FAEBCD",
"D 	c #F6DFB4",
"E 	c #F1CF95",
"F 	c #E5C18B",
"G 	c #E3BF8A",
"H 	c #544733",
"I 	c #8F8F8D",
"J 	c #D0B072",
"K 	c #C1A35F",
"L 	c #BE9F5B",
"M 	c #C5AD7C",
"N 	c #E6D9C0",
"O 	c #FCF1DA",
"P 	c #F9E4BC",
"Q 	c #F6D8A3",
"R 	c #E9C68E",
"S 	c #E6C28C",
"T 	c #E3C08A",
"U 	c #E2BE89",
"V 	c #E1BD88",
"W 	c #D3B17F",
"X 	c #0F0C09",
"Y 	c #7F7F7D",
"Z 	c #E7CA9E",
"` 	c #BD9F5B",
" .	c #C0A25E",
"..	c #BCA170",
"+.	c #FCEED4",
"@.	c #F6D499",
"#.	c #F3D196",
"$.	c #F0CD94",
"%.	c #E7C48D",
"&.	c #E4C08B",
"*.	c #E2BE88",
"=.	c #E0BC87",
"-.	c #DFBB86",
";.	c #8B7453",
">.	c #7F7F7C",
",.	c #E4CA9F",
"'.	c #B1924E",
").	c #A78542",
"!.	c #E8DEC9",
"~.	c #F1CE95",
"{.	c #E0BC86",
"].	c #DEBA85",
"^.	c #DCB883",
"/.	c #DAB680",
"(.	c #433827",
"_.	c #D7BD90",
":.	c #A48441",
"<.	c #9C7C43",
"[.	c #F6E6C9",
"}.	c #DFBB85",
"|.	c #DDB984",
"1.	c #DBB781",
"2.	c #D8B47E",
"3.	c #D5B17A",
"4.	c #C4A26F",
"5.	c #3F3F3D",
"6.	c #D3B98B",
"7.	c #977634",
"8.	c #B19B77",
"9.	c #E9CB9E",
"0.	c #DEBA84",
"a.	c #DCB882",
"b.	c #D9B57F",
"c.	c #D6B27C",
"d.	c #D2AE77",
"e.	c #CEAA73",
"f.	c #C9A56D",
"g.	c #7B6441",
"h.	c #CEB486",
"i.	c #7F5C1F",
"j.	c #E1D7C3",
"k.	c #E1BD87",
"l.	c #D7B37D",
"m.	c #D3AF79",
"n.	c #CFAB74",
"o.	c #CAA66F",
"p.	c #C5A168",
"q.	c #BE9A61",
"r.	c #B79359",
"s.	c #2D2416",
"t.	c #CAB081",
"u.	c #80602D",
"v.	c #F3E4CB",
"w.	c #D1AD76",
"x.	c #CCA871",
"y.	c #C6A26B",
"z.	c #C09C64",
"A.	c #B9955C",
"B.	c #927546",
"C.	c #624E2D",
"D.	c #20190E",
"E.	c #B99F6E",
"F.	c #98815F",
"G.	c #E8D1AC",
"H.	c #D6B27B",
"I.	c #CDA972",
"J.	c #C8A46D",
"K.	c #C29E66",
"L.	c #A58654",
"M.	c #685333",
"N.	c #382D1B",
"O.	c #0B0805",
"P.	c #5F5E5B",
"Q.	c #9C8051",
"R.	c #D4C9B7",
"S.	c #D6B480",
"T.	c #CAA66E",
"U.	c #B99762",
"V.	c #79623F",
"W.	c #473924",
"X.	c #17120B",
"Y.	c #3F3F3C",
"Z.	c #D5CBB7",
"`.	c #E7D6B8",
" +	c #967B51",
".+	c #56462E",
"++	c #241D12",
"                                                ",
"                                                ",
"                                                ",
"            . .               .                 ",
"    . . + @ # $ %       . % & * = .             ",
"  . - ; > , ' ) ! ~ & * { ] ^ / ( _       .     ",
"  . : ) < [ } | 1 ] ^ / ( 2 3 4 5 6 . . 7 8 9   ",
"  . 0 | 1 ] ^ / ( 2 3 4 5 a b c d e f g h i j   ",
"  . k / l 2 3 4 5 a b c m n o p q r s t u v .   ",
"  . w 4 5 a b c x y z A B C D E ( 3 5 F G H     ",
"  . I F J K L M N O P Q ] / 2 R S T U V W X     ",
"    Y Z `  ...+.@.#.$.t u %.&.U *.V =.-.;..     ",
"    >.,.'.).!.~.( 3 5 F G U V V {.].^./.(.      ",
"    >._.:.<.[.R S T U V V =.}.|.1.2.3.4..       ",
"    5.6.7.8.9.U V V =.-.0.a.b.c.d.e.f.g..       ",
"    5.h.i.j.V k.{.].^./.l.m.n.o.p.q.r.s.        ",
"    5.t.u.v.}.|.1.2.3.w.x.y.z.A.B.C.D..         ",
"    5.E.F.G.b.H.d.I.J.K.L.M.N.O..               ",
"    P.Q.R.S.n.T.U.V.W.X.. .                     ",
"    Y.Z.`. +.+++. .                             ",
"    . Y.. .                                     ",
"                                                ",
"                                                ",
"                                                "};
