/* XPM */
static char * gtk_properties_xpm[] = {
"24 24 55 1",
" 	c None",
".	c #000000",
"+	c #5D5D5D",
"@	c #B4B4B4",
"#	c #BABABA",
"$	c #161616",
"%	c #747474",
"&	c #B3B3B3",
"*	c #A7A7A7",
"=	c #222222",
"-	c #181818",
";	c #B2B2B2",
">	c #505050",
",	c #0E0E0E",
"'	c #353535",
")	c #BDBDBD",
"!	c #B9B9B9",
"~	c #787878",
"{	c #0F0F0F",
"]	c #646464",
"^	c #C5C5C5",
"/	c #C1C1C1",
"(	c #7C7C7C",
"_	c #454545",
":	c #E5E5E5",
"<	c #565656",
"[	c #D1D1D1",
"}	c #AFAFAF",
"|	c #BFBFBF",
"1	c #CFCFCF",
"2	c #D7D7D7",
"3	c #DFDFDF",
"4	c #8F8F8F",
"5	c #A9A9A9",
"6	c #B0B0B0",
"7	c #C8C8C8",
"8	c #DEDEDE",
"9	c #E4E4E4",
"0	c #BBBBBB",
"a	c #E3E3E3",
"b	c #6E6E6E",
"c	c #727272",
"d	c #393939",
"e	c #535353",
"f	c #242424",
"g	c #C2C2C2",
"h	c #AEAEAE",
"i	c #A8A8A8",
"j	c #B8B8B8",
"k	c #DDDDDD",
"l	c #7D7D7D",
"m	c #6F6F6F",
"n	c #383838",
"o	c #E0E0E0",
"p	c #474747",
"                        ",
"                ....    ",
"               .+@#$    ",
"              .%&*=     ",
"              -#;>.  ,. ",
"              ')!~. {!. ",
"             .]^/!(_#:. ",
"            .<[}|123:4. ",
"           .<[567289#{  ",
"          .<[560abcd.   ",
"         .<[560ae.      ",
"        .<[560ae.       ",
"       .<[560ae.        ",
"      .<[560ae.         ",
"   .f'][560ae.          ",
"  .%##gh60ae.           ",
"  +&;!/)7ae.            ",
" .i*>~j1kl.             ",
" .#= .m28c              ",
" .$   no9p              ",
"     {#:#.              ",
"    ,!:4{               ",
"    ....                ",
"                        "};
