/* XPM */
static char * minus_xpm[] = {
"25 9 56 1",
" 	c None",
".	c #1F3038",
"+	c #EBF4F8",
"@	c #E9F3F8",
"#	c #EAF3F8",
"$	c #ECF4F8",
"%	c #EDF4F8",
"&	c #EEF4F8",
"*	c #EFF5F8",
"=	c #F0F5F8",
"-	c #F1F5F8",
";	c #F1F6F8",
">	c #F2F6F8",
",	c #F3F6F8",
"'	c #F3F5F7",
")	c #F1F3F5",
"!	c #EEF1F3",
"~	c #DBDBDB",
"{	c #42BCFF",
"]	c #19AEFF",
"^	c #22B1FF",
"/	c #33B7FF",
"(	c #43BCFF",
"_	c #53C2FF",
":	c #5FC6FF",
"<	c #6BCAFF",
"[	c #76CEFF",
"}	c #7FD2FF",
"|	c #87D4FF",
"1	c #8DD7FF",
"2	c #92D8FF",
"3	c #95D9FF",
"4	c #96DAFF",
"5	c #94D9FF",
"6	c #DCE0E2",
"7	c #1AAEFF",
"8	c #28B3FF",
"9	c #35B7FF",
"0	c #41BBFF",
"a	c #4BBFFF",
"b	c #54C2FF",
"c	c #5BC5FF",
"d	c #61C7FF",
"e	c #65C8FF",
"f	c #68C9FF",
"g	c #69CAFF",
"h	c #67C9FF",
"i	c #D3D9DC",
"j	c #1CAFFF",
"k	c #25B2FF",
"l	c #2BB4FF",
"m	c #31B6FF",
"n	c #38B8FF",
"o	c #39B9FF",
"p	c #CDD5D9",
"q	c #CBD4D9",
".........................",
".+@@@@@#$%&*=-;>,,,,')!~.",
".{]]]]]]^/(_:<[}|1234456.",
".{]]]]]]]]7890abcdefgghi.",
".{]]]]]]]]]]]]jklm9noonp.",
".{]]]]]]]]]]]]]]]]]]]]]q.",
".{]]]]]]]]]]]]]]]]]]]]]q.",
".........................",
"........................."};
