/* XPM */
static char * play_xpm[] = {
"18 24 7 1",
" 	c None",
".	c #ADB7BC",
"+	c #ADB5B8",
"@	c #1F3038",
"#	c #193B4B",
"$	c #19AEFF",
"%	c #27B3FF",
".+                ",
"                  ",
"                  ",
"@@#               ",
"@$@@@             ",
"@$$$@@@           ",
"@$$$$$@@@         ",
"@$$$$$$$@@@       ",
"@$$$$$$$$$@@@     ",
"@$$$$$$$$$$$@@@   ",
"@$%$$$$$$$$$$$@@@ ",
"@$%$$$$$$$$$$$$$@@",
"@$%$$$$$$$$$$$$$$@",
"@$%$$$$$$$$$$$$$@@",
"@$%$$$$$$$$$$$@@@ ",
"@$$$$$$$$$$$@@@   ",
"@$$$$$$$$$@@@     ",
"@$$$$$$$@@@       ",
"@$$$$$@@@         ",
"@$$$@@@           ",
"@$@@@             ",
"@@#               ",
"                  ",
"                  "};
