/* XPM */
static char * plus_xpm[] = {
"23 24 71 1",
" 	c None",
".	c #1F3038",
"+	c #EBF8FF",
"@	c #EDF9FF",
"#	c #EFF9FF",
"$	c #F1FAFF",
"%	c #F7FCFF",
"&	c #63C7FF",
"*	c #73CDFF",
"=	c #84D3FF",
"-	c #94D9FF",
";	c #C0E8FF",
">	c #5CC5FF",
",	c #6CCBFF",
"'	c #7CD0FF",
")	c #8CD6FF",
"!	c #B8E6FF",
"~	c #51C1FF",
"{	c #61C7FF",
"]	c #71CCFF",
"^	c #80D2FF",
"/	c #B1E3FF",
"(	c #44BCFF",
"_	c #54C2FF",
":	c #63C8FF",
"<	c #72CDFF",
"[	c #A6DFFF",
"}	c #33B7FF",
"|	c #43BCFF",
"1	c #53C2FF",
"2	c #62C7FF",
"3	c #9ADBFF",
"4	c #21B0FF",
"5	c #30B6FF",
"6	c #3FBBFF",
"7	c #4FC0FF",
"8	c #19AEFF",
"9	c #1BAEFF",
"0	c #2AB3FF",
"a	c #38B8FF",
"b	c #B3E4FF",
"c	c #A3DFFF",
"d	c #8BD6FF",
"e	c #20B0FF",
"f	c #4EC1FF",
"g	c #A3DEFF",
"h	c #A9E0FF",
"i	c #AFE3FF",
"j	c #BDE7FF",
"k	c #C6EBFF",
"l	c #42BCFF",
"m	c #1FB0FF",
"n	c #2BB4FF",
"o	c #36B8FF",
"p	c #41BBFF",
"q	c #4BBFFF",
"r	c #55C2FF",
"s	c #5DC5FF",
"t	c #23B1FF",
"u	c #2CB4FF",
"v	c #35B7FF",
"w	c #3EBAFF",
"x	c #1DAFFF",
"y	c #A7E0FF",
"z	c #7ED2FF",
"A	c #1B2F3A",
"B	c #2B3E47",
"C	c #243641",
"D	c #5DC6FF",
"E	c #C2E9FF",
"F	c #D4F0FF",
"        .......        ",
"        .+@#$%.        ",
"        .&*=-;.        ",
"        .>,')!.        ",
"        .~{]^/.        ",
"        .(_:<[.        ",
"        .}|123.        ",
"        .4567).        ",
".........890a'........ ",
".bccccccd888efghib!jk. ",
".l888888888888mnopqrs. ",
".l888888888888888tuvw. ",
".l888888888888888888x. ",
".l8888888888888888888. ",
".y------z8888lccccccc. ",
"ABBBBBBC.8888D........ ",
"        .8888D.        ",
"        .8888D.        ",
"        .8888D.        ",
"        .8888D.        ",
"        .8888D.        ",
"        .8888D.        ",
"        .EEEEF.        ",
"        .......        "};
