/* XPM */
static char * stop_xpm[] = {
"23 24 148 2",
"  	c None",
". 	c #1F3038",
"+ 	c #FFFFFF",
"@ 	c #E7F5FD",
"# 	c #73C5F2",
"$ 	c #71C4F2",
"% 	c #74C5F2",
"& 	c #7CC9F3",
"* 	c #84CAF3",
"= 	c #8CCFF3",
"- 	c #93D1F4",
"; 	c #9BD4F4",
"> 	c #A4D8F5",
", 	c #AADAF5",
"' 	c #B3DDF6",
") 	c #BAE0F6",
"! 	c #C2E4F6",
"~ 	c #CAE6F6",
"{ 	c #D1E9F6",
"] 	c #D3EAF6",
"^ 	c #CFE8F6",
"/ 	c #C9E5F6",
"( 	c #C2E3F5",
"_ 	c #FBFDFE",
": 	c #D2ECFA",
"< 	c #10A5F6",
"[ 	c #19AEFF",
"} 	c #27B2FF",
"| 	c #34B7FF",
"1 	c #42BCFF",
"2 	c #50C1FF",
"3 	c #5EC6FF",
"4 	c #6CCBFF",
"5 	c #7ACFFF",
"6 	c #87D4FF",
"7 	c #95D9FF",
"8 	c #A3DEFF",
"9 	c #B0E2FF",
"0 	c #BDE7FF",
"a 	c #BCE7FF",
"b 	c #92D3F8",
"c 	c #F7FCFE",
"d 	c #24B1FF",
"e 	c #32B6FF",
"f 	c #3FBBFF",
"g 	c #4EC0FF",
"h 	c #5CC5FF",
"i 	c #69CAFF",
"j 	c #77CFFF",
"k 	c #85D3FF",
"l 	c #93D8FF",
"m 	c #A0DDFF",
"n 	c #AEE2FF",
"o 	c #BAE6FF",
"p 	c #B9E6FF",
"q 	c #A1DDFF",
"r 	c #8ED1F8",
"s 	c #F7FBFE",
"t 	c #21B0FF",
"u 	c #2EB5FF",
"v 	c #3CBAFF",
"w 	c #4ABFFF",
"x 	c #57C3FF",
"y 	c #64C8FF",
"z 	c #72CDFF",
"A 	c #7FD1FF",
"B 	c #8CD6FF",
"C 	c #99DAFF",
"D 	c #A4DEFF",
"E 	c #ABE1FF",
"F 	c #87CFF7",
"G 	c #1CAFFF",
"H 	c #29B3FF",
"I 	c #37B8FF",
"J 	c #44BDFF",
"K 	c #51C1FF",
"L 	c #6BCAFF",
"M 	c #83D3FF",
"N 	c #8DD6FF",
"O 	c #96D9FF",
"P 	c #9BDBFF",
"Q 	c #8ED7FF",
"R 	c #7DCBF6",
"S 	c #F6FBFE",
"T 	c #23B1FF",
"U 	c #30B6FF",
"V 	c #3DBAFF",
"W 	c #56C3FF",
"X 	c #62C7FF",
"Y 	c #6DCBFF",
"Z 	c #81D2FF",
"` 	c #8BD6FF",
" .	c #71C6F6",
"..	c #1BAEFF",
"+.	c #28B3FF",
"@.	c #35B7FF",
"#.	c #41BCFF",
"$.	c #4CC0FF",
"%.	c #6ACAFF",
"&.	c #73CDFF",
"*.	c #78CFFF",
"=.	c #7BD0FF",
"-.	c #79CFFF",
";.	c #64C1F5",
">.	c #F5FBFE",
",.	c #1FB0FF",
"'.	c #2BB4FF",
").	c #4CBFFF",
"!.	c #55C3FF",
"~.	c #5DC5FF",
"{.	c #68C9FF",
"].	c #56BCF5",
"^.	c #F4FAFE",
"/.	c #35B8FF",
"(.	c #48BEFF",
"_.	c #4FC0FF",
":.	c #54C2FF",
"<.	c #59C4FF",
"[.	c #5BC5FF",
"}.	c #47B6F4",
"|.	c #F3FAFE",
"1.	c #20B0FF",
"2.	c #39B9FF",
"3.	c #40BBFF",
"4.	c #46BDFF",
"5.	c #49BEFF",
"6.	c #4BBFFF",
"7.	c #38B2F4",
"8.	c #F2FAFE",
"9.	c #31B6FF",
"0.	c #3BB9FF",
"a.	c #28AAF3",
"b.	c #F1F9FE",
"c.	c #1DAFFF",
"d.	c #22B1FF",
"e.	c #26B2FF",
"f.	c #1AA6F3",
"g.	c #F1F9FD",
"h.	c #1AAEFF",
"i.	c #0DA1F3",
"j.	c #F0F9FD",
"k.	c #099CEE",
"l.	c #0DA2F3",
"m.	c #079AEC",
"n.	c #F9FCFE",
"o.	c #DDF1FC",
"p.	c #EEF8FD",
"q.	c #FEFFFF",
". . . . . . . . . . . . . . . . . . . . . . . ",
". + + + + + + + + + + + + + + + + + + + + + . ",
". @ # $ % & * = - ; > , ' ) ! ~ { ] ^ / ( _ . ",
". : < [ [ } | 1 2 3 4 5 6 7 8 9 0 a 9 8 b c . ",
". : < [ [ d e f g h i j k l m n o p n q r s . ",
". : < [ [ t u v w x y z A B C D E E D C F s . ",
". : < [ [ G H I J K 3 L j M N O P P O Q R S . ",
". : < [ [ [ T U V w W X Y j Z 6 ` ` 6 Z  .S . ",
". : < [ [ [ ..+.@.#.$.x X %.&.*.=.=.-.&.;.>.. ",
". : < [ [ [ [ ,.'.I #.).!.~.y {.L L i y ].^.. ",
". : < [ [ [ [ [ t './.f (._.:.<.[.[.<.W }.|.. ",
". : < [ [ [ [ [ [ 1.H e 2.3.4.5.6.6.w 4.7.8.. ",
". : < [ [ [ [ [ [ [ G d '.9./.2.0.0.2.I a.b.. ",
". : < [ [ [ [ [ [ [ [ [ c.d.e.H '.'.H } f.g.. ",
". : < [ [ [ [ [ [ [ [ [ [ [ [ [ ....h.[ i.j.. ",
". : < [ [ [ [ [ [ [ [ [ [ [ [ [ [ [ [ [ i.j.. ",
". : < [ [ [ [ [ [ [ [ [ [ [ [ [ [ [ [ [ i.j.. ",
". : < [ [ [ [ [ [ [ [ [ [ [ [ [ [ [ [ [ i.j.. ",
". : < [ [ [ [ [ [ [ [ [ [ [ [ [ [ [ [ [ i.j.. ",
". : < [ [ [ [ [ [ [ [ [ [ [ [ [ [ [ [ [ i.j.. ",
". : < [ [ [ [ [ [ [ [ [ [ [ [ [ [ [ [ [ i.j.. ",
". : k.l.l.l.l.l.l.l.l.l.l.l.l.l.l.l.l.l.m.j.. ",
". n.o.o.o.o.o.o.o.o.o.o.@ p.p.p.p.p.p.p.p.q.. ",
". . . . . . . . . . . . . . . . . . . . . . . "};
