/* XPM */
static char * stop_xpm[] = {
"24 24 140 2",
"  	c None",
". 	c #000000",
"+ 	c #972827",
"@ 	c #F23F3E",
"# 	c #EC3C3A",
"$ 	c #E33635",
"% 	c #DB312F",
"& 	c #D32C2A",
"* 	c #CB2725",
"= 	c #C42320",
"- 	c #B11C19",
"; 	c #220404",
"> 	c #E43433",
", 	c #AA0803",
"' 	c #A60500",
") 	c #A70601",
"! 	c #A10C08",
"~ 	c #1F0302",
"{ 	c #DD3533",
"] 	c #910B07",
"^ 	c #8C0704",
"/ 	c #9F0501",
"( 	c #940703",
"_ 	c #8F0905",
": 	c #980A06",
"< 	c #A40D09",
"[ 	c #DD3433",
"} 	c #821B19",
"| 	c #BA8C8B",
"1 	c #C29B9A",
"2 	c #8A3533",
"3 	c #920603",
"4 	c #860805",
"5 	c #9A5251",
"6 	c #CAA9A8",
"7 	c #AA6F6E",
"8 	c #800B08",
"9 	c #AA110E",
"0 	c #972727",
"a 	c #E23331",
"b 	c #8A0B08",
"c 	c #F6F6F6",
"d 	c #F4F4F4",
"e 	c #EAE3E3",
"f 	c #930703",
"g 	c #870805",
"h 	c #A2615F",
"i 	c #F5F5F5",
"j 	c #F2F2F2",
"k 	c #B01511",
"l 	c #B11612",
"m 	c #E13331",
"n 	c #820805",
"o 	c #D2B8B7",
"p 	c #FEFEFE",
"q 	c #B27E7D",
"r 	c #B41815",
"s 	c #CF201C",
"t 	c #67100E",
"u 	c #C61E1B",
"v 	c #822725",
"w 	c #C51E1B",
"x 	c #D62421",
"y 	c #6D1312",
"z 	c #C11B18",
"A 	c #AF1916",
"B 	c #D82522",
"C 	c #DD2926",
"D 	c #701514",
"E 	c #BD1815",
"F 	c #A70501",
"G 	c #870906",
"H 	c #F8F8F8",
"I 	c #FFFFFF",
"J 	c #B01A17",
"K 	c #D92623",
"L 	c #DF2A27",
"M 	c #E52E2B",
"N 	c #741817",
"O 	c #B81612",
"P 	c #A80601",
"Q 	c #AB0803",
"R 	c #880906",
"S 	c #FAFAFA",
"T 	c #B31C19",
"U 	c #E02B28",
"V 	c #E62F2C",
"W 	c #EC3230",
"X 	c #781A19",
"Y 	c #B4130F",
"Z 	c #AC0804",
"` 	c #890A07",
" .	c #BB211F",
"..	c #ED3331",
"+.	c #F23634",
"@.	c #791B1A",
"#.	c #B2120E",
"$.	c #AD0904",
"%.	c #990A07",
"&.	c #E2312F",
"*.	c #F33735",
"=.	c #A60F0C",
"-.	c #B10C08",
";.	c #870B08",
">.	c #F9F9F9",
",.	c #D32B29",
"'.	c #6A1817",
").	c #210201",
"!.	c #AB0F0B",
"~.	c #8D0D0A",
"{.	c #B41C1A",
"].	c #9C1614",
"^.	c #972221",
"/.	c #230302",
"(.	c #AB1310",
"_.	c #801917",
":.	c #B51D1B",
"<.	c #E22C29",
"[.	c #E72F2D",
"}.	c #A11917",
"|.	c #8B1210",
"1.	c #250504",
"2.	c #B51A17",
"3.	c #A31614",
"4.	c #A61816",
"5.	c #D12523",
"6.	c #E32D2A",
"7.	c #E9302E",
"8.	c #EF3432",
"9.	c #CB2826",
"0.	c #B3201E",
"a.	c #C32624",
"b.	c #8F1F1E",
"c.	c #270606",
"d.	c #CC2421",
"e.	c #EB312F",
"f.	c #F03533",
"g.	c #2A0807",
"h.	c #721715",
"i.	c #751917",
"                                                ",
"                                                ",
"              . . . . . . . . .                 ",
"            . + @ # $ % & * = - ;               ",
"          . + > , ' ' ' ' ' ' ) ! ~             ",
"        . + { ] ^ / ' ' ' ' ( _ : < ~           ",
"      . + [ } | 1 2 3 ' ' 4 5 6 7 8 9 ~         ",
"    . 0 a b 6 c d e 2 f g h d i j h k l ~       ",
"    . m , n o c p d e 2 h d p c j q r s t .     ",
"    . u ' 3 5 j c p d e d p c j e v w x y .     ",
"    . z ' ' 4 h j c p c p c j e 2 A B C D .     ",
"    . E ' ' F G h j H I H j e 2 J K L M N .     ",
"    . O ' P Q R h d p S p d e 2 T U V W X .     ",
"    . Y P Z ` h d p c j c p d e 2  ...+.@..     ",
"    . #.$.%.5 d p c j e j c p d e v &.*.@..     ",
"    . =.-.;.o >.c j e 2 h j c c j q ,.*.'..     ",
"      ).!.~.6 j j e 2 {.].h j j j h ,.^..       ",
"        /.(._.| 1 2 :.<.[.}.5 6 7 |.^..         ",
"          1.2.3.4.5.6.7.8.+.9.0.a.b..           ",
"            c.d.L M e.f.+.*.*.*.^..             ",
"              g.h.i.X @.@.@.@.'..               ",
"                . . . . . . . .                 ",
"                                                ",
"                                                "};
