<?xml version="1.0" encoding="UTF-8" standalone="no"?>
<!-- Created with Inkscape (http://www.inkscape.org/) -->

<svg
   xmlns:dc="http://purl.org/dc/elements/1.1/"
   xmlns:cc="http://creativecommons.org/ns#"
   xmlns:rdf="http://www.w3.org/1999/02/22-rdf-syntax-ns#"
   xmlns:svg="http://www.w3.org/2000/svg"
   xmlns="http://www.w3.org/2000/svg"
   xmlns:xlink="http://www.w3.org/1999/xlink"
   xmlns:sodipodi="http://sodipodi.sourceforge.net/DTD/sodipodi-0.dtd"
   xmlns:inkscape="http://www.inkscape.org/namespaces/inkscape"
   width="16"
   height="16"
   id="svg2"
   sodipodi:version="0.32"
   inkscape:version="0.48.0 r9654"
   version="1.0"
   sodipodi:docname="network-transmit.svg"
   inkscape:output_extension="org.inkscape.output.svg.inkscape">
  <defs
     id="defs4">
    <linearGradient
       id="linearGradient3171"
       inkscape:collect="always">
      <stop
         id="stop3173"
         offset="0"
         style="stop-color:#000000;stop-opacity:1;" />
      <stop
         id="stop3175"
         offset="1"
         style="stop-color:#000000;stop-opacity:0;" />
    </linearGradient>
    <linearGradient
       inkscape:collect="always"
       xlink:href="#linearGradient3171"
       id="linearGradient3342"
       gradientUnits="userSpaceOnUse"
       x1="4.9375"
       y1="11"
       x2="8"
       y2="11" />
    <linearGradient
       id="linearGradient3266"
       inkscape:collect="always">
      <stop
         id="stop3268"
         offset="0"
         style="stop-color:#505050;stop-opacity:1;" />
      <stop
         id="stop3270"
         offset="1"
         style="stop-color:#505050;stop-opacity:0;" />
    </linearGradient>
    <linearGradient
       inkscape:collect="always"
       xlink:href="#linearGradient3266"
       id="linearGradient3340"
       gradientUnits="userSpaceOnUse"
       gradientTransform="translate(2,0)"
       x1="3.8890872"
       y1="15.656685"
       x2="4.3288512"
       y2="12.842732" />
    <linearGradient
       inkscape:collect="always"
       xlink:href="#linearGradient3242"
       id="linearGradient3338"
       gradientUnits="userSpaceOnUse"
       x1="3.5"
       y1="14.03125"
       x2="3.5"
       y2="7.9958577" />
    <linearGradient
       id="linearGradient3242">
      <stop
         id="stop3244"
         offset="0"
         style="stop-color:#505050;stop-opacity:1;" />
      <stop
         style="stop-color:#a7a7a7;stop-opacity:1;"
         offset="0.5"
         id="stop3260" />
      <stop
         style="stop-color:#ffffff;stop-opacity:1;"
         offset="0.69999999"
         id="stop3250" />
      <stop
         id="stop3246"
         offset="1"
         style="stop-color:#c8c8c8;stop-opacity:1;" />
    </linearGradient>
    <linearGradient
       inkscape:collect="always"
       xlink:href="#linearGradient3242"
       id="linearGradient3336"
       gradientUnits="userSpaceOnUse"
       x1="7.6126604"
       y1="14.756505"
       x2="5.5251265"
       y2="7.243495" />
    <inkscape:perspective
       sodipodi:type="inkscape:persp3d"
       inkscape:vp_x="0 : 11 : 1"
       inkscape:vp_y="0 : 1000 : 0"
       inkscape:vp_z="22 : 11 : 1"
       inkscape:persp3d-origin="11 : 7.3333333 : 1"
       id="perspective23" />
    <linearGradient
       id="ShadowGradient">
      <stop
         style="stop-color:#000000;stop-opacity:1;"
         offset="0"
         id="stop3393" />
      <stop
         style="stop-color:#000000;stop-opacity:0;"
         offset="1"
         id="stop3395" />
    </linearGradient>
    <linearGradient
       id="StandardGradient">
      <stop
         style="stop-color:#000000;stop-opacity:1;"
         offset="0"
         id="stop3389" />
      <stop
         style="stop-color:#646464;stop-opacity:1;"
         offset="1"
         id="stop3391" />
    </linearGradient>
    <linearGradient
       inkscape:collect="always"
       xlink:href="#StandardGradient"
       id="linearGradient3381"
       x1="9.9375"
       y1="3"
       x2="9.9375"
       y2="19.017569"
       gradientUnits="userSpaceOnUse" />
    <linearGradient
       inkscape:collect="always"
       xlink:href="#StandardGradient"
       id="linearGradient3782"
       x1="9.75"
       y1="5"
       x2="9.75"
       y2="19.055693"
       gradientUnits="userSpaceOnUse"
       gradientTransform="translate(0,-1)" />
    <linearGradient
       inkscape:collect="always"
       xlink:href="#StandardGradient"
       id="linearGradient2400"
       gradientUnits="userSpaceOnUse"
       gradientTransform="translate(-9,10)"
       x1="9.75"
       y1="5"
       x2="9.75"
       y2="19.055693" />
    <linearGradient
       inkscape:collect="always"
       xlink:href="#StandardGradient"
       id="linearGradient3174"
       gradientUnits="userSpaceOnUse"
       gradientTransform="matrix(0.7071068,0.7071068,-0.7071068,0.7071068,0.8856249,4.1536343)"
       x1="9.75"
       y1="5"
       x2="9.75"
       y2="19.055693" />
    <linearGradient
       inkscape:collect="always"
       xlink:href="#StandardGradient"
       id="linearGradient3178"
       gradientUnits="userSpaceOnUse"
       gradientTransform="matrix(0,1,-1,0,12.009822,7.0098219)"
       x1="9.75"
       y1="5"
       x2="9.75"
       y2="19.055693" />
    <linearGradient
       inkscape:collect="always"
       xlink:href="#StandardGradient"
       id="linearGradient3182"
       gradientUnits="userSpaceOnUse"
       gradientTransform="matrix(-0.7071068,0.7071068,-0.7071068,-0.7071068,17.856188,16.895447)"
       x1="9.75"
       y1="5"
       x2="9.75"
       y2="19.055693" />
    <linearGradient
       inkscape:collect="always"
       xlink:href="#StandardGradient"
       id="linearGradient3186"
       gradientUnits="userSpaceOnUse"
       gradientTransform="matrix(-1,0,0,-1,15,28.019644)"
       x1="9.75"
       y1="5"
       x2="9.75"
       y2="19.055693" />
    <linearGradient
       inkscape:collect="always"
       xlink:href="#StandardGradient"
       id="linearGradient3190"
       gradientUnits="userSpaceOnUse"
       gradientTransform="matrix(-0.7071068,-0.7071068,0.7071068,-0.7071068,5.1143752,33.866009)"
       x1="9.75"
       y1="5"
       x2="9.75"
       y2="19.055693" />
    <linearGradient
       inkscape:collect="always"
       xlink:href="#StandardGradient"
       id="linearGradient3194"
       gradientUnits="userSpaceOnUse"
       gradientTransform="matrix(0,-1,1,0,-6.0098215,31.009821)"
       x1="9.75"
       y1="5"
       x2="9.75"
       y2="19.055693" />
    <linearGradient
       inkscape:collect="always"
       xlink:href="#StandardGradient"
       id="linearGradient3198"
       gradientUnits="userSpaceOnUse"
       gradientTransform="matrix(0.7071068,-0.7071068,0.7071068,0.7071068,-11.856186,21.124197)"
       x1="9.75"
       y1="5"
       x2="9.75"
       y2="19.055693" />
    <linearGradient
       inkscape:collect="always"
       xlink:href="#StandardGradient"
       id="linearGradient3224"
       gradientUnits="userSpaceOnUse"
       gradientTransform="matrix(0.7071068,0.7071068,-0.7071068,0.7071068,11.292893,-6.263456)"
       x1="9.75"
       y1="5"
       x2="9.75"
       y2="19.055693" />
    <linearGradient
       inkscape:collect="always"
       xlink:href="#StandardGradient"
       id="linearGradient2407"
       gradientUnits="userSpaceOnUse"
       gradientTransform="translate(-22,-5)"
       x1="9.75"
       y1="5"
       x2="9.75"
       y2="19.055693" />
    <linearGradient
       inkscape:collect="always"
       xlink:href="#StandardGradient"
       id="linearGradient3228"
       x1="6.7010484"
       y1="1"
       x2="6.7010484"
       y2="15.001111"
       gradientUnits="userSpaceOnUse" />
    <linearGradient
       inkscape:collect="always"
       xlink:href="#linearGradient3171"
       id="linearGradient2630"
       gradientUnits="userSpaceOnUse"
       x1="4.9375"
       y1="11"
       x2="8"
       y2="11"
       gradientTransform="translate(4.8043455e-2,-1.0546018)" />
    <linearGradient
       inkscape:collect="always"
       xlink:href="#linearGradient3266"
       id="linearGradient2633"
       gradientUnits="userSpaceOnUse"
       gradientTransform="translate(2.0480435,-1.0546018)"
       x1="3.8890872"
       y1="15.656685"
       x2="4.3288512"
       y2="12.842732" />
    <linearGradient
       inkscape:collect="always"
       xlink:href="#linearGradient3242"
       id="linearGradient2636"
       gradientUnits="userSpaceOnUse"
       x1="3.5"
       y1="14.03125"
       x2="3.5"
       y2="7.9958577"
       gradientTransform="translate(4.8043455e-2,-1.0546018)" />
    <linearGradient
       inkscape:collect="always"
       xlink:href="#linearGradient3242"
       id="linearGradient2639"
       gradientUnits="userSpaceOnUse"
       x1="7.6126604"
       y1="14.756505"
       x2="5.5251265"
       y2="7.243495"
       gradientTransform="translate(4.8043455e-2,-1.0546018)" />
    <linearGradient
       inkscape:collect="always"
       xlink:href="#linearGradient3242"
       id="linearGradient2641"
       gradientUnits="userSpaceOnUse"
       gradientTransform="translate(-2,-2.9999999)"
       x1="7.6126604"
       y1="14.756505"
       x2="5.5251265"
       y2="7.243495" />
    <linearGradient
       inkscape:collect="always"
       xlink:href="#StandardGradient"
       id="linearGradient3421"
       x1="8.4375"
       y1="1"
       x2="8.4375"
       y2="15.007554"
       gradientUnits="userSpaceOnUse" />
    <linearGradient
       inkscape:collect="always"
       xlink:href="#StandardGradient"
       id="linearGradient2433"
       gradientUnits="userSpaceOnUse"
       x1="8.4375"
       y1="1"
       x2="8.4375"
       y2="15.007554"
       gradientTransform="matrix(1.2397314,0,0,1,-2.1450456,0)" />
    <linearGradient
       inkscape:collect="always"
       xlink:href="#StandardGradient"
       id="linearGradient2435"
       gradientUnits="userSpaceOnUse"
       x1="8.4375"
       y1="1"
       x2="8.4375"
       y2="15.007554"
       gradientTransform="matrix(1.3065009,0,0,1,-3.6644889,0)" />
    <linearGradient
       inkscape:collect="always"
       xlink:href="#StandardGradient"
       id="linearGradient2437"
       gradientUnits="userSpaceOnUse"
       x1="8.4375"
       y1="1"
       x2="8.4375"
       y2="15.007554"
       gradientTransform="matrix(1.315615,0,0,1,-4.7200494,0)" />
    <inkscape:perspective
       id="perspective2849"
       inkscape:persp3d-origin="0.5 : 0.33333333 : 1"
       inkscape:vp_z="1 : 0.5 : 1"
       inkscape:vp_y="0 : 1000 : 0"
       inkscape:vp_x="0 : 0.5 : 1"
       sodipodi:type="inkscape:persp3d" />
    <linearGradient
       inkscape:collect="always"
       xlink:href="#StandardGradient"
       id="linearGradient2898"
       gradientUnits="userSpaceOnUse"
       x1="8.4375"
       y1="1"
       x2="8.4375"
       y2="15.007554" />
    <inkscape:perspective
       id="perspective2917"
       inkscape:persp3d-origin="0.5 : 0.33333333 : 1"
       inkscape:vp_z="1 : 0.5 : 1"
       inkscape:vp_y="0 : 1000 : 0"
       inkscape:vp_x="0 : 0.5 : 1"
       sodipodi:type="inkscape:persp3d" />
    <linearGradient
       inkscape:collect="always"
       xlink:href="#linearGradient4081"
       id="linearGradient3538"
       gradientUnits="userSpaceOnUse"
       gradientTransform="translate(1,0)"
       x1="16.5"
       y1="19.542921"
       x2="16.5"
       y2="2.5" />
    <linearGradient
       id="linearGradient4081">
      <stop
         style="stop-color:#aaaaaa;stop-opacity:1;"
         offset="0"
         id="stop4083" />
      <stop
         style="stop-color:#f0f0f0;stop-opacity:1;"
         offset="1"
         id="stop4085" />
    </linearGradient>
    <linearGradient
       inkscape:collect="always"
       xlink:href="#linearGradient4081"
       id="linearGradient3542"
       gradientUnits="userSpaceOnUse"
       gradientTransform="translate(-4,-3)"
       x1="10.50519"
       y1="15.28125"
       x2="10.50519"
       y2="6.7458849" />
    <linearGradient
       id="linearGradient2926">
      <stop
         style="stop-color:#aaaaaa;stop-opacity:1;"
         offset="0"
         id="stop2928" />
      <stop
         style="stop-color:#f0f0f0;stop-opacity:1;"
         offset="1"
         id="stop2930" />
    </linearGradient>
    <linearGradient
       inkscape:collect="always"
       xlink:href="#linearGradient4081"
       id="linearGradient3540"
       gradientUnits="userSpaceOnUse"
       gradientTransform="translate(-4,-3)"
       x1="14.524625"
       y1="17.41902"
       x2="14.524625"
       y2="4.625" />
    <linearGradient
       id="linearGradient2933">
      <stop
         style="stop-color:#aaaaaa;stop-opacity:1;"
         offset="0"
         id="stop2935" />
      <stop
         style="stop-color:#f0f0f0;stop-opacity:1;"
         offset="1"
         id="stop2937" />
    </linearGradient>
    <linearGradient
       y2="2.5"
       x2="16.5"
       y1="19.542921"
       x1="16.5"
       gradientTransform="translate(-4,-3)"
       gradientUnits="userSpaceOnUse"
       id="linearGradient2942"
       xlink:href="#linearGradient4081"
       inkscape:collect="always" />
    <linearGradient
       inkscape:collect="always"
       xlink:href="#linearGradient4081"
       id="linearGradient2945"
       gradientUnits="userSpaceOnUse"
       gradientTransform="translate(-4,-3)"
       x1="16.5"
       y1="19.542921"
       x2="16.5"
       y2="2.5" />
    <linearGradient
       inkscape:collect="always"
       xlink:href="#linearGradient4081"
       id="linearGradient2948"
       gradientUnits="userSpaceOnUse"
       gradientTransform="matrix(1,0,0,0.94352368,-4,-2.3752307)"
       x1="16.5"
       y1="19.542921"
       x2="16.5"
       y2="2.5" />
    <linearGradient
       inkscape:collect="always"
       xlink:href="#StandardGradient"
       id="linearGradient2950"
       gradientUnits="userSpaceOnUse"
       x1="8.4375"
       y1="1"
       x2="8.4375"
       y2="15.007554" />
    <linearGradient
       inkscape:collect="always"
       xlink:href="#StandardGradient"
       id="linearGradient3729"
       gradientUnits="userSpaceOnUse"
       x1="8.4375"
       y1="1"
       x2="8.4375"
       y2="15.007554"
       gradientTransform="translate(0,1)" />
    <linearGradient
       inkscape:collect="always"
       xlink:href="#StandardGradient"
       id="linearGradient3731"
       gradientUnits="userSpaceOnUse"
       x1="8.4375"
       y1="1"
       x2="8.4375"
       y2="15.007554" />
    <inkscape:perspective
       id="perspective3777"
       inkscape:persp3d-origin="0.5 : 0.33333333 : 1"
       inkscape:vp_z="1 : 0.5 : 1"
       inkscape:vp_y="0 : 1000 : 0"
       inkscape:vp_x="0 : 0.5 : 1"
       sodipodi:type="inkscape:persp3d" />
    <linearGradient
       id="StandardGradient-1"
       gradientTransform="scale(1.1467263,0.8720476)"
       x1="7.1904788"
       y1="6.9551144"
       x2="7.1904788"
       y2="18.319494"
       gradientUnits="userSpaceOnUse">
      <stop
         style="stop-color:#000000;stop-opacity:0.86274511;"
         offset="0"
         id="stop3280" />
      <stop
         style="stop-color:#000000;stop-opacity:0.47058824;"
         offset="1"
         id="stop3282" />
    </linearGradient>
    <linearGradient
       y2="18.319494"
       x2="7.1904788"
       y1="6.9551144"
       x1="7.1904788"
       gradientTransform="matrix(1.1467263,0,0,0.8720476,2.5196744,8.5383193)"
       gradientUnits="userSpaceOnUse"
       id="linearGradient3785"
       xlink:href="#StandardGradient-1"
       inkscape:collect="always" />
    <linearGradient
       inkscape:collect="always"
       xlink:href="#StandardGradient-1"
       id="linearGradient3804"
       gradientUnits="userSpaceOnUse"
       x1="8.4375"
       y1="1"
       x2="8.4375"
       y2="15.007554" />
    <linearGradient
       inkscape:collect="always"
       xlink:href="#StandardGradient-1"
       id="linearGradient3808"
       gradientUnits="userSpaceOnUse"
       x1="8.4375"
       y1="1"
       x2="8.4375"
       y2="15.007554"
       gradientTransform="translate(0,1)" />
    <linearGradient
       inkscape:collect="always"
       xlink:href="#StandardGradient-1"
       id="linearGradient3812"
       gradientUnits="userSpaceOnUse"
       x1="8.4375"
       y1="1"
       x2="8.4375"
       y2="15.007554" />
    <linearGradient
       inkscape:collect="always"
       xlink:href="#StandardGradient-1"
       id="linearGradient3817"
       gradientUnits="userSpaceOnUse"
       x1="8.4375"
       y1="1"
       x2="8.4375"
       y2="15.007554"
       gradientTransform="translate(-20,0)" />
    <clipPath
       clipPathUnits="userSpaceOnUse"
       id="clipPath3824">
      <path
         style="fill:#ff00ff;fill-opacity:1;stroke:none;display:inline"
         d="m -20,0 0,16 16,0 0,-16 -16,0 z M -7.625,1 C -5.995915,2.9288438 -5,5.3432918 -5,8 c 1e-6,2.708425 -1.032388,5.178784 -2.71875,7.125 l -1.5,-1.25 c 1.364366,-1.613056 2.1875,-3.651801 2.1875,-5.875 0,-2.1639699 -0.76332,-4.1574263 -2.0625,-5.75 L -7.625,1 z M -9.8125,2.84375 C -8.662551,4.2737473 -8,6.0683029 -8,8 c 0,1.9878056 -0.722863,3.803569 -1.9375,5.25 l -1.5,-1.28125 C -10.539955,10.861821 -10,9.5005507 -10,8 -10,6.5562172 -10.506676,5.24065 -11.34375,4.15625 l 1.53125,-1.3125 z m -5.1875,1.125 0,8 L -17,10 -18.5,10 C -18.777,10 -19,9.777 -19,9.5 l 0,-3 C -19,6.223 -18.777,6 -18.5,6 l 1.5,0 2,-2.03125 z M -12.0625,4.75 C -11.393055,5.6663669 -11,6.8041149 -11,8 c 0,1.2594208 -0.420217,2.432325 -1.15625,3.375 L -13.6875,10.0625 C -13.263995,9.4700266 -13,8.7691247 -13,8 -13,7.2815285 -13.219346,6.6300346 -13.59375,6.0625 L -12.0625,4.75 z"
         id="path3826" />
    </clipPath>
    <inkscape:perspective
       id="perspective2945"
       inkscape:persp3d-origin="0.5 : 0.33333333 : 1"
       inkscape:vp_z="1 : 0.5 : 1"
       inkscape:vp_y="0 : 1000 : 0"
       inkscape:vp_x="0 : 0.5 : 1"
       sodipodi:type="inkscape:persp3d" />
    <linearGradient
       inkscape:collect="always"
       xlink:href="#StandardGradient-6"
       id="linearGradient3750"
       x1="11"
       y1="3"
       x2="11"
       y2="20.117243"
       gradientUnits="userSpaceOnUse" />
    <linearGradient
       id="StandardGradient-6"
       gradientTransform="matrix(0.9984539,0,0,0.9984539,-0.0459776,0.05767558)"
       x1="10.710332"
       y1="1.9963325"
       x2="10.710332"
       y2="18.974037"
       gradientUnits="userSpaceOnUse">
      <stop
         style="stop-color:#000000;stop-opacity:0.86274511;"
         offset="0"
         id="stop3277" />
      <stop
         style="stop-color:#000000;stop-opacity:0.47058824;"
         offset="1"
         id="stop3279" />
    </linearGradient>
    <linearGradient
       gradientTransform="matrix(0.77744586,0,0,0.77121526,-0.55489171,-1.3761043)"
       y2="20.117243"
       x2="11"
       y1="3"
       x1="11"
       gradientUnits="userSpaceOnUse"
       id="linearGradient2954"
       xlink:href="#StandardGradient-6"
       inkscape:collect="always" />
    <linearGradient
       inkscape:collect="always"
       xlink:href="#StandardGradient-6"
       id="linearGradient2953"
       gradientUnits="userSpaceOnUse"
       gradientTransform="matrix(0.77744586,0,0,0.77121526,-0.55489171,-0.3761043)"
       x1="11"
       y1="3"
       x2="11"
       y2="20.117243" />
    <linearGradient
       inkscape:collect="always"
       xlink:href="#StandardGradient-6"
       id="linearGradient2955"
       gradientUnits="userSpaceOnUse"
       gradientTransform="matrix(0.77744586,0,0,0.77121526,-0.55489171,-1.3761043)"
       x1="11"
       y1="3"
       x2="11"
       y2="20.117243" />
    <linearGradient
       inkscape:collect="always"
       xlink:href="#StandardGradient-6"
       id="linearGradient3732"
       gradientUnits="userSpaceOnUse"
       gradientTransform="matrix(0.77744586,0,0,0.77121526,-0.55489171,-0.3761043)"
       x1="11"
       y1="3"
       x2="11"
       y2="20.117243" />
    <linearGradient
       inkscape:collect="always"
       xlink:href="#StandardGradient-6"
       id="linearGradient3736"
       gradientUnits="userSpaceOnUse"
       gradientTransform="matrix(0.77744586,0,0,0.77121526,-0.55489171,-1.3761043)"
       x1="11"
       y1="3"
       x2="11"
       y2="20.117243" />
    <linearGradient
       inkscape:collect="always"
       xlink:href="#StandardGradient-6"
       id="linearGradient3741"
       gradientUnits="userSpaceOnUse"
       gradientTransform="matrix(0.77744586,0,0,0.77121526,-20.554892,-1.3761043)"
       x1="11"
       y1="3"
       x2="11"
       y2="20.117243" />
    <clipPath
       clipPathUnits="userSpaceOnUse"
       id="clipPath3748">
      <path
         style="fill:#ff00ff;fill-opacity:1;stroke:none;display:inline"
         d="m -20,0 0,16 16,0 0,-16 -16,0 z M -15.5,1.46875 -12,3.9375 -8.5,1.46875 -5,3.9375 -8.5,6.625 -5,8.96875 -12,14 -19,8.96875 -15.5,6.625 -19,3.9375 -15.5,1.46875 z"
         id="path3750" />
    </clipPath>
    <inkscape:perspective
       id="perspective2966"
       inkscape:persp3d-origin="0.5 : 0.33333333 : 1"
       inkscape:vp_z="1 : 0.5 : 1"
       inkscape:vp_y="0 : 1000 : 0"
       inkscape:vp_x="0 : 0.5 : 1"
       sodipodi:type="inkscape:persp3d" />
    <linearGradient
       inkscape:collect="always"
       xlink:href="#StandardGradient-6"
       id="linearGradient3754"
       x1="3.8554573"
       y1="7.1189685"
       x2="3.8554573"
       y2="15.007722"
       gradientUnits="userSpaceOnUse" />
    <linearGradient
       inkscape:collect="always"
       xlink:href="#StandardGradient-6"
       id="linearGradient3760"
       gradientUnits="userSpaceOnUse"
       x1="3.8554573"
       y1="7.1189685"
       x2="3.8554573"
       y2="15.007722" />
    <linearGradient
       inkscape:collect="always"
       xlink:href="#StandardGradient-6"
       id="linearGradient3765"
       gradientUnits="userSpaceOnUse"
       x1="3.8554573"
       y1="7.1189685"
       x2="3.8554573"
       y2="15.007722"
       gradientTransform="translate(0,1)" />
    <linearGradient
       inkscape:collect="always"
       xlink:href="#StandardGradient-6"
       id="linearGradient3771"
       gradientUnits="userSpaceOnUse"
       x1="3.8554573"
       y1="7.1189685"
       x2="3.8554573"
       y2="15.007722" />
    <linearGradient
       inkscape:collect="always"
       xlink:href="#StandardGradient-6"
       id="linearGradient3773"
       gradientUnits="userSpaceOnUse"
       gradientTransform="translate(0,1)"
       x1="3.8554573"
       y1="7.1189685"
       x2="3.8554573"
       y2="15.007722" />
    <linearGradient
       inkscape:collect="always"
       xlink:href="#StandardGradient-6"
       id="linearGradient3778"
       gradientUnits="userSpaceOnUse"
       x1="3.8554573"
       y1="7.1189685"
       x2="3.8554573"
       y2="15.007722" />
    <linearGradient
       inkscape:collect="always"
       xlink:href="#StandardGradient-6"
       id="linearGradient3790"
       gradientUnits="userSpaceOnUse"
       x1="3.8554573"
       y1="7.1189685"
       x2="3.8554573"
       y2="15.007722"
       gradientTransform="translate(0.01442091,-20.014421)" />
    <linearGradient
       inkscape:collect="always"
       xlink:href="#StandardGradient-6"
       id="linearGradient3796"
       gradientUnits="userSpaceOnUse"
       gradientTransform="translate(-19.985579,-0.014421)"
       x1="3.8554573"
       y1="7.1189685"
       x2="3.8554573"
       y2="15.007722" />
    <linearGradient
       inkscape:collect="always"
       xlink:href="#StandardGradient-6"
       id="linearGradient3798"
       gradientUnits="userSpaceOnUse"
       x1="10.973592"
       y1="1.0816979"
       x2="10.973592"
       y2="8.9478464"
       gradientTransform="translate(-20,0)" />
    <clipPath
       clipPathUnits="userSpaceOnUse"
       id="clipPath3806">
      <path
         style="fill:#ff00ff;fill-opacity:1;stroke:none;display:inline"
         d="m -20,0 0,16 16,0 0,-16 -16,0 z m 14.28125,1 c 0.1826931,0 0.3653865,0.084136 0.5,0.21875 0.269228,0.269228 0.269228,0.730773 0,1 L -8.03125,5 l 0,1.53125 a 0.52760556,0.52613824 0 0 1 -0.15625,0.375 L -10.15625,8.875 a 0.52760556,0.52613824 0 0 1 -0.0625,0.03125 l -2.6875,-2.6875 a 0.52760556,0.52613824 0 0 1 0,-0.03125 0.52760556,0.52613824 0 0 1 0.03125,-0.03125 l 1.96875,-1.96875 a 0.52760556,0.52613824 0 0 1 0.375,-0.15625 l 1.53125,0 2.78125,-2.8125 C -6.084136,1.084136 -5.9014431,1 -5.71875,1 z m -8.125,6.125 a 0.52760556,0.52613824 0 0 1 0.03125,0 l 2.6875,2.6875 a 0.52760556,0.52613824 0 0 1 0,0.03125 0.52760556,0.52613824 0 0 1 -0.03125,0.03125 L -13.125,11.84375 A 0.52760556,0.52613824 0 0 1 -13.5,12 l -1.53125,0 -2.78125,2.8125 c -0.269228,0.269228 -0.730772,0.269228 -1,0 -0.269228,-0.269228 -0.269228,-0.730773 0,-1 L -16,11.03125 -16,9.5 a 0.52760556,0.52613824 0 0 1 0.15625,-0.375 L -13.875,7.15625 A 0.52760556,0.52613824 0 0 1 -13.84375,7.125 z"
         id="path3808" />
    </clipPath>
    <linearGradient
       inkscape:collect="always"
       xlink:href="#StandardGradient-6"
       id="linearGradient3751"
       gradientUnits="userSpaceOnUse"
       gradientTransform="translate(-19.985579,-0.014421)"
       x1="3.8554573"
       y1="7.1189685"
       x2="3.8554573"
       y2="15.007722" />
    <clipPath
       clipPathUnits="userSpaceOnUse"
       id="clipPath3758">
      <path
         style="fill:#ff00ff;fill-opacity:1;stroke:none;display:inline"
         d="m -20,0 0,16 16,0 0,-16 -16,0 z m 6.15625,7.125 a 0.52760556,0.52613824 0 0 1 0.03125,0 l 2.6875,2.6875 a 0.52760556,0.52613824 0 0 1 0,0.03125 0.52760556,0.52613824 0 0 1 -0.03125,0.03125 L -13.125,11.84375 A 0.52760556,0.52613824 0 0 1 -13.5,12 l -1.53125,0 -2.78125,2.8125 c -0.269228,0.269228 -0.730772,0.269228 -1,0 -0.269228,-0.269228 -0.269228,-0.730773 0,-1 L -16,11.03125 -16,9.5 a 0.52760556,0.52613824 0 0 1 0.15625,-0.375 L -13.875,7.15625 A 0.52760556,0.52613824 0 0 1 -13.84375,7.125 z"
         id="path3760" />
    </clipPath>
    <filter
       inkscape:collect="always"
       id="filter3762">
      <feGaussianBlur
         inkscape:collect="always"
         stdDeviation="0.23668612"
         id="feGaussianBlur3764" />
    </filter>
    <inkscape:perspective
       id="perspective2966-1"
       inkscape:persp3d-origin="0.5 : 0.33333333 : 1"
       inkscape:vp_z="1 : 0.5 : 1"
       inkscape:vp_y="0 : 1000 : 0"
       inkscape:vp_x="0 : 0.5 : 1"
       sodipodi:type="inkscape:persp3d" />
    <linearGradient
       id="StandardGradient-1-0"
       gradientTransform="scale(1.1467263,0.8720476)"
       x1="7.1904788"
       y1="6.9551144"
       x2="7.1904788"
       y2="18.319494"
       gradientUnits="userSpaceOnUse">
      <stop
         style="stop-color:#000000;stop-opacity:0.86274511;"
         offset="0"
         id="stop3280-7" />
      <stop
         style="stop-color:#000000;stop-opacity:0.47058824;"
         offset="1"
         id="stop3282-3" />
    </linearGradient>
    <linearGradient
       inkscape:collect="always"
       xlink:href="#StandardGradient-1-0"
       id="linearGradient3735"
       x1="4.1092625"
       y1="7.0497999"
       x2="4.1092625"
       y2="15.834409"
       gradientUnits="userSpaceOnUse" />
    <linearGradient
       id="linearGradient2975"
       gradientTransform="scale(1.1467263,0.8720476)"
       x1="7.1904788"
       y1="6.9551144"
       x2="7.1904788"
       y2="18.319494"
       gradientUnits="userSpaceOnUse">
      <stop
         style="stop-color:#000000;stop-opacity:0.86274511;"
         offset="0"
         id="stop2977" />
      <stop
         style="stop-color:#000000;stop-opacity:0.47058824;"
         offset="1"
         id="stop2979" />
    </linearGradient>
    <clipPath
       clipPathUnits="userSpaceOnUse"
       id="clipPath3784">
      <path
         style="fill:#ff00ff;fill-opacity:1;stroke:none;display:inline"
         d="m -20,0 0,15.1875 c 0,-0.202646 0.09279,-0.405292 0.25,-0.5625 L -17,11.875 -17,10 a 0.63312664,0.63136584 0 0 1 0.1875,-0.4375 l 2.375,-2.375 A 0.63312664,0.63136584 0 0 1 -14.15625,7 0.63312664,0.63136584 0 0 1 -13.5625,7.1875 l 2.375,2.375 a 0.63312664,0.63136584 0 0 1 0,0.875 l -2.375,2.375 A 0.63312664,0.63136584 0 0 1 -14,13 l -1.875,0 -2.75,2.75 C -18.782209,15.90721 -18.984855,16 -19.1875,16 L -4,16 -4,0.78125 c 0,0.20264563 -0.092791,0.4052915 -0.25,0.5625 l -2.75,2.75 0,1.875 a 0.63312664,0.63136584 0 0 1 -0.1875,0.4375 l -2.375,2.375 a 0.63312664,0.63136584 0 0 1 -0.28125,0.1875 0.63312664,0.63136584 0 0 1 -0.59375,-0.1875 l -2.375,-2.375 a 0.63312664,0.63136584 0 0 1 0,-0.875 l 2.375,-2.375 A 0.63312664,0.63136584 0 0 1 -10,2.96875 l 1.875,0 2.75,-2.75 C -5.217791,0.0615405 -5.0151455,0 -4.8125,0 L -20,0 z M -4.8125,0 C -4.6098545,0 -4.407209,0.0615405 -4.25,0.21875 -4.092791,0.375959 -4,0.57860437 -4,0.78125 L -4,0 -4.8125,0 z m -14.375,16 C -19.390145,16 -19.592791,15.90721 -19.75,15.75 -19.907209,15.592791 -20,15.390146 -20,15.1875 l 0,0.8125 0.8125,0 z"
         id="path3786" />
    </clipPath>
    <filter
       color-interpolation-filters="sRGB"
       inkscape:collect="always"
       id="filter3788">
      <feGaussianBlur
         inkscape:collect="always"
         stdDeviation="0.47936162"
         id="feGaussianBlur3790" />
    </filter>
    <linearGradient
       inkscape:collect="always"
       xlink:href="#StandardGradient-1-0"
       id="linearGradient4513"
       gradientUnits="userSpaceOnUse"
       x1="4.1092625"
       y1="7.0497999"
       x2="4.1092625"
       y2="15.834409" />
    <linearGradient
       inkscape:collect="always"
       xlink:href="#StandardGradient-1-0"
       id="linearGradient4517"
       gradientUnits="userSpaceOnUse"
       x1="4.1092625"
       y1="7.0497999"
       x2="4.1092625"
       y2="15.834409" />
  </defs>
  <sodipodi:namedview
     id="base"
     pagecolor="#ffffff"
     bordercolor="#e7e7e7"
     borderopacity="1"
     inkscape:pageopacity="0.0"
     inkscape:pageshadow="2"
     inkscape:zoom="17.269898"
     inkscape:cx="-17.524299"
     inkscape:cy="10.85777"
     inkscape:document-units="px"
     inkscape:current-layer="layer1"
     showgrid="true"
     inkscape:showpageshadow="false"
     showguides="true"
     inkscape:guide-bbox="true"
     inkscape:window-width="1920"
     inkscape:window-height="1029"
     inkscape:window-x="0"
     inkscape:window-y="25"
     inkscape:window-maximized="1"
     inkscape:snap-global="false">
    <sodipodi:guide
       orientation="1,0"
       position="0,112"
       id="guide2383" />
    <sodipodi:guide
       orientation="0,1"
       position="78.156291,0"
       id="guide2389" />
    <inkscape:grid
       type="xygrid"
       id="grid3672"
       visible="true"
       enabled="true" />
    <sodipodi:guide
       orientation="1,0"
       position="22.008699,4.1542523"
       id="guide2950" />
    <sodipodi:guide
       orientation="0,1"
       position="11.22532,22.008699"
       id="guide2952" />
  </sodipodi:namedview>
  <metadata
     id="metadata7">
    <rdf:RDF>
      <cc:Work
         rdf:about="">
        <dc:format>image/svg+xml</dc:format>
        <dc:type
           rdf:resource="http://purl.org/dc/dcmitype/StillImage" />
        <dc:title />
      </cc:Work>
    </rdf:RDF>
  </metadata>
  <g
     inkscape:label="Calque 1"
     inkscape:groupmode="layer"
     id="layer1">
    <path
       style="fill:#ffffff;fill-opacity:1;stroke:none;display:inline;opacity:0.15"
       d="M 5.75 6 C 5.7576777 5.9988956 5.6174055 6.0328447 5.625 6.03125 A 0.99788189 0.99788189 0 0 0 5.53125 6.0625 C 5.5390126 6.0599448 5.4299207 6.0968255 5.4375 6.09375 C 5.4450793 6.0906745 5.3051379 6.1285832 5.3125 6.125 C 5.3198621 6.1214168 5.2116384 6.1915763 5.21875 6.1875 C 5.2258616 6.1834237 5.1181714 6.2545524 5.125 6.25 C 5.1318286 6.2454476 5.0559859 6.3175094 5.0625 6.3125 C 5.0690141 6.3074906 4.9625809 6.3804451 4.96875 6.375 C 4.9749191 6.3695549 4.869205 6.4746073 4.875 6.46875 L 4.84375 6.46875 L 4.8125 6.53125 L 2.5 8.84375 L 2.5 8.875 C 2.4822783 8.8948315 2.368394 8.976673 2.375 8.96875 C 2.3825497 8.9596951 2.2745971 9.1035092 2.28125 9.09375 C 2.2879029 9.0839908 2.1818107 9.2291238 2.1875 9.21875 C 2.1931893 9.2083762 2.1203323 9.3858913 2.125 9.375 C 2.1296677 9.3641087 2.0901521 9.5425556 2.09375 9.53125 C 2.0973479 9.5199444 2.0287594 9.6678614 2.03125 9.65625 C 2.0337406 9.6446386 1.9986429 9.8243051 2 9.8125 C 2.0013571 9.8006949 1.9997907 9.980634 2 9.96875 A 0.99788189 0.99788189 0 0 0 2 10 L 2 11.4375 L -0.46875 13.90625 C -1.1542934 14.591791 -1.1542916 15.783209 -0.46875 16.46875 C 0.21678962 17.154291 1.4082104 17.154291 2.09375 16.46875 L 4.5625 14 L 6 14 A 0.99788189 0.99788189 0 0 0 6.03125 14 C 6.0196255 14.000236 6.1990512 13.998649 6.1875 14 C 6.1759488 14.001351 6.3551253 13.966295 6.34375 13.96875 C 6.3323747 13.971205 6.4798478 13.902711 6.46875 13.90625 C 6.4576522 13.909789 6.6357202 13.870406 6.625 13.875 C 6.6142798 13.879594 6.7914949 13.806888 6.78125 13.8125 C 6.7710051 13.818112 6.9159247 13.712168 6.90625 13.71875 C 6.8965753 13.725332 7.0402637 13.617505 7.03125 13.625 C 7.023363 13.631558 7.136445 13.548898 7.15625 13.53125 L 7.15625 13.5 L 9.53125 11.15625 A 0.99788189 0.99788189 0 0 0 9.53125 11.125 C 9.5231555 11.133399 9.6322684 10.990849 9.625 11 C 9.6177316 11.009151 9.7251214 10.865178 9.71875 10.875 C 9.7123786 10.884822 9.8179114 10.739596 9.8125 10.75 C 9.8070886 10.760404 9.879397 10.61411 9.875 10.625 C 9.870603 10.63589 9.9095879 10.457476 9.90625 10.46875 C 9.9029121 10.480024 9.9709946 10.300948 9.96875 10.3125 C 9.9665054 10.324052 9.9698782 10.144529 9.96875 10.15625 C 9.9676218 10.167971 10 9.9882231 10 10 C 10 10.011777 9.9676218 9.8320295 9.96875 9.84375 C 9.9698782 9.8554705 9.9665054 9.6759477 9.96875 9.6875 C 9.9709946 9.6990523 9.9029121 9.5199757 9.90625 9.53125 C 9.9095879 9.5425243 9.870603 9.36411 9.875 9.375 C 9.879397 9.38589 9.8070886 9.239596 9.8125 9.25 C 9.8179114 9.260404 9.7123786 9.1151777 9.71875 9.125 C 9.7251214 9.1348223 9.6177316 8.9908487 9.625 9 C 9.6322684 9.0091513 9.5231555 8.8666012 9.53125 8.875 A 0.99788189 0.99788189 0 0 0 9.53125 8.84375 L 7.15625 6.5 L 7.15625 6.46875 C 7.1348744 6.4474238 7.0894757 6.4334761 7.09375 6.4375 C 7.0994491 6.4428652 6.9939758 6.3700182 7 6.375 C 7.0060242 6.3799818 6.9311764 6.3079208 6.9375 6.3125 C 6.9438236 6.3170792 6.8371535 6.245841 6.84375 6.25 C 6.8503465 6.254159 6.743158 6.1837769 6.75 6.1875 C 6.756842 6.1912231 6.6491907 6.1217267 6.65625 6.125 C 6.6633093 6.1282733 6.5552521 6.0909387 6.5625 6.09375 C 6.5697479 6.0965613 6.4613428 6.0601609 6.46875 6.0625 C 6.4761572 6.0648391 6.3674632 6.0293916 6.375 6.03125 C 6.3825368 6.0331084 6.2423637 5.998629 6.25 6 C 6.2576363 6.001371 6.1485444 5.9991214 6.15625 6 C 6.1639556 6.0008786 6.0547556 5.9996168 6.0625 6 C 6.0702444 6.0003832 5.9297473 6.0001137 5.9375 6 C 5.9452527 5.9998863 5.8360195 6.0006101 5.84375 6 C 5.8514805 5.9993899 5.7423223 6.0011044 5.75 6 z M 5.84375 7 A 0.63312664 0.63136584 0 0 1 6.4375 7.1875 L 8.8125 9.5625 A 0.63312664 0.63136584 0 0 1 8.8125 10.4375 L 6.4375 12.8125 A 0.63312664 0.63136584 0 0 1 6 13 L 4.125 13 L 1.375 15.75 C 1.0605817 16.064419 0.56441825 16.064419 0.25 15.75 C -0.06441823 15.435582 -0.06441823 14.939417 0.25 14.625 L 3 11.875 L 3 10 A 0.63312664 0.63136584 0 0 1 3.1875 9.5625 L 5.5625 7.1875 A 0.63312664 0.63136584 0 0 1 5.84375 7 z "
       id="path4515" />
    <path
       style="fill:url(#linearGradient3790);fill-opacity:1;stroke:none;display:inline"
       d="m 6.2019209,-12.889421 a 0.52760556,0.52613824 0 0 0 -0.0625,0.03125 l -1.96875,1.96875 a 0.52760556,0.52613824 0 0 0 -0.15625,0.375 l 0,1.53125 -2.8125,2.78125 c -0.26922787,0.269227 -0.26922787,0.730772 0,1 0.2692279,0.269228 0.7307721,0.269228 1,0 l 2.78125,-2.8125 1.53125,0 a 0.52760556,0.52613824 0 0 0 0.375,-0.15625 l 1.96875,-1.96875 a 0.52760556,0.52613824 0 0 0 0.03125,-0.03125 0.52760556,0.52613824 0 0 0 0,-0.03125 l -2.6875,-2.6875 z"
       id="path3691" />
    <path
       sodipodi:nodetypes="ccsccc"
       style="opacity:0.2;fill:#ff0000;fill-opacity:1;stroke:none;display:inline"
       d="m 5.9054043,19.128126 -4.7034834,4.682007 c -0.26922788,0.269227 -0.26922788,0.718718 0,0.987946 0.2692279,0.269228 0.7187184,0.269228 0.9879463,0 L 6.979259,20.008687 C 6.5938706,19.746431 6.2444208,19.445869 5.9054043,19.128126 z"
       id="path2956" />
    <path
       sodipodi:type="inkscape:offset"
       inkscape:radius="0.53389388"
       inkscape:original="M 11 9 L 9 11 L 9 13 L 11 13 L 13 11 L 11 9 z "
       style="opacity:0.2;fill:#ff0000;stroke:none;display:inline"
       id="path2958"
       d="M 10.875,8.46875 A 0.53394727,0.53394727 0 0 0 10.625,8.625 l -2,2 A 0.53394727,0.53394727 0 0 0 8.46875,11 l 0,2 A 0.53394727,0.53394727 0 0 0 9,13.53125 l 2,0 A 0.53394727,0.53394727 0 0 0 11.375,13.375 l 2,-2 a 0.53394727,0.53394727 0 0 0 0,-0.75 l -2,-2 a 0.53394727,0.53394727 0 0 0 -0.5,-0.15625 z"
       transform="matrix(0.98812296,0,0,0.9853749,-4.3681663,8.6666459)" />
    <path
       id="path2971"
       d="m 9.7851254,-11.097392 a 0.52760556,0.52613824 0 0 0 0.0625,-0.03125 l 1.9687496,-1.96875 a 0.52760556,0.52613824 0 0 0 0.15625,-0.375 l 0,-1.53125 2.8125,-2.781251 c 0.269228,-0.269227 0.269228,-0.730772 0,-1 -0.269227,-0.269228 -0.730772,-0.269228 -1,0 l -2.78125,2.812501 -1.5312496,0 a 0.52760556,0.52613824 0 0 0 -0.375,0.15625 l -1.96875,1.96875 a 0.52760556,0.52613824 0 0 0 -0.03125,0.03125 0.52760556,0.52613824 0 0 0 0,0.03125 l 2.6875,2.6875 z"
       style="opacity:0.3;fill:#000000;fill-opacity:1;stroke:none;display:inline" />
    <path
       style="opacity:0.5;fill:#000000;fill-opacity:1;stroke:none;display:inline"
       d="m 6.2019209,-12.889421 a 0.52760556,0.52613824 0 0 0 -0.0625,0.03125 l -1.96875,1.96875 a 0.52760556,0.52613824 0 0 0 -0.15625,0.375 l 0,1 c -3.33e-4,-0.138968 0.057258,-0.277187 0.15625,-0.375 l 1.96875,-1.96875 c 0.02011,-0.01178 0.041005,-0.02223 0.0625,-0.03125 l 2.1875,2.1875 0.46875,-0.4375 a 0.52760556,0.52613824 0 0 0 0.03125,-0.03125 0.52760556,0.52613824 0 0 0 0,-0.03125 l -2.6875,-2.6875 z"
       id="path2965" />
    <path
       style="opacity:0.5;fill:#000000;fill-opacity:1;stroke:none;display:inline"
       d="m 4.0144209,-8.983171 -2.8125,2.78125 c -0.26922787,0.269227 -0.26922787,0.730772 0,1 l 2.8125,-2.78125 0,-1 z"
       id="path3756" />
    <path
       style="opacity:0.3;fill:#ffffff;fill-opacity:1;stroke:none;display:inline"
       d="m 8.3894209,-9.701921 -1.5,1.53125 c -0.097768,0.09863 -0.2359324,0.156194 -0.375,0.15625 l -1.53125,0 -2.78125,2.8125 c -0.2692279,0.269228 -0.7307721,0.269228 -1,0 -0.26922787,0.269227 -0.26922787,0.730772 0,1 0.2692279,0.269228 0.7307721,0.269228 1,0 l 2.78125,-2.8125 1.53125,0 c 0.1390676,-5.6e-5 0.2772321,-0.05762 0.375,-0.15625 l 1.96875,-1.96875 c 0.010849,-0.01 0.021278,-0.0204 0.03125,-0.03125 3.103e-4,-0.01041 3.103e-4,-0.02084 0,-0.03125 l -0.5,-0.5 z"
       id="path3767" />
    <path
       id="path3748"
       d="m -13.798079,7.110579 a 0.52760556,0.52613824 0 0 0 -0.0625,0.03125 l -1.96875,1.96875 a 0.52760556,0.52613824 0 0 0 -0.15625,0.375 l 0,1.53125 -2.8125,2.78125 c -0.269228,0.269227 -0.269228,0.730772 0,1 0.269228,0.269228 0.730772,0.269228 1,0 l 2.78125,-2.8125 1.53125,0 a 0.52760556,0.52613824 0 0 0 0.375,-0.15625 l 1.96875,-1.96875 a 0.52760556,0.52613824 0 0 0 0.03125,-0.03125 0.52760556,0.52613824 0 0 0 0,-0.03125 l -2.6875,-2.6875 z"
       style="opacity:0.3;fill:none;stroke:#ffffff;display:inline;filter:url(#filter3762)"
       clip-path="url(#clipPath3758)"
       transform="translate(20,-20)" />
    <path
       style="fill:url(#linearGradient3735);fill-opacity:1;stroke:none;display:inline"
       d="m 5.84375,6.9999999 a 0.63312664,0.63136584 0 0 0 -0.28125,0.1875 l -2.375,2.375 A 0.63312664,0.63136584 0 0 0 3,10 l 0,1.875 -2.75,2.75 c -0.31441823,0.314417 -0.31441823,0.810582 0,1.125 0.31441825,0.314419 0.8105817,0.314419 1.125,0 L 4.125,13 6,13 a 0.63312664,0.63136584 0 0 0 0.4375,-0.1875 l 2.375,-2.375 a 0.63312664,0.63136584 0 0 0 0,-0.8750001 l -2.375,-2.375 a 0.63312664,0.63136584 0 0 0 -0.59375,-0.1875 z"
       id="path3708" />
    <path
       id="path3713"
       d="m 10.159583,8.9722659 a 0.63312664,0.63136584 0 0 0 0.28125,-0.1875 l 2.375,-2.375 a 0.63312664,0.63136584 0 0 0 0.1875,-0.4375 l 0,-1.875 2.75,-2.7499997 c 0.314418,-0.314417 0.314418,-0.81058195 0,-1.12499995 -0.314418,-0.314419 -0.810582,-0.314419 -1.125,0 l -2.75,2.74999995 -1.875,0 a 0.63312664,0.63136584 0 0 0 -0.4375,0.1874997 l -2.375,2.375 a 0.63312664,0.63136584 0 0 0 0,0.875 l 2.375,2.375 a 0.63312664,0.63136584 0 0 0 0.59375,0.1875 z"
       style="fill:#000000;fill-opacity:1;stroke:none;display:inline;opacity:0.3" />
    <path
       style="opacity:0.5;fill:#000000;fill-opacity:1;stroke:none;display:inline"
       d="M 5.84375,7 C 5.7353462,7.0356835 5.637002,7.1012463 5.5625,7.1875 l -2.375,2.375 C 3.0716445,9.6769269 3.0028631,9.8374168 3,10 l 0,0.90625 c 0.024214,-0.130404 0.090878,-0.252622 0.1875,-0.34375 l 2.375,-2.375 C 5.637002,8.1012463 5.7353462,8.0356835 5.84375,8 6.0561351,7.9554028 6.2895711,8.0291195 6.4375,8.1875 L 8.75,10.5 8.8125,10.4375 c 0.2239116,-0.232328 0.2239116,-0.6426722 0,-0.875 L 6.4375,7.1875 C 6.2895711,7.0291195 6.0561351,6.9554028 5.84375,7 z M 3,11.875 0.25,14.625 C -0.04240895,14.917408 -0.0639717,15.373084 0.1875,15.6875 0.206428,15.66383 0.2279907,15.64701 0.25,15.625 l 2.75,-2.75 0,-1 z"
       id="path3737"
       sodipodi:nodetypes="cccccccscccccccccccc" />
    <path
       style="opacity:0.3;fill:#ffffff;fill-opacity:1;stroke:none;display:inline"
       d="M 8.75,10.5 6.4375,12.8125 C 6.3231288,12.927941 6.1626987,12.996697 6,13 l -1.875,0 -2.75,2.75 C 1.2177909,15.90721 1.0151454,16 0.8125,16 l 1.3125,0 2,-2 L 6,14 c 0.1626987,-0.0033 0.3231288,-0.07206 0.4375,-0.1875 l 2.375,-2.375 c 0.2239116,-0.232328 0.2239116,-0.642672 0,-0.875 L 8.75,10.5 z M 0.8125,16 C 0.60985457,16 0.40720913,15.90721 0.25,15.75 0.2279907,15.72799 0.206428,15.71117 0.1875,15.6875 0.1113189,15.78275 0.0886274,15.887289 0.0625,16 l 0.75,0 z"
       id="path3752"
       sodipodi:nodetypes="ccccccccccccccsscc" />
  </g>
</svg>
