<?xml version="1.0" encoding="UTF-8" standalone="no"?>
<!-- Created with Inkscape (http://www.inkscape.org/) -->

<svg
   xmlns:dc="http://purl.org/dc/elements/1.1/"
   xmlns:cc="http://creativecommons.org/ns#"
   xmlns:rdf="http://www.w3.org/1999/02/22-rdf-syntax-ns#"
   xmlns:svg="http://www.w3.org/2000/svg"
   xmlns="http://www.w3.org/2000/svg"
   xmlns:xlink="http://www.w3.org/1999/xlink"
   xmlns:sodipodi="http://sodipodi.sourceforge.net/DTD/sodipodi-0.dtd"
   xmlns:inkscape="http://www.inkscape.org/namespaces/inkscape"
   width="16"
   height="16"
   id="svg2"
   sodipodi:version="0.32"
   inkscape:version="0.47 r22583"
   version="1.0"
   sodipodi:docname="application-exit.svg"
   inkscape:output_extension="org.inkscape.output.svg.inkscape">
  <defs
     id="defs4">
    <inkscape:perspective
       sodipodi:type="inkscape:persp3d"
       inkscape:vp_x="0 : 8 : 1"
       inkscape:vp_y="0 : 1000 : 0"
       inkscape:vp_z="16 : 8 : 1"
       inkscape:persp3d-origin="8 : 5.3333333 : 1"
       id="perspective33" />
    <linearGradient
       inkscape:collect="always"
       id="linearGradient6658">
      <stop
         style="stop-color:#000000;stop-opacity:1;"
         offset="0"
         id="stop6660" />
      <stop
         style="stop-color:#000000;stop-opacity:0;"
         offset="1"
         id="stop6662" />
    </linearGradient>
    <filter
       inkscape:collect="always"
       id="filter3342"
       x="-0.29411686"
       width="1.5882337"
       y="-0.58931336"
       height="2.1786267">
      <feGaussianBlur
         inkscape:collect="always"
         stdDeviation="2.2029067"
         id="feGaussianBlur3344" />
    </filter>
    <linearGradient
       id="linearGradient3257">
      <stop
         style="stop-color:#a50000;stop-opacity:1;"
         offset="0"
         id="stop3259" />
      <stop
         style="stop-color:#e73800;stop-opacity:1;"
         offset="1"
         id="stop3261" />
    </linearGradient>
    <linearGradient
       inkscape:collect="always"
       xlink:href="#linearGradient3257"
       id="linearGradient2423"
       gradientUnits="userSpaceOnUse"
       gradientTransform="matrix(0.1175834,0,0,0.1175834,30.470873,0.4708749)"
       x1="47.667068"
       y1="121.97153"
       x2="47.667068"
       y2="5.9489675" />
    <linearGradient
       inkscape:collect="always"
       xlink:href="#linearGradient6658"
       id="linearGradient6664"
       x1="8"
       y1="11.935641"
       x2="8"
       y2="-4.2816181"
       gradientUnits="userSpaceOnUse" />
    <inkscape:perspective
       id="perspective3722"
       inkscape:persp3d-origin="0.5 : 0.33333333 : 1"
       inkscape:vp_z="1 : 0.5 : 1"
       inkscape:vp_y="0 : 1000 : 0"
       inkscape:vp_x="0 : 0.5 : 1"
       sodipodi:type="inkscape:persp3d" />
    <linearGradient
       inkscape:collect="always"
       xlink:href="#linearGradient3327"
       id="linearGradient3766"
       gradientUnits="userSpaceOnUse"
       gradientTransform="translate(-0.499722,5.300655)"
       x1="9.0574636"
       y1="10.202822"
       x2="9.0574636"
       y2="-12.198761" />
    <linearGradient
       inkscape:collect="always"
       id="linearGradient3327">
      <stop
         style="stop-color:#000000;stop-opacity:1;"
         offset="0"
         id="stop3330" />
      <stop
         style="stop-color:#000000;stop-opacity:0;"
         offset="1"
         id="stop3333" />
    </linearGradient>
    <linearGradient
       inkscape:collect="always"
       xlink:href="#linearGradient3614-8"
       id="linearGradient3759"
       gradientUnits="userSpaceOnUse"
       gradientTransform="translate(-17,-2)"
       x1="1"
       y1="9"
       x2="15"
       y2="9" />
    <linearGradient
       id="linearGradient3614-8">
      <stop
         id="stop3616-4"
         offset="0"
         style="stop-color:#65a31b;stop-opacity:1;" />
      <stop
         id="stop3618-3"
         offset="1"
         style="stop-color:#a0de42;stop-opacity:1;" />
    </linearGradient>
    <linearGradient
       y2="9"
       x2="15"
       y1="9"
       x1="1"
       gradientTransform="translate(-17,-2)"
       gradientUnits="userSpaceOnUse"
       id="linearGradient3737"
       xlink:href="#linearGradient3257"
       inkscape:collect="always" />
  </defs>
  <sodipodi:namedview
     id="base"
     pagecolor="#ffffff"
     bordercolor="#e7e7e7"
     borderopacity="1"
     inkscape:pageopacity="0.0"
     inkscape:pageshadow="2"
     inkscape:zoom="22.627417"
     inkscape:cx="-5.8918104"
     inkscape:cy="5.8448415"
     inkscape:document-units="px"
     inkscape:current-layer="layer1"
     showgrid="true"
     inkscape:showpageshadow="false"
     showguides="true"
     inkscape:guide-bbox="true"
     inkscape:window-width="1920"
     inkscape:window-height="1027"
     inkscape:window-x="0"
     inkscape:window-y="25"
     inkscape:window-maximized="1">
    <sodipodi:guide
       orientation="1,0"
       position="0,112"
       id="guide2383" />
    <sodipodi:guide
       orientation="0,1"
       position="26.278146,128"
       id="guide2385" />
    <sodipodi:guide
       orientation="1,0"
       position="128,54.082119"
       id="guide2387" />
    <sodipodi:guide
       orientation="0,1"
       position="78.156291,0"
       id="guide2389" />
    <sodipodi:guide
       orientation="0,1"
       position="60.863576,64.084768"
       id="guide2391" />
    <inkscape:grid
       type="xygrid"
       id="grid3672"
       visible="true"
       enabled="true" />
  </sodipodi:namedview>
  <metadata
     id="metadata7">
    <rdf:RDF>
      <cc:Work
         rdf:about="">
        <dc:format>image/svg+xml</dc:format>
        <dc:type
           rdf:resource="http://purl.org/dc/dcmitype/StillImage" />
      </cc:Work>
    </rdf:RDF>
  </metadata>
  <g
     inkscape:label="Button"
     inkscape:groupmode="layer"
     id="layer1">
    <rect
       style="fill:url(#linearGradient2423);fill-opacity:1;stroke:none"
       id="rect2479"
       width="14"
       height="14"
       x="31"
       y="1"
       rx="2"
       ry="2" />
    <rect
       ry="2"
       rx="2"
       y="0"
       x="-16"
       height="16"
       width="16"
       id="rect3196"
       style="fill:url(#linearGradient3737);fill-opacity:1.0;fill-rule:nonzero;stroke:none;display:inline"
       transform="matrix(0,-1,1,0,0,0)" />
    <path
       style="opacity:0.35;fill:url(#linearGradient3766);fill-opacity:1;fill-rule:nonzero;stroke:none;display:inline"
       d="M 2,0 C 0.892,0 0,0.892 0,2 l 0,12 c 0,1.108 0.892,2 2,2 l 12,0 c 1.108,0 2,-0.892 2,-2 L 16,2 C 16,0.892 15.108,0 14,0 L 2,0 z m 0.5,1 11,0 C 14.331,1 15,1.669 15,2.5 l 0,11 c 0,0.831 -0.669,1.5 -1.5,1.5 l -11,0 C 1.669,15 1,14.331 1,13.5 L 1,2.5 C 1,1.669 1.669,1 2.5,1 z"
       id="rect2410" />
    <path
       style="opacity:0.3;fill:#ffffff;fill-opacity:1;stroke:none;display:inline"
       d="M 2.5,1 C 1.669,1 1,1.669 1,2.5 l 0,1 C 1,2.669 1.669,2 2.5,2 l 11,0 C 14.331,2 15,2.669 15,3.5 l 0,-1 C 15,1.669 14.331,1 13.5,1 l -11,0 z"
       id="rect3770" />
  </g>
  <g
     inkscape:groupmode="layer"
     id="layer5"
     inkscape:label="Symbol"
     sodipodi:insensitive="true">
    <path
       id="path2655"
       d="M 10.423077,4.0000002 8,6.4230769 5.5769232,4.0000002 3.5,6.076923 5.9230768,8.5 3.5,10.923077 5.5769232,13 8,10.576923 10.423077,13 12.5,10.923077 10.076923,8.5 12.5,6.076923 10.423077,4.0000002 z"
       style="opacity:0.6;fill:#000000;fill-opacity:1;stroke:none;display:inline" />
    <path
       style="fill:#ffffff;fill-opacity:1;stroke:none;display:inline"
       d="M 10.423077,3.5000002 8,5.9230769 5.5769232,3.5000002 3.5,5.576923 5.9230768,8 3.5,10.423077 5.5769232,12.5 8,10.076923 10.423077,12.5 12.5,10.423077 10.076923,8 12.5,5.576923 10.423077,3.5000002 z"
       id="rect2498" />
  </g>
</svg>
