<?xml version="1.0" encoding="UTF-8" standalone="no"?>
<!-- Created with Inkscape (http://www.inkscape.org/) -->

<svg
   xmlns:dc="http://purl.org/dc/elements/1.1/"
   xmlns:cc="http://creativecommons.org/ns#"
   xmlns:rdf="http://www.w3.org/1999/02/22-rdf-syntax-ns#"
   xmlns:svg="http://www.w3.org/2000/svg"
   xmlns="http://www.w3.org/2000/svg"
   xmlns:xlink="http://www.w3.org/1999/xlink"
   xmlns:sodipodi="http://sodipodi.sourceforge.net/DTD/sodipodi-0.dtd"
   xmlns:inkscape="http://www.inkscape.org/namespaces/inkscape"
   width="16"
   height="16"
   id="svg2"
   sodipodi:version="0.32"
   inkscape:version="0.48.0 r9654"
   version="1.0"
   sodipodi:docname="document-new.svg"
   inkscape:output_extension="org.inkscape.output.svg.inkscape"
   inkscape:export-filename="/home/matt/.icons/Sirocco/scalable/mimetypes/text-plain.png"
   inkscape:export-xdpi="90"
   inkscape:export-ydpi="90"
   sodipodi:modified="true"
   style="display:inline">
  <sodipodi:namedview
     id="base"
     pagecolor="#ffffff"
     bordercolor="#666666"
     borderopacity="1.0"
     inkscape:pageopacity="0.0"
     inkscape:pageshadow="2"
     inkscape:zoom="17.578558"
     inkscape:cx="-13.733887"
     inkscape:cy="1.9123241"
     inkscape:document-units="px"
     inkscape:current-layer="layer1"
     width="128px"
     height="128px"
     inkscape:showpageshadow="false"
     inkscape:window-width="1920"
     inkscape:window-height="1029"
     inkscape:window-x="0"
     inkscape:window-y="25"
     showguides="true"
     inkscape:guide-bbox="true"
     showgrid="true"
     inkscape:window-maximized="1">
    <sodipodi:guide
       id="guide2226"
       position="32.637397,117.99844"
       orientation="horizontal" />
    <sodipodi:guide
       id="guide2230"
       position="110,57.402344"
       orientation="vertical" />
    <sodipodi:guide
       id="guide2232"
       position="33.760911"
       orientation="horizontal" />
    <sodipodi:guide
       id="guide2231"
       position="46.774696"
       orientation="horizontal" />
    <inkscape:grid
       enabled="true"
       visible="true"
       id="grid3231"
       type="xygrid" />
    <sodipodi:guide
       orientation="1,0"
       position="100,67.625"
       id="guide2713" />
  </sodipodi:namedview>
  <defs
     id="defs4">
    <inkscape:perspective
       sodipodi:type="inkscape:persp3d"
       inkscape:vp_x="0 : 11 : 1"
       inkscape:vp_y="0 : 1000 : 0"
       inkscape:vp_z="22 : 11 : 1"
       inkscape:persp3d-origin="11 : 7.3333333 : 1"
       id="perspective19" />
    <linearGradient
       id="StandardGradient"
       gradientTransform="scale(0.9219544,1.0846523)"
       x1="11.998966"
       y1="0.92195445"
       x2="11.998966"
       y2="19.387045"
       gradientUnits="userSpaceOnUse">
      <stop
         style="stop-color:#000000;stop-opacity:0.86274511;"
         offset="0"
         id="stop3283" />
      <stop
         style="stop-color:#000000;stop-opacity:0.47058824;"
         offset="1"
         id="stop2651" />
    </linearGradient>
    <linearGradient
       inkscape:collect="always"
       xlink:href="#StandardGradient"
       id="linearGradient2549"
       gradientUnits="userSpaceOnUse"
       gradientTransform="matrix(0.9247229,0,0,1.0872097,-2.0600562,0.9976422)"
       x1="11.998966"
       y1="0.92195445"
       x2="11.998966"
       y2="17.478098" />
    <linearGradient
       inkscape:collect="always"
       xlink:href="#StandardGradient"
       id="linearGradient2418"
       gradientUnits="userSpaceOnUse"
       gradientTransform="matrix(0.9247229,0,0,1.0872097,-4.0600562,-3.0023583)"
       x1="11.998966"
       y1="0.92195445"
       x2="11.998966"
       y2="17.478098" />
    <linearGradient
       inkscape:collect="always"
       xlink:href="#StandardGradient"
       id="linearGradient2422"
       gradientUnits="userSpaceOnUse"
       gradientTransform="matrix(0.9247229,0,0,1.0872097,-5.0600562,-1.0023583)"
       x1="11.998966"
       y1="0.92195445"
       x2="11.998966"
       y2="17.478098" />
    <linearGradient
       inkscape:collect="always"
       xlink:href="#StandardGradient"
       id="linearGradient2403"
       gradientUnits="userSpaceOnUse"
       gradientTransform="matrix(0.9247229,0,0,1.0872097,-4.0600562,-3.0023583)"
       x1="11.998966"
       y1="0.92195445"
       x2="11.998966"
       y2="17.478098" />
    <linearGradient
       inkscape:collect="always"
       xlink:href="#StandardGradient"
       id="linearGradient2406"
       gradientUnits="userSpaceOnUse"
       gradientTransform="matrix(0.9247229,0,0,1.0872097,-4.0600562,-3.0023583)"
       x1="11.998966"
       y1="0.92195445"
       x2="11.998966"
       y2="17.478098" />
    <linearGradient
       inkscape:collect="always"
       xlink:href="#StandardGradient"
       id="linearGradient2409"
       gradientUnits="userSpaceOnUse"
       gradientTransform="matrix(0.9247229,0,0,1.0872097,-5.0600562,-3.0023583)"
       x1="11.998966"
       y1="3.6800685"
       x2="11.998966"
       y2="15.638639" />
    <linearGradient
       inkscape:collect="always"
       xlink:href="#StandardGradient"
       id="linearGradient2407"
       gradientUnits="userSpaceOnUse"
       gradientTransform="matrix(0.9247229,0,0,1.0872097,-6.0600562,-2.0023583)"
       x1="11.998966"
       y1="3.6800685"
       x2="11.998966"
       y2="15.638639" />
    <inkscape:perspective
       id="perspective3648"
       inkscape:persp3d-origin="0.5 : 0.33333333 : 1"
       inkscape:vp_z="1 : 0.5 : 1"
       inkscape:vp_y="0 : 1000 : 0"
       inkscape:vp_x="0 : 0.5 : 1"
       sodipodi:type="inkscape:persp3d" />
    <linearGradient
       inkscape:collect="always"
       xlink:href="#StandardGradient"
       id="linearGradient3634"
       gradientUnits="userSpaceOnUse"
       gradientTransform="matrix(0.9247229,0,0,1.0872097,-26.060056,-2.0023583)"
       x1="11.998966"
       y1="3.6800685"
       x2="11.998966"
       y2="15.638639" />
    <clipPath
       clipPathUnits="userSpaceOnUse"
       id="clipPath3641">
      <path
         style="fill:#ff00ff;fill-opacity:1;stroke:none;display:inline"
         d="m -20,0 0,16 16,0 0,-16 -16,0 z m 4.5,1 7,0 C -7.669,1 -7,1.669 -7,2.5 l 0,9 c 0,0.831 -0.669,1.5 -1.5,1.5 l -3.5,0 0,-2 2.5,0 c 0.277,0 0.5,-0.223 0.5,-0.5 l 0,-7 C -9,3.223 -9.223,3 -9.5,3 l -5,0 C -14.777,3 -15,3.223 -15,3.5 l 0,4.5 -2,0 0,-5.5 C -17,1.669 -16.331,1 -15.5,1 z m -1.5,8 2,0 0,2 2,0 0,2 -2,0 0,2 -2,0 0,-2 -2,0 0,-2 2,0 0,-2 z"
         id="path3643" />
    </clipPath>
    <filter
       inkscape:collect="always"
       id="filter3645">
      <feGaussianBlur
         inkscape:collect="always"
         stdDeviation="0.39"
         id="feGaussianBlur3647" />
    </filter>
    <linearGradient
       inkscape:collect="always"
       xlink:href="#StandardGradient"
       id="linearGradient3955"
       gradientUnits="userSpaceOnUse"
       gradientTransform="matrix(0.9247229,0,0,1.0872097,-6.0600562,-2.0023583)"
       x1="11.998966"
       y1="3.6800685"
       x2="11.998966"
       y2="15.638639" />
    <linearGradient
       inkscape:collect="always"
       xlink:href="#StandardGradient"
       id="linearGradient3959"
       gradientUnits="userSpaceOnUse"
       gradientTransform="matrix(0.9247229,0,0,1.0872097,-6.0600562,-2.0023583)"
       x1="11.998966"
       y1="3.6800685"
       x2="11.998966"
       y2="15.638639" />
  </defs>
  <metadata
     id="metadata7">
    <rdf:RDF>
      <cc:Work
         rdf:about="">
        <dc:format>image/svg+xml</dc:format>
        <dc:type
           rdf:resource="http://purl.org/dc/dcmitype/StillImage" />
      </cc:Work>
    </rdf:RDF>
  </metadata>
  <g
     style="display:inline"
     inkscape:label="Calque 1"
     id="layer1"
     inkscape:groupmode="layer">
    <path
       style="fill:#ffffff;fill-opacity:1;stroke:none;display:inline;opacity:0.15"
       d="M 4.5 0.03125 C 3.1463819 0.03125 2.03125 1.1463819 2.03125 2.5 L 2.03125 8 A 0.97385434 0.97385434 0 0 0 2.15625 8.5 A 0.97385434 0.97385434 0 0 0 2.03125 9 L 2.03125 10.03125 L 1 10.03125 A 0.97385434 0.97385434 0 0 0 0.03125 11 L 0.03125 13 A 0.97385434 0.97385434 0 0 0 1 13.96875 L 2.03125 13.96875 L 2.03125 15 A 0.97385434 0.97385434 0 0 0 3 15.96875 L 5 15.96875 A 0.97385434 0.97385434 0 0 0 5.96875 15 L 5.96875 13.96875 L 7 13.96875 A 0.97385434 0.97385434 0 0 0 7.46875 13.84375 A 0.97385434 0.97385434 0 0 0 7.5 13.84375 A 0.97385434 0.97385434 0 0 0 8 13.96875 L 11.5 13.96875 C 12.853618 13.96875 13.96875 12.853618 13.96875 11.5 L 13.96875 2.5 C 13.96875 1.1463819 12.853618 0.03125 11.5 0.03125 L 4.5 0.03125 z M 4.5 1 L 11.5 1 C 12.331 1 13 1.669 13 2.5 L 13 11.5 C 13 12.331 12.331 13 11.5 13 L 8 13 L 8 11 L 10.5 11 C 10.777 11 11 10.777 11 10.5 L 11 3.5 C 11 3.223 10.777 3 10.5 3 L 5.5 3 C 5.223 3 5 3.223 5 3.5 L 5 8 L 3 8 L 3 2.5 C 3 1.669 3.669 1 4.5 1 z M 5.96875 3.96875 L 10.03125 3.96875 L 10.03125 10.03125 L 8 10.03125 A 0.97385434 0.97385434 0 0 0 7.5 10.15625 A 0.97385434 0.97385434 0 0 0 7 10.03125 L 5.96875 10.03125 L 5.96875 9 A 0.97385434 0.97385434 0 0 0 5.84375 8.53125 A 0.97385434 0.97385434 0 0 0 5.84375 8.5 A 0.97385434 0.97385434 0 0 0 5.96875 8 L 5.96875 3.96875 z M 3 9 L 5 9 L 5 11 L 7 11 L 7 13 L 5 13 L 5 15 L 3 15 L 3 13 L 1 13 L 1 11 L 3 11 L 3 9 z "
       id="path3957" />
    <path
       style="fill:url(#linearGradient2407);fill-opacity:1;stroke:none;stroke-width:1.00000024;stroke-linecap:round;stroke-linejoin:miter;stroke-miterlimit:4;stroke-dasharray:none;stroke-opacity:1;display:inline"
       d="M 4.5,1 C 3.669,1 3,1.669 3,2.5 L 3,8 L 5,8 L 5,3.5 C 5,3.223 5.223,3 5.5,3 L 10.5,3 C 10.777,3 11,3.223 11,3.5 L 11,10.5 C 11,10.777 10.777,11 10.5,11 L 8,11 L 8,13 L 11.5,13 C 12.331,13 13,12.331 13,11.5 L 13,2.5 C 13,1.669 12.331,1 11.5,1 L 4.5,1 z M 3,9 L 3,11 L 1,11 L 1,13 L 3,13 L 3,15 L 5,15 L 5,13 L 7,13 L 7,11 L 5,11 L 5,9 L 3,9 z"
       id="Symbol" />
    <path
       style="opacity:0.5;fill:#000000;fill-opacity:1;stroke:none;stroke-width:1.00000024;stroke-linecap:round;stroke-linejoin:miter;stroke-miterlimit:4;stroke-dasharray:none;stroke-opacity:1;display:inline"
       d="M 4.5,1 C 3.669,1 3,1.669 3,2.5 L 3,3.5 C 3,2.669 3.669,2 4.5,2 L 11.5,2 C 12.331,2 13,2.669 13,3.5 L 13,2.5 C 13,1.669 12.331,1 11.5,1 L 4.5,1 z M 3,9 L 3,10 L 5,10 L 5,9 L 3,9 z M 11,10.5 C 11,10.777 10.777,11 10.5,11 L 8,11 L 8,12 L 10.5,12 C 10.777,12 11,11.777 11,11.5 L 11,10.5 z M 1,11 L 1,12 L 3,12 L 3,11 L 1,11 z M 5,11 L 5,12 L 7,12 L 7,11 L 5,11 z"
       id="BevelShadow"
       sodipodi:nodetypes="ccccccccccccccccccccccccccccccc" />
    <path
       style="opacity:0.3;fill:#ffffff;fill-opacity:1;stroke:none;stroke-width:1.00000024000000010;stroke-linecap:round;stroke-linejoin:miter;stroke-miterlimit:4;stroke-dasharray:none;stroke-opacity:1;display:inline"
       d="M 5.5,3 C 5.223,3 5,3.223 5,3.5 L 5,4.5 C 5,4.223 5.223,4 5.5,4 L 10.5,4 C 10.777,4 11,4.223 11,4.5 L 11,3.5 C 11,3.223 10.777,3 10.5,3 L 5.5,3 z M 3,8 L 3,9 L 5,9 L 5,8 L 3,8 z M 13,11.5 C 13,12.331 12.331,13 11.5,13 L 8,13 L 8,14 L 11.5,14 C 12.331,14 13,13.331 13,12.5 L 13,11.5 z M 1,13 L 1,14 L 3,14 L 3,13 L 1,13 z M 5,13 L 5,14 L 7,14 L 7,13 L 5,13 z M 3,15 L 3,16 L 5,16 L 5,15 L 3,15 z"
       id="BevelHighlight"
       sodipodi:nodetypes="cccccccccccccccccccccccccccccccccccc" />
  </g>
</svg>
