<?xml version="1.0" encoding="UTF-8" standalone="no"?>
<!-- Created with Inkscape (http://www.inkscape.org/) -->

<svg
   xmlns:dc="http://purl.org/dc/elements/1.1/"
   xmlns:cc="http://creativecommons.org/ns#"
   xmlns:rdf="http://www.w3.org/1999/02/22-rdf-syntax-ns#"
   xmlns:svg="http://www.w3.org/2000/svg"
   xmlns="http://www.w3.org/2000/svg"
   xmlns:xlink="http://www.w3.org/1999/xlink"
   xmlns:sodipodi="http://sodipodi.sourceforge.net/DTD/sodipodi-0.dtd"
   xmlns:inkscape="http://www.inkscape.org/namespaces/inkscape"
   width="16"
   height="16"
   id="svg2"
   sodipodi:version="0.32"
   inkscape:version="0.48.0 r9654"
   version="1.0"
   sodipodi:docname="document-properties.svg"
   inkscape:output_extension="org.inkscape.output.svg.inkscape"
   inkscape:export-filename="/home/matt/.icons/Sirocco/scalable/mimetypes/text-plain.png"
   inkscape:export-xdpi="90"
   inkscape:export-ydpi="90"
   sodipodi:modified="true"
   style="display:inline">
  <sodipodi:namedview
     id="base"
     pagecolor="#ffffff"
     bordercolor="#666666"
     borderopacity="1.0"
     inkscape:pageopacity="0.0"
     inkscape:pageshadow="2"
     inkscape:zoom="23.322286"
     inkscape:cx="4.2513354"
     inkscape:cy="4.7986582"
     inkscape:document-units="px"
     inkscape:current-layer="layer1"
     width="128px"
     height="128px"
     inkscape:showpageshadow="false"
     inkscape:window-width="1920"
     inkscape:window-height="1029"
     inkscape:window-x="0"
     inkscape:window-y="25"
     showguides="true"
     inkscape:guide-bbox="true"
     showgrid="true"
     inkscape:window-maximized="1"
     inkscape:snap-global="true">
    <sodipodi:guide
       id="guide2226"
       position="32.637397,117.99844"
       orientation="horizontal" />
    <sodipodi:guide
       id="guide2230"
       position="110,57.402344"
       orientation="vertical" />
    <sodipodi:guide
       id="guide2232"
       position="33.760911"
       orientation="horizontal" />
    <sodipodi:guide
       id="guide2231"
       position="46.774696"
       orientation="horizontal" />
    <inkscape:grid
       enabled="true"
       visible="true"
       id="grid3231"
       type="xygrid" />
    <sodipodi:guide
       orientation="1,0"
       position="100,67.625"
       id="guide2713" />
  </sodipodi:namedview>
  <defs
     id="defs4">
    <inkscape:perspective
       sodipodi:type="inkscape:persp3d"
       inkscape:vp_x="0 : 11 : 1"
       inkscape:vp_y="0 : 1000 : 0"
       inkscape:vp_z="22 : 11 : 1"
       inkscape:persp3d-origin="11 : 7.3333333 : 1"
       id="perspective19" />
    <linearGradient
       id="StandardGradient"
       gradientTransform="scale(0.9219544,1.0846523)"
       x1="11.998966"
       y1="0.92195445"
       x2="11.998966"
       y2="19.387045"
       gradientUnits="userSpaceOnUse">
      <stop
         style="stop-color:#000000;stop-opacity:0.86274511;"
         offset="0"
         id="stop3283" />
      <stop
         style="stop-color:#000000;stop-opacity:0.47058824;"
         offset="1"
         id="stop2651" />
    </linearGradient>
    <linearGradient
       inkscape:collect="always"
       xlink:href="#StandardGradient"
       id="linearGradient2549"
       gradientUnits="userSpaceOnUse"
       gradientTransform="matrix(0.9247229,0,0,1.0872097,-2.0600562,0.9976422)"
       x1="11.998966"
       y1="0.92195445"
       x2="11.998966"
       y2="17.478098" />
    <linearGradient
       inkscape:collect="always"
       xlink:href="#StandardGradient"
       id="linearGradient2418"
       gradientUnits="userSpaceOnUse"
       gradientTransform="matrix(0.9247229,0,0,1.0872097,-4.0600562,-3.0023583)"
       x1="11.998966"
       y1="0.92195445"
       x2="11.998966"
       y2="17.478098" />
    <linearGradient
       inkscape:collect="always"
       xlink:href="#StandardGradient"
       id="linearGradient2422"
       gradientUnits="userSpaceOnUse"
       gradientTransform="matrix(0.9247229,0,0,1.0872097,-5.0600562,-1.0023583)"
       x1="11.998966"
       y1="0.92195445"
       x2="11.998966"
       y2="17.478098" />
    <linearGradient
       inkscape:collect="always"
       xlink:href="#StandardGradient"
       id="linearGradient2403"
       gradientUnits="userSpaceOnUse"
       gradientTransform="matrix(0.9247229,0,0,1.0872097,-4.0600562,-3.0023583)"
       x1="11.998966"
       y1="0.92195445"
       x2="11.998966"
       y2="17.478098" />
    <linearGradient
       inkscape:collect="always"
       xlink:href="#StandardGradient"
       id="linearGradient2406"
       gradientUnits="userSpaceOnUse"
       gradientTransform="matrix(0.9247229,0,0,1.0872097,-4.0600562,-3.0023583)"
       x1="11.998966"
       y1="0.92195445"
       x2="11.998966"
       y2="17.478098" />
    <linearGradient
       inkscape:collect="always"
       xlink:href="#StandardGradient"
       id="linearGradient2409"
       gradientUnits="userSpaceOnUse"
       gradientTransform="matrix(0.9247229,0,0,1.0872097,-5.0600562,-3.0023583)"
       x1="11.998966"
       y1="3.6800685"
       x2="11.998966"
       y2="15.638639" />
    <linearGradient
       inkscape:collect="always"
       xlink:href="#StandardGradient"
       id="linearGradient2407"
       gradientUnits="userSpaceOnUse"
       gradientTransform="matrix(0.9247229,0,0,1.0872097,-6.0600562,-2.0023583)"
       x1="11.998966"
       y1="3.6800685"
       x2="11.998966"
       y2="15.638639" />
    <inkscape:perspective
       id="perspective3648"
       inkscape:persp3d-origin="0.5 : 0.33333333 : 1"
       inkscape:vp_z="1 : 0.5 : 1"
       inkscape:vp_y="0 : 1000 : 0"
       inkscape:vp_x="0 : 0.5 : 1"
       sodipodi:type="inkscape:persp3d" />
    <linearGradient
       inkscape:collect="always"
       xlink:href="#StandardGradient"
       id="linearGradient3634"
       gradientUnits="userSpaceOnUse"
       gradientTransform="matrix(0.9247229,0,0,1.0872097,-26.060056,-2.0023583)"
       x1="11.998966"
       y1="3.6800685"
       x2="11.998966"
       y2="15.638639" />
    <clipPath
       clipPathUnits="userSpaceOnUse"
       id="clipPath3641">
      <path
         style="fill:#ff00ff;fill-opacity:1;stroke:none;display:inline"
         d="m -20,0 0,16 16,0 0,-16 -16,0 z m 4.5,1 7,0 C -7.669,1 -7,1.669 -7,2.5 l 0,9 c 0,0.831 -0.669,1.5 -1.5,1.5 l -3.5,0 0,-2 2.5,0 c 0.277,0 0.5,-0.223 0.5,-0.5 l 0,-7 C -9,3.223 -9.223,3 -9.5,3 l -5,0 C -14.777,3 -15,3.223 -15,3.5 l 0,4.5 -2,0 0,-5.5 C -17,1.669 -16.331,1 -15.5,1 z m -1.5,8 2,0 0,2 2,0 0,2 -2,0 0,2 -2,0 0,-2 -2,0 0,-2 2,0 0,-2 z"
         id="path3643" />
    </clipPath>
    <linearGradient
       inkscape:collect="always"
       xlink:href="#StandardGradient"
       id="linearGradient2855"
       gradientUnits="userSpaceOnUse"
       gradientTransform="matrix(0.9247229,0,0,-1.0872097,-6.0600562,16.002358)"
       x1="11.998966"
       y1="3.6800685"
       x2="11.998966"
       y2="15.638639" />
    <linearGradient
       inkscape:collect="always"
       xlink:href="#StandardGradient"
       id="linearGradient2858"
       gradientUnits="userSpaceOnUse"
       gradientTransform="matrix(0.9247229,0,0,1.0872097,-6.0600562,-2.0023583)"
       x1="11.998966"
       y1="3.6800685"
       x2="11.998966"
       y2="15.638639" />
    <linearGradient
       inkscape:collect="always"
       xlink:href="#StandardGradient"
       id="linearGradient2861"
       gradientUnits="userSpaceOnUse"
       gradientTransform="matrix(0.9247229,0,0,1.0872097,-7.0600562,-2.0023583)"
       x1="11.998966"
       y1="3.6800685"
       x2="11.998966"
       y2="15.638639" />
    <linearGradient
       inkscape:collect="always"
       xlink:href="#StandardGradient"
       id="linearGradient2878"
       gradientUnits="userSpaceOnUse"
       gradientTransform="matrix(0.9247229,0,0,1.0872097,-7.0600562,-2.0023583)"
       x1="11.998966"
       y1="3.6800685"
       x2="11.998966"
       y2="15.638639" />
    <linearGradient
       inkscape:collect="always"
       xlink:href="#StandardGradient"
       id="linearGradient2882"
       gradientUnits="userSpaceOnUse"
       gradientTransform="matrix(0.9247229,0,0,1.0872097,-7.0600562,-2.0023583)"
       x1="11.998966"
       y1="3.6800685"
       x2="11.998966"
       y2="15.638639" />
    <linearGradient
       inkscape:collect="always"
       xlink:href="#StandardGradient"
       id="linearGradient2885"
       gradientUnits="userSpaceOnUse"
       gradientTransform="matrix(0.9247229,0,0,1.0872097,-7.0600562,-2.0023583)"
       x1="11.998966"
       y1="2.8287227"
       x2="11.998966"
       y2="15.638639" />
    <linearGradient
       inkscape:collect="always"
       xlink:href="#StandardGradient"
       id="linearGradient2891"
       gradientUnits="userSpaceOnUse"
       gradientTransform="matrix(0.9247229,0,0,1.0872097,-7.0600562,-1.0023583)"
       x1="11.998966"
       y1="2.8287227"
       x2="11.998966"
       y2="15.638639" />
    <linearGradient
       inkscape:collect="always"
       xlink:href="#StandardGradient"
       id="linearGradient2893"
       gradientUnits="userSpaceOnUse"
       gradientTransform="matrix(0.9247229,0,0,1.0872097,-7.0600562,-2.0023583)"
       x1="11.998966"
       y1="2.8287227"
       x2="11.998966"
       y2="15.638639" />
    <linearGradient
       inkscape:collect="always"
       xlink:href="#StandardGradient"
       id="linearGradient3670"
       gradientUnits="userSpaceOnUse"
       gradientTransform="matrix(0.9247229,0,0,1.0872097,-7.0600562,-1.0023583)"
       x1="11.998966"
       y1="2.8287227"
       x2="11.998966"
       y2="15.638639" />
    <linearGradient
       inkscape:collect="always"
       xlink:href="#StandardGradient"
       id="linearGradient3674"
       gradientUnits="userSpaceOnUse"
       gradientTransform="matrix(0.9247229,0,0,1.0872097,-7.0600562,-2.0023583)"
       x1="11.998966"
       y1="2.8287227"
       x2="11.998966"
       y2="15.638639" />
    <linearGradient
       inkscape:collect="always"
       xlink:href="#StandardGradient"
       id="linearGradient3679"
       gradientUnits="userSpaceOnUse"
       gradientTransform="matrix(0.9247229,0,0,1.0872097,-27.060056,-2.0023583)"
       x1="11.998966"
       y1="2.8287227"
       x2="11.998966"
       y2="15.638639" />
    <clipPath
       clipPathUnits="userSpaceOnUse"
       id="clipPath3686">
      <path
         style="fill:#ff00ff;fill-opacity:1;stroke:none;display:inline"
         d="m -20,0 0,16 16,0 0,-16 -16,0 z m 3.5,1 0.5,0 0,11.5 c 0,0.277 0.223,0.5 0.5,0.5 l 7,0 2.5,0 0,0.5 c 0,0.727125 -0.502744,1.329338 -1.1875,1.46875 C -7.285322,14.98867 -7.396125,15 -7.5,15 l -9,0 c -0.831,0 -1.5,-0.669 -1.5,-1.5 l 0,-11 C -18,1.669 -17.331,1 -16.5,1 z m 1.5,0 9,11 -9,0 0,-11 z M -13.71875,1 -7.5,1 C -6.669,1 -6,1.669 -6,2.5 L -6,10.40625 -8,7.96875 -8,3.5 C -8,3.223 -8.223,3 -8.5,3 l -3.5625,0 -1.65625,-2 z M -13,6.5 l 0,3.5 3,0 -3,-3.5 z"
         id="path3688" />
    </clipPath>
    <linearGradient
       inkscape:collect="always"
       xlink:href="#StandardGradient"
       id="linearGradient2874"
       gradientUnits="userSpaceOnUse"
       gradientTransform="matrix(0.9247229,0,0,-1.0872097,-7.0600562,18.002358)"
       x1="11.998966"
       y1="2.8287227"
       x2="11.998966"
       y2="15.638639" />
    <linearGradient
       inkscape:collect="always"
       xlink:href="#StandardGradient"
       id="linearGradient2879"
       gradientUnits="userSpaceOnUse"
       gradientTransform="matrix(-0.9247229,0,0,-1.0872097,23.060056,18.002358)"
       x1="11.998966"
       y1="2.8287227"
       x2="11.998966"
       y2="15.638639" />
    <linearGradient
       inkscape:collect="always"
       xlink:href="#StandardGradient"
       id="linearGradient2883"
       gradientUnits="userSpaceOnUse"
       gradientTransform="matrix(0.9247229,0,0,-1.0872097,-7.060056,18.002358)"
       x1="11.998966"
       y1="2.8287227"
       x2="11.998966"
       y2="15.638639" />
    <linearGradient
       inkscape:collect="always"
       xlink:href="#StandardGradient"
       id="linearGradient2886"
       gradientUnits="userSpaceOnUse"
       gradientTransform="matrix(0.9247229,0,0,1.0872097,-7.0600562,-2.0023583)"
       x1="11.998966"
       y1="2.8287227"
       x2="11.998966"
       y2="15.638639" />
    <linearGradient
       inkscape:collect="always"
       xlink:href="#StandardGradient"
       id="linearGradient2892"
       gradientUnits="userSpaceOnUse"
       gradientTransform="matrix(-0.9247229,0,0,1.0872097,23.060056,-2.0023583)"
       x1="11.998966"
       y1="2.8287227"
       x2="11.998966"
       y2="15.638639" />
    <linearGradient
       inkscape:collect="always"
       xlink:href="#StandardGradient"
       id="linearGradient2894"
       gradientUnits="userSpaceOnUse"
       gradientTransform="matrix(0.9247229,0,0,1.0872097,-7.0600562,-2.0023583)"
       x1="11.998966"
       y1="2.8287227"
       x2="11.998966"
       y2="15.638639" />
    <linearGradient
       inkscape:collect="always"
       xlink:href="#StandardGradient"
       id="linearGradient2915"
       gradientUnits="userSpaceOnUse"
       gradientTransform="matrix(0.9247229,0,0,1.0872097,-7.0600562,-2.0023583)"
       x1="11.998966"
       y1="2.8287227"
       x2="11.998966"
       y2="15.638639" />
    <linearGradient
       inkscape:collect="always"
       xlink:href="#StandardGradient"
       id="linearGradient2922"
       gradientUnits="userSpaceOnUse"
       gradientTransform="matrix(0.9247229,0,0,1.0872097,-7.0600562,-1.0023583)"
       x1="11.998966"
       y1="2.8287227"
       x2="11.998966"
       y2="15.638639" />
    <linearGradient
       inkscape:collect="always"
       xlink:href="#StandardGradient"
       id="linearGradient2924"
       gradientUnits="userSpaceOnUse"
       gradientTransform="matrix(0.9247229,0,0,1.0872097,-7.0600562,-2.0023583)"
       x1="11.998966"
       y1="2.8287227"
       x2="11.998966"
       y2="15.638639" />
    <linearGradient
       inkscape:collect="always"
       xlink:href="#StandardGradient"
       id="linearGradient3701"
       gradientUnits="userSpaceOnUse"
       gradientTransform="matrix(0.9247229,0,0,1.0872097,-7.0600562,-1.0023583)"
       x1="11.998966"
       y1="2.8287227"
       x2="11.998966"
       y2="15.638639" />
    <linearGradient
       inkscape:collect="always"
       xlink:href="#StandardGradient"
       id="linearGradient3705"
       gradientUnits="userSpaceOnUse"
       gradientTransform="matrix(0.9247229,0,0,1.0872097,-7.0600562,-2.0023583)"
       x1="11.998966"
       y1="2.8287227"
       x2="11.998966"
       y2="15.638639" />
    <linearGradient
       inkscape:collect="always"
       xlink:href="#StandardGradient"
       id="linearGradient3710"
       gradientUnits="userSpaceOnUse"
       gradientTransform="matrix(0.9247229,0,0,1.0872097,-27.060056,-2.0023583)"
       x1="11.998966"
       y1="2.8287227"
       x2="11.998966"
       y2="15.638639" />
    <clipPath
       clipPathUnits="userSpaceOnUse"
       id="clipPath3717">
      <path
         style="fill:#ff00ff;fill-opacity:1;stroke:none;display:inline"
         d="m -20,0 0,16 16,0 0,-16 -16,0 z m 3.5,1 0.5,0 8,0 0.5,0 c 0.103875,0 0.214678,0.01133 0.3125,0.03125 0.326943,0.066563 0.603453,0.2279572 0.8125,0.46875 0.01949,0.02192 0.04431,0.039451 0.0625,0.0625 0.084724,0.1100815 0.135772,0.2432107 0.1875,0.375 0.012049,0.030227 0.021142,0.062579 0.03125,0.09375 C -6.046245,2.1777541 -6,2.3372625 -6,2.5 l 0,0.5 0,10 0,0.5 c 0,0.162738 -0.046245,0.322246 -0.09375,0.46875 -0.010108,0.03117 -0.019201,0.06352 -0.03125,0.09375 -0.051728,0.131789 -0.102776,0.264919 -0.1875,0.375 -0.01819,0.02305 -0.04301,0.04058 -0.0625,0.0625 -0.209047,0.240793 -0.485557,0.40219 -0.8125,0.46875 C -7.285322,14.98867 -7.396125,15 -7.5,15 l -0.5,0 -8,0 -0.5,0 c -0.285656,0 -0.554473,-0.08124 -0.78125,-0.21875 -0.01999,-0.01218 -0.04316,-0.01816 -0.0625,-0.03125 -0.104177,-0.07026 -0.19804,-0.15642 -0.28125,-0.25 -0.01913,-0.02204 -0.04468,-0.03934 -0.0625,-0.0625 -0.0885,-0.112145 -0.1337,-0.240045 -0.1875,-0.375 -0.01237,-0.03152 -0.02097,-0.0612 -0.03125,-0.09375 C -17.95376,13.822246 -18,13.662738 -18,13.5 l 0,-0.5 0,-10 0,-0.5 c 0,-0.1627375 0.04624,-0.3222459 0.09375,-0.46875 0.01028,-0.03255 0.01888,-0.062228 0.03125,-0.09375 0.0538,-0.1349554 0.099,-0.2628555 0.1875,-0.375 0.01782,-0.023159 0.04337,-0.040464 0.0625,-0.0625 0.09914,-0.111495 0.215445,-0.20345 0.34375,-0.28125 0.05935,-0.036175 0.12289,-0.066046 0.1875,-0.09375 C -16.914172,1.049297 -16.70775,1 -16.5,1 z m 1,2 C -15.777,3 -16,3.223 -16,3.5 l 0,9 c 0,0.277 0.223,0.5 0.5,0.5 l 7,0 c 0.277,0 0.5,-0.223 0.5,-0.5 l 0,-9 C -8,3.223 -8.223,3 -8.5,3 l -7,0 z m 0.5,1 1,0 0,1 -1,0 0,-1 z m 2,0 4,0 0,1 -4,0 0,-1 z m -2,2 1,0 0,1 -1,0 0,-1 z m 2,0 4,0 0,1 -4,0 0,-1 z m -2,2 1,0 0,1 -1,0 0,-1 z m 2,0 4,0 0,1 -4,0 0,-1 z m -2,2 1,0 0,1 -1,0 0,-1 z m 2,0 4,0 0,1 -4,0 0,-1 z"
         id="path3719" />
    </clipPath>
    <filter
       inkscape:collect="always"
       id="filter3721">
      <feGaussianBlur
         inkscape:collect="always"
         stdDeviation="0.39"
         id="feGaussianBlur3723" />
    </filter>
    <linearGradient
       inkscape:collect="always"
       xlink:href="#StandardGradient"
       id="linearGradient4482"
       gradientUnits="userSpaceOnUse"
       gradientTransform="matrix(0.9247229,0,0,1.0872097,-7.0600562,-2.0023583)"
       x1="11.998966"
       y1="2.8287227"
       x2="11.998966"
       y2="15.638639" />
    <linearGradient
       inkscape:collect="always"
       xlink:href="#StandardGradient"
       id="linearGradient4486"
       gradientUnits="userSpaceOnUse"
       gradientTransform="matrix(0.9247229,0,0,1.0872097,-7.0600562,-2.0023583)"
       x1="11.998966"
       y1="2.8287227"
       x2="11.998966"
       y2="15.638639" />
  </defs>
  <metadata
     id="metadata7">
    <rdf:RDF>
      <cc:Work
         rdf:about="">
        <dc:format>image/svg+xml</dc:format>
        <dc:type
           rdf:resource="http://purl.org/dc/dcmitype/StillImage" />
      </cc:Work>
    </rdf:RDF>
  </metadata>
  <g
     style="display:inline"
     inkscape:label="Calque 1"
     id="layer1"
     inkscape:groupmode="layer">
    <path
       style="fill:#ffffff;fill-opacity:1;stroke:none;display:inline;opacity:0.14999999999999999"
       d="M 3.5 0 C 3.1336507 0 2.8206807 0.065487345 2.53125 0.1875 A 1.0026687 1.0026687 0 0 0 2.5 0.21875 C 2.4143409 0.25548197 2.3089884 0.30094819 2.1875 0.375 C 1.9894006 0.49512044 1.800988 0.64582213 1.625 0.84375 C 1.7251637 0.72837561 1.684224 0.73874237 1.53125 0.9375 C 1.3159468 1.2103216 1.2321494 1.4504889 1.1875 1.5625 C 1.1546347 1.646232 1.1309054 1.7000539 1.125 1.71875 C 1.0705195 1.8867645 1 2.1473318 1 2.5 L 1 3 L 1 13 L 1 13.5 C 1 13.852666 1.0705177 14.113232 1.125 14.28125 C 1.1309031 14.299939 1.1546184 14.353735 1.1875 14.4375 C 1.2321506 14.549514 1.3159511 14.789682 1.53125 15.0625 C 1.6842545 15.261299 1.7252181 15.271707 1.625 15.15625 C 1.7539557 15.301282 1.9060543 15.467154 2.09375 15.59375 C 2.1987237 15.664815 2.2653527 15.686055 2.28125 15.6875 C 2.6398896 15.885097 3.0628319 16 3.5 16 L 4 16 L 12 16 L 12.5 16 C 12.676777 16 12.829963 15.972126 13 15.9375 C 13.529113 15.829782 14.024428 15.56006 14.375 15.15625 C 14.290012 15.251834 14.328948 15.239654 14.46875 15.0625 C 14.673024 14.797076 14.762703 14.564371 14.8125 14.4375 C 14.85143 14.339836 14.873287 14.286532 14.875 14.28125 C 14.929478 14.11324 15 13.85267 15 13.5 L 15 13 L 15 3 L 15 2.5 C 15 2.1473297 14.929479 1.8867605 14.875 1.71875 C 14.873258 1.7133773 14.851416 1.6601287 14.8125 1.5625 C 14.762708 1.4356438 14.673045 1.2029396 14.46875 0.9375 C 14.328957 0.76036131 14.290023 0.74818017 14.375 0.84375 C 14.024425 0.43993723 13.529099 0.17022125 13 0.0625 C 12.829963 0.027874447 12.676777 0 12.5 0 L 12 0 L 4 0 L 3.5 0 z M 3.5 1 L 4 1 L 12 1 L 12.5 1 C 12.603875 1 12.714678 1.01133 12.8125 1.03125 C 13.139443 1.0978135 13.415953 1.2592072 13.625 1.5 C 13.64449 1.5219196 13.66931 1.5394505 13.6875 1.5625 C 13.772224 1.6725815 13.823272 1.8057107 13.875 1.9375 C 13.887049 1.9677272 13.896142 2.0000789 13.90625 2.03125 C 13.953755 2.1777541 14 2.3372625 14 2.5 L 14 3 L 14 13 L 14 13.5 C 14 13.662738 13.953755 13.822246 13.90625 13.96875 C 13.896142 13.999921 13.887049 14.032273 13.875 14.0625 C 13.823272 14.194289 13.772224 14.327419 13.6875 14.4375 C 13.66931 14.460549 13.64449 14.47808 13.625 14.5 C 13.415953 14.740793 13.139443 14.902186 12.8125 14.96875 C 12.714678 14.98867 12.603875 15 12.5 15 L 12 15 L 4 15 L 3.5 15 C 3.2143437 15 2.9455273 14.91876 2.71875 14.78125 C 2.6987644 14.769068 2.6755857 14.763086 2.65625 14.75 C 2.5520727 14.679735 2.4582068 14.59358 2.375 14.5 C 2.355869 14.477964 2.3303245 14.460659 2.3125 14.4375 C 2.2239987 14.325355 2.1787954 14.197455 2.125 14.0625 C 2.1126273 14.030978 2.1040312 14.0013 2.09375 13.96875 C 2.0462445 13.822246 2 13.662738 2 13.5 L 2 13 L 2 3 L 2 2.5 C 2 2.3372625 2.0462445 2.1777541 2.09375 2.03125 C 2.1040312 1.9987004 2.1126273 1.9690223 2.125 1.9375 C 2.1787954 1.8025446 2.2239987 1.6746445 2.3125 1.5625 C 2.3303245 1.5393408 2.355869 1.5220362 2.375 1.5 C 2.474136 1.388505 2.590445 1.2965496 2.71875 1.21875 C 2.7780987 1.1825747 2.8416446 1.1527038 2.90625 1.125 C 3.0858281 1.0492969 3.29225 1 3.5 1 z M 4.5 3 C 4.223 3 4 3.223 4 3.5 L 4 12.5 C 4 12.777 4.223 13 4.5 13 L 11.5 13 C 11.777 13 12 12.777 12 12.5 L 12 3.5 C 12 3.223 11.777 3 11.5 3 L 4.5 3 z M 5 4 L 6 4 L 6 5 L 5 5 L 5 4 z M 7 4 L 11 4 L 11 5 L 7 5 L 7 4 z M 5 6 L 6 6 L 6 7 L 5 7 L 5 6 z M 7 6 L 11 6 L 11 7 L 7 7 L 7 6 z M 5 8 L 6 8 L 6 9 L 5 9 L 5 8 z M 7 8 L 11 8 L 11 9 L 7 9 L 7 8 z M 5 10 L 6 10 L 6 11 L 5 11 L 5 10 z M 7 10 L 11 10 L 11 11 L 7 11 L 7 10 z M 6.46875 11.875 A 1.0026687 1.0026687 0 0 0 6.5 11.875 A 1.0026687 1.0026687 0 0 0 6.78125 12 L 6.09375 12 A 1.0026687 1.0026687 0 0 0 6.46875 11.875 z "
       id="path4484" />
    <path
       style="fill:url(#linearGradient2915);fill-opacity:1;stroke:none;display:inline"
       d="M 3.5 1 C 3.29225 1 3.0858281 1.0492969 2.90625 1.125 C 2.8416446 1.1527038 2.7780987 1.1825747 2.71875 1.21875 C 2.590445 1.2965496 2.474136 1.388505 2.375 1.5 C 2.355869 1.5220362 2.3303245 1.5393408 2.3125 1.5625 C 2.2239987 1.6746445 2.1787954 1.8025446 2.125 1.9375 C 2.1126273 1.9690223 2.1040312 1.9987004 2.09375 2.03125 C 2.0462445 2.1777541 2 2.3372625 2 2.5 L 2 3 L 2 13 L 2 13.5 C 2 13.662738 2.0462445 13.822246 2.09375 13.96875 C 2.1040312 14.0013 2.1126273 14.030978 2.125 14.0625 C 2.1787954 14.197455 2.2239987 14.325355 2.3125 14.4375 C 2.3303245 14.460659 2.355869 14.477964 2.375 14.5 C 2.4582068 14.59358 2.5520727 14.679735 2.65625 14.75 C 2.6755857 14.763086 2.6987644 14.769068 2.71875 14.78125 C 2.9455273 14.91876 3.2143437 15 3.5 15 L 4 15 L 12 15 L 12.5 15 C 12.603875 15 12.714678 14.98867 12.8125 14.96875 C 13.139443 14.902186 13.415953 14.740793 13.625 14.5 C 13.64449 14.47808 13.66931 14.460549 13.6875 14.4375 C 13.772224 14.327419 13.823272 14.194289 13.875 14.0625 C 13.887049 14.032273 13.896142 13.999921 13.90625 13.96875 C 13.953755 13.822246 14 13.662738 14 13.5 L 14 13 L 14 3 L 14 2.5 C 14 2.3372625 13.953755 2.1777541 13.90625 2.03125 C 13.896142 2.0000789 13.887049 1.9677272 13.875 1.9375 C 13.823272 1.8057107 13.772224 1.6725815 13.6875 1.5625 C 13.66931 1.5394505 13.64449 1.5219196 13.625 1.5 C 13.415953 1.2592072 13.139443 1.0978135 12.8125 1.03125 C 12.714678 1.01133 12.603875 1 12.5 1 L 12 1 L 4 1 L 3.5 1 z M 4.5 3 L 11.5 3 C 11.777 3 12 3.223 12 3.5 L 12 12.5 C 12 12.777 11.777 13 11.5 13 L 4.5 13 C 4.223 13 4 12.777 4 12.5 L 4 3.5 C 4 3.223 4.223 3 4.5 3 z M 5 4 L 5 5 L 6 5 L 6 4 L 5 4 z M 7 4 L 7 5 L 11 5 L 11 4 L 7 4 z M 5 6 L 5 7 L 6 7 L 6 6 L 5 6 z M 7 6 L 7 7 L 11 7 L 11 6 L 7 6 z M 5 8 L 5 9 L 6 9 L 6 8 L 5 8 z M 7 8 L 7 9 L 11 9 L 11 8 L 7 8 z M 5 10 L 5 11 L 6 11 L 6 10 L 5 10 z M 7 10 L 7 11 L 11 11 L 11 10 L 7 10 z "
       id="path2870" />
    <path
       style="fill:#000000;fill-opacity:1;stroke:none;display:inline;opacity:0.5"
       d="M 3.5 1 C 3.29225 1 3.0858281 1.0492969 2.90625 1.125 C 2.8416446 1.1527038 2.7780987 1.1825747 2.71875 1.21875 C 2.590445 1.2965496 2.474136 1.388505 2.375 1.5 C 2.355869 1.5220362 2.3303245 1.5393408 2.3125 1.5625 C 2.2239987 1.6746445 2.1787954 1.8025446 2.125 1.9375 C 2.1126273 1.9690223 2.1040312 1.9987004 2.09375 2.03125 C 2.0462445 2.1777541 2 2.3372625 2 2.5 L 2 3 L 2 3.5 C 2 3.3372625 2.0462445 3.1777541 2.09375 3.03125 C 2.1040312 2.9987004 2.1126273 2.9690223 2.125 2.9375 C 2.1787954 2.8025446 2.2239987 2.6746445 2.3125 2.5625 C 2.3303245 2.5393408 2.355869 2.5220362 2.375 2.5 C 2.474136 2.388505 2.590445 2.2965496 2.71875 2.21875 C 2.7780987 2.1825747 2.8416446 2.1527038 2.90625 2.125 C 3.0858281 2.0492969 3.29225 2 3.5 2 L 4 2 L 12 2 L 12.5 2 C 12.603875 2 12.714678 2.01133 12.8125 2.03125 C 13.139443 2.0978135 13.415953 2.2592072 13.625 2.5 C 13.64449 2.5219196 13.66931 2.5394505 13.6875 2.5625 C 13.772224 2.6725815 13.823272 2.8057107 13.875 2.9375 C 13.887049 2.9677272 13.896142 3.0000789 13.90625 3.03125 C 13.953755 3.1777541 14 3.3372625 14 3.5 L 14 3 L 14 2.5 C 14 2.3372625 13.953755 2.1777541 13.90625 2.03125 C 13.896142 2.0000789 13.887049 1.9677272 13.875 1.9375 C 13.823272 1.8057107 13.772224 1.6725815 13.6875 1.5625 C 13.66931 1.5394505 13.64449 1.5219196 13.625 1.5 C 13.415953 1.2592072 13.139443 1.0978135 12.8125 1.03125 C 12.714678 1.01133 12.603875 1 12.5 1 L 12 1 L 4 1 L 3.5 1 z M 5 4 L 5 5 L 6 5 L 6 4 L 5 4 z M 7 4 L 7 5 L 11 5 L 11 4 L 7 4 z M 5 6 L 5 7 L 6 7 L 6 6 L 5 6 z M 7 6 L 7 7 L 11 7 L 11 6 L 7 6 z M 5 8 L 5 9 L 6 9 L 6 8 L 5 8 z M 7 8 L 7 9 L 11 9 L 11 8 L 7 8 z M 5 10 L 5 11 L 6 11 L 6 10 L 5 10 z M 7 10 L 7 11 L 11 11 L 11 10 L 7 10 z M 4 12.5 L 4 13.5 C 4 13.777 4.223 14 4.5 14 L 11.5 14 C 11.777 14 12 13.777 12 13.5 L 12 12.5 C 12 12.777 11.777 13 11.5 13 L 4.5 13 C 4.223 13 4 12.777 4 12.5 z "
       id="path2918" />
    <path
       style="fill:#ffffff;fill-opacity:1;stroke:none;display:inline;opacity:0.3"
       d="M 4.5 3 C 4.223 3 4 3.223 4 3.5 L 4 4.5 C 4 4.223 4.223 4 4.5 4 L 5 4 L 6 4 L 7 4 L 11 4 L 11.5 4 C 11.777 4 12 4.223 12 4.5 L 12 3.5 C 12 3.223 11.777 3 11.5 3 L 4.5 3 z M 5 5 L 5 6 L 6 6 L 6 5 L 5 5 z M 7 5 L 7 6 L 11 6 L 11 5 L 7 5 z M 5 7 L 5 8 L 6 8 L 6 7 L 5 7 z M 7 7 L 7 8 L 11 8 L 11 7 L 7 7 z M 5 9 L 5 10 L 6 10 L 6 9 L 5 9 z M 7 9 L 7 10 L 11 10 L 11 9 L 7 9 z M 5 11 L 5 12 L 6 12 L 6 11 L 5 11 z M 7 11 L 7 12 L 11 12 L 11 11 L 7 11 z M 2 13.5 L 2 14 L 2 14.5 C 2 14.662738 2.046244 14.822246 2.09375 14.96875 C 2.104031 15.0013 2.112627 15.03098 2.125 15.0625 C 2.178795 15.197455 2.223999 15.325355 2.3125 15.4375 C 2.330325 15.46066 2.355869 15.47796 2.375 15.5 C 2.458207 15.59358 2.5520727 15.679735 2.65625 15.75 C 2.675586 15.76309 2.698764 15.76907 2.71875 15.78125 C 2.9455273 15.91876 3.2143437 16 3.5 16 L 4 16 L 12 16 L 12.5 16 C 12.603875 16 12.714678 15.98867 12.8125 15.96875 C 13.139443 15.90219 13.415953 15.740793 13.625 15.5 C 13.64449 15.47808 13.66931 15.46055 13.6875 15.4375 C 13.77222 15.327419 13.823272 15.194289 13.875 15.0625 C 13.88705 15.03227 13.89614 14.99992 13.90625 14.96875 C 13.953755 14.822246 14 14.662738 14 14.5 L 14 14 L 14 13.5 C 14 13.662738 13.953755 13.822246 13.90625 13.96875 C 13.89614 13.99992 13.88705 14.03227 13.875 14.0625 C 13.823272 14.194289 13.77222 14.327419 13.6875 14.4375 C 13.66931 14.46055 13.64449 14.47808 13.625 14.5 C 13.415953 14.740793 13.139443 14.90219 12.8125 14.96875 C 12.714678 14.98867 12.603875 15 12.5 15 L 12 15 L 4 15 L 3.5 15 C 3.2143437 15 2.9455273 14.91876 2.71875 14.78125 C 2.698764 14.76907 2.675586 14.76309 2.65625 14.75 C 2.5520727 14.679735 2.458207 14.59358 2.375 14.5 C 2.355869 14.47796 2.330325 14.46066 2.3125 14.4375 C 2.223999 14.325355 2.178795 14.197455 2.125 14.0625 C 2.112627 14.03098 2.104031 14.0013 2.09375 13.96875 C 2.046244 13.822246 2 13.662738 2 13.5 z "
       id="path3699" />
  </g>
</svg>
