<?xml version="1.0" encoding="UTF-8" standalone="no"?>
<!-- Created with Inkscape (http://www.inkscape.org/) -->

<svg
   xmlns:dc="http://purl.org/dc/elements/1.1/"
   xmlns:cc="http://creativecommons.org/ns#"
   xmlns:rdf="http://www.w3.org/1999/02/22-rdf-syntax-ns#"
   xmlns:svg="http://www.w3.org/2000/svg"
   xmlns="http://www.w3.org/2000/svg"
   xmlns:xlink="http://www.w3.org/1999/xlink"
   xmlns:sodipodi="http://sodipodi.sourceforge.net/DTD/sodipodi-0.dtd"
   xmlns:inkscape="http://www.inkscape.org/namespaces/inkscape"
   width="16"
   height="16"
   id="svg2"
   sodipodi:version="0.32"
   inkscape:version="0.48.0 r9654"
   version="1.0"
   sodipodi:docname="edit-clear.svg"
   inkscape:output_extension="org.inkscape.output.svg.inkscape">
  <defs
     id="defs4">
    <inkscape:perspective
       sodipodi:type="inkscape:persp3d"
       inkscape:vp_x="0 : 8 : 1"
       inkscape:vp_y="0 : 1000 : 0"
       inkscape:vp_z="16 : 8 : 1"
       inkscape:persp3d-origin="8 : 5.3333333 : 1"
       id="perspective18" />
    <linearGradient
       id="StandardGradient"
       x1="11.347495"
       y1="5.999567"
       x2="11.347495"
       y2="16.013096"
       gradientUnits="userSpaceOnUse"
       gradientTransform="translate(-3,-2.9995677)">
      <stop
         id="stop3177"
         offset="0"
         style="stop-color:#000000;stop-opacity:0.86274511;" />
      <stop
         id="stop3179"
         offset="1"
         style="stop-color:#000000;stop-opacity:0.47058824;" />
    </linearGradient>
    <linearGradient
       inkscape:collect="always"
       xlink:href="#StandardGradient"
       id="linearGradient2406"
       gradientUnits="userSpaceOnUse"
       gradientTransform="translate(0,-1)"
       x1="11.347495"
       y1="5.9994788"
       x2="11.347495"
       y2="16.972231" />
    <inkscape:perspective
       id="perspective3648"
       inkscape:persp3d-origin="0.5 : 0.33333333 : 1"
       inkscape:vp_z="1 : 0.5 : 1"
       inkscape:vp_y="0 : 1000 : 0"
       inkscape:vp_x="0 : 0.5 : 1"
       sodipodi:type="inkscape:persp3d" />
    <linearGradient
       inkscape:collect="always"
       xlink:href="#StandardGradient"
       id="linearGradient3627"
       gradientUnits="userSpaceOnUse"
       gradientTransform="translate(-20,-1)"
       x1="11.347495"
       y1="5.9994788"
       x2="11.347495"
       y2="16.972231" />
    <clipPath
       clipPathUnits="userSpaceOnUse"
       id="clipPath3635">
      <path
         style="fill:#ff00ff;fill-opacity:1;stroke:none;display:inline"
         d="m -17,2.9995677 0,7.5000003 6,-5.5000003 9,0 0,10.9687503 -9,0 -6,-5.46875 0,8.5 16,0 0,-16.0000003 -16,0 z m 7.40625,4 L -11,8.4058177 -8.90625,10.499568 -11,12.593318 -9.59375,13.999568 -7.5,11.905818 -5.40625,13.999568 -4,12.593318 -6.09375,10.499568 -4,8.4058177 -5.40625,6.9995677 -7.5,9.0933177 -9.59375,6.9995677 z"
         id="path3637" />
    </clipPath>
    <filter
       inkscape:collect="always"
       id="filter3639">
      <feGaussianBlur
         inkscape:collect="always"
         stdDeviation="0.38958408"
         id="feGaussianBlur3641" />
    </filter>
    <linearGradient
       inkscape:collect="always"
       xlink:href="#StandardGradient"
       id="linearGradient3207"
       gradientUnits="userSpaceOnUse"
       gradientTransform="translate(0,-1)"
       x1="11.347495"
       y1="5.9994788"
       x2="11.347495"
       y2="16.972231" />
    <linearGradient
       inkscape:collect="always"
       xlink:href="#StandardGradient"
       id="linearGradient3211"
       gradientUnits="userSpaceOnUse"
       gradientTransform="translate(-3,-3.9995677)"
       x1="11.347495"
       y1="5.9994788"
       x2="11.347495"
       y2="16.972231" />
  </defs>
  <sodipodi:namedview
     id="base"
     pagecolor="#ffffff"
     bordercolor="#9a9a9a"
     borderopacity="1"
     inkscape:pageopacity="0.0"
     inkscape:pageshadow="2"
     inkscape:zoom="24.711919"
     inkscape:cx="-0.7698991"
     inkscape:cy="12.505351"
     inkscape:document-units="px"
     inkscape:current-layer="layer3"
     showgrid="true"
     inkscape:showpageshadow="false"
     showguides="true"
     inkscape:guide-bbox="true"
     inkscape:window-width="1920"
     inkscape:window-height="1029"
     inkscape:window-x="0"
     inkscape:window-y="25"
     inkscape:window-maximized="1">
    <sodipodi:guide
       orientation="1,0"
       position="0,112"
       id="guide2383" />
    <sodipodi:guide
       orientation="0,1"
       position="26.278146,128"
       id="guide2385" />
    <sodipodi:guide
       orientation="1,0"
       position="128,54.082119"
       id="guide2387" />
    <sodipodi:guide
       orientation="0,1"
       position="78.156291,0"
       id="guide2389" />
    <inkscape:grid
       type="xygrid"
       id="grid3672"
       visible="true"
       enabled="true" />
  </sodipodi:namedview>
  <metadata
     id="metadata7">
    <rdf:RDF>
      <cc:Work
         rdf:about="">
        <dc:format>image/svg+xml</dc:format>
        <dc:type
           rdf:resource="http://purl.org/dc/dcmitype/StillImage" />
      </cc:Work>
    </rdf:RDF>
  </metadata>
  <g
     inkscape:groupmode="layer"
     id="layer3"
     inkscape:label="Cross"
     style="display:inline"
     transform="translate(-3,-2.9995677)">
    <path
       style="fill:#ffffff;fill-opacity:1;stroke:none;opacity:0.15"
       d="M 5.8125 1.03125 A 0.97465509 0.97465509 0 0 0 5.34375 1.28125 L -0.65625 6.78125 A 0.97465509 0.97465509 0 0 0 -0.65625 8.21875 L 5.34375 13.6875 A 0.97465509 0.97465509 0 0 0 6 13.9375 L 15 13.9375 A 0.97465509 0.97465509 0 0 0 15.96875 12.96875 L 15.96875 2 A 0.97465509 0.97465509 0 0 0 15 1.03125 L 6 1.03125 A 0.97465509 0.97465509 0 0 0 5.8125 1.03125 z M 6 2 L 15 2 L 15 12.96875 L 6 12.96875 L 0 7.5 L 6 2 z M 7.40625 4 L 6 5.40625 L 8.09375 7.5 L 6 9.59375 L 7.40625 11 L 9.5 8.90625 L 11.59375 11 L 13 9.59375 L 10.90625 7.5 L 13 5.40625 L 11.59375 4 L 9.5 6.09375 L 7.40625 4 z M 7.40625 5.375 L 8.8125 6.78125 A 0.97465509 0.97465509 0 0 0 10.1875 6.78125 L 11.59375 5.375 L 11.625 5.40625 L 10.21875 6.8125 A 0.97465509 0.97465509 0 0 0 10.21875 8.1875 L 11.625 9.59375 L 11.59375 9.625 L 10.1875 8.21875 A 0.97465509 0.97465509 0 0 0 8.8125 8.21875 L 7.40625 9.625 L 7.375 9.59375 L 8.78125 8.1875 A 0.97465509 0.97465509 0 0 0 8.78125 6.8125 L 7.375 5.40625 L 7.40625 5.375 z "
       transform="translate(3,2.9995677)"
       id="path3209" />
    <path
       style="opacity:1;fill:url(#linearGradient2406);fill-opacity:1;stroke:none;stroke-width:1.00000024000000010;stroke-linecap:round;stroke-linejoin:miter;stroke-miterlimit:4;stroke-dasharray:none;stroke-opacity:1"
       d="M 9,4.9995677 L 3,10.499568 L 9,15.97184 L 18,15.97184 L 18,4.9995677 L 9,4.9995677 z M 10.40625,6.9995677 L 12.5,9.0933177 L 14.59375,6.9995677 L 16,8.4058177 L 13.90625,10.499568 L 16,12.593318 L 14.59375,13.999568 L 12.5,11.905818 L 10.40625,13.999568 L 9,12.593318 L 11.09375,10.499568 L 9,8.4058177 L 10.40625,6.9995677 z"
       id="Symbol"
       sodipodi:nodetypes="ccccccccccccccccccc" />
    <path
       style="opacity:0.5;fill:#000000;fill-opacity:1;stroke:none;stroke-width:1.00000024;stroke-linecap:round;stroke-linejoin:miter;stroke-miterlimit:4;stroke-dasharray:none;stroke-opacity:1"
       d="M 6,2 L 0,7.5 L 0.5625,8 L 6,3.03125 L 15,3.03125 L 15,2 L 6,2 z M 6.5,5.9375 L 6,6.4375 L 7.5625,8 L 8.09375,7.5 L 6.5,5.9375 z M 12.5,5.9375 L 10.90625,7.5 L 11.4375,8 L 13,6.4375 L 12.5,5.9375 z M 9.5,8.90625 L 7.40625,11 L 6.5,10.125 L 6,10.625 L 7.40625,12.03125 L 9.5,9.9375 L 11.59375,12.03125 L 13,10.625 L 12.5,10.125 L 11.59375,11 L 9.5,8.90625 z"
       transform="translate(3,2.9995677)"
       id="BevelShadow"
       sodipodi:nodetypes="cccccccccccccccccccccccccccc" />
    <path
       style="opacity:0.3;fill:#ffffff;fill-opacity:1;stroke:none;stroke-width:1.00000024000000010;stroke-linecap:round;stroke-linejoin:miter;stroke-miterlimit:4;stroke-dasharray:none;stroke-opacity:1"
       d="M 7.40625,4 L 6,5.40625 L 6.5,5.9375 L 7.40625,5.03125 L 9.5,7.125 L 11.59375,5.03125 L 12.5,5.9375 L 13,5.40625 L 11.59375,4 L 9.5,6.09375 L 7.40625,4 z M 0,7.5 L 0,8.53125 L 6,14 L 15,14 L 15,12.96875 L 6,12.96875 L 0,7.5 z M 8.09375,7.5 L 6,9.59375 L 6.5,10.125 L 8.09375,8.53125 L 8.09375,7.5 z M 10.90625,7.5 L 10.90625,8.53125 L 12.5,10.125 L 13,9.59375 L 10.90625,7.5 z"
       transform="translate(3,2.9995677)"
       id="BevelHighlight"
       sodipodi:nodetypes="cccccccccccccccccccccccccccc" />
  </g>
</svg>
