<?xml version="1.0" encoding="UTF-8" standalone="no"?>
<!-- Created with Inkscape (http://www.inkscape.org/) -->

<svg
   xmlns:dc="http://purl.org/dc/elements/1.1/"
   xmlns:cc="http://creativecommons.org/ns#"
   xmlns:rdf="http://www.w3.org/1999/02/22-rdf-syntax-ns#"
   xmlns:svg="http://www.w3.org/2000/svg"
   xmlns="http://www.w3.org/2000/svg"
   xmlns:xlink="http://www.w3.org/1999/xlink"
   xmlns:sodipodi="http://sodipodi.sourceforge.net/DTD/sodipodi-0.dtd"
   xmlns:inkscape="http://www.inkscape.org/namespaces/inkscape"
   width="16"
   height="16"
   id="svg2"
   sodipodi:version="0.32"
   inkscape:version="0.48.0 r9654"
   version="1.0"
   sodipodi:docname="go-down.svg"
   inkscape:output_extension="org.inkscape.output.svg.inkscape">
  <defs
     id="defs4">
    <inkscape:perspective
       sodipodi:type="inkscape:persp3d"
       inkscape:vp_x="0 : 8 : 1"
       inkscape:vp_y="0 : 1000 : 0"
       inkscape:vp_z="16 : 8 : 1"
       inkscape:persp3d-origin="8 : 5.3333333 : 1"
       id="perspective18" />
    <linearGradient
       id="StandardGradient"
       gradientTransform="scale(0.915489,1.0923124)"
       x1="8.7384996"
       y1="1.8452826"
       x2="8.7384996"
       y2="12.802542"
       gradientUnits="userSpaceOnUse">
      <stop
         id="stop3284"
         offset="0"
         style="stop-color:#000000;stop-opacity:0.86274511;" />
      <stop
         id="stop3286"
         offset="1"
         style="stop-color:#000000;stop-opacity:0.47058824;" />
    </linearGradient>
    <inkscape:perspective
       id="perspective3648"
       inkscape:persp3d-origin="0.5 : 0.33333333 : 1"
       inkscape:vp_z="1 : 0.5 : 1"
       inkscape:vp_y="0 : 1000 : 0"
       inkscape:vp_x="0 : 0.5 : 1"
       sodipodi:type="inkscape:persp3d" />
    <linearGradient
       inkscape:collect="always"
       xlink:href="#StandardGradient"
       id="linearGradient3627"
       gradientUnits="userSpaceOnUse"
       gradientTransform="matrix(0.915489,0,0,1.0923124,-20,0)"
       x1="8.7384996"
       y1="1.8452826"
       x2="8.7384996"
       y2="12.802542" />
    <clipPath
       clipPathUnits="userSpaceOnUse"
       id="clipPath3640">
      <path
         style="fill:#ff00ff;fill-opacity:1;stroke:none;display:inline"
         d="m -20,0 0,16 16,0 0,-16 -16,0 z m 5.96875,2.03125 4.0625,0 -0.03125,3.9375 3,0 -5,8.03125 -5,-8.03125 2.96875,0 0,-3.9375 z"
         id="path3642" />
    </clipPath>
    <filter
       inkscape:collect="always"
       id="filter3648">
      <feGaussianBlur
         inkscape:collect="always"
         stdDeviation="0.33"
         id="feGaussianBlur3650" />
    </filter>
    <linearGradient
       inkscape:collect="always"
       xlink:href="#StandardGradient"
       id="linearGradient4474"
       gradientUnits="userSpaceOnUse"
       gradientTransform="scale(0.915489,1.0923124)"
       x1="8.7384996"
       y1="1.8452826"
       x2="8.7384996"
       y2="12.802542" />
    <linearGradient
       inkscape:collect="always"
       xlink:href="#StandardGradient"
       id="linearGradient4478"
       gradientUnits="userSpaceOnUse"
       gradientTransform="scale(0.915489,1.0923124)"
       x1="8.7384996"
       y1="1.8452826"
       x2="8.7384996"
       y2="12.802542" />
  </defs>
  <sodipodi:namedview
     id="base"
     pagecolor="#ffffff"
     bordercolor="#9a9a9a"
     borderopacity="1"
     inkscape:pageopacity="0.0"
     inkscape:pageshadow="2"
     inkscape:zoom="24.785766"
     inkscape:cx="1.6524463"
     inkscape:cy="6.912296"
     inkscape:document-units="px"
     inkscape:current-layer="layer4"
     showgrid="true"
     inkscape:showpageshadow="false"
     showguides="true"
     inkscape:guide-bbox="true"
     inkscape:window-width="1920"
     inkscape:window-height="1029"
     inkscape:window-x="0"
     inkscape:window-y="25"
     inkscape:window-maximized="1">
    <sodipodi:guide
       orientation="1,0"
       position="0,112"
       id="guide2383" />
    <sodipodi:guide
       orientation="0,1"
       position="26.278146,128"
       id="guide2385" />
    <sodipodi:guide
       orientation="1,0"
       position="128,54.082119"
       id="guide2387" />
    <sodipodi:guide
       orientation="0,1"
       position="78.156291,0"
       id="guide2389" />
    <inkscape:grid
       type="xygrid"
       id="grid3672"
       visible="true"
       enabled="true" />
  </sodipodi:namedview>
  <metadata
     id="metadata7">
    <rdf:RDF>
      <cc:Work
         rdf:about="">
        <dc:format>image/svg+xml</dc:format>
        <dc:type
           rdf:resource="http://purl.org/dc/dcmitype/StillImage" />
      </cc:Work>
    </rdf:RDF>
  </metadata>
  <g
     inkscape:groupmode="layer"
     id="layer4"
     inkscape:label="Arrow"
     style="display:inline">
    <path
       style="fill:#ffffff;fill-opacity:1;stroke:none;display:inline;opacity:0.15"
       d="M 5.78125 1.03125 A 1.0087443 1.0087443 0 0 0 4.96875 2.03125 L 4.96875 4.96875 L 3 4.96875 A 1.0087443 1.0087443 0 0 0 2.15625 6.5 L 7.15625 14.53125 A 1.0087443 1.0087443 0 0 0 8.84375 14.53125 L 13.84375 6.5 A 1.0087443 1.0087443 0 0 0 13 4.96875 L 11.03125 4.96875 L 11.03125 2.03125 A 1.0087443 1.0087443 0 0 0 10.03125 1.03125 L 5.96875 1.03125 A 1.0087443 1.0087443 0 0 0 5.78125 1.03125 z M 5.96875 2 L 10.03125 2 L 10 5.96875 L 13 5.96875 L 8 14 L 3 5.96875 L 5.96875 5.96875 L 5.96875 2 z "
       id="path4476" />
    <path
       style="opacity:1;fill:url(#StandardGradient);fill-opacity:1;stroke:none;stroke-width:0.99999976000000002;stroke-linecap:round;stroke-linejoin:miter;stroke-miterlimit:4;stroke-dasharray:none;stroke-opacity:1;display:inline"
       d="M 13.015625,5.9718049 L 8.0129199,13.984375 L 2.984375,5.9718049 L 5.979194,5.9718049 L 5.979194,2.015625 L 10.02316,2.015625 L 10.015625,5.9718049 L 13.015625,5.9718049 z"
       id="Symbol"
       sodipodi:nodetypes="cccccccc"
       inkscape:label="#path2493" />
    <path
       style="opacity:0.5;fill:#000000;fill-opacity:1;stroke:none;stroke-width:0.99999976000000002;stroke-linecap:round;stroke-linejoin:miter;stroke-miterlimit:4;stroke-dasharray:none;stroke-opacity:1;display:inline"
       d="M 5.96875 2 L 5.96875 3.03125 L 10.03125 3.03125 L 10.03125 2 L 5.96875 2 z M 3 5.96875 L 3.65625 7 L 5.96875 7 L 5.96875 5.96875 L 3 5.96875 z M 10 5.96875 L 10 7 L 12.34375 7 L 13 5.96875 L 10 5.96875 z "
       id="BevelShadow"
       inkscape:label="#path3284" />
    <path
       style="opacity:0.3;fill:#ffffff;fill-opacity:1;stroke:none;stroke-width:0.99999976000000002;stroke-linecap:round;stroke-linejoin:miter;stroke-miterlimit:4;stroke-dasharray:none;stroke-opacity:1;display:inline"
       d="M 3 5.96875 L 3 7 L 8 15 L 13 7 L 13 5.96875 L 8 14 L 3 5.96875 z "
       id="BevelHighlight"
       inkscape:label="#path3291" />
  </g>
</svg>
