<?xml version="1.0" encoding="UTF-8" standalone="no"?>
<!-- Created with Inkscape (http://www.inkscape.org/) -->

<svg
   xmlns:dc="http://purl.org/dc/elements/1.1/"
   xmlns:cc="http://creativecommons.org/ns#"
   xmlns:rdf="http://www.w3.org/1999/02/22-rdf-syntax-ns#"
   xmlns:svg="http://www.w3.org/2000/svg"
   xmlns="http://www.w3.org/2000/svg"
   xmlns:xlink="http://www.w3.org/1999/xlink"
   xmlns:sodipodi="http://sodipodi.sourceforge.net/DTD/sodipodi-0.dtd"
   xmlns:inkscape="http://www.inkscape.org/namespaces/inkscape"
   width="16"
   height="16"
   id="svg2"
   sodipodi:version="0.32"
   inkscape:version="0.48.0 r9654"
   version="1.0"
   sodipodi:docname="system-run.svg"
   inkscape:output_extension="org.inkscape.output.svg.inkscape">
  <defs
     id="defs4">
    <inkscape:perspective
       sodipodi:type="inkscape:persp3d"
       inkscape:vp_x="0 : 11 : 1"
       inkscape:vp_y="0 : 1000 : 0"
       inkscape:vp_z="22 : 11 : 1"
       inkscape:persp3d-origin="11 : 7.3333333 : 1"
       id="perspective23" />
    <linearGradient
       id="ShadowGradient">
      <stop
         style="stop-color:#000000;stop-opacity:1;"
         offset="0"
         id="stop3393" />
      <stop
         style="stop-color:#000000;stop-opacity:0;"
         offset="1"
         id="stop3395" />
    </linearGradient>
    <linearGradient
       id="StandardGradient">
      <stop
         style="stop-color:#000000;stop-opacity:0.86274511;"
         offset="0"
         id="stop3389" />
      <stop
         style="stop-color:#000000;stop-opacity:0.47058824;"
         offset="1"
         id="stop3391" />
    </linearGradient>
    <linearGradient
       inkscape:collect="always"
       xlink:href="#StandardGradient"
       id="linearGradient3381"
       x1="9.9375"
       y1="3"
       x2="9.9375"
       y2="19.017569"
       gradientUnits="userSpaceOnUse" />
    <linearGradient
       inkscape:collect="always"
       xlink:href="#StandardGradient"
       id="linearGradient3782"
       x1="9.75"
       y1="5"
       x2="9.75"
       y2="19.055693"
       gradientUnits="userSpaceOnUse"
       gradientTransform="translate(0,-1)" />
    <linearGradient
       inkscape:collect="always"
       xlink:href="#StandardGradient"
       id="linearGradient2400"
       gradientUnits="userSpaceOnUse"
       gradientTransform="translate(-9,10)"
       x1="9.75"
       y1="5"
       x2="9.75"
       y2="19.055693" />
    <linearGradient
       inkscape:collect="always"
       xlink:href="#StandardGradient"
       id="linearGradient3174"
       gradientUnits="userSpaceOnUse"
       gradientTransform="matrix(0.7071068,0.7071068,-0.7071068,0.7071068,0.8856249,4.1536343)"
       x1="9.75"
       y1="5"
       x2="9.75"
       y2="19.055693" />
    <linearGradient
       inkscape:collect="always"
       xlink:href="#StandardGradient"
       id="linearGradient3178"
       gradientUnits="userSpaceOnUse"
       gradientTransform="matrix(0,1,-1,0,12.009822,7.0098219)"
       x1="9.75"
       y1="5"
       x2="9.75"
       y2="19.055693" />
    <linearGradient
       inkscape:collect="always"
       xlink:href="#StandardGradient"
       id="linearGradient3182"
       gradientUnits="userSpaceOnUse"
       gradientTransform="matrix(-0.7071068,0.7071068,-0.7071068,-0.7071068,17.856188,16.895447)"
       x1="9.75"
       y1="5"
       x2="9.75"
       y2="19.055693" />
    <linearGradient
       inkscape:collect="always"
       xlink:href="#StandardGradient"
       id="linearGradient3186"
       gradientUnits="userSpaceOnUse"
       gradientTransform="matrix(-1,0,0,-1,15,28.019644)"
       x1="9.75"
       y1="5"
       x2="9.75"
       y2="19.055693" />
    <linearGradient
       inkscape:collect="always"
       xlink:href="#StandardGradient"
       id="linearGradient3190"
       gradientUnits="userSpaceOnUse"
       gradientTransform="matrix(-0.7071068,-0.7071068,0.7071068,-0.7071068,5.1143752,33.866009)"
       x1="9.75"
       y1="5"
       x2="9.75"
       y2="19.055693" />
    <linearGradient
       inkscape:collect="always"
       xlink:href="#StandardGradient"
       id="linearGradient3194"
       gradientUnits="userSpaceOnUse"
       gradientTransform="matrix(0,-1,1,0,-6.0098215,31.009821)"
       x1="9.75"
       y1="5"
       x2="9.75"
       y2="19.055693" />
    <linearGradient
       inkscape:collect="always"
       xlink:href="#StandardGradient"
       id="linearGradient3198"
       gradientUnits="userSpaceOnUse"
       gradientTransform="matrix(0.7071068,-0.7071068,0.7071068,0.7071068,-11.856186,21.124197)"
       x1="9.75"
       y1="5"
       x2="9.75"
       y2="19.055693" />
    <linearGradient
       inkscape:collect="always"
       xlink:href="#StandardGradient"
       id="linearGradient3224"
       gradientUnits="userSpaceOnUse"
       gradientTransform="matrix(0.7071068,0.7071068,-0.7071068,0.7071068,11.292893,-6.263456)"
       x1="9.75"
       y1="5"
       x2="9.75"
       y2="19.055693" />
    <linearGradient
       inkscape:collect="always"
       xlink:href="#StandardGradient"
       id="linearGradient2407"
       gradientUnits="userSpaceOnUse"
       gradientTransform="translate(-22,-5)"
       x1="9.75"
       y1="5"
       x2="9.75"
       y2="19.055693" />
    <linearGradient
       inkscape:collect="always"
       xlink:href="#StandardGradient"
       id="linearGradient3228"
       x1="6.7010484"
       y1="1"
       x2="6.7010484"
       y2="15.001111"
       gradientUnits="userSpaceOnUse" />
    <inkscape:perspective
       id="perspective3648"
       inkscape:persp3d-origin="0.5 : 0.33333333 : 1"
       inkscape:vp_z="1 : 0.5 : 1"
       inkscape:vp_y="0 : 1000 : 0"
       inkscape:vp_x="0 : 0.5 : 1"
       sodipodi:type="inkscape:persp3d" />
    <inkscape:perspective
       id="perspective2876"
       inkscape:persp3d-origin="0.5 : 0.33333333 : 1"
       inkscape:vp_z="1 : 0.5 : 1"
       inkscape:vp_y="0 : 1000 : 0"
       inkscape:vp_x="0 : 0.5 : 1"
       sodipodi:type="inkscape:persp3d" />
    <linearGradient
       y2="45.017357"
       x2="20.758585"
       y1="1"
       x1="20.758585"
       gradientTransform="matrix(0.41860332,0,0,0.41860332,0.9535131,1.3721447)"
       gradientUnits="userSpaceOnUse"
       id="linearGradient4427"
       xlink:href="#StandardGradient-9"
       inkscape:collect="always" />
    <linearGradient
       id="StandardGradient-9">
      <stop
         style="stop-color:#000000;stop-opacity:0.86274511;"
         offset="0"
         id="stop3389-8" />
      <stop
         style="stop-color:#000000;stop-opacity:0.47058824;"
         offset="1"
         id="stop3391-3" />
    </linearGradient>
    <linearGradient
       y2="45.017357"
       x2="20.758585"
       y1="1"
       x1="20.758585"
       gradientTransform="matrix(0.27906888,0,0,0.27906888,1.3023421,1.5814282)"
       gradientUnits="userSpaceOnUse"
       id="linearGradient2885"
       xlink:href="#StandardGradient-9"
       inkscape:collect="always" />
    <linearGradient
       inkscape:collect="always"
       xlink:href="#StandardGradient-9"
       id="linearGradient2891"
       gradientUnits="userSpaceOnUse"
       gradientTransform="matrix(0.27906888,0,0,0.27906888,1.3023421,2.5814282)"
       x1="20.758585"
       y1="1"
       x2="20.758585"
       y2="45.017357" />
    <linearGradient
       inkscape:collect="always"
       xlink:href="#StandardGradient-9"
       id="linearGradient2893"
       gradientUnits="userSpaceOnUse"
       gradientTransform="matrix(0.27906888,0,0,0.27906888,1.3023421,1.5814282)"
       x1="20.758585"
       y1="1"
       x2="20.758585"
       y2="45.017357" />
    <linearGradient
       inkscape:collect="always"
       xlink:href="#StandardGradient-9"
       id="linearGradient3670"
       gradientUnits="userSpaceOnUse"
       gradientTransform="matrix(0.27906888,0,0,0.27906888,1.3023421,2.5814282)"
       x1="20.758585"
       y1="1"
       x2="20.758585"
       y2="45.017357" />
    <linearGradient
       inkscape:collect="always"
       xlink:href="#StandardGradient-9"
       id="linearGradient3674"
       gradientUnits="userSpaceOnUse"
       gradientTransform="matrix(0.27906888,0,0,0.27906888,1.3023421,1.5814282)"
       x1="20.758585"
       y1="1"
       x2="20.758585"
       y2="45.017357" />
    <linearGradient
       inkscape:collect="always"
       xlink:href="#StandardGradient-9"
       id="linearGradient3679"
       gradientUnits="userSpaceOnUse"
       gradientTransform="matrix(0.27906888,0,0,0.27906888,-18.697658,1.5814282)"
       x1="20.758585"
       y1="1"
       x2="20.758585"
       y2="45.017357" />
    <clipPath
       clipPathUnits="userSpaceOnUse"
       id="clipPath3686">
      <path
         style="fill:#ff00ff;fill-opacity:1;stroke:none;display:inline"
         d="m -20,0 0,16 16,0 0,-16 -16,0 z m 7.15625,2 1.6875,0 c 0.236127,0 0.40625,0.1973338 0.40625,0.4375 l 0,0.84375 c 0.422214,0.1124949 0.818378,0.2853208 1.1875,0.5 l 0.625,-0.59375 c 0.169822,-0.1698 0.426778,-0.1982162 0.59375,-0.03125 l 1.1875,1.1875 c 0.166988,0.166968 0.13857,0.4239286 -0.03125,0.59375 l -0.59375,0.625 c 0.214677,0.3691225 0.387506,0.7652869 0.5,1.1875 l 0.84375,0 C -6.197338,6.75 -6,6.9201224 -6,7.15625 l 0,1.6875 C -6,9.0798786 -6.197348,9.2500183 -6.4375,9.25 l -0.84375,0 c -0.112494,0.4222147 -0.285323,0.81838 -0.5,1.1875 l 0.59375,0.625 c 0.1698,0.169822 0.198217,0.426782 0.03125,0.59375 l -1.1875,1.1875 c -0.166968,0.166988 -0.42393,0.13857 -0.59375,-0.03125 l -0.625,-0.59375 c -0.369122,0.214678 -0.765286,0.387506 -1.1875,0.5 l 0,0.84375 c 0,0.240164 -0.170121,0.4375 -0.40625,0.4375 l -1.6875,0 C -13.07988,14 -13.25,13.802664 -13.25,13.5625 l 0,-0.84375 c -0.422213,-0.112494 -0.818378,-0.285322 -1.1875,-0.5 l -0.625,0.59375 c -0.169822,0.1698 -0.426783,0.198218 -0.59375,0.03125 l -1.1875,-1.1875 c -0.166988,-0.166968 -0.138572,-0.423928 0.03125,-0.59375 l 0.59375,-0.625 c -0.214677,-0.36912 -0.387503,-0.7652854 -0.5,-1.1875 l -0.84375,0 C -17.802664,9.25 -18,9.079878 -18,8.84375 l 0,-1.6875 C -18,6.9201214 -17.802654,6.75 -17.5625,6.75 l 0.84375,0 c 0.112497,-0.422214 0.28532,-0.8183783 0.5,-1.1875 l -0.59375,-0.625 c -0.169801,-0.1698223 -0.198217,-0.426782 -0.03125,-0.59375 l 1.1875,-1.1875 c 0.08348,-0.083478 0.202616,-0.1259428 0.3125,-0.125 0.109883,9.3e-4 0.19634,0.071341 0.28125,0.15625 l 0.625,0.59375 c 0.369122,-0.2146783 0.765286,-0.387506 1.1875,-0.5 l 0,-0.84375 C -13.25,2.1973355 -13.07988,2 -12.84375,2 z M -12,6.1875 c -1.001298,0 -1.8125,0.8112009 -1.8125,1.8125 0,1.0013006 0.811202,1.8125 1.8125,1.8125 1.001299,0 1.8125,-0.8111994 1.8125,-1.8125 0,-1.0012991 -0.811199,-1.8125 -1.8125,-1.8125 z"
         id="path3688" />
    </clipPath>
    <filter
       inkscape:collect="always"
       id="filter3690">
      <feGaussianBlur
         inkscape:collect="always"
         stdDeviation="0.35999982"
         id="feGaussianBlur3692" />
    </filter>
    <linearGradient
       inkscape:collect="always"
       xlink:href="#StandardGradient-9"
       id="linearGradient3987"
       gradientUnits="userSpaceOnUse"
       gradientTransform="matrix(0.27906888,0,0,0.27906888,1.3023421,1.5814282)"
       x1="20.758585"
       y1="1"
       x2="20.758585"
       y2="45.017357" />
    <linearGradient
       inkscape:collect="always"
       xlink:href="#StandardGradient-9"
       id="linearGradient3991"
       gradientUnits="userSpaceOnUse"
       gradientTransform="matrix(0.27906888,0,0,0.27906888,1.3023421,1.5814282)"
       x1="24.000017"
       y1="1.4998871"
       x2="20.758585"
       y2="45.017357" />
  </defs>
  <sodipodi:namedview
     id="base"
     pagecolor="#ffffff"
     bordercolor="#e7e7e7"
     borderopacity="1"
     inkscape:pageopacity="0.0"
     inkscape:pageshadow="2"
     inkscape:zoom="24.711919"
     inkscape:cx="-0.81106034"
     inkscape:cy="5.4569417"
     inkscape:document-units="px"
     inkscape:current-layer="layer1"
     showgrid="true"
     inkscape:showpageshadow="false"
     showguides="true"
     inkscape:guide-bbox="true"
     inkscape:window-width="1920"
     inkscape:window-height="1029"
     inkscape:window-x="0"
     inkscape:window-y="25"
     inkscape:window-maximized="1">
    <sodipodi:guide
       orientation="1,0"
       position="0,112"
       id="guide2383" />
    <sodipodi:guide
       orientation="0,1"
       position="78.156291,0"
       id="guide2389" />
    <inkscape:grid
       type="xygrid"
       id="grid3672"
       visible="true"
       enabled="true" />
    <sodipodi:guide
       orientation="1,0"
       position="22.008699,4.1542523"
       id="guide2950" />
    <sodipodi:guide
       orientation="0,1"
       position="11.22532,22.008699"
       id="guide2952" />
  </sodipodi:namedview>
  <metadata
     id="metadata7">
    <rdf:RDF>
      <cc:Work
         rdf:about="">
        <dc:format>image/svg+xml</dc:format>
        <dc:type
           rdf:resource="http://purl.org/dc/dcmitype/StillImage" />
      </cc:Work>
    </rdf:RDF>
  </metadata>
  <g
     inkscape:label="Calque 1"
     inkscape:groupmode="layer"
     id="layer1">
    <path
       style="fill:#ffffff;fill-opacity:1;fill-rule:nonzero;stroke:none;stroke-width:1;marker:none;visibility:visible;display:block;overflow:visible;enable-background:accumulate;opacity:0.15"
       d="M 7.15625 1 C 6.3564871 1 5.75 1.7195985 5.75 2.4375 L 5.75 2.59375 L 5.65625 2.46875 C 5.6528414 2.4653416 5.6286713 2.4724081 5.625 2.46875 C 5.4887018 2.3329415 5.1796649 2.0356799 4.65625 2.03125 C 4.2794837 2.0280173 3.9274657 2.1350546 3.625 2.4375 L 2.4375 3.625 C 1.8708789 4.1916248 1.9949909 5.1284693 2.46875 5.625 L 2.59375 5.75 L 2.4375 5.75 C 1.7195944 5.75 1 6.3564846 1 7.15625 L 1 8.84375 C 1 9.6435157 1.7195929 10.25 2.4375 10.25 L 2.59375 10.25 L 2.46875 10.375 C 1.9949673 10.871525 1.8708568 11.80839 2.4375 12.375 L 3.625 13.5625 C 4.1916423 14.129146 5.128477 14.004973 5.625 13.53125 L 5.65625 13.53125 L 5.75 13.40625 L 5.75 13.5625 C 5.75 14.280402 6.3564857 15 7.15625 15 L 8.84375 15 C 9.6435153 15 10.25 14.280404 10.25 13.5625 L 10.25 13.40625 L 10.375 13.53125 C 10.871514 14.005022 11.808385 14.129183 12.375 13.5625 L 13.5625 12.375 C 14.129137 11.808359 14.004973 10.871523 13.53125 10.375 L 13.40625 10.25 L 13.5625 10.25 C 14.280501 10.250055 15 9.643522 15 8.84375 L 15 7.15625 C 15 6.3564766 14.280411 5.75 13.5625 5.75 L 13.40625 5.75 L 13.53125 5.65625 L 13.53125 5.625 C 14.005016 5.1284877 14.129181 4.1916128 13.5625 3.625 L 12.375 2.4375 C 11.808365 1.8708844 10.871518 1.9950315 10.375 2.46875 C 10.368095 2.4753383 10.350481 2.4620196 10.34375 2.46875 L 10.25 2.59375 L 10.25 2.4375 C 10.25 1.7195926 9.6435118 1 8.84375 1 L 7.15625 1 z M 7.15625 2 L 8.84375 2 C 9.0798773 2 9.25 2.1973338 9.25 2.4375 L 9.25 3.28125 C 9.672214 3.3937449 10.068378 3.5665708 10.4375 3.78125 L 11.0625 3.1875 C 11.232322 3.0177 11.489278 2.9892838 11.65625 3.15625 L 12.84375 4.34375 C 13.010738 4.510718 12.98232 4.7676786 12.8125 4.9375 L 12.21875 5.5625 C 12.433427 5.9316225 12.606256 6.3277869 12.71875 6.75 L 13.5625 6.75 C 13.802662 6.75 14 6.9201224 14 7.15625 L 14 8.84375 C 14 9.0798786 13.802662 9.2500183 13.5625 9.25 L 12.71875 9.25 C 12.606256 9.6722147 12.433427 10.06838 12.21875 10.4375 L 12.8125 11.0625 C 12.9823 11.232322 13.010717 11.489282 12.84375 11.65625 L 11.65625 12.84375 C 11.489282 13.010738 11.23232 12.98232 11.0625 12.8125 L 10.4375 12.21875 C 10.068378 12.433428 9.672214 12.606256 9.25 12.71875 L 9.25 13.5625 C 9.25 13.802664 9.0798793 14 8.84375 14 L 7.15625 14 C 6.92012 14 6.75 13.802664 6.75 13.5625 L 6.75 12.71875 C 6.3277866 12.606256 5.9316219 12.433428 5.5625 12.21875 L 4.9375 12.8125 C 4.7676779 12.9823 4.5107168 13.010718 4.34375 12.84375 L 3.15625 11.65625 C 2.9892721 11.489282 3.0176781 11.232322 3.1875 11.0625 L 3.78125 10.4375 C 3.5665733 10.06838 3.3937468 9.6722146 3.28125 9.25 L 2.4375 9.25 C 2.1973355 9.25 2 9.079878 2 8.84375 L 2 7.15625 C 2 6.9201214 2.1973357 6.75 2.4375 6.75 L 3.28125 6.75 C 3.3937468 6.327786 3.56657 5.9316217 3.78125 5.5625 L 3.1875 4.9375 C 3.0176889 4.7676777 2.9892831 4.510718 3.15625 4.34375 L 4.34375 3.15625 C 4.4272336 3.072772 4.5463664 3.0303072 4.65625 3.03125 C 4.7661339 3.03218 4.8525872 3.1025914 4.9375 3.1875 L 5.5625 3.78125 C 5.9316218 3.5665717 6.3277865 3.393744 6.75 3.28125 L 6.75 2.4375 C 6.75 2.1973355 6.92012 2 7.15625 2 z M 8 6.1875 C 6.9987014 6.1875 6.1875 6.9987009 6.1875 8 C 6.1875 9.0013006 6.9987014 9.8125 8 9.8125 C 9.0012987 9.8125 9.8125 9.0013006 9.8125 8 C 9.8125 6.9987009 9.0013007 6.1875 8 6.1875 z M 8 7.1875 C 8.4549064 7.1875 8.8125 7.545095 8.8125 8 C 8.8125 8.4549059 8.4549043 8.8125 8 8.8125 C 7.5450959 8.8125 7.1875 8.4549059 7.1875 8 C 7.1875 7.5450964 7.5450969 7.1875 8 7.1875 z "
       id="path3989" />
    <path
       d="m 7.17151,2.0000327 c -0.23613,0 -0.427326,0.1958795 -0.427326,0.436044 l 0,0.845928 C 6.3219705,3.3944987 5.9185437,3.5644179 5.5494219,3.7790962 L 4.9476788,3.1773545 C 4.862766,3.0924459 4.7610524,3.0474707 4.6511685,3.0465407 4.5412849,3.0455979 4.4294211,3.085155 4.3459375,3.168633 L 3.1686152,4.3459539 c -0.1669669,0.166968 -0.1611011,0.4319211 0.00871,0.6017434 l 0.6017428,0.6017409 c -0.21468,0.3691217 -0.3845992,0.7725497 -0.497096,1.1947637 l -0.8459268,0 C 2.1958809,6.7442019 2,6.9353987 2,7.1715273 l 0,1.656971 c 0,0.236128 0.1958809,0.4273254 0.4360454,0.4273254 l 0.8459268,0 C 3.394469,9.6780383 3.5643883,10.081466 3.779065,10.450586 l -0.601743,0.601743 c -0.1698219,0.169822 -0.1756879,0.434773 -0.00871,0.601741 l 1.1773223,1.177323 c 0.1669668,0.166968 0.4319192,0.1611 0.6017413,-0.0087 L 5.549422,12.22093 c 0.3691219,0.214678 0.7725487,0.384598 1.1947621,0.497092 l 0,0.845928 c 0,0.240164 0.191196,0.436045 0.427326,0.436045 l 1.6569706,0 c 0.2361293,0 0.4273246,-0.195881 0.4273246,-0.436045 l 0,-0.845928 c 0.422214,-0.112494 0.8256417,-0.282414 1.1947637,-0.497092 l 0.601744,0.601744 c 0.16982,0.16982 0.434773,0.175688 0.601741,0.0087 l 1.177321,-1.177323 c 0.166967,-0.166968 0.1611,-0.43192 -0.0087,-0.601742 l -0.601739,-0.601744 c 0.214677,-0.36912 0.384597,-0.7725483 0.497091,-1.194763 l 0.845929,0 C 13.804118,9.2558203 14,9.0646243 14,8.8284957 L 14,7.1715238 C 14,6.9353962 13.804118,6.7441993 13.563956,6.7441993 l -0.845929,0 C 12.605533,6.3219862 12.435613,5.9185582 12.220936,5.5494357 l 0.601743,-0.6017418 c 0.16982,-0.1698214 0.175688,-0.4347737 0.0087,-0.6017417 l -1.17732,-1.1773235 c -0.166972,-0.1669662 -0.431922,-0.1611 -0.601744,0.0087 L 10.45057,3.7790722 C 10.081448,3.564393 9.6780207,3.3944739 9.2558067,3.281979 l 0,-0.8459263 c 0,-0.2401662 -0.1911954,-0.4360457 -0.4273227,-0.4360457 l -1.6569713,0 z m 0.8284853,4.186032 c 1.0013007,0 1.8139487,0.8126486 1.8139487,1.8139477 0,1.0013006 -0.81265,1.8139473 -1.8139487,1.8139473 -1.0012986,0 -1.8139478,-0.8126467 -1.8139478,-1.8139473 0,-1.0012991 0.8126492,-1.8139477 1.8139478,-1.8139477 z"
       id="rect3267"
       style="fill:url(#linearGradient2885);fill-opacity:1;fill-rule:nonzero;stroke:none;stroke-width:1;marker:none;visibility:visible;display:block;overflow:visible;enable-background:accumulate" />
    <path
       style="fill:#000000;fill-opacity:1;fill-rule:nonzero;stroke:none;stroke-width:1;marker:none;visibility:visible;display:block;overflow:visible;enable-background:accumulate;opacity:0.5"
       d="M 7.15625 2 C 6.92012 2 6.75 2.1973355 6.75 2.4375 L 6.75 3.28125 C 6.3277865 3.393744 5.9316218 3.5665717 5.5625 3.78125 L 4.9375 3.1875 C 4.8525872 3.1025914 4.7661339 3.03218 4.65625 3.03125 C 4.5463664 3.0303072 4.4272336 3.072772 4.34375 3.15625 L 3.15625 4.34375 C 2.9892831 4.510718 3.0176889 4.7676777 3.1875 4.9375 L 3.375 5.125 L 4.34375 4.15625 C 4.4272336 4.072772 4.5463664 4.0303072 4.65625 4.03125 C 4.7661339 4.03218 4.8525872 4.1025914 4.9375 4.1875 L 5.5625 4.78125 C 5.9316218 4.5665717 6.3277865 4.393744 6.75 4.28125 L 6.75 3.4375 C 6.75 3.1973355 6.92012 3 7.15625 3 L 8.84375 3 C 9.0798773 3 9.25 3.1973338 9.25 3.4375 L 9.25 4.28125 C 9.672214 4.3937449 10.068378 4.5665708 10.4375 4.78125 L 11.0625 4.1875 C 11.232322 4.0177 11.489278 3.9892838 11.65625 4.15625 L 12.625 5.125 L 12.8125 4.9375 C 12.98232 4.7676786 13.010738 4.510718 12.84375 4.34375 L 11.65625 3.15625 C 11.489278 2.9892838 11.232322 3.0177 11.0625 3.1875 L 10.4375 3.78125 C 10.068378 3.5665708 9.672214 3.3937449 9.25 3.28125 L 9.25 2.4375 C 9.25 2.1973338 9.0798773 2 8.84375 2 L 7.15625 2 z M 3.46875 6.21875 C 3.4010878 6.3903619 3.329105 6.5703945 3.28125 6.75 L 2.4375 6.75 C 2.1973357 6.75 2 6.9201214 2 7.15625 L 2 8.15625 C 2 7.9201214 2.1973357 7.75 2.4375 7.75 L 3.28125 7.75 C 3.3937468 7.327786 3.56657 6.9316217 3.78125 6.5625 L 3.46875 6.21875 z M 12.53125 6.21875 L 12.21875 6.5625 C 12.433427 6.9316225 12.606256 7.3277869 12.71875 7.75 L 13.5625 7.75 C 13.802662 7.75 14 7.9201224 14 8.15625 L 14 7.15625 C 14 6.9201224 13.802662 6.75 13.5625 6.75 L 12.71875 6.75 C 12.670896 6.5703949 12.598912 6.3903618 12.53125 6.21875 z M 6.25 8.5 C 6.2066931 8.6552639 6.1875 8.8309851 6.1875 9 C 6.1875 10.001301 6.9987014 10.8125 8 10.8125 C 9.0012987 10.8125 9.8125 10.001301 9.8125 9 C 9.8125 8.8309851 9.7933069 8.6552639 9.75 8.5 C 9.5367425 9.26457 8.8322839 9.8125 8 9.8125 C 7.1677162 9.8125 6.4632573 9.26457 6.25 8.5 z M 3.46875 10.78125 L 3.1875 11.0625 C 3.0176781 11.232322 2.9892721 11.489282 3.15625 11.65625 L 3.375 11.875 L 3.78125 11.4375 C 3.6578946 11.2254 3.5601468 11.013061 3.46875 10.78125 z M 12.53125 10.78125 C 12.439853 11.013061 12.342106 11.2254 12.21875 11.4375 L 12.625 11.875 L 12.84375 11.65625 C 13.010717 11.489282 12.9823 11.232322 12.8125 11.0625 L 12.53125 10.78125 z "
       id="path2887" />
    <path
       style="fill:#ffffff;fill-opacity:1;fill-rule:nonzero;stroke:none;stroke-width:1;marker:none;visibility:visible;display:block;overflow:visible;enable-background:accumulate;opacity:0.3"
       d="M 3.375 5.125 L 3.15625 5.34375 C 2.9892831 5.510718 3.0176889 5.7676777 3.1875 5.9375 L 3.46875 6.21875 C 3.5601472 5.9869392 3.6578927 5.7746011 3.78125 5.5625 L 3.375 5.125 z M 12.625 5.125 L 12.21875 5.5625 C 12.342106 5.7746016 12.439853 5.9869392 12.53125 6.21875 L 12.8125 5.9375 C 12.98232 5.7676786 13.010738 5.510718 12.84375 5.34375 L 12.625 5.125 z M 8 6.1875 C 6.9987014 6.1875 6.1875 6.9987009 6.1875 8 C 6.1875 8.1690152 6.2066931 8.344736 6.25 8.5 C 6.4632573 7.7354304 7.1677162 7.1875 8 7.1875 C 8.8322855 7.1875 9.5367429 7.7354304 9.75 8.5 C 9.793307 8.344736 9.8125 8.1690152 9.8125 8 C 9.8125 6.9987009 9.0013007 6.1875 8 6.1875 z M 2 8.84375 L 2 9.84375 C 2 10.079878 2.1973355 10.25 2.4375 10.25 L 3.28125 10.25 C 3.329105 10.429606 3.401088 10.609638 3.46875 10.78125 L 3.78125 10.4375 C 3.5665733 10.06838 3.3937468 9.672214 3.28125 9.25 L 2.4375 9.25 C 2.1973355 9.25 2 9.0798777 2 8.84375 z M 14 8.84375 C 14 9.0798783 13.802662 9.250018 13.5625 9.25 L 12.71875 9.25 C 12.606256 9.672215 12.433427 10.06838 12.21875 10.4375 L 12.53125 10.78125 C 12.598912 10.609638 12.670896 10.429606 12.71875 10.25 L 13.5625 10.25 C 13.802662 10.250018 14 10.079878 14 9.84375 L 14 8.84375 z M 3.375 11.875 L 3.1875 12.0625 C 3.0176781 12.232322 2.9892721 12.489282 3.15625 12.65625 L 4.34375 13.84375 C 4.5107168 14.010718 4.7676779 13.9823 4.9375 13.8125 L 5.5625 13.21875 C 5.9316219 13.433428 6.3277866 13.606256 6.75 13.71875 L 6.75 14.5625 C 6.75 14.802664 6.92012 15 7.15625 15 L 8.84375 15 C 9.0798793 15 9.25 14.802664 9.25 14.5625 L 9.25 13.71875 C 9.672214 13.606256 10.068378 13.433428 10.4375 13.21875 L 11.0625 13.8125 C 11.23232 13.98232 11.489282 14.010738 11.65625 13.84375 L 12.84375 12.65625 C 13.010717 12.489282 12.9823 12.232322 12.8125 12.0625 L 12.625 11.875 L 11.65625 12.84375 C 11.489282 13.010738 11.23232 12.98232 11.0625 12.8125 L 10.4375 12.21875 C 10.068378 12.433428 9.672214 12.606256 9.25 12.71875 L 9.25 13.5625 C 9.25 13.802664 9.0798793 14 8.84375 14 L 7.15625 14 C 6.92012 14 6.75 13.802664 6.75 13.5625 L 6.75 12.71875 C 6.3277866 12.606256 5.9316219 12.433428 5.5625 12.21875 L 4.9375 12.8125 C 4.7676779 12.9823 4.5107168 13.010718 4.34375 12.84375 L 3.375 11.875 z "
       id="path3668" />
  </g>
</svg>
