<?xml version="1.0" encoding="UTF-8" standalone="no"?>
<!-- Created with Inkscape (http://www.inkscape.org/) -->

<svg
   xmlns:dc="http://purl.org/dc/elements/1.1/"
   xmlns:cc="http://creativecommons.org/ns#"
   xmlns:rdf="http://www.w3.org/1999/02/22-rdf-syntax-ns#"
   xmlns:svg="http://www.w3.org/2000/svg"
   xmlns="http://www.w3.org/2000/svg"
   xmlns:xlink="http://www.w3.org/1999/xlink"
   xmlns:sodipodi="http://sodipodi.sourceforge.net/DTD/sodipodi-0.dtd"
   xmlns:inkscape="http://www.inkscape.org/namespaces/inkscape"
   width="16"
   height="16"
   id="svg2"
   sodipodi:version="0.32"
   inkscape:version="0.48.0 r9654"
   version="1.0"
   sodipodi:docname="view-refresh.svg"
   inkscape:output_extension="org.inkscape.output.svg.inkscape">
  <defs
     id="defs4">
    <inkscape:perspective
       sodipodi:type="inkscape:persp3d"
       inkscape:vp_x="0 : 8 : 1"
       inkscape:vp_y="0 : 1000 : 0"
       inkscape:vp_z="16 : 8 : 1"
       inkscape:persp3d-origin="8 : 5.3333333 : 1"
       id="perspective16" />
    <linearGradient
       id="StandardGradient"
       gradientTransform="scale(1.0784122,0.9272892)"
       x1="9.0752506"
       y1="2.2159534"
       x2="9.0752506"
       y2="13.952041"
       gradientUnits="userSpaceOnUse">
      <stop
         style="stop-color:#000000;stop-opacity:0.86274511;"
         offset="0"
         id="stop3280" />
      <stop
         style="stop-color:#000000;stop-opacity:0.47058824;"
         offset="1"
         id="stop3282" />
    </linearGradient>
    <inkscape:perspective
       id="perspective3697"
       inkscape:persp3d-origin="0.5 : 0.33333333 : 1"
       inkscape:vp_z="1 : 0.5 : 1"
       inkscape:vp_y="0 : 1000 : 0"
       inkscape:vp_x="0 : 0.5 : 1"
       sodipodi:type="inkscape:persp3d" />
    <linearGradient
       inkscape:collect="always"
       xlink:href="#StandardGradient"
       id="linearGradient3625"
       gradientUnits="userSpaceOnUse"
       gradientTransform="matrix(1.0784122,0,0,0.9272892,-20,0)"
       x1="9.0752506"
       y1="2.2159534"
       x2="9.0752506"
       y2="13.952041" />
    <clipPath
       clipPathUnits="userSpaceOnUse"
       id="clipPath3632">
      <path
         style="fill:#ff00ff;fill-opacity:1;stroke:none;display:inline"
         d="m -20,0 0,16 16,0 0,-16 -16,0 z m 8.09375,2.0625 c 0.173909,-0.017258 0.321577,0 0.5,0 2.967459,0 5.375001,2.4264215 5.375,5.4375 0,2.864578 -2.17034,5.215497 -4.9375,5.4375 l 0,-1.84375 C -9.191791,10.880677 -7.8125,9.3611571 -7.8125,7.5 c 0,-2.0073863 -1.615444,-3.624999 -3.59375,-3.625 -1.86764,0 -3.365967,1.4304651 -3.53125,3.28125 l 1.875,0 -2.90625,4.09375 -2.71875,-4.09375 1.9375,0 c 0.162577,-2.6743762 2.235116,-4.834874 4.84375,-5.09375 z"
         id="path3634" />
    </clipPath>
    <filter
       inkscape:collect="always"
       id="filter3611">
      <feGaussianBlur
         inkscape:collect="always"
         stdDeviation="0.3530838"
         id="feGaussianBlur3613" />
    </filter>
    <linearGradient
       inkscape:collect="always"
       xlink:href="#StandardGradient"
       id="linearGradient3999"
       gradientUnits="userSpaceOnUse"
       gradientTransform="scale(1.0784122,0.9272892)"
       x1="9.0752506"
       y1="2.2159534"
       x2="9.0752506"
       y2="13.952041" />
    <linearGradient
       inkscape:collect="always"
       xlink:href="#StandardGradient"
       id="linearGradient4003"
       gradientUnits="userSpaceOnUse"
       gradientTransform="scale(1.0784122,0.9272892)"
       x1="9.0752506"
       y1="2.2159534"
       x2="9.0752506"
       y2="13.952041" />
  </defs>
  <sodipodi:namedview
     id="base"
     pagecolor="#ffffff"
     bordercolor="#9a9a9a"
     borderopacity="1"
     inkscape:pageopacity="0.0"
     inkscape:pageshadow="2"
     inkscape:zoom="13.418256"
     inkscape:cx="-31.005733"
     inkscape:cy="-1.1689599"
     inkscape:document-units="px"
     inkscape:current-layer="layer3"
     showgrid="true"
     inkscape:showpageshadow="false"
     showguides="true"
     inkscape:guide-bbox="true"
     inkscape:window-width="1920"
     inkscape:window-height="1029"
     inkscape:window-x="0"
     inkscape:window-y="25"
     inkscape:window-maximized="1">
    <sodipodi:guide
       orientation="0,1"
       position="26.278146,128"
       id="guide2385" />
    <sodipodi:guide
       orientation="1,0"
       position="128,54.082119"
       id="guide2387" />
    <inkscape:grid
       type="xygrid"
       id="grid3672"
       visible="true"
       enabled="true" />
  </sodipodi:namedview>
  <metadata
     id="metadata7">
    <rdf:RDF>
      <cc:Work
         rdf:about="">
        <dc:format>image/svg+xml</dc:format>
        <dc:type
           rdf:resource="http://purl.org/dc/dcmitype/StillImage" />
      </cc:Work>
    </rdf:RDF>
  </metadata>
  <g
     inkscape:groupmode="layer"
     id="layer3"
     inkscape:label="Arrow"
     style="display:inline">
    <path
       style="fill:#ffffff;fill-opacity:1;stroke:none;opacity:0.15"
       d="M 8 1.03125 C 5.2130379 1.3078229 3.0291061 3.4208286 2.4375 6.125 L 1.3125 6.125 A 1.043459 1.043459 0 0 0 0.4375 7.71875 L 3.15625 11.8125 A 1.043459 1.043459 0 0 0 4.875 11.84375 L 7.78125 7.75 A 1.043459 1.043459 0 0 0 6.9375 6.125 L 6.65625 6.125 C 7.1000382 5.4478995 7.7139111 4.90625 8.59375 4.90625 C 10.003306 4.9062507 11.15625 6.0523734 11.15625 7.5 C 11.15625 8.845675 10.16438 9.9116391 8.90625 10.0625 A 1.043459 1.043459 0 0 0 8 11.09375 L 8 12.9375 A 1.043459 1.043459 0 0 0 9.125 13.96875 C 12.434092 13.703269 15 10.891575 15 7.5 C 15.000001 3.9327706 12.12996 1.03125 8.59375 1.03125 C 8.4826068 1.03125 8.2996825 1.0015108 8 1.03125 z M 8.09375 2.0625 C 8.2676589 2.0452416 8.4153275 2.0625 8.59375 2.0625 C 11.561209 2.0625 13.968751 4.4889215 13.96875 7.5 C 13.96875 10.364578 11.79841 12.715497 9.03125 12.9375 L 9.03125 11.09375 C 10.808209 10.880677 12.1875 9.3611571 12.1875 7.5 C 12.1875 5.4926137 10.572056 3.875001 8.59375 3.875 C 6.72611 3.875 5.2277829 5.3054651 5.0625 7.15625 L 6.9375 7.15625 L 4.03125 11.25 L 1.3125 7.15625 L 3.25 7.15625 C 3.4125772 4.4818738 5.4851158 2.321376 8.09375 2.0625 z "
       id="path4001" />
    <path
       style="opacity:1;fill:url(#StandardGradient);fill-opacity:1;stroke:none;stroke-width:1;stroke-linecap:round;stroke-linejoin:miter;stroke-miterlimit:4;stroke-dasharray:none;stroke-opacity:1"
       d="M 8.09375,2.0625 C 5.4851158,2.321376 3.4125772,4.4818738 3.25,7.15625 L 1.3125,7.15625 L 4.03125,11.25 L 6.9375,7.15625 L 5.0625,7.15625 C 5.2277829,5.3054651 6.72611,3.875 8.59375,3.875 C 10.572056,3.875001 12.1875,5.4926137 12.1875,7.5 C 12.1875,9.3611571 10.808209,10.880677 9.03125,11.09375 L 9.03125,12.9375 C 11.79841,12.715497 13.96875,10.364578 13.96875,7.5 C 13.968751,4.4889215 11.561209,2.0625 8.59375,2.0625 C 8.4153275,2.0625 8.2676589,2.0452416 8.09375,2.0625 z"
       id="Symbol"
       inkscape:label="#path3281" />
    <path
       style="opacity:0.5;fill:#000000;fill-opacity:1;stroke:none;stroke-width:1;stroke-linecap:round;stroke-linejoin:miter;stroke-miterlimit:4;stroke-dasharray:none;stroke-opacity:1"
       d="M 8.09375 2.0625 C 5.4851158 2.321376 3.4125772 4.4818738 3.25 7.15625 L 1.3125 7.15625 L 2.03125 8.21875 L 3.25 8.21875 C 3.4125772 5.5443738 5.4851158 3.383876 8.09375 3.125 C 8.2676589 3.1077416 8.4153275 3.125 8.59375 3.125 C 11.375743 3.125 13.662133 5.2523731 13.9375 8 C 13.952206 7.8353443 13.96875 7.6685409 13.96875 7.5 C 13.968751 4.4889215 11.561209 2.0625 8.59375 2.0625 C 8.4153275 2.0625 8.2676589 2.0452416 8.09375 2.0625 z M 5.3125 7.15625 C 5.1770877 7.4889347 5.0960605 7.8429504 5.0625 8.21875 L 6.1875 8.21875 L 6.9375 7.15625 L 5.3125 7.15625 z M 12.125 8.03125 C 11.892076 9.6442821 10.636157 10.901308 9.03125 11.09375 L 9.03125 12.15625 C 10.808209 11.943177 12.1875 10.423657 12.1875 8.5625 C 12.1875 8.3765437 12.15173 8.2095406 12.125 8.03125 z "
       id="BevelShadow"
       inkscape:label="#path3169" />
    <path
       style="opacity:0.3;fill:#ffffff;fill-opacity:1;stroke:none;stroke-width:1;stroke-linecap:round;stroke-linejoin:miter;stroke-miterlimit:4;stroke-dasharray:none;stroke-opacity:1"
       d="M 8.59375 3.875 C 6.72611 3.875 5.2277829 5.3054651 5.0625 7.15625 L 5.3125 7.15625 C 5.8439831 5.8504877 7.105332 4.9375 8.59375 4.9375 C 10.388794 4.9375009 11.863182 6.284905 12.125 8.03125 C 12.14997 7.8583271 12.1875 7.6802042 12.1875 7.5 C 12.1875 5.4926137 10.572056 3.875001 8.59375 3.875 z M 12.125 8.03125 C 12.098819 8.2125557 12.051072 8.391196 12 8.5625 C 12.053394 8.3874706 12.098214 8.216747 12.125 8.03125 z M 1.3125 7.15625 L 1.3125 8.21875 L 4.03125 12.3125 L 6.9375 8.21875 L 6.9375 7.15625 L 4.03125 11.25 L 1.3125 7.15625 z M 13.96875 7.5 C 13.96875 10.364578 11.79841 12.715497 9.03125 12.9375 L 9.03125 14 C 11.79841 13.777997 13.96875 11.427078 13.96875 8.5625 C 13.96875 8.2215838 13.96875 7.8551656 13.96875 7.5 z M 11.75 9.1875 C 11.666823 9.3475117 11.573658 9.5118305 11.46875 9.65625 C 11.578545 9.5078201 11.663488 9.3524568 11.75 9.1875 z M 10.5625 10.53125 C 10.434092 10.616862 10.2958 10.681602 10.15625 10.75 C 10.295039 10.682507 10.434368 10.615558 10.5625 10.53125 z M 10.15625 10.75 C 9.9827141 10.835056 9.8133911 10.91281 9.625 10.96875 C 9.8121266 10.913168 9.9832169 10.834146 10.15625 10.75 z "
       id="BevelHighlight"
       inkscape:label="#path3176" />
  </g>
</svg>
