<?xml version="1.0" encoding="UTF-8" standalone="no"?>
<!-- Created with Inkscape (http://www.inkscape.org/) -->

<svg
   xmlns:dc="http://purl.org/dc/elements/1.1/"
   xmlns:cc="http://creativecommons.org/ns#"
   xmlns:rdf="http://www.w3.org/1999/02/22-rdf-syntax-ns#"
   xmlns:svg="http://www.w3.org/2000/svg"
   xmlns="http://www.w3.org/2000/svg"
   xmlns:xlink="http://www.w3.org/1999/xlink"
   xmlns:sodipodi="http://sodipodi.sourceforge.net/DTD/sodipodi-0.dtd"
   xmlns:inkscape="http://www.inkscape.org/namespaces/inkscape"
   width="16"
   height="16"
   id="svg2"
   sodipodi:version="0.32"
   inkscape:version="0.48.0 r9654"
   version="1.0"
   sodipodi:docname="view-sort-ascending.svg"
   inkscape:output_extension="org.inkscape.output.svg.inkscape">
  <defs
     id="defs4">
    <inkscape:perspective
       sodipodi:type="inkscape:persp3d"
       inkscape:vp_x="0 : 8 : 1"
       inkscape:vp_y="0 : 1000 : 0"
       inkscape:vp_z="16 : 8 : 1"
       inkscape:persp3d-origin="8 : 5.3333333 : 1"
       id="perspective18" />
    <linearGradient
       id="StandardGradient"
       gradientTransform="scale(1.1467263,0.8720476)"
       x1="7.1904788"
       y1="6.9551144"
       x2="7.1904788"
       y2="18.319494"
       gradientUnits="userSpaceOnUse">
      <stop
         style="stop-color:#000000;stop-opacity:0.86274511;"
         offset="0"
         id="stop3280" />
      <stop
         style="stop-color:#000000;stop-opacity:0.47058824;"
         offset="1"
         id="stop3282" />
    </linearGradient>
    <inkscape:perspective
       id="perspective2849"
       inkscape:persp3d-origin="0.5 : 0.33333333 : 1"
       inkscape:vp_z="1 : 0.5 : 1"
       inkscape:vp_y="0 : 1000 : 0"
       inkscape:vp_x="0 : 0.5 : 1"
       sodipodi:type="inkscape:persp3d" />
    <linearGradient
       inkscape:collect="always"
       xlink:href="#StandardGradient"
       id="linearGradient3627"
       gradientUnits="userSpaceOnUse"
       gradientTransform="matrix(1.1467263,0,0,0.8720476,-20,0)"
       x1="7.1904788"
       y1="6.9551144"
       x2="7.1904788"
       y2="18.319494" />
    <clipPath
       clipPathUnits="userSpaceOnUse"
       id="clipPath3634">
      <path
         style="fill:#ff00ff;fill-opacity:1;stroke:none;display:inline"
         d="m -19.535739,2.999982 0,16 16.0000003,0 0,-16 -16.0000003,0 z m 12.0000003,3.0625 2.03125,0 0,4.625 c 0,1.550514 -1.261986,2.34375 -2.8125,2.34375 l -4.2187503,0 0,2.9375 -6,-3.96875 6,-4.09375 0,3.0625 3.0312503,0 c 1.792454,0 1.96875,-0.332819 1.96875,-2.1875 l 0,-2.71875 z"
         id="path3636" />
    </clipPath>
    <linearGradient
       inkscape:collect="always"
       xlink:href="#StandardGradient"
       id="linearGradient4993"
       gradientUnits="userSpaceOnUse"
       gradientTransform="scale(1.1467263,0.8720476)"
       x1="7.1904788"
       y1="6.9551144"
       x2="7.1904788"
       y2="18.319494" />
    <linearGradient
       inkscape:collect="always"
       xlink:href="#StandardGradient"
       id="linearGradient4997"
       gradientUnits="userSpaceOnUse"
       gradientTransform="matrix(1.1467263,0,0,0.8720476,-0.4642613,-2.999982)"
       x1="7.1904788"
       y1="6.9551144"
       x2="7.1904788"
       y2="18.319494" />
    <linearGradient
       inkscape:collect="always"
       xlink:href="#StandardGradient-0"
       id="linearGradient3842"
       gradientUnits="userSpaceOnUse"
       gradientTransform="matrix(0,-1.1310246,0.8841541,0,3,17)"
       x1="13.262311"
       y1="6.7861471"
       x2="-2.6524622"
       y2="6.7861471" />
    <linearGradient
       id="StandardGradient-0"
       gradientTransform="scale(1.1310246,0.8841541)"
       x1="11.162445"
       y1="5.6551228"
       x2="11.162445"
       y2="18.097509"
       gradientUnits="userSpaceOnUse">
      <stop
         style="stop-color:#000000;stop-opacity:0.86274511;"
         offset="0"
         id="stop3280-1" />
      <stop
         style="stop-color:#000000;stop-opacity:0.47058824;"
         offset="1"
         id="stop3282-2" />
    </linearGradient>
    <linearGradient
       inkscape:collect="always"
       xlink:href="#StandardGradient-0"
       id="linearGradient3060"
       gradientUnits="userSpaceOnUse"
       gradientTransform="matrix(0,-1.1310246,0.8841541,0,0,12)"
       x1="8.8415403"
       y1="6.7861471"
       x2="-2.6524622"
       y2="6.7861471" />
    <linearGradient
       inkscape:collect="always"
       xlink:href="#StandardGradient"
       id="linearGradient3840"
       gradientUnits="userSpaceOnUse"
       gradientTransform="matrix(0,-1.1310246,0.8841541,0,0.4642613,14.999982)"
       x1="8.8415403"
       y1="6.7861471"
       x2="-2.6524622"
       y2="6.7861471" />
    <linearGradient
       id="StandardGradient-2"
       gradientTransform="matrix(1.0765258,0,0,0.9227364,-0.00801316,0.1584665)"
       x1="10.005832"
       y1="4.1631975"
       x2="10.005832"
       y2="17.168188"
       gradientUnits="userSpaceOnUse">
      <stop
         id="stop3337"
         offset="0"
         style="stop-color:#ebebeb;stop-opacity:1;" />
      <stop
         id="stop3339"
         offset="1"
         style="stop-color:#aaaaaa;stop-opacity:1;" />
    </linearGradient>
  </defs>
  <sodipodi:namedview
     id="base"
     pagecolor="#ffffff"
     bordercolor="#9a9a9a"
     borderopacity="1"
     inkscape:pageopacity="0.0"
     inkscape:pageshadow="2"
     inkscape:zoom="19.197945"
     inkscape:cx="-19.296073"
     inkscape:cy="6.1321827"
     inkscape:document-units="px"
     inkscape:current-layer="layer3"
     showgrid="true"
     inkscape:showpageshadow="false"
     showguides="true"
     inkscape:guide-bbox="true"
     inkscape:window-width="1920"
     inkscape:window-height="1029"
     inkscape:window-x="0"
     inkscape:window-y="25"
     inkscape:window-maximized="1">
    <sodipodi:guide
       orientation="1,0"
       position="0,112"
       id="guide2383" />
    <sodipodi:guide
       orientation="0,1"
       position="26.278146,128"
       id="guide2385" />
    <sodipodi:guide
       orientation="1,0"
       position="128,54.082119"
       id="guide2387" />
    <sodipodi:guide
       orientation="0,1"
       position="78.156291,0"
       id="guide2389" />
    <inkscape:grid
       type="xygrid"
       id="grid3672"
       visible="true"
       enabled="true" />
  </sodipodi:namedview>
  <metadata
     id="metadata7">
    <rdf:RDF>
      <cc:Work
         rdf:about="">
        <dc:format>image/svg+xml</dc:format>
        <dc:type
           rdf:resource="http://purl.org/dc/dcmitype/StillImage" />
        <dc:title></dc:title>
      </cc:Work>
    </rdf:RDF>
  </metadata>
  <g
     inkscape:groupmode="layer"
     id="layer3"
     inkscape:label="Cross"
     style="display:inline"
     transform="translate(-0.4642613,-2.999982)">
    <path
       inkscape:connector-curvature="0"
       style="opacity:0.15;fill:#ffffff;fill-opacity:1;stroke:none;display:inline"
       d="m 2.9642613,3.9999821 c -1.3606722,0 -2.5,1.1393277 -2.5,2.5 0,1.3606723 1.1393277,2.5 2.5,2.5 1.3606723,0 2.5,-1.1393277 2.5,-2.5 0,-1.3606723 -1.1393278,-2.5 -2.5,-2.5 z m 0,5 c -1.3606723,0 -2.5,1.1393279 -2.5,2.4999999 0,1.360672 1.1393277,2.5 2.5,2.5 1.3606723,0 2.5,-1.139328 2.5,-2.5 0,-1.360672 -1.1393277,-2.4999999 -2.5,-2.4999999 z m 0,4.9999999 c -1.3606723,0 -2.5,1.139328 -2.5,2.5 0,1.360672 1.1393277,2.5 2.5,2.5 1.3606723,0 2.5,-1.139328 2.5,-2.5 0,-1.360672 -1.1393277,-2.5 -2.5,-2.5 z m 6.375,-9.9999999 a 0.98493494,0.98493494 0 0 0 -0.90625,1 l 0,3.9375 -1.96875,0 a 0.98493494,0.98493494 0 0 0 -0.78125,1.5937499 l 4.5624997,6.0625 a 0.98493494,0.98493494 0 0 0 1.5625,0 l 4.4375,-6.0625 a 0.98493494,0.98493494 0 0 0 -0.78125,-1.5937499 l -2,0 0,-3.9375 a 0.98493494,0.98493494 0 0 0 -1,-1 l -3.0312497,0 a 0.98493494,0.98493494 0 0 0 -0.09375,0 z m -6.375,1 c 0.828427,0 1.5,0.6715729 1.5,1.5 0,0.828427 -0.671573,1.5 -1.5,1.5 -0.828427,0 -1.5,-0.671573 -1.5,-1.5 0,-0.8284271 0.671573,-1.5 1.5,-1.5 z m 6.46875,0 3.0312497,0 0,4.9375 3,0 -4.4375,6.0624999 -4.5624997,-6.0624999 2.96875,0 0,-4.9375 z m -6.46875,5 c 0.828427,0 1.5,0.6715729 1.5,1.4999999 0,0.828427 -0.671573,1.5 -1.5,1.5 -0.828427,0 -1.5,-0.671573 -1.5,-1.5 0,-0.828427 0.671573,-1.4999999 1.5,-1.4999999 z m 0,4.9999999 c 0.828427,0 1.5,0.671573 1.5,1.5 0,0.828427 -0.671573,1.5 -1.5,1.5 -0.828427,0 -1.5,-0.671573 -1.5,-1.5 0,-0.828427 0.671573,-1.5 1.5,-1.5 z"
       id="path3867" />
    <path
       inkscape:connector-curvature="0"
       style="fill:url(#linearGradient3840);fill-opacity:1.0;stroke:none;display:inline"
       d="m 2.9642613,4.9999821 c -0.828427,0 -1.5,0.6715729 -1.5,1.5 0,0.828427 0.671573,1.5 1.5,1.5 0.828427,0 1.5,-0.671573 1.5,-1.5 0,-0.8284271 -0.671573,-1.5 -1.5,-1.5 z m 6.46875,0 0,4.9375 -2.96875,0 4.5624997,6.0624999 4.4375,-6.0624999 -3,0 0,-4.9375 -3.0312497,0 z m -6.46875,5 c -0.828427,0 -1.5,0.6715729 -1.5,1.4999999 0,0.828427 0.671573,1.5 1.5,1.5 0.828427,0 1.5,-0.671573 1.5,-1.5 0,-0.828427 -0.671573,-1.4999999 -1.5,-1.4999999 z m 0,4.9999999 c -0.828427,0 -1.5,0.671573 -1.5,1.5 0,0.828427 0.671573,1.5 1.5,1.5 0.828427,0 1.5,-0.671573 1.5,-1.5 0,-0.828427 -0.671573,-1.5 -1.5,-1.5 z"
       id="path3836" />
    <path
       inkscape:connector-curvature="0"
       style="opacity:0.5;fill:#000000;fill-opacity:1;stroke:none;display:inline"
       d="m 2.9642613,4.9999821 c -0.828427,0 -1.5,0.6715729 -1.5,1.5 0,0.172589 0.040108,0.3456811 0.09375,0.5 0.2038398,-0.586412 0.750412,-1 1.40625,-1 0.655838,0 1.2024102,0.413588 1.40625,1 0.053642,-0.1543189 0.09375,-0.327411 0.09375,-0.5 0,-0.8284271 -0.671573,-1.5 -1.5,-1.5 z m 6.46875,0 0,1 3.0312497,0 0,-1 -3.0312497,0 z m -2.96875,4.9375 0.75,0.9999999 2.21875,0 0,-0.9999999 -2.96875,0 z m 5.9999997,0 0,0.9999999 2.28125,0 0.71875,-0.9999999 -3,0 z m -9.4999997,0.0625 c -0.828427,0 -1.5,0.6715729 -1.5,1.4999999 0,0.172589 0.040108,0.345681 0.09375,0.5 0.2038398,-0.586412 0.750412,-1 1.40625,-1 0.655838,0 1.2024102,0.413588 1.40625,1 0.053642,-0.154319 0.09375,-0.327411 0.09375,-0.5 0,-0.828427 -0.671573,-1.4999999 -1.5,-1.4999999 z m 0,4.9999999 c -0.828427,0 -1.5,0.671573 -1.5,1.5 0,0.172589 0.040108,0.345681 0.09375,0.5 0.2038398,-0.586412 0.750412,-1 1.40625,-1 0.655838,0 1.2024102,0.413588 1.40625,1 0.053642,-0.154319 0.09375,-0.327411 0.09375,-0.5 0,-0.828427 -0.671573,-1.5 -1.5,-1.5 z"
       id="path3843" />
    <path
       inkscape:connector-curvature="0"
       style="opacity:0.3;fill:#ffffff;fill-opacity:1;stroke:none;display:inline"
       d="m 1.5580113,6.9999821 c -0.053642,0.154319 -0.09375,0.327411 -0.09375,0.5 0,0.828427 0.671573,1.5 1.5,1.5 0.828427,0 1.5,-0.671573 1.5,-1.5 0,-0.172589 -0.040108,-0.345681 -0.09375,-0.5 -0.2038398,0.586412 -0.750412,1 -1.40625,1 -0.655838,0 -1.2024102,-0.413588 -1.40625,-1 z m 4.90625,3.9374999 4.5624997,6.0625 4.4375,-6.0625 -0.71875,0 -3.71875,5.0625 -3.8124997,-5.0625 -0.75,0 z m -4.90625,1.0625 c -0.053642,0.154319 -0.09375,0.327411 -0.09375,0.5 0,0.828427 0.671573,1.5 1.5,1.5 0.828427,0 1.5,-0.671573 1.5,-1.5 0,-0.172589 -0.040108,-0.345681 -0.09375,-0.5 -0.2038398,0.586412 -0.750412,1 -1.40625,1 -0.655838,0 -1.2024102,-0.413588 -1.40625,-1 z m 0,5 c -0.053642,0.154319 -0.09375,0.327411 -0.09375,0.5 0,0.828427 0.671573,1.5 1.5,1.5 0.828427,0 1.5,-0.671573 1.5,-1.5 0,-0.172589 -0.040108,-0.345681 -0.09375,-0.5 -0.2038398,0.586412 -0.750412,1 -1.40625,1 -0.655838,0 -1.2024102,-0.413588 -1.40625,-1 z"
       id="path3852" />
  </g>
</svg>
