<?xml version="1.0" encoding="UTF-8"?>
<!-- Generated by Pixelmator Pro 3.2.2 -->
<svg width="24" height="24" viewBox="0 0 24 24" xmlns="http://www.w3.org/2000/svg" xmlns:xlink="http://www.w3.org/1999/xlink">
    <path id="Path" fill="#ffffff" stroke="none" d="M 4 4 L 4 20 L 5 20 L 20 20 L 20 19 L 20 4 L 19 4 L 5 4 L 4 4 Z M 5 8 L 19 8 L 19 19 L 5 19 L 5 8 Z M 6 9 L 6 18 L 11 18 L 11 9 L 6 9 Z M 12 10 L 12 11 L 18 11 L 18 10 L 12 10 Z M 12 13 L 12 14 L 16 14 L 16 13 L 12 13 Z M 12 16 L 12 17 L 14 17 L 14 16 L 12 16 Z"/>
</svg>
