<?xml version="1.0" encoding="UTF-8"?>
<!-- Generated by Pixelmator Pro 3.2.2 -->
<svg width="24" height="24" viewBox="0 0 24 24" xmlns="http://www.w3.org/2000/svg" xmlns:xlink="http://www.w3.org/1999/xlink">
    <g id="document-open-torrent">
        <path id="Background" fill="none" stroke="none" d="M 0 0 L 24 0 L 24 24 L 0 24 L 0 0 Z"/>
        <path id="Group" fill="#ffffff" fill-rule="evenodd" stroke="none" d="M 9.28557 3.000389 C 8.94234 3.009609 8.62556 3.15892 8.43523 3.401171 L 4.18771 8.80114 C 3.97007 9.06864 3.93944 9.41479 4.10757 9.70681 C 4.27569 9.99883 4.61647 10.1914 4.99918 10.2106 C 5.38189 10.2298 5.74711 10.0727 5.95475 9.79957 L 8.25687 6.87459 L 8.25687 17.400299 C 8.25146 17.724899 8.45265 18.0268 8.78343 18.190399 C 9.1142 18.354 9.5233 18.354 9.85407 18.190399 C 10.1848 18.0268 10.386 17.724899 10.3806 17.400299 L 10.3806 3.900391 C 10.3808 3.656839 10.2644 3.423559 10.058 3.253929 C 9.85168 3.084311 9.57301 2.99283 9.28568 3.000389 L 9.28557 3.000389 Z M 15.6735 5.68631 C 15.3918 5.690041 15.1235 5.788429 14.9274 5.95985 C 14.7314 6.131269 14.6238 6.36167 14.6282 6.60037 L 14.6282 20.1003 C 14.6284 20.496901 14.9347 20.8466 15.3825 20.961399 C 15.8303 21.0763 16.313999 20.9293 16.573601 20.5994 L 20.8211 15.1995 C 21.0387 14.932 21.069401 14.5859 20.901199 14.2939 C 20.733101 14.0018 20.3923 13.8093 20.0096 13.7901 C 19.6269 13.7708 19.2617 13.9279 19.0541 14.2011 L 16.7519 17.126101 L 16.7519 6.60037 C 16.756399 6.3568 16.644199 6.122089 16.441 5.949841 C 16.237801 5.77758 15.9608 5.682499 15.6735 5.68631 L 15.6735 5.68631 Z"/>
    </g>
</svg>
