<?xml version="1.0" encoding="UTF-8"?>
<!-- Generated by Pixelmator Pro 3.2.2 -->
<svg width="24" height="24" viewBox="0 0 24 24" xmlns="http://www.w3.org/2000/svg" xmlns:xlink="http://www.w3.org/1999/xlink">
    <path id="Path" fill="#ffffff" stroke="none" d="M 4 4 L 4 5 L 4 8 L 5 8 L 5 5 L 8 5 L 8 4 L 5 4 L 4 4 Z M 16 4 L 16 5 L 19 5 L 19 8 L 20 8 L 20 4 L 16 4 Z M 6 6 L 6 11 L 11 11 L 11 6 L 6 6 Z M 13 6 L 13 11 L 18 11 L 18 6 L 13 6 Z M 7 7 L 10 7 L 10 10 L 7 10 L 7 7 Z M 14 7 L 17 7 L 17 10 L 14 10 L 14 7 Z M 6 13 L 6 18 L 11 18 L 11 13 L 6 13 Z M 13 13 L 13 18 L 18 18 L 18 13 L 13 13 Z M 7 14 L 10 14 L 10 17 L 7 17 L 7 14 Z M 14 14 L 17 14 L 17 17 L 14 17 L 14 14 Z M 4 16 L 4 20 L 5 20 L 8 20 L 8 19 L 5 19 L 5 16 L 4 16 Z M 19 16 L 19 19 L 16 19 L 16 20 L 20 20 L 20 19 L 20 16 L 19 16 Z"/>
</svg>
