<?xml version="1.0" encoding="UTF-8"?>
<!-- Generated by Pixelmator Pro 3.2.2 -->
<svg width="24" height="24" viewBox="0 0 24 24" xmlns="http://www.w3.org/2000/svg" xmlns:xlink="http://www.w3.org/1999/xlink">
    <path id="Path" fill="#ffffff" stroke="none" d="M 12 5 C 11.44242 5 11.17322 5.29854 11.00195 5.494141 C 10.83069 5.689739 10.71887 5.88233 10.60742 6.08984 C 10.38451 6.504869 10.18776 6.98423 9.99804 7.46874 C 9.80832 7.953251 9.62904 8.43973 9.47851 8.81054 C 9.403246 8.99595 9.33476 9.15206 9.28515 9.25195 C 9.28013 9.262063 9.2767 9.262394 9.271478 9.271481 C 9.262388 9.276701 9.262058 9.280131 9.251947 9.285153 C 9.152063 9.33476 8.995947 9.403253 8.810537 9.478513 C 8.439727 9.629043 7.953257 9.808323 7.468737 9.998043 C 6.984217 10.187763 6.504867 10.384513 6.089837 10.607423 C 5.882317 10.718873 5.689727 10.830693 5.494137 11.001953 C 5.298537 11.173213 4.999997 11.442413 4.999997 12.000003 C 4.999997 12.557593 5.298537 12.826783 5.494137 12.998053 C 5.689737 13.169313 5.882327 13.281133 6.089837 13.392583 C 6.504867 13.615493 6.984227 13.812243 7.468737 14.001953 C 7.953257 14.191673 8.439727 14.370953 8.810537 14.521483 C 8.995947 14.596743 9.152057 14.665233 9.251947 14.714843 C 9.262762 14.720243 9.2638 14.722943 9.273431 14.728513 C 9.278361 14.737113 9.280411 14.738513 9.28515 14.748043 C 9.33476 14.847933 9.40325 15.004043 9.47851 15.189453 C 9.62904 15.560263 9.80832 16.046734 9.99804 16.531254 C 10.18776 17.015774 10.38451 17.495132 10.60742 17.910152 C 10.71887 18.117674 10.83069 18.310263 11.00195 18.505854 C 11.17321 18.701492 11.44241 18.999992 12 18.999992 C 12.55759 18.999992 12.82678 18.701452 12.99805 18.505854 C 13.16931 18.310253 13.28113 18.117662 13.39258 17.910152 C 13.61549 17.495123 13.81224 17.015762 14.00195 16.531254 C 14.19167 16.046734 14.37095 15.560263 14.52148 15.189453 C 14.59674 15.004053 14.66523 14.847933 14.71484 14.748043 C 14.72024 14.737223 14.72294 14.736193 14.72851 14.726553 C 14.73711 14.721653 14.73851 14.719553 14.74804 14.714833 C 14.84793 14.665223 15.00404 14.596733 15.18945 14.521473 C 15.5603 14.370903 16.04673 14.191663 16.53125 14.001943 C 17.01577 13.812223 17.495131 13.615473 17.910151 13.392573 C 18.11767 13.281123 18.310261 13.169303 18.50585 12.998043 C 18.70145 12.826783 18.99999 12.557583 18.99999 11.999993 C 18.99999 11.442403 18.70145 11.173213 18.50585 11.001943 C 18.310249 10.830683 18.117661 10.718863 17.910151 10.607413 C 17.495119 10.384503 17.01576 10.187753 16.53125 9.998033 C 16.04674 9.808313 15.56026 9.629033 15.18945 9.478503 C 15.00405 9.403239 14.84793 9.334753 14.74804 9.285143 C 14.73793 9.280123 14.7376 9.276693 14.72851 9.271471 C 14.72331 9.262381 14.71981 9.262051 14.71484 9.25194 C 14.66519 9.152056 14.59674 8.99594 14.52148 8.81053 C 14.37095 8.43973 14.19167 7.95326 14.00195 7.468731 C 13.81223 6.9842 13.61548 6.50486 13.39258 6.08983 C 13.28113 5.882309 13.16931 5.68972 12.99805 5.494129 C 12.82679 5.298531 12.55759 4.99999 12 4.99999 Z M 12 6 C 12.61714 6 13.5687 9.5579 14.0059 9.9941 C 14.44219 10.43124 18 11.3828 18 12 C 18 12.6172 14.4421 13.5687 14.0059 14.0059 C 13.56876 14.44219 12.6172 18 12 18 C 11.3828 18 10.4313 14.4421 9.9941 14.0059 C 9.55781 13.56876 6 12.6172 6 12 C 6 11.3828 9.5579 10.4313 9.9941 9.9941 C 10.43124 9.55781 11.3828 6 12 6 Z"/>
</svg>
