<?xml version="1.0" encoding="UTF-8"?>
<!-- Generated by Pixelmator Pro 3.2.2 -->
<svg width="24" height="24" viewBox="0 0 24 24" xmlns="http://www.w3.org/2000/svg" xmlns:xlink="http://www.w3.org/1999/xlink">
    <path id="Path" fill="#ffffff" stroke="none" d="M 12 4 C 7.568 4 4 7.568001 4 12 C 4 16.431999 7.568 20 12 20 C 16.431999 20 20 16.431999 20 12 C 20 7.568001 16.431999 4 12 4 Z M 12 5 C 15.878 5 19 8.122 19 12 C 19 15.878 15.878 19 12 19 C 8.122 19 5 15.878 5 12 C 5 8.122 8.122 5 12 5 Z M 11 7 L 11 9 L 13 9 L 13 7 L 11 7 Z M 11 10 L 11 17 L 13 17 L 13 10 L 11 10 Z"/>
</svg>
