<?xml version="1.0" encoding="UTF-8"?>
<!-- Generated by Pixelmator Pro 3.2.2 -->
<svg width="23" height="24" viewBox="0 0 23 24" xmlns="http://www.w3.org/2000/svg" xmlns:xlink="http://www.w3.org/1999/xlink">
    <g id="edit-delete-symbolic">
        <path id="Background" fill="none" stroke="none" d="M 2.237334 2.745321 L 22.27095 2.745321 L 22.27095 21.9655 L 2.237334 21.9655 Z"/>
        <path id="Shape" fill="#ffffff" fill-rule="evenodd" stroke="none" d="M 9.749928 2.745321 C 9.056258 2.745321 8.497825 3.281082 8.497825 3.946577 L 8.497825 5.14784 L 2.863384 5.14784 C 2.516552 5.14784 2.237334 5.415724 2.237334 5.748468 C 2.237334 6.081221 2.516552 6.349094 2.863384 6.349094 L 3.486992 6.349094 L 4.171738 19.636234 C 4.248367 20.856087 5.306326 21.966061 6.673432 21.966061 L 16.582691 21.966061 C 17.949831 21.966061 19.007698 20.856167 19.084328 19.636234 L 19.769064 6.349094 L 20.3927 6.349094 C 20.739534 6.349094 21.018757 6.081221 21.018757 5.748468 C 21.018757 5.415724 20.739534 5.14784 20.3927 5.14784 L 14.758282 5.14784 L 14.758282 3.946577 C 14.758282 3.281082 14.199841 2.745321 13.50617 2.745321 L 9.749869 2.745321 Z M 9.749928 3.946577 L 13.506254 3.946577 L 13.506254 5.14784 L 9.749928 5.14784 Z M 4.741532 6.349094 L 18.514616 6.349094 L 17.834803 19.562958 C 17.793066 20.227261 17.276361 20.764229 16.582691 20.764229 L 6.673432 20.764229 C 5.97977 20.764229 5.463066 20.227261 5.421337 19.562958 L 4.741482 6.349094 Z M 7.871778 8.751614 C 7.524943 8.751614 7.24573 9.019497 7.24573 9.352242 L 7.24573 17.761051 C 7.24573 18.093803 7.524943 18.361687 7.871778 18.361687 C 8.218613 18.361687 8.497825 18.093803 8.497825 17.761051 L 8.497825 9.352242 C 8.497825 9.019497 8.218613 8.751614 7.871778 8.751614 Z M 11.628087 8.751614 C 11.281252 8.751614 11.002031 9.019497 11.002031 9.352242 L 11.002031 17.761051 C 11.002031 18.093803 11.281252 18.361687 11.628087 18.361687 C 11.974921 18.361687 12.254143 18.093803 12.254143 17.761051 L 12.254143 9.352242 C 12.254143 9.019497 11.974921 8.751614 11.628087 8.751614 Z M 15.384337 8.751614 C 15.037503 8.751614 14.758282 9.019497 14.758282 9.352242 L 14.758282 17.761051 C 14.758282 18.093803 15.037503 18.361687 15.384337 18.361687 C 15.731173 18.361687 16.010393 18.093803 16.010393 17.761051 L 16.010393 9.352242 C 16.010393 9.019497 15.731173 8.751614 15.384337 8.751614 Z"/>
    </g>
</svg>
