<?xml version="1.0" encoding="UTF-8"?>
<!-- Generated by Pixelmator Pro 3.2.2 -->
<svg width="24" height="24" viewBox="0 0 24 24" xmlns="http://www.w3.org/2000/svg" xmlns:xlink="http://www.w3.org/1999/xlink">
    <path id="Path" fill="#ffffff" stroke="none" d="M 12.5 4 C 11.286139 4 10.280978 4.855928 10.050781 6 L 4 6 L 4 7 L 10.050781 7 C 10.280978 8.144073 11.286139 9 12.5 9 C 13.713861 9 14.719022 8.144073 14.949219 7 L 20 7 L 20 6 L 14.949219 6 C 14.719022 4.855928 13.713861 4 12.5 4 Z M 6.5 15 C 5.115 15 4 16.115 4 17.5 C 4 18.885 5.115 20 6.5 20 C 7.713861 20 8.719022 19.144072 8.949219 18 L 20 18 L 20 17 L 8.949219 17 C 8.719023 15.855928 7.713861 15 6.5 15 Z M 6.5 16 C 7.331 16 8 16.669001 8 17.5 C 8 18.330999 7.331 19 6.5 19 C 5.669 19 5 18.330999 5 17.5 C 5 16.669001 5.669 16 6.5 16 Z"/>
</svg>
