<svg height="24" viewBox="0 0 24 24" width="24" xmlns="http://www.w3.org/2000/svg"><path d="m12.5 4c-1.213861 0-2.219022.855928-2.449219 2h-6.050781v1h6.050781c.230197 1.144073 1.235358 2 2.449219 2s2.219022-.855927 2.449219-2h5.050781v-1h-5.050781c-.230197-1.144072-1.235358-2-2.449219-2zm-6 11c-1.385 0-2.5 1.115-2.5 2.5s1.115 2.5 2.5 2.5c1.213861 0 2.219022-.855928 2.449219-2h11.050781v-1h-11.050781c-.230196-1.144072-1.235358-2-2.449219-2zm0 1c.831 0 1.5.669001 1.5 1.5s-.669 1.5-1.5 1.5-1.5-.669001-1.5-1.5.669-1.5 1.5-1.5z" fill="#fff"/></svg>