<svg height="24" viewBox="0 0 24 24" width="24" xmlns="http://www.w3.org/2000/svg"><path d="m12 4c-1.441714 0-2.789289.382921-3.955078 1.044922l.738281.738281c.962907-.4974 2.054288-.783203 3.216797-.783203 3.87797 0 7 3.122 7 7 0 1.1625-.28583 2.253897-.783203 3.216797l.738281.738281c.66205-1.1658 1.044922-2.513378 1.044922-3.955078 0-4.431999-3.568033-8-8-8zm-6.955078 4.044922c-.662051 1.1658-1.044922 2.513378-1.044922 3.955078 0 4.431999 3.568034 8 8 8 1.441714 0 2.789289-.382921 3.955078-1.044922l-.738281-.738281c-.962907.4974-2.054287.783203-3.216797.783203-3.87797 0-7-3.122-7-7 0-1.1625.285828-2.253897.783203-3.216797zm3.455078 2.953125v2h7v-2z" fill="#fff"/></svg>