<?xml version="1.0" encoding="UTF-8"?>
<!-- Generated by Pixelmator Pro 3.2.2 -->
<svg width="24" height="24" viewBox="0 0 24 24" xmlns="http://www.w3.org/2000/svg" xmlns:xlink="http://www.w3.org/1999/xlink">
    <path id="Path" fill="#ffffff" stroke="none" d="M 12 4 C 10.558286 4 9.210711 4.382921 8.044922 5.044922 L 8.783203 5.783203 C 9.74611 5.285803 10.837491 5 12 5 C 15.87797 5 19 8.122 19 12 C 19 13.1625 18.71417 14.253897 18.216797 15.216797 L 18.955078 15.955078 C 19.617128 14.789278 20 13.4417 20 12 C 20 7.568001 16.431967 4 12 4 Z M 5.044922 8.044922 C 4.382871 9.210722 4 10.5583 4 12 C 4 16.431999 7.568034 20 12 20 C 13.441714 20 14.789289 19.617079 15.955078 18.955078 L 15.216797 18.216797 C 14.25389 18.714197 13.16251 19 12 19 C 8.12203 19 5 15.878 5 12 C 5 10.8375 5.285828 9.746103 5.783203 8.783203 L 5.044922 8.044922 Z M 8.5 10.998047 L 8.5 12.998047 L 15.5 12.998047 L 15.5 10.998047 L 8.5 10.998047 Z"/>
</svg>
