<?xml version="1.0" encoding="UTF-8"?>
<!-- Generated by Pixelmator Pro 3.2.2 -->
<svg width="24" height="24" viewBox="0 0 24 24" xmlns="http://www.w3.org/2000/svg" xmlns:xlink="http://www.w3.org/1999/xlink">
    <g id="Group">
        <path id="Path" fill="#ffffff" stroke="none" d="M 16 13.000021 L 16 5.914099 L 13.707031 8.206984 L 13 7.499937 L 16.5 3.999998 L 20 7.499937 L 19.292969 8.206984 L 17 5.914099 L 17 13.000021 Z"/>
        <path id="path1" fill="#ffffff" stroke="none" d="M 4.000001 20.000013 L 4.000001 18.999998 L 18 18.999998 L 18 20.000013 Z"/>
        <path id="path2" fill="#ffffff" stroke="none" d="M 4.000001 16.999968 L 4.000001 15.999951 L 16 15.999951 L 16 16.999968 Z"/>
        <path id="path3" fill="#ffffff" stroke="none" d="M 4.000001 13.999921 L 4.000001 13.000021 L 14 13.000021 L 14 13.999921 Z"/>
        <path id="path4" fill="#ffffff" stroke="none" d="M 4.000001 3.999998 L 4.000001 5.000013 L 8 5.000013 L 8 3.999998 Z"/>
        <path id="path5" fill="#ffffff" stroke="none" d="M 4.000001 7.000044 L 4.000001 7.999945 L 10 7.999945 L 10 7.000044 Z"/>
        <path id="path6" fill="#ffffff" stroke="none" d="M 4.000001 9.999975 L 4.000001 10.99999 L 12 10.99999 L 12 9.999975 Z"/>
    </g>
</svg>
