<?xml version="1.0" encoding="UTF-8"?>
<!-- Generated by Pixelmator Pro 3.2.2 -->
<svg width="24" height="24" viewBox="0 0 24 24" xmlns="http://www.w3.org/2000/svg" xmlns:xlink="http://www.w3.org/1999/xlink">
    <path id="Path" fill="#ffffff" stroke="none" d="M 12 4 C 10.558286 4 9.210711 4.382921 8.044922 5.044922 L 8.783203 5.783203 L 8.785156 5.78125 L 11.564453 8.558594 L 12.271484 7.851563 L 9.789063 5.371094 C 10.484685 5.138416 11.223912 5 12 5 C 15.87797 5 19 8.122 19 12 C 19 13.1625 18.714172 14.253897 18.216797 15.216797 L 18.955078 15.955078 C 19.617128 14.789278 20 13.4417 20 12 C 20 7.568001 16.431967 4 12 4 Z M 5.044922 8.044922 C 4.382871 9.210722 4 10.5583 4 12 C 4 16.431999 7.568034 20 12 20 C 13.441714 20 14.789289 19.617079 15.955078 18.955078 L 15.271484 18.271484 L 15.273438 18.269531 L 12.445312 15.441406 L 11.738281 16.148438 L 14.216797 18.626953 C 13.519451 18.860922 12.778264 19 12 19 C 8.12203 19 5 15.878 5 12 C 5 10.8375 5.285829 9.746103 5.783203 8.783203 L 5.044922 8.044922 Z"/>
</svg>
