<?xml version="1.0" encoding="UTF-8"?>
<!-- Generated by Pixelmator Pro 3.3.2 -->
<svg width="32" height="32" viewBox="0 0 32 32" xmlns="http://www.w3.org/2000/svg" xmlns:xlink="http://www.w3.org/1999/xlink">
    <path id="Path" fill="#ffffff" stroke="none" d="M 4 10 L 28 10 C 29.104 10 30 9.104 30 8 C 30 6.896 29.104 6 28 6 L 4 6 C 2.896 6 2 6.896 2 8 C 2 9.104 2.896 10 4 10 Z M 28 14 L 4 14 C 2.896 14 2 14.896 2 16 C 2 17.104 2.896 18 4 18 L 28 18 C 29.104 18 30 17.104 30 16 C 30 14.896 29.104 14 28 14 Z M 28 22 L 4 22 C 2.896 22 2 22.896 2 24 C 2 25.104 2.896 26 4 26 L 28 26 C 29.104 26 30 25.104 30 24 C 30 22.896 29.104 22 28 22 Z"/>
</svg>
