<?xml version="1.0" encoding="utf-8"?>
<svg width="22px" height="22px" viewBox="0 0 22 22" version="1.1" xmlns:xlink="http://www.w3.org/1999/xlink" xmlns="http://www.w3.org/2000/svg">
  <defs>
    <path d="M0 0L22 0L22 22L0 22L0 0Z" id="path_1" />
    <clipPath id="mask_1">
      <use xlink:href="#path_1" />
    </clipPath>
  </defs>
  <g id="document-open-torrent">
    <path d="M0 0L22 0L22 22L0 22L0 0Z" id="Background" fill="#FFFFFF" fill-opacity="0" fill-rule="evenodd" stroke="none" />
    <path d="M8.51177 2.75036C8.19715 2.75881 7.90676 2.89567 7.7323 3.11774L3.83873 8.06771C3.63923 8.31292 3.61116 8.63023 3.76527 8.89791C3.91939 9.1656 4.23177 9.3421 4.58258 9.35972C4.9334 9.37734 5.26818 9.23333 5.45852 8.98294L7.5688 6.3017L7.5688 15.9503C7.56383 16.2478 7.74827 16.5245 8.05148 16.6745C8.35468 16.8245 8.72969 16.8245 9.0329 16.6745C9.33611 16.5245 9.52055 16.2478 9.51558 15.9503L9.51558 3.57536C9.51571 3.3521 9.40901 3.13826 9.21986 2.98277C9.0307 2.82728 8.77526 2.74342 8.51187 2.75036L8.51177 2.75036ZM14.3673 5.21245C14.1092 5.21587 13.8632 5.30606 13.6835 5.4632C13.5038 5.62033 13.4051 5.83153 13.4092 6.05034L13.4092 18.4253C13.4094 18.7888 13.6902 19.1094 14.1006 19.2147C14.5111 19.3199 14.9545 19.1852 15.1925 18.8828L19.086 13.9329C19.2855 13.6877 19.3136 13.3704 19.1595 13.1027C19.0053 12.835 18.693 12.6585 18.3422 12.6409C17.9913 12.6233 17.6565 12.7673 17.4662 13.0177L15.3559 15.6989L15.3559 6.05034C15.3601 5.82707 15.2572 5.61191 15.0709 5.45402C14.8846 5.29612 14.6308 5.20896 14.3673 5.21245L14.3673 5.21245Z" id="Group" fill="#363636" fill-rule="evenodd" stroke="none" />
  </g>
</svg>