<svg viewBox="0 0 22 22" xmlns="http://www.w3.org/2000/svg"><g fill="#363636"><g transform="translate(3 3)"><path d="m3.5 7c-.277 0-.5.223-.5.5v4c0 .277.223.5.5.5h2c.277 0 .5-.223.5-.5v-4c0-.277-.223-.5-.5-.5zm.5 1h1v3h-1z"/><rect height="1" ry=".5" width="6" x="7" y="7"/><rect height="1" ry=".5" width="6" x="7" y="9"/><rect height="1" ry=".5" width="6" x="7" y="11"/></g><path d="m6 3c-1.662 0-3 1.338-3 3v10c0 1.662 1.338 3 3 3h10c1.662 0 3-1.338 3-3v-10c0-1.662-1.338-3-3-3zm0 3h10c1.108 0 2 .892 2 2v8c0 1.108-.892 2-2 2h-10c-1.108 0-2-.892-2-2v-8c0-1.108.892-2 2-2z"/></g></svg>