<svg height="22" viewBox="0 0 22 22" width="22" xmlns="http://www.w3.org/2000/svg"><path d="m0 0h22v22h-22z" fill="none"/><path d="m8.51177 2.75036c-.31462.00845-.60501.14531-.77947.36738l-3.89357 4.94997c-.1995.24521-.22757.56252-.07346.8302.15412.26769.4665.44419.81731.46181.35082.01762.6856-.12639.87594-.37678l2.11028-2.68124v9.6486c-.00497.2975.17947.5742.48268.7242.3032.15.67821.15.98142 0s.48765-.4267.48268-.7242v-12.37494c.00013-.22326-.10657-.4371-.29572-.59259-.18916-.15549-.4446-.23935-.70799-.23241zm5.85553 2.46209c-.2581.00342-.5041.09361-.6838.25075-.1797.15713-.2784.36833-.2743.58714v12.37496c.0002.3635.281.6841.6914.7894.4105.1052.8539-.0295 1.0919-.3319l3.8935-4.9499c.1995-.2452.2276-.5625.0735-.8302-.1542-.2677-.4665-.4442-.8173-.4618-.3509-.0176-.6857.1264-.876.3768l-2.1103 2.6812v-9.64856c.0042-.22327-.0987-.43843-.285-.59632-.1863-.1579-.4401-.24506-.7036-.24157z" fill="#363636" fill-rule="evenodd"/></svg>