<svg viewBox="0 0 22 22" xmlns="http://www.w3.org/2000/svg"><g fill="#363636"><path d="m8.2503 5c-.25664-.0000644-.50348.098533-.68945.27539l-4.6309 4.4121-.61914.58789c-.41438.3942-.41438 1.055 0 1.4492l.61914.58789 4.6309 4.4121c.18597.17686.43281.27545.68945.27539h10.75c.55226-.000055.99994-.44774 1-1v-10c-.000055-.55226-.44774-.99994-1-1h-10.75zm0 1h10.75v10h-10.75l-4.6309-4.4102-.61914-.58984.61914-.58984 4.6309-4.4102z"/><path d="m10.99 8 2.0098 2.0098 2.0098-2.0098.99024.99023-2.0098 2.0098 2.0098 2.0098-.99024.99023-2.0098-2.0098-2.0098 2.0098-.99023-.99023 2.0098-2.0098-2.0098-2.0098z"/></g></svg>