<svg version="1.1" viewBox="0 0 22 22" xmlns="http://www.w3.org/2000/svg">
 <defs>
  <style id="current-color-scheme" type="text/css">.ColorScheme-Text {
        color:#363636;
      }</style>
 </defs>
 <path class="ColorScheme-Text" d="m8.2503 5c-0.25664-6.44e-5 -0.50348 0.098533-0.68945 0.27539l-4.6309 4.4121-0.61914 0.58789c-0.41438 0.3942-0.41438 1.055 0 1.4492l0.61914 0.58789 4.6309 4.4121c0.18597 0.17686 0.43281 0.27545 0.68945 0.27539h10.75c0.55226-5.5e-5 0.99994-0.44774 1-1v-10c-5.5e-5 -0.55226-0.44774-0.99994-1-1h-10.75zm0 1h10.75v10h-10.75l-4.6309-4.4102-0.61914-0.58984 0.61914-0.58984 4.6309-4.4102z" fill="currentColor"/>
 <path class="ColorScheme-Text" d="m10.99 8 2.0098 2.0098 2.0098-2.0098 0.99024 0.99023-2.0098 2.0098 2.0098 2.0098-0.99024 0.99023-2.0098-2.0098-2.0098 2.0098-0.99023-0.99023 2.0098-2.0098-2.0098-2.0098z" fill="currentColor"/>
</svg>
