<svg viewBox="0 0 22 22" xmlns="http://www.w3.org/2000/svg"><path d="m9 1c-1.108 0-2 .892-2 2v1h-4.5c-.277 0-.5.223-.5.5s.23687.58656.5.5h.49805l.54688 13.061c.0612 1.0155.9062 1.9395 1.998 1.9395h9.9141c1.0919 0 1.9368-.92386 1.998-1.9395l.54688-13.061h.49805c.277 0 .5-.223.5-.5s-.22318-.48992-.5-.5h-4.5v-1c0-1.108-.892-2-2-2h-3zm0 1h3c.554 0 1 .446 1 1v1h-5v-1c0-.554.446-1 1-1zm-5 3h13l-.54297 13c-.03333.553-.446 1-1 1h-9.9141c-.554 0-.96667-.447-1-1l-.54297-13zm3.5 2c-.277 0-.5.223-.5.5v9c0 .277.223.5.5.5s.5-.223.5-.5v-9c0-.277-.223-.5-.5-.5zm3.002 0c-.277 0-.5.223-.5.5v9c0 .277.223.5.5.5s.5-.223.5-.5v-9c0-.277-.223-.5-.5-.5zm2.998 0c-.277 0-.5.223-.5.5v9c0 .277.223.5.5.5s.5-.223.5-.5v-9c0-.277-.223-.5-.5-.5z" fill="#da4453"/></svg>