<svg version="1.1" viewBox="0 0 22 22" xmlns="http://www.w3.org/2000/svg">
 <defs>
  <style id="current-color-scheme" type="text/css">.ColorScheme-Text {
        color:#363636;
      }</style>
 </defs>
 <path class="ColorScheme-Text" d="m10 7v1h1v-1zm0 2v7h1v-7z" fill="currentColor"/>
 <path d="m10.387 3a8.5 8.5 0 0 0-8.3867 8.5 8.5 8.5 0 0 0 8.5 8.5 8.5 8.5 0 0 0 8.5-8.5 8.5 8.5 0 0 0-8.5-8.5 8.5 8.5 0 0 0-0.11328 0zm0.07617 1a7.5 7.5 0 0 1 0.03711 0 7.5 7.5 0 0 1 7.5 7.5 7.5 7.5 0 0 1-7.5 7.5 7.5 7.5 0 0 1-7.5-7.5 7.5 7.5 0 0 1 7.4629-7.5z" class="ColorScheme-Text" fill="currentColor"/>
</svg>
