<?xml version="1.0" encoding="UTF-8" standalone="no"?>
<svg
   width="21.999813px"
   height="22.0005px"
   viewBox="0 0 21.999813 22.0005"
   version="1.1"
   id="svg279"
   sodipodi:docname="list-remove.svg"
   inkscape:version="1.2.2 (b0a8486, 2022-12-01)"
   xmlns:inkscape="http://www.inkscape.org/namespaces/inkscape"
   xmlns:sodipodi="http://sodipodi.sourceforge.net/DTD/sodipodi-0.dtd"
   xmlns:xlink="http://www.w3.org/1999/xlink"
   xmlns="http://www.w3.org/2000/svg"
   xmlns:svg="http://www.w3.org/2000/svg">
  <sodipodi:namedview
     id="namedview281"
     pagecolor="#ffffff"
     bordercolor="#000000"
     borderopacity="0.25"
     inkscape:showpageshadow="2"
     inkscape:pageopacity="0.0"
     inkscape:pagecheckerboard="0"
     inkscape:deskcolor="#d1d1d1"
     showgrid="false"
     inkscape:zoom="10.727029"
     inkscape:cx="11.419751"
     inkscape:cy="11.233306"
     inkscape:window-width="1275"
     inkscape:window-height="769"
     inkscape:window-x="0"
     inkscape:window-y="25"
     inkscape:window-maximized="0"
     inkscape:current-layer="svg279" />
  <defs
     id="defs274">
    <path
       d="M0 0L21.9998 0L21.9998 21.9998L0 21.9998L0 0Z"
       id="path_1" />
    <clipPath
       id="mask_1">
      <use
         xlink:href="#path_1"
         id="use271" />
    </clipPath>
  </defs>
  <g
     id="edit-delete-symbolic"
     transform="matrix(0.81355339,0,0,0.80084746,2.237339,2.3305615)">
    <path
       d="M 0,0 H 21.9998 V 21.9998 H 0 Z"
       id="Background"
       fill="#ffffff"
       fill-opacity="0"
       fill-rule="evenodd"
       stroke="none" />
    <path
       d="M 8.24993,0 C 7.48819,0 6.87494,0.613245 6.87494,1.37499 V 2.74998 H 0.687494 C 0.306622,2.74998 0,3.0566 0,3.43747 0,3.81834 0.306622,4.12496 0.687494,4.12496 H 1.37231 L 2.12426,19.3337 c 0.08415,1.3963 1.24595,2.6668 2.74723,2.6668 H 15.7533 c 1.5013,0 2.6631,-1.2704 2.7472,-2.6668 l 0.752,-15.20874 h 0.6848 c 0.3808,0 0.6875,-0.30662 0.6875,-0.68749 0,-0.38087 -0.3067,-0.68749 -0.6875,-0.68749 H 13.7498 V 1.37499 C 13.7498,0.613245 13.1366,0 12.3748,0 H 8.24987 Z m 0,1.37499 H 12.3749 V 2.74998 H 8.24993 Z M 2.74998,4.12496 H 17.8748 L 17.1283,19.2498 c -0.0459,0.7604 -0.6133,1.375 -1.375,1.375 H 4.87149 c -0.76175,0 -1.32916,-0.6146 -1.37499,-1.375 L 2.74992,4.12496 Z m 3.43747,2.74998 c -0.38087,0 -0.6875,0.30662 -0.6875,0.6875 v 9.62496 c 0,0.3808 0.30663,0.6874 0.6875,0.6874 0.38087,0 0.68749,-0.3066 0.68749,-0.6874 V 7.56244 c 0,-0.38088 -0.30662,-0.6875 -0.68749,-0.6875 z m 4.12495,0 c -0.38086,0 -0.68748,0.30662 -0.68748,0.6875 v 9.62496 c 0,0.3808 0.30662,0.6874 0.68748,0.6874 0.3809,0 0.6875,-0.3066 0.6875,-0.6874 V 7.56244 c 0,-0.38088 -0.3066,-0.6875 -0.6875,-0.6875 z m 4.125,0 c -0.3809,0 -0.6875,0.30662 -0.6875,0.6875 v 9.62496 c 0,0.3808 0.3066,0.6874 0.6875,0.6874 0.3809,0 0.6875,-0.3066 0.6875,-0.6874 V 7.56244 c 0,-0.38088 -0.3066,-0.6875 -0.6875,-0.6875 z"
       id="Shape"
       fill="#363636"
       fill-rule="evenodd"
       stroke="none" />
  </g>
</svg>
