<?xml version="1.0" encoding="utf-8"?>
<svg width="21.999813px" height="22.0005px" viewBox="0 0 21.999813 22.0005" version="1.1" xmlns:xlink="http://www.w3.org/1999/xlink" xmlns="http://www.w3.org/2000/svg">
  <defs>
    <path d="M0 0L21.9998 0L21.9998 21.9998L0 21.9998L0 0Z" id="path_1" />
    <clipPath id="mask_1">
      <use xlink:href="#path_1" />
    </clipPath>
  </defs>
  <g id="edit-delete-symbolic">
    <path d="M0 0L21.9998 0L21.9998 21.9998L0 21.9998L0 0Z" id="Background" fill="#FFFFFF" fill-opacity="0" fill-rule="evenodd" stroke="none" />
    <path d="M8.24993 0C7.48819 0 6.87494 0.613245 6.87494 1.37499L6.87494 2.74998L0.687494 2.74998C0.306622 2.74998 0 3.0566 0 3.43747C0 3.81834 0.306622 4.12496 0.687494 4.12496L1.37231 4.12496L2.12426 19.3337C2.20841 20.73 3.37021 22.0005 4.87149 22.0005L15.7533 22.0005C17.2546 22.0005 18.4164 20.7301 18.5005 19.3337L19.2525 4.12496L19.9373 4.12496C20.3181 4.12496 20.6248 3.81834 20.6248 3.43747C20.6248 3.0566 20.3181 2.74998 19.9373 2.74998L13.7498 2.74998L13.7498 1.37499C13.7498 0.613245 13.1366 0 12.3748 0L8.24987 0L8.24993 0ZM8.24993 1.37499L12.3749 1.37499L12.3749 2.74998L8.24993 2.74998L8.24993 1.37499L8.24993 1.37499ZM2.74998 4.12496L17.8748 4.12496L17.1283 19.2498C17.0824 20.0102 16.515 20.6248 15.7533 20.6248L4.87149 20.6248C4.10974 20.6248 3.54233 20.0102 3.4965 19.2498L2.74992 4.12496L2.74998 4.12496ZM6.18745 6.87494C5.80658 6.87494 5.49995 7.18156 5.49995 7.56244L5.49995 17.1874C5.49995 17.5682 5.80658 17.8748 6.18745 17.8748C6.56832 17.8748 6.87494 17.5682 6.87494 17.1874L6.87494 7.56244C6.87494 7.18156 6.56832 6.87494 6.18745 6.87494L6.18745 6.87494ZM10.3124 6.87494C9.93154 6.87494 9.62492 7.18156 9.62492 7.56244L9.62492 17.1874C9.62492 17.5682 9.93154 17.8748 10.3124 17.8748C10.6933 17.8748 10.9999 17.5682 10.9999 17.1874L10.9999 7.56244C10.9999 7.18156 10.6933 6.87494 10.3124 6.87494L10.3124 6.87494ZM14.4374 6.87494C14.0565 6.87494 13.7499 7.18156 13.7499 7.56244L13.7499 17.1874C13.7499 17.5682 14.0565 17.8748 14.4374 17.8748C14.8183 17.8748 15.1249 17.5682 15.1249 17.1874L15.1249 7.56244C15.1249 7.18156 14.8183 6.87494 14.4374 6.87494L14.4374 6.87494Z" id="Shape" fill="#363636" fill-rule="evenodd" stroke="none" />
  </g>
</svg>