<svg height="22.0005" viewBox="0 0 21.999813 22.0005" width="21.999813" xmlns="http://www.w3.org/2000/svg"><g transform="matrix(.81355339 0 0 .80084746 2.237339 2.330562)"><path d="m0 0h21.9998v21.9998h-21.9998z" fill="none"/><path d="m8.24993 0c-.76174 0-1.37499.613245-1.37499 1.37499v1.37499h-6.187446c-.380872 0-.687494.30662-.687494.68749s.306622.68749.687494.68749h.684816l.75195 15.20874c.08415 1.3963 1.24595 2.6668 2.74723 2.6668h10.88181c1.5013 0 2.6631-1.2704 2.7472-2.6668l.752-15.20874h.6848c.3808 0 .6875-.30662.6875-.68749s-.3067-.68749-.6875-.68749h-6.1875v-1.37499c0-.761745-.6132-1.37499-1.375-1.37499h-4.12493zm0 1.37499h4.12497v1.37499h-4.12497zm-5.49995 2.74997h15.12482l-.7465 15.12484c-.0459.7604-.6133 1.375-1.375 1.375h-10.88181c-.76175 0-1.32916-.6146-1.37499-1.375l-.74658-15.12484zm3.43747 2.74998c-.38087 0-.6875.30662-.6875.6875v9.62496c0 .3808.30663.6874.6875.6874s.68749-.3066.68749-.6874v-9.62496c0-.38088-.30662-.6875-.68749-.6875zm4.12495 0c-.38086 0-.68748.30662-.68748.6875v9.62496c0 .3808.30662.6874.68748.6874.3809 0 .6875-.3066.6875-.6874v-9.62496c0-.38088-.3066-.6875-.6875-.6875zm4.125 0c-.3809 0-.6875.30662-.6875.6875v9.62496c0 .3808.3066.6874.6875.6874s.6875-.3066.6875-.6874v-9.62496c0-.38088-.3066-.6875-.6875-.6875z" fill="#363636" fill-rule="evenodd"/></g></svg>