<svg version="1.1" viewBox="0 0 22 22" xmlns="http://www.w3.org/2000/svg">
 <defs>
  <style id="current-color-scheme" type="text/css">.ColorScheme-Text {
        color:#363636;
      }</style>
 </defs>
 <g class="ColorScheme-Text" fill="currentColor">
  <circle cx="6" cy="11" r="1" class="ColorScheme-Text" fill="currentColor"/>
  <circle cx="11" cy="11" r="1" class="ColorScheme-Text" fill="currentColor"/>
  <circle cx="16" cy="11" r="1" class="ColorScheme-Text" fill="currentColor"/>
  <path d="m10.99 2a9 9 0 0 0-8.9902 9 9 9 0 0 0 9 9 9 9 0 0 0 9-9 9 9 0 0 0-9-9 9 9 0 0 0-0.009766 0zm0.009766 1a8 8 0 0 1 8 8 8 8 0 0 1-8 8 8 8 0 0 1-8-8 8 8 0 0 1 8-8z" class="ColorScheme-Text" fill="currentColor"/>
 </g>
</svg>
