<svg version="1.1" viewBox="0 0 22 22" xmlns="http://www.w3.org/2000/svg">
 <defs>
  <style id="current-color-scheme" type="text/css">.ColorScheme-Text { color:#363636; }</style>
 </defs>
 <path d="m12.846 2.1773-0.26286 0.98102a8 8 0 0 0-3.1667 7.387e-4l-0.26253-0.98228-0.96705 0.25852 0.26253 0.98228a8 8 0 0 0-2.7413 1.5827l-0.71941-0.71849-0.70741 0.70823 0.71941 0.71849a8 8 0 0 0-1.584 2.7421l-0.98102-0.26286-0.25882 0.96593 0.98102 0.26286a8 8 0 0 0 7.386e-4 3.1667l-0.98228 0.26253 0.25852 0.96705 0.98228-0.26253a8 8 0 0 0 1.5827 2.7413l-0.71849 0.71941 0.70823 0.70741 0.71849-0.71941a8 8 0 0 0 2.7421 1.584l-0.26286 0.98102 0.96593 0.25882 0.26286-0.98102a8 8 0 0 0 3.1667-7.4e-4l0.26253 0.98228 0.96705-0.25852-0.26253-0.98228a8 8 0 0 0 2.7413-1.5827l0.71941 0.71849 0.70741-0.70823-0.71941-0.71849a8 8 0 0 0 1.584-2.7421l0.98102 0.26286 0.25882-0.96593-0.98102-0.26286a8 8 0 0 0-7.4e-4 -3.1667l0.98228-0.26253-0.25852-0.96705-0.98228 0.26253a8 8 0 0 0-1.5827-2.7413l0.71849-0.71941-0.70823-0.70741-0.71849 0.71941a8 8 0 0 0-2.7421-1.584l0.26286-0.98102zm-0.12523 2.037 0.09056 0.024264a7 7 0 0 1 4.8032 4.4717l-4.8748 1.3042a2 2 0 0 0-1.2225-0.94631 2 2 0 0 0-0.047164-0.012638 2 2 0 0 0-1.4866 0.2204l-3.5658-3.5659a7 7 0 0 1 6.3031-1.4958zm-7.0124 2.2035 3.5695 3.5669a2 2 0 0 0-0.2102 0.49771 2 2 0 0 0 0.94793 2.2578l-1.3062 4.8749a7 7 0 0 1-4.4713-8.4268 7 7 0 0 1 1.4703-2.7705zm12.165 3.2595a7 7 0 0 1-0.08769 3.0439l-0.02426 0.09056a7 7 0 0 1-4.9608 4.9532l-0.0086 0.0018a7 7 0 0 1-3.1159 0.10535l1.3057-4.873a2 2 0 0 0 1.9498-1.4814 2 2 0 0 0 0.06682-0.53613zm-6.6146 0.35681a1 1 0 0 1 0.69607 0.66978 1 1 0 0 1 0.0223 0.08281 1 1 0 0 1-0.01126 0.47216 1 1 0 0 1-1.2247 0.70711 1 1 0 0 1-0.70711-1.2247 1 1 0 0 1 0.24031-0.42898 1 1 0 0 1 0.02456-0.02375 1 1 0 0 1 0.95987-0.25438z" class="ColorScheme-Text" fill="currentColor"/>
</svg>
