<svg viewBox="0 0 22 22" xmlns="http://www.w3.org/2000/svg"><path d="m12.846 2.1773-.26286.98102a8 8 0 0 0 -3.1667.0007387l-.26253-.98228-.96705.25852.26253.98228a8 8 0 0 0 -2.7413 1.5827l-.71941-.71849-.70741.70823.71941.71849a8 8 0 0 0 -1.584 2.7421l-.98102-.26286-.25882.96593.98102.26286a8 8 0 0 0 .0007386 3.1667l-.98228.26253.25852.96705.98228-.26253a8 8 0 0 0 1.5827 2.7413l-.71849.71941.70823.70741.71849-.71941a8 8 0 0 0 2.7421 1.584l-.26286.98102.96593.25882.26286-.98102a8 8 0 0 0 3.1667-.00074l.26253.98228.96705-.25852-.26253-.98228a8 8 0 0 0 2.7413-1.5827l.71941.71849.70741-.70823-.71941-.71849a8 8 0 0 0 1.584-2.7421l.98102.26286.25882-.96593-.98102-.26286a8 8 0 0 0 -.00074-3.1667l.98228-.26253-.25852-.96705-.98228.26253a8 8 0 0 0 -1.5827-2.7413l.71849-.71941-.70823-.70741-.71849.71941a8 8 0 0 0 -2.7421-1.584l.26286-.98102zm-.12523 2.037.09056.024264a7 7 0 0 1 4.8032 4.4717l-4.8748 1.3042a2 2 0 0 0 -1.2225-.94631 2 2 0 0 0 -.047164-.012638 2 2 0 0 0 -1.4866.2204l-3.5658-3.5659a7 7 0 0 1 6.3031-1.4958zm-7.0124 2.2035 3.5695 3.5669a2 2 0 0 0 -.2102.49771 2 2 0 0 0 .94793 2.2578l-1.3062 4.8749a7 7 0 0 1 -4.4713-8.4268 7 7 0 0 1 1.4703-2.7705zm12.165 3.2595a7 7 0 0 1 -.08769 3.0439l-.02426.09056a7 7 0 0 1 -4.9608 4.9532l-.0086.0018a7 7 0 0 1 -3.1159.10535l1.3057-4.873a2 2 0 0 0 1.9498-1.4814 2 2 0 0 0 .06682-.53613zm-6.6146.35681a1 1 0 0 1 .69607.66978 1 1 0 0 1 .0223.08281 1 1 0 0 1 -.01126.47216 1 1 0 0 1 -1.2247.70711 1 1 0 0 1 -.70711-1.2247 1 1 0 0 1 .24031-.42898 1 1 0 0 1 .02456-.02375 1 1 0 0 1 .95987-.25438z" fill="#363636"/></svg>