<svg viewBox="0 0 22 22" xmlns="http://www.w3.org/2000/svg"><g fill="#da4453"><path d="m11 3c4.432 0 8 3.568 8 8 0 1.442-.383 2.79-1.045 3.955l-.738-.738a6.985 6.985 0 0 0 .783-3.217c0-3.878-3.122-7-7-7a6.985 6.985 0 0 0 -3.217.783l-.738-.738a7.982 7.982 0 0 1 3.955-1.045m-6.955 4.045.738.738a6.985 6.985 0 0 0 -.783 3.217c0 3.878 3.122 7 7 7a6.985 6.985 0 0 0 3.217-.783l.738.738a7.982 7.982 0 0 1 -3.955 1.045c-4.432 0-8-3.568-8-8 0-1.442.383-2.79 1.045-3.955"/><path d="m7.5 9.998h7v2h-7z"/></g></svg>