<svg viewBox="0 0 22 22" xmlns="http://www.w3.org/2000/svg"><path d="m11 3c-1.441714 0-2.7892891.3829219-3.9550781 1.0449219l.7382812.7382812s.0019531-.0019531.0019531-.0019531l2.7792968 2.7773438.707031-.7070313-2.4824215-2.4804687c.695623-.2326766 1.4348495-.3710938 2.2109375-.3710938 3.87797 0 7 3.122 7 7 0 1.1625-.285828 2.253897-.783203 3.216797l.738281.738281c.662051-1.1658 1.044922-2.513378 1.044922-3.955078 0-4.432-3.568034-8-8-8zm-6.9550781 4.0449219c-.662051 1.1658-1.0449219 2.5133781-1.0449219 3.9550781 0 4.432 3.568034 8 8 8 1.441714 0 2.789289-.382922 3.955078-1.044922l-.683594-.683594.001954-.001953-2.828126-2.828125-.707031.707032 2.478516 2.478515c-.6973.233921-1.438533.373047-2.216797.373047-3.87797 0-7-3.122-7-7 0-1.1625.2858291-2.2538969.7832031-3.2167969z" fill="#363636"/></svg>