<?xml version="1.0" encoding="UTF-8"?>
<!-- Generated by Pixelmator Pro 3.2.2 -->
<svg width="22" height="22" viewBox="0 0 22 22" xmlns="http://www.w3.org/2000/svg" xmlns:xlink="http://www.w3.org/1999/xlink">
    <g id="document-open-torrent">
        <path id="Background" fill="none" stroke="none" d="M 0 0 L 22 0 L 22 22 L 0 22 L 0 0 Z"/>
        <path id="Group" fill="#ffffff" fill-rule="evenodd" stroke="none" d="M 8.51177 2.75036 C 8.19715 2.75881 7.90676 2.89567 7.7323 3.117741 L 3.83873 8.06771 C 3.63923 8.31292 3.61116 8.63023 3.76527 8.89791 C 3.91939 9.1656 4.23177 9.3421 4.58258 9.35972 C 4.9334 9.37734 5.26818 9.23333 5.45852 8.98294 L 7.5688 6.301701 L 7.5688 15.9503 C 7.56383 16.247801 7.74827 16.5245 8.05148 16.6745 C 8.35468 16.824499 8.72969 16.824499 9.0329 16.6745 C 9.33611 16.5245 9.52055 16.247801 9.51558 15.9503 L 9.51558 3.575359 C 9.51571 3.3521 9.40901 3.13826 9.21986 2.982769 C 9.0307 2.82728 8.77526 2.74342 8.51187 2.75036 L 8.51177 2.75036 Z M 14.3673 5.21245 C 14.1092 5.21587 13.8632 5.306061 13.6835 5.4632 C 13.5038 5.620331 13.4051 5.83153 13.4092 6.050341 L 13.4092 18.425301 C 13.4094 18.788799 13.6902 19.1094 14.1006 19.214701 C 14.5111 19.319901 14.9545 19.1852 15.1925 18.882799 L 19.086 13.9329 C 19.2855 13.6877 19.313601 13.3704 19.1595 13.1027 C 19.005301 12.835 18.693001 12.6585 18.342199 12.6409 C 17.991301 12.6233 17.6565 12.7673 17.4662 13.0177 L 15.3559 15.6989 L 15.3559 6.050341 C 15.3601 5.82707 15.2572 5.61191 15.0709 5.45402 C 14.8846 5.29612 14.6308 5.20896 14.3673 5.21245 L 14.3673 5.21245 Z"/>
    </g>
</svg>
