<?xml version="1.0" encoding="UTF-8"?>
<!-- Generated by Pixelmator Pro 3.2.2 -->
<svg width="22" height="22" viewBox="0 0 22 22" xmlns="http://www.w3.org/2000/svg" xmlns:xlink="http://www.w3.org/1999/xlink">
    <g id="Group">
        <path id="Path" fill="#ffffff" stroke="none" d="M 6.5 10 C 6.223 10 6 10.223 6 10.5 L 6 14.5 C 6 14.777 6.223 15 6.5 15 L 8.5 15 C 8.777 15 9 14.777 9 14.5 L 9 10.5 C 9 10.223 8.777 10 8.5 10 Z M 7 11 L 8 11 L 8 14 L 7 14 Z"/>
        <path id="path1" fill="#ffffff" stroke="none" d="M 10.5 10 L 15.5 10 C 15.776142 10 16 10.223858 16 10.5 L 16 10.5 C 16 10.776142 15.776142 11 15.5 11 L 10.5 11 C 10.223858 11 10 10.776142 10 10.5 L 10 10.5 C 10 10.223858 10.223858 10 10.5 10 Z"/>
        <path id="path2" fill="#ffffff" stroke="none" d="M 10.5 12 L 15.5 12 C 15.776142 12 16 12.223858 16 12.5 L 16 12.5 C 16 12.776142 15.776142 13 15.5 13 L 10.5 13 C 10.223858 13 10 12.776142 10 12.5 L 10 12.5 C 10 12.223858 10.223858 12 10.5 12 Z"/>
        <path id="path3" fill="#ffffff" stroke="none" d="M 10.5 14 L 15.5 14 C 15.776142 14 16 14.223858 16 14.5 L 16 14.5 C 16 14.776142 15.776142 15 15.5 15 L 10.5 15 C 10.223858 15 10 14.776142 10 14.5 L 10 14.5 C 10 14.223858 10.223858 14 10.5 14 Z"/>
    </g>
    <path id="path4" fill="#ffffff" stroke="none" d="M 6 3 C 4.338 3 3 4.337999 3 6 L 3 16 C 3 17.662001 4.338 19 6 19 L 16 19 C 17.662001 19 19 17.662001 19 16 L 19 6 C 19 4.337999 17.662001 3 16 3 L 6 3 Z M 6 6 L 16 6 C 17.108 6 18 6.892 18 8 L 18 16 C 18 17.108 17.108 18 16 18 L 6 18 C 4.892 18 4 17.108 4 16 L 4 8 C 4 6.892 4.892 6 6 6 Z"/>
</svg>
