<?xml version="1.0" encoding="UTF-8"?>
<!-- Generated by Pixelmator Pro 3.2.2 -->
<svg width="22" height="22" viewBox="0 0 22 22" xmlns="http://www.w3.org/2000/svg" xmlns:xlink="http://www.w3.org/1999/xlink">
    <path id="Path" fill="#ffffff" stroke="none" d="M 15.5 13 C 13.567 13 12 14.567 12 16.5 C 12 18.433001 13.567 20 15.5 20 C 17.433001 20 19 18.433001 19 16.5 C 19 14.567 17.433001 13 15.5 13 Z M 15 14 L 16 14 L 16 16 L 18 16 L 18 17 L 16 17 L 16 19 L 15 19 L 15 17 L 13 17 L 13 16 L 15 16 Z"/>
    <path id="path1" fill="#ffffff" stroke="none" d="M 7 3 C 5.338 3 4 4.337999 4 6 L 4 16 C 4 17.662001 5.338 19 7 19 L 11 19 L 11 18 L 7 18 C 5.892 18 5 17.108 5 16 L 5 6 C 5 4.892 5.892 4 7 4 L 12 4 L 12 9 L 17 9 L 17 12 L 18 12 L 18 8 L 13 3 L 12 3 Z M 13 4.414101 L 16.585899 8 L 13 8 Z"/>
</svg>
