<svg height="22" viewBox="0 0 22 22" width="22" xmlns="http://www.w3.org/2000/svg"><g fill="#fff"><path d="m6.5 10c-.277 0-.5.223-.5.5v4c0 .277.223.5.5.5h2c.277 0 .5-.223.5-.5v-4c0-.277-.223-.5-.5-.5zm.5 1h1v3h-1z"/><path d="m10.5 10h5c.276142 0 .5.223858.5.5 0 .276142-.223858.5-.5.5h-5c-.276142 0-.5-.223858-.5-.5 0-.276142.223858-.5.5-.5z"/><path d="m10.5 12h5c.276142 0 .5.223858.5.5 0 .276142-.223858.5-.5.5h-5c-.276142 0-.5-.223858-.5-.5 0-.276142.223858-.5.5-.5z"/><path d="m10.5 14h5c.276142 0 .5.223858.5.5 0 .276142-.223858.5-.5.5h-5c-.276142 0-.5-.223858-.5-.5 0-.276142.223858-.5.5-.5z"/><path d="m6 3c-1.662 0-3 1.337999-3 3v10c0 1.662001 1.338 3 3 3h10c1.662001 0 3-1.337999 3-3v-10c0-1.662001-1.337999-3-3-3zm0 3h10c1.108 0 2 .892 2 2v8c0 1.108-.892 2-2 2h-10c-1.108 0-2-.892-2-2v-8c0-1.108.892-2 2-2z"/></g></svg>