<svg height="22" viewBox="0 0 22 22" width="22" xmlns="http://www.w3.org/2000/svg"><path d="m0 0h22v22h-22z" fill="none"/><path d="m8.51177 2.75036c-.31462.00845-.60501.14531-.77947.367381l-3.89357 4.949969c-.1995.24521-.22757.56252-.07346.8302.15412.26769.4665.44419.81731.46181.35082.01762.6856-.12639.87594-.37678l2.11028-2.681239v9.648599c-.00497.297501.17947.5742.48268.7242.3032.149999.67821.149999.98142 0 .30321-.15.48765-.426699.48268-.7242v-12.374941c.00013-.223259-.10657-.437099-.29572-.59259-.18916-.155489-.4446-.239349-.70799-.232409zm5.85553 2.46209c-.2581.00342-.5041.093611-.6838.25075-.1797.157131-.2784.36833-.2743.587141v12.37496c.0002.363498.281.684099.6914.7894.4105.1052.8539-.029501 1.0919-.331902l3.8935-4.949899c.1995-.2452.227601-.5625.0735-.8302-.154199-.2677-.466499-.4442-.817301-.4618-.350898-.0176-.685699.1264-.875999.3768l-2.1103 2.6812v-9.648559c.0042-.223271-.0987-.438431-.285-.596321-.1863-.1579-.4401-.24506-.7036-.24157z" fill="#fff" fill-rule="evenodd"/></svg>