<svg height="22" viewBox="0 0 22 22" width="22" xmlns="http://www.w3.org/2000/svg"><g fill="#fff"><path d="m8.2503 5c-.25664-.000065-.50348.098534-.68945.275391l-4.6309 4.412099-.61914.58789c-.41438.3942-.41438 1.055 0 1.4492l.61914.58789 4.6309 4.412099c.18597.176861.43281.27545.68945.275391h10.749999c.552262-.000055.999941-.447741 1-1v-10c-.000055-.552259-.447738-.999941-1-1h-10.749999zm0 1h10.749999v10h-10.749999l-4.6309-4.4102-.61914-.58984.61914-.58984 4.6309-4.4102z"/><path d="m10.99 8 2.0098 2.0098 2.0098-2.0098.99024.99023-2.0098 2.0098 2.0098 2.0098-.99024.99023-2.0098-2.0098-2.0098 2.0098-.99023-.99023 2.0098-2.0098-2.0098-2.0098z"/></g></svg>