<svg height="22" viewBox="0 0 22 22" width="22" xmlns="http://www.w3.org/2000/svg"><path d="m9 1c-1.108 0-2 .892-2 2v1h-4.5c-.277 0-.5.223-.5.5s.23687.586559.5.5h.49805l.54688 13.061001c.0612 1.015499.9062 1.939499 1.998 1.939499h9.9141c1.091899 0 1.936799-.923861 1.998-1.939499l.546879-13.061001h.498051c.277 0 .5-.223.5-.5s-.223181-.48992-.5-.5h-4.5v-1c0-1.108-.892-2-2-2h-3zm0 1h3c.554 0 1 .445999 1 1v1h-5v-1c0-.554001.446-1 1-1zm-5 3h13l-.542971 13c-.033329.552999-.445999 1-.999999 1h-9.9141c-.554 0-.96667-.447001-1-1l-.54297-13zm3.5 2c-.277 0-.5.223-.5.5v9c0 .277.223.5.5.5s.5-.223.5-.5v-9c0-.277-.223-.5-.5-.5zm3.002 0c-.277 0-.5.223-.5.5v9c0 .277.223.5.5.5s.5-.223.5-.5v-9c0-.277-.223-.5-.5-.5zm2.998 0c-.277 0-.5.223-.5.5v9c0 .277.223.5.5.5s.5-.223.5-.5v-9c0-.277-.223-.5-.5-.5z" fill="#fff"/></svg>