<?xml version="1.0" encoding="UTF-8"?>
<!-- Generated by Pixelmator Pro 3.2.2 -->
<svg width="22" height="22" viewBox="0 0 22 22" xmlns="http://www.w3.org/2000/svg" xmlns:xlink="http://www.w3.org/1999/xlink">
    <path id="Path" fill="#ffffff" stroke="none" d="M 7 7 L 7 10 L 10 10 L 10 7 Z M 12 7 L 12 10 L 15 10 L 15 7 Z M 7 12 L 7 15 L 10 15 L 10 12 Z M 12 12 L 12 15 L 15 15 L 15 12 Z"/>
    <path id="path1" fill="#ffffff" stroke="none" d="M 6 3 C 4.338 3 3 4.337999 3 6 L 3 8 L 4 8 L 4 6 C 4 4.892 4.892 4 6 4 L 8 4 L 8 3 L 6 3 Z M 14 3 L 14 4 L 16 4 C 17.108 4 18 4.892 18 6 L 18 8 L 19 8 L 19 6 C 19 4.337999 17.662001 3 16 3 L 14 3 Z M 3 14 L 3 16 C 3 17.662001 4.338 19 6 19 L 8 19 L 8 18 L 6 18 C 4.892 18 4 17.108 4 16 L 4 14 L 3 14 Z M 18 14 L 18 16 C 18 17.108 17.108 18 16 18 L 14 18 L 14 19 L 16 19 C 17.662001 19 19 17.662001 19 16 L 19 14 L 18 14 Z"/>
</svg>
