<?xml version="1.0" encoding="UTF-8"?>
<!-- Generated by Pixelmator Pro 3.2.2 -->
<svg width="22" height="22" viewBox="0 0 22 22" xmlns="http://www.w3.org/2000/svg" xmlns:xlink="http://www.w3.org/1999/xlink">
    <path id="Path" fill="#ffffff" stroke="none" d="M 8.2503 5 C 7.99366 4.999935 7.74682 5.098534 7.56085 5.275391 L 2.92995 9.68749 L 2.31081 10.27538 C 1.89643 10.66958 1.89643 11.33038 2.31081 11.72458 L 2.92995 12.31247 L 7.56085 16.724569 C 7.74682 16.90143 7.99366 17.000019 8.2503 16.99996 L 19.000299 16.99996 C 19.552561 16.999905 20.00024 16.552219 20.000299 15.99996 L 20.000299 5.99996 C 20.000244 5.447701 19.552561 5.000019 19.000299 4.99996 L 8.2503 4.99996 Z M 8.2503 6 L 19.000299 6 L 19.000299 16 L 8.2503 16 L 3.6194 11.5898 L 3.00026 10.99996 L 3.6194 10.41012 L 8.2503 5.99992 Z"/>
    <path id="path1" fill="#ffffff" stroke="none" d="M 10.99 8 L 12.9998 10.0098 L 15.0096 8 L 15.99984 8.99023 L 13.99004 11.00003 L 15.99984 13.00983 L 15.0096 14.00006 L 12.9998 11.99026 L 10.99 14.00006 L 9.99977 13.00983 L 12.00957 11.00003 L 9.99977 8.99023 Z"/>
</svg>
