<?xml version="1.0" encoding="UTF-8"?>
<!-- Generated by Pixelmator Pro 3.2.2 -->
<svg width="22" height="22" viewBox="0 0 22 22" xmlns="http://www.w3.org/2000/svg" xmlns:xlink="http://www.w3.org/1999/xlink">
    <path id="Path" fill="#ffffff" stroke="none" d="M 9 1 C 7.892 1 7 1.892 7 3 L 7 4 L 2.5 4 C 2.223 4 2 4.223 2 4.5 C 2 4.777 2.23687 5.086559 2.5 5 L 2.99805 5 L 3.54493 18.061001 C 3.60613 19.0765 4.45113 20.0005 5.54293 20.0005 L 15.45703 20.0005 C 16.548929 20.0005 17.393829 19.076639 17.45503 18.061001 L 18.001909 5 L 18.49996 5 C 18.77696 5 18.99996 4.777 18.99996 4.5 C 18.99996 4.223 18.776779 4.01008 18.49996 4 L 13.99996 4 L 13.99996 3 C 13.99996 1.892 13.10796 1 11.99996 1 L 8.99996 1 Z M 9 2 L 12 2 C 12.554 2 13 2.445999 13 3 L 13 4 L 8 4 L 8 3 C 8 2.445999 8.446 2 9 2 Z M 4 5 L 17 5 L 16.457029 18 C 16.4237 18.552999 16.01103 19 15.45703 19 L 5.54293 19 C 4.98893 19 4.57626 18.552999 4.54293 18 L 3.99996 5 Z M 7.5 7 C 7.223 7 7 7.223 7 7.5 L 7 16.5 C 7 16.777 7.223 17 7.5 17 C 7.777 17 8 16.777 8 16.5 L 8 7.5 C 8 7.223 7.777 7 7.5 7 Z M 10.502 7 C 10.225 7 10.002 7.223 10.002 7.5 L 10.002 16.5 C 10.002 16.777 10.225 17 10.502 17 C 10.779 17 11.002 16.777 11.002 16.5 L 11.002 7.5 C 11.002 7.223 10.779 7 10.502 7 Z M 13.5 7 C 13.223 7 13 7.223 13 7.5 L 13 16.5 C 13 16.777 13.223 17 13.5 17 C 13.777 17 14 16.777 14 16.5 L 14 7.5 C 14 7.223 13.777 7 13.5 7 Z"/>
</svg>
