<?xml version="1.0" encoding="UTF-8"?>
<!-- Generated by Pixelmator Pro 3.2.2 -->
<svg width="22" height="22" viewBox="0 0 22 22" xmlns="http://www.w3.org/2000/svg" xmlns:xlink="http://www.w3.org/1999/xlink">
    <path id="Path" fill="#ffffff" stroke="none" d="M 11 4 C 10.44242 4 10.17322 4.29854 10.00195 4.494141 C 9.83069 4.689739 9.71887 4.88233 9.60742 5.08984 C 9.38451 5.504869 9.18776 5.98423 8.99804 6.46874 C 8.80832 6.95325 8.62904 7.43973 8.47851 7.81054 C 8.403246 7.995951 8.33476 8.15206 8.28515 8.25195 C 8.28013 8.262063 8.2767 8.262394 8.271478 8.271481 C 8.262388 8.276701 8.262058 8.280131 8.251947 8.285153 C 8.152063 8.33476 7.995947 8.403253 7.810537 8.478513 C 7.439727 8.629043 6.953257 8.808323 6.468737 8.998043 C 5.984217 9.187763 5.504867 9.384513 5.089837 9.607423 C 4.882317 9.718873 4.689727 9.830693 4.494137 10.001953 C 4.298537 10.173213 3.999997 10.442413 3.999997 11.000003 C 3.999997 11.557593 4.298537 11.826783 4.494137 11.998053 C 4.689737 12.169313 4.882327 12.281133 5.089837 12.392583 C 5.504867 12.615493 5.984227 12.812243 6.468737 13.001953 C 6.953257 13.191673 7.439727 13.370953 7.810537 13.521483 C 7.995947 13.596743 8.152057 13.665233 8.251947 13.714843 C 8.262762 13.720243 8.2638 13.722943 8.273431 13.728513 C 8.278361 13.737113 8.280411 13.738513 8.28515 13.748043 C 8.33476 13.847933 8.40325 14.004043 8.47851 14.189453 C 8.62904 14.560263 8.80832 15.046733 8.99804 15.531253 C 9.18776 16.015774 9.38451 16.495132 9.60742 16.910152 C 9.71887 17.117674 9.83069 17.310263 10.00195 17.505854 C 10.17321 17.701492 10.44241 17.999992 11 17.999992 C 11.55759 17.999992 11.82678 17.701452 11.99805 17.505854 C 12.16931 17.310253 12.28113 17.117662 12.39258 16.910152 C 12.61549 16.495123 12.81224 16.015762 13.00195 15.531253 C 13.19167 15.046733 13.37095 14.560263 13.52148 14.189453 C 13.59674 14.004053 13.66523 13.847933 13.71484 13.748043 C 13.72024 13.737223 13.72294 13.736193 13.72851 13.726553 C 13.73711 13.721653 13.73851 13.719553 13.74804 13.714833 C 13.84793 13.665223 14.00404 13.596733 14.18945 13.521473 C 14.5603 13.370903 15.04673 13.191663 15.53125 13.001943 C 16.01577 12.812223 16.495131 12.615473 16.910151 12.392573 C 17.11767 12.281123 17.310261 12.169303 17.50585 11.998043 C 17.70145 11.826783 17.99999 11.557583 17.99999 10.999993 C 17.99999 10.442403 17.70145 10.173213 17.50585 10.001943 C 17.310249 9.830683 17.117661 9.718863 16.910151 9.607413 C 16.495119 9.384503 16.01576 9.187753 15.53125 8.998033 C 15.04674 8.808313 14.56026 8.629033 14.18945 8.478503 C 14.00405 8.403239 13.84793 8.334753 13.74804 8.285143 C 13.73793 8.280123 13.7376 8.276693 13.72851 8.271471 C 13.72331 8.262381 13.71981 8.262051 13.71484 8.25194 C 13.66519 8.152056 13.59674 7.99594 13.52148 7.81053 C 13.37095 7.43973 13.19167 6.95326 13.00195 6.46873 C 12.81223 5.9842 12.61548 5.50486 12.39258 5.08983 C 12.28113 4.882309 12.16931 4.68972 11.99805 4.494129 C 11.82679 4.298531 11.55759 3.99999 11 3.99999 Z M 11 5 C 11.61714 5 12.5687 8.5579 13.0059 8.9941 C 13.44219 9.43124 17 10.3828 17 11 C 17 11.6172 13.4421 12.5687 13.0059 13.0059 C 12.56876 13.44219 11.6172 17 11 17 C 10.3828 17 9.4313 13.4421 8.9941 13.0059 C 8.55781 12.56876 5 11.6172 5 11 C 5 10.3828 8.5579 9.4313 8.9941 8.9941 C 9.43124 8.55781 10.3828 5 11 5 Z"/>
</svg>
