<svg height="22" viewBox="0 0 22 22" width="22" xmlns="http://www.w3.org/2000/svg"><path d="m11 4c-.55758 0-.82678.29854-.99805.494141-.17126.195598-.28308.388189-.39453.595699-.22291.415029-.41966.89439-.60938 1.3789s-.369.97099-.51953 1.3418c-.075264.185411-.14375.34152-.19336.44141-.00502.010113-.00845.010444-.013672.019531-.00909.00522-.00942.00865-.019531.013672-.099884.049607-.256.1181-.44141.19336-.37081.15053-.85728.32981-1.3418.51953s-.96387.38647-1.3789.60938c-.20752.11145-.40011.22327-.5957.39453-.1956.17126-.49414.44046-.49414.99805s.29854.82678.49414.99805c.1956.17126.38819.28308.5957.39453.41503.22291.89439.41966 1.3789.60937.48452.18972.97099.369 1.3418.51953.18541.07526.34152.14375.44141.19336.010815.0054.011853.0081.021484.01367.00493.0086.00698.01.011719.01953.04961.09989.1181.256.19336.44141.15053.37081.32981.85728.51953 1.3418.18972.484521.38647.963879.60938 1.378899.11145.207522.22327.400111.39453.595702.17126.195638.44046.494138.99805.494138s.82678-.29854.99805-.494138c.17126-.195601.28308-.388192.39453-.595702.22291-.415029.41966-.89439.60937-1.378899.18972-.48452.369-.97099.51953-1.3418.07526-.1854.14375-.34152.19336-.44141.0054-.01082.0081-.01185.01367-.02149.0086-.0049.01-.007.01953-.01172.09989-.04961.256-.1181.44141-.19336.37085-.15057.85728-.32981 1.3418-.51953s.963881-.38647 1.378901-.60937c.207519-.11145.40011-.22327.595699-.39453.1956-.17126.49414-.44046.49414-.99805s-.29854-.82678-.49414-.99805c-.195601-.17126-.388189-.28308-.595699-.39453-.415032-.22291-.894391-.41966-1.378901-.60938s-.97099-.369-1.3418-.51953c-.1854-.075264-.34152-.14375-.44141-.19336-.01011-.00502-.01044-.00845-.01953-.013672-.0052-.00909-.0087-.00942-.01367-.019531-.04965-.099884-.1181-.256-.19336-.44141-.15053-.3708-.32981-.85727-.51953-1.3418s-.38647-.96387-.60937-1.3789c-.11145-.207521-.22327-.40011-.39453-.595701-.17126-.195598-.44046-.494139-.99805-.494139zm0 1c.61714 0 1.5687 3.5579 2.0059 3.9941.43629.43714 3.9941 1.3887 3.9941 2.0059s-3.5579 1.5687-3.9941 2.0059c-.43714.43629-1.3887 3.9941-2.0059 3.9941s-1.5687-3.5579-2.0059-3.9941c-.43629-.43714-3.9941-1.3887-3.9941-2.0059s3.5579-1.5687 3.9941-2.0059c.43714-.43629 1.3887-3.9941 2.0059-3.9941z" fill="#fff"/></svg>