<svg height="22" viewBox="0 0 22 22" width="22" xmlns="http://www.w3.org/2000/svg"><g fill="#fff"><path d="m10 7v1h1v-1zm0 2v7h1v-7z"/><path d="m10.387 3c-4.650114.061989-8.387113 3.849472-8.3867 8.5 0 4.69442 3.80558 8.5 8.5 8.5s8.499999-3.80558 8.499999-8.5-3.805579-8.5-8.499999-8.5c-.037759-.000252-.07552-.000252-.11328 0zm.07617 1c.01237-.000031.02474-.000031.03711 0 4.142136 0 7.5 3.357864 7.5 7.5s-3.357864 7.5-7.5 7.5-7.5-3.357864-7.5-7.5c-.00005-4.12769 3.33526-7.479582 7.4629-7.5z"/></g></svg>