<?xml version="1.0" encoding="UTF-8"?>
<!-- Generated by Pixelmator Pro 3.2.2 -->
<svg width="22" height="22" viewBox="0 0 22 22" xmlns="http://www.w3.org/2000/svg" xmlns:xlink="http://www.w3.org/1999/xlink">
    <path id="Path" fill="#ffffff" stroke="none" d="M 10 7 L 10 8 L 11 8 L 11 7 Z M 10 9 L 10 16 L 11 16 L 11 9 Z"/>
    <path id="path1" fill="#ffffff" stroke="none" d="M 10.387 3 C 5.736886 3.061989 1.999887 6.849472 2.0003 11.5 C 2.0003 16.19442 5.80588 20 10.5003 20 C 15.19472 20 19.000299 16.19442 19.000299 11.5 C 19.000299 6.80558 15.19472 3 10.5003 3 C 10.462541 2.999748 10.42478 2.999748 10.38702 3 Z M 10.46317 4 C 10.47554 3.999969 10.48791 3.999969 10.50028 4 C 14.642416 4 18.00028 7.357864 18.00028 11.5 C 18.00028 15.642136 14.642416 19 10.50028 19 C 6.358144 19 3.00028 15.642136 3.00028 11.5 C 3.00023 7.37231 6.33554 4.020418 10.46318 4 Z"/>
</svg>
