<svg height="22" viewBox="0 0 21 22" width="21" xmlns="http://www.w3.org/2000/svg"><path d="m2.237339 2.330061h17.898012v17.618484h-17.898012z" fill="none"/><path d="m8.949098 2.330061c-.619716 0-1.118628.491116-1.118628 1.101158v1.101156h-5.033818c-.30986 0-.559313.245556-.559313.550576 0 .305019.249453.550575.559313.550575h.557134l.611752 12.17988c.06846 1.118223 1.013647 2.1357 2.235018 2.1357h8.852934c1.221388 0 2.166574-1.017397 2.234993-2.1357l.611793-12.17988h.557121c.309802 0 .559317-.245556.559317-.550575 0-.30502-.249515-.550576-.559317-.550576h-5.033862v-1.101156c0-.610042-.498871-1.101158-1.118636-1.101158h-3.35585zm0 1.101158h3.355882v1.101156h-3.355882zm-4.474503 2.202307h12.304849l-.607319 12.11269c-.037342.608963-.498952 1.101164-1.118635 1.101164h-8.852934c-.619724 0-1.081342-.492201-1.118628-1.101164l-.607383-12.11269zm2.796565 2.202313c-.309858 0-.559318.245556-.559318.550583v7.708125c0 .304962.24946.550503.559318.550503s.55931-.245541.55931-.550503v-7.708125c0-.305027-.249452-.550583-.55931-.550583zm3.355867 0c-.30985 0-.559302.245556-.559302.550583v7.708125c0 .304962.249452.550503.559302.550503.309883 0 .559318-.245541.559318-.550503v-7.708125c0-.305027-.249435-.550583-.559318-.550583zm3.355908 0c-.309882 0-.559319.245556-.559319.550583v7.708125c0 .304962.249437.550503.559319.550503s.559318-.245541.559318-.550503v-7.708125c0-.305027-.249436-.550583-.559318-.550583z" fill="#fff" fill-rule="evenodd"/></svg>