<?xml version="1.0" encoding="UTF-8"?>
<!-- Generated by Pixelmator Pro 3.2.2 -->
<svg width="21" height="22" viewBox="0 0 21 22" xmlns="http://www.w3.org/2000/svg" xmlns:xlink="http://www.w3.org/1999/xlink">
    <g id="edit-delete-symbolic">
        <path id="Background" fill="none" stroke="none" d="M 2.237339 2.330061 L 20.135351 2.330061 L 20.135351 19.948545 L 2.237339 19.948545 Z"/>
        <path id="Shape" fill="#ffffff" fill-rule="evenodd" stroke="none" d="M 8.949098 2.330061 C 8.329382 2.330061 7.83047 2.821177 7.83047 3.431219 L 7.83047 4.532375 L 2.796652 4.532375 C 2.486792 4.532375 2.237339 4.777931 2.237339 5.082951 C 2.237339 5.38797 2.486792 5.633526 2.796652 5.633526 L 3.353786 5.633526 L 3.965538 17.813406 C 4.033998 18.931629 4.979185 19.949106 6.200556 19.949106 L 15.05349 19.949106 C 16.274878 19.949106 17.220064 18.931709 17.288483 17.813406 L 17.900276 5.633526 L 18.457397 5.633526 C 18.767199 5.633526 19.016714 5.38797 19.016714 5.082951 C 19.016714 4.777931 18.767199 4.532375 18.457397 4.532375 L 13.423535 4.532375 L 13.423535 3.431219 C 13.423535 2.821177 12.924664 2.330061 12.304899 2.330061 L 8.949049 2.330061 Z M 8.949098 3.431219 L 12.30498 3.431219 L 12.30498 4.532375 L 8.949098 4.532375 Z M 4.474595 5.633526 L 16.779444 5.633526 L 16.172125 17.746216 C 16.134783 18.355179 15.673173 18.84738 15.05349 18.84738 L 6.200556 18.84738 C 5.580832 18.84738 5.119214 18.355179 5.081928 17.746216 L 4.474545 5.633526 Z M 7.27116 7.835839 C 6.961302 7.835839 6.711842 8.081395 6.711842 8.386422 L 6.711842 16.094547 C 6.711842 16.399509 6.961302 16.64505 7.27116 16.64505 C 7.581018 16.64505 7.83047 16.399509 7.83047 16.094547 L 7.83047 8.386422 C 7.83047 8.081395 7.581018 7.835839 7.27116 7.835839 Z M 10.627027 7.835839 C 10.317177 7.835839 10.067725 8.081395 10.067725 8.386422 L 10.067725 16.094547 C 10.067725 16.399509 10.317177 16.64505 10.627027 16.64505 C 10.93691 16.64505 11.186345 16.399509 11.186345 16.094547 L 11.186345 8.386422 C 11.186345 8.081395 10.93691 7.835839 10.627027 7.835839 Z M 13.982935 7.835839 C 13.673053 7.835839 13.423616 8.081395 13.423616 8.386422 L 13.423616 16.094547 C 13.423616 16.399509 13.673053 16.64505 13.982935 16.64505 C 14.292817 16.64505 14.542253 16.399509 14.542253 16.094547 L 14.542253 8.386422 C 14.542253 8.081395 14.292817 7.835839 13.982935 7.835839 Z"/>
    </g>
</svg>
