<?xml version="1.0" encoding="UTF-8"?>
<!-- Generated by Pixelmator Pro 3.2.2 -->
<svg width="22" height="22" viewBox="0 0 22 22" xmlns="http://www.w3.org/2000/svg" xmlns:xlink="http://www.w3.org/1999/xlink">
    <path id="Path" fill="#ffffff" stroke="none" d="M 12.846 2.177299 L 12.58314 3.158319 C 11.538069 2.947559 10.461412 2.947811 9.41644 3.15906 L 9.15391 2.176779 L 8.18686 2.435299 L 8.44939 3.41758 C 7.43933 3.757299 6.507322 4.295397 5.70809 5.000278 L 4.98868 4.281788 L 4.28127 4.990019 L 5.00068 5.708508 C 4.295241 6.507865 3.756692 7.440161 3.41668 8.450608 L 2.43566 8.187749 L 2.17684 9.153679 L 3.15786 9.416538 C 2.9471 10.46161 2.947351 11.538266 3.158599 12.583239 L 2.176319 12.845769 L 2.434839 13.812819 L 3.417119 13.550289 C 3.756839 14.560349 4.294937 15.492356 4.999819 16.291588 L 4.281329 17.010998 L 4.989559 17.718409 L 5.708049 16.998999 C 6.507405 17.704437 7.4397 18.242987 8.450149 18.582998 L 8.187288 19.564018 L 9.153218 19.822838 L 9.416079 18.841818 C 10.46115 19.052578 11.537806 19.052326 12.582779 18.841078 L 12.845308 19.823359 L 13.812359 19.564838 L 13.549829 18.58256 C 14.559889 18.242838 15.491896 17.704741 16.291128 16.999859 L 17.010538 17.718349 L 17.717949 17.010118 L 16.998539 16.291628 C 17.703978 15.492272 18.242527 14.559977 18.582539 13.549529 L 19.563559 13.812388 L 19.822378 12.846458 L 18.841358 12.583599 C 19.052118 11.538527 19.051867 10.461871 18.840618 9.416899 L 19.822899 9.154368 L 19.564379 8.187319 L 18.582098 8.449849 C 18.242378 7.439789 17.704281 6.507781 16.999399 5.708549 L 17.717888 4.98914 L 17.009659 4.281729 L 16.291168 5.001139 C 15.491813 4.2957 14.559517 3.757151 13.549068 3.417139 L 13.811929 2.436119 Z M 12.72077 4.2143 L 12.81133 4.238564 C 15.055202 4.839794 16.854639 6.515039 17.614531 8.710264 L 12.73973 10.014464 C 12.475545 9.547916 12.035099 9.206978 11.51723 9.068154 C 11.50156 9.063749 11.485838 9.059537 11.470066 9.055516 C 10.964724 8.932932 10.431505 9.011986 9.983466 9.275916 L 6.417666 5.710016 C 8.147698 4.21072 10.501542 3.652126 12.720766 4.214216 Z M 5.70837 6.4178 L 9.27787 9.9847 C 9.185615 10.140332 9.114902 10.307763 9.06767 10.48241 C 8.832147 11.363095 9.221979 12.291608 10.0156 12.74021 L 8.7094 17.61511 C 5.239399 16.413761 3.28755 12.735224 4.2381 9.18831 C 4.512332 8.165485 5.01505 7.21821 5.7084 6.41781 Z M 17.873369 9.6773 C 18.067863 10.686075 18.037924 11.725295 17.785681 12.7212 L 17.761419 12.81176 C 17.113247 15.231545 15.221396 17.120499 12.80062 17.764959 L 12.79202 17.76676 C 11.774512 18.035666 10.709467 18.071676 9.67612 17.87211 L 10.98182 12.99911 C 11.89342 13.007399 12.69527 12.398177 12.93162 11.51771 C 12.97804 11.342845 13.000519 11.16249 12.99844 10.98158 Z M 11.25877 10.03411 C 11.59039 10.123069 11.853186 10.375938 11.95484 10.70389 C 11.963454 10.731162 11.970894 10.75879 11.97714 10.7867 C 12.01114 10.942728 12.007279 11.10463 11.96588 11.25886 C 11.822939 11.792305 11.274632 12.108883 10.74118 11.96597 C 10.207735 11.823029 9.891157 11.274722 10.03407 10.74127 C 10.077222 10.580504 10.159822 10.433054 10.27438 10.31229 C 10.282431 10.304235 10.290619 10.296316 10.29894 10.28854 C 10.55122 10.039655 10.916382 9.942882 11.25881 10.03416 Z"/>
</svg>
