<svg height="22" viewBox="0 0 22 22" width="22" xmlns="http://www.w3.org/2000/svg"><g fill="#fff"><path d="m7 11c0 .552285-.447715 1-1 1s-1-.447715-1-1 .447715-1 1-1 1 .447715 1 1z"/><path d="m12 11c0 .552285-.447715 1-1 1s-1-.447715-1-1 .447715-1 1-1 1 .447715 1 1z"/><path d="m17 11c0 .552285-.447716 1-1 1-.552285 0-1-.447715-1-1s.447715-1 1-1c.552284 0 1 .447715 1 1z"/><path d="m10.99 2c-4.966735.005409-8.990203 4.033262-8.9902 9 0 4.970563 4.029437 9 9 9s9-4.029437 9-9-4.029437-9-9-9c-.003255-.000002-.006511-.000002-.009766 0zm.009766 1c4.418278 0 7.999999 3.581722 7.999999 8s-3.581721 8-7.999999 8-8-3.581722-8-8 3.581722-8 8-8z"/></g></svg>