<?xml version="1.0" encoding="UTF-8"?>
<!-- Generated by Pixelmator Pro 3.2.2 -->
<svg width="22" height="22" viewBox="0 0 22 22" xmlns="http://www.w3.org/2000/svg" xmlns:xlink="http://www.w3.org/1999/xlink">
    <g id="Group">
        <path id="Path" fill="#ffffff" stroke="none" d="M 7 11 C 7 11.552285 6.552285 12 6 12 C 5.447715 12 5 11.552285 5 11 C 5 10.447715 5.447715 10 6 10 C 6.552285 10 7 10.447715 7 11 Z"/>
        <path id="path1" fill="#ffffff" stroke="none" d="M 12 11 C 12 11.552285 11.552285 12 11 12 C 10.447715 12 10 11.552285 10 11 C 10 10.447715 10.447715 10 11 10 C 11.552285 10 12 10.447715 12 11 Z"/>
        <path id="path2" fill="#ffffff" stroke="none" d="M 17 11 C 17 11.552285 16.552284 12 16 12 C 15.447715 12 15 11.552285 15 11 C 15 10.447715 15.447715 10 16 10 C 16.552284 10 17 10.447715 17 11 Z"/>
        <path id="path3" fill="#ffffff" stroke="none" d="M 10.99 2 C 6.023265 2.005409 1.999797 6.033262 1.9998 11 C 1.9998 15.970563 6.029237 20 10.9998 20 C 15.970363 20 19.9998 15.970563 19.9998 11 C 19.9998 6.029437 15.970363 2 10.9998 2 C 10.996545 1.999998 10.993289 1.999998 10.990034 2 Z M 10.999766 3 C 15.418044 3 18.999765 6.581722 18.999765 11 C 18.999765 15.418278 15.418044 19 10.999766 19 C 6.581488 19 2.999766 15.418278 2.999766 11 C 2.999766 6.581722 6.581488 3 10.999766 3 Z"/>
    </g>
</svg>
