<svg height="22" viewBox="0 0 22 22" width="22" xmlns="http://www.w3.org/2000/svg"><path d="m12.846 2.177299-.26286.98102c-1.045071-.21076-2.121728-.210508-3.1667.000741l-.26253-.982281-.96705.25852.26253.982281c-1.01006.339719-1.942068.877817-2.7413 1.582698l-.71941-.71849-.70741.708231.71941.718489c-.705439.799357-1.243988 1.731653-1.584 2.7421l-.98102-.262859-.25882.96593.98102.262859c-.21076 1.045072-.210509 2.121728.000739 3.166701l-.98228.26253.25852.96705.98228-.26253c.33972 1.01006.877818 1.942067 1.5827 2.741299l-.71849.71941.70823.707411.71849-.71941c.799356.705438 1.731651 1.243988 2.7421 1.583999l-.262861.98102.96593.25882.262861-.98102c1.045071.21076 2.121727.210508 3.1667-.00074l.262529.982281.967051-.258521-.26253-.982278c1.01006-.339722 1.942067-.877819 2.741299-1.582701l.71941.71849.707411-.708231-.71941-.71849c.705439-.799356 1.243988-1.731651 1.584-2.742099l.98102.262859.258819-.96593-.98102-.262859c.21076-1.045072.210509-2.121728-.00074-3.1667l.982281-.262531-.25852-.967049-.982281.26253c-.33972-1.01006-.877817-1.942068-1.582699-2.7413l.718489-.719409-.708229-.707411-.718491.71941c-.799355-.705439-1.731651-1.243988-2.7421-1.584l.262861-.98102zm-.12523 2.037001.09056.024264c2.243872.60123 4.043309 2.276475 4.803201 4.4717l-4.874801 1.3042c-.264185-.466548-.704631-.807486-1.2225-.94631-.01567-.004405-.031392-.008617-.047164-.012638-.505342-.122584-1.038561-.04353-1.4866.2204l-3.5658-3.5659c1.730032-1.499296 4.083876-2.05789 6.3031-1.4958zm-7.0124 2.2035 3.5695 3.5669c-.092255.155632-.162968.323063-.2102.49771-.235523.880685.154309 1.809198.94793 2.2578l-1.3062 4.8749c-3.470001-1.201349-5.42185-4.879886-4.4713-8.4268.274232-1.022825.77695-1.9701 1.4703-2.7705zm12.164999 3.2595c.194494 1.008775.164555 2.047995-.087688 3.0439l-.024262.09056c-.648172 2.419785-2.540023 4.308739-4.960799 4.953199l-.0086.001801c-1.017508.268906-2.082553.304916-3.1159.10535l1.3057-4.873c.9116.008289 1.71345-.600933 1.9498-1.4814.04642-.174865.068899-.35522.06682-.53613zm-6.614599.35681c.33162.088959.594416.341828.69607.66978.008614.027272.016054.0549.0223.08281.034.156028.030139.31793-.01126.47216-.142941.533445-.691248.850023-1.2247.70711-.533445-.142941-.850023-.691248-.70711-1.2247.043152-.160766.125752-.308216.24031-.42898.008051-.008055.016239-.015974.02456-.02375.25228-.248885.617442-.345658.95987-.25438z" fill="#fff"/></svg>