<?xml version="1.0" encoding="UTF-8"?>
<!-- Generated by Pixelmator Pro 3.2.2 -->
<svg width="22" height="22" viewBox="0 0 22 22" xmlns="http://www.w3.org/2000/svg" xmlns:xlink="http://www.w3.org/1999/xlink">
    <g id="Group">
        <path id="Path" fill="#ffffff" stroke="none" d="M 11 3 C 15.432 3 19 6.568 19 11 C 19 12.442 18.617001 13.79 17.955 14.955 L 17.216999 14.217 C 17.732046 13.222915 18.000589 12.119588 18 11 C 18 7.122 14.878 4 11 4 C 9.880412 3.999411 8.777085 4.267954 7.783 4.783001 L 7.045 4.045 C 8.250176 3.359026 9.613275 2.998865 11 3 M 4.045 7.045 L 4.783 7.783 C 4.267954 8.777085 3.99941 9.880412 4 11 C 4 14.878 7.122 18 11 18 C 12.119588 18.000589 13.222915 17.732046 14.217 17.216999 L 14.955 17.955 C 13.749824 18.640974 12.386725 19.001135 11 19 C 6.568 19 3 15.432 3 11 C 3 9.558 3.383 8.21 4.045 7.045"/>
        <path id="path1" fill="#ffffff" stroke="none" d="M 7.5 9.998 L 14.5 9.998 L 14.5 11.998 L 7.5 11.998 Z"/>
    </g>
</svg>
