<svg height="22" viewBox="0 0 22 22" width="22" xmlns="http://www.w3.org/2000/svg"><g fill="#fff"><path d="m11 3c4.432 0 8 3.568 8 8 0 1.442-.382999 2.79-1.045 3.955l-.738001-.738c.515047-.994085.78359-2.097412.783001-3.217 0-3.878-3.122-7-7-7-1.119588-.000589-2.222915.267954-3.217.783001l-.738-.738001c1.205176-.685974 2.568275-1.046135 3.955-1.045m-6.955 4.045.738.738c-.515046.994085-.78359 2.097412-.783 3.217 0 3.878 3.122 7 7 7 1.119588.000589 2.222915-.267954 3.217-.783001l.738.738001c-1.205176.685974-2.568275 1.046135-3.955 1.045-4.432 0-8-3.568-8-8 0-1.442.383-2.79 1.045-3.955"/><path d="m7.5 9.998h7v2h-7z"/></g></svg>