<?xml version="1.0" encoding="UTF-8"?>
<!-- Generated by Pixelmator Pro 3.2.2 -->
<svg width="22" height="22" viewBox="0 0 22 22" xmlns="http://www.w3.org/2000/svg" xmlns:xlink="http://www.w3.org/1999/xlink">
    <path id="Path" fill="#ffffff" stroke="none" d="M 9 9 L 9 15 L 13 12 Z"/>
    <path id="path1" fill="#ffffff" stroke="none" d="M 6 3 C 4.338 3 3 4.337999 3 6 L 3 16 C 3 17.662001 4.338 19 6 19 L 16 19 C 17.662001 19 19 17.662001 19 16 L 19 6 C 19 4.337999 17.662001 3 16 3 Z M 6 6 L 16 6 C 17.108 6 18 6.892 18 8 L 18 16 C 18 17.108 17.108 18 16 18 L 6 18 C 4.892 18 4 17.108 4 16 L 4 8 C 4 6.892 4.892 6 6 6 Z"/>
</svg>
