<?xml version="1.0" encoding="UTF-8"?>
<!-- Generated by Pixelmator Pro 3.2.2 -->
<svg width="22" height="22" viewBox="0 0 22 22" xmlns="http://www.w3.org/2000/svg" xmlns:xlink="http://www.w3.org/1999/xlink">
    <path id="Path" fill="#ffffff" stroke="none" d="M 11 3 C 9.558286 3 8.210711 3.382921 7.044922 4.044922 L 7.783203 4.783203 C 7.783203 4.783203 7.785156 4.78125 7.785156 4.78125 L 10.564453 7.558594 L 11.271484 6.851563 L 8.789063 4.371094 C 9.484686 4.138416 10.223912 4 11 4 C 14.87797 4 18 7.122 18 11 C 18 12.1625 17.714172 13.253897 17.216797 14.216797 L 17.955078 14.955078 C 18.617128 13.789278 19 12.4417 19 11 C 19 6.568 15.431966 3 11 3 Z M 4.044922 7.044922 C 3.382871 8.210722 3 9.5583 3 11 C 3 15.432 6.568034 19 11 19 C 12.441714 19 13.789289 18.617079 14.955078 17.955078 L 14.271484 17.271484 L 14.273438 17.269531 L 11.445312 14.441406 L 10.738281 15.148438 L 13.216797 17.626953 C 12.519497 17.860874 11.778264 18 11 18 C 7.12203 18 4 14.878 4 11 C 4 9.8375 4.285829 8.746103 4.783203 7.783203 L 4.044922 7.044922 Z"/>
</svg>
