<svg height="22" viewBox="0 0 22 22" width="22" xmlns="http://www.w3.org/2000/svg"><path d="m11 3c-1.441714 0-2.789289.382921-3.955078 1.044922l.738281.738281s.001953-.001953.001953-.001953l2.779297 2.777344.707031-.707031-2.482421-2.480469c.695623-.232678 1.434849-.371094 2.210937-.371094 3.87797 0 7 3.122 7 7 0 1.1625-.285828 2.253897-.783203 3.216797l.738281.738281c.66205-1.1658 1.044922-2.513378 1.044922-3.955078 0-4.432-3.568034-8-8-8zm-6.955078 4.044922c-.662051 1.1658-1.044922 2.513378-1.044922 3.955078 0 4.432 3.568034 8 8 8 1.441714 0 2.789289-.382921 3.955078-1.044922l-.683594-.683594.001954-.001953-2.828126-2.828125-.707031.707032 2.478516 2.478515c-.6973.233921-1.438533.373047-2.216797.373047-3.87797 0-7-3.122-7-7 0-1.1625.285829-2.253897.783203-3.216797z" fill="#fff"/></svg>