<?xml version="1.0" encoding="UTF-8"?>
<!-- Generated by Pixelmator Pro 3.2.2 -->
<svg width="22" height="22" viewBox="0 0 22 22" xmlns="http://www.w3.org/2000/svg" xmlns:xlink="http://www.w3.org/1999/xlink">
    <g id="Group">
        <path id="Path" fill="#ffffff" stroke="none" d="M 15 12.000024 L 15 4.914103 L 12.707031 7.206986 L 12 6.49994 L 15.500001 3.000002 L 19 6.49994 L 18.292971 7.206986 L 15.999999 4.914103 L 15.999999 12.000024 Z"/>
        <path id="path1" fill="#ffffff" stroke="none" d="M 3.000001 19.000015 L 3.000001 18 L 17 18 L 17 19.000015 Z"/>
        <path id="path2" fill="#ffffff" stroke="none" d="M 3.000001 15.999969 L 3.000001 14.999954 L 15 14.999954 L 15 15.999969 Z"/>
        <path id="path3" fill="#ffffff" stroke="none" d="M 3.000001 13.000039 L 3.000001 12.000024 L 13 12.000024 L 13 13.000039 Z"/>
        <path id="path4" fill="#ffffff" stroke="none" d="M 3.000001 3.000002 L 3.000001 4.000017 L 7 4.000017 L 7 3.000002 Z"/>
        <path id="path5" fill="#ffffff" stroke="none" d="M 3.000001 6.000048 L 3.000001 6.999948 L 9 6.999948 L 9 6.000048 Z"/>
        <path id="path6" fill="#ffffff" stroke="none" d="M 3.000001 8.999978 L 3.000001 9.999993 L 11 9.999993 L 11 8.999978 Z"/>
    </g>
</svg>
