<svg xmlns="http://www.w3.org/2000/svg" width="22" height="22"><g transform="matrix(.8 0 0 .8 1.4 1.4)"><circle cx="12" cy="12" r="10" fill="#2e87e6"/><path d="M12.02 5a6.985 6.985 0 0 0-6.496 4.42 6.885 6.885 0 0 0-.148.402c-.009.028-.02.055-.028.083A6.873 6.873 0 0 0 5 12.05C5 15.883 8.13 19 11.98 19a6.99 6.99 0 0 0 6.47-4.347c.075-.175.138-.356.199-.538A6.888 6.888 0 0 0 19 11.95C19 8.117 15.87 5 12.02 5zm-.503 1.085v2.34a12.697 12.697 0 0 1-1.893-.205c.088-.207.18-.406.282-.587.466-.836 1.03-1.357 1.61-1.548zm.997.039c.052.008.106.014.158.024.525.229 1.03.725 1.453 1.485.1.178.19.373.278.575-.586.114-1.223.188-1.89.214V6.124zm-3.125.479a5.667 5.667 0 0 0-.354.548 7.54 7.54 0 0 0-.394.834 7.974 7.974 0 0 1-.814-.286 5.976 5.976 0 0 1 1.562-1.096zm5.362.149c.272.109.48.21.69.312.266.185.516.39.748.614-.25.105-.517.203-.807.29a7.536 7.536 0 0 0-.385-.817 6.136 6.136 0 0 0-.247-.4zm2.09 1.675a5.902 5.902 0 0 1 1.137 3.03H16.1a11.01 11.01 0 0 0-.394-2.547c.398-.122.772-.261 1.114-.42.009-.022.014-.042.02-.063zm-9.692.066c.358.166.753.31 1.172.434a11.02 11.02 0 0 0-.39 2.53h-1.87a5.902 5.902 0 0 1 1.088-2.964zm7.589.662c.198.695.327 1.474.364 2.302h-2.588V9.415a13.458 13.458 0 0 0 2.224-.26zm-5.449.015c.694.14 1.444.222 2.227.247v2.04H8.93c.037-.823.164-1.596.36-2.287zM6.06 12.45h1.87c.038.925.18 1.8.408 2.594-.41.121-.794.261-1.146.421A5.903 5.903 0 0 1 6.06 12.45zm2.869 0h2.587v2.109c-.777.024-1.52.106-2.21.243a10.062 10.062 0 0 1-.377-2.353zm3.584 0h2.589a10.058 10.058 0 0 1-.382 2.367 13.468 13.468 0 0 0-2.207-.256v-2.112zm3.587 0h1.877a5.903 5.903 0 0 1-1.154 3.045l-.004-.01a8.652 8.652 0 0 0-1.131-.424c.231-.797.374-1.68.412-2.612zm-4.584 3.102v2.268c-.58-.191-1.144-.71-1.61-1.546a6.234 6.234 0 0 1-.256-.523c.582-.108 1.21-.176 1.866-.2zm.997.002c.657.026 1.284.097 1.863.208-.08.18-.162.352-.251.512-.466.836-1.03 1.355-1.612 1.546v-2.266zm-3.846.43c.112.27.233.53.367.772.106.19.222.366.343.536a5.973 5.973 0 0 1-1.491-1.036c.244-.099.501-.192.78-.273zm6.69.017c.277.082.531.176.772.275-.435.41-.932.754-1.477 1.02A5.903 5.903 0 0 0 15.357 16z" fill="#fff" fill-rule="evenodd"/></g></svg>