<svg height="16" viewBox="0 0 16 16" width="16" xmlns="http://www.w3.org/2000/svg"><path d="m0 0h16v16h-16z" fill="none"/><path d="m6.19038 2.00026c-.22882.00615-.44001.10568-.56689.26719l-2.83168 3.59997c-.14509.17834-.16551.409109-.05343.60379.11208.19468.33927.32305.59441.33586s.49862-.09192.63704-.274019l1.53475-1.949992v7.017141c-.00361.2164.13052.4176.35104.5267.22051.1091.49325.1091.71376 0 .22052-.1091.35465-.3103.35104-.5267v-8.99994c.0001-.16237-.0775-.31789-.21507-.430969-.13757-.113081-.32335-.174071-.5149-.169031zm4.25862 1.79062c-.1878.00248-.3667.06807-.49737.18235-.13069.11428-.20246.267889-.19952.427019v8.999951c.00015.2644.20439.4975.50289.5741s.621-.0214.7941-.2414l2.8316-3.5999c.1451-.17831.1655-.40908.0535-.60376-.1121-.19468-.3393-.32305-.5945-.33586-.2551-.01281-.4986.09192-.637.27402l-1.5347 1.95v-7.017151c.0029-.162379-.0718-.318859-.2073-.433689-.1355-.11484-.3201-.17823-.5117-.17568z" fill="#363636" fill-rule="evenodd"/></svg>