<?xml version="1.0" encoding="utf-8"?>
<svg width="16px" height="16px" viewBox="0 0 16 16" version="1.1" xmlns:xlink="http://www.w3.org/1999/xlink" xmlns="http://www.w3.org/2000/svg">
  <defs>
    <path d="M0 0L16 0L16 16L0 16L0 0Z" id="path_1" />
    <clipPath id="mask_1">
      <use xlink:href="#path_1" />
    </clipPath>
  </defs>
  <g id="document-open-torrent">
    <path d="M0 0L16 0L16 16L0 16L0 0Z" id="Background" fill="#FFFFFF" fill-opacity="0" fill-rule="evenodd" stroke="none" />
    <path d="M6.19038 2.00026C5.96156 2.00641 5.75037 2.10594 5.62349 2.26745L2.79181 5.86742C2.64672 6.04576 2.6263 6.27653 2.73838 6.47121C2.85046 6.66589 3.07765 6.79426 3.33279 6.80707C3.58793 6.81988 3.83141 6.71515 3.96983 6.53305L5.50458 4.58306L5.50458 11.6002C5.50097 11.8166 5.6351 12.0178 5.85562 12.1269C6.07613 12.236 6.34887 12.236 6.56938 12.1269C6.7899 12.0178 6.92403 11.8166 6.92042 11.6002L6.92042 2.60026C6.92052 2.43789 6.84292 2.28237 6.70535 2.16929C6.56778 2.05621 6.382 1.99522 6.19045 2.00026L6.19038 2.00026ZM10.449 3.79088C10.2612 3.79336 10.0823 3.85895 9.95163 3.97323C9.82094 4.08751 9.74917 4.24112 9.75211 4.40025L9.75211 13.4002C9.75226 13.6646 9.9565 13.8977 10.255 13.9743C10.5535 14.0509 10.876 13.9529 11.0491 13.7329L13.8807 10.133C14.0258 9.95469 14.0462 9.72392 13.9342 9.52924C13.8221 9.33456 13.5949 9.20619 13.3397 9.19338C13.0846 9.18057 12.8411 9.2853 12.7027 9.4674L11.168 11.4174L11.168 4.40025C11.1709 4.23787 11.0962 4.08139 10.9607 3.96656C10.8252 3.85172 10.6406 3.78833 10.449 3.79088L10.449 3.79088Z" id="Group" fill="#363636" fill-rule="evenodd" stroke="none" />
  </g>
</svg>