<svg height="16" viewBox="0 0 16 16" width="16" xmlns="http://www.w3.org/2000/svg"><path d="m6 0c-.554 0-1 .446-1 1v1h-4.5c-.277 0-.5.223-.5.5s.223.5.5.5h.49805l.54688 11.061c.0612 1.0155.90615 1.9395 1.998 1.9395h7.9141c1.0919 0 1.9368-.92391 1.998-1.9395l.54688-11.061h.49805c.277 0 .5-.223.5-.5s-.223-.5-.5-.5h-4.5v-1c0-.554-.446-1-1-1h-3zm0 1h3v1h-3zm-4 2h11l-.54297 11c-.03333.553-.446 1-1 1h-7.9141c-.554 0-.96667-.447-1-1l-.54297-11zm2.5 2c-.277 0-.5.223-.5.5v7c0 .277.223.5.5.5s.5-.223.5-.5v-7c0-.277-.223-.5-.5-.5zm3 0c-.277 0-.5.223-.5.5v7c0 .277.223.5.5.5s.5-.223.5-.5v-7c0-.277-.223-.5-.5-.5zm3 0c-.277 0-.5.223-.5.5v7c0 .277.223.5.5.5s.5-.223.5-.5v-7c0-.277-.223-.5-.5-.5z" fill="#da4453"/></svg>