<svg viewBox="0 0 16 16" xmlns="http://www.w3.org/2000/svg"><g fill="#363636"><path d="m6.25 2a1.0001 1.0001 0 0 0 -.68945.27539l-4.6309 4.4121-.61914.58789a1.0001 1.0001 0 0 0 0 1.4492l.61914.58789 4.6309 4.4121a1.0001 1.0001 0 0 0 .68945.27539h7.875.875a1.0001 1.0001 0 0 0 1-1v-10a1.0001 1.0001 0 0 0 -1-1h-.875-7.875zm0 1h7.875.875v10h-.875-7.875l-4.6309-4.4102-.61914-.58984.61914-.58984 4.6309-4.4102z"/><path d="m8.002 5 2.0098 2.0098 2.0098-2.0098.99024.99023-2.0098 2.0098 2.0098 2.0098-.99024.99023-2.0098-2.0098-2.0098 2.0098-.99023-.99023 2.0098-2.0098-2.0098-2.0098z"/></g></svg>