<svg width="16" height="16" version="1.1" xmlns="http://www.w3.org/2000/svg">
 <defs>
  <style id="current-color-scheme" type="text/css">.ColorScheme-Text { color:#363636; }</style>
 </defs>
 <path class="ColorScheme-Text" d="m8 1c-0.55758 0-0.82678 0.29854-0.99805 0.49414-0.17126 0.1956-0.28308 0.38819-0.39453 0.5957-0.22291 0.41503-0.41966 0.89439-0.60938 1.3789s-0.369 0.97099-0.51953 1.3418c-0.075264 0.18541-0.14375 0.34152-0.19336 0.44141-0.00502 0.010113-0.00845 0.010444-0.013672 0.019531-0.00909 0.00522-0.00942 0.00865-0.019531 0.013672-0.099884 0.049607-0.256 0.1181-0.44141 0.19336-0.37081 0.15053-0.85728 0.32981-1.3418 0.51953s-0.96387 0.38647-1.3789 0.60938c-0.20752 0.11145-0.40011 0.22327-0.5957 0.39453-0.1956 0.17126-0.49414 0.44046-0.49414 0.99805s0.29854 0.82678 0.49414 0.99805c0.1956 0.17126 0.38819 0.28308 0.5957 0.39453 0.41503 0.22291 0.89439 0.41966 1.3789 0.60937 0.48452 0.18972 0.97099 0.369 1.3418 0.51953 0.18541 0.07526 0.34152 0.14375 0.44141 0.19336 0.010815 0.0054 0.011853 0.0081 0.021484 0.01367 0.00493 0.0086 0.00698 0.01 0.011719 0.01953 0.04961 0.09989 0.1181 0.256 0.19336 0.44141 0.15053 0.37081 0.32981 0.85728 0.51953 1.3418s0.38647 0.96388 0.60938 1.3789c0.11145 0.20752 0.22327 0.40011 0.39453 0.5957 0.17126 0.19564 0.44046 0.49414 0.99805 0.49414s0.82678-0.29854 0.99805-0.49414c0.17126-0.1956 0.28308-0.38819 0.39453-0.5957 0.22291-0.41503 0.41966-0.89439 0.60937-1.3789 0.18972-0.48452 0.369-0.97099 0.51953-1.3418 0.07526-0.1854 0.14375-0.34152 0.19336-0.44141 0.0054-0.01082 0.0081-0.01185 0.01367-0.02149 0.0086-0.0049 0.01-7e-3 0.01953-0.01172 0.09989-0.04961 0.256-0.1181 0.44141-0.19336 0.37085-0.15057 0.85728-0.32981 1.3418-0.51953 0.48452-0.18972 0.96388-0.38647 1.3789-0.60937 0.20752-0.11145 0.40011-0.22327 0.5957-0.39453 0.1956-0.17126 0.49414-0.44046 0.49414-0.99805s-0.29854-0.82678-0.49414-0.99805c-0.1956-0.17126-0.38819-0.28308-0.5957-0.39453-0.41503-0.22291-0.89439-0.41966-1.3789-0.60938s-0.97099-0.369-1.3418-0.51953c-0.1854-0.075264-0.34152-0.14375-0.44141-0.19336-0.01011-0.00502-0.01044-0.00845-0.01953-0.013672-0.0052-0.00909-0.0087-0.00942-0.01367-0.019531-0.04965-0.099884-0.1181-0.256-0.19336-0.44141-0.15053-0.3708-0.32981-0.85727-0.51953-1.3418-0.18972-0.48453-0.38647-0.96387-0.60937-1.3789-0.11145-0.20752-0.22327-0.40011-0.39453-0.5957-0.17126-0.1956-0.44046-0.49414-0.99805-0.49414zm0 1c0.61714 0 1.5687 3.5579 2.0059 3.9941 0.43629 0.43714 3.9941 1.3887 3.9941 2.0059s-3.5579 1.5687-3.9941 2.0059c-0.43714 0.43629-1.3887 3.9941-2.0059 3.9941s-1.5687-3.5579-2.0059-3.9941c-0.43629-0.43714-3.9941-1.3887-3.9941-2.0059s3.5579-1.5687 3.9941-2.0059c0.43714-0.43629 1.3887-3.9941 2.0059-3.9941z" fill="currentColor"/>
</svg>
