<?xml version="1.0" encoding="utf-8"?>
<svg width="16px" height="16px" viewBox="0 0 16 16" version="1.1" xmlns:xlink="http://www.w3.org/1999/xlink" xmlns="http://www.w3.org/2000/svg">
  <defs>
    <path d="M0 0L16 0L16 16L0 16L0 0Z" id="path_1" />
    <clipPath id="mask_1">
      <use xlink:href="#path_1" />
    </clipPath>
  </defs>
  <g id="magnet-24">
    <path d="M0 0L16 0L16 16L0 16L0 0Z" id="Background" fill="#FFFFFF" fill-opacity="0" fill-rule="evenodd" stroke="none" />
    <path d="M2.66667 8C2.66667 10.9455 5.05448 13.3333 8 13.3333C10.9455 13.3333 13.3333 10.9455 13.3333 8L13.3333 5.33333L11.3333 5.33333L11.3333 8C11.3333 9.84095 9.84095 11.3333 8 11.3333C6.15905 11.3333 4.66667 9.84095 4.66667 8L4.66667 5.33333L2.66667 5.33333L2.66667 8ZM2.66667 4.66667L4.66667 4.66667L4.66667 2.66667L2.66667 2.66667L2.66667 4.66667ZM11.3333 4.66667L13.3333 4.66667L13.3333 2.66667L11.3333 2.66667L11.3333 4.66667Z" id="g184" fill="#363636" fill-rule="evenodd" stroke="none" />
  </g>
</svg>