<?xml version="1.0" encoding="UTF-8" standalone="no"?>
<svg
   width="16"
   height="16"
   version="1.1"
   viewBox="0 0 16 16"
   id="svg7"
   sodipodi:docname="list-remove.svg"
   inkscape:version="1.2.2 (b0a8486, 2022-12-01)"
   xmlns:inkscape="http://www.inkscape.org/namespaces/inkscape"
   xmlns:sodipodi="http://sodipodi.sourceforge.net/DTD/sodipodi-0.dtd"
   xmlns="http://www.w3.org/2000/svg"
   xmlns:svg="http://www.w3.org/2000/svg">
  <sodipodi:namedview
     id="namedview9"
     pagecolor="#ffffff"
     bordercolor="#000000"
     borderopacity="0.25"
     inkscape:showpageshadow="2"
     inkscape:pageopacity="0.0"
     inkscape:pagecheckerboard="0"
     inkscape:deskcolor="#d1d1d1"
     showgrid="false"
     inkscape:zoom="14.75"
     inkscape:cx="8.8474576"
     inkscape:cy="8.4067797"
     inkscape:window-width="1309"
     inkscape:window-height="702"
     inkscape:window-x="0"
     inkscape:window-y="25"
     inkscape:window-maximized="0"
     inkscape:current-layer="svg7" />
  <defs
     id="defs3">
    <style
       id="current-color-scheme"
       type="text/css">.ColorScheme-Text { color:#363636; }</style>
  </defs>
  <path
     d="m 6.4881333,1.7627118 c -0.4738733,0 -0.8553669,0.3477319 -0.8553669,0.779668 V 3.3220476 H 1.7836156 c -0.2369367,0 -0.4276834,0.173866 -0.4276834,0.3898339 0,0.2159681 0.1907467,0.3898341 0.4276834,0.3898341 H 2.209631 l 0.4677831,8.6239064 c 0.052348,0.791753 0.7750906,1.512166 1.7090229,1.512166 h 6.769459 c 0.933975,0 1.656675,-0.720343 1.709023,-1.512166 l 0.467783,-8.6239064 h 0.426015 c 0.236937,0 0.427684,-0.173866 0.427684,-0.3898341 0,-0.2159679 -0.190747,-0.3898339 -0.427684,-0.3898339 H 9.9095668 V 2.5423798 c 0,-0.4319361 -0.3814942,-0.779668 -0.8553677,-0.779668 H 6.488099 Z m 0,0.779668 h 2.566101 V 3.3220476 H 6.4881333 Z M 3.0666658,4.1017156 h 9.4090352 l -0.464438,8.5763474 c -0.02851,0.431156 -0.381494,0.779667 -0.855367,0.779667 H 4.386437 c -0.4738732,0 -0.8268574,-0.348511 -0.8553668,-0.779667 L 3.0666317,4.1017156 Z M 5.205083,5.6610514 c -0.2369367,0 -0.4276834,0.1738659 -0.4276834,0.3898339 V 11.50856 c 0,0.215969 0.1907467,0.389834 0.4276834,0.389834 0.2369366,0 0.4276834,-0.173865 0.4276834,-0.389834 V 6.0508853 c 0,-0.215968 -0.1907468,-0.3898339 -0.4276834,-0.3898339 z m 2.5661005,0 c -0.2369367,0 -0.4276834,0.1738659 -0.4276834,0.3898339 V 11.50856 c 0,0.215969 0.1907467,0.389834 0.4276834,0.389834 0.2369364,0 0.4276833,-0.173865 0.4276833,-0.389834 V 6.0508853 c 0,-0.215968 -0.1907469,-0.3898339 -0.4276833,-0.3898339 z m 2.5661015,0 c -0.236937,0 -0.427684,0.1738659 -0.427684,0.3898339 V 11.50856 c 0,0.215969 0.190747,0.389834 0.427684,0.389834 0.236937,0 0.427682,-0.173865 0.427682,-0.389834 V 6.0508853 c 0,-0.215968 -0.190745,-0.3898339 -0.427682,-0.3898339 z"
     style="fill:currentColor;stroke-width:0.816642"
     class="ColorScheme-Text"
     id="path5" />
</svg>
