<svg height="16" viewBox="0 0 16 16" width="16" xmlns="http://www.w3.org/2000/svg"><path d="m6.4881333 1.7627118c-.4738733 0-.8553669.3477319-.8553669.779668v.7796678h-3.8491508c-.2369367 0-.4276834.173866-.4276834.3898339 0 .2159681.1907467.3898341.4276834.3898341h.4260154l.4677831 8.6239064c.052348.791753.7750906 1.512166 1.7090229 1.512166h6.769459c.933975 0 1.656675-.720343 1.709023-1.512166l.467783-8.6239064h.426015c.236937 0 .427684-.173866.427684-.3898341 0-.2159679-.190747-.3898339-.427684-.3898339h-3.8491502v-.7796678c0-.4319361-.3814942-.779668-.8553677-.779668h-2.5661001zm0 .779668h2.566101v.7796678h-2.566101zm-3.4214675 1.5593358h9.4090352l-.464438 8.5763474c-.02851.431156-.381494.779667-.855367.779667h-6.769459c-.4738732 0-.8268574-.348511-.8553668-.779667l-.4644385-8.5763474zm2.1384172 1.5593358c-.2369367 0-.4276834.1738659-.4276834.3898339v5.4576747c0 .215969.1907467.389834.4276834.389834.2369366 0 .4276834-.173865.4276834-.389834v-5.4576747c0-.215968-.1907468-.3898339-.4276834-.3898339zm2.5661005 0c-.2369367 0-.4276834.1738659-.4276834.3898339v5.4576747c0 .215969.1907467.389834.4276834.389834.2369364 0 .4276833-.173865.4276833-.389834v-5.4576747c0-.215968-.1907469-.3898339-.4276833-.3898339zm2.5661015 0c-.236937 0-.427684.1738659-.427684.3898339v5.4576747c0 .215969.190747.389834.427684.389834s.427682-.173865.427682-.389834v-5.4576747c0-.215968-.190745-.3898339-.427682-.3898339z" fill="#363636" stroke-width=".816642"/></svg>