<svg height="16" width="16" xmlns="http://www.w3.org/2000/svg"><path d="m6.127.25977c-.064351-.0088818-.13038-.0042513-.19727.013672-.26756.071693-.42521.34377-.35352.61133l.13672.50977a7 7 0 0 0 -1.1719.5293c-.013468.0062677-.027897.0060977-.041016.013672-.01342.007748-.020785.02055-.033203.029297a7 7 0 0 0 -1.0449.74805l-.37109-.37109c-.19587-.19587-.51116-.19587-.70703 0s-.19587.51116 0 .70703l.36914.36914a7 7 0 0 0 -.77539 1.0801 7 7 0 0 0 -.54883 1.2109l-.50391-.13477c-.26756-.071693-.53964.085954-.61133.35352s.085954.53964.35352.61133l.50586.13672a7 7 0 0 0 -.0019531 2.6465l-.50391.13477c-.26756.071693-.42521.34377-.35352.61133.071693.26756.34377.42521.61133.35352l.50977-.13672a7 7 0 0 0 1.3203 2.291l-.37109.37109c-.19587.19587-.19587.51116 0 .70703s.51116.19587.70703 0l.36914-.36914a7 7 0 0 0 1.0801.77539 7 7 0 0 0 1.2109.54883l-.13477.50391c-.071693.26756.085954.53964.35352.61133.26756.071693.53964-.085954.61133-.35352l.13672-.50586a7 7 0 0 0 2.6465.001953l.13477.50391c.071693.26756.34377.42521.61133.35352.26756-.071692.42521-.34377.35352-.61133l-.13672-.50976a7 7 0 0 0 2.291-1.3203l.37109.37109c.19587.19587.51116.19587.70703 0s.19587-.51116 0-.70703l-.36914-.36914a7 7 0 0 0 .77539-1.0801 7 7 0 0 0 .54883-1.2109l.50391.13477c.26756.071693.53964-.085954.61133-.35352.071693-.26756-.085954-.53963-.35352-.61133l-.50586-.13672a7 7 0 0 0 .12695-1.2949c.000542-.0095814.005859-.017622.005859-.027344 0-.012518-.006917-.022874-.007812-.035156a7 7 0 0 0 -.12305-1.2891l.50391-.13477c.26756-.071693.42521-.34377.35352-.61133-.071692-.26756-.34377-.42521-.61133-.35352l-.50976.13672a7 7 0 0 0 -1.3203-2.291l.37109-.37109c.19587-.19587.19587-.51116 0-.70703s-.51116-.19587-.70703 0l-.36914.36914a7 7 0 0 0 -1.0801-.77539 7 7 0 0 0 -1.2109-.54883l.13477-.50391c.071693-.26756-.085954-.53964-.35352-.61133-.26756-.071693-.53963.085954-.61133.35352l-.13672.50586a7 7 0 0 0 -2.6465-.0019531l-.13477-.50391c-.05377-.20067-.22101-.34054-.41406-.36719zm1.5898 1.7461a6 6 0 0 1 3.2832.79883 6 6 0 0 1 2.9727 4.6953h-4.0391a2 2 0 0 0 -1.9336-1.5 2 2 0 0 0 -.5332.074219l-2.0215-3.5a6 6 0 0 1 2.2715-.56836zm-3.1367 1.0723 2.0195 3.4961a2 2 0 0 0 -.59961 1.4258 2 2 0 0 0 .59766 1.4258l-2.0195 3.498a6 6 0 0 1 -1.7734-7.9238 6 6 0 0 1 1.7754-1.9219zm3.4199 3.9219a1 1 0 0 1 1 1 1 1 0 0 1 -1 1 1 1 0 0 1 -1-1 1 1 0 0 1 1-1zm1.9355 1.5h4.0371a6 6 0 0 1 -.77734 2.5 6 6 0 0 1 -7.75 2.4238l2.0195-3.4961a2 2 0 0 0 .53516.072266 2 2 0 0 0 1.9355-1.5z" fill="#363636"/></svg>