<svg viewBox="0 0 16 16" xmlns="http://www.w3.org/2000/svg"><path d="m8 2a6 5.9999852 0 0 0 -3.4726562 1.1132812l.71875.71875a5 5 0 0 1 2.7539062-.8320312 5 5 0 0 1 5 5 5 5 0 0 1 -.832031 2.753906l.716797.716797a6 5.9999852 0 0 0 1.115234-3.470703 6 5.9999852 0 0 0 -6-6zm-4.8847656 2.5292969a6 5.9999852 0 0 0 -1.1152344 3.4707031 6 5.9999852 0 0 0 6 6 6 5.9999852 0 0 0 3.472656-1.113281l-.71875-.71875a5 5 0 0 1 -2.753906.832031 5 5 0 0 1 -5-5 5 5 0 0 1 .8320312-2.7539062zm1.8847656 2.4707031v2h6v-2z" fill="#da4453"/></svg>