<svg viewBox="0 0 16 16" xmlns="http://www.w3.org/2000/svg"><path d="m8 2c-1.1088173 0-2.1400706.3193334-3.03125.84375l.5625.5625.1875.1875 1.9375 1.9375.71875-.71875-1.625-1.625c.19534-.0510901.3898623-.0977158.59375-.125.0524063-.0077887.1032787-.0251835.15625-.03125.1680854-.01707.327411-.03125.5-.03125 2.761424 0 5 2.2385759 5 5 0 .243024-.02845.4855082-.0625.71875-.019955.1362493-.031786.2738032-.0625.40625-.06695.2865815-.166647.547624-.28125.8125-.013272.0306753-.017376.063399-.03125.09375-.040961.091658-.108255.163333-.15625.25-.004453.008041.004332.023053 0 .03125l.75.71875c.524417-.891179.84375-1.922432.84375-3.03125 0-3.3137091-2.686293-6-6-6zm-5.15625 2.96875c-.5244168.8911794-.84375 1.922432-.84375 3.03125 0 3.313709 2.6862934 6 6 6 1.1088173 0 2.140071-.319333 3.03125-.84375l-.5625-.5625-.1875-.1875-1.9375-1.90625-.6875.6875 1.59375 1.625c-.19534.05109-.3898623.097716-.59375.125-.0524063.007789-.1032787.025184-.15625.03125-.1680854.01707-.327411.03125-.5.03125s-.3319146-.01418-.5-.03125c-.1680853-.01707-.337256-.029198-.5-.0625-2.2784153-.466231-4-2.490004-4-4.90625 0-.2482626.0275593-.4801862.0625-.71875.0199555-.1362493.0317865-.2738032.0625-.40625.0669502-.2865815.1666465-.547624.28125-.8125.0129926-.030718.0176645-.0633494.03125-.09375.0406185-.0888605.1086122-.1647355.15625-.25v-.03125z" fill="#363636"/></svg>