<?xml version="1.0" encoding="UTF-8" standalone="no"?>
<!-- Created with Inkscape (http://www.inkscape.org/) -->

<svg
   xmlns:dc="http://purl.org/dc/elements/1.1/"
   xmlns:cc="http://creativecommons.org/ns#"
   xmlns:rdf="http://www.w3.org/1999/02/22-rdf-syntax-ns#"
   xmlns:svg="http://www.w3.org/2000/svg"
   xmlns="http://www.w3.org/2000/svg"
   xmlns:xlink="http://www.w3.org/1999/xlink"
   xmlns:sodipodi="http://sodipodi.sourceforge.net/DTD/sodipodi-0.dtd"
   xmlns:inkscape="http://www.inkscape.org/namespaces/inkscape"
   width="96"
   height="96"
   id="svg2408"
   sodipodi:version="0.32"
   inkscape:version="0.47 r22583"
   version="1.0"
   sodipodi:docname="network-transmit.svg"
   inkscape:output_extension="org.inkscape.output.svg.inkscape">
  <defs
     id="defs2410">
    <linearGradient
       inkscape:collect="always"
       id="linearGradient3807">
      <stop
         style="stop-color:#ffffff;stop-opacity:1;"
         offset="0"
         id="stop3809" />
      <stop
         style="stop-color:#ffffff;stop-opacity:0;"
         offset="1"
         id="stop3811" />
    </linearGradient>
    <linearGradient
       inkscape:collect="always"
       id="linearGradient3799">
      <stop
         style="stop-color:#ffffff;stop-opacity:1;"
         offset="0"
         id="stop3801" />
      <stop
         style="stop-color:#ffffff;stop-opacity:0;"
         offset="1"
         id="stop3803" />
    </linearGradient>
    <linearGradient
       inkscape:collect="always"
       id="linearGradient3783">
      <stop
         style="stop-color:#ffffff;stop-opacity:1;"
         offset="0"
         id="stop3785" />
      <stop
         style="stop-color:#ffffff;stop-opacity:0;"
         offset="1"
         id="stop3787" />
    </linearGradient>
    <linearGradient
       id="ButtonShadow"
       gradientTransform="scale(1.0058652,0.994169)"
       x1="45.447727"
       y1="92.539597"
       x2="45.447727"
       y2="7.0165396"
       gradientUnits="userSpaceOnUse">
      <stop
         style="stop-color:#000000;stop-opacity:1;"
         offset="0"
         id="stop3750" />
      <stop
         style="stop-color:#000000;stop-opacity:0.58823532;"
         offset="1"
         id="stop3752" />
    </linearGradient>
    <linearGradient
       inkscape:collect="always"
       id="linearGradient3737">
      <stop
         style="stop-color:#ffffff;stop-opacity:1;"
         offset="0"
         id="stop3739" />
      <stop
         style="stop-color:#ffffff;stop-opacity:0;"
         offset="1"
         id="stop3741" />
    </linearGradient>
    <linearGradient
       id="linearGradient3700">
      <stop
         style="stop-color:#2276c5;stop-opacity:1;"
         offset="0"
         id="stop3702" />
      <stop
         style="stop-color:#68baf4;stop-opacity:1;"
         offset="1"
         id="stop3704" />
    </linearGradient>
    <inkscape:perspective
       sodipodi:type="inkscape:persp3d"
       inkscape:vp_x="0 : 526.18109 : 1"
       inkscape:vp_y="0 : 1000 : 0"
       inkscape:vp_z="744.09448 : 526.18109 : 1"
       inkscape:persp3d-origin="372.04724 : 350.78739 : 1"
       id="perspective2416" />
    <linearGradient
       inkscape:collect="always"
       xlink:href="#linearGradient3700"
       id="linearGradient3706"
       x1="48"
       y1="90"
       x2="48"
       y2="5.9877172"
       gradientUnits="userSpaceOnUse" />
    <linearGradient
       inkscape:collect="always"
       xlink:href="#linearGradient3737"
       id="linearGradient3743"
       x1="36.357143"
       y1="6"
       x2="36.357143"
       y2="63.893143"
       gradientUnits="userSpaceOnUse" />
    <filter
       inkscape:collect="always"
       id="filter3174"
       color-interpolation-filters="sRGB">
      <feGaussianBlur
         inkscape:collect="always"
         stdDeviation="1.71"
         id="feGaussianBlur3176" />
    </filter>
    <linearGradient
       inkscape:collect="always"
       xlink:href="#linearGradient3737"
       id="linearGradient3188"
       gradientUnits="userSpaceOnUse"
       x1="36.357143"
       y1="6"
       x2="36.357143"
       y2="63.893143" />
    <filter
       inkscape:collect="always"
       id="filter3794"
       x="-0.192"
       width="1.3839999"
       y="-0.192"
       height="1.3839999"
       color-interpolation-filters="sRGB">
      <feGaussianBlur
         inkscape:collect="always"
         stdDeviation="5.28"
         id="feGaussianBlur3796" />
    </filter>
    <linearGradient
       inkscape:collect="always"
       xlink:href="#linearGradient3737"
       id="linearGradient3613"
       x1="48"
       y1="20.220806"
       x2="48"
       y2="138.66119"
       gradientUnits="userSpaceOnUse" />
    <radialGradient
       inkscape:collect="always"
       xlink:href="#linearGradient3737"
       id="radialGradient3619"
       cx="48"
       cy="90.171875"
       fx="48"
       fy="90.171875"
       r="42"
       gradientTransform="matrix(1.1573129,0,0,0.99590774,-7.5510206,0.19713193)"
       gradientUnits="userSpaceOnUse" />
    <clipPath
       clipPathUnits="userSpaceOnUse"
       id="clipPath3613">
      <rect
         ry="6"
         rx="6"
         y="6"
         x="6"
         height="84"
         width="84"
         id="rect3615"
         style="fill:#ffffff;fill-opacity:1;fill-rule:nonzero;stroke:none" />
    </clipPath>
    <linearGradient
       inkscape:collect="always"
       xlink:href="#linearGradient3187"
       id="linearGradient3617"
       gradientUnits="userSpaceOnUse"
       x1="48"
       y1="90"
       x2="48"
       y2="5.9877172" />
    <inkscape:perspective
       id="perspective3925"
       inkscape:persp3d-origin="0.5 : 0.33333333 : 1"
       inkscape:vp_z="1 : 0.5 : 1"
       inkscape:vp_y="0 : 1000 : 0"
       inkscape:vp_x="0 : 0.5 : 1"
       sodipodi:type="inkscape:persp3d" />
    <linearGradient
       inkscape:collect="always"
       xlink:href="#linearGradient3187"
       id="linearGradient5006"
       gradientUnits="userSpaceOnUse"
       gradientTransform="matrix(1.0172414,0,0,1.0172414,-1.1034483,-1.1034472)"
       x1="69"
       y1="122"
       x2="69"
       y2="5.9781809" />
    <linearGradient
       id="linearGradient3187">
      <stop
         style="stop-color:#333333;stop-opacity:1;"
         offset="0"
         id="stop3189" />
      <stop
         style="stop-color:#444444;stop-opacity:1;"
         offset="1"
         id="stop3191" />
    </linearGradient>
    <linearGradient
       y2="5.9781809"
       x2="69"
       y1="122"
       x1="69"
       gradientTransform="matrix(1.0172414,0,0,1.0172414,-117.42488,3.3965528)"
       gradientUnits="userSpaceOnUse"
       id="linearGradient3934"
       xlink:href="#linearGradient3187"
       inkscape:collect="always" />
    <inkscape:perspective
       id="perspective3964"
       inkscape:persp3d-origin="0.5 : 0.33333333 : 1"
       inkscape:vp_z="1 : 0.5 : 1"
       inkscape:vp_y="0 : 1000 : 0"
       inkscape:vp_x="0 : 0.5 : 1"
       sodipodi:type="inkscape:persp3d" />
    <radialGradient
       inkscape:collect="always"
       xlink:href="#linearGradient5226"
       id="radialGradient5232"
       cx="63.98003"
       cy="61.948856"
       fx="63.98003"
       fy="61.948856"
       r="58.01997"
       gradientTransform="matrix(1.5312074,0,0,1.1812169,-33.966694,-11.20439)"
       gradientUnits="userSpaceOnUse" />
    <linearGradient
       inkscape:collect="always"
       id="linearGradient5226">
      <stop
         style="stop-color:#ffffff;stop-opacity:1;"
         offset="0"
         id="stop5228" />
      <stop
         style="stop-color:#ffffff;stop-opacity:0;"
         offset="1"
         id="stop5230" />
    </linearGradient>
    <inkscape:perspective
       id="perspective4003"
       inkscape:persp3d-origin="0.5 : 0.33333333 : 1"
       inkscape:vp_z="1 : 0.5 : 1"
       inkscape:vp_y="0 : 1000 : 0"
       inkscape:vp_x="0 : 0.5 : 1"
       sodipodi:type="inkscape:persp3d" />
    <radialGradient
       inkscape:collect="always"
       xlink:href="#linearGradient5226-0"
       id="radialGradient3462"
       gradientUnits="userSpaceOnUse"
       gradientTransform="matrix(0.70689703,0,0,0.26397967,2.935342,34.087887)"
       cx="69.75"
       cy="75.973572"
       fx="69.75"
       fy="75.973572"
       r="58.5" />
    <linearGradient
       inkscape:collect="always"
       id="linearGradient5226-0">
      <stop
         style="stop-color:#ffffff;stop-opacity:1;"
         offset="0"
         id="stop5228-7" />
      <stop
         style="stop-color:#ffffff;stop-opacity:0;"
         offset="1"
         id="stop5230-6" />
    </linearGradient>
    <radialGradient
       inkscape:collect="always"
       xlink:href="#linearGradient5226-0"
       id="radialGradient3465"
       gradientUnits="userSpaceOnUse"
       gradientTransform="matrix(0.51921983,-0.47906434,1.2026838,1.3000296,-72.74405,-19.887561)"
       cx="49.233551"
       cy="70.608253"
       fx="49.233551"
       fy="70.608253"
       r="25.483549" />
    <radialGradient
       inkscape:collect="always"
       xlink:href="#linearGradient5226-0"
       id="radialGradient3468"
       gradientUnits="userSpaceOnUse"
       gradientTransform="matrix(0.9747377,0,0,0.92610887,-14.268168,-12.6013)"
       cx="64.230392"
       cy="68.449158"
       fx="64.230392"
       fy="68.449158"
       r="43.769611" />
    <radialGradient
       inkscape:collect="always"
       xlink:href="#linearGradient5226-0"
       id="radialGradient3471"
       gradientUnits="userSpaceOnUse"
       gradientTransform="matrix(0.84390682,0,0,0.33117465,-5.8161585,32.792567)"
       cx="63.875"
       cy="2.2173476"
       fx="63.875"
       fy="2.2173476"
       r="58.375" />
    <radialGradient
       inkscape:collect="always"
       xlink:href="#linearGradient3543"
       id="radialGradient3451"
       gradientUnits="userSpaceOnUse"
       cx="74.375"
       cy="67.125"
       fx="74.375"
       fy="67.125"
       r="3.125" />
    <linearGradient
       id="linearGradient3543">
      <stop
         style="stop-color:#ffffff;stop-opacity:1;"
         offset="0"
         id="stop3545" />
      <stop
         id="stop3555"
         offset="0.30645162"
         style="stop-color:#ffffff;stop-opacity:1;" />
      <stop
         id="stop3551"
         offset="0.51899064"
         style="stop-color:#ffffff;stop-opacity:0.640625;" />
      <stop
         style="stop-color:#ffffff;stop-opacity:0;"
         offset="1"
         id="stop3547" />
    </linearGradient>
    <radialGradient
       inkscape:collect="always"
       xlink:href="#linearGradient3543"
       id="radialGradient3449"
       gradientUnits="userSpaceOnUse"
       cx="74.375"
       cy="67.125"
       fx="74.375"
       fy="67.125"
       r="3.125" />
    <linearGradient
       id="linearGradient4039">
      <stop
         style="stop-color:#ffffff;stop-opacity:1;"
         offset="0"
         id="stop4041" />
      <stop
         id="stop4043"
         offset="0.30645162"
         style="stop-color:#ffffff;stop-opacity:1;" />
      <stop
         id="stop4045"
         offset="0.51899064"
         style="stop-color:#ffffff;stop-opacity:0.640625;" />
      <stop
         style="stop-color:#ffffff;stop-opacity:0;"
         offset="1"
         id="stop4047" />
    </linearGradient>
    <radialGradient
       inkscape:collect="always"
       xlink:href="#linearGradient3543"
       id="radialGradient3447"
       gradientUnits="userSpaceOnUse"
       cx="74.375"
       cy="67.125"
       fx="74.375"
       fy="67.125"
       r="3.125" />
    <linearGradient
       id="linearGradient4050">
      <stop
         style="stop-color:#ffffff;stop-opacity:1;"
         offset="0"
         id="stop4052" />
      <stop
         id="stop4054"
         offset="0.30645162"
         style="stop-color:#ffffff;stop-opacity:1;" />
      <stop
         id="stop4056"
         offset="0.51899064"
         style="stop-color:#ffffff;stop-opacity:0.640625;" />
      <stop
         style="stop-color:#ffffff;stop-opacity:0;"
         offset="1"
         id="stop4058" />
    </linearGradient>
    <radialGradient
       inkscape:collect="always"
       xlink:href="#linearGradient3543"
       id="radialGradient3445"
       gradientUnits="userSpaceOnUse"
       cx="74.375"
       cy="67.125"
       fx="74.375"
       fy="67.125"
       r="3.125" />
    <linearGradient
       id="linearGradient4061">
      <stop
         style="stop-color:#ffffff;stop-opacity:1;"
         offset="0"
         id="stop4063" />
      <stop
         id="stop4065"
         offset="0.30645162"
         style="stop-color:#ffffff;stop-opacity:1;" />
      <stop
         id="stop4067"
         offset="0.51899064"
         style="stop-color:#ffffff;stop-opacity:0.640625;" />
      <stop
         style="stop-color:#ffffff;stop-opacity:0;"
         offset="1"
         id="stop4069" />
    </linearGradient>
    <radialGradient
       inkscape:collect="always"
       xlink:href="#linearGradient3543"
       id="radialGradient3443"
       gradientUnits="userSpaceOnUse"
       cx="74.375"
       cy="67.125"
       fx="74.375"
       fy="67.125"
       r="3.125" />
    <linearGradient
       id="linearGradient4072">
      <stop
         style="stop-color:#ffffff;stop-opacity:1;"
         offset="0"
         id="stop4074" />
      <stop
         id="stop4076"
         offset="0.30645162"
         style="stop-color:#ffffff;stop-opacity:1;" />
      <stop
         id="stop4078"
         offset="0.51899064"
         style="stop-color:#ffffff;stop-opacity:0.640625;" />
      <stop
         style="stop-color:#ffffff;stop-opacity:0;"
         offset="1"
         id="stop4080" />
    </linearGradient>
    <radialGradient
       inkscape:collect="always"
       xlink:href="#linearGradient3543"
       id="radialGradient3441"
       gradientUnits="userSpaceOnUse"
       cx="74.375"
       cy="67.125"
       fx="74.375"
       fy="67.125"
       r="3.125" />
    <linearGradient
       id="linearGradient4083">
      <stop
         style="stop-color:#ffffff;stop-opacity:1;"
         offset="0"
         id="stop4085" />
      <stop
         id="stop4087"
         offset="0.30645162"
         style="stop-color:#ffffff;stop-opacity:1;" />
      <stop
         id="stop4089"
         offset="0.51899064"
         style="stop-color:#ffffff;stop-opacity:0.640625;" />
      <stop
         style="stop-color:#ffffff;stop-opacity:0;"
         offset="1"
         id="stop4091" />
    </linearGradient>
    <radialGradient
       r="3.125"
       fy="67.125"
       fx="74.375"
       cy="67.125"
       cx="74.375"
       gradientUnits="userSpaceOnUse"
       id="radialGradient4103"
       xlink:href="#linearGradient3543"
       inkscape:collect="always" />
    <inkscape:perspective
       id="perspective2930"
       inkscape:persp3d-origin="0.5 : 0.33333333 : 1"
       inkscape:vp_z="1 : 0.5 : 1"
       inkscape:vp_y="0 : 1000 : 0"
       inkscape:vp_x="0 : 0.5 : 1"
       sodipodi:type="inkscape:persp3d" />
    <linearGradient
       inkscape:collect="always"
       xlink:href="#linearGradient4081"
       id="linearGradient3689"
       x1="96"
       y1="-2"
       x2="96"
       y2="-82"
       gradientUnits="userSpaceOnUse"
       gradientTransform="translate(-20,16)" />
    <linearGradient
       id="linearGradient4081">
      <stop
         style="stop-color:#aaaaaa;stop-opacity:1;"
         offset="0"
         id="stop4083" />
      <stop
         style="stop-color:#f0f0f0;stop-opacity:1;"
         offset="1"
         id="stop4085-9" />
    </linearGradient>
    <linearGradient
       inkscape:collect="always"
       xlink:href="#linearGradient4081"
       id="linearGradient3691"
       x1="72"
       y1="-2"
       x2="72"
       y2="-66"
       gradientUnits="userSpaceOnUse"
       gradientTransform="matrix(0.75,0,0,0.7401316,0.6111087,79.480263)" />
    <linearGradient
       id="linearGradient2939">
      <stop
         style="stop-color:#aaaaaa;stop-opacity:1;"
         offset="0"
         id="stop2941" />
      <stop
         style="stop-color:#f0f0f0;stop-opacity:1;"
         offset="1"
         id="stop2943" />
    </linearGradient>
    <linearGradient
       inkscape:collect="always"
       xlink:href="#linearGradient4081"
       id="linearGradient3693"
       x1="56"
       y1="-2"
       x2="56"
       y2="-50"
       gradientUnits="userSpaceOnUse"
       gradientTransform="matrix(0.75,0,0,0.75657895,2.4999985,79.513158)" />
    <linearGradient
       id="linearGradient2946">
      <stop
         style="stop-color:#aaaaaa;stop-opacity:1;"
         offset="0"
         id="stop2948" />
      <stop
         style="stop-color:#f0f0f0;stop-opacity:1;"
         offset="1"
         id="stop2950" />
    </linearGradient>
    <linearGradient
       inkscape:collect="always"
       xlink:href="#linearGradient4081"
       id="linearGradient3695"
       x1="24"
       y1="-2"
       x2="24"
       y2="-34"
       gradientUnits="userSpaceOnUse"
       gradientTransform="matrix(0.75,0,0,0.78947368,4.4999994,79.578945)" />
    <linearGradient
       id="linearGradient2953">
      <stop
         style="stop-color:#aaaaaa;stop-opacity:1;"
         offset="0"
         id="stop2955" />
      <stop
         style="stop-color:#f0f0f0;stop-opacity:1;"
         offset="1"
         id="stop2957" />
    </linearGradient>
    <linearGradient
       y2="-82"
       x2="96"
       y1="-2"
       x1="96"
       gradientTransform="matrix(0.75,0,0,0.75,-1.5,79.5)"
       gradientUnits="userSpaceOnUse"
       id="linearGradient2963"
       xlink:href="#linearGradient4081"
       inkscape:collect="always" />
    <linearGradient
       inkscape:collect="always"
       xlink:href="#linearGradient3783"
       id="linearGradient3789"
       x1="72"
       y1="18"
       x2="72"
       y2="72.009262"
       gradientUnits="userSpaceOnUse" />
    <linearGradient
       inkscape:collect="always"
       xlink:href="#linearGradient3783"
       id="linearGradient3797"
       x1="56"
       y1="30"
       x2="56"
       y2="73"
       gradientUnits="userSpaceOnUse" />
    <linearGradient
       inkscape:collect="always"
       xlink:href="#linearGradient3799"
       id="linearGradient3805"
       x1="40"
       y1="42"
       x2="40"
       y2="73"
       gradientUnits="userSpaceOnUse" />
    <linearGradient
       inkscape:collect="always"
       xlink:href="#linearGradient3807"
       id="linearGradient3813"
       x1="24"
       y1="54"
       x2="24"
       y2="74"
       gradientUnits="userSpaceOnUse" />
    <linearGradient
       inkscape:collect="always"
       xlink:href="#linearGradient4081"
       id="linearGradient3821"
       gradientUnits="userSpaceOnUse"
       gradientTransform="matrix(0.75,0,0,0.75,-1.5,79.5)"
       x1="96"
       y1="-2"
       x2="96"
       y2="-82" />
    <linearGradient
       inkscape:collect="always"
       xlink:href="#linearGradient4081"
       id="linearGradient3828"
       gradientUnits="userSpaceOnUse"
       gradientTransform="matrix(0.75,0,0,0.7401316,0.6111087,80.480263)"
       x1="72"
       y1="-2"
       x2="72"
       y2="-66" />
    <inkscape:perspective
       id="perspective2975"
       inkscape:persp3d-origin="0.5 : 0.33333333 : 1"
       inkscape:vp_z="1 : 0.5 : 1"
       inkscape:vp_y="0 : 1000 : 0"
       inkscape:vp_x="0 : 0.5 : 1"
       sodipodi:type="inkscape:persp3d" />
    <linearGradient
       y2="90.238609"
       x2="32.251034"
       y1="6.1317081"
       x1="32.251034"
       gradientTransform="matrix(1.0238095,0,0,-1.0119048,-1.1428571,98.071429)"
       gradientUnits="userSpaceOnUse"
       id="linearGradient3760"
       xlink:href="#ButtonShadow-0"
       inkscape:collect="always" />
    <linearGradient
       id="ButtonShadow-0"
       gradientTransform="matrix(1.0058652,0,0,0.994169,100,0)"
       x1="45.447727"
       y1="92.539597"
       x2="45.447727"
       y2="7.0165396"
       gradientUnits="userSpaceOnUse">
      <stop
         style="stop-color:#000000;stop-opacity:1;"
         offset="0"
         id="stop3750-8" />
      <stop
         style="stop-color:#000000;stop-opacity:0.58823532;"
         offset="1"
         id="stop3752-5" />
    </linearGradient>
    <linearGradient
       inkscape:collect="always"
       xlink:href="#ButtonShadow-0"
       id="linearGradient3780"
       gradientUnits="userSpaceOnUse"
       gradientTransform="matrix(1.0238095,0,0,-1.0119048,-1.1428571,98.071429)"
       x1="32.251034"
       y1="6.1317081"
       x2="32.251034"
       y2="90.238609" />
    <linearGradient
       id="linearGradient2984"
       gradientTransform="matrix(1.0058652,0,0,0.994169,100,0)"
       x1="45.447727"
       y1="92.539597"
       x2="45.447727"
       y2="7.0165396"
       gradientUnits="userSpaceOnUse">
      <stop
         style="stop-color:#000000;stop-opacity:1;"
         offset="0"
         id="stop2986" />
      <stop
         style="stop-color:#000000;stop-opacity:0.58823532;"
         offset="1"
         id="stop2988" />
    </linearGradient>
    <linearGradient
       inkscape:collect="always"
       xlink:href="#ButtonShadow-0"
       id="linearGradient3772"
       gradientUnits="userSpaceOnUse"
       gradientTransform="matrix(1.0238095,0,0,-1.0119048,-1.1428571,98.071429)"
       x1="32.251034"
       y1="6.1317081"
       x2="32.251034"
       y2="90.238609" />
    <linearGradient
       id="linearGradient2991"
       gradientTransform="matrix(1.0058652,0,0,0.994169,100,0)"
       x1="45.447727"
       y1="92.539597"
       x2="45.447727"
       y2="7.0165396"
       gradientUnits="userSpaceOnUse">
      <stop
         style="stop-color:#000000;stop-opacity:1;"
         offset="0"
         id="stop2993" />
      <stop
         style="stop-color:#000000;stop-opacity:0.58823532;"
         offset="1"
         id="stop2995" />
    </linearGradient>
    <linearGradient
       inkscape:collect="always"
       xlink:href="#ButtonShadow-0"
       id="linearGradient3725"
       gradientUnits="userSpaceOnUse"
       gradientTransform="matrix(1.0238095,0,0,-1.0119048,-1.1428571,98.071429)"
       x1="32.251034"
       y1="6.1317081"
       x2="32.251034"
       y2="90.238609" />
    <linearGradient
       id="linearGradient2998"
       gradientTransform="matrix(1.0058652,0,0,0.994169,100,0)"
       x1="45.447727"
       y1="92.539597"
       x2="45.447727"
       y2="7.0165396"
       gradientUnits="userSpaceOnUse">
      <stop
         style="stop-color:#000000;stop-opacity:1;"
         offset="0"
         id="stop3000" />
      <stop
         style="stop-color:#000000;stop-opacity:0.58823532;"
         offset="1"
         id="stop3002" />
    </linearGradient>
    <linearGradient
       inkscape:collect="always"
       xlink:href="#ButtonShadow-0"
       id="linearGradient3721"
       gradientUnits="userSpaceOnUse"
       gradientTransform="matrix(1,0,0,-1,0,97)"
       x1="32.251034"
       y1="6.1317081"
       x2="32.251034"
       y2="90.238609" />
    <linearGradient
       id="linearGradient3005"
       gradientTransform="matrix(1.0058652,0,0,0.994169,100,0)"
       x1="45.447727"
       y1="92.539597"
       x2="45.447727"
       y2="7.0165396"
       gradientUnits="userSpaceOnUse">
      <stop
         style="stop-color:#000000;stop-opacity:1;"
         offset="0"
         id="stop3007" />
      <stop
         style="stop-color:#000000;stop-opacity:0.58823532;"
         offset="1"
         id="stop3009" />
    </linearGradient>
    <linearGradient
       y2="90.238609"
       x2="32.251034"
       y1="6.1317081"
       x1="32.251034"
       gradientTransform="matrix(1.0238095,0,0,-1.0119048,-1.1428571,98.071429)"
       gradientUnits="userSpaceOnUse"
       id="linearGradient3016"
       xlink:href="#ButtonShadow-0"
       inkscape:collect="always" />
    <linearGradient
       inkscape:collect="always"
       xlink:href="#linearGradient4081"
       id="linearGradient3773"
       x1="16"
       y1="48"
       x2="80"
       y2="48"
       gradientUnits="userSpaceOnUse"
       gradientTransform="matrix(0.875,0,0,0.875,-90,-84)" />
    <inkscape:perspective
       id="perspective2916"
       inkscape:persp3d-origin="0.5 : 0.33333333 : 1"
       inkscape:vp_z="1 : 0.5 : 1"
       inkscape:vp_y="0 : 1000 : 0"
       inkscape:vp_x="0 : 0.5 : 1"
       sodipodi:type="inkscape:persp3d" />
    <linearGradient
       inkscape:collect="always"
       xlink:href="#linearGradient4081"
       id="linearGradient3824"
       x1="33.945"
       y1="11.001904"
       x2="33.945"
       y2="79.830856"
       gradientUnits="userSpaceOnUse" />
    <linearGradient
       inkscape:collect="always"
       xlink:href="#linearGradient4081"
       id="linearGradient3832"
       x1="31.725"
       y1="79.814171"
       x2="31.725"
       y2="10.985223"
       gradientUnits="userSpaceOnUse"
       gradientTransform="matrix(0.9009009,0,0,0.9009009,3.4189189,6.0953392)" />
    <linearGradient
       inkscape:collect="always"
       xlink:href="#linearGradient4081"
       id="linearGradient3839"
       gradientUnits="userSpaceOnUse"
       gradientTransform="matrix(0.9009009,0,0,0.9009009,3.4189189,7.0953392)"
       x1="31.725"
       y1="79.814171"
       x2="31.725"
       y2="10.985223" />
    <linearGradient
       inkscape:collect="always"
       xlink:href="#linearGradient4081"
       id="linearGradient3841"
       gradientUnits="userSpaceOnUse"
       gradientTransform="matrix(0.9009009,0,0,0.9009009,3.4189189,6.0953392)"
       x1="31.725"
       y1="79.814171"
       x2="31.725"
       y2="10.985223" />
    <linearGradient
       inkscape:collect="always"
       xlink:href="#linearGradient4081"
       id="linearGradient3848"
       gradientUnits="userSpaceOnUse"
       gradientTransform="matrix(0.9009009,0,0,0.9009009,3.4189189,5.0953392)"
       x1="31.725"
       y1="79.814171"
       x2="31.725"
       y2="10.985223" />
    <linearGradient
       inkscape:collect="always"
       xlink:href="#linearGradient4081"
       id="linearGradient3850"
       gradientUnits="userSpaceOnUse"
       gradientTransform="matrix(0.9009009,0,0,0.9009009,3.4189189,6.0953392)"
       x1="31.725"
       y1="79.814171"
       x2="31.725"
       y2="10.985223" />
  </defs>
  <sodipodi:namedview
     id="base"
     pagecolor="#ffffff"
     bordercolor="#666666"
     borderopacity="1.0"
     inkscape:pageopacity="0.0"
     inkscape:pageshadow="2"
     inkscape:zoom="5.4940396"
     inkscape:cx="23.435102"
     inkscape:cy="26.02071"
     inkscape:document-units="px"
     inkscape:current-layer="layer4"
     showgrid="true"
     showborder="true"
     inkscape:showpageshadow="false"
     inkscape:window-width="1920"
     inkscape:window-height="1024"
     inkscape:window-x="0"
     inkscape:window-y="25"
     inkscape:window-maximized="1">
    <inkscape:grid
       type="xygrid"
       id="grid3732"
       visible="true"
       enabled="true" />
  </sodipodi:namedview>
  <metadata
     id="metadata2413">
    <rdf:RDF>
      <cc:Work
         rdf:about="">
        <dc:format>image/svg+xml</dc:format>
        <dc:type
           rdf:resource="http://purl.org/dc/dcmitype/StillImage" />
        <dc:title></dc:title>
      </cc:Work>
    </rdf:RDF>
  </metadata>
  <g
     inkscape:groupmode="layer"
     id="layer2"
     inkscape:label="Blur Shadow"
     style="display:none"
     sodipodi:insensitive="true">
    <rect
       style="opacity:0.9;fill:url(#ButtonShadow);fill-opacity:1;fill-rule:nonzero;stroke:none;filter:url(#filter3174)"
       id="rect3745"
       width="86"
       height="85"
       x="5"
       y="7"
       rx="6"
       ry="6" />
  </g>
  <g
     inkscape:groupmode="layer"
     id="layer3"
     inkscape:label="Shadow"
     style="display:inline"
     sodipodi:insensitive="true">
    <path
       style="opacity:0.07999998;fill:url(#linearGradient3016);fill-opacity:1;fill-rule:nonzero;stroke:none;display:inline"
       d="M 12,3.96875 C 6.4889098,3.96875 1.96875,8.4889098 1.96875,14 l 0,71 c 0,5.51109 4.5201597,10.03125 10.03125,10.03125 l 72,0 c 5.51109,0 10.03125,-4.52016 10.03125,-10.03125 l 0,-71 C 94.03125,8.4889097 89.51109,3.96875 84,3.96875 l -72,0 z M 12,6 84,6 c 3.324,0 6,2.676 6,6 l 0,72 c 0,3.324 -2.676,6 -6,6 L 12,90 C 8.676,90 6,87.324 6,84 L 6,12 C 6,8.676 8.676,6 12,6 z"
       id="path3786" />
    <path
       style="opacity:0.1;fill:url(#linearGradient3780);fill-opacity:1;fill-rule:nonzero;stroke:none;display:inline"
       d="M 12,4.96875 C 7.0283671,4.96875 2.96875,9.0283671 2.96875,14 l 0,71 c 0,4.971633 4.059617,9.03125 9.03125,9.03125 l 72,0 c 4.971633,0 9.03125,-4.059617 9.03125,-9.03125 l 0,-71 C 93.03125,9.028367 88.971633,4.96875 84,4.96875 l -72,0 z M 12,6 84,6 c 3.324,0 6,2.676 6,6 l 0,72 c 0,3.324 -2.676,6 -6,6 L 12,90 C 8.676,90 6,87.324 6,84 L 6,12 C 6,8.676 8.676,6 12,6 z"
       id="path3778" />
    <path
       style="opacity:0.2;fill:url(#linearGradient3772);fill-opacity:1;fill-rule:nonzero;stroke:none;display:inline"
       d="M 11.1875,6.03125 C 7.159982,6.4419011 4,9.8664375 4,14 l 0,71 c 0,4.409133 3.590867,8 8,8 l 72,0 c 4.409133,0 8,-3.590867 8,-8 L 92,14 C 92,9.8029382 88.741028,6.3539584 84.625,6.03125 87.657886,6.337417 90,8.88375 90,12 l 0,72 c 0,3.324 -2.676,6 -6,6 L 12,90 C 8.676,90 6,87.324 6,84 L 6,12 c 0,-3.11625 2.342114,-5.662583 5.375,-5.96875 -0.06227,0.00488 -0.12563,-0.00631 -0.1875,0 z"
       id="path3770" />
    <path
       style="opacity:0.3;fill:url(#linearGradient3725);fill-opacity:1;fill-rule:nonzero;stroke:none;display:inline"
       d="M 6.4375,9.75 C 5.5380109,10.927446 5,12.397277 5,14 l 0,71 c 0,3.878 3.122,7 7,7 l 72,0 c 3.878,0 7,-3.122 7,-7 L 91,14 C 91,12.397277 90.461989,10.927446 89.5625,9.75 89.841816,10.444095 90,11.203625 90,12 l 0,72 c 0,3.324 -2.676,6 -6,6 L 12,90 C 8.676,90 6,87.324 6,84 L 6,12 C 6,11.203625 6.1581836,10.444095 6.4375,9.75 z"
       id="rect3723" />
    <path
       style="opacity:0.45;fill:url(#linearGradient3721);fill-opacity:1;fill-rule:nonzero;stroke:none;display:inline"
       d="m 6,84 0,1 c 0,3.324 2.676,6 6,6 l 72,0 c 3.324,0 6,-2.676 6,-6 l 0,-1 c 0,3.324 -2.676,6 -6,6 L 12,90 C 8.676,90 6,87.324 6,84 z"
       id="rect3716" />
  </g>
  <g
     inkscape:label="Button"
     inkscape:groupmode="layer"
     id="layer1"
     style="display:inline"
     sodipodi:insensitive="true">
    <rect
       style="opacity:0.6;fill:#000000;fill-opacity:1;fill-rule:nonzero;stroke:none"
       id="rect2419"
       width="84"
       height="84"
       x="6"
       y="6"
       rx="6"
       ry="6" />
    <path
       style="opacity:0.01000001;fill:url(#linearGradient3188);fill-opacity:1;fill-rule:nonzero;stroke:none"
       d="M 12,6 C 8.676,6 6,8.676 6,12 l 0,2 0,68 0,2 c 0,0.334721 0.04135,0.6507 0.09375,0.96875 0.0487,0.295596 0.09704,0.596915 0.1875,0.875 0.00988,0.03038 0.020892,0.0636 0.03125,0.09375 0.098865,0.287771 0.2348802,0.547452 0.375,0.8125 0.1445918,0.273507 0.3156161,0.535615 0.5,0.78125 0.1843839,0.245635 0.3737765,0.473472 0.59375,0.6875 0.439947,0.428056 0.94291,0.814526 1.5,1.09375 0.278545,0.139612 0.5734731,0.246947 0.875,0.34375 -0.2562018,-0.100222 -0.4867109,-0.236272 -0.71875,-0.375 -0.00741,-0.0044 -0.023866,0.0045 -0.03125,0 -0.031933,-0.0193 -0.062293,-0.04251 -0.09375,-0.0625 -0.120395,-0.0767 -0.2310226,-0.163513 -0.34375,-0.25 -0.1061728,-0.0808 -0.2132809,-0.161112 -0.3125,-0.25 C 8.4783201,88.557317 8.3087904,88.373362 8.15625,88.1875 8.0486711,88.057245 7.9378561,87.922215 7.84375,87.78125 7.818661,87.74287 7.805304,87.69538 7.78125,87.65625 7.716487,87.553218 7.6510225,87.451733 7.59375,87.34375 7.4927417,87.149044 7.3880752,86.928049 7.3125,86.71875 7.30454,86.69694 7.288911,86.6782 7.28125,86.65625 7.2494249,86.5643 7.2454455,86.469419 7.21875,86.375 7.1884177,86.268382 7.1483606,86.171969 7.125,86.0625 7.0521214,85.720988 7,85.364295 7,85 L 7,83 7,15 7,13 C 7,10.218152 9.2181517,8 12,8 l 2,0 68,0 2,0 c 2.781848,0 5,2.218152 5,5 l 0,2 0,68 0,2 c 0,0.364295 -0.05212,0.720988 -0.125,1.0625 -0.04415,0.206893 -0.08838,0.397658 -0.15625,0.59375 -0.0077,0.02195 -0.0233,0.04069 -0.03125,0.0625 -0.06274,0.173739 -0.138383,0.367449 -0.21875,0.53125 -0.04158,0.0828 -0.07904,0.169954 -0.125,0.25 -0.0546,0.09721 -0.126774,0.18835 -0.1875,0.28125 -0.09411,0.140965 -0.204921,0.275995 -0.3125,0.40625 -0.143174,0.17445 -0.303141,0.346998 -0.46875,0.5 -0.01117,0.0102 -0.01998,0.02115 -0.03125,0.03125 -0.138386,0.125556 -0.285091,0.234436 -0.4375,0.34375 -0.102571,0.07315 -0.204318,0.153364 -0.3125,0.21875 -0.0074,0.0045 -0.02384,-0.0044 -0.03125,0 -0.232039,0.138728 -0.462548,0.274778 -0.71875,0.375 0.301527,-0.0968 0.596455,-0.204138 0.875,-0.34375 0.55709,-0.279224 1.060053,-0.665694 1.5,-1.09375 0.219973,-0.214028 0.409366,-0.441865 0.59375,-0.6875 0.184384,-0.245635 0.355408,-0.507743 0.5,-0.78125 0.14012,-0.265048 0.276135,-0.524729 0.375,-0.8125 0.01041,-0.03078 0.02133,-0.06274 0.03125,-0.09375 0.09046,-0.278085 0.1388,-0.579404 0.1875,-0.875 C 89.95865,84.6507 90,84.334721 90,84 l 0,-2 0,-68 0,-2 C 90,8.676 87.324,6 84,6 L 12,6 z"
       id="rect3728" />
    <path
       id="path3615"
       d="M 12,90 C 8.676,90 6,87.324 6,84 L 6,82 6,14 6,12 c 0,-0.334721 0.04135,-0.6507 0.09375,-0.96875 0.0487,-0.295596 0.09704,-0.596915 0.1875,-0.875 C 6.29113,10.12587 6.302142,10.09265 6.3125,10.0625 6.411365,9.774729 6.5473802,9.515048 6.6875,9.25 6.8320918,8.976493 7.0031161,8.714385 7.1875,8.46875 7.3718839,8.223115 7.5612765,7.995278 7.78125,7.78125 8.221197,7.353194 8.72416,6.966724 9.28125,6.6875 9.559795,6.547888 9.8547231,6.440553 10.15625,6.34375 9.9000482,6.443972 9.6695391,6.580022 9.4375,6.71875 c -0.00741,0.0044 -0.023866,-0.0045 -0.03125,0 -0.031933,0.0193 -0.062293,0.04251 -0.09375,0.0625 -0.120395,0.0767 -0.2310226,0.163513 -0.34375,0.25 -0.1061728,0.0808 -0.2132809,0.161112 -0.3125,0.25 C 8.4783201,7.442683 8.3087904,7.626638 8.15625,7.8125 8.0486711,7.942755 7.9378561,8.077785 7.84375,8.21875 7.818661,8.25713 7.805304,8.30462 7.78125,8.34375 7.716487,8.446782 7.6510225,8.548267 7.59375,8.65625 7.4927417,8.850956 7.3880752,9.071951 7.3125,9.28125 7.30454,9.30306 7.288911,9.3218 7.28125,9.34375 7.2494249,9.4357 7.2454455,9.530581 7.21875,9.625 7.1884177,9.731618 7.1483606,9.828031 7.125,9.9375 7.0521214,10.279012 7,10.635705 7,11 l 0,2 0,68 0,2 c 0,2.781848 2.2181517,5 5,5 l 2,0 68,0 2,0 c 2.781848,0 5,-2.218152 5,-5 l 0,-2 0,-68 0,-2 C 89,10.635705 88.94788,10.279012 88.875,9.9375 88.83085,9.730607 88.78662,9.539842 88.71875,9.34375 88.71105,9.3218 88.69545,9.30306 88.6875,9.28125 88.62476,9.107511 88.549117,8.913801 88.46875,8.75 88.42717,8.6672 88.38971,8.580046 88.34375,8.5 88.28915,8.40279 88.216976,8.31165 88.15625,8.21875 88.06214,8.077785 87.951329,7.942755 87.84375,7.8125 87.700576,7.63805 87.540609,7.465502 87.375,7.3125 87.36383,7.3023 87.35502,7.29135 87.34375,7.28125 87.205364,7.155694 87.058659,7.046814 86.90625,6.9375 86.803679,6.86435 86.701932,6.784136 86.59375,6.71875 c -0.0074,-0.0045 -0.02384,0.0044 -0.03125,0 -0.232039,-0.138728 -0.462548,-0.274778 -0.71875,-0.375 0.301527,0.0968 0.596455,0.204138 0.875,0.34375 0.55709,0.279224 1.060053,0.665694 1.5,1.09375 0.219973,0.214028 0.409366,0.441865 0.59375,0.6875 0.184384,0.245635 0.355408,0.507743 0.5,0.78125 0.14012,0.265048 0.276135,0.524729 0.375,0.8125 0.01041,0.03078 0.02133,0.06274 0.03125,0.09375 0.09046,0.278085 0.1388,0.579404 0.1875,0.875 C 89.95865,11.3493 90,11.665279 90,12 l 0,2 0,68 0,2 c 0,3.324 -2.676,6 -6,6 l -72,0 z"
       style="opacity:0.15;fill:url(#radialGradient3619);fill-opacity:1;fill-rule:nonzero;stroke:none" />
  </g>
  <g
     inkscape:groupmode="layer"
     id="layer5"
     inkscape:label="Highlight"
     sodipodi:insensitive="true"
     style="display:none">
    <rect
       style="opacity:0.1;fill:url(#linearGradient3613);fill-opacity:1;fill-rule:nonzero;stroke:#ffffff;stroke-width:0.5;stroke-linecap:round;stroke-linejoin:miter;stroke-miterlimit:4;stroke-opacity:1;stroke-dasharray:none;stroke-dashoffset:0;filter:url(#filter3794)"
       id="rect3171"
       width="66"
       height="66"
       x="15"
       y="15"
       rx="12"
       ry="12"
       clip-path="url(#clipPath3613)" />
  </g>
  <g
     inkscape:groupmode="layer"
     id="layer4"
     inkscape:label="Signal">
    <path
       style="opacity:0.05;fill:#000000;fill-opacity:1;stroke:none"
       d="m 40.34375,41.96875 c -2.498685,7.43e-4 -3.921352,2.256421 -5.585284,3.763561 -2.052211,2.093587 -4.209913,4.091814 -6.191334,6.249439 -1.338296,1.860557 -0.74685,4.243334 -0.879632,6.378344 0.232436,0.791717 -0.493376,1.18806 -0.95463,1.69356 -3.464179,3.509555 -6.998262,6.984531 -10.418882,10.515624 -1.56364,1.698485 -1.630294,4.462239 -0.126488,6.211972 1.151173,1.34894 2.520726,2.59391 3.78125,3.84375 1.710295,1.628223 4.519618,1.691931 6.3125,0.15625 1.837121,-1.613089 3.514305,-3.463001 5.289497,-5.168058 2.111834,-2.10023 4.223669,-4.200461 6.335503,-6.300692 1.961694,-0.07889 3.964974,0.203137 5.886468,-0.247535 1.821916,-0.677912 2.907556,-2.407344 4.312629,-3.658774 1.86549,-1.920346 3.831148,-3.780368 5.634457,-5.737991 C 55.28724,57.963565 55.255944,55.238085 53.78125,53.5 52.166686,51.664348 50.314222,49.989705 48.607274,48.216395 46.772155,46.433634 45.050435,44.523542 43.133199,42.832903 42.315474,42.22662 41.315941,42.083535 40.34375,41.96875 z"
       id="path3792" />
    <path
       style="opacity:0.1;fill:#000000;fill-opacity:1;stroke:none"
       d="M 40.375,42.90625 C 39.378465,42.925876 38.470016,43.343496 37.8125,44 l -8.125,8.09375 C 28.96267,52.819703 28.617381,53.796048 28.625,54.75 l 0,4.71875 -11.59375,11.65625 0,0.03125 c -1.444812,1.435097 -1.444812,3.783653 0,5.21875 l 0,0.03125 3.5625,3.5625 0.03125,0 c 1.435097,1.444812 3.783653,1.444812 5.21875,0 0.0063,-0.0063 0.02501,0.0064 0.03125,0 L 37.53125,68.375 l 4.71875,0 c 0.954203,0.0077 1.930403,-0.337777 2.65625,-1.0625 l 8.0625,-8.125 0,-0.03125 c 1.444812,-1.435097 1.444812,-3.783653 0,-5.21875 -0.0063,-0.0063 0.0064,-0.02501 0,-0.03125 L 43.09375,44 c -0.665083,-0.664533 -1.606825,-1.106094 -2.65625,-1.09375 0.01951,-2.3e-4 -0.01454,-0.0012 -0.0625,0 z"
       id="path3787" />
    <path
       style="opacity:0.15;fill:#000000;fill-opacity:1;stroke:none"
       d="M 40.40625,43.875 C 39.659845,43.8897 38.992253,44.196005 38.5,44.6875 l -8.125,8.09375 c -0.534885,0.535714 -0.787068,1.240301 -0.78125,1.96875 l 0,5.125 -11.90625,11.9375 c -1.099388,1.076376 -1.099388,2.829874 0,3.90625 l 3.59375,3.59375 c 1.076376,1.099388 2.829874,1.099388 3.90625,0 l 11.9375,-11.90625 5.125,0 c 0.728573,0.0059 1.433067,-0.246396 1.96875,-0.78125 L 52.3125,58.5 c 1.099388,-1.076376 1.099388,-2.829874 0,-3.90625 L 42.40625,44.6875 c -0.496795,-0.496384 -1.193243,-0.821622 -1.96875,-0.8125 -0.01054,1.24e-4 -0.02067,-2.54e-4 -0.03125,0 z"
       id="path3859" />
    <path
       id="path3853"
       d="m 40.4375,44.875 c -0.448625,0.0037 -0.901269,0.214258 -1.21875,0.53125 L 31.09375,53.5 c -0.323621,0.324123 -0.503658,0.79199 -0.5,1.25 l 0,5.5625 -12.1875,12.21875 c -0.657336,0.643577 -0.657336,1.825173 0,2.46875 L 22,78.59375 c 0.643577,0.657336 1.825173,0.657336 2.46875,0 l 12.21875,-12.1875 5.5625,0 c 0.45801,0.0037 0.925877,-0.176379 1.25,-0.5 l 8.09375,-8.125 c 0.657336,-0.643577 0.657336,-1.825173 0,-2.46875 L 41.6875,45.40625 c -0.330688,-0.330415 -0.782663,-0.542455 -1.25,-0.53125 z"
       style="fill:#000000;fill-opacity:1;stroke:none;opacity:0.3"
       sodipodi:nodetypes="cccccccccccccccc" />
    <path
       style="fill:#ffffff;stroke:none;fill-opacity:1;opacity:0.2"
       d="m 72.75,17.90625 c -0.458475,0 -0.896962,0.171332 -1.21875,0.5 L 59.3125,30.625 l -5.5625,0 c -0.45801,-0.0037 -0.925877,0.176379 -1.25,0.5 l -8.09375,8.09375 c -0.657336,0.643577 -0.657336,1.856423 0,2.5 L 54.3125,51.625 c 0.330688,0.330415 0.782663,0.511205 1.25,0.5 0.448625,-0.0037 0.901269,-0.183008 1.21875,-0.5 l 8.125,-8.125 c 0.323621,-0.324123 0.503658,-0.76074 0.5,-1.21875 l 0,-5.59375 L 77.59375,24.5 c 0.657336,-0.643577 0.657336,-1.856423 0,-2.5 L 74,18.40625 c -0.321788,-0.328668 -0.791525,-0.5 -1.25,-0.5 z"
       id="path3004" />
    <path
       style="fill:url(#linearGradient3832);stroke:none;fill-opacity:1"
       d="m 40.4375,43.875 c -0.448625,0.0037 -0.901269,0.214258 -1.21875,0.53125 L 31.09375,52.5 c -0.323621,0.324123 -0.503658,0.79199 -0.5,1.25 l 0,5.5625 -12.1875,12.21875 c -0.657336,0.643577 -0.657336,1.825173 0,2.46875 L 22,77.59375 c 0.643577,0.657336 1.825173,0.657336 2.46875,0 l 12.21875,-12.1875 5.5625,0 c 0.45801,0.0037 0.925877,-0.176379 1.25,-0.5 l 8.09375,-8.125 c 0.657336,-0.643577 0.657336,-1.825173 0,-2.46875 L 41.6875,44.40625 c -0.330688,-0.330415 -0.782663,-0.542455 -1.25,-0.53125 z"
       id="path3804" />
    <path
       style="fill:#ffffff;stroke:none;fill-opacity:1;opacity:0.75"
       d="m 40.4375,43.875 c -0.448625,0.0037 -0.901269,0.214258 -1.21875,0.53125 L 31.09375,52.5 c -0.323621,0.324123 -0.503658,0.79199 -0.5,1.25 l 0,1 c -0.0037,-0.45801 0.176379,-0.925877 0.5,-1.25 l 8.125,-8.09375 c 0.317481,-0.316992 0.770125,-0.52755 1.21875,-0.53125 0.467337,-0.0112 0.919312,0.200835 1.25,0.53125 l 9.90625,9.90625 c 0.207946,0.203593 0.32987,0.472788 0.40625,0.75 0.177272,-0.605364 0.05009,-1.303209 -0.40625,-1.75 L 41.6875,44.40625 C 41.356812,44.075835 40.904837,43.863795 40.4375,43.875 z M 30.59375,59.3125 18.40625,71.53125 C 17.95686,71.971234 17.834935,72.650919 18,73.25 c 0.07808,-0.266628 0.205257,-0.521964 0.40625,-0.71875 l 12.1875,-12.21875 0,-1 z"
       id="path3835"
       sodipodi:nodetypes="cccccccscccccccccccc" />
    <path
       style="fill:#000000;stroke:none;fill-opacity:1;opacity:0.14"
       d="m 52,55.0625 c -0.07808,0.266628 -0.205257,0.521964 -0.40625,0.71875 L 43.5,63.90625 c -0.324123,0.323621 -0.79199,0.5037 -1.25,0.5 l -5.5625,0 -12.21875,12.1875 c -0.643577,0.657336 -1.825173,0.657336 -2.46875,0 L 18.40625,73 C 18.198304,72.796407 18.07638,72.527212 18,72.25 17.822728,72.855364 17.949907,73.553209 18.40625,74 L 22,77.59375 c 0.643577,0.657336 1.825173,0.657336 2.46875,0 l 12.21875,-12.1875 5.5625,0 c 0.45801,0.0037 0.925877,-0.176379 1.25,-0.5 l 8.09375,-8.125 C 52.04314,56.341266 52.165065,55.661581 52,55.0625 z"
       id="path3844"
       sodipodi:nodetypes="ccccccccccccccccc" />
  </g>
</svg>
