<?xml version="1.0" encoding="UTF-8"?>
<!--Generator: Apple Native CoreSVG 175-->
<!DOCTYPE svg
PUBLIC "-//W3C//DTD SVG 1.1//EN"
       "http://www.w3.org/Graphics/SVG/1.1/DTD/svg11.dtd">
<svg version="1.1" xmlns="http://www.w3.org/2000/svg" xmlns:xlink="http://www.w3.org/1999/xlink" width="20.3711" height="18.1738">
 <g>
  <rect height="18.1738" opacity="0" width="20.3711" x="0" y="0"/>
  <path d="M0 17.3926Q0 17.7246 0.234375 17.9492Q0.46875 18.1738 0.78125 18.1738L19.5801 18.1738Q19.9023 18.1738 20.1367 17.9492Q20.3711 17.7246 20.3711 17.3926Q20.3711 17.0703 20.1367 16.8408Q19.9023 16.6113 19.5801 16.6113L0.78125 16.6113Q0.46875 16.6113 0.234375 16.8408Q0 17.0703 0 17.3926ZM0.78125 14.3848Q0.78125 14.7656 1.01074 14.9805Q1.24023 15.1953 1.64062 15.1953L3.76953 15.1953Q4.16016 15.1953 4.38965 14.9805Q4.61914 14.7656 4.61914 14.3848L4.61914 6.30859Q4.61914 5.92773 4.38965 5.70801Q4.16016 5.48828 3.76953 5.48828L1.64062 5.48828Q1.24023 5.48828 1.01074 5.70801Q0.78125 5.92773 0.78125 6.30859ZM5.76172 14.3848Q5.76172 14.7656 5.99121 14.9805Q6.2207 15.1953 6.62109 15.1953L8.75 15.1953Q9.14062 15.1953 9.375 14.9805Q9.60938 14.7656 9.60938 14.3848L9.60938 2.08008Q9.60938 1.69922 9.375 1.48438Q9.14062 1.26953 8.75 1.26953L6.62109 1.26953Q6.2207 1.26953 5.99121 1.48438Q5.76172 1.69922 5.76172 2.08008ZM10.752 14.3848Q10.752 14.7656 10.9814 14.9805Q11.2109 15.1953 11.6016 15.1953L13.7402 15.1953Q14.1309 15.1953 14.3604 14.9805Q14.5898 14.7656 14.5898 14.3848L14.5898 4.18945Q14.5898 3.79883 14.3604 3.58398Q14.1309 3.36914 13.7402 3.36914L11.6016 3.36914Q11.2109 3.36914 10.9814 3.58398Q10.752 3.79883 10.752 4.18945ZM15.7324 14.3848Q15.7324 14.7656 15.9619 14.9805Q16.1914 15.1953 16.5918 15.1953L18.7207 15.1953Q19.1113 15.1953 19.3457 14.9805Q19.5801 14.7656 19.5801 14.3848L19.5801 8.35938Q19.5801 7.97852 19.3457 7.75879Q19.1113 7.53906 18.7207 7.53906L16.5918 7.53906Q16.1914 7.53906 15.9619 7.75879Q15.7324 7.97852 15.7324 8.35938Z" fill="#0a84ff"/>
 </g>
</svg>
