<?xml version="1.0" encoding="UTF-8"?>
<!--Generator: Apple Native CoreSVG 175-->
<!DOCTYPE svg
PUBLIC "-//W3C//DTD SVG 1.1//EN"
       "http://www.w3.org/Graphics/SVG/1.1/DTD/svg11.dtd">
<svg version="1.1" xmlns="http://www.w3.org/2000/svg" xmlns:xlink="http://www.w3.org/1999/xlink" width="16.9629" height="10.4004">
 <g>
  <rect height="10.4004" opacity="0" width="16.9629" x="0" y="0"/>
  <path d="M8.48633 10.4004Q8.67188 10.4004 8.84277 10.3271Q9.01367 10.2539 9.14062 10.1172L16.6992 2.37305Q16.9629 2.10938 16.9629 1.74805Q16.9629 1.49414 16.8457 1.28906Q16.7285 1.08398 16.5283 0.966797Q16.3281 0.849609 16.0742 0.849609Q15.7129 0.849609 15.4395 1.10352L7.95898 8.75L9.00391 8.75L1.52344 1.10352Q1.25977 0.849609 0.888672 0.849609Q0.634766 0.849609 0.43457 0.966797Q0.234375 1.08398 0.117188 1.28906Q0 1.49414 0 1.74805Q0 1.93359 0.0683594 2.09473Q0.136719 2.25586 0.263672 2.38281L7.82227 10.1172Q8.11523 10.4004 8.48633 10.4004Z" fill="#0a84ff"/>
 </g>
</svg>
