<?xml version="1.0" encoding="UTF-8"?>
<!--Generator: Apple Native CoreSVG 175-->
<!DOCTYPE svg
PUBLIC "-//W3C//DTD SVG 1.1//EN"
       "http://www.w3.org/Graphics/SVG/1.1/DTD/svg11.dtd">
<svg version="1.1" xmlns="http://www.w3.org/2000/svg" xmlns:xlink="http://www.w3.org/1999/xlink" width="16.9629" height="10.3418">
 <g>
  <rect height="10.3418" opacity="0" width="16.9629" x="0" y="0"/>
  <path d="M0.263672 8.02734Q0.136719 8.14453 0.0683594 8.31055Q0 8.47656 0 8.66211Q0 8.91602 0.117188 9.11621Q0.234375 9.31641 0.43457 9.43359Q0.634766 9.55078 0.888672 9.55078Q1.28906 9.55078 1.52344 9.29688L9.00391 1.66016L7.95898 1.66016L15.4395 9.29688Q15.6836 9.55078 16.0742 9.55078Q16.3281 9.55078 16.5283 9.43359Q16.7285 9.31641 16.8457 9.11621Q16.9629 8.91602 16.9629 8.66211Q16.9629 8.28125 16.6992 8.02734L9.14062 0.292969Q9.01367 0.15625 8.84277 0.078125Q8.67188 0 8.48633 0Q8.0957 0 7.82227 0.292969Z" fill="#0a84ff"/>
 </g>
</svg>
