<?xml version="1.0" encoding="UTF-8"?>
<!--Generator: Apple Native CoreSVG 175-->
<!DOCTYPE svg
PUBLIC "-//W3C//DTD SVG 1.1//EN"
       "http://www.w3.org/Graphics/SVG/1.1/DTD/svg11.dtd">
<svg version="1.1" xmlns="http://www.w3.org/2000/svg" xmlns:xlink="http://www.w3.org/1999/xlink" width="20.9961" height="23.1348">
 <g>
  <rect height="23.1348" opacity="0" width="20.9961" x="0" y="0"/>
  <path d="M2.33398 8.21289L18.6621 8.21289Q19.7559 8.21289 20.376 7.60254Q20.9961 6.99219 20.9961 5.91797L20.9961 2.61719Q20.9961 1.54297 20.376 0.932617Q19.7559 0.322266 18.6621 0.322266L2.33398 0.322266Q1.24023 0.322266 0.620117 0.932617Q0 1.54297 0 2.61719L0 5.91797Q0 6.99219 0.620117 7.60254Q1.24023 8.21289 2.33398 8.21289ZM9.79492 10.5371L11.2207 10.5371L11.2207 7.45117L9.79492 7.45117ZM2.33398 17.5098L18.6621 17.5098Q19.7559 17.5098 20.376 16.8994Q20.9961 16.2891 20.9961 15.2148L20.9961 11.9141Q20.9961 10.8398 20.376 10.2295Q19.7559 9.61914 18.6621 9.61914L2.33398 9.61914Q1.24023 9.61914 0.620117 10.2295Q0 10.8398 0 11.9141L0 15.2148Q0 16.2891 0.620117 16.8994Q1.24023 17.5098 2.33398 17.5098ZM9.78516 19.5508L11.2207 19.5508L11.2207 16.4746L9.78516 16.4746ZM9.98047 22.8613Q10.2051 23.1348 10.5225 23.1348Q10.8398 23.1348 11.0547 22.8613L13.291 20.0977Q13.6133 19.6973 13.4521 19.2773Q13.291 18.8574 12.7637 18.8574L8.26172 18.8574Q7.72461 18.8574 7.55859 19.2725Q7.39258 19.6875 7.72461 20.0977Z" fill="#0a84ff"/>
 </g>
</svg>
