<?xml version="1.0" encoding="utf-8"?>
<svg width="3.9160461px" height="18.418px" viewBox="0 0 3.9160461 18.418" version="1.1" xmlns:xlink="http://www.w3.org/1999/xlink" xmlns="http://www.w3.org/2000/svg">
  <g id="ellipsis" transform="matrix(1.2675908E-06 -1 -1 -1.2675908E-06 3.9160156 18.418)">
    <g id="ellipsis">
      <g id="Group">
        <path d="M0 0L18.418 0L18.418 3.91602L0 3.91602L0 0Z" id="Rectangle" fill="#000000" fill-opacity="0" fill-rule="evenodd" stroke="none" />
        <path d="M3.93555 1.96289C3.93555 1.42252 3.74349 0.961912 3.35938 0.581055C2.97526 0.200195 2.50651 0.00976562 1.95312 0.00976562C1.59505 0.00976562 1.26791 0.0976564 0.97168 0.273438C0.675456 0.449219 0.439453 0.685221 0.263672 0.981445C0.0878907 1.27767 0 1.60482 0 1.96289C0 2.32748 0.0878907 2.65625 0.263672 2.94922C0.439453 3.24219 0.675456 3.47656 0.97168 3.65234C1.26791 3.82813 1.59505 3.91602 1.95312 3.91602C2.32422 3.91602 2.65788 3.82813 2.9541 3.65234C3.25033 3.47656 3.48796 3.24219 3.66699 2.94922C3.84603 2.65625 3.93555 2.32748 3.93555 1.96289L3.93555 1.96289ZM11.1621 1.96289C11.1621 1.42252 10.9717 0.961912 10.5908 0.581055C10.2099 0.200195 9.74933 0.00976562 9.20898 0.00976562C8.85091 0.00976562 8.52377 0.0976564 8.22754 0.273438C7.93131 0.449219 7.69694 0.685221 7.52441 0.981445C7.35188 1.27767 7.26562 1.60482 7.26562 1.96289C7.26562 2.32748 7.35188 2.65625 7.52441 2.94922C7.69694 3.24219 7.93131 3.47656 8.22754 3.65234C8.52377 3.82813 8.85091 3.91602 9.20898 3.91602C9.57357 3.91602 9.90234 3.82813 10.1953 3.65234C10.4883 3.47656 10.7227 3.24219 10.8984 2.94922C11.0742 2.65625 11.1621 2.32748 11.1621 1.96289L11.1621 1.96289ZM18.418 1.96289C18.418 1.42252 18.2276 0.961912 17.8467 0.581055C17.4658 0.200195 17.0052 0.00976562 16.4648 0.00976562C16.1003 0.00976562 15.7683 0.0976564 15.4688 0.273438C15.1693 0.449219 14.9316 0.685221 14.7559 0.981445C14.5801 1.27767 14.4922 1.60482 14.4922 1.96289C14.4922 2.32748 14.5801 2.65625 14.7559 2.94922C14.9316 3.24219 15.1693 3.47656 15.4688 3.65234C15.7683 3.82813 16.1003 3.91602 16.4648 3.91602C16.8229 3.91602 17.1501 3.82813 17.4463 3.65234C17.7425 3.47656 17.9785 3.24219 18.1543 2.94922C18.3301 2.65625 18.418 2.32748 18.418 1.96289L18.418 1.96289Z" id="Shape" fill="#0A84FF" fill-rule="evenodd" stroke="none" />
      </g>
    </g>
  </g>
</svg>