<?xml version="1.0" encoding="UTF-8"?>
<!--Generator: Apple Native CoreSVG 175-->
<!DOCTYPE svg
PUBLIC "-//W3C//DTD SVG 1.1//EN"
       "http://www.w3.org/Graphics/SVG/1.1/DTD/svg11.dtd">
<svg version="1.1" xmlns="http://www.w3.org/2000/svg" xmlns:xlink="http://www.w3.org/1999/xlink" width="20.4102" height="20.4199">
 <g>
  <rect height="20.4199" opacity="0" width="20.4102" x="0" y="0"/>
  <path d="M9.30664 20.4102L11.1035 20.4102Q11.4844 20.4102 11.748 20.2002Q12.0117 19.9902 12.0898 19.6094L12.5977 17.4609Q12.8809 17.3633 13.1543 17.2559Q13.4277 17.1484 13.6719 17.0312L15.5566 18.1836Q15.8691 18.3789 16.2061 18.3496Q16.543 18.3203 16.8066 18.0566L18.0664 16.8066Q18.3301 16.543 18.3643 16.1914Q18.3984 15.8398 18.1836 15.5273L17.0312 13.6621Q17.1582 13.4082 17.2607 13.1445Q17.3633 12.8809 17.4512 12.6172L19.6191 12.0996Q19.9902 12.0215 20.2002 11.7578Q20.4102 11.4941 20.4102 11.1133L20.4102 9.3457Q20.4102 8.97461 20.2002 8.71094Q19.9902 8.44727 19.6191 8.36914L17.4707 7.85156Q17.373 7.54883 17.2607 7.28516Q17.1484 7.02148 17.0508 6.78711L18.2031 4.89258Q18.4082 4.58008 18.3838 4.24316Q18.3594 3.90625 18.0859 3.64258L16.8066 2.38281Q16.5332 2.13867 16.2207 2.09473Q15.9082 2.05078 15.5859 2.23633L13.6719 3.41797Q13.4375 3.29102 13.1689 3.18359Q12.9004 3.07617 12.5977 2.97852L12.0898 0.800781Q12.0117 0.429688 11.748 0.214844Q11.4844 0 11.1035 0L9.30664 0Q8.92578 0 8.66211 0.214844Q8.39844 0.429688 8.31055 0.800781L7.80273 2.95898Q7.51953 3.05664 7.24121 3.16895Q6.96289 3.28125 6.71875 3.4082L4.82422 2.23633Q4.50195 2.05078 4.18457 2.08984Q3.86719 2.12891 3.59375 2.38281L2.32422 3.64258Q2.05078 3.90625 2.02148 4.24316Q1.99219 4.58008 2.20703 4.89258L3.34961 6.78711Q3.25195 7.02148 3.13965 7.28516Q3.02734 7.54883 2.93945 7.85156L0.791016 8.36914Q0.410156 8.44727 0.205078 8.71094Q0 8.97461 0 9.3457L0 11.1133Q0 11.4941 0.205078 11.7578Q0.410156 12.0215 0.791016 12.0996L2.95898 12.6172Q3.03711 12.8809 3.14453 13.1445Q3.25195 13.4082 3.36914 13.6621L2.22656 15.5273Q2.01172 15.8398 2.0459 16.1914Q2.08008 16.543 2.34375 16.8066L3.59375 18.0566Q3.85742 18.3203 4.19434 18.3496Q4.53125 18.3789 4.85352 18.1836L6.72852 17.0312Q6.97266 17.1484 7.24609 17.2559Q7.51953 17.3633 7.80273 17.4609L8.31055 19.6094Q8.39844 19.9902 8.66211 20.2002Q8.92578 20.4102 9.30664 20.4102ZM10.2051 13.6523Q9.25781 13.6523 8.47168 13.1836Q7.68555 12.7148 7.22168 11.9287Q6.75781 11.1426 6.75781 10.1953Q6.75781 9.24805 7.22656 8.47168Q7.69531 7.69531 8.47656 7.22656Q9.25781 6.75781 10.2051 6.75781Q11.1523 6.75781 11.9385 7.22656Q12.7246 7.69531 13.1885 8.47168Q13.6523 9.24805 13.6523 10.1953Q13.6523 11.1426 13.1885 11.9287Q12.7246 12.7148 11.9385 13.1836Q11.1523 13.6523 10.2051 13.6523Z" fill="#0a84ff"/>
 </g>
</svg>
