<?xml version="1.0" encoding="UTF-8"?>
<!--Generator: Apple Native CoreSVG 175-->
<!DOCTYPE svg
PUBLIC "-//W3C//DTD SVG 1.1//EN"
       "http://www.w3.org/Graphics/SVG/1.1/DTD/svg11.dtd">
<svg version="1.1" xmlns="http://www.w3.org/2000/svg" xmlns:xlink="http://www.w3.org/1999/xlink" width="19.9219" height="19.9316">
 <g>
  <rect height="19.9316" opacity="0" width="19.9219" x="0" y="0"/>
  <path d="M9.96094 19.9219Q12.002 19.9219 13.8037 19.1406Q15.6055 18.3594 16.9824 16.9824Q18.3594 15.6055 19.1406 13.8037Q19.9219 12.002 19.9219 9.96094Q19.9219 7.91992 19.1406 6.11816Q18.3594 4.31641 16.9824 2.93945Q15.6055 1.5625 13.7988 0.78125Q11.9922 0 9.95117 0Q7.91016 0 6.1084 0.78125Q4.30664 1.5625 2.93457 2.93945Q1.5625 4.31641 0.78125 6.11816Q0 7.91992 0 9.96094Q0 12.002 0.78125 13.8037Q1.5625 15.6055 2.93945 16.9824Q4.31641 18.3594 6.11816 19.1406Q7.91992 19.9219 9.96094 19.9219ZM7.11914 13.877Q6.74805 13.877 6.57227 13.6914Q6.39648 13.5059 6.39648 13.2227L6.39648 6.67969Q6.39648 6.38672 6.57227 6.20117Q6.74805 6.01562 7.11914 6.01562L8.11523 6.01562Q8.48633 6.01562 8.66211 6.20117Q8.83789 6.38672 8.83789 6.67969L8.83789 13.2227Q8.83789 13.5059 8.66211 13.6914Q8.48633 13.877 8.11523 13.877ZM11.8359 13.877Q11.4648 13.877 11.2842 13.6914Q11.1035 13.5059 11.1035 13.2227L11.1035 6.67969Q11.1035 6.38672 11.2842 6.20117Q11.4648 6.01562 11.8359 6.01562L12.8223 6.01562Q13.1934 6.01562 13.3691 6.20117Q13.5449 6.38672 13.5449 6.67969L13.5449 13.2227Q13.5449 13.5059 13.3691 13.6914Q13.1934 13.877 12.8223 13.877Z" fill="#0a84ff"/>
 </g>
</svg>
