<?xml version="1.0" encoding="UTF-8"?>
<!--Generator: Apple Native CoreSVG 175-->
<!DOCTYPE svg
PUBLIC "-//W3C//DTD SVG 1.1//EN"
       "http://www.w3.org/Graphics/SVG/1.1/DTD/svg11.dtd">
<svg version="1.1" xmlns="http://www.w3.org/2000/svg" xmlns:xlink="http://www.w3.org/1999/xlink" width="17.998" height="20.4004">
 <g>
  <rect height="20.4004" opacity="0" width="17.998" x="0" y="0"/>
  <path d="M0.771484 12.4707Q1.11328 12.4707 1.34277 12.2363Q1.57227 12.002 1.57227 11.6797L1.57227 8.7207Q1.57227 8.39844 1.34277 8.15918Q1.11328 7.91992 0.771484 7.91992Q0.449219 7.91992 0.224609 8.15918Q0 8.39844 0 8.7207L0 11.6797Q0 12.002 0.224609 12.2363Q0.449219 12.4707 0.771484 12.4707ZM4.0625 16.4648Q4.4043 16.4648 4.62891 16.2354Q4.85352 16.0059 4.85352 15.6738L4.85352 4.72656Q4.85352 4.39453 4.62891 4.16016Q4.4043 3.92578 4.0625 3.92578Q3.73047 3.92578 3.50586 4.16016Q3.28125 4.39453 3.28125 4.72656L3.28125 15.6738Q3.28125 16.0059 3.50586 16.2354Q3.73047 16.4648 4.0625 16.4648ZM7.34375 20.4004Q7.68555 20.4004 7.91504 20.1709Q8.14453 19.9414 8.14453 19.6094L8.14453 0.791016Q8.14453 0.458984 7.91504 0.229492Q7.68555 0 7.34375 0Q7.01172 0 6.79199 0.229492Q6.57227 0.458984 6.57227 0.791016L6.57227 19.6094Q6.57227 19.9414 6.79199 20.1709Q7.01172 20.4004 7.34375 20.4004ZM10.6348 15.2734Q10.9668 15.2734 11.1963 15.0488Q11.4258 14.8242 11.4258 14.4922L11.4258 5.9082Q11.4258 5.57617 11.1963 5.34668Q10.9668 5.11719 10.6348 5.11719Q10.3027 5.11719 10.0781 5.34668Q9.85352 5.57617 9.85352 5.9082L9.85352 14.4922Q9.85352 14.8242 10.0781 15.0488Q10.3027 15.2734 10.6348 15.2734ZM13.9258 18.2324Q14.2578 18.2324 14.4824 18.0029Q14.707 17.7734 14.707 17.4512L14.707 2.94922Q14.707 2.62695 14.4824 2.39258Q14.2578 2.1582 13.9258 2.1582Q13.584 2.1582 13.3594 2.39258Q13.1348 2.62695 13.1348 2.94922L13.1348 17.4512Q13.1348 17.7734 13.3594 18.0029Q13.584 18.2324 13.9258 18.2324ZM17.207 13.3105Q17.5391 13.3105 17.7686 13.0811Q17.998 12.8516 17.998 12.5293L17.998 7.87109Q17.998 7.54883 17.7686 7.31445Q17.5391 7.08008 17.207 7.08008Q16.8652 7.08008 16.6455 7.31445Q16.4258 7.54883 16.4258 7.87109L16.4258 12.5293Q16.4258 12.8516 16.6455 13.0811Q16.8652 13.3105 17.207 13.3105Z" fill="#0a84ff"/>
 </g>
</svg>
