<?xml version="1.0" encoding="UTF-8"?>
<!--Generator: Apple Native CoreSVG 175-->
<!DOCTYPE svg
PUBLIC "-//W3C//DTD SVG 1.1//EN"
       "http://www.w3.org/Graphics/SVG/1.1/DTD/svg11.dtd">
<svg version="1.1" xmlns="http://www.w3.org/2000/svg" xmlns:xlink="http://www.w3.org/1999/xlink" width="19.9219" height="19.9316">
 <g>
  <rect height="19.9316" opacity="0" width="19.9219" x="0" y="0"/>
  <path d="M9.96094 19.9219Q12.002 19.9219 13.8037 19.1406Q15.6055 18.3594 16.9824 16.9824Q18.3594 15.6055 19.1406 13.8037Q19.9219 12.002 19.9219 9.96094Q19.9219 7.91992 19.1406 6.11816Q18.3594 4.31641 16.9824 2.93945Q15.6055 1.5625 13.7988 0.78125Q11.9922 0 9.95117 0Q7.91016 0 6.1084 0.78125Q4.30664 1.5625 2.93457 2.93945Q1.5625 4.31641 0.78125 6.11816Q0 7.91992 0 9.96094Q0 12.002 0.78125 13.8037Q1.5625 15.6055 2.93945 16.9824Q4.31641 18.3594 6.11816 19.1406Q7.91992 19.9219 9.96094 19.9219ZM8.87695 12.998Q7.72461 12.998 6.77246 12.4268Q5.82031 11.8555 5.25391 10.9082Q4.6875 9.96094 4.6875 8.80859Q4.6875 7.65625 5.25391 6.69922Q5.82031 5.74219 6.77246 5.17578Q7.72461 4.60938 8.87695 4.60938Q10.0293 4.60938 10.9814 5.17578Q11.9336 5.74219 12.5 6.69434Q13.0664 7.64648 13.0664 8.80859Q13.0664 9.45312 12.876 10.0488Q12.6855 10.6445 12.3438 11.1328L14.9316 13.7402Q15.0586 13.8672 15.1367 14.0283Q15.2148 14.1895 15.2148 14.3555Q15.2148 14.7363 14.9854 14.9805Q14.7559 15.2246 14.3848 15.2246Q13.9746 15.2246 13.6719 14.9121L11.0938 12.3438Q10.6152 12.6465 10.0537 12.8223Q9.49219 12.998 8.87695 12.998ZM8.87695 11.6211Q9.64844 11.6211 10.2832 11.2354Q10.918 10.8496 11.2988 10.21Q11.6797 9.57031 11.6797 8.80859Q11.6797 8.02734 11.2988 7.3877Q10.918 6.74805 10.2832 6.36719Q9.64844 5.98633 8.87695 5.98633Q8.10547 5.98633 7.46582 6.37207Q6.82617 6.75781 6.44531 7.39746Q6.06445 8.03711 6.06445 8.80859Q6.06445 9.57031 6.44531 10.21Q6.82617 10.8496 7.46582 11.2354Q8.10547 11.6211 8.87695 11.6211Z" fill="#0a84ff"/>
 </g>
</svg>
