<?xml version="1.0" encoding="UTF-8"?>
<!--Generator: Apple Native CoreSVG 175-->
<!DOCTYPE svg
PUBLIC "-//W3C//DTD SVG 1.1//EN"
       "http://www.w3.org/Graphics/SVG/1.1/DTD/svg11.dtd">
<svg version="1.1" xmlns="http://www.w3.org/2000/svg" xmlns:xlink="http://www.w3.org/1999/xlink" width="36.8164" height="17.8809">
 <g>
  <rect height="17.8809" opacity="0" width="36.8164" x="0" y="0"/>
  <path d="M12.2754 17.8809L24.541 17.8809Q25.7031 17.8809 26.167 17.5537Q26.6309 17.2266 26.6309 16.582Q26.6309 15.6445 26.0596 14.5996Q25.4883 13.5547 24.4189 12.6416Q23.3496 11.7285 21.8311 11.1572Q20.3125 10.5859 18.4082 10.5859Q16.5137 10.5859 14.9951 11.1572Q13.4766 11.7285 12.4023 12.6416Q11.3281 13.5547 10.7617 14.5996Q10.1953 15.6445 10.1953 16.582Q10.1953 17.2266 10.6592 17.5537Q11.123 17.8809 12.2754 17.8809ZM18.418 8.83789Q19.4629 8.83789 20.3516 8.2666Q21.2402 7.69531 21.7822 6.71875Q22.3242 5.74219 22.3242 4.52148Q22.3242 3.32031 21.7822 2.36816Q21.2402 1.41602 20.3516 0.869141Q19.4629 0.322266 18.418 0.322266Q17.373 0.322266 16.4844 0.878906Q15.5957 1.43555 15.0537 2.39258Q14.5117 3.34961 14.5117 4.54102Q14.5117 5.75195 15.0537 6.72363Q15.5957 7.69531 16.4844 8.2666Q17.373 8.83789 18.418 8.83789ZM1.71875 17.8809L9.13086 17.8809Q8.75 17.3242 8.76953 16.543Q8.78906 15.7617 9.13086 14.9023Q9.47266 14.043 10.0732 13.2373Q10.6738 12.4316 11.4648 11.8164Q10.6445 11.2695 9.58496 10.9131Q8.52539 10.5566 7.1582 10.5566Q5.50781 10.5566 4.18457 11.0986Q2.86133 11.6406 1.92871 12.5244Q0.996094 13.4082 0.498047 14.4531Q0 15.498 0 16.5137Q0 17.168 0.395508 17.5244Q0.791016 17.8809 1.71875 17.8809ZM7.1582 9.0625Q8.07617 9.0625 8.84766 8.56445Q9.61914 8.06641 10.0879 7.21191Q10.5566 6.35742 10.5566 5.30273Q10.5566 4.24805 10.0879 3.42285Q9.61914 2.59766 8.84277 2.12402Q8.06641 1.65039 7.1582 1.65039Q6.25977 1.65039 5.4834 2.13379Q4.70703 2.61719 4.22852 3.44727Q3.75 4.27734 3.75977 5.32227Q3.75977 6.36719 4.22852 7.2168Q4.69727 8.06641 5.47363 8.56445Q6.25 9.0625 7.1582 9.0625ZM35.0977 17.8809Q36.0254 17.8809 36.4209 17.5244Q36.8164 17.168 36.8164 16.5137Q36.8164 15.498 36.3232 14.4531Q35.8301 13.4082 34.8926 12.5244Q33.9551 11.6406 32.6318 11.0986Q31.3086 10.5566 29.6582 10.5566Q28.291 10.5566 27.2314 10.9131Q26.1719 11.2695 25.3516 11.8164Q26.1426 12.4316 26.7432 13.2373Q27.3438 14.043 27.6855 14.9023Q28.0273 15.7617 28.0469 16.543Q28.0664 17.3242 27.6855 17.8809ZM29.6582 9.0625Q30.5664 9.0625 31.3428 8.56445Q32.1191 8.06641 32.5879 7.2168Q33.0566 6.36719 33.0566 5.32227Q33.0566 4.27734 32.583 3.44727Q32.1094 2.61719 31.333 2.13379Q30.5566 1.65039 29.6582 1.65039Q28.75 1.65039 27.9736 2.12402Q27.1973 2.59766 26.7285 3.42285Q26.2598 4.24805 26.2598 5.30273Q26.2598 6.35742 26.7285 7.21191Q27.1973 8.06641 27.9688 8.56445Q28.7402 9.0625 29.6582 9.0625Z" fill="#0a84ff"/>
 </g>
</svg>
