<?xml version="1.0" encoding="iso-8859-1"?>
<!-- Generator: Adobe Illustrator 16.0.0, SVG Export Plug-In . SVG Version: 6.00 Build 0)  -->
<!DOCTYPE svg PUBLIC "-//W3C//DTD SVG 1.1//EN" "http://www.w3.org/Graphics/SVG/1.1/DTD/svg11.dtd">
<svg version="1.1" id="Capa_1" xmlns="http://www.w3.org/2000/svg" xmlns:xlink="http://www.w3.org/1999/xlink" x="0px" y="0px"
	 width="122.699px" height="122.699px" viewBox="0 0 122.699 122.699" style="enable-background:new 0 0 122.699 122.699;"
	 xml:space="preserve">
<g>
	<circle cx="19.5" cy="12.2" r="12.1"/>
	<path d="M6,66.699h1.2v24c0,3.301,2.7,6,6,6h12.6c3.3,0,6-2.699,6-6V89.3c-1.1-2.101-1.8-4.5-1.8-7v-31.4c0-6.1,3.7-11.4,9-13.7
		v-2.4c0-3.3-2.7-6-6-6H6c-3.3,0-6,2.7-6,6v25.9C0,64,2.6,66.699,6,66.699z"/>
	<circle cx="103.3" cy="12.2" r="12.1"/>
	<path d="M83.699,34.7v2.4c5.301,2.3,9,7.6,9,13.7v31.3c0,2.5-0.6,4.9-1.799,7v1.4c0,3.3,2.699,6,6,6h12.6c3.3,0,6-2.7,6-6v-24
		h1.199c3.301,0,6-2.7,6-6V34.7c0-3.3-2.699-6-6-6h-27C86.4,28.7,83.699,31.399,83.699,34.7z"/>
	<path d="M39.1,50.899L39.1,50.899v9.8v21.6c0,3.3,2.7,6,6,6h2.3v28.3c0,3.3,2.7,6,6,6h16.1c3.3,0,6-2.7,6-6v-28.4h2.3
		c3.3,0,6-2.699,6-6V60.7v-9.8l0,0c0-3.3-2.7-6-6-6H45.1C41.7,44.899,39.1,47.6,39.1,50.899z"/>
	<circle cx="61.4" cy="26" r="13.9"/>
</g>
</svg>
