<?xml version="1.0" encoding="UTF-8"?>
<!--Generator: Apple Native CoreSVG 175-->
<!DOCTYPE svg
PUBLIC "-//W3C//DTD SVG 1.1//EN"
       "http://www.w3.org/Graphics/SVG/1.1/DTD/svg11.dtd">
<svg version="1.1" xmlns="http://www.w3.org/2000/svg" xmlns:xlink="http://www.w3.org/1999/xlink" width="22.8516" height="18.3595">
 <g>
  <rect height="18.3595" opacity="0" width="22.8516" x="0" y="0"/>
  <path d="M5.20508 0.297932L0.273438 5.32723Q0 5.61043 0 5.97176Q0 6.36238 0.239258 6.60164Q0.478516 6.8409 0.859375 6.8409Q1.2207 6.8409 1.47461 6.58699L3.50586 4.48738L5.07812 2.67098L4.98047 4.92684L4.98047 17.4757Q4.98047 17.8565 5.22461 18.1055Q5.46875 18.3546 5.85938 18.3546Q6.24023 18.3546 6.48438 18.1055Q6.72852 17.8565 6.72852 17.4757L6.72852 4.92684L6.64062 2.67098L8.20312 4.48738L10.2441 6.58699Q10.4883 6.8409 10.8496 6.8409Q11.2305 6.8409 11.4697 6.60164Q11.709 6.36238 11.709 5.97176Q11.709 5.61043 11.4355 5.32723L6.51367 0.297932Q6.24023 0.00496286 5.85938 8.00461e-05Q5.47852-0.00480277 5.20508 0.297932ZM17.6562 18.0714L22.5781 13.0225Q22.8516 12.7491 22.8516 12.378Q22.8516 11.9874 22.6123 11.753Q22.373 11.5186 21.9922 11.5186Q21.6309 11.5186 21.3867 11.7628L19.3555 13.8624L17.7832 15.6886L17.8711 13.4327L17.8711 0.883869Q17.8711 0.50301 17.627 0.253986Q17.3828 0.00496286 17.002 0.00496286Q16.6211 0.00496286 16.3721 0.253986Q16.123 0.50301 16.123 0.883869L16.123 13.4327L16.2207 15.6886L14.6484 13.8624L12.6172 11.7628Q12.3633 11.5186 12.0117 11.5186Q11.6309 11.5186 11.3867 11.753Q11.1426 11.9874 11.1426 12.378Q11.1426 12.7491 11.4258 13.0225L16.3477 18.0714Q16.6211 18.3546 16.9971 18.3595Q17.373 18.3643 17.6562 18.0714Z" fill="#0a84ff"/>
 </g>
</svg>
