/* XPM */
static char * fileopen_xpm[] = {
"24 24 182 2",
"  	c None",
". 	c #000000",
"+ 	c #1E1A12",
"@ 	c #5C5038",
"# 	c #9B865F",
"$ 	c #AB956A",
"% 	c #0E0D09",
"& 	c #4C422F",
"* 	c #897655",
"= 	c #79684B",
"- 	c #7B6441",
"; 	c #8C8069",
"> 	c #DABD86",
", 	c #FADA9B",
"' 	c #FCDB9D",
") 	c #FDDC9E",
"! 	c #FCDB9E",
"~ 	c #9C8761",
"{ 	c #1E1A13",
"] 	c #C5AA7A",
"^ 	c #F2D096",
"/ 	c #F1CE94",
"( 	c #EFCC93",
"_ 	c #EECB92",
": 	c #1D1912",
"< 	c #FEEDCE",
"[ 	c #FBDA9D",
"} 	c #F9D89B",
"| 	c #F7D69A",
"1 	c #F5D498",
"2 	c #F4D297",
"3 	c #ECC991",
"4 	c #EBC890",
"5 	c #E9C68F",
"6 	c #E8C58E",
"7 	c #544732",
"8 	c #1F1F1E",
"9 	c #5F5F5B",
"0 	c #FDF4E5",
"a 	c #E0BE84",
"b 	c #D6B578",
"c 	c #CCAD6D",
"d 	c #B69654",
"e 	c #83775C",
"f 	c #8F8E8A",
"g 	c #CDC8BB",
"h 	c #F9EBD0",
"i 	c #F3DBB1",
"j 	c #3C352A",
"k 	c #CCC6BA",
"l 	c #EDCB92",
"m 	c #C0A15E",
"n 	c #BD9F63",
"o 	c #D2BE95",
"p 	c #DCD0B6",
"q 	c #FBF0D8",
"r 	c #F7E3BF",
"s 	c #F1D3A0",
"t 	c #EDCA92",
"u 	c #EAC78F",
"v 	c #CBAC7C",
"w 	c #BFBFBD",
"x 	c #C3A461",
"y 	c #BC9D5D",
"z 	c #CBB483",
"A 	c #D8C7A5",
"B 	c #EFE3CB",
"C 	c #FAEBCD",
"D 	c #F6DFB4",
"E 	c #F1CF95",
"F 	c #E5C18B",
"G 	c #E3BF8A",
"H 	c #544733",
"I 	c #8F8F8D",
"J 	c #D0B072",
"K 	c #C1A35F",
"L 	c #BE9F5B",
"M 	c #C5AD7C",
"N 	c #E6D9C0",
"O 	c #FCF1DA",
"P 	c #F9E4BC",
"Q 	c #F6D8A3",
"R 	c #E9C68E",
"S 	c #E6C28C",
"T 	c #E3C08A",
"U 	c #E2BE89",
"V 	c #E1BD88",
"W 	c #D3B17F",
"X 	c #7F7F7D",
"Y 	c #E7CA9E",
"Z 	c #BD9F5B",
"` 	c #C0A25E",
" .	c #BCA170",
"..	c #FCEED4",
"+.	c #F6D499",
"@.	c #F3D196",
"#.	c #F0CD94",
"$.	c #E7C48D",
"%.	c #E4C08B",
"&.	c #E2BE88",
"*.	c #E0BC87",
"=.	c #DFBB86",
"-.	c #8B7453",
";.	c #7F7F7C",
">.	c #E4CA9F",
",.	c #B1924E",
"'.	c #A78542",
").	c #E8DEC9",
"!.	c #F1CE95",
"~.	c #E0BC86",
"{.	c #DEBA85",
"].	c #DCB883",
"^.	c #DAB680",
"/.	c #433827",
"(.	c #D7BD90",
"_.	c #A48441",
":.	c #9C7C43",
"<.	c #F6E6C9",
"[.	c #DFBB85",
"}.	c #DDB984",
"|.	c #DBB781",
"1.	c #D8B47E",
"2.	c #D5B17A",
"3.	c #C4A26F",
"4.	c #3F3F3D",
"5.	c #D3B98B",
"6.	c #977634",
"7.	c #B19B77",
"8.	c #E9CB9E",
"9.	c #DEBA84",
"0.	c #DCB882",
"a.	c #D9B57F",
"b.	c #D6B27C",
"c.	c #D2AE77",
"d.	c #CEAA73",
"e.	c #C9A56D",
"f.	c #CEB486",
"g.	c #7F5C1F",
"h.	c #E1D7C3",
"i.	c #E1BD87",
"j.	c #D7B37D",
"k.	c #D3AF79",
"l.	c #CFAB74",
"m.	c #CAA66F",
"n.	c #C5A168",
"o.	c #BE9A61",
"p.	c #B79359",
"q.	c #2D2416",
"r.	c #CAB081",
"s.	c #80602D",
"t.	c #F3E4CB",
"u.	c #D1AD76",
"v.	c #CCA871",
"w.	c #C6A26B",
"x.	c #C09C64",
"y.	c #B9955C",
"z.	c #927546",
"A.	c #624E2D",
"B.	c #B99F6E",
"C.	c #98815F",
"D.	c #E8D1AC",
"E.	c #D6B27B",
"F.	c #CDA972",
"G.	c #C8A46D",
"H.	c #C29E66",
"I.	c #A58654",
"J.	c #685333",
"K.	c #382D1B",
"L.	c #0B0805",
"M.	c #5F5E5B",
"N.	c #9C8051",
"O.	c #D4C9B7",
"P.	c #D6B480",
"Q.	c #CAA66E",
"R.	c #B99762",
"S.	c #79623F",
"T.	c #473924",
"U.	c #3F3F3C",
"V.	c #D5CBB7",
"W.	c #E7D6B8",
"X.	c #967B51",
"Y.	c #56462E",
"                                                ",
"                                                ",
"                                                ",
"                                                ",
"      . + @ # $ %       . % & * = .             ",
"  - ; > , ' ) ! ~ { & * ] ^ / ( _ :             ",
"  . < ! [ } | 1 2 ^ / ( _ 3 4 5 6 7 . - 8 9 -   ",
"  - 0 1 2 ^ / ( _ 3 4 5 6 a b c d e f g h i j   ",
"  - k ( l 3 4 5 6 a b c m n o p q r s t u v -   ",
"  - w 5 6 a b c x y z A B C D E _ 4 6 F G H     ",
"    I F J K L M N O P Q ^ ( 3 R S T U V W -     ",
"    X Y Z `  ...+.@.#.t u $.%.U &.V *.=.-.      ",
"    ;.>.,.'.).!._ 4 6 F G U V V ~.{.].^./.      ",
"    ;.(._.:.<.R S T U V V *.[.}.|.1.2.3.-       ",
"    4.5.6.7.8.U V V *.=.9.0.a.b.c.d.e.-         ",
"    4.f.g.h.V i.~.{.].^.j.k.l.m.n.o.p.q.        ",
"    4.r.s.t.[.}.|.1.2.u.v.w.x.y.z.A.-           ",
"    4.B.C.D.a.E.c.F.G.H.I.J.K.L.                ",
"    M.N.O.P.l.Q.R.S.T.-                         ",
"    U.V.W.X.Y.- .                               ",
"    . U.- .                                     ",
"                                                ",
"                                                ",
"                                                "};
