/* XPM */
static char * gtk_remove_xpm[] = {
"24 24 21 1",
" 	c None",
".	c #141414",
"+	c #4E3329",
"@	c #FF8E66",
"#	c #FF8761",
"$	c #FF805C",
"%	c #FF7856",
"&	c #FF6F50",
"*	c #FF664A",
"=	c #FF5D43",
"-	c #FF543D",
";	c #FF4B36",
">	c #FF412F",
",	c #FF3727",
"'	c #FF2D20",
")	c #4E3228",
"!	c #FF2219",
"~	c #4E3027",
"{	c #FF1711",
"]	c #4E2E25",
"^	c #FF0D09",
"                        ",
"                        ",
"                        ",
"                        ",
"                        ",
"                        ",
"                        ",
"                        ",
"                        ",
"                        ",
"     ..............     ",
"     +@#$%&*=-;>,'.     ",
"     )#$%&*=-;>,'!.     ",
"     ~$%&*=-;>,'!{.     ",
"     ]%&*=-;>,'!{^.     ",
"     ..............     ",
"                        ",
"                        ",
"                        ",
"                        ",
"                        ",
"                        ",
"                        ",
"                        "};
