<?xml version="1.0" encoding="UTF-8" standalone="no"?>
<!-- Created with Inkscape (http://www.inkscape.org/) -->

<svg
   xmlns:dc="http://purl.org/dc/elements/1.1/"
   xmlns:cc="http://creativecommons.org/ns#"
   xmlns:rdf="http://www.w3.org/1999/02/22-rdf-syntax-ns#"
   xmlns:svg="http://www.w3.org/2000/svg"
   xmlns="http://www.w3.org/2000/svg"
   xmlns:xlink="http://www.w3.org/1999/xlink"
   xmlns:sodipodi="http://sodipodi.sourceforge.net/DTD/sodipodi-0.dtd"
   xmlns:inkscape="http://www.inkscape.org/namespaces/inkscape"
   width="16"
   height="16"
   id="svg2"
   sodipodi:version="0.32"
   inkscape:version="0.47 r22583"
   version="1.0"
   sodipodi:docname="applications-system.svg"
   inkscape:output_extension="org.inkscape.output.svg.inkscape"
   style="display:inline">
  <defs
     id="defs4">
    <inkscape:perspective
       sodipodi:type="inkscape:persp3d"
       inkscape:vp_x="0 : 8 : 1"
       inkscape:vp_y="0 : 1000 : 0"
       inkscape:vp_z="16 : 8 : 1"
       inkscape:persp3d-origin="8 : 5.3333333 : 1"
       id="perspective35" />
    <linearGradient
       inkscape:collect="always"
       id="linearGradient3327">
      <stop
         style="stop-color:#000000;stop-opacity:1;"
         offset="0"
         id="stop3330" />
      <stop
         style="stop-color:#000000;stop-opacity:0;"
         offset="1"
         id="stop3333" />
    </linearGradient>
    <linearGradient
       id="ButtonColor"
       x1="10.31979"
       y1="21"
       x2="10.31979"
       y2="0.99929649"
       gradientUnits="userSpaceOnUse">
      <stop
         style="stop-color:#29669f;stop-opacity:1;"
         offset="0"
         id="stop3189" />
      <stop
         style="stop-color:#88b6e0;stop-opacity:1;"
         offset="1"
         id="stop3191" />
    </linearGradient>
    <linearGradient
       inkscape:collect="always"
       xlink:href="#linearGradient3234"
       id="linearGradient3204"
       x1="1"
       y1="9"
       x2="15"
       y2="9"
       gradientUnits="userSpaceOnUse"
       gradientTransform="translate(-17,-2)" />
    <linearGradient
       inkscape:collect="always"
       xlink:href="#linearGradient3327"
       id="linearGradient3629"
       x1="0"
       y1="8"
       x2="29.017237"
       y2="8"
       gradientUnits="userSpaceOnUse"
       gradientTransform="matrix(0,-1,1,0,0,16)" />
    <linearGradient
       inkscape:collect="always"
       xlink:href="#SVGID_1_-4"
       id="linearGradient3765"
       gradientUnits="userSpaceOnUse"
       gradientTransform="matrix(0.09341072,0,0,0.04108075,-26.756456,8.0246654)"
       x1="383.28857"
       y1="0"
       x2="383.28857"
       y2="218.48047" />
    <linearGradient
       id="SVGID_1_-4"
       gradientUnits="userSpaceOnUse"
       x1="383.28857"
       y1="0"
       x2="383.28857"
       y2="218.48047">
      <stop
         offset="0.005618"
         style="stop-color:#ED2828"
         id="stop3143-2" />
      <stop
         offset="0.5"
         style="stop-color:#EF3B39"
         id="stop3145-1" />
      <stop
         offset="0.994382"
         style="stop-color:#C02126"
         id="stop3147-3" />
    </linearGradient>
    <linearGradient
       y2="180.6748"
       x2="175.30762"
       y1="73.254395"
       x1="175.30762"
       gradientUnits="userSpaceOnUse"
       id="linearGradient3749-5">
      <stop
         id="stop3751-8"
         style="stop-color:#000000;stop-opacity:1;"
         offset="0" />
      <stop
         id="stop3753-7"
         style="stop-color:#000000;stop-opacity:0.4728682;"
         offset="0.99438202" />
    </linearGradient>
    <linearGradient
       inkscape:collect="always"
       xlink:href="#linearGradient3749-5"
       id="linearGradient3754"
       gradientUnits="userSpaceOnUse"
       gradientTransform="matrix(0.04164302,0,0,0.03408859,1.9444673,0.78644322)"
       x1="175.30762"
       y1="73.254395"
       x2="175.30762"
       y2="180.6748" />
    <linearGradient
       inkscape:collect="always"
       xlink:href="#linearGradient3749-5"
       id="linearGradient3756"
       gradientUnits="userSpaceOnUse"
       gradientTransform="matrix(0.04998763,0,0,0.03408859,2.4795353,0.78644322)"
       x1="175.30762"
       y1="73.254395"
       x2="175.30762"
       y2="180.6748" />
    <linearGradient
       y2="180.6748"
       x2="175.30762"
       y1="73.254395"
       x1="175.30762"
       gradientTransform="matrix(0.04859283,0,0,0.03408859,3.115962,0.78644322)"
       gradientUnits="userSpaceOnUse"
       id="linearGradient3809"
       xlink:href="#linearGradient3749-5"
       inkscape:collect="always" />
    <inkscape:perspective
       id="perspective3729"
       inkscape:persp3d-origin="0.5 : 0.33333333 : 1"
       inkscape:vp_z="1 : 0.5 : 1"
       inkscape:vp_y="0 : 1000 : 0"
       inkscape:vp_x="0 : 0.5 : 1"
       sodipodi:type="inkscape:persp3d" />
    <linearGradient
       inkscape:collect="always"
       xlink:href="#linearGradient3696"
       id="linearGradient4163"
       x1="6"
       y1="48"
       x2="90"
       y2="48"
       gradientUnits="userSpaceOnUse"
       gradientTransform="translate(-96,0)" />
    <linearGradient
       id="linearGradient3696">
      <stop
         id="stop3698"
         offset="0"
         style="stop-color:#2458a6;stop-opacity:1;" />
      <stop
         id="stop3700"
         offset="1"
         style="stop-color:#598ad4;stop-opacity:1;" />
    </linearGradient>
    <linearGradient
       y2="48"
       x2="90"
       y1="48"
       x1="6"
       gradientTransform="translate(-52.867199,-57.252856)"
       gradientUnits="userSpaceOnUse"
       id="linearGradient3738"
       xlink:href="#linearGradient3696"
       inkscape:collect="always" />
    <inkscape:perspective
       id="perspective3703"
       inkscape:persp3d-origin="0.5 : 0.33333333 : 1"
       inkscape:vp_z="1 : 0.5 : 1"
       inkscape:vp_y="0 : 1000 : 0"
       inkscape:vp_x="0 : 0.5 : 1"
       sodipodi:type="inkscape:persp3d" />
    <linearGradient
       gradientTransform="matrix(0.19388162,0,0,0.19388162,-1.4007219,-1.9461429)"
       inkscape:collect="always"
       xlink:href="#linearGradient4099"
       id="linearGradient4113"
       x1="22.111456"
       y1="62.983868"
       x2="40"
       y2="32"
       gradientUnits="userSpaceOnUse" />
    <linearGradient
       id="linearGradient4099">
      <stop
         style="stop-color:#9ede27;stop-opacity:1;"
         offset="0"
         id="stop4101" />
      <stop
         style="stop-color:#c8f16b;stop-opacity:1;"
         offset="1"
         id="stop4103" />
    </linearGradient>
    <linearGradient
       gradientTransform="matrix(0.19388162,0,0,0.19388162,-1.5256152,-1.9461429)"
       inkscape:collect="always"
       xlink:href="#linearGradient4099"
       id="linearGradient4105"
       x1="38"
       y1="74"
       x2="70"
       y2="49"
       gradientUnits="userSpaceOnUse" />
    <linearGradient
       id="linearGradient3712">
      <stop
         style="stop-color:#9ede27;stop-opacity:1;"
         offset="0"
         id="stop3714" />
      <stop
         style="stop-color:#c8f16b;stop-opacity:1;"
         offset="1"
         id="stop3716" />
    </linearGradient>
    <linearGradient
       inkscape:collect="always"
       xlink:href="#linearGradient3799-3"
       id="linearGradient3746"
       gradientUnits="userSpaceOnUse"
       x1="56.037025"
       y1="49.333305"
       x2="56.037025"
       y2="13.593002"
       gradientTransform="matrix(0.26518093,0,0,0.26518093,-0.34872536,-3.7081516)" />
    <linearGradient
       id="linearGradient3799-3">
      <stop
         style="stop-color:#1a1a1a;stop-opacity:1;"
         offset="0"
         id="stop3801-3" />
      <stop
         style="stop-color:#000000;stop-opacity:1;"
         offset="1"
         id="stop3803-2" />
    </linearGradient>
    <linearGradient
       y2="13.593002"
       x2="56.037025"
       y1="49.333305"
       x1="56.037025"
       gradientTransform="matrix(0.19388162,0,0,0.19388162,-1.3401963,-1.8843368)"
       gradientUnits="userSpaceOnUse"
       id="linearGradient3726"
       xlink:href="#linearGradient3799-3"
       inkscape:collect="always" />
    <inkscape:perspective
       id="perspective3736"
       inkscape:persp3d-origin="0.5 : 0.33333333 : 1"
       inkscape:vp_z="1 : 0.5 : 1"
       inkscape:vp_y="0 : 1000 : 0"
       inkscape:vp_x="0 : 0.5 : 1"
       sodipodi:type="inkscape:persp3d" />
    <radialGradient
       inkscape:collect="always"
       xlink:href="#linearGradient3784-2"
       id="radialGradient3758"
       gradientUnits="userSpaceOnUse"
       gradientTransform="matrix(1.0456205,0.08243661,-0.05194947,0.90987799,0.84943041,1.3399685)"
       cx="49.580967"
       cy="67.04126"
       fx="49.580967"
       fy="67.04126"
       r="10" />
    <linearGradient
       id="linearGradient3784-2">
      <stop
         id="stop3786-4"
         offset="0"
         style="stop-color:#a0a0a0;stop-opacity:1;" />
      <stop
         id="stop3790-2"
         offset="1"
         style="stop-color:#1a1a1a;stop-opacity:1;" />
    </linearGradient>
    <radialGradient
       r="10"
       fy="67.04126"
       fx="49.580967"
       cy="67.04126"
       cx="49.580967"
       gradientTransform="matrix(1.0456205,0.08243661,-0.05194947,0.90987799,0.84943041,1.3399685)"
       gradientUnits="userSpaceOnUse"
       id="radialGradient3745"
       xlink:href="#linearGradient3784-2"
       inkscape:collect="always" />
    <radialGradient
       inkscape:collect="always"
       xlink:href="#linearGradient3784-2"
       id="radialGradient3698"
       cx="10.116978"
       cy="6.5340972"
       fx="10.116978"
       fy="6.5340972"
       r="2.6487656"
       gradientTransform="matrix(0.60548597,-0.18291744,0.13322228,0.44098703,0.81853832,7.6996387)"
       gradientUnits="userSpaceOnUse" />
    <inkscape:perspective
       id="perspective2899"
       inkscape:persp3d-origin="0.5 : 0.33333333 : 1"
       inkscape:vp_z="1 : 0.5 : 1"
       inkscape:vp_y="0 : 1000 : 0"
       inkscape:vp_x="0 : 0.5 : 1"
       sodipodi:type="inkscape:persp3d" />
    <filter
       color-interpolation-filters="sRGB"
       inkscape:collect="always"
       id="filter4007">
      <feGaussianBlur
         inkscape:collect="always"
         stdDeviation="0.63441145"
         id="feGaussianBlur4009" />
    </filter>
    <linearGradient
       inkscape:collect="always"
       xlink:href="#linearGradient3298"
       id="linearGradient3950"
       gradientUnits="userSpaceOnUse"
       x1="80.875443"
       y1="82.61515"
       x2="82.573708"
       y2="84.937546" />
    <linearGradient
       id="linearGradient3298">
      <stop
         id="stop3300"
         offset="0"
         style="stop-color:#f9f9f9;stop-opacity:1;" />
      <stop
         id="stop3302"
         offset="1"
         style="stop-color:#3c3c3c;stop-opacity:1;" />
    </linearGradient>
    <radialGradient
       inkscape:collect="always"
       xlink:href="#linearGradient7450"
       id="radialGradient3962"
       gradientUnits="userSpaceOnUse"
       gradientTransform="matrix(0.12470968,-0.12470968,0.07938494,0.07938494,-3.9405929,9.6708054)"
       cx="56.055019"
       cy="55.978848"
       fx="56.055019"
       fy="55.978848"
       r="52.251602" />
    <linearGradient
       id="linearGradient7450">
      <stop
         style="stop-color:#e3e3e3;stop-opacity:1;"
         offset="0"
         id="stop7452" />
      <stop
         style="stop-color:#939393;stop-opacity:1;"
         offset="1"
         id="stop7454" />
    </linearGradient>
    <filter
       color-interpolation-filters="sRGB"
       inkscape:collect="always"
       id="filter3984">
      <feGaussianBlur
         inkscape:collect="always"
         stdDeviation="0.36"
         id="feGaussianBlur3986" />
    </filter>
    <inkscape:perspective
       id="perspective2927"
       inkscape:persp3d-origin="0.5 : 0.33333333 : 1"
       inkscape:vp_z="1 : 0.5 : 1"
       inkscape:vp_y="0 : 1000 : 0"
       inkscape:vp_x="0 : 0.5 : 1"
       sodipodi:type="inkscape:persp3d" />
    <linearGradient
       gradientUnits="userSpaceOnUse"
       y2="8.550745"
       x2="60.777386"
       y1="115.27915"
       x1="60.777386"
       id="linearGradient3240"
       xlink:href="#linearGradient3234"
       inkscape:collect="always"
       gradientTransform="matrix(0.1715152,0,0,0.1709396,0.060606,-0.068188)" />
    <linearGradient
       id="linearGradient3234">
      <stop
         id="stop3236"
         offset="0"
         style="stop-color:#232323;stop-opacity:1;" />
      <stop
         id="stop3238"
         offset="1"
         style="stop-color:#4b4b4b;stop-opacity:1;" />
    </linearGradient>
    <linearGradient
       y2="8.550745"
       x2="60.777386"
       y1="115.27915"
       x1="60.777386"
       gradientTransform="matrix(0.1715152,0,0,0.1709396,-13.082846,-17.697416)"
       gradientUnits="userSpaceOnUse"
       id="linearGradient2936"
       xlink:href="#linearGradient3234"
       inkscape:collect="always" />
    <inkscape:perspective
       id="perspective2946"
       inkscape:persp3d-origin="0.5 : 0.33333333 : 1"
       inkscape:vp_z="1 : 0.5 : 1"
       inkscape:vp_y="0 : 1000 : 0"
       inkscape:vp_x="0 : 0.5 : 1"
       sodipodi:type="inkscape:persp3d" />
    <linearGradient
       inkscape:collect="always"
       xlink:href="#linearGradient3187"
       id="linearGradient3235"
       x1="5.9187279"
       y1="25.127209"
       x2="5.9187279"
       y2="5.1117616"
       gradientUnits="userSpaceOnUse"
       gradientTransform="translate(3.9593642,-4.1272096)" />
    <linearGradient
       id="linearGradient3187">
      <stop
         id="stop3189-3"
         offset="0"
         style="stop-color:#656565;stop-opacity:1;" />
      <stop
         id="stop3191-8"
         offset="1"
         style="stop-color:#dcdcdc;stop-opacity:1;" />
    </linearGradient>
    <linearGradient
       y2="9.2228165"
       x2="5.9187279"
       y1="25.127209"
       x1="5.9187279"
       gradientTransform="translate(2.959364,-9.12721)"
       gradientUnits="userSpaceOnUse"
       id="linearGradient2955"
       xlink:href="#linearGradient3187"
       inkscape:collect="always" />
  </defs>
  <sodipodi:namedview
     id="base"
     pagecolor="#ffffff"
     bordercolor="#e7e7e7"
     borderopacity="1"
     inkscape:pageopacity="0.0"
     inkscape:pageshadow="2"
     inkscape:zoom="28.458771"
     inkscape:cx="5.7169421"
     inkscape:cy="9.5563131"
     inkscape:document-units="px"
     inkscape:current-layer="layer1"
     showgrid="true"
     inkscape:showpageshadow="false"
     showguides="false"
     inkscape:guide-bbox="true"
     inkscape:window-width="1920"
     inkscape:window-height="1024"
     inkscape:window-x="0"
     inkscape:window-y="25"
     inkscape:window-maximized="1"
     inkscape:snap-global="false">
    <sodipodi:guide
       orientation="1,0"
       position="0,112"
       id="guide2383" />
    <sodipodi:guide
       orientation="0,1"
       position="26.278146,128"
       id="guide2385" />
    <sodipodi:guide
       orientation="1,0"
       position="128,54.082119"
       id="guide2387" />
    <sodipodi:guide
       orientation="0,1"
       position="78.156291,0"
       id="guide2389" />
    <sodipodi:guide
       orientation="0,1"
       position="60.863576,64.084768"
       id="guide2391" />
    <inkscape:grid
       type="xygrid"
       id="grid3672"
       visible="true"
       enabled="true" />
  </sodipodi:namedview>
  <metadata
     id="metadata7">
    <rdf:RDF>
      <cc:Work
         rdf:about="">
        <dc:format>image/svg+xml</dc:format>
        <dc:type
           rdf:resource="http://purl.org/dc/dcmitype/StillImage" />
        <dc:title></dc:title>
      </cc:Work>
    </rdf:RDF>
  </metadata>
  <g
     inkscape:label="Button"
     inkscape:groupmode="layer"
     id="layer1">
    <rect
       ry="2"
       rx="2"
       y="0"
       x="-16"
       height="16"
       width="16"
       id="rect3196"
       style="fill:url(#linearGradient3204);fill-opacity:1.0;fill-rule:nonzero;stroke:none"
       transform="matrix(0,-1,1,0,0,0)" />
    <path
       id="path6159"
       style="fill:url(#radialGradient3962);fill-opacity:1;stroke:none;display:inline"
       d="m 11.028095,3.9494908 -0.221062,0.5526559 -0.0829,0.4144919 0.02763,0.138164 L 10.143846,5.137701 10.116213,4.999537 9.9504163,4.6126779 9.5635571,4.1429203 9.2043308,4.2534515 9.1214324,4.8337402 9.1490652,5.2482322 9.2043308,5.3863962 8.6516749,5.6350913 8.5964093,5.4969273 8.3200813,5.1653338 7.8503238,4.8061074 7.5187302,4.999537 7.5739958,5.6074585 7.7397926,5.9666849 7.822691,6.1048489 7.3253006,6.4640752 7.2424023,6.353544 6.9108086,6.1324817 6.3581527,5.8837865 6.0818247,6.1601144 6.3028871,6.7404032 6.5239495,7.0443639 6.6621134,7.1548951 6.2752543,7.624653 6.1647231,7.5417546 5.777864,7.4035903 5.1699425,7.3206919 4.9765129,7.6799186 5.3357392,8.1496761 5.6673328,8.3983713 5.8054968,8.4812697 5.5568016,9.0339256 5.4186376,8.97866 5.0317785,8.9510272 4.423857,9.0339256 4.3133258,9.393152 l 0.4973903,0.3868591 0.3592264,0.1657968 0.1381639,0.027633 -0.055266,0.5802883 -0.1657967,0 -0.3868592,0.05527 -0.5802887,0.248695 0,0.386859 0.5802887,0.221063 0.3868592,0.0829 0.1657967,-0.02763 0.055266,0.607922 -0.1381639,0.02763 -0.3592264,0.165796 -0.4973903,0.359227 0.1105312,0.386859 0.6079215,0.0829 0.3868591,-0.02763 0.138164,-0.05527 0.2486952,0.552656 -0.138164,0.05527 -0.3315936,0.276328 -0.3592263,0.469758 0.1934296,0.331593 0.6079215,-0.0829 0.3868591,-0.138164 0.1105312,-0.0829 0.3868591,0.49739 -0.1381639,0.0829 -0.2210624,0.331594 -0.2210624,0.552656 0.027633,0.02763 0.8289839,0 0.3039609,-0.221063 0.082898,-0.110531 0.414492,0.331594 2.2935224,0 C 8.6951287,15.61588 7.5657917,14.749338 6.8831758,13.593337 L 9.038534,12.626189 c 0.4597231,0.638558 1.18286,1.057128 2.017194,1.105312 l 0.303961,2.210624 1.050046,0 -0.331593,-2.348788 c 0.751793,-0.25497 1.370218,-0.839001 1.657967,-1.575069 l 2.238257,0.414492 0,-1.050047 -2.07246,-0.359226 C 13.891896,10.183266 13.492217,9.4375351 12.879493,8.9510272 l 1.105312,-2.1277256 c 0.906656,0.5940697 1.614807,1.4799103 1.989561,2.5145848 l 0,-1.9619289 -0.19343,-0.2210624 0.138164,-0.1105312 0.05527,-0.082898 0,-1.0224134 -0.442125,0.1934296 -0.331593,0.2210623 -0.0829,0.1105312 -0.49739,-0.3592263 0.110531,-0.138164 0.138164,-0.3592264 0.0829,-0.6079215 -0.359226,-0.1934296 -0.469757,0.3592264 -0.248696,0.3315935 -0.0829,0.138164 -0.552656,-0.2486951 0.05527,-0.138164 0.02763,-0.414492 -0.0829,-0.5802887 -0.359226,-0.1105312 -0.386859,0.4697576 -0.165797,0.3868591 -0.02763,0.138164 -0.580289,-0.082898 0,-0.138164 -0.05527,-0.4144919 -0.248696,-0.5526559 -0.386859,0 z m 1.38164,11.9926342 1.906663,0 c 0.168655,0 0.316529,-0.03693 0.469758,-0.0829 l 0.331593,-0.248695 0.05527,0.0829 c 0.27476,-0.169691 0.498231,-0.424062 0.635554,-0.718453 l -0.02763,-0.02763 0.0829,-0.110531 c 0.06388,-0.176709 0.110531,-0.353471 0.110531,-0.552656 l 0,-1.602702 c -0.555028,1.617399 -1.883709,2.856029 -3.564631,3.26067 z m -1.18821,-9.9478073 c 0.651899,1e-7 1.279349,0.1339092 1.851397,0.3592263 L 11.96761,8.4536369 c -0.240034,-0.070315 -0.483412,-0.1105312 -0.746085,-0.1105312 -0.520838,0 -0.997238,0.1578394 -1.4092727,0.4144919 L 8.1819173,7.0167311 C 9.027495,6.3782377 10.081186,5.9943177 11.221525,5.9943177 z M 7.4358318,7.7075514 9.038534,9.4484175 C 8.7139145,9.8928378 8.5411437,10.459021 8.5411437,11.05112 c 0,0.218584 0.00601,0.432049 0.055266,0.635554 L 6.4410511,12.681455 C 6.2668662,12.170698 6.1647231,11.620457 6.1647231,11.05112 6.1647233,9.7768154 6.655353,8.5956535 7.4358318,7.7075514 z M 6.1923559,0.02563369 C 6.1315487,1.1957464 5.6727394,2.3624321 4.7830833,3.2586708 3.5041918,4.5470246 1.6993272,4.9502267 0.05787516,4.5297795 l 0,1.9066629 0.0276328,-0.055266 0.0276328,-0.1657968 0.66318711,0.082898 0,0.1657968 0.0552656,0.4421247 0.27632794,0.6079219 0.414492,0 L 1.7711085,6.9061999 1.8540069,6.4640752 1.8263741,6.2982784 2.4895612,6.21538 2.517194,6.3811768 2.7106236,6.768036 3.0974827,7.2930591 3.5119747,7.1825279 3.5948731,6.5193408 3.5672403,6.0772161 3.5119747,5.9390521 4.1198962,5.6627241 4.1751618,5.8285209 4.4514898,6.1601144 4.9765129,6.5469736 5.363372,6.353544 5.2804736,5.6903569 5.1146769,5.275865 5.0041457,5.137701 5.5291688,4.7508418 5.6397,4.861373 5.9989263,5.1100682 6.6068479,5.3587634 6.9108086,5.0548026 6.6621134,4.4745139 6.4134183,4.0876547 6.2752543,4.0047563 6.6897462,3.4797332 6.8279102,3.5626316 7.2424023,3.7284284 7.8779566,3.8113268 8.0990189,3.4244676 7.684527,2.8994445 7.3529334,2.6231165 7.2147695,2.5678509 7.4634646,1.9599294 7.6016286,1.9875622 8.0437533,2.0428278 8.7069405,1.9599294 8.8174716,1.5454375 8.2924485,1.1309455 7.8779566,0.96514876 7.7121598,0.93751597 l 0.082898,-0.66318711 0.1657968,0 0.4421247,-0.0552656 0.4697575,-0.19342958 -2.6803813,0 z" />
    <path
       sodipodi:type="arc"
       style="fill:#b8b8b8;fill-opacity:1;fill-rule:nonzero;stroke:url(#linearGradient3950);stroke-width:0.90405828;stroke-linecap:butt;stroke-linejoin:round;stroke-miterlimit:4;stroke-opacity:1;stroke-dasharray:none;stroke-dashoffset:0;display:inline"
       id="path7458"
       sodipodi:cx="81.802116"
       sodipodi:cy="84.007065"
       sodipodi:rx="1.2367492"
       sodipodi:ry="1.2367492"
       d="m 83.038866,84.007065 a 1.2367492,1.2367492 0 1 1 -2.473499,0 1.2367492,1.2367492 0 1 1 2.473499,0 z"
       transform="matrix(1.1061234,0,0,1.1061234,-79.260481,-81.87553)" />
    <rect
       style="opacity:0.35;color:#000000;fill:none;fill-opacity:1;fill-rule:nonzero;stroke:#000000;stroke-width:2;stroke-linecap:round;stroke-linejoin:miter;stroke-miterlimit:4;stroke-opacity:1;stroke-dasharray:none;stroke-dashoffset:8.59999999999999787;marker:none;visibility:visible;display:inline;overflow:visible;enable-background:accumulate"
       id="rect3960"
       width="11.982246"
       height="12.017385"
       x="2.0028975"
       y="1.9797176"
       rx="2"
       ry="2" />
    <path
       style="fill:url(#linearGradient2955);fill-opacity:1;fill-rule:evenodd;stroke:none;display:inline"
       d="m 2,-4e-7 c -1.108,0 -2,0.892 -2,2 L 0,14 c 0,1.108 0.892,2 2,2 l 12,0 c 1.108,0 2,-0.892 2,-2 L 16,1.9999996 c 0,-1.108 -0.892,-2 -2,-2 l -12,0 z m 1.5,2 9,0 c 0.831,0 1.5,0.669 1.5,1.5 L 14,12.5 c 0,0.831 -0.669,1.5 -1.5,1.5 l -9,0 C 2.669,14 2,13.331 2,12.5 L 2,3.4999996 c 0,-0.831 0.669,-1.5 1.5,-1.5 z"
       id="rect3226"
       sodipodi:nodetypes="cccccccccccccccccc" />
    <path
       style="opacity:0.4;fill:url(#linearGradient3629);fill-opacity:1;fill-rule:nonzero;stroke:none"
       d="m 0,14 c 0,1.108 0.892,2 2,2 l 12,0 c 1.108,0 2,-0.892 2,-2 L 16,2 C 16,0.892 15.108,0 14,0 L 2,0 C 0.892,0 0,0.892 0,2 l 0,12 z m 0.96875,0 0,-12 C 0.96875,1.416801 1.4168007,0.96875 2,0.96875 l 12,0 c 0.583199,0 1.03125,0.448051 1.03125,1.03125 l 0,12 c 0,0.583199 -0.448051,1.03125 -1.03125,1.03125 l -12,0 C 1.4168007,15.03125 0.96875,14.583199 0.96875,14 z"
       id="rect2835" />
    <path
       style="opacity:0.45;fill:#ffffff;fill-opacity:1;fill-rule:nonzero;stroke:none"
       d="M 2,0.96875 C 1.4168007,0.96875 0.96875,1.4168007 0.96875,2 l 0,1 C 0.96875,2.4168007 1.4168007,1.96875 2,1.96875 l 12,0 c 0.583199,0 1.03125,0.4480507 1.03125,1.03125 l 0,-1 C 15.03125,1.4168007 14.583199,0.96875 14,0.96875 l -12,0 z"
       id="path2843" />
  </g>
</svg>
