<?xml version="1.0" encoding="UTF-8" standalone="no"?>
<!-- Created with Inkscape (http://www.inkscape.org/) -->

<svg
   xmlns:dc="http://purl.org/dc/elements/1.1/"
   xmlns:cc="http://creativecommons.org/ns#"
   xmlns:rdf="http://www.w3.org/1999/02/22-rdf-syntax-ns#"
   xmlns:svg="http://www.w3.org/2000/svg"
   xmlns="http://www.w3.org/2000/svg"
   xmlns:xlink="http://www.w3.org/1999/xlink"
   xmlns:sodipodi="http://sodipodi.sourceforge.net/DTD/sodipodi-0.dtd"
   xmlns:inkscape="http://www.inkscape.org/namespaces/inkscape"
   width="96"
   height="96"
   id="svg2408"
   sodipodi:version="0.32"
   inkscape:version="0.48.0 r9654"
   version="1.0"
   sodipodi:docname="application-exit.svg"
   inkscape:output_extension="org.inkscape.output.svg.inkscape">
  <defs
     id="defs2410">
    <inkscape:perspective
       sodipodi:type="inkscape:persp3d"
       inkscape:vp_x="0 : 48 : 1"
       inkscape:vp_y="0 : 1000 : 0"
       inkscape:vp_z="96 : 48 : 1"
       inkscape:persp3d-origin="48 : 32 : 1"
       id="perspective48" />
    <linearGradient
       id="ButtonShadow"
       gradientTransform="scale(1.0058652,0.994169)"
       x1="45.447727"
       y1="92.539597"
       x2="45.447727"
       y2="7.0165396"
       gradientUnits="userSpaceOnUse">
      <stop
         style="stop-color:#000000;stop-opacity:1;"
         offset="0"
         id="stop3750" />
      <stop
         style="stop-color:#000000;stop-opacity:0.58823532;"
         offset="1"
         id="stop3752" />
    </linearGradient>
    <linearGradient
       inkscape:collect="always"
       id="linearGradient3737">
      <stop
         style="stop-color:#ffffff;stop-opacity:1;"
         offset="0"
         id="stop3739" />
      <stop
         style="stop-color:#ffffff;stop-opacity:0;"
         offset="1"
         id="stop3741" />
    </linearGradient>
    <linearGradient
       id="linearGradient3700">
      <stop
         style="stop-color:#2276c5;stop-opacity:1;"
         offset="0"
         id="stop3702" />
      <stop
         style="stop-color:#68baf4;stop-opacity:1;"
         offset="1"
         id="stop3704" />
    </linearGradient>
    <filter
       inkscape:collect="always"
       id="filter3174">
      <feGaussianBlur
         inkscape:collect="always"
         stdDeviation="1.71"
         id="feGaussianBlur3176" />
    </filter>
    <linearGradient
       inkscape:collect="always"
       xlink:href="#linearGradient3737"
       id="linearGradient3188"
       gradientUnits="userSpaceOnUse"
       x1="36.357143"
       y1="6"
       x2="36.357143"
       y2="63.893143" />
    <filter
       inkscape:collect="always"
       id="filter3794"
       x="-0.192"
       width="1.384"
       y="-0.192"
       height="1.384">
      <feGaussianBlur
         inkscape:collect="always"
         stdDeviation="5.28"
         id="feGaussianBlur3796" />
    </filter>
    <linearGradient
       inkscape:collect="always"
       xlink:href="#linearGradient3737"
       id="linearGradient3613"
       x1="48"
       y1="20.220806"
       x2="48"
       y2="138.66119"
       gradientUnits="userSpaceOnUse" />
    <radialGradient
       inkscape:collect="always"
       xlink:href="#linearGradient3737"
       id="radialGradient3619"
       cx="48"
       cy="90.171875"
       fx="48"
       fy="90.171875"
       r="42"
       gradientTransform="matrix(1.1573129,0,0,0.99590774,-7.5510206,0.19713193)"
       gradientUnits="userSpaceOnUse" />
    <clipPath
       clipPathUnits="userSpaceOnUse"
       id="clipPath3613">
      <rect
         ry="6"
         rx="6"
         y="6"
         x="6"
         height="84"
         width="84"
         id="rect3615"
         style="fill:#ffffff;fill-opacity:1;fill-rule:nonzero;stroke:none" />
    </clipPath>
    <linearGradient
       inkscape:collect="always"
       xlink:href="#linearGradient3257"
       id="linearGradient3617"
       gradientUnits="userSpaceOnUse"
       x1="48"
       y1="90"
       x2="48"
       y2="5.9877172" />
    <linearGradient
       id="ButtonShadow-0"
       gradientTransform="matrix(1.0058652,0,0,0.994169,100,0)"
       x1="45.447727"
       y1="92.539597"
       x2="45.447727"
       y2="7.0165396"
       gradientUnits="userSpaceOnUse">
      <stop
         style="stop-color:#000000;stop-opacity:1;"
         offset="0"
         id="stop3750-8" />
      <stop
         style="stop-color:#000000;stop-opacity:0.58823532;"
         offset="1"
         id="stop3752-5" />
    </linearGradient>
    <linearGradient
       inkscape:collect="always"
       xlink:href="#ButtonShadow-0"
       id="linearGradient3780"
       gradientUnits="userSpaceOnUse"
       gradientTransform="matrix(1.0238095,0,0,1.0119048,-1.1428571,-98.071429)"
       x1="32.251034"
       y1="6.1317081"
       x2="32.251034"
       y2="90.238609" />
    <linearGradient
       inkscape:collect="always"
       xlink:href="#ButtonShadow-0"
       id="linearGradient3772"
       gradientUnits="userSpaceOnUse"
       gradientTransform="matrix(1.0238095,0,0,1.0119048,-1.1428571,-98.071429)"
       x1="32.251034"
       y1="6.1317081"
       x2="32.251034"
       y2="90.238609" />
    <linearGradient
       inkscape:collect="always"
       xlink:href="#ButtonShadow-0"
       id="linearGradient3725"
       gradientUnits="userSpaceOnUse"
       gradientTransform="matrix(1.0238095,0,0,1.0119048,-1.1428571,-98.071429)"
       x1="32.251034"
       y1="6.1317081"
       x2="32.251034"
       y2="90.238609" />
    <linearGradient
       inkscape:collect="always"
       xlink:href="#ButtonShadow-0"
       id="linearGradient3721"
       gradientUnits="userSpaceOnUse"
       gradientTransform="translate(0,-97)"
       x1="32.251034"
       y1="6.1317081"
       x2="32.251034"
       y2="90.238609" />
    <linearGradient
       y2="90.238609"
       x2="32.251034"
       y1="6.1317081"
       x1="32.251034"
       gradientTransform="matrix(1.0238095,0,0,1.0119048,-1.1428571,-98.071429)"
       gradientUnits="userSpaceOnUse"
       id="linearGradient3026"
       xlink:href="#ButtonShadow-0"
       inkscape:collect="always" />
    <linearGradient
       inkscape:collect="always"
       xlink:href="#linearGradient3257"
       id="linearGradient3181"
       x1="-3.0607977"
       y1="27.258198"
       x2="-3.0607977"
       y2="7.2536583"
       gradientUnits="userSpaceOnUse"
       gradientTransform="translate(11.119372,-6.2581978)" />
    <linearGradient
       id="linearGradient3257">
      <stop
         style="stop-color:#a50000;stop-opacity:1;"
         offset="0"
         id="stop3259" />
      <stop
         style="stop-color:#e73800;stop-opacity:1;"
         offset="1"
         id="stop3261" />
    </linearGradient>
    <linearGradient
       y2="7.2536583"
       x2="-3.0607977"
       y1="27.258198"
       x1="-3.0607977"
       gradientTransform="translate(11.119372,19.741802)"
       gradientUnits="userSpaceOnUse"
       id="linearGradient3053"
       xlink:href="#linearGradient3257"
       inkscape:collect="always" />
    <linearGradient
       inkscape:collect="always"
       xlink:href="#linearGradient4081"
       id="linearGradient3702"
       x1="27"
       y1="48"
       x2="69"
       y2="48"
       gradientUnits="userSpaceOnUse"
       gradientTransform="matrix(0,-1,1,0,-4.1799554e-7,96)" />
    <linearGradient
       id="linearGradient4081">
      <stop
         style="stop-color:#dcdcdc;stop-opacity:1;"
         offset="0"
         id="stop4083" />
      <stop
         style="stop-color:#f5f5f5;stop-opacity:1;"
         offset="1"
         id="stop4085" />
    </linearGradient>
  </defs>
  <sodipodi:namedview
     id="base"
     pagecolor="#ffffff"
     bordercolor="#666666"
     borderopacity="1.0"
     inkscape:pageopacity="0.0"
     inkscape:pageshadow="2"
     inkscape:zoom="6.7816895"
     inkscape:cx="15.576228"
     inkscape:cy="43.7061"
     inkscape:document-units="px"
     inkscape:current-layer="layer4"
     showgrid="true"
     showborder="true"
     inkscape:showpageshadow="false"
     inkscape:window-width="1920"
     inkscape:window-height="1029"
     inkscape:window-x="0"
     inkscape:window-y="25"
     inkscape:window-maximized="1">
    <inkscape:grid
       type="xygrid"
       id="grid3732"
       visible="true"
       enabled="true" />
  </sodipodi:namedview>
  <metadata
     id="metadata2413">
    <rdf:RDF>
      <cc:Work
         rdf:about="">
        <dc:format>image/svg+xml</dc:format>
        <dc:type
           rdf:resource="http://purl.org/dc/dcmitype/StillImage" />
        <dc:title></dc:title>
      </cc:Work>
    </rdf:RDF>
  </metadata>
  <g
     inkscape:groupmode="layer"
     id="layer2"
     inkscape:label="Blur Shadow"
     style="display:none"
     sodipodi:insensitive="true">
    <rect
       style="opacity:0.9;fill:url(#ButtonShadow);fill-opacity:1;fill-rule:nonzero;stroke:none;filter:url(#filter3174)"
       id="rect3745"
       width="86"
       height="85"
       x="5"
       y="7"
       rx="6"
       ry="6" />
  </g>
  <g
     inkscape:groupmode="layer"
     id="layer3"
     inkscape:label="Shadow"
     sodipodi:insensitive="true">
    <path
       sodipodi:type="inkscape:offset"
       inkscape:radius="0.99097413"
       inkscape:original="M 12 -94.03125 C 7.028367 -94.03125 2.96875 -89.971633 2.96875 -85 L 2.96875 -14 C 2.96875 -9.0283671 7.0283671 -4.96875 12 -4.96875 L 84 -4.96875 C 88.971633 -4.96875 93.03125 -9.028367 93.03125 -14 L 93.03125 -85 C 93.03125 -89.971633 88.971633 -94.03125 84 -94.03125 L 12 -94.03125 z "
       style="opacity:0.07999998;fill:url(#linearGradient3026);fill-opacity:1;fill-rule:nonzero;stroke:none;display:inline"
       id="path3786"
       d="m 12,-95.03125 c -5.5110903,0 -10.03125,4.52016 -10.03125,10.03125 l 0,71 c 0,5.5110902 4.5201598,10.03125 10.03125,10.03125 l 72,0 c 5.51109,0 10.03125,-4.5201597 10.03125,-10.03125 l 0,-71 c 0,-5.51109 -4.52016,-10.03125 -10.03125,-10.03125 l -72,0 z"
       transform="scale(1,-1)" />
    <path
       sodipodi:type="inkscape:offset"
       inkscape:radius="1.0360184"
       inkscape:original="M 12 -93 C 7.5908667 -93 4 -89.409133 4 -85 L 4 -14 C 4 -9.5908667 7.5908667 -6 12 -6 L 84 -6 C 88.409133 -6 92 -9.5908667 92 -14 L 92 -85 C 92 -89.409133 88.409133 -93 84 -93 L 12 -93 z "
       style="opacity:0.1;fill:url(#linearGradient3780);fill-opacity:1;fill-rule:nonzero;stroke:none;display:inline"
       id="path3778"
       d="m 12,-94.03125 c -4.971633,0 -9.03125,4.059617 -9.03125,9.03125 l 0,71 c 0,4.9716329 4.0596171,9.03125 9.03125,9.03125 l 72,0 c 4.971633,0 9.03125,-4.059617 9.03125,-9.03125 l 0,-71 c 0,-4.971633 -4.059617,-9.03125 -9.03125,-9.03125 l -72,0 z"
       transform="scale(1,-1)" />
    <path
       sodipodi:type="inkscape:offset"
       inkscape:radius="0.98962283"
       inkscape:original="M 12 -92 C 8.122 -92 5 -88.878 5 -85 L 5 -14 C 5 -10.122 8.122 -7 12 -7 L 84 -7 C 87.878 -7 91 -10.122 91 -14 L 91 -85 C 91 -88.878 87.878 -92 84 -92 L 12 -92 z "
       style="opacity:0.2;fill:url(#linearGradient3772);fill-opacity:1;fill-rule:nonzero;stroke:none;display:inline"
       id="path3770"
       d="m 12,-93 c -4.4091333,0 -8,3.590867 -8,8 l 0,71 c 0,4.4091333 3.5908667,8 8,8 l 72,0 c 4.409133,0 8,-3.5908667 8,-8 l 0,-71 c 0,-4.409133 -3.590867,-8 -8,-8 l -72,0 z"
       transform="scale(1,-1)" />
    <rect
       style="opacity:0.3;fill:url(#linearGradient3725);fill-opacity:1;fill-rule:nonzero;stroke:none;display:inline"
       id="rect3723"
       width="86"
       height="85"
       x="5"
       y="-92"
       rx="7"
       ry="7"
       transform="scale(1,-1)" />
    <rect
       transform="scale(1,-1)"
       ry="6"
       rx="6"
       y="-91"
       x="6"
       height="84"
       width="84"
       id="rect3716"
       style="opacity:0.45;fill:url(#linearGradient3721);fill-opacity:1;fill-rule:nonzero;stroke:none;display:inline" />
  </g>
  <g
     inkscape:label="Button"
     inkscape:groupmode="layer"
     id="layer1">
    <rect
       style="fill:url(#linearGradient3617);fill-opacity:1.0;fill-rule:nonzero;stroke:none"
       id="rect2419"
       width="84"
       height="84"
       x="6"
       y="6"
       rx="6"
       ry="6" />
    <path
       style="opacity:0.4;fill:url(#linearGradient3188);fill-opacity:1;fill-rule:nonzero;stroke:none"
       d="M 12,6 C 8.676,6 6,8.676 6,12 l 0,2 0,68 0,2 c 0,0.334721 0.04135,0.6507 0.09375,0.96875 0.0487,0.295596 0.09704,0.596915 0.1875,0.875 0.00988,0.03038 0.020892,0.0636 0.03125,0.09375 0.098865,0.287771 0.2348802,0.547452 0.375,0.8125 0.1445918,0.273507 0.3156161,0.535615 0.5,0.78125 0.1843839,0.245635 0.3737765,0.473472 0.59375,0.6875 0.439947,0.428056 0.94291,0.814526 1.5,1.09375 0.278545,0.139612 0.5734731,0.246947 0.875,0.34375 -0.2562018,-0.100222 -0.4867109,-0.236272 -0.71875,-0.375 -0.00741,-0.0044 -0.023866,0.0045 -0.03125,0 -0.031933,-0.0193 -0.062293,-0.04251 -0.09375,-0.0625 -0.120395,-0.0767 -0.2310226,-0.163513 -0.34375,-0.25 -0.1061728,-0.0808 -0.2132809,-0.161112 -0.3125,-0.25 C 8.4783201,88.557317 8.3087904,88.373362 8.15625,88.1875 8.0486711,88.057245 7.9378561,87.922215 7.84375,87.78125 7.818661,87.74287 7.805304,87.69538 7.78125,87.65625 7.716487,87.553218 7.6510225,87.451733 7.59375,87.34375 7.4927417,87.149044 7.3880752,86.928049 7.3125,86.71875 7.30454,86.69694 7.288911,86.6782 7.28125,86.65625 7.2494249,86.5643 7.2454455,86.469419 7.21875,86.375 7.1884177,86.268382 7.1483606,86.171969 7.125,86.0625 7.0521214,85.720988 7,85.364295 7,85 L 7,83 7,15 7,13 C 7,10.218152 9.2181517,8 12,8 l 2,0 68,0 2,0 c 2.781848,0 5,2.218152 5,5 l 0,2 0,68 0,2 c 0,0.364295 -0.05212,0.720988 -0.125,1.0625 -0.04415,0.206893 -0.08838,0.397658 -0.15625,0.59375 -0.0077,0.02195 -0.0233,0.04069 -0.03125,0.0625 -0.06274,0.173739 -0.138383,0.367449 -0.21875,0.53125 -0.04158,0.0828 -0.07904,0.169954 -0.125,0.25 -0.0546,0.09721 -0.126774,0.18835 -0.1875,0.28125 -0.09411,0.140965 -0.204921,0.275995 -0.3125,0.40625 -0.143174,0.17445 -0.303141,0.346998 -0.46875,0.5 -0.01117,0.0102 -0.01998,0.02115 -0.03125,0.03125 -0.138386,0.125556 -0.285091,0.234436 -0.4375,0.34375 -0.102571,0.07315 -0.204318,0.153364 -0.3125,0.21875 -0.0074,0.0045 -0.02384,-0.0044 -0.03125,0 -0.232039,0.138728 -0.462548,0.274778 -0.71875,0.375 0.301527,-0.0968 0.596455,-0.204138 0.875,-0.34375 0.55709,-0.279224 1.060053,-0.665694 1.5,-1.09375 0.219973,-0.214028 0.409366,-0.441865 0.59375,-0.6875 0.184384,-0.245635 0.355408,-0.507743 0.5,-0.78125 0.14012,-0.265048 0.276135,-0.524729 0.375,-0.8125 0.01041,-0.03078 0.02133,-0.06274 0.03125,-0.09375 0.09046,-0.278085 0.1388,-0.579404 0.1875,-0.875 C 89.95865,84.6507 90,84.334721 90,84 l 0,-2 0,-68 0,-2 C 90,8.676 87.324,6 84,6 L 12,6 z"
       id="rect3728" />
    <path
       id="path3615"
       d="M 12,90 C 8.676,90 6,87.324 6,84 L 6,82 6,14 6,12 c 0,-0.334721 0.04135,-0.6507 0.09375,-0.96875 0.0487,-0.295596 0.09704,-0.596915 0.1875,-0.875 C 6.29113,10.12587 6.302142,10.09265 6.3125,10.0625 6.411365,9.774729 6.5473802,9.515048 6.6875,9.25 6.8320918,8.976493 7.0031161,8.714385 7.1875,8.46875 7.3718839,8.223115 7.5612765,7.995278 7.78125,7.78125 8.221197,7.353194 8.72416,6.966724 9.28125,6.6875 9.559795,6.547888 9.8547231,6.440553 10.15625,6.34375 9.9000482,6.443972 9.6695391,6.580022 9.4375,6.71875 c -0.00741,0.0044 -0.023866,-0.0045 -0.03125,0 -0.031933,0.0193 -0.062293,0.04251 -0.09375,0.0625 -0.120395,0.0767 -0.2310226,0.163513 -0.34375,0.25 -0.1061728,0.0808 -0.2132809,0.161112 -0.3125,0.25 C 8.4783201,7.442683 8.3087904,7.626638 8.15625,7.8125 8.0486711,7.942755 7.9378561,8.077785 7.84375,8.21875 7.818661,8.25713 7.805304,8.30462 7.78125,8.34375 7.716487,8.446782 7.6510225,8.548267 7.59375,8.65625 7.4927417,8.850956 7.3880752,9.071951 7.3125,9.28125 7.30454,9.30306 7.288911,9.3218 7.28125,9.34375 7.2494249,9.4357 7.2454455,9.530581 7.21875,9.625 7.1884177,9.731618 7.1483606,9.828031 7.125,9.9375 7.0521214,10.279012 7,10.635705 7,11 l 0,2 0,68 0,2 c 0,2.781848 2.2181517,5 5,5 l 2,0 68,0 2,0 c 2.781848,0 5,-2.218152 5,-5 l 0,-2 0,-68 0,-2 C 89,10.635705 88.94788,10.279012 88.875,9.9375 88.83085,9.730607 88.78662,9.539842 88.71875,9.34375 88.71105,9.3218 88.69545,9.30306 88.6875,9.28125 88.62476,9.107511 88.549117,8.913801 88.46875,8.75 88.42717,8.6672 88.38971,8.580046 88.34375,8.5 88.28915,8.40279 88.216976,8.31165 88.15625,8.21875 88.06214,8.077785 87.951329,7.942755 87.84375,7.8125 87.700576,7.63805 87.540609,7.465502 87.375,7.3125 87.36383,7.3023 87.35502,7.29135 87.34375,7.28125 87.205364,7.155694 87.058659,7.046814 86.90625,6.9375 86.803679,6.86435 86.701932,6.784136 86.59375,6.71875 c -0.0074,-0.0045 -0.02384,0.0044 -0.03125,0 -0.232039,-0.138728 -0.462548,-0.274778 -0.71875,-0.375 0.301527,0.0968 0.596455,0.204138 0.875,0.34375 0.55709,0.279224 1.060053,0.665694 1.5,1.09375 0.219973,0.214028 0.409366,0.441865 0.59375,0.6875 0.184384,0.245635 0.355408,0.507743 0.5,0.78125 0.14012,0.265048 0.276135,0.524729 0.375,0.8125 0.01041,0.03078 0.02133,0.06274 0.03125,0.09375 0.09046,0.278085 0.1388,0.579404 0.1875,0.875 C 89.95865,11.3493 90,11.665279 90,12 l 0,2 0,68 0,2 c 0,3.324 -2.676,6 -6,6 l -72,0 z"
       style="opacity:0.2;fill:url(#radialGradient3619);fill-opacity:1;fill-rule:nonzero;stroke:none" />
  </g>
  <g
     inkscape:groupmode="layer"
     id="layer5"
     inkscape:label="Highlight"
     sodipodi:insensitive="true">
    <rect
       style="opacity:0.1;fill:url(#linearGradient3613);fill-opacity:1;fill-rule:nonzero;stroke:#ffffff;stroke-width:0.5;stroke-linecap:round;stroke-linejoin:miter;stroke-miterlimit:4;stroke-opacity:1;stroke-dasharray:none;stroke-dashoffset:0;filter:url(#filter3794)"
       id="rect3171"
       width="66"
       height="66"
       x="15"
       y="15"
       rx="12"
       ry="12"
       clip-path="url(#clipPath3613)" />
  </g>
  <g
     inkscape:groupmode="layer"
     id="layer4"
     inkscape:label="Symbol">
    <path
       sodipodi:type="inkscape:offset"
       inkscape:radius="0.98812705"
       inkscape:original="M 59.5625 26.96875 A 0.99834447 0.99834447 0 0 0 58.9375 27.28125 L 48 38.21875 L 37.0625 27.28125 A 0.99834447 0.99834447 0 0 0 36.21875 27 A 0.99834447 0.99834447 0 0 0 35.625 27.28125 L 26.28125 36.625 A 0.99834447 0.99834447 0 0 0 26.28125 38.0625 L 37.21875 49 L 26.28125 59.9375 A 0.99834447 0.99834447 0 0 0 26.28125 61.375 L 35.625 70.71875 A 0.99834447 0.99834447 0 0 0 37.0625 70.71875 L 48 59.78125 L 58.9375 70.71875 A 0.99834447 0.99834447 0 0 0 60.375 70.71875 L 69.71875 61.375 A 0.99834447 0.99834447 0 0 0 69.71875 59.9375 L 58.78125 49 L 69.71875 38.0625 A 0.99834447 0.99834447 0 0 0 69.71875 36.625 L 60.375 27.28125 A 0.99834447 0.99834447 0 0 0 59.5625 26.96875 z "
       style="opacity:0.1;fill:#000000;fill-opacity:1;stroke:none;display:inline"
       id="path3734"
       d="m 59.46875,25.96875 a 0.98822587,0.98822587 0 0 0 0,0.03125 c -3.03e-4,3.2e-5 -0.187201,-5.9e-5 -0.1875,0 -2.99e-4,5.9e-5 -0.155958,0.06241 -0.15625,0.0625 -2.92e-4,8.6e-5 -0.187217,0.06239 -0.1875,0.0625 -2.83e-4,1.11e-4 -0.155978,0.06236 -0.15625,0.0625 -2.72e-4,1.36e-4 -0.155991,0.09359 -0.15625,0.09375 -2.59e-4,1.6e-4 -0.156006,0.09357 -0.15625,0.09375 -2.44e-4,1.82e-4 -0.124774,0.09355 -0.125,0.09375 -1.98e-4,1.78e-4 -0.06945,0.101121 -0.09375,0.125 -0.0035,0.0034 -0.03122,-2.8e-5 -0.03125,0 L 48,36.84375 37.75,26.59375 c -1.39e-4,-1.39e-4 -0.06235,-0.09362 -0.0625,-0.09375 -1.47e-4,-1.3e-4 -0.0936,-0.06238 -0.09375,-0.0625 -1.54e-4,-1.22e-4 -0.09359,-0.06239 -0.09375,-0.0625 -1.61e-4,-1.13e-4 -0.09358,-0.0624 -0.09375,-0.0625 -1.67e-4,-1.03e-4 -0.09358,-0.06241 -0.09375,-0.0625 -1.73e-4,-9.3e-5 -0.124822,-0.06242 -0.125,-0.0625 -1.78e-4,-8.3e-5 -0.09357,-0.03118 -0.09375,-0.03125 -1.83e-4,-7.3e-5 -0.09356,-0.06244 -0.09375,-0.0625 -1.86e-4,-6.2e-5 -0.12481,-0.0312 -0.125,-0.03125 -1.9e-4,-5.1e-5 -0.124808,-0.03121 -0.125,-0.03125 -1.92e-4,-4e-5 -0.09356,2.9e-5 -0.09375,0 -1.94e-4,-2.9e-5 -0.124804,-0.03123 -0.125,-0.03125 -1.96e-4,-1.8e-5 -0.09355,7e-6 -0.09375,0 -1.96e-4,-7e-6 -0.124804,-5e-6 -0.125,0 -1.96e-4,5e-6 -0.124804,-1.6e-5 -0.125,0 -1.37e-4,1.1e-5 -0.02905,0.02752 -0.0625,0.03125 -0.01434,0.0016 -0.03119,-8e-6 -0.03125,0 -0.03815,0.0057 -0.156016,-4.5e-5 -0.15625,0 -2.8e-4,5.4e-5 -0.155975,0.06242 -0.15625,0.0625 -2.75e-4,7.7e-5 -0.155983,0.03115 -0.15625,0.03125 -2.67e-4,10e-5 -0.155992,0.06238 -0.15625,0.0625 -2.58e-4,1.22e-4 -0.156003,0.09361 -0.15625,0.09375 -2.47e-4,1.43e-4 -0.124766,0.09359 -0.125,0.09375 -2.34e-4,1.64e-4 -0.124781,0.09357 -0.125,0.09375 -2.19e-4,1.83e-4 -0.124797,0.09355 -0.125,0.09375 a 0.98822587,0.98822587 0 0 0 0,0.03125 l -9.34375,9.3125 0,0.03125 c -0.01913,0.01939 -0.06241,0.0624 -0.0625,0.0625 -1.17e-4,1.25e-4 -0.06239,0.06237 -0.0625,0.0625 -1.11e-4,1.3e-4 -0.0624,0.06236 -0.0625,0.0625 -1.04e-4,1.36e-4 -0.0624,0.09361 -0.0625,0.09375 -9.7e-5,1.41e-4 -0.06241,0.0936 -0.0625,0.09375 -9e-5,1.46e-4 -0.06242,0.06235 -0.0625,0.0625 -8.2e-5,1.5e-4 -0.03118,0.0936 -0.03125,0.09375 -7.5e-5,1.54e-4 -0.03118,0.09359 -0.03125,0.09375 -6.7e-5,1.57e-4 -0.06244,0.09359 -0.0625,0.09375 -5.9e-5,1.61e-4 -0.0312,0.09359 -0.03125,0.09375 -5.1e-5,1.63e-4 4.3e-5,0.09358 0,0.09375 -4.3e-5,1.66e-4 -0.03122,0.09358 -0.03125,0.09375 -3.4e-5,1.68e-4 -0.03122,0.09358 -0.03125,0.09375 -2.6e-5,1.69e-4 1.7e-5,0.12483 0,0.125 -1.7e-5,1.7e-4 9e-6,0.09358 0,0.09375 -9e-6,1.71e-4 0,0.09358 0,0.09375 0,1.71e-4 -9e-6,0.09358 0,0.09375 9e-6,1.71e-4 -1.7e-5,0.09358 0,0.09375 1.7e-5,1.7e-4 -2.6e-5,0.124831 0,0.125 2.6e-5,1.69e-4 0.03122,0.09358 0.03125,0.09375 3.4e-5,1.68e-4 0.03121,0.09358 0.03125,0.09375 4.3e-5,1.66e-4 -5.1e-5,0.09359 0,0.09375 5.1e-5,1.63e-4 0.03119,0.09359 0.03125,0.09375 5.9e-5,1.61e-4 0.06243,0.09359 0.0625,0.09375 6.7e-5,1.57e-4 0.03118,0.0936 0.03125,0.09375 7.5e-5,1.54e-4 0.03117,0.0936 0.03125,0.09375 8.2e-5,1.5e-4 0.06241,0.06235 0.0625,0.0625 9e-5,1.46e-4 0.0624,0.09361 0.0625,0.09375 9.7e-5,1.41e-4 0.0624,0.09361 0.0625,0.09375 1.04e-4,1.36e-4 0.06239,0.06237 0.0625,0.0625 1.11e-4,1.3e-4 0.06238,0.06238 0.0625,0.0625 9e-5,9.6e-5 0.04337,0.04311 0.0625,0.0625 0.0057,0.0058 -2.8e-5,0.03122 0,0.03125 L 35.84375,49 l -10.25,10.21875 0,0.03125 c -0.01913,0.01939 -0.06241,0.0624 -0.0625,0.0625 -1.17e-4,1.25e-4 -0.06239,0.06237 -0.0625,0.0625 -1.11e-4,1.3e-4 -0.0624,0.06236 -0.0625,0.0625 -1.04e-4,1.36e-4 -0.0624,0.09361 -0.0625,0.09375 -9.7e-5,1.41e-4 -0.06241,0.0936 -0.0625,0.09375 -9e-5,1.46e-4 -0.06242,0.06235 -0.0625,0.0625 -8.2e-5,1.5e-4 -0.03118,0.0936 -0.03125,0.09375 -7.5e-5,1.54e-4 -0.03118,0.09359 -0.03125,0.09375 -6.7e-5,1.57e-4 -0.06244,0.09359 -0.0625,0.09375 -5.9e-5,1.61e-4 -0.0312,0.09359 -0.03125,0.09375 -5.1e-5,1.63e-4 4.3e-5,0.09358 0,0.09375 -4.3e-5,1.66e-4 -0.03122,0.09358 -0.03125,0.09375 -3.4e-5,1.68e-4 -0.03122,0.09358 -0.03125,0.09375 -2.6e-5,1.69e-4 1.7e-5,0.12483 0,0.125 -1.7e-5,1.7e-4 9e-6,0.09358 0,0.09375 -9e-6,1.71e-4 0,0.09358 0,0.09375 0,1.71e-4 -9e-6,0.09358 0,0.09375 9e-6,1.71e-4 -1.7e-5,0.09358 0,0.09375 1.7e-5,1.7e-4 -2.6e-5,0.124831 0,0.125 2.6e-5,1.69e-4 0.03122,0.09358 0.03125,0.09375 3.4e-5,1.68e-4 0.03121,0.09358 0.03125,0.09375 4.3e-5,1.66e-4 -5.1e-5,0.09359 0,0.09375 5.1e-5,1.63e-4 0.03119,0.09359 0.03125,0.09375 5.9e-5,1.61e-4 0.06243,0.09359 0.0625,0.09375 6.7e-5,1.57e-4 0.03118,0.0936 0.03125,0.09375 7.5e-5,1.54e-4 0.03117,0.0936 0.03125,0.09375 8.2e-5,1.5e-4 0.06241,0.06235 0.0625,0.0625 9e-5,1.46e-4 0.0624,0.09361 0.0625,0.09375 9.7e-5,1.41e-4 0.0624,0.09361 0.0625,0.09375 1.04e-4,1.36e-4 0.06239,0.06237 0.0625,0.0625 1.11e-4,1.3e-4 0.06238,0.06238 0.0625,0.0625 9e-5,9.6e-5 0.04337,0.04311 0.0625,0.0625 0.0057,0.0058 -2.8e-5,0.03122 0,0.03125 l 9.34375,9.3125 c 0.01939,0.01913 0.0624,0.06241 0.0625,0.0625 1.25e-4,1.17e-4 0.06237,0.06239 0.0625,0.0625 1.3e-4,1.11e-4 0.06236,0.0624 0.0625,0.0625 1.36e-4,1.04e-4 0.09361,0.0624 0.09375,0.0625 1.41e-4,9.7e-5 0.0936,0.06241 0.09375,0.0625 1.46e-4,9e-5 0.06235,0.06242 0.0625,0.0625 1.5e-4,8.2e-5 0.0936,0.03118 0.09375,0.03125 1.54e-4,7.5e-5 0.09359,0.03118 0.09375,0.03125 1.57e-4,6.7e-5 0.09359,0.06244 0.09375,0.0625 1.61e-4,5.9e-5 0.09359,0.0312 0.09375,0.03125 1.63e-4,5.1e-5 0.09358,-4.3e-5 0.09375,0 1.66e-4,4.3e-5 0.09358,0.03122 0.09375,0.03125 1.68e-4,3.4e-5 0.09358,0.03122 0.09375,0.03125 1.69e-4,2.6e-5 0.12483,-1.7e-5 0.125,0 1.7e-4,1.7e-5 0.09358,-9e-6 0.09375,0 1.71e-4,9e-6 0.09358,0 0.09375,0 1.71e-4,0 0.09358,9e-6 0.09375,0 1.71e-4,-9e-6 0.09358,1.7e-5 0.09375,0 1.7e-4,-1.7e-5 0.124831,2.6e-5 0.125,0 1.69e-4,-2.6e-5 0.09358,-0.03122 0.09375,-0.03125 1.68e-4,-3.4e-5 0.09358,-0.03121 0.09375,-0.03125 1.66e-4,-4.3e-5 0.09359,5.1e-5 0.09375,0 1.63e-4,-5.1e-5 0.09359,-0.03119 0.09375,-0.03125 1.61e-4,-5.9e-5 0.09359,-0.06243 0.09375,-0.0625 1.57e-4,-6.7e-5 0.0936,-0.03118 0.09375,-0.03125 1.54e-4,-7.5e-5 0.0936,-0.03117 0.09375,-0.03125 1.5e-4,-8.2e-5 0.06235,-0.06241 0.0625,-0.0625 1.46e-4,-9e-5 0.09361,-0.0624 0.09375,-0.0625 1.41e-4,-9.7e-5 0.09361,-0.0624 0.09375,-0.0625 1.36e-4,-1.04e-4 0.06237,-0.06239 0.0625,-0.0625 1.3e-4,-1.11e-4 0.06238,-0.06238 0.0625,-0.0625 9.6e-5,-9e-5 0.04311,-0.04337 0.0625,-0.0625 l 0.03125,0 10.21875,-10.25 10.25,10.25 c 0.01939,0.01913 0.0624,0.06241 0.0625,0.0625 1.25e-4,1.17e-4 0.06237,0.06239 0.0625,0.0625 1.3e-4,1.11e-4 0.06236,0.0624 0.0625,0.0625 1.36e-4,1.04e-4 0.09361,0.0624 0.09375,0.0625 1.41e-4,9.7e-5 0.0936,0.06241 0.09375,0.0625 1.46e-4,9e-5 0.06235,0.06242 0.0625,0.0625 1.5e-4,8.2e-5 0.0936,0.03118 0.09375,0.03125 1.54e-4,7.5e-5 0.09359,0.03118 0.09375,0.03125 1.57e-4,6.7e-5 0.09359,0.06244 0.09375,0.0625 1.61e-4,5.9e-5 0.09359,0.0312 0.09375,0.03125 1.63e-4,5.1e-5 0.09358,-4.3e-5 0.09375,0 1.66e-4,4.3e-5 0.09358,0.03122 0.09375,0.03125 1.68e-4,3.4e-5 0.09358,0.03122 0.09375,0.03125 1.69e-4,2.6e-5 0.12483,-1.7e-5 0.125,0 1.7e-4,1.7e-5 0.09358,-9e-6 0.09375,0 1.71e-4,9e-6 0.09358,0 0.09375,0 1.71e-4,0 0.09358,9e-6 0.09375,0 1.71e-4,-9e-6 0.09358,1.7e-5 0.09375,0 1.7e-4,-1.7e-5 0.124831,2.6e-5 0.125,0 1.69e-4,-2.6e-5 0.09358,-0.03122 0.09375,-0.03125 1.68e-4,-3.4e-5 0.09358,-0.03121 0.09375,-0.03125 1.66e-4,-4.3e-5 0.09359,5.1e-5 0.09375,0 1.63e-4,-5.1e-5 0.09359,-0.03119 0.09375,-0.03125 1.61e-4,-5.9e-5 0.09359,-0.06243 0.09375,-0.0625 1.57e-4,-6.7e-5 0.0936,-0.03118 0.09375,-0.03125 1.54e-4,-7.5e-5 0.0936,-0.03117 0.09375,-0.03125 1.5e-4,-8.2e-5 0.06235,-0.06241 0.0625,-0.0625 1.46e-4,-9e-5 0.09361,-0.0624 0.09375,-0.0625 1.41e-4,-9.7e-5 0.09361,-0.0624 0.09375,-0.0625 1.36e-4,-1.04e-4 0.06237,-0.06239 0.0625,-0.0625 1.3e-4,-1.11e-4 0.06238,-0.06238 0.0625,-0.0625 9.6e-5,-9e-5 0.04311,-0.04337 0.0625,-0.0625 l 0.03125,0 9.3125,-9.3125 0,-0.03125 c 0.01913,-0.01939 0.06241,-0.0624 0.0625,-0.0625 1.17e-4,-1.25e-4 0.06239,-0.06237 0.0625,-0.0625 1.11e-4,-1.3e-4 0.0624,-0.06236 0.0625,-0.0625 1.04e-4,-1.36e-4 0.0624,-0.09361 0.0625,-0.09375 9.7e-5,-1.41e-4 0.06241,-0.0936 0.0625,-0.09375 9e-5,-1.46e-4 0.06242,-0.06235 0.0625,-0.0625 8.2e-5,-1.5e-4 0.03118,-0.0936 0.03125,-0.09375 7.5e-5,-1.54e-4 0.03118,-0.09359 0.03125,-0.09375 6.7e-5,-1.57e-4 0.06244,-0.09359 0.0625,-0.09375 5.9e-5,-1.61e-4 0.0312,-0.09359 0.03125,-0.09375 5.1e-5,-1.63e-4 -4.3e-5,-0.09358 0,-0.09375 4.3e-5,-1.66e-4 0.03122,-0.09358 0.03125,-0.09375 3.4e-5,-1.68e-4 0.03122,-0.09358 0.03125,-0.09375 2.6e-5,-1.69e-4 -1.7e-5,-0.12483 0,-0.125 1.7e-5,-1.7e-4 -9e-6,-0.09358 0,-0.09375 9e-6,-1.71e-4 0,-0.09358 0,-0.09375 0,-1.71e-4 9e-6,-0.09358 0,-0.09375 -9e-6,-1.71e-4 1.7e-5,-0.09358 0,-0.09375 -1.7e-5,-1.7e-4 2.6e-5,-0.124831 0,-0.125 -2.6e-5,-1.69e-4 -0.03122,-0.09358 -0.03125,-0.09375 -3.4e-5,-1.68e-4 -0.03121,-0.09358 -0.03125,-0.09375 -4.3e-5,-1.66e-4 5.1e-5,-0.09359 0,-0.09375 -5.1e-5,-1.63e-4 -0.03119,-0.09359 -0.03125,-0.09375 -5.9e-5,-1.61e-4 -0.06243,-0.09359 -0.0625,-0.09375 -6.7e-5,-1.57e-4 -0.03118,-0.0936 -0.03125,-0.09375 -7.5e-5,-1.54e-4 -0.03117,-0.0936 -0.03125,-0.09375 -8.2e-5,-1.5e-4 -0.06241,-0.06235 -0.0625,-0.0625 -9e-5,-1.46e-4 -0.0624,-0.09361 -0.0625,-0.09375 -9.7e-5,-1.41e-4 -0.0624,-0.09361 -0.0625,-0.09375 -1.04e-4,-1.36e-4 -0.06239,-0.06237 -0.0625,-0.0625 -1.11e-4,-1.3e-4 -0.06238,-0.06238 -0.0625,-0.0625 -9e-5,-9.6e-5 -0.04337,-0.04311 -0.0625,-0.0625 l -10.25,-10.25 10.25,-10.25 c 0.01913,-0.01939 0.06241,-0.0624 0.0625,-0.0625 1.17e-4,-1.25e-4 0.06239,-0.06237 0.0625,-0.0625 1.11e-4,-1.3e-4 0.0624,-0.06236 0.0625,-0.0625 1.04e-4,-1.36e-4 0.0624,-0.09361 0.0625,-0.09375 9.7e-5,-1.41e-4 0.06241,-0.0936 0.0625,-0.09375 9e-5,-1.46e-4 0.06242,-0.06235 0.0625,-0.0625 8.2e-5,-1.5e-4 0.03118,-0.0936 0.03125,-0.09375 7.5e-5,-1.54e-4 0.03118,-0.09359 0.03125,-0.09375 6.7e-5,-1.57e-4 0.06244,-0.09359 0.0625,-0.09375 5.9e-5,-1.61e-4 0.0312,-0.09359 0.03125,-0.09375 5.1e-5,-1.63e-4 -4.3e-5,-0.09358 0,-0.09375 4.3e-5,-1.66e-4 0.03122,-0.09358 0.03125,-0.09375 3.4e-5,-1.68e-4 0.03122,-0.09358 0.03125,-0.09375 2.6e-5,-1.69e-4 -1.7e-5,-0.12483 0,-0.125 1.7e-5,-1.7e-4 -9e-6,-0.09358 0,-0.09375 9e-6,-1.71e-4 0,-0.09358 0,-0.09375 0,-1.71e-4 9e-6,-0.09358 0,-0.09375 -9e-6,-1.71e-4 1.7e-5,-0.09358 0,-0.09375 -1.7e-5,-1.7e-4 2.6e-5,-0.124831 0,-0.125 -2.6e-5,-1.69e-4 -0.03122,-0.09358 -0.03125,-0.09375 -3.4e-5,-1.68e-4 -0.03121,-0.09358 -0.03125,-0.09375 -4.3e-5,-1.66e-4 5.1e-5,-0.09359 0,-0.09375 -5.1e-5,-1.63e-4 -0.03119,-0.09359 -0.03125,-0.09375 -5.9e-5,-1.61e-4 -0.06243,-0.09359 -0.0625,-0.09375 -6.7e-5,-1.57e-4 -0.03118,-0.0936 -0.03125,-0.09375 -7.5e-5,-1.54e-4 -0.03117,-0.0936 -0.03125,-0.09375 -8.2e-5,-1.5e-4 -0.06241,-0.06235 -0.0625,-0.0625 -9e-5,-1.46e-4 -0.0624,-0.09361 -0.0625,-0.09375 -9.7e-5,-1.41e-4 -0.0624,-0.09361 -0.0625,-0.09375 -1.04e-4,-1.36e-4 -0.06239,-0.06237 -0.0625,-0.0625 -1.11e-4,-1.3e-4 -0.06238,-0.06238 -0.0625,-0.0625 -9e-5,-9.6e-5 -0.04337,-0.04311 -0.0625,-0.0625 l -9.3125,-9.34375 c -3.3e-5,-3.5e-5 -0.02387,0.0075 -0.03125,0 -0.02216,-0.02237 -0.03115,-0.0624 -0.03125,-0.0625 -1.39e-4,-1.33e-4 -0.0936,-0.09362 -0.09375,-0.09375 -1.46e-4,-1.25e-4 -0.0936,-0.06238 -0.09375,-0.0625 -1.53e-4,-1.16e-4 -0.09359,-0.06239 -0.09375,-0.0625 -1.59e-4,-1.07e-4 -0.09358,-0.0624 -0.09375,-0.0625 -1.65e-4,-9.8e-5 -0.09358,-0.06241 -0.09375,-0.0625 -1.7e-4,-8.9e-5 -0.09358,-0.03117 -0.09375,-0.03125 -1.75e-4,-7.9e-5 -0.124821,-0.03118 -0.125,-0.03125 -1.79e-4,-6.9e-5 -0.09357,-0.06244 -0.09375,-0.0625 -1.83e-4,-5.9e-5 -0.09356,-0.0312 -0.09375,-0.03125 -1.86e-4,-4.8e-5 -0.124812,3.8e-5 -0.125,0 -1.88e-4,-3.8e-5 -0.09356,-0.03122 -0.09375,-0.03125 -1.9e-4,-2.7e-5 -0.124809,-0.03123 -0.125,-0.03125 -1.91e-4,-1.6e-5 -0.09356,6e-6 -0.09375,0 -1.92e-4,-6e-6 -0.124808,-5e-6 -0.125,0 -1.92e-4,5e-6 -0.124809,-1.6e-5 -0.125,0 z" />
    <path
       sodipodi:type="inkscape:offset"
       inkscape:radius="0.99824464"
       inkscape:original="M 36.34375 28 L 27 37.34375 L 38.65625 49 L 27 60.65625 L 36.34375 70 L 48 58.34375 L 59.65625 70 L 69 60.65625 L 57.34375 49 L 69 37.34375 L 59.65625 28 L 48 39.65625 L 36.34375 28 z "
       style="opacity:0.15;fill:#000000;fill-opacity:1;stroke:none;display:inline"
       id="path3730"
       d="M 36.21875,27 A 0.99834447,0.99834447 0 0 0 35.625,27.28125 L 26.28125,36.625 a 0.99834447,0.99834447 0 0 0 0,1.4375 L 37.21875,49 26.28125,59.9375 a 0.99834447,0.99834447 0 0 0 0,1.4375 l 9.34375,9.34375 a 0.99834447,0.99834447 0 0 0 1.4375,0 L 48,59.78125 58.9375,70.71875 a 0.99834447,0.99834447 0 0 0 1.4375,0 L 69.71875,61.375 a 0.99834447,0.99834447 0 0 0 0,-1.4375 L 58.78125,49 69.71875,38.0625 a 0.99834447,0.99834447 0 0 0 0,-1.4375 L 60.375,27.28125 a 0.99834447,0.99834447 0 0 0 -1.4375,0 L 48,38.21875 37.0625,27.28125 A 0.99834447,0.99834447 0 0 0 36.21875,27 z" />
    <path
       inkscape:connector-curvature="0"
       style="opacity:0.3;fill:#000000;fill-opacity:1;stroke:none;display:inline"
       d="M 26.999999,60.666667 36.333333,70 48,58.333333 59.666667,70 69,60.666667 57.333333,49 69,37.333333 59.666667,28 48,39.666667 36.333333,28 26.999999,37.333333 38.666667,49 26.999999,60.666667 z"
       id="path3724" />
    <path
       inkscape:connector-curvature="0"
       id="path2929"
       d="M 26.999999,59.666667 36.333333,69 48,57.333333 59.666667,69 69,59.666667 57.333333,48 69,36.333333 59.666667,27 48,38.666667 36.333333,27 26.999999,36.333333 38.666667,48 26.999999,59.666667 z"
       style="fill:url(#linearGradient3702);fill-opacity:1;stroke:none;display:inline" />
    <path
       inkscape:connector-curvature="0"
       style="opacity:0.75;fill:#ffffff;fill-opacity:1;stroke:none;display:inline"
       d="m 36.34375,27 -9.343751,9.34375 0.5,0.5 L 36.34375,28 48,39.65625 59.65625,28 68.5,36.84375 69,36.34375 59.65625,27 48,38.65625 36.34375,27 z m 1.8125,21.5 -11.156251,11.15625 0.5,0.5 L 38.65625,49 l -0.5,-0.5 z m 19.6875,0 -0.5,0.5 L 68.5,60.15625 69,59.65625 57.84375,48.5 z"
       id="path3704" />
    <path
       inkscape:connector-curvature="0"
       style="opacity:0.15;fill:#000000;fill-opacity:1;stroke:none;display:inline"
       d="m 27.499999,35.84375 -0.5,0.5 L 38.15625,47.5 38.65625,47 27.499999,35.84375 z M 68.5,35.84375 57.34375,47 l 0.5,0.5 L 69,36.34375 l -0.5,-0.5 z M 48,56.34375 36.34375,68 l -8.843751,-8.84375 -0.5,0.5 L 36.34375,69 48,57.34375 59.65625,69 69,59.65625 68.5,59.15625 59.65625,68 48,56.34375 z"
       id="path3714" />
  </g>
</svg>
