<?xml version="1.0" encoding="UTF-8" standalone="no"?>
<!-- Created with Inkscape (http://www.inkscape.org/) -->

<svg
   xmlns:dc="http://purl.org/dc/elements/1.1/"
   xmlns:cc="http://creativecommons.org/ns#"
   xmlns:rdf="http://www.w3.org/1999/02/22-rdf-syntax-ns#"
   xmlns:svg="http://www.w3.org/2000/svg"
   xmlns="http://www.w3.org/2000/svg"
   xmlns:xlink="http://www.w3.org/1999/xlink"
   xmlns:sodipodi="http://sodipodi.sourceforge.net/DTD/sodipodi-0.dtd"
   xmlns:inkscape="http://www.inkscape.org/namespaces/inkscape"
   width="96"
   height="96"
   id="svg2408"
   sodipodi:version="0.32"
   inkscape:version="0.48.0 r9654"
   version="1.0"
   sodipodi:docname="document-new.svg"
   inkscape:output_extension="org.inkscape.output.svg.inkscape">
  <defs
     id="defs2410">
    <linearGradient
       id="linearGradient3637">
      <stop
         style="stop-color:#f0f0f0;stop-opacity:1;"
         offset="0"
         id="stop3639" />
      <stop
         style="stop-color:#aaaaaa;stop-opacity:1;"
         offset="1"
         id="stop3641" />
    </linearGradient>
    <linearGradient
       id="ButtonShadow"
       gradientTransform="scale(1.0058652,0.994169)"
       x1="45.447727"
       y1="92.539597"
       x2="45.447727"
       y2="7.0165396"
       gradientUnits="userSpaceOnUse">
      <stop
         style="stop-color:#000000;stop-opacity:1;"
         offset="0"
         id="stop3750" />
      <stop
         style="stop-color:#000000;stop-opacity:0.58823532;"
         offset="1"
         id="stop3752" />
    </linearGradient>
    <linearGradient
       inkscape:collect="always"
       id="linearGradient3737">
      <stop
         style="stop-color:#ffffff;stop-opacity:1;"
         offset="0"
         id="stop3739" />
      <stop
         style="stop-color:#ffffff;stop-opacity:0;"
         offset="1"
         id="stop3741" />
    </linearGradient>
    <linearGradient
       id="linearGradient3700">
      <stop
         style="stop-color:#2276c5;stop-opacity:1;"
         offset="0"
         id="stop3702" />
      <stop
         style="stop-color:#68baf4;stop-opacity:1;"
         offset="1"
         id="stop3704" />
    </linearGradient>
    <filter
       inkscape:collect="always"
       id="filter3174">
      <feGaussianBlur
         inkscape:collect="always"
         stdDeviation="1.71"
         id="feGaussianBlur3176" />
    </filter>
    <linearGradient
       inkscape:collect="always"
       xlink:href="#linearGradient3737"
       id="linearGradient3188"
       gradientUnits="userSpaceOnUse"
       x1="36.357143"
       y1="6"
       x2="36.357143"
       y2="63.893143" />
    <filter
       inkscape:collect="always"
       id="filter3794"
       x="-0.192"
       width="1.384"
       y="-0.192"
       height="1.384">
      <feGaussianBlur
         inkscape:collect="always"
         stdDeviation="5.28"
         id="feGaussianBlur3796" />
    </filter>
    <linearGradient
       inkscape:collect="always"
       xlink:href="#linearGradient3737"
       id="linearGradient3613"
       x1="48"
       y1="20.220806"
       x2="48"
       y2="138.66119"
       gradientUnits="userSpaceOnUse" />
    <radialGradient
       inkscape:collect="always"
       xlink:href="#linearGradient3737"
       id="radialGradient3619"
       cx="48"
       cy="90.171875"
       fx="48"
       fy="90.171875"
       r="42"
       gradientTransform="matrix(1.1573129,0,0,0.99590774,-7.5510206,0.19713193)"
       gradientUnits="userSpaceOnUse" />
    <clipPath
       clipPathUnits="userSpaceOnUse"
       id="clipPath3613">
      <rect
         ry="6"
         rx="6"
         y="6"
         x="6"
         height="84"
         width="84"
         id="rect3615"
         style="fill:#ffffff;fill-opacity:1;fill-rule:nonzero;stroke:none" />
    </clipPath>
    <linearGradient
       inkscape:collect="always"
       xlink:href="#linearGradient3700"
       id="linearGradient2843"
       gradientUnits="userSpaceOnUse"
       x1="48"
       y1="90"
       x2="48"
       y2="5.9877172"
       gradientTransform="translate(0,100)" />
    <clipPath
       clipPathUnits="userSpaceOnUse"
       id="clipPath3625">
      <path
         style="fill:#ffffff;fill-opacity:1;stroke:none"
         d="M 0,0 0,96 96,96 96,0 0,0 z m 12,6 72,0 c 3.324,0 6,2.676 6,6 l 0,72 c 0,3.324 -2.676,6 -6,6 L 12,90 C 8.676,90 6,87.324 6,84 L 6,12 C 6,8.676 8.676,6 12,6 z"
         id="path3627" />
    </clipPath>
    <linearGradient
       inkscape:collect="always"
       xlink:href="#linearGradient3637"
       id="linearGradient3643"
       x1="44.512066"
       y1="6"
       x2="44.512066"
       y2="90.015434"
       gradientUnits="userSpaceOnUse" />
    <clipPath
       clipPathUnits="userSpaceOnUse"
       id="clipPath3649">
      <rect
         style="fill:#ffffff;fill-opacity:1;fill-rule:nonzero;stroke:none"
         id="rect3651"
         width="76"
         height="76"
         x="10"
         y="10"
         rx="4"
         ry="4" />
    </clipPath>
    <filter
       inkscape:collect="always"
       id="filter3657">
      <feGaussianBlur
         inkscape:collect="always"
         stdDeviation="1.14"
         id="feGaussianBlur3659" />
    </filter>
    <linearGradient
       id="ButtonShadow-0"
       gradientTransform="matrix(1.0058652,0,0,0.994169,100,0)"
       x1="45.447727"
       y1="92.539597"
       x2="45.447727"
       y2="7.0165396"
       gradientUnits="userSpaceOnUse">
      <stop
         style="stop-color:#000000;stop-opacity:1;"
         offset="0"
         id="stop3750-8" />
      <stop
         style="stop-color:#000000;stop-opacity:0.58823532;"
         offset="1"
         id="stop3752-5" />
    </linearGradient>
    <linearGradient
       inkscape:collect="always"
       xlink:href="#ButtonShadow-0"
       id="linearGradient3780"
       gradientUnits="userSpaceOnUse"
       gradientTransform="matrix(1.0238095,0,0,-1.0119048,-1.1428571,98.071429)"
       x1="32.251034"
       y1="6.1317081"
       x2="32.251034"
       y2="90.238609" />
    <linearGradient
       inkscape:collect="always"
       xlink:href="#ButtonShadow-0"
       id="linearGradient3772"
       gradientUnits="userSpaceOnUse"
       gradientTransform="matrix(1.0238095,0,0,-1.0119048,-1.1428571,98.071429)"
       x1="32.251034"
       y1="6.1317081"
       x2="32.251034"
       y2="90.238609" />
    <linearGradient
       inkscape:collect="always"
       xlink:href="#ButtonShadow-0"
       id="linearGradient3725"
       gradientUnits="userSpaceOnUse"
       gradientTransform="matrix(1.0238095,0,0,-1.0119048,-1.1428571,98.071429)"
       x1="32.251034"
       y1="6.1317081"
       x2="32.251034"
       y2="90.238609" />
    <linearGradient
       inkscape:collect="always"
       xlink:href="#ButtonShadow-0"
       id="linearGradient3721"
       gradientUnits="userSpaceOnUse"
       gradientTransform="matrix(1,0,0,-1,0,97)"
       x1="32.251034"
       y1="6.1317081"
       x2="32.251034"
       y2="90.238609" />
    <linearGradient
       y2="90.238609"
       x2="32.251034"
       y1="6.1317081"
       x1="32.251034"
       gradientTransform="matrix(1.0238095,0,0,-1.0119048,-1.1428571,98.071429)"
       gradientUnits="userSpaceOnUse"
       id="linearGradient3199"
       xlink:href="#ButtonShadow-0"
       inkscape:collect="always" />
    <linearGradient
       inkscape:collect="always"
       xlink:href="#linearGradient3737-3"
       id="linearGradient3188-8"
       gradientUnits="userSpaceOnUse"
       x1="36.357143"
       y1="6"
       x2="36.357143"
       y2="63.893143" />
    <linearGradient
       inkscape:collect="always"
       id="linearGradient3737-3">
      <stop
         style="stop-color:#ffffff;stop-opacity:1;"
         offset="0"
         id="stop3739-6" />
      <stop
         style="stop-color:#ffffff;stop-opacity:0;"
         offset="1"
         id="stop3741-1" />
    </linearGradient>
    <radialGradient
       inkscape:collect="always"
       xlink:href="#linearGradient3737-3"
       id="radialGradient3619-3"
       cx="48"
       cy="90.171875"
       fx="48"
       fy="90.171875"
       r="42"
       gradientTransform="matrix(1.1573129,0,0,0.99590774,-7.551021,0.1971319)"
       gradientUnits="userSpaceOnUse" />
    <linearGradient
       inkscape:collect="always"
       xlink:href="#linearGradient3637"
       id="linearGradient3905"
       x1="104"
       y1="8"
       x2="120"
       y2="8"
       gradientUnits="userSpaceOnUse"
       gradientTransform="translate(-104,104)" />
    <linearGradient
       inkscape:collect="always"
       xlink:href="#linearGradient3183-0"
       id="linearGradient3913"
       gradientUnits="userSpaceOnUse"
       gradientTransform="translate(-144,104)"
       x1="104"
       y1="8"
       x2="120"
       y2="8" />
    <linearGradient
       y2="11.015625"
       x2="19"
       y1="11.015625"
       x1="11"
       gradientTransform="matrix(0,-3.0000004,2.9652505,0,33.335916,111.00001)"
       gradientUnits="userSpaceOnUse"
       id="linearGradient2927-4"
       xlink:href="#linearGradient3183-0"
       inkscape:collect="always" />
    <linearGradient
       id="linearGradient3183-0">
      <stop
         style="stop-color:#c80000;stop-opacity:1;"
         offset="0"
         id="stop3185-9" />
      <stop
         style="stop-color:#f3604d;stop-opacity:1;"
         offset="1"
         id="stop3187-6" />
    </linearGradient>
    <linearGradient
       inkscape:collect="always"
       xlink:href="#linearGradient3637"
       id="linearGradient3879"
       x1="45"
       y1="24"
       x2="45"
       y2="76"
       gradientUnits="userSpaceOnUse" />
    <linearGradient
       inkscape:collect="always"
       xlink:href="#linearGradient3637"
       id="linearGradient3885"
       gradientUnits="userSpaceOnUse"
       x1="45"
       y1="24"
       x2="45"
       y2="76"
       gradientTransform="translate(0,1)" />
    <linearGradient
       inkscape:collect="always"
       xlink:href="#linearGradient3637"
       id="linearGradient3887"
       gradientUnits="userSpaceOnUse"
       x1="45"
       y1="24"
       x2="45"
       y2="76" />
    <linearGradient
       inkscape:collect="always"
       xlink:href="#linearGradient3637"
       id="linearGradient3894"
       gradientUnits="userSpaceOnUse"
       x1="45"
       y1="24"
       x2="45"
       y2="76"
       gradientTransform="translate(0,-1)" />
    <linearGradient
       inkscape:collect="always"
       xlink:href="#linearGradient3637"
       id="linearGradient3896"
       gradientUnits="userSpaceOnUse"
       x1="45"
       y1="24"
       x2="45"
       y2="76" />
    <linearGradient
       inkscape:collect="always"
       xlink:href="#linearGradient3637"
       id="linearGradient3901"
       gradientUnits="userSpaceOnUse"
       x1="45"
       y1="24"
       x2="45"
       y2="76" />
  </defs>
  <sodipodi:namedview
     id="base"
     pagecolor="#ffffff"
     bordercolor="#666666"
     borderopacity="1.0"
     inkscape:pageopacity="0.0"
     inkscape:pageshadow="2"
     inkscape:zoom="9.1611685"
     inkscape:cx="64.671626"
     inkscape:cy="41.043799"
     inkscape:document-units="px"
     inkscape:current-layer="layer6"
     showgrid="true"
     showborder="true"
     inkscape:showpageshadow="false"
     inkscape:window-width="1920"
     inkscape:window-height="1029"
     inkscape:window-x="0"
     inkscape:window-y="25"
     inkscape:window-maximized="1"
     inkscape:snap-global="true">
    <inkscape:grid
       type="xygrid"
       id="grid3732"
       visible="true"
       enabled="true" />
  </sodipodi:namedview>
  <metadata
     id="metadata2413">
    <rdf:RDF>
      <cc:Work
         rdf:about="">
        <dc:format>image/svg+xml</dc:format>
        <dc:type
           rdf:resource="http://purl.org/dc/dcmitype/StillImage" />
        <dc:title></dc:title>
      </cc:Work>
    </rdf:RDF>
  </metadata>
  <g
     inkscape:groupmode="layer"
     id="layer2"
     inkscape:label="Blur Shadow"
     style="display:none"
     sodipodi:insensitive="true">
    <rect
       style="opacity:0.9;fill:url(#ButtonShadow);fill-opacity:1;fill-rule:nonzero;stroke:none;filter:url(#filter3174)"
       id="rect3745"
       width="86"
       height="85"
       x="5"
       y="7"
       rx="6"
       ry="6"
       clip-path="url(#clipPath3625)" />
  </g>
  <g
     inkscape:groupmode="layer"
     id="layer3"
     inkscape:label="Shadow"
     sodipodi:insensitive="true">
    <path
       style="opacity:0.07999998;fill:url(#linearGradient3199);fill-opacity:1;fill-rule:nonzero;stroke:none;display:inline"
       d="M 12,3.96875 C 6.4889098,3.96875 1.96875,8.4889098 1.96875,14 l 0,71 c 0,5.51109 4.5201597,10.03125 10.03125,10.03125 l 72,0 c 5.51109,0 10.03125,-4.52016 10.03125,-10.03125 l 0,-71 C 94.03125,8.4889097 89.51109,3.96875 84,3.96875 l -72,0 z M 12,6 84,6 c 3.324,0 6,2.676 6,6 l 0,72 c 0,3.324 -2.676,6 -6,6 L 12,90 C 8.676,90 6,87.324 6,84 L 6,12 C 6,8.676 8.676,6 12,6 z"
       id="path3786"
       inkscape:connector-curvature="0" />
    <path
       style="opacity:0.1;fill:url(#linearGradient3780);fill-opacity:1;fill-rule:nonzero;stroke:none;display:inline"
       d="M 12,4.96875 C 7.0283671,4.96875 2.96875,9.0283671 2.96875,14 l 0,71 c 0,4.971633 4.059617,9.03125 9.03125,9.03125 l 72,0 c 4.971633,0 9.03125,-4.059617 9.03125,-9.03125 l 0,-71 C 93.03125,9.028367 88.971633,4.96875 84,4.96875 l -72,0 z M 12,6 84,6 c 3.324,0 6,2.676 6,6 l 0,72 c 0,3.324 -2.676,6 -6,6 L 12,90 C 8.676,90 6,87.324 6,84 L 6,12 C 6,8.676 8.676,6 12,6 z"
       id="path3778"
       inkscape:connector-curvature="0" />
    <path
       style="opacity:0.2;fill:url(#linearGradient3772);fill-opacity:1;fill-rule:nonzero;stroke:none;display:inline"
       d="M 11.1875,6.03125 C 7.159982,6.4419011 4,9.8664375 4,14 l 0,71 c 0,4.409133 3.590867,8 8,8 l 72,0 c 4.409133,0 8,-3.590867 8,-8 L 92,14 C 92,9.8029382 88.741028,6.3539584 84.625,6.03125 87.657886,6.337417 90,8.88375 90,12 l 0,72 c 0,3.324 -2.676,6 -6,6 L 12,90 C 8.676,90 6,87.324 6,84 L 6,12 c 0,-3.11625 2.342114,-5.662583 5.375,-5.96875 -0.06227,0.00488 -0.12563,-0.00631 -0.1875,0 z"
       id="path3770"
       inkscape:connector-curvature="0" />
    <path
       style="opacity:0.3;fill:url(#linearGradient3725);fill-opacity:1;fill-rule:nonzero;stroke:none;display:inline"
       d="M 6.4375,9.75 C 5.5380109,10.927446 5,12.397277 5,14 l 0,71 c 0,3.878 3.122,7 7,7 l 72,0 c 3.878,0 7,-3.122 7,-7 L 91,14 C 91,12.397277 90.461989,10.927446 89.5625,9.75 89.841816,10.444095 90,11.203625 90,12 l 0,72 c 0,3.324 -2.676,6 -6,6 L 12,90 C 8.676,90 6,87.324 6,84 L 6,12 C 6,11.203625 6.1581836,10.444095 6.4375,9.75 z"
       id="rect3723"
       inkscape:connector-curvature="0" />
    <path
       style="opacity:0.45;fill:url(#linearGradient3721);fill-opacity:1;fill-rule:nonzero;stroke:none;display:inline"
       d="m 6,84 0,1 c 0,3.324 2.676,6 6,6 l 72,0 c 3.324,0 6,-2.676 6,-6 l 0,-1 c 0,3.324 -2.676,6 -6,6 L 12,90 C 8.676,90 6,87.324 6,84 z"
       id="rect3716"
       inkscape:connector-curvature="0" />
  </g>
  <g
     inkscape:label="Button with border"
     inkscape:groupmode="layer"
     id="layer1"
     sodipodi:insensitive="true"
     style="display:none">
    <rect
       style="opacity:0.8;fill:#000000;fill-opacity:1;fill-rule:nonzero;stroke:none"
       id="rect2419"
       width="84"
       height="84"
       x="6"
       y="6"
       rx="6"
       ry="6" />
    <path
       style="opacity:0.07999998;fill:#000000;fill-opacity:1;fill-rule:nonzero;stroke:none"
       d="m 14,10 c -2.216,0 -4,1.784 -4,4 l 0,68 c 0,2.216 1.784,4 4,4 l 68,0 c 2.216,0 4,-1.784 4,-4 l 0,-68 c 0,-2.216 -1.784,-4 -4,-4 l -68,0 z m 0,3.0625 68,0 c 0.578769,0 0.9375,0.358731 0.9375,0.9375 l 0,68 c 0,0.578769 -0.358731,0.9375 -0.9375,0.9375 l -68,0 c -0.578769,0 -0.9375,-0.358731 -0.9375,-0.9375 l 0,-68 c 0,-0.578769 0.358731,-0.9375 0.9375,-0.9375 z"
       id="rect3726"
       inkscape:connector-curvature="0" />
    <path
       style="fill:url(#linearGradient3643);fill-opacity:1;fill-rule:nonzero;stroke:none"
       d="M 12,6 C 8.676,6 6,8.676 6,12 l 0,72 c 0,3.324 2.676,6 6,6 l 72,0 c 3.324,0 6,-2.676 6,-6 L 90,12 C 90,8.676 87.324,6 84,6 L 12,6 z m 2,4 68,0 c 2.216,0 4,1.784 4,4 l 0,68 c 0,2.216 -1.784,4 -4,4 l -68,0 c -2.216,0 -4,-1.784 -4,-4 l 0,-68 c 0,-2.216 1.784,-4 4,-4 z"
       id="rect3629"
       inkscape:connector-curvature="0" />
    <path
       style="fill:url(#linearGradient3188);fill-opacity:1;fill-rule:nonzero;stroke:none"
       d="M 12,6 C 8.676,6 6,8.676 6,12 l 0,2 0,68 0,2 c 0,0.334721 0.04135,0.6507 0.09375,0.96875 0.0487,0.295596 0.09704,0.596915 0.1875,0.875 0.00988,0.03038 0.020892,0.0636 0.03125,0.09375 0.098865,0.287771 0.2348802,0.547452 0.375,0.8125 0.1445918,0.273507 0.3156161,0.535615 0.5,0.78125 0.1843839,0.245635 0.3737765,0.473472 0.59375,0.6875 0.439947,0.428056 0.94291,0.814526 1.5,1.09375 0.278545,0.139612 0.5734731,0.246947 0.875,0.34375 -0.2562018,-0.100222 -0.4867109,-0.236272 -0.71875,-0.375 -0.00741,-0.0044 -0.023866,0.0045 -0.03125,0 -0.031933,-0.0193 -0.062293,-0.04251 -0.09375,-0.0625 -0.120395,-0.0767 -0.2310226,-0.163513 -0.34375,-0.25 -0.1061728,-0.0808 -0.2132809,-0.161112 -0.3125,-0.25 C 8.4783201,88.557317 8.3087904,88.373362 8.15625,88.1875 8.0486711,88.057245 7.9378561,87.922215 7.84375,87.78125 7.818661,87.74287 7.805304,87.69538 7.78125,87.65625 7.716487,87.553218 7.6510225,87.451733 7.59375,87.34375 7.4927417,87.149044 7.3880752,86.928049 7.3125,86.71875 7.30454,86.69694 7.288911,86.6782 7.28125,86.65625 7.2494249,86.5643 7.2454455,86.469419 7.21875,86.375 7.1884177,86.268382 7.1483606,86.171969 7.125,86.0625 7.0521214,85.720988 7,85.364295 7,85 L 7,83 7,15 7,13 C 7,10.218152 9.2181517,8 12,8 l 2,0 68,0 2,0 c 2.781848,0 5,2.218152 5,5 l 0,2 0,68 0,2 c 0,0.364295 -0.05212,0.720988 -0.125,1.0625 -0.04415,0.206893 -0.08838,0.397658 -0.15625,0.59375 -0.0077,0.02195 -0.0233,0.04069 -0.03125,0.0625 -0.06274,0.173739 -0.138383,0.367449 -0.21875,0.53125 -0.04158,0.0828 -0.07904,0.169954 -0.125,0.25 -0.0546,0.09721 -0.126774,0.18835 -0.1875,0.28125 -0.09411,0.140965 -0.204921,0.275995 -0.3125,0.40625 -0.143174,0.17445 -0.303141,0.346998 -0.46875,0.5 -0.01117,0.0102 -0.01998,0.02115 -0.03125,0.03125 -0.138386,0.125556 -0.285091,0.234436 -0.4375,0.34375 -0.102571,0.07315 -0.204318,0.153364 -0.3125,0.21875 -0.0074,0.0045 -0.02384,-0.0044 -0.03125,0 -0.232039,0.138728 -0.462548,0.274778 -0.71875,0.375 0.301527,-0.0968 0.596455,-0.204138 0.875,-0.34375 0.55709,-0.279224 1.060053,-0.665694 1.5,-1.09375 0.219973,-0.214028 0.409366,-0.441865 0.59375,-0.6875 0.184384,-0.245635 0.355408,-0.507743 0.5,-0.78125 0.14012,-0.265048 0.276135,-0.524729 0.375,-0.8125 0.01041,-0.03078 0.02133,-0.06274 0.03125,-0.09375 0.09046,-0.278085 0.1388,-0.579404 0.1875,-0.875 C 89.95865,84.6507 90,84.334721 90,84 l 0,-2 0,-68 0,-2 C 90,8.676 87.324,6 84,6 L 12,6 z"
       id="rect3728"
       inkscape:connector-curvature="0" />
    <path
       id="path3615"
       d="M 12,90 C 8.676,90 6,87.324 6,84 L 6,82 6,14 6,12 c 0,-0.334721 0.04135,-0.6507 0.09375,-0.96875 0.0487,-0.295596 0.09704,-0.596915 0.1875,-0.875 C 6.29113,10.12587 6.302142,10.09265 6.3125,10.0625 6.411365,9.774729 6.5473802,9.515048 6.6875,9.25 6.8320918,8.976493 7.0031161,8.714385 7.1875,8.46875 7.3718839,8.223115 7.5612765,7.995278 7.78125,7.78125 8.221197,7.353194 8.72416,6.966724 9.28125,6.6875 9.559795,6.547888 9.8547231,6.440553 10.15625,6.34375 9.9000482,6.443972 9.6695391,6.580022 9.4375,6.71875 c -0.00741,0.0044 -0.023866,-0.0045 -0.03125,0 -0.031933,0.0193 -0.062293,0.04251 -0.09375,0.0625 -0.120395,0.0767 -0.2310226,0.163513 -0.34375,0.25 -0.1061728,0.0808 -0.2132809,0.161112 -0.3125,0.25 C 8.4783201,7.442683 8.3087904,7.626638 8.15625,7.8125 8.0486711,7.942755 7.9378561,8.077785 7.84375,8.21875 7.818661,8.25713 7.805304,8.30462 7.78125,8.34375 7.716487,8.446782 7.6510225,8.548267 7.59375,8.65625 7.4927417,8.850956 7.3880752,9.071951 7.3125,9.28125 7.30454,9.30306 7.288911,9.3218 7.28125,9.34375 7.2494249,9.4357 7.2454455,9.530581 7.21875,9.625 7.1884177,9.731618 7.1483606,9.828031 7.125,9.9375 7.0521214,10.279012 7,10.635705 7,11 l 0,2 0,68 0,2 c 0,2.781848 2.2181517,5 5,5 l 2,0 68,0 2,0 c 2.781848,0 5,-2.218152 5,-5 l 0,-2 0,-68 0,-2 C 89,10.635705 88.94788,10.279012 88.875,9.9375 88.83085,9.730607 88.78662,9.539842 88.71875,9.34375 88.71105,9.3218 88.69545,9.30306 88.6875,9.28125 88.62476,9.107511 88.549117,8.913801 88.46875,8.75 88.42717,8.6672 88.38971,8.580046 88.34375,8.5 88.28915,8.40279 88.216976,8.31165 88.15625,8.21875 88.06214,8.077785 87.951329,7.942755 87.84375,7.8125 87.700576,7.63805 87.540609,7.465502 87.375,7.3125 87.36383,7.3023 87.35502,7.29135 87.34375,7.28125 87.205364,7.155694 87.058659,7.046814 86.90625,6.9375 86.803679,6.86435 86.701932,6.784136 86.59375,6.71875 c -0.0074,-0.0045 -0.02384,0.0044 -0.03125,0 -0.232039,-0.138728 -0.462548,-0.274778 -0.71875,-0.375 0.301527,0.0968 0.596455,0.204138 0.875,0.34375 0.55709,0.279224 1.060053,0.665694 1.5,1.09375 0.219973,0.214028 0.409366,0.441865 0.59375,0.6875 0.184384,0.245635 0.355408,0.507743 0.5,0.78125 0.14012,0.265048 0.276135,0.524729 0.375,0.8125 0.01041,0.03078 0.02133,0.06274 0.03125,0.09375 0.09046,0.278085 0.1388,0.579404 0.1875,0.875 C 89.95865,11.3493 90,11.665279 90,12 l 0,2 0,68 0,2 c 0,3.324 -2.676,6 -6,6 l -72,0 z"
       style="opacity:0.6;fill:url(#radialGradient3619);fill-opacity:1;fill-rule:nonzero;stroke:none"
       inkscape:connector-curvature="0" />
    <rect
       ry="6"
       rx="6"
       y="106"
       x="6"
       height="84"
       width="84"
       id="rect2841"
       style="fill:url(#linearGradient2843);fill-opacity:1;fill-rule:nonzero;stroke:none" />
    <rect
       ry="4"
       rx="4"
       y="110"
       x="10"
       height="76"
       width="76"
       id="rect3634"
       style="fill:#ff0000;fill-opacity:1;fill-rule:nonzero;stroke:none" />
    <path
       style="font-size:medium;font-style:normal;font-variant:normal;font-weight:normal;font-stretch:normal;text-indent:0;text-align:start;text-decoration:none;line-height:normal;letter-spacing:normal;word-spacing:normal;text-transform:none;direction:ltr;block-progression:tb;writing-mode:lr-tb;text-anchor:start;color:#000000;fill:#000000;fill-opacity:1;stroke:none;stroke-width:2;marker:none;visibility:visible;display:inline;overflow:visible;filter:url(#filter3657);enable-background:accumulate;font-family:Abandoned Bitplane;-inkscape-font-specification:Abandoned Bitplane"
       d="m 14,9 c -2.752703,0 -5,2.247297 -5,5 l 0,68 c 0,2.752703 2.247297,5 5,5 l 68,0 c 2.752703,0 5,-2.247297 5,-5 L 87,14 C 87,11.247297 84.752703,9 82,9 L 14,9 z m 0,2 68,0 c 1.679297,0 3,1.320703 3,3 l 0,68 c 0,1.679297 -1.320703,3 -3,3 l -68,0 c -1.679297,0 -3,-1.320703 -3,-3 l 0,-68 c 0,-1.679297 1.320703,-3 3,-3 z"
       clip-path="url(#clipPath3649)"
       id="rect3647"
       transform="translate(-110,0)"
       inkscape:connector-curvature="0" />
    <path
       style="opacity:0.16000001;fill:#000000;fill-opacity:1;fill-rule:nonzero;stroke:none"
       d="m 14.089286,10 c -2.216,0 -4,1.784 -4,4 l 0,68 c 0,2.216 1.784,4 4,4 l 68,0 c 2.216,0 4,-1.784 4,-4 l 0,-68 c 0,-2.216 -1.784,-4 -4,-4 l -68,0 z m 0,2 68,0 c 1.140301,0 2,0.859699 2,2 l 0,68 c 0,1.140301 -0.859699,2 -2,2 l -68,0 c -1.140301,0 -2,-0.859699 -2,-2 l 0,-68 c 0,-1.140301 0.859699,-2 2,-2 z"
       id="path3709"
       inkscape:connector-curvature="0" />
    <path
       style="opacity:0.36000001;fill:#000000;fill-opacity:1;fill-rule:nonzero;stroke:none"
       d="m 14,10 c -2.216,0 -4,1.784 -4,4 l 0,68 c 0,2.216 1.784,4 4,4 l 68,0 c 2.216,0 4,-1.784 4,-4 l 0,-68 c 0,-2.216 -1.784,-4 -4,-4 l -68,0 z m 0,1 68,0 c 1.673848,0 3,1.326152 3,3 l 0,68 c 0,1.673848 -1.326152,3 -3,3 l -68,0 c -1.673848,0 -3,-1.326152 -3,-3 l 0,-68 c 0,-1.673848 1.326152,-3 3,-3 z"
       id="path3707"
       inkscape:connector-curvature="0" />
  </g>
  <g
     inkscape:groupmode="layer"
     id="layer4"
     inkscape:label="Button"
     style="display:inline"
     sodipodi:insensitive="true">
    <rect
       style="opacity:0.6;fill:#000000;fill-opacity:1;fill-rule:nonzero;stroke:none;display:inline"
       id="rect2419-9"
       width="84"
       height="84"
       x="6"
       y="6"
       rx="6"
       ry="6" />
    <path
       style="opacity:0.01000001;fill:url(#linearGradient3188-8);fill-opacity:1;fill-rule:nonzero;stroke:none;display:inline"
       d="M 12,6 C 8.676,6 6,8.676 6,12 l 0,2 0,68 0,2 c 0,0.334721 0.04135,0.6507 0.09375,0.96875 0.0487,0.295596 0.09704,0.596915 0.1875,0.875 0.00988,0.03038 0.020892,0.0636 0.03125,0.09375 0.098865,0.287771 0.2348802,0.547452 0.375,0.8125 0.1445918,0.273507 0.3156161,0.535615 0.5,0.78125 0.1843839,0.245635 0.3737765,0.473472 0.59375,0.6875 0.439947,0.428056 0.94291,0.814526 1.5,1.09375 0.278545,0.139612 0.5734731,0.246947 0.875,0.34375 -0.2562018,-0.100222 -0.4867109,-0.236272 -0.71875,-0.375 -0.00741,-0.0044 -0.023866,0.0045 -0.03125,0 -0.031933,-0.0193 -0.062293,-0.04251 -0.09375,-0.0625 -0.120395,-0.0767 -0.2310226,-0.163513 -0.34375,-0.25 -0.1061728,-0.0808 -0.2132809,-0.161112 -0.3125,-0.25 C 8.4783201,88.557317 8.3087904,88.373362 8.15625,88.1875 8.0486711,88.057245 7.9378561,87.922215 7.84375,87.78125 7.818661,87.74287 7.805304,87.69538 7.78125,87.65625 7.716487,87.553218 7.6510225,87.451733 7.59375,87.34375 7.4927417,87.149044 7.3880752,86.928049 7.3125,86.71875 7.30454,86.69694 7.288911,86.6782 7.28125,86.65625 7.2494249,86.5643 7.2454455,86.469419 7.21875,86.375 7.1884177,86.268382 7.1483606,86.171969 7.125,86.0625 7.0521214,85.720988 7,85.364295 7,85 L 7,83 7,15 7,13 C 7,10.218152 9.2181517,8 12,8 l 2,0 68,0 2,0 c 2.781848,0 5,2.218152 5,5 l 0,2 0,68 0,2 c 0,0.364295 -0.05212,0.720988 -0.125,1.0625 -0.04415,0.206893 -0.08838,0.397658 -0.15625,0.59375 -0.0077,0.02195 -0.0233,0.04069 -0.03125,0.0625 -0.06274,0.173739 -0.138383,0.367449 -0.21875,0.53125 -0.04158,0.0828 -0.07904,0.169954 -0.125,0.25 -0.0546,0.09721 -0.126774,0.18835 -0.1875,0.28125 -0.09411,0.140965 -0.204921,0.275995 -0.3125,0.40625 -0.143174,0.17445 -0.303141,0.346998 -0.46875,0.5 -0.01117,0.0102 -0.01998,0.02115 -0.03125,0.03125 -0.138386,0.125556 -0.285091,0.234436 -0.4375,0.34375 -0.102571,0.07315 -0.204318,0.153364 -0.3125,0.21875 -0.0074,0.0045 -0.02384,-0.0044 -0.03125,0 -0.232039,0.138728 -0.462548,0.274778 -0.71875,0.375 0.301527,-0.0968 0.596455,-0.204138 0.875,-0.34375 0.55709,-0.279224 1.060053,-0.665694 1.5,-1.09375 0.219973,-0.214028 0.409366,-0.441865 0.59375,-0.6875 0.184384,-0.245635 0.355408,-0.507743 0.5,-0.78125 0.14012,-0.265048 0.276135,-0.524729 0.375,-0.8125 0.01041,-0.03078 0.02133,-0.06274 0.03125,-0.09375 0.09046,-0.278085 0.1388,-0.579404 0.1875,-0.875 C 89.95865,84.6507 90,84.334721 90,84 l 0,-2 0,-68 0,-2 C 90,8.676 87.324,6 84,6 L 12,6 z"
       id="rect3728-4"
       inkscape:connector-curvature="0" />
    <path
       id="path3615-6"
       d="M 12,90 C 8.676,90 6,87.324 6,84 L 6,82 6,14 6,12 c 0,-0.334721 0.04135,-0.6507 0.09375,-0.96875 0.0487,-0.295596 0.09704,-0.596915 0.1875,-0.875 C 6.29113,10.12587 6.302142,10.09265 6.3125,10.0625 6.411365,9.774729 6.5473802,9.515048 6.6875,9.25 6.8320918,8.976493 7.0031161,8.714385 7.1875,8.46875 7.3718839,8.223115 7.5612765,7.995278 7.78125,7.78125 8.221197,7.353194 8.72416,6.966724 9.28125,6.6875 9.559795,6.547888 9.8547231,6.440553 10.15625,6.34375 9.9000482,6.443972 9.6695391,6.580022 9.4375,6.71875 c -0.00741,0.0044 -0.023866,-0.0045 -0.03125,0 -0.031933,0.0193 -0.062293,0.04251 -0.09375,0.0625 -0.120395,0.0767 -0.2310226,0.163513 -0.34375,0.25 -0.1061728,0.0808 -0.2132809,0.161112 -0.3125,0.25 C 8.4783201,7.442683 8.3087904,7.626638 8.15625,7.8125 8.0486711,7.942755 7.9378561,8.077785 7.84375,8.21875 7.818661,8.25713 7.805304,8.30462 7.78125,8.34375 7.716487,8.446782 7.6510225,8.548267 7.59375,8.65625 7.4927417,8.850956 7.3880752,9.071951 7.3125,9.28125 7.30454,9.30306 7.288911,9.3218 7.28125,9.34375 7.2494249,9.4357 7.2454455,9.530581 7.21875,9.625 7.1884177,9.731618 7.1483606,9.828031 7.125,9.9375 7.0521214,10.279012 7,10.635705 7,11 l 0,2 0,68 0,2 c 0,2.781848 2.2181517,5 5,5 l 2,0 68,0 2,0 c 2.781848,0 5,-2.218152 5,-5 l 0,-2 0,-68 0,-2 C 89,10.635705 88.94788,10.279012 88.875,9.9375 88.83085,9.730607 88.78662,9.539842 88.71875,9.34375 88.71105,9.3218 88.69545,9.30306 88.6875,9.28125 88.62476,9.107511 88.549117,8.913801 88.46875,8.75 88.42717,8.6672 88.38971,8.580046 88.34375,8.5 88.28915,8.40279 88.216976,8.31165 88.15625,8.21875 88.06214,8.077785 87.951329,7.942755 87.84375,7.8125 87.700576,7.63805 87.540609,7.465502 87.375,7.3125 87.36383,7.3023 87.35502,7.29135 87.34375,7.28125 87.205364,7.155694 87.058659,7.046814 86.90625,6.9375 86.803679,6.86435 86.701932,6.784136 86.59375,6.71875 c -0.0074,-0.0045 -0.02384,0.0044 -0.03125,0 -0.232039,-0.138728 -0.462548,-0.274778 -0.71875,-0.375 0.301527,0.0968 0.596455,0.204138 0.875,0.34375 0.55709,0.279224 1.060053,0.665694 1.5,1.09375 0.219973,0.214028 0.409366,0.441865 0.59375,0.6875 0.184384,0.245635 0.355408,0.507743 0.5,0.78125 0.14012,0.265048 0.276135,0.524729 0.375,0.8125 0.01041,0.03078 0.02133,0.06274 0.03125,0.09375 0.09046,0.278085 0.1388,0.579404 0.1875,0.875 C 89.95865,11.3493 90,11.665279 90,12 l 0,2 0,68 0,2 c 0,3.324 -2.676,6 -6,6 l -72,0 z"
       style="opacity:0.15;fill:url(#radialGradient3619-3);fill-opacity:1;fill-rule:nonzero;stroke:none;display:inline"
       inkscape:connector-curvature="0" />
  </g>
  <g
     inkscape:groupmode="layer"
     id="layer5"
     inkscape:label="Highlight"
     sodipodi:insensitive="true"
     style="display:none">
    <rect
       style="opacity:0.1;fill:url(#linearGradient3613);fill-opacity:1;fill-rule:nonzero;stroke:#ffffff;stroke-width:0.5;stroke-linecap:round;stroke-linejoin:miter;stroke-miterlimit:4;stroke-opacity:1;stroke-dasharray:none;stroke-dashoffset:0;filter:url(#filter3794)"
       id="rect3171"
       width="66"
       height="66"
       x="15"
       y="15"
       rx="12"
       ry="12"
       clip-path="url(#clipPath3613)" />
  </g>
  <g
     inkscape:groupmode="layer"
     id="layer6"
     inkscape:label="Symbol"
     style="display:inline">
    <path
       sodipodi:type="inkscape:offset"
       inkscape:radius="0.94446909"
       inkscape:original="M 33.5 22.875 C 30.963553 22.875 28.875 24.963553 28.875 27.5 L 28.875 50 A 1.1132923 1.1132923 0 0 0 29.46875 51 A 1.1132923 1.1132923 0 0 0 28.875 52 L 28.875 58.875 L 22 58.875 A 1.1132923 1.1132923 0 0 0 20.875 60 L 20.875 68 A 1.1132923 1.1132923 0 0 0 22 69.125 L 28.875 69.125 L 28.875 76 A 1.1132923 1.1132923 0 0 0 30 77.125 L 38 77.125 A 1.1132923 1.1132923 0 0 0 39.125 76 L 39.125 69.125 L 46 69.125 A 1.1132923 1.1132923 0 0 0 47 68.53125 A 1.1132923 1.1132923 0 0 0 48 69.125 L 62.5 69.125 C 65.036447 69.125 67.125 67.036447 67.125 64.5 L 67.125 27.5 C 67.125 24.963553 65.036447 22.875 62.5 22.875 L 33.5 22.875 z M 38 31.125 L 58 31.125 C 58.510553 31.125 58.875 31.489447 58.875 32 L 58.875 60 C 58.875 60.510553 58.510553 60.875 58 60.875 L 48 60.875 A 1.1132923 1.1132923 0 0 0 47.125 61.3125 L 47.125 60 A 1.1132923 1.1132923 0 0 0 46 58.875 L 39.125 58.875 L 39.125 52 A 1.1132923 1.1132923 0 0 0 38 50.875 L 36.6875 50.875 A 1.1132923 1.1132923 0 0 0 37.125 50 L 37.125 32 C 37.125 31.489447 37.489447 31.125 38 31.125 z "
       style="opacity:0.1;color:#000000;fill:#000000;fill-opacity:1;fill-rule:nonzero;stroke:none;stroke-width:2;marker:none;visibility:visible;display:inline;overflow:visible;enable-background:accumulate"
       id="path3914"
       d="m 33.5,21.9375 c -3.054908,0 -5.5625,2.507592 -5.5625,5.5625 l 0,22.5 c -5.3e-5,0.0039 -2.12e-4,0.12114 0,0.125 2.12e-4,0.0039 -4.77e-4,0.152414 0,0.15625 4.77e-4,0.0038 0.03051,0.121205 0.03125,0.125 7.39e-4,0.0038 0.03025,0.121265 0.03125,0.125 9.98e-4,0.0037 0.03,0.152592 0.03125,0.15625 0.0013,0.0037 0.061,0.121437 0.0625,0.125 0.0015,0.0036 0.06076,0.121548 0.0625,0.125 8.7e-4,0.0017 0.01473,0.03236 0.03125,0.0625 -0.01652,0.03014 -0.03038,0.06077 -0.03125,0.0625 -0.0017,0.0035 -0.061,0.121437 -0.0625,0.125 -0.0015,0.0036 -0.06125,0.121342 -0.0625,0.125 -0.0013,0.0037 -0.03025,0.152515 -0.03125,0.15625 -9.98e-4,0.0037 -0.03051,0.121205 -0.03125,0.125 -7.39e-4,0.0038 -0.03077,0.121164 -0.03125,0.125 -4.77e-4,0.0038 2.12e-4,0.15239 0,0.15625 -2.12e-4,0.0039 -5.3e-5,0.121135 0,0.125 l 0,5.9375 -5.9375,0 c -0.0028,-3e-5 -0.09095,-1.1e-4 -0.09375,0 -0.0028,1.1e-4 -0.09096,-2.49e-4 -0.09375,0 -0.0028,2.49e-4 -0.09098,-3.87e-4 -0.09375,0 -0.0028,3.87e-4 -0.12225,0.03073 -0.125,0.03125 C 21.591,57.969274 21.502721,57.99934 21.5,58 c -0.0027,6.6e-4 -0.09107,-7.95e-4 -0.09375,0 -0.0027,7.95e-4 -0.09111,0.03032 -0.09375,0.03125 -0.0026,9.27e-4 -0.09116,0.06144 -0.09375,0.0625 -0.0026,0.0011 -0.09121,0.03007 -0.09375,0.03125 -0.0025,0.0012 -0.09128,0.02994 -0.09375,0.03125 -0.0025,0.0013 -0.09134,0.06107 -0.09375,0.0625 -0.0024,0.0014 -0.09142,0.06095 -0.09375,0.0625 -0.0023,0.0015 -0.06025,0.06084 -0.0625,0.0625 -0.0023,0.0017 -0.09158,0.06073 -0.09375,0.0625 -0.0022,0.0018 -0.09167,0.06062 -0.09375,0.0625 -0.0021,0.0019 -0.06052,0.06052 -0.0625,0.0625 -0.002,0.002 -0.06062,0.06042 -0.0625,0.0625 -0.0019,0.0021 -0.06073,0.09158 -0.0625,0.09375 -0.0018,0.0022 -0.06084,0.0915 -0.0625,0.09375 -0.0017,0.0023 -0.06095,0.06017 -0.0625,0.0625 -0.0015,0.0023 -0.06107,0.09134 -0.0625,0.09375 -0.0014,0.0024 -0.06119,0.09128 -0.0625,0.09375 -0.0013,0.0025 -0.03007,0.09121 -0.03125,0.09375 -0.0012,0.0025 -0.03019,0.09116 -0.03125,0.09375 -0.0011,0.0026 -0.06157,0.09111 -0.0625,0.09375 -9.27e-4,0.0026 -0.03045,0.09107 -0.03125,0.09375 -7.95e-4,0.0027 6.6e-4,0.09103 0,0.09375 -6.6e-4,0.0027 -0.03073,0.091 -0.03125,0.09375 -5.24e-4,0.0027 -0.03086,0.122227 -0.03125,0.125 -3.87e-4,0.0028 2.49e-4,0.09096 0,0.09375 -2.49e-4,0.0028 1.1e-4,0.09095 0,0.09375 -1.1e-4,0.0028 -3e-5,0.09095 0,0.09375 l 0,8 c -3e-5,0.0028 -1.1e-4,0.09095 0,0.09375 1.1e-4,0.0028 -2.49e-4,0.09096 0,0.09375 2.49e-4,0.0028 -3.87e-4,0.09098 0,0.09375 3.87e-4,0.0028 0.03073,0.12225 0.03125,0.125 5.24e-4,0.0028 0.03059,0.09103 0.03125,0.09375 6.6e-4,0.0027 -7.95e-4,0.09107 0,0.09375 7.95e-4,0.0027 0.03032,0.09111 0.03125,0.09375 9.27e-4,0.0026 0.06144,0.09116 0.0625,0.09375 0.0011,0.0026 0.03007,0.09121 0.03125,0.09375 0.0012,0.0025 0.02994,0.09128 0.03125,0.09375 0.0013,0.0025 0.06107,0.09134 0.0625,0.09375 0.0014,0.0024 0.06095,0.09142 0.0625,0.09375 0.0015,0.0023 0.06084,0.06025 0.0625,0.0625 0.0017,0.0023 0.06073,0.09158 0.0625,0.09375 0.0018,0.0022 0.06062,0.09167 0.0625,0.09375 0.0019,0.0021 0.06052,0.06052 0.0625,0.0625 0.002,0.002 0.06042,0.06062 0.0625,0.0625 0.0021,0.0019 0.09158,0.06073 0.09375,0.0625 0.0022,0.0018 0.0915,0.06084 0.09375,0.0625 0.0023,0.0017 0.06017,0.06095 0.0625,0.0625 0.0023,0.0015 0.09134,0.06107 0.09375,0.0625 0.0024,0.0014 0.09128,0.06119 0.09375,0.0625 0.0025,0.0013 0.09121,0.03006 0.09375,0.03125 0.0025,0.0012 0.09116,0.03019 0.09375,0.03125 0.0026,0.0011 0.09111,0.06157 0.09375,0.0625 0.0026,9.27e-4 0.09107,0.03046 0.09375,0.03125 0.0027,7.95e-4 0.09103,-6.6e-4 0.09375,0 0.0027,6.6e-4 0.091,0.03073 0.09375,0.03125 0.0027,5.24e-4 0.122227,0.03086 0.125,0.03125 0.0028,3.87e-4 0.09096,-2.49e-4 0.09375,0 0.0028,2.49e-4 0.09095,-1.1e-4 0.09375,0 0.0028,1.1e-4 0.09095,3e-5 0.09375,0 l 5.9375,0 0,5.9375 c -3e-5,0.0028 -1.1e-4,0.09095 0,0.09375 1.1e-4,0.0028 -2.49e-4,0.09096 0,0.09375 2.49e-4,0.0028 -3.87e-4,0.09098 0,0.09375 3.87e-4,0.0028 0.03073,0.12225 0.03125,0.125 5.24e-4,0.0028 0.03059,0.09103 0.03125,0.09375 6.6e-4,0.0027 -7.95e-4,0.09107 0,0.09375 7.95e-4,0.0027 0.03032,0.09111 0.03125,0.09375 9.27e-4,0.0026 0.06144,0.09116 0.0625,0.09375 0.0011,0.0026 0.03007,0.09121 0.03125,0.09375 0.0012,0.0025 0.02994,0.09128 0.03125,0.09375 0.0013,0.0025 0.06107,0.09134 0.0625,0.09375 0.0014,0.0024 0.06095,0.09142 0.0625,0.09375 0.0015,0.0023 0.06084,0.06025 0.0625,0.0625 0.0017,0.0023 0.06073,0.09158 0.0625,0.09375 0.0018,0.0022 0.06062,0.09167 0.0625,0.09375 0.0019,0.0021 0.06052,0.06052 0.0625,0.0625 0.002,0.002 0.06042,0.06062 0.0625,0.0625 0.0021,0.0019 0.09158,0.06073 0.09375,0.0625 0.0022,0.0018 0.0915,0.06084 0.09375,0.0625 0.0023,0.0017 0.06017,0.06095 0.0625,0.0625 0.0023,0.0015 0.09134,0.06107 0.09375,0.0625 0.0024,0.0014 0.09128,0.06119 0.09375,0.0625 0.0025,0.0013 0.09121,0.03006 0.09375,0.03125 0.0025,0.0012 0.09116,0.03019 0.09375,0.03125 0.0026,0.0011 0.09111,0.06157 0.09375,0.0625 0.0026,9.27e-4 0.09107,0.03046 0.09375,0.03125 0.0027,7.95e-4 0.09103,-6.6e-4 0.09375,0 0.0027,6.6e-4 0.091,0.03073 0.09375,0.03125 0.0027,5.24e-4 0.122227,0.03086 0.125,0.03125 0.0028,3.87e-4 0.09096,-2.49e-4 0.09375,0 0.0028,2.49e-4 0.09095,-1.1e-4 0.09375,0 0.0028,1.1e-4 0.09095,3e-5 0.09375,0 l 8,0 c 0.0028,3e-5 0.09095,1.1e-4 0.09375,0 0.0028,-1.1e-4 0.09096,2.49e-4 0.09375,0 0.0028,-2.49e-4 0.09098,3.87e-4 0.09375,0 0.0028,-3.87e-4 0.12225,-0.03073 0.125,-0.03125 C 38.409,78.030726 38.497279,78.00066 38.5,78 c 0.0027,-6.6e-4 0.09107,7.95e-4 0.09375,0 0.0027,-7.95e-4 0.09111,-0.03032 0.09375,-0.03125 0.0026,-9.27e-4 0.09116,-0.06144 0.09375,-0.0625 0.0026,-0.0011 0.09121,-0.03006 0.09375,-0.03125 0.0025,-0.0012 0.09128,-0.02994 0.09375,-0.03125 0.0025,-0.0013 0.09134,-0.06107 0.09375,-0.0625 0.0024,-0.0014 0.09142,-0.06095 0.09375,-0.0625 0.0023,-0.0015 0.06025,-0.06084 0.0625,-0.0625 0.0023,-0.0017 0.09158,-0.06073 0.09375,-0.0625 0.0022,-0.0018 0.09167,-0.06062 0.09375,-0.0625 0.0021,-0.0019 0.06052,-0.06052 0.0625,-0.0625 0.002,-0.002 0.06062,-0.06042 0.0625,-0.0625 0.0019,-0.0021 0.06073,-0.09158 0.0625,-0.09375 0.0018,-0.0022 0.06084,-0.0915 0.0625,-0.09375 0.0017,-0.0023 0.06095,-0.06017 0.0625,-0.0625 0.0015,-0.0023 0.06107,-0.09134 0.0625,-0.09375 0.0014,-0.0024 0.06119,-0.09128 0.0625,-0.09375 0.0013,-0.0025 0.03007,-0.09121 0.03125,-0.09375 0.0012,-0.0025 0.03019,-0.09116 0.03125,-0.09375 0.0011,-0.0026 0.06157,-0.09111 0.0625,-0.09375 9.27e-4,-0.0026 0.03046,-0.09107 0.03125,-0.09375 7.95e-4,-0.0027 -6.6e-4,-0.09103 0,-0.09375 6.6e-4,-0.0027 0.03073,-0.091 0.03125,-0.09375 5.24e-4,-0.0028 0.03086,-0.122227 0.03125,-0.125 3.87e-4,-0.0028 -2.49e-4,-0.09096 0,-0.09375 2.49e-4,-0.0028 -1.1e-4,-0.09095 0,-0.09375 1.1e-4,-0.0028 3e-5,-0.09095 0,-0.09375 l 0,-5.9375 5.9375,0 c 0.0039,5.3e-5 0.12114,2.12e-4 0.125,0 0.0039,-2.12e-4 0.152414,4.77e-4 0.15625,0 0.0038,-4.77e-4 0.121205,-0.03051 0.125,-0.03125 0.0038,-7.39e-4 0.121265,-0.03025 0.125,-0.03125 0.0037,-9.98e-4 0.152592,-0.03 0.15625,-0.03125 0.0037,-0.0013 0.121437,-0.061 0.125,-0.0625 0.0036,-0.0015 0.121548,-0.06076 0.125,-0.0625 0.0017,-8.7e-4 0.03236,-0.01473 0.0625,-0.03125 0.03014,0.01652 0.06077,0.03038 0.0625,0.03125 0.0035,0.0017 0.121437,0.061 0.125,0.0625 0.0036,0.0015 0.121342,0.06125 0.125,0.0625 0.0037,0.0013 0.152515,0.03025 0.15625,0.03125 0.0037,9.98e-4 0.121205,0.03051 0.125,0.03125 0.0038,7.39e-4 0.121164,0.03077 0.125,0.03125 0.0038,4.77e-4 0.15239,-2.12e-4 0.15625,0 0.0039,2.12e-4 0.121135,5.3e-5 0.125,0 l 14.5,0 c 3.054908,0 5.5625,-2.507592 5.5625,-5.5625 l 0,-37 c 0,-3.054908 -2.507592,-5.5625 -5.5625,-5.5625 l -29,0 z m 4.5625,10.125 19.875,0 0,27.875 -9.875,0 c -2.2e-4,-0.01485 3.7e-5,-0.03032 0,-0.03125 -1.1e-4,-0.0028 2.49e-4,-0.09096 0,-0.09375 -2.49e-4,-0.0028 3.87e-4,-0.09098 0,-0.09375 -3.87e-4,-0.0028 -0.03073,-0.12225 -0.03125,-0.125 C 48.030726,59.591 48.00066,59.502721 48,59.5 c -6.6e-4,-0.0027 7.95e-4,-0.09107 0,-0.09375 -7.95e-4,-0.0027 -0.03032,-0.09111 -0.03125,-0.09375 -9.27e-4,-0.0026 -0.06144,-0.09116 -0.0625,-0.09375 -0.0011,-0.0026 -0.03007,-0.09121 -0.03125,-0.09375 -0.0012,-0.0025 -0.02994,-0.09128 -0.03125,-0.09375 -0.0013,-0.0025 -0.06107,-0.09134 -0.0625,-0.09375 -0.0014,-0.0024 -0.06095,-0.09142 -0.0625,-0.09375 -0.0015,-0.0023 -0.06084,-0.06025 -0.0625,-0.0625 -0.0017,-0.0023 -0.06073,-0.09158 -0.0625,-0.09375 -0.0018,-0.0022 -0.06062,-0.09167 -0.0625,-0.09375 -0.0019,-0.0021 -0.06052,-0.06052 -0.0625,-0.0625 -0.002,-0.002 -0.06042,-0.06062 -0.0625,-0.0625 -0.0021,-0.0019 -0.09158,-0.06073 -0.09375,-0.0625 -0.0022,-0.0018 -0.0915,-0.06084 -0.09375,-0.0625 -0.0023,-0.0017 -0.06017,-0.06095 -0.0625,-0.0625 -0.0023,-0.0015 -0.09134,-0.06107 -0.09375,-0.0625 -0.0024,-0.0014 -0.09128,-0.06119 -0.09375,-0.0625 -0.0025,-0.0013 -0.09121,-0.03007 -0.09375,-0.03125 -0.0025,-0.0012 -0.09116,-0.03019 -0.09375,-0.03125 -0.0026,-0.0011 -0.09111,-0.06157 -0.09375,-0.0625 -0.0026,-9.27e-4 -0.09107,-0.03046 -0.09375,-0.03125 -0.0027,-7.95e-4 -0.09103,6.6e-4 -0.09375,0 -0.0027,-6.6e-4 -0.091,-0.03073 -0.09375,-0.03125 -0.0027,-5.24e-4 -0.122227,-0.03086 -0.125,-0.03125 -0.0028,-3.87e-4 -0.09096,2.49e-4 -0.09375,0 -0.0028,-2.49e-4 -0.09095,1.1e-4 -0.09375,0 -0.0028,-1.1e-4 -0.09095,-3e-5 -0.09375,0 l -5.9375,0 0,-5.9375 c 3e-5,-0.0028 1.1e-4,-0.09095 0,-0.09375 -1.1e-4,-0.0028 2.49e-4,-0.09096 0,-0.09375 -2.49e-4,-0.0028 3.87e-4,-0.09098 0,-0.09375 -3.87e-4,-0.0028 -0.03073,-0.12225 -0.03125,-0.125 C 40.030726,51.591 40.00066,51.502721 40,51.5 c -6.6e-4,-0.0027 7.95e-4,-0.09107 0,-0.09375 -7.95e-4,-0.0027 -0.03032,-0.09111 -0.03125,-0.09375 -9.27e-4,-0.0026 -0.06144,-0.09116 -0.0625,-0.09375 -0.0011,-0.0026 -0.03007,-0.09121 -0.03125,-0.09375 -0.0012,-0.0025 -0.02994,-0.09128 -0.03125,-0.09375 -0.0013,-0.0025 -0.06107,-0.09134 -0.0625,-0.09375 -0.0014,-0.0024 -0.06095,-0.09142 -0.0625,-0.09375 -0.0015,-0.0023 -0.06084,-0.06025 -0.0625,-0.0625 -0.0017,-0.0023 -0.06073,-0.09158 -0.0625,-0.09375 -0.0018,-0.0022 -0.06062,-0.09167 -0.0625,-0.09375 -0.0019,-0.0021 -0.06052,-0.06052 -0.0625,-0.0625 -0.002,-0.002 -0.06042,-0.06062 -0.0625,-0.0625 -0.0021,-0.0019 -0.09158,-0.06073 -0.09375,-0.0625 -0.0022,-0.0018 -0.0915,-0.06084 -0.09375,-0.0625 -0.0023,-0.0017 -0.06017,-0.06095 -0.0625,-0.0625 -0.0023,-0.0015 -0.09134,-0.06107 -0.09375,-0.0625 -0.0024,-0.0014 -0.09128,-0.06119 -0.09375,-0.0625 -0.0025,-0.0013 -0.09121,-0.03007 -0.09375,-0.03125 -0.0025,-0.0012 -0.09116,-0.03019 -0.09375,-0.03125 -0.0026,-0.0011 -0.09111,-0.06157 -0.09375,-0.0625 -0.0026,-9.27e-4 -0.09107,-0.03046 -0.09375,-0.03125 -0.0027,-7.95e-4 -0.09103,6.6e-4 -0.09375,0 -0.0027,-6.6e-4 -0.091,-0.03073 -0.09375,-0.03125 -0.0027,-5.24e-4 -0.122227,-0.03086 -0.125,-0.03125 -0.0028,-3.87e-4 -0.09096,2.49e-4 -0.09375,0 -0.0028,-2.49e-4 -0.09095,1.1e-4 -0.09375,0 -9.32e-4,-3.7e-5 -0.0164,2.2e-4 -0.03125,0 l 0,-17.875 z"
       transform="translate(0,1)" />
    <path
       sodipodi:type="inkscape:offset"
       inkscape:radius="1.113181"
       inkscape:original="M 33.5 24 C 31.561 24 30 25.561 30 27.5 L 30 50 L 36 50 L 36 32 C 36 30.892 36.892 30 38 30 L 58 30 C 59.108 30 60 30.892 60 32 L 60 60 C 60 61.108 59.108 62 58 62 L 48 62 L 48 68 L 62.5 68 C 64.439 68 66 66.439 66 64.5 L 66 27.5 C 66 25.561 64.439 24 62.5 24 L 33.5 24 z M 30 52 L 30 60 L 22 60 L 22 68 L 30 68 L 30 76 L 38 76 L 38 68 L 46 68 L 46 60 L 38 60 L 38 52 L 30 52 z "
       style="opacity:0.15;color:#000000;fill:#000000;fill-opacity:1;fill-rule:nonzero;stroke:none;stroke-width:2;marker:none;visibility:visible;display:inline;overflow:visible;enable-background:accumulate"
       id="path3903"
       d="m 33.5,22.875 c -2.536447,0 -4.625,2.088553 -4.625,4.625 l 0,22.5 a 1.1132923,1.1132923 0 0 0 0.625,1 1.1132923,1.1132923 0 0 0 -0.625,1 l 0,6.875 -6.875,0 A 1.1132923,1.1132923 0 0 0 20.875,60 l 0,8 A 1.1132923,1.1132923 0 0 0 22,69.125 l 6.875,0 0,6.875 A 1.1132923,1.1132923 0 0 0 30,77.125 l 8,0 A 1.1132923,1.1132923 0 0 0 39.125,76 l 0,-6.875 6.875,0 a 1.1132923,1.1132923 0 0 0 1,-0.625 1.1132923,1.1132923 0 0 0 1,0.625 l 14.5,0 c 2.536447,0 4.625,-2.088553 4.625,-4.625 l 0,-37 c 0,-2.536447 -2.088553,-4.625 -4.625,-4.625 l -29,0 z m 4.5,8.25 20,0 c 0.510553,0 0.875,0.364447 0.875,0.875 l 0,28 c 0,0.510553 -0.364447,0.875 -0.875,0.875 l -10,0 a 1.1132923,1.1132923 0 0 0 -0.875,0.4375 L 47.125,60 A 1.1132923,1.1132923 0 0 0 46,58.875 l -6.875,0 0,-6.875 A 1.1132923,1.1132923 0 0 0 38,50.875 l -1.3125,0 A 1.1132923,1.1132923 0 0 0 37.125,50 l 0,-18 c 0,-0.510553 0.364447,-0.875 0.875,-0.875 z"
       transform="translate(0,1)" />
    <path
       inkscape:connector-curvature="0"
       id="path3908"
       d="M 33.5,25 C 31.561,25 30,26.561 30,28.5 l 0,22.5 6,0 0,-18 c 0,-1.108 0.892,-2 2,-2 l 20,0 c 1.108,0 2,0.892 2,2 l 0,28 c 0,1.108 -0.892,2 -2,2 l -10,0 0,6 14.5,0 c 1.939,0 3.5,-1.561 3.5,-3.5 l 0,-37 C 66,26.561 64.439,25 62.5,25 l -29,0 z m -3.5,28 0,8 -8,0 0,8 8,0 0,8 8,0 0,-8 8,0 0,-8 -8,0 0,-8 -8,0 z"
       style="color:#000000;fill:#000000;fill-opacity:1;fill-rule:nonzero;stroke:none;stroke-width:2;marker:none;visibility:visible;display:inline;overflow:visible;enable-background:accumulate;opacity:0.3" />
    <rect
       style="color:#000000;fill:url(#linearGradient3905);fill-opacity:1;fill-rule:nonzero;stroke:none;stroke-width:2;marker:none;visibility:visible;display:inline;overflow:visible;enable-background:accumulate"
       id="rect3897"
       width="16"
       height="16"
       x="0"
       y="104"
       transform="matrix(0,1,1,0,0,0)" />
    <text
       xml:space="preserve"
       style="font-size:4px;font-style:normal;font-variant:normal;font-weight:normal;font-stretch:normal;text-align:start;line-height:125%;letter-spacing:0px;word-spacing:0px;writing-mode:lr-tb;text-anchor:start;fill:#000000;fill-opacity:1;stroke:none;font-family:Liberation Sans;-inkscape-font-specification:Liberation Sans"
       x="104"
       y="48"
       id="text3907"
       sodipodi:linespacing="125%"><tspan
         sodipodi:role="line"
         id="tspan3909"
         x="104"
         y="48">Shadow opacity : 30, 15, 10, (8)</tspan></text>
    <rect
       transform="matrix(0,-1,1,0,0,0)"
       y="104"
       x="-40"
       height="16"
       width="16"
       id="rect3911"
       style="color:#000000;fill:url(#linearGradient3913);fill-opacity:1;fill-rule:nonzero;stroke:none;stroke-width:2;marker:none;visibility:visible;display:inline;overflow:visible;enable-background:accumulate" />
    <text
       sodipodi:linespacing="125%"
       id="text3951"
       y="32"
       x="124"
       style="font-size:4px;font-style:normal;font-variant:normal;font-weight:normal;font-stretch:normal;text-align:start;line-height:125%;letter-spacing:0px;word-spacing:0px;writing-mode:lr-tb;text-anchor:start;fill:#000000;fill-opacity:1;stroke:none;font-family:Liberation Sans;-inkscape-font-specification:Liberation Sans"
       xml:space="preserve"><tspan
         y="32"
         x="124"
         id="tspan3953"
         sodipodi:role="line">Bevel opacity : 30 / 10</tspan></text>
    <text
       xml:space="preserve"
       style="font-size:4px;font-style:normal;font-variant:normal;font-weight:normal;font-stretch:normal;text-align:start;line-height:125%;letter-spacing:0px;word-spacing:0px;writing-mode:lr-tb;text-anchor:start;fill:#000000;fill-opacity:1;stroke:none;font-family:Liberation Sans;-inkscape-font-specification:Liberation Sans"
       x="124"
       y="8"
       id="text3955"
       sodipodi:linespacing="125%"><tspan
         sodipodi:role="line"
         id="tspan3957"
         x="124"
         y="8">Bevel opacity : 75 / 15</tspan></text>
    <path
       style="opacity:1;color:#000000;fill:url(#linearGradient3879);fill-opacity:1;fill-rule:nonzero;stroke:none;stroke-width:2;marker:none;visibility:visible;display:inline;overflow:visible;enable-background:accumulate"
       d="M 33.5,24 C 31.561,24 30,25.561 30,27.5 l 0,22.5 6,0 0,-18 c 0,-1.108 0.892,-2 2,-2 l 20,0 c 1.108,0 2,0.892 2,2 l 0,28 c 0,1.108 -0.892,2 -2,2 l -10,0 0,6 14.5,0 c 1.939,0 3.5,-1.561 3.5,-3.5 l 0,-37 C 66,25.561 64.439,24 62.5,24 l -29,0 z m -3.5,28 0,8 -8,0 0,8 8,0 0,8 8,0 0,-8 8,0 0,-8 -8,0 0,-8 -8,0 z"
       id="rect3083"
       inkscape:connector-curvature="0" />
    <path
       style="opacity:0.75;color:#000000;fill:#ffffff;fill-opacity:1;fill-rule:nonzero;stroke:none;stroke-width:2;marker:none;visibility:visible;display:inline;overflow:visible;enable-background:accumulate"
       d="M 33.5 24 C 31.561 24 30 25.561 30 27.5 L 30 28.5 C 30 26.561 31.561 25 33.5 25 L 62.5 25 C 64.439 25 66 26.561 66 28.5 L 66 27.5 C 66 25.561 64.439 24 62.5 24 L 33.5 24 z M 30 52 L 30 53 L 38 53 L 38 52 L 30 52 z M 22 60 L 22 61 L 30 61 L 30 60 L 22 60 z M 38 60 L 38 61 L 46 61 L 46 60 L 38 60 z M 60 60 C 60 61.108 59.108 62 58 62 L 48 62 L 48 63 L 58 63 C 59.108 63 60 62.108 60 61 L 60 60 z "
       id="path3881" />
    <path
       style="opacity:0.15;color:#000000;fill:#000000;fill-opacity:1;fill-rule:nonzero;stroke:none;stroke-width:2;marker:none;visibility:visible;display:inline;overflow:visible;enable-background:accumulate"
       d="M 38 29 C 36.892 29 36 29.892 36 31 L 36 32 C 36 30.892 36.892 30 38 30 L 58 30 C 59.108 30 60 30.892 60 32 L 60 31 C 60 29.892 59.108 29 58 29 L 38 29 z M 30 49 L 30 50 L 36 50 L 36 49 L 30 49 z M 66 63.5 C 66 65.439 64.439 67 62.5 67 L 48 67 L 48 68 L 62.5 68 C 64.439 68 66 66.439 66 64.5 L 66 63.5 z M 22 67 L 22 68 L 30 68 L 30 67 L 22 67 z M 38 67 L 38 68 L 46 68 L 46 67 L 38 67 z M 30 75 L 30 76 L 38 76 L 38 75 L 30 75 z "
       id="path3890" />
  </g>
</svg>
