<svg height="24" width="24" xmlns="http://www.w3.org/2000/svg"><path d="m11.111 8v3.5556l.22222 1.7778h1.3333l.22222-1.7778v-3.5556zm0 6.2222v1.7778h1.7778v-1.7778z" fill="#ef2929"/><g fill="#363636"><path d="m6.002 7c-.34766-.0009221-.67086.17879-.85352.47461l-2.8945 3.8613c-.16267.18228-.25299.4178-.25391.66211-.0001558.21949.071909.43294.20508.60742.00947.0126.01924.02497.029297.03711l2.9375 3.918c.18564.27425.495.43881.82617.43945.55229.00108 1.0009-.44576 1.002-.99805-.000136-.21459-.069298-.42344-.19727-.5957l.00195-.002-2.5508-3.4023 2.5508-3.4023-.00391-.00195c.12866-.172.19851-.38086.19923-.59566.0010797-.55229-.44576-1.0009-.99805-1.002z"/><path d="m17.998 7c-.55228.0010776-.99913.44967-.99805 1.002.000701.21481.07055.42369.19922.5957l-.0039.00195 2.5508 3.4023-2.5508 3.4023.002.002c-.12798.17224-.19716.38108-.19732.59566.0011.55229.44967.99913 1.002.99805.33117-.000647.64054-.1652.82617-.43945l2.9375-3.918c.01006-.01214.01983-.02451.0293-.03711.13317-.17448.20523-.38793.20508-.60742-.000914-.24431-.09123-.47983-.25391-.66211l-2.8945-3.8613c-.18266-.29582-.50585-.47553-.85352-.47461z"/></g></svg>