<svg width="24" height="24" version="1.1" xmlns="http://www.w3.org/2000/svg">
 <g fill="#363636">
  <path d="m9 11a1 1 0 1 0 0 2 1 1 0 0 0 0-2zm3 0a1 1 0 1 0 0 2 1 1 0 0 0 0-2zm3 0a1 1 0 1 0 0 2 1 1 0 0 0 0-2z"/>
  <path d="m6.002 7c-0.34766-9.221e-4 -0.67086 0.17879-0.85352 0.47461l-2.8945 3.8613c-0.16267 0.18228-0.25299 0.4178-0.25391 0.66211-1.558e-4 0.21949 0.071909 0.43294 0.20508 0.60742 0.00947 0.0126 0.01924 0.02497 0.029297 0.03711l2.9375 3.918c0.18564 0.27425 0.495 0.43881 0.82617 0.43945 0.55229 0.00108 1.0009-0.44576 1.002-0.99805-1.36e-4 -0.21459-0.069298-0.42344-0.19727-0.5957l0.00195-2e-3 -2.5508-3.4023 2.5508-3.4023-0.00391-0.00195c0.12866-0.172 0.19851-0.38086 0.19923-0.59566 0.0010797-0.55229-0.44576-1.0009-0.99805-1.002z" opacity=".35"/>
  <path d="m17.998 7c-0.55228 0.0010776-0.99913 0.44967-0.99805 1.002 7.01e-4 0.21481 0.07055 0.42369 0.19922 0.5957l-0.0039 0.00195 2.5508 3.4023-2.5508 3.4023 2e-3 2e-3c-0.12798 0.17224-0.19716 0.38108-0.19732 0.59566 0.0011 0.55229 0.44967 0.99913 1.002 0.99805 0.33117-6.47e-4 0.64054-0.1652 0.82617-0.43945l2.9375-3.918c0.01006-0.01214 0.01983-0.02451 0.0293-0.03711 0.13317-0.17448 0.20523-0.38793 0.20508-0.60742-9.14e-4 -0.24431-0.09123-0.47983-0.25391-0.66211l-2.8945-3.8613c-0.18266-0.29582-0.50585-0.47553-0.85352-0.47461z"/>
 </g>
</svg>
